ISO-10303-21;
HEADER;

/* File generated by Shapr3D Version 5.831.0.8630 */

FILE_DESCRIPTION(('HOOPS Exchange Step'),'2;1');

FILE_NAME('/Users/quimgraellsolive/Library/Containers/com.shapr3d.shapr/Data/tmp/export/temp_export',
'2025-04-22T23:22:57+02:00',
('quimgraellsolive'),
('Shapr3D Limited'),
'HOOPS Exchange 2024.8',
'Shapr3D',
'Authorized');

FILE_SCHEMA( ('AP242_MANAGED_MODEL_BASED_3D_ENGINEERING_MIM_LF {1 0 10303 442 1 1 4}') );

ENDSEC;

DATA;
#3=(NAMED_UNIT(*)PLANE_ANGLE_UNIT()SI_UNIT($,.RADIAN.));
#4=PLANE_ANGLE_MEASURE_WITH_UNIT(PLANE_ANGLE_MEASURE(0.0174532925),#3);
#5=(CONVERSION_BASED_UNIT('DEGREE',#4)NAMED_UNIT(#6)PLANE_ANGLE_UNIT());
#6=DIMENSIONAL_EXPONENTS(0.,0.,0.,0.,0.,0.,0.);
#7=(NAMED_UNIT(*)SI_UNIT($,.STERADIAN.)SOLID_ANGLE_UNIT());
#8=(LENGTH_UNIT()NAMED_UNIT(*)SI_UNIT(.MILLI.,.METRE.));
#9=UNCERTAINTY_MEASURE_WITH_UNIT(LENGTH_MEASURE(1.000000E-05),#8,'DISTANCE_ACCURACY_VALUE','Maximum Tolerance applied to model');
#10=(GEOMETRIC_REPRESENTATION_CONTEXT(3)GLOBAL_UNCERTAINTY_ASSIGNED_CONTEXT((#9))GLOBAL_UNIT_ASSIGNED_CONTEXT((#8,#5,#7))REPRESENTATION_CONTEXT('','4_pat'));
#12=CARTESIAN_POINT('',(0.,0.,0.));
#13=DIRECTION('',(0.,0.,1.));
#14=DIRECTION('',(1.,0.,0.));
#15=AXIS2_PLACEMENT_3D('TS3D_PRODUCT_CSYS',#12,#13,#14);
#27=CARTESIAN_POINT('',(33.12610134,108.629587024,43.517693924));
#28=DIRECTION('',(-0.,1.,-0.));
#29=DIRECTION('',(0.991248873,0.,0.132006333));
#30=AXIS2_PLACEMENT_3D('',#27,#28,#29);
#31=PLANE('',#30);
#32=CARTESIAN_POINT('',(15.76905347,108.629587024,42.685729717));
#33=VERTEX_POINT('',#32);
#34=CARTESIAN_POINT('',(23.459810662,108.629587024,45.440489482));
#35=VERTEX_POINT('',#34);
#36=CARTESIAN_POINT('',(15.76905347,108.629587024,42.685729717));
#37=DIRECTION('',(0.941428969,0.,0.337211354));
#38=VECTOR('',#37,8.169237881);
#39=LINE('',#36,#38);
#40=EDGE_CURVE('',#33,#35,#39,.T.);
#41=ORIENTED_EDGE('',*,*,#40,.F.);
#42=CARTESIAN_POINT('',(16.156243002,108.629587024,39.77828445));
#43=VERTEX_POINT('',#42);
#44=CARTESIAN_POINT('',(16.2748705,108.629587024,41.273586264));
#45=DIRECTION('',(0.,1.,-0.));
#46=DIRECTION('',(-0.132006333,0.,0.991248873));
#47=AXIS2_PLACEMENT_3D('',#44,#45,#46);
#48=CIRCLE('',#47,1.5);
#49=EDGE_CURVE('',#43,#33,#48,.T.);
#50=ORIENTED_EDGE('',*,*,#49,.F.);
#51=CARTESIAN_POINT('',(24.299893821,108.629587024,39.132220283));
#52=VERTEX_POINT('',#51);
#53=CARTESIAN_POINT('',(24.299893821,108.629587024,39.132220283));
#54=DIRECTION('',(-0.996867876,0.,0.079084999));
#55=VECTOR('',#54,8.169237881);
#56=LINE('',#53,#55);
#57=EDGE_CURVE('',#52,#43,#56,.T.);
#58=ORIENTED_EDGE('',*,*,#57,.F.);
#59=CARTESIAN_POINT('',(28.409510574,108.629587024,39.67950508));
#60=VERTEX_POINT('',#59);
#61=CARTESIAN_POINT('',(28.409510574,108.629587024,39.67950508));
#62=DIRECTION('',(-0.991248873,-0.,-0.132006333));
#63=VECTOR('',#62,4.145898034);
#64=LINE('',#61,#63);
#65=EDGE_CURVE('',#60,#52,#64,.T.);
#66=ORIENTED_EDGE('',*,*,#65,.F.);
#67=CARTESIAN_POINT('',(30.656020986,108.629587024,37.96102));
#68=VERTEX_POINT('',#67);
#69=CARTESIAN_POINT('',(28.67352324,108.629587024,37.697007334));
#70=DIRECTION('',(-0.,-1.,0.));
#71=DIRECTION('',(-0.132006333,0.,0.991248873));
#72=AXIS2_PLACEMENT_3D('',#69,#70,#71);
#73=CIRCLE('',#72,2.);
#74=EDGE_CURVE('',#68,#60,#73,.T.);
#75=ORIENTED_EDGE('',*,*,#74,.F.);
#76=CARTESIAN_POINT('',(31.203305782,108.629587024,33.851403246));
#77=VERTEX_POINT('',#76);
#78=CARTESIAN_POINT('',(31.203305782,108.629587024,33.851403246));
#79=DIRECTION('',(-0.132006333,0.,0.991248873));
#80=VECTOR('',#79,4.145898034);
#81=LINE('',#78,#80);
#82=EDGE_CURVE('',#77,#68,#81,.T.);
#83=ORIENTED_EDGE('',*,*,#82,.F.);
#84=CARTESIAN_POINT('',(33.958065547,108.629587024,26.160646054));
#85=VERTEX_POINT('',#84);
#86=CARTESIAN_POINT('',(33.958065547,108.629587024,26.160646054));
#87=DIRECTION('',(-0.337211354,0.,0.941428969));
#88=VECTOR('',#87,8.169237881);
#89=LINE('',#86,#88);
#90=EDGE_CURVE('',#85,#77,#89,.T.);
#91=ORIENTED_EDGE('',*,*,#90,.F.);
#92=CARTESIAN_POINT('',(36.865510815,108.629587024,26.547835587));
#93=VERTEX_POINT('',#92);
#94=CARTESIAN_POINT('',(35.370209,108.629587024,26.666463085));
#95=DIRECTION('',(0.,1.,-0.));
#96=DIRECTION('',(-0.132006333,0.,0.991248873));
#97=AXIS2_PLACEMENT_3D('',#94,#95,#96);
#98=CIRCLE('',#97,1.5);
#99=EDGE_CURVE('',#93,#85,#98,.T.);
#100=ORIENTED_EDGE('',*,*,#99,.F.);
#101=CARTESIAN_POINT('',(37.511574981,108.629587024,34.691486405));
#102=VERTEX_POINT('',#101);
#103=CARTESIAN_POINT('',(37.511574981,108.629587024,34.691486405));
#104=DIRECTION('',(-0.079084999,-0.,-0.996867876));
#105=VECTOR('',#104,8.169237881);
#106=LINE('',#103,#105);
#107=EDGE_CURVE('',#102,#93,#106,.T.);
#108=ORIENTED_EDGE('',*,*,#107,.F.);
#109=CARTESIAN_POINT('',(36.964290185,108.629587024,38.801103158));
#110=VERTEX_POINT('',#109);
#111=CARTESIAN_POINT('',(36.964290185,108.629587024,38.801103158));
#112=DIRECTION('',(0.132006333,-0.,-0.991248873));
#113=VECTOR('',#112,4.145898034);
#114=LINE('',#111,#113);
#115=EDGE_CURVE('',#110,#102,#114,.T.);
#116=ORIENTED_EDGE('',*,*,#115,.F.);
#117=CARTESIAN_POINT('',(38.682775265,108.629587024,41.04761357));
#118=VERTEX_POINT('',#117);
#119=CARTESIAN_POINT('',(38.94678793,108.629587024,39.065115824));
#120=DIRECTION('',(-0.,-1.,0.));
#121=DIRECTION('',(-0.132006333,0.,0.991248873));
#122=AXIS2_PLACEMENT_3D('',#119,#120,#121);
#123=CIRCLE('',#122,2.);
#124=EDGE_CURVE('',#118,#110,#123,.T.);
#125=ORIENTED_EDGE('',*,*,#124,.F.);
#126=CARTESIAN_POINT('',(42.792392018,108.629587024,41.594898366));
#127=VERTEX_POINT('',#126);
#128=CARTESIAN_POINT('',(42.792392018,108.629587024,41.594898366));
#129=DIRECTION('',(-0.991248873,-0.,-0.132006333));
#130=VECTOR('',#129,4.145898034);
#131=LINE('',#128,#130);
#132=EDGE_CURVE('',#127,#118,#131,.T.);
#133=ORIENTED_EDGE('',*,*,#132,.F.);
#134=CARTESIAN_POINT('',(50.48314921,108.629587024,44.349658132));
#135=VERTEX_POINT('',#134);
#136=CARTESIAN_POINT('',(50.48314921,108.629587024,44.349658132));
#137=DIRECTION('',(-0.941428969,-0.,-0.337211354));
#138=VECTOR('',#137,8.169237881);
#139=LINE('',#136,#138);
#140=EDGE_CURVE('',#135,#127,#139,.T.);
#141=ORIENTED_EDGE('',*,*,#140,.F.);
#142=CARTESIAN_POINT('',(51.464205489,108.629587024,45.959811084));
#143=VERTEX_POINT('',#142);
#144=CARTESIAN_POINT('',(49.977332179,108.629587024,45.761801584));
#145=DIRECTION('',(0.,1.,-0.));
#146=DIRECTION('',(-0.132006333,0.,0.991248873));
#147=AXIS2_PLACEMENT_3D('',#144,#145,#146);
#148=CIRCLE('',#147,1.5);
#149=EDGE_CURVE('',#143,#135,#148,.T.);
#150=ORIENTED_EDGE('',*,*,#149,.F.);
#151=CARTESIAN_POINT('',(50.095959677,108.629587024,47.257103399));
#152=VERTEX_POINT('',#151);
#153=CARTESIAN_POINT('',(49.977332179,108.629587024,45.761801584));
#154=DIRECTION('',(0.,1.,-0.));
#155=DIRECTION('',(-0.132006333,0.,0.991248873));
#156=AXIS2_PLACEMENT_3D('',#153,#154,#155);
#157=CIRCLE('',#156,1.5);
#158=EDGE_CURVE('',#152,#143,#157,.T.);
#159=ORIENTED_EDGE('',*,*,#158,.F.);
#160=CARTESIAN_POINT('',(41.952308859,108.629587024,47.903167565));
#161=VERTEX_POINT('',#160);
#162=CARTESIAN_POINT('',(41.952308859,108.629587024,47.903167565));
#163=DIRECTION('',(0.996867876,-0.,-0.079084999));
#164=VECTOR('',#163,8.169237881);
#165=LINE('',#162,#164);
#166=EDGE_CURVE('',#161,#152,#165,.T.);
#167=ORIENTED_EDGE('',*,*,#166,.F.);
#168=CARTESIAN_POINT('',(37.842692106,108.629587024,47.355882769));
#169=VERTEX_POINT('',#168);
#170=CARTESIAN_POINT('',(37.842692106,108.629587024,47.355882769));
#171=DIRECTION('',(0.991248873,0.,0.132006333));
#172=VECTOR('',#171,4.145898034);
#173=LINE('',#170,#172);
#174=EDGE_CURVE('',#169,#161,#173,.T.);
#175=ORIENTED_EDGE('',*,*,#174,.F.);
#176=CARTESIAN_POINT('',(35.596181694,108.629587024,49.074367849));
#177=VERTEX_POINT('',#176);
#178=CARTESIAN_POINT('',(37.57867944,108.629587024,49.338380515));
#179=DIRECTION('',(-0.,-1.,0.));
#180=DIRECTION('',(-0.132006333,0.,0.991248873));
#181=AXIS2_PLACEMENT_3D('',#178,#179,#180);
#182=CIRCLE('',#181,2.);
#183=EDGE_CURVE('',#177,#169,#182,.T.);
#184=ORIENTED_EDGE('',*,*,#183,.F.);
#185=CARTESIAN_POINT('',(35.048896898,108.629587024,53.183984602));
#186=VERTEX_POINT('',#185);
#187=CARTESIAN_POINT('',(35.048896898,108.629587024,53.183984602));
#188=DIRECTION('',(0.132006333,-0.,-0.991248873));
#189=VECTOR('',#188,4.145898034);
#190=LINE('',#187,#189);
#191=EDGE_CURVE('',#186,#177,#190,.T.);
#192=ORIENTED_EDGE('',*,*,#191,.F.);
#193=CARTESIAN_POINT('',(32.294137133,108.629587024,60.874741795));
#194=VERTEX_POINT('',#193);
#195=CARTESIAN_POINT('',(32.294137133,108.629587024,60.874741795));
#196=DIRECTION('',(0.337211354,-0.,-0.941428969));
#197=VECTOR('',#196,8.169237881);
#198=LINE('',#195,#197);
#199=EDGE_CURVE('',#194,#186,#198,.T.);
#200=ORIENTED_EDGE('',*,*,#199,.F.);
#201=CARTESIAN_POINT('',(29.386691865,108.629587024,60.487552262));
#202=VERTEX_POINT('',#201);
#203=CARTESIAN_POINT('',(30.88199368,108.629587024,60.368924764));
#204=DIRECTION('',(0.,1.,-0.));
#205=DIRECTION('',(-0.132006333,0.,0.991248873));
#206=AXIS2_PLACEMENT_3D('',#203,#204,#205);
#207=CIRCLE('',#206,1.5);
#208=EDGE_CURVE('',#202,#194,#207,.T.);
#209=ORIENTED_EDGE('',*,*,#208,.F.);
#210=CARTESIAN_POINT('',(28.740627699,108.629587024,52.343901443));
#211=VERTEX_POINT('',#210);
#212=CARTESIAN_POINT('',(28.740627699,108.629587024,52.343901443));
#213=DIRECTION('',(0.079084999,0.,0.996867876));
#214=VECTOR('',#213,8.169237881);
#215=LINE('',#212,#214);
#216=EDGE_CURVE('',#211,#202,#215,.T.);
#217=ORIENTED_EDGE('',*,*,#216,.F.);
#218=CARTESIAN_POINT('',(29.287912495,108.629587024,48.23428469));
#219=VERTEX_POINT('',#218);
#220=CARTESIAN_POINT('',(29.287912495,108.629587024,48.23428469));
#221=DIRECTION('',(-0.132006333,0.,0.991248873));
#222=VECTOR('',#221,4.145898034);
#223=LINE('',#220,#222);
#224=EDGE_CURVE('',#219,#211,#223,.T.);
#225=ORIENTED_EDGE('',*,*,#224,.F.);
#226=CARTESIAN_POINT('',(27.569427415,108.629587024,45.987774279));
#227=VERTEX_POINT('',#226);
#228=CARTESIAN_POINT('',(27.305414749,108.629587024,47.970272024));
#229=DIRECTION('',(-0.,-1.,0.));
#230=DIRECTION('',(-0.132006333,0.,0.991248873));
#231=AXIS2_PLACEMENT_3D('',#228,#229,#230);
#232=CIRCLE('',#231,2.);
#233=EDGE_CURVE('',#227,#219,#232,.T.);
#234=ORIENTED_EDGE('',*,*,#233,.F.);
#235=CARTESIAN_POINT('',(23.459810662,108.629587024,45.440489482));
#236=DIRECTION('',(0.991248873,0.,0.132006333));
#237=VECTOR('',#236,4.145898034);
#238=LINE('',#235,#237);
#239=EDGE_CURVE('',#35,#227,#238,.T.);
#240=ORIENTED_EDGE('',*,*,#239,.F.);
#241=EDGE_LOOP('',(#41,#50,#58,#66,#75,#83,#91,#100,#108,#116,#125,#133,#141,#150,#159,#167,#175,#184,#192,#200,#209,#217,#225,#234,#240));
#242=FACE_BOUND('',#241,.T.);
#243=CARTESIAN_POINT('',(17.018307155,108.629587024,41.372591014));
#244=VERTEX_POINT('',#243);
#245=CARTESIAN_POINT('',(16.175865751,108.629587024,42.017022919));
#246=VERTEX_POINT('',#245);
#247=CARTESIAN_POINT('',(16.2748705,108.629587024,41.273586264));
#248=DIRECTION('',(-0.,-1.,0.));
#249=DIRECTION('',(-0.132006333,0.,0.991248873));
#250=AXIS2_PLACEMENT_3D('',#247,#248,#249);
#251=CIRCLE('',#250,0.75);
#252=EDGE_CURVE('',#244,#246,#251,.T.);
#253=ORIENTED_EDGE('',*,*,#252,.F.);
#254=CARTESIAN_POINT('',(16.2748705,108.629587024,41.273586264));
#255=DIRECTION('',(-0.,-1.,0.));
#256=DIRECTION('',(-0.132006333,0.,0.991248873));
#257=AXIS2_PLACEMENT_3D('',#254,#255,#256);
#258=CIRCLE('',#257,0.75);
#259=EDGE_CURVE('',#246,#244,#258,.T.);
#260=ORIENTED_EDGE('',*,*,#259,.F.);
#261=EDGE_LOOP('',(#253,#260));
#262=FACE_BOUND('',#261,.T.);
#263=CARTESIAN_POINT('',(22.965800392,108.629587024,42.164629012));
#264=VERTEX_POINT('',#263);
#265=CARTESIAN_POINT('',(22.123358988,108.629587024,42.809060917));
#266=VERTEX_POINT('',#265);
#267=CARTESIAN_POINT('',(22.222363738,108.629587024,42.065624262));
#268=DIRECTION('',(-0.,-1.,0.));
#269=DIRECTION('',(-0.132006333,0.,0.991248873));
#270=AXIS2_PLACEMENT_3D('',#267,#268,#269);
#271=CIRCLE('',#270,0.75);
#272=EDGE_CURVE('',#264,#266,#271,.T.);
#273=ORIENTED_EDGE('',*,*,#272,.F.);
#274=CARTESIAN_POINT('',(22.222363738,108.629587024,42.065624262));
#275=DIRECTION('',(-0.,-1.,0.));
#276=DIRECTION('',(-0.132006333,0.,0.991248873));
#277=AXIS2_PLACEMENT_3D('',#274,#275,#276);
#278=CIRCLE('',#277,0.75);
#279=EDGE_CURVE('',#266,#264,#278,.T.);
#280=ORIENTED_EDGE('',*,*,#279,.F.);
#281=EDGE_LOOP('',(#273,#280));
#282=FACE_BOUND('',#281,.T.);
#283=CARTESIAN_POINT('',(25.939547011,108.629587024,42.56064801));
#284=VERTEX_POINT('',#283);
#285=CARTESIAN_POINT('',(25.097105607,108.629587024,43.205079915));
#286=VERTEX_POINT('',#285);
#287=CARTESIAN_POINT('',(25.196110357,108.629587024,42.461643261));
#288=DIRECTION('',(-0.,-1.,0.));
#289=DIRECTION('',(-0.132006333,0.,0.991248873));
#290=AXIS2_PLACEMENT_3D('',#287,#288,#289);
#291=CIRCLE('',#290,0.75);
#292=EDGE_CURVE('',#284,#286,#291,.T.);
#293=ORIENTED_EDGE('',*,*,#292,.F.);
#294=CARTESIAN_POINT('',(25.196110357,108.629587024,42.461643261));
#295=DIRECTION('',(-0.,-1.,0.));
#296=DIRECTION('',(-0.132006333,0.,0.991248873));
#297=AXIS2_PLACEMENT_3D('',#294,#295,#296);
#298=CIRCLE('',#297,0.75);
#299=EDGE_CURVE('',#286,#284,#298,.T.);
#300=ORIENTED_EDGE('',*,*,#299,.F.);
#301=EDGE_LOOP('',(#293,#300));
#302=FACE_BOUND('',#301,.T.);
#303=CARTESIAN_POINT('',(35.717626656,108.629587024,29.739214453));
#304=VERTEX_POINT('',#303);
#305=CARTESIAN_POINT('',(34.875185251,108.629587024,30.383646358));
#306=VERTEX_POINT('',#305);
#307=CARTESIAN_POINT('',(34.974190001,108.629587024,29.640209703));
#308=DIRECTION('',(-0.,-1.,0.));
#309=DIRECTION('',(-0.132006333,0.,0.991248873));
#310=AXIS2_PLACEMENT_3D('',#307,#308,#309);
#311=CIRCLE('',#310,0.75);
#312=EDGE_CURVE('',#304,#306,#311,.T.);
#313=ORIENTED_EDGE('',*,*,#312,.F.);
#314=CARTESIAN_POINT('',(34.974190001,108.629587024,29.640209703));
#315=DIRECTION('',(-0.,-1.,0.));
#316=DIRECTION('',(-0.132006333,0.,0.991248873));
#317=AXIS2_PLACEMENT_3D('',#314,#315,#316);
#318=CIRCLE('',#317,0.75);
#319=EDGE_CURVE('',#306,#304,#318,.T.);
#320=ORIENTED_EDGE('',*,*,#319,.F.);
#321=EDGE_LOOP('',(#313,#320));
#322=FACE_BOUND('',#321,.T.);
#323=CARTESIAN_POINT('',(36.113645655,108.629587024,26.765467834));
#324=VERTEX_POINT('',#323);
#325=CARTESIAN_POINT('',(35.27120425,108.629587024,27.409899739));
#326=VERTEX_POINT('',#325);
#327=CARTESIAN_POINT('',(35.370209,108.629587024,26.666463085));
#328=DIRECTION('',(-0.,-1.,0.));
#329=DIRECTION('',(-0.132006333,0.,0.991248873));
#330=AXIS2_PLACEMENT_3D('',#327,#328,#329);
#331=CIRCLE('',#330,0.75);
#332=EDGE_CURVE('',#324,#326,#331,.T.);
#333=ORIENTED_EDGE('',*,*,#332,.F.);
#334=CARTESIAN_POINT('',(35.370209,108.629587024,26.666463085));
#335=DIRECTION('',(-0.,-1.,0.));
#336=DIRECTION('',(-0.132006333,0.,0.991248873));
#337=AXIS2_PLACEMENT_3D('',#334,#335,#336);
#338=CIRCLE('',#337,0.75);
#339=EDGE_CURVE('',#326,#324,#338,.T.);
#340=ORIENTED_EDGE('',*,*,#339,.F.);
#341=EDGE_LOOP('',(#333,#340));
#342=FACE_BOUND('',#341,.T.);
#343=CARTESIAN_POINT('',(35.321607657,108.629587024,32.712961072));
#344=VERTEX_POINT('',#343);
#345=CARTESIAN_POINT('',(34.479166253,108.629587024,33.357392977));
#346=VERTEX_POINT('',#345);
#347=CARTESIAN_POINT('',(34.578171002,108.629587024,32.613956322));
#348=DIRECTION('',(-0.,-1.,0.));
#349=DIRECTION('',(-0.132006333,0.,0.991248873));
#350=AXIS2_PLACEMENT_3D('',#347,#348,#349);
#351=CIRCLE('',#350,0.75);
#352=EDGE_CURVE('',#344,#346,#351,.T.);
#353=ORIENTED_EDGE('',*,*,#352,.F.);
#354=CARTESIAN_POINT('',(34.578171002,108.629587024,32.613956322));
#355=DIRECTION('',(-0.,-1.,0.));
#356=DIRECTION('',(-0.132006333,0.,0.991248873));
#357=AXIS2_PLACEMENT_3D('',#354,#355,#356);
#358=CIRCLE('',#357,0.75);
#359=EDGE_CURVE('',#346,#344,#358,.T.);
#360=ORIENTED_EDGE('',*,*,#359,.F.);
#361=EDGE_LOOP('',(#353,#360));
#362=FACE_BOUND('',#361,.T.);
#363=CARTESIAN_POINT('',(34.925588658,108.629587024,35.686707691));
#364=VERTEX_POINT('',#363);
#365=CARTESIAN_POINT('',(34.083147254,108.629587024,36.331139596));
#366=VERTEX_POINT('',#365);
#367=CARTESIAN_POINT('',(34.182152003,108.629587024,35.587702941));
#368=DIRECTION('',(-0.,-1.,0.));
#369=DIRECTION('',(-0.132006333,0.,0.991248873));
#370=AXIS2_PLACEMENT_3D('',#367,#368,#369);
#371=CIRCLE('',#370,0.75);
#372=EDGE_CURVE('',#364,#366,#371,.T.);
#373=ORIENTED_EDGE('',*,*,#372,.F.);
#374=CARTESIAN_POINT('',(34.182152003,108.629587024,35.587702941));
#375=DIRECTION('',(-0.,-1.,0.));
#376=DIRECTION('',(-0.132006333,0.,0.991248873));
#377=AXIS2_PLACEMENT_3D('',#374,#375,#376);
#378=CIRCLE('',#377,0.75);
#379=EDGE_CURVE('',#366,#364,#378,.T.);
#380=ORIENTED_EDGE('',*,*,#379,.F.);
#381=EDGE_LOOP('',(#373,#380));
#382=FACE_BOUND('',#381,.T.);
#383=CARTESIAN_POINT('',(32.021449333,108.629587024,57.494182895));
#384=VERTEX_POINT('',#383);
#385=CARTESIAN_POINT('',(31.179007929,108.629587024,58.1386148));
#386=VERTEX_POINT('',#385);
#387=CARTESIAN_POINT('',(31.278012679,108.629587024,57.395178145));
#388=DIRECTION('',(-0.,-1.,0.));
#389=DIRECTION('',(-0.132006333,0.,0.991248873));
#390=AXIS2_PLACEMENT_3D('',#387,#388,#389);
#391=CIRCLE('',#390,0.75);
#392=EDGE_CURVE('',#384,#386,#391,.T.);
#393=ORIENTED_EDGE('',*,*,#392,.F.);
#394=CARTESIAN_POINT('',(31.278012679,108.629587024,57.395178145));
#395=DIRECTION('',(-0.,-1.,0.));
#396=DIRECTION('',(-0.132006333,0.,0.991248873));
#397=AXIS2_PLACEMENT_3D('',#394,#395,#396);
#398=CIRCLE('',#397,0.75);
#399=EDGE_CURVE('',#386,#384,#398,.T.);
#400=ORIENTED_EDGE('',*,*,#399,.F.);
#401=EDGE_LOOP('',(#393,#400));
#402=FACE_BOUND('',#401,.T.);
#403=CARTESIAN_POINT('',(31.625430334,108.629587024,60.467929514));
#404=VERTEX_POINT('',#403);
#405=CARTESIAN_POINT('',(30.78298893,108.629587024,61.112361419));
#406=VERTEX_POINT('',#405);
#407=CARTESIAN_POINT('',(30.88199368,108.629587024,60.368924764));
#408=DIRECTION('',(-0.,-1.,0.));
#409=DIRECTION('',(-0.132006333,0.,0.991248873));
#410=AXIS2_PLACEMENT_3D('',#407,#408,#409);
#411=CIRCLE('',#410,0.75);
#412=EDGE_CURVE('',#404,#406,#411,.T.);
#413=ORIENTED_EDGE('',*,*,#412,.F.);
#414=CARTESIAN_POINT('',(30.88199368,108.629587024,60.368924764));
#415=DIRECTION('',(-0.,-1.,0.));
#416=DIRECTION('',(-0.132006333,0.,0.991248873));
#417=AXIS2_PLACEMENT_3D('',#414,#415,#416);
#418=CIRCLE('',#417,0.75);
#419=EDGE_CURVE('',#406,#404,#418,.T.);
#420=ORIENTED_EDGE('',*,*,#419,.F.);
#421=EDGE_LOOP('',(#413,#420));
#422=FACE_BOUND('',#421,.T.);
#423=CARTESIAN_POINT('',(32.417468332,108.629587024,54.520436276));
#424=VERTEX_POINT('',#423);
#425=CARTESIAN_POINT('',(31.575026928,108.629587024,55.164868181));
#426=VERTEX_POINT('',#425);
#427=CARTESIAN_POINT('',(31.674031677,108.629587024,54.421431526));
#428=DIRECTION('',(-0.,-1.,0.));
#429=DIRECTION('',(-0.132006333,0.,0.991248873));
#430=AXIS2_PLACEMENT_3D('',#427,#428,#429);
#431=CIRCLE('',#430,0.75);
#432=EDGE_CURVE('',#424,#426,#431,.T.);
#433=ORIENTED_EDGE('',*,*,#432,.F.);
#434=CARTESIAN_POINT('',(31.674031677,108.629587024,54.421431526));
#435=DIRECTION('',(-0.,-1.,0.));
#436=DIRECTION('',(-0.132006333,0.,0.991248873));
#437=AXIS2_PLACEMENT_3D('',#434,#435,#436);
#438=CIRCLE('',#437,0.75);
#439=EDGE_CURVE('',#426,#424,#438,.T.);
#440=ORIENTED_EDGE('',*,*,#439,.F.);
#441=EDGE_LOOP('',(#433,#440));
#442=FACE_BOUND('',#441,.T.);
#443=CARTESIAN_POINT('',(32.813487331,108.629587024,51.546689657));
#444=VERTEX_POINT('',#443);
#445=CARTESIAN_POINT('',(31.971045927,108.629587024,52.191121562));
#446=VERTEX_POINT('',#445);
#447=CARTESIAN_POINT('',(32.070050676,108.629587024,51.447684908));
#448=DIRECTION('',(-0.,-1.,0.));
#449=DIRECTION('',(-0.132006333,0.,0.991248873));
#450=AXIS2_PLACEMENT_3D('',#447,#448,#449);
#451=CIRCLE('',#450,0.75);
#452=EDGE_CURVE('',#444,#446,#451,.T.);
#453=ORIENTED_EDGE('',*,*,#452,.F.);
#454=CARTESIAN_POINT('',(32.070050676,108.629587024,51.447684908));
#455=DIRECTION('',(-0.,-1.,0.));
#456=DIRECTION('',(-0.132006333,0.,0.991248873));
#457=AXIS2_PLACEMENT_3D('',#454,#455,#456);
#458=CIRCLE('',#457,0.75);
#459=EDGE_CURVE('',#446,#444,#458,.T.);
#460=ORIENTED_EDGE('',*,*,#459,.F.);
#461=EDGE_LOOP('',(#453,#460));
#462=FACE_BOUND('',#461,.T.);
#463=CARTESIAN_POINT('',(47.747022215,108.629587024,45.464787335));
#464=VERTEX_POINT('',#463);
#465=CARTESIAN_POINT('',(46.904580811,108.629587024,46.10921924));
#466=VERTEX_POINT('',#465);
#467=CARTESIAN_POINT('',(47.003585561,108.629587024,45.365782586));
#468=DIRECTION('',(-0.,-1.,0.));
#469=DIRECTION('',(-0.132006333,0.,0.991248873));
#470=AXIS2_PLACEMENT_3D('',#467,#468,#469);
#471=CIRCLE('',#470,0.75);
#472=EDGE_CURVE('',#464,#466,#471,.T.);
#473=ORIENTED_EDGE('',*,*,#472,.F.);
#474=CARTESIAN_POINT('',(47.003585561,108.629587024,45.365782586));
#475=DIRECTION('',(-0.,-1.,0.));
#476=DIRECTION('',(-0.132006333,0.,0.991248873));
#477=AXIS2_PLACEMENT_3D('',#474,#475,#476);
#478=CIRCLE('',#477,0.75);
#479=EDGE_CURVE('',#466,#464,#478,.T.);
#480=ORIENTED_EDGE('',*,*,#479,.F.);
#481=EDGE_LOOP('',(#473,#480));
#482=FACE_BOUND('',#481,.T.);
#483=CARTESIAN_POINT('',(50.720768834,108.629587024,45.860806334));
#484=VERTEX_POINT('',#483);
#485=CARTESIAN_POINT('',(49.87832743,108.629587024,46.505238239));
#486=VERTEX_POINT('',#485);
#487=CARTESIAN_POINT('',(49.977332179,108.629587024,45.761801584));
#488=DIRECTION('',(-0.,-1.,0.));
#489=DIRECTION('',(-0.132006333,0.,0.991248873));
#490=AXIS2_PLACEMENT_3D('',#487,#488,#489);
#491=CIRCLE('',#490,0.75);
#492=EDGE_CURVE('',#484,#486,#491,.T.);
#493=ORIENTED_EDGE('',*,*,#492,.F.);
#494=CARTESIAN_POINT('',(49.977332179,108.629587024,45.761801584));
#495=DIRECTION('',(-0.,-1.,0.));
#496=DIRECTION('',(-0.132006333,0.,0.991248873));
#497=AXIS2_PLACEMENT_3D('',#494,#495,#496);
#498=CIRCLE('',#497,0.75);
#499=EDGE_CURVE('',#486,#484,#498,.T.);
#500=ORIENTED_EDGE('',*,*,#499,.F.);
#501=EDGE_LOOP('',(#493,#500));
#502=FACE_BOUND('',#501,.T.);
#503=CARTESIAN_POINT('',(44.773275597,108.629587024,45.068768336));
#504=VERTEX_POINT('',#503);
#505=CARTESIAN_POINT('',(43.930834192,108.629587024,45.713200241));
#506=VERTEX_POINT('',#505);
#507=CARTESIAN_POINT('',(44.029838942,108.629587024,44.969763587));
#508=DIRECTION('',(-0.,-1.,0.));
#509=DIRECTION('',(-0.132006333,0.,0.991248873));
#510=AXIS2_PLACEMENT_3D('',#507,#508,#509);
#511=CIRCLE('',#510,0.75);
#512=EDGE_CURVE('',#504,#506,#511,.T.);
#513=ORIENTED_EDGE('',*,*,#512,.F.);
#514=CARTESIAN_POINT('',(44.029838942,108.629587024,44.969763587));
#515=DIRECTION('',(-0.,-1.,0.));
#516=DIRECTION('',(-0.132006333,0.,0.991248873));
#517=AXIS2_PLACEMENT_3D('',#514,#515,#516);
#518=CIRCLE('',#517,0.75);
#519=EDGE_CURVE('',#506,#504,#518,.T.);
#520=ORIENTED_EDGE('',*,*,#519,.F.);
#521=EDGE_LOOP('',(#513,#520));
#522=FACE_BOUND('',#521,.T.);
#523=CARTESIAN_POINT('',(41.799528978,108.629587024,44.672749338));
#524=VERTEX_POINT('',#523);
#525=CARTESIAN_POINT('',(40.957087573,108.629587024,45.317181243));
#526=VERTEX_POINT('',#525);
#527=CARTESIAN_POINT('',(41.056092323,108.629587024,44.573744588));
#528=DIRECTION('',(-0.,-1.,0.));
#529=DIRECTION('',(-0.132006333,0.,0.991248873));
#530=AXIS2_PLACEMENT_3D('',#527,#528,#529);
#531=CIRCLE('',#530,0.75);
#532=EDGE_CURVE('',#524,#526,#531,.T.);
#533=ORIENTED_EDGE('',*,*,#532,.F.);
#534=CARTESIAN_POINT('',(41.056092323,108.629587024,44.573744588));
#535=DIRECTION('',(-0.,-1.,0.));
#536=DIRECTION('',(-0.132006333,0.,0.991248873));
#537=AXIS2_PLACEMENT_3D('',#534,#535,#536);
#538=CIRCLE('',#537,0.75);
#539=EDGE_CURVE('',#526,#524,#538,.T.);
#540=ORIENTED_EDGE('',*,*,#539,.F.);
#541=EDGE_LOOP('',(#533,#540));
#542=FACE_BOUND('',#541,.T.);
#543=CARTESIAN_POINT('',(19.992053774,108.629587024,41.768610013));
#544=VERTEX_POINT('',#543);
#545=CARTESIAN_POINT('',(19.149612369,108.629587024,42.413041918));
#546=VERTEX_POINT('',#545);
#547=CARTESIAN_POINT('',(19.248617119,108.629587024,41.669605263));
#548=DIRECTION('',(-0.,-1.,0.));
#549=DIRECTION('',(-0.132006333,0.,0.991248873));
#550=AXIS2_PLACEMENT_3D('',#547,#548,#549);
#551=CIRCLE('',#550,0.75);
#552=EDGE_CURVE('',#544,#546,#551,.T.);
#553=ORIENTED_EDGE('',*,*,#552,.F.);
#554=CARTESIAN_POINT('',(19.248617119,108.629587024,41.669605263));
#555=DIRECTION('',(-0.,-1.,0.));
#556=DIRECTION('',(-0.132006333,0.,0.991248873));
#557=AXIS2_PLACEMENT_3D('',#554,#555,#556);
#558=CIRCLE('',#557,0.75);
#559=EDGE_CURVE('',#546,#544,#558,.T.);
#560=ORIENTED_EDGE('',*,*,#559,.F.);
#561=EDGE_LOOP('',(#553,#560));
#562=FACE_BOUND('',#561,.T.);
#563=CARTESIAN_POINT('',(32.92809184,108.629587024,45.004567234));
#564=VERTEX_POINT('',#563);
#565=CARTESIAN_POINT('',(34.612974649,108.629587024,43.715703424));
#566=VERTEX_POINT('',#565);
#567=CARTESIAN_POINT('',(33.12610134,108.629587024,43.517693924));
#568=DIRECTION('',(0.,1.,-0.));
#569=DIRECTION('',(-0.132006333,0.,0.991248873));
#570=AXIS2_PLACEMENT_3D('',#567,#568,#569);
#571=CIRCLE('',#570,1.5);
#572=EDGE_CURVE('',#564,#566,#571,.T.);
#573=ORIENTED_EDGE('',*,*,#572,.T.);
#574=CARTESIAN_POINT('',(33.12610134,108.629587024,43.517693924));
#575=DIRECTION('',(0.,1.,-0.));
#576=DIRECTION('',(-0.132006333,0.,0.991248873));
#577=AXIS2_PLACEMENT_3D('',#574,#575,#576);
#578=CIRCLE('',#577,1.5);
#579=EDGE_CURVE('',#566,#564,#578,.T.);
#580=ORIENTED_EDGE('',*,*,#579,.T.);
#581=EDGE_LOOP('',(#573,#580));
#582=FACE_BOUND('',#581,.T.);
#583=ADVANCED_FACE('',(#242,#262,#282,#302,#322,#342,#362,#382,#402,#422,#442,#462,#482,#502,#522,#542,#562,#582),#31,.F.);
#584=CARTESIAN_POINT('',(19.248617119,108.629587024,41.669605263));
#585=DIRECTION('',(-0.,1.,-0.));
#586=DIRECTION('',(0.991248873,0.,0.132006333));
#587=AXIS2_PLACEMENT_3D('',#584,#585,#586);
#588=CYLINDRICAL_SURFACE('',#587,0.75);
#589=CARTESIAN_POINT('',(19.992053774,111.629587024,41.768610013));
#590=VERTEX_POINT('',#589);
#591=CARTESIAN_POINT('',(19.992053774,111.629587024,41.768610013));
#592=DIRECTION('',(0.,-1.,0.));
#593=VECTOR('',#592,3.);
#594=LINE('',#591,#593);
#595=EDGE_CURVE('',#590,#544,#594,.T.);
#596=ORIENTED_EDGE('',*,*,#595,.F.);
#597=CARTESIAN_POINT('',(19.149612369,111.629587024,42.413041918));
#598=VERTEX_POINT('',#597);
#599=CARTESIAN_POINT('',(19.248617119,111.629587024,41.669605263));
#600=DIRECTION('',(-0.,-1.,0.));
#601=DIRECTION('',(-0.132006333,0.,0.991248873));
#602=AXIS2_PLACEMENT_3D('',#599,#600,#601);
#603=CIRCLE('',#602,0.75);
#604=EDGE_CURVE('',#598,#590,#603,.T.);
#605=ORIENTED_EDGE('',*,*,#604,.F.);
#606=CARTESIAN_POINT('',(19.248617119,111.629587024,41.669605263));
#607=DIRECTION('',(-0.,-1.,0.));
#608=DIRECTION('',(-0.132006333,0.,0.991248873));
#609=AXIS2_PLACEMENT_3D('',#606,#607,#608);
#610=CIRCLE('',#609,0.75);
#611=EDGE_CURVE('',#590,#598,#610,.T.);
#612=ORIENTED_EDGE('',*,*,#611,.F.);
#613=ORIENTED_EDGE('',*,*,#595,.T.);
#614=ORIENTED_EDGE('',*,*,#552,.T.);
#615=ORIENTED_EDGE('',*,*,#559,.T.);
#616=EDGE_LOOP('',(#596,#605,#612,#613,#614,#615));
#617=FACE_BOUND('',#616,.T.);
#618=ADVANCED_FACE('',(#617),#588,.F.);
#619=CARTESIAN_POINT('',(33.12610134,111.629587024,43.517693924));
#620=DIRECTION('',(-0.,1.,-0.));
#621=DIRECTION('',(0.991248873,0.,0.132006333));
#622=AXIS2_PLACEMENT_3D('',#619,#620,#621);
#623=PLANE('',#622);
#624=CARTESIAN_POINT('',(27.569427415,111.629587024,45.987774279));
#625=VERTEX_POINT('',#624);
#626=CARTESIAN_POINT('',(29.287912495,111.629587024,48.23428469));
#627=VERTEX_POINT('',#626);
#628=CARTESIAN_POINT('',(27.305414749,111.629587024,47.970272024));
#629=DIRECTION('',(-0.,-1.,0.));
#630=DIRECTION('',(-0.132006333,0.,0.991248873));
#631=AXIS2_PLACEMENT_3D('',#628,#629,#630);
#632=CIRCLE('',#631,2.);
#633=EDGE_CURVE('',#625,#627,#632,.T.);
#634=ORIENTED_EDGE('',*,*,#633,.T.);
#635=CARTESIAN_POINT('',(28.740627699,111.629587024,52.343901443));
#636=VERTEX_POINT('',#635);
#637=CARTESIAN_POINT('',(29.287912495,111.629587024,48.23428469));
#638=DIRECTION('',(-0.132006333,0.,0.991248873));
#639=VECTOR('',#638,4.145898034);
#640=LINE('',#637,#639);
#641=EDGE_CURVE('',#627,#636,#640,.T.);
#642=ORIENTED_EDGE('',*,*,#641,.T.);
#643=CARTESIAN_POINT('',(29.386691865,111.629587024,60.487552262));
#644=VERTEX_POINT('',#643);
#645=CARTESIAN_POINT('',(28.740627699,111.629587024,52.343901443));
#646=DIRECTION('',(0.079084999,0.,0.996867876));
#647=VECTOR('',#646,8.169237881);
#648=LINE('',#645,#647);
#649=EDGE_CURVE('',#636,#644,#648,.T.);
#650=ORIENTED_EDGE('',*,*,#649,.T.);
#651=CARTESIAN_POINT('',(32.294137133,111.629587024,60.874741795));
#652=VERTEX_POINT('',#651);
#653=CARTESIAN_POINT('',(30.88199368,111.629587024,60.368924764));
#654=DIRECTION('',(0.,1.,-0.));
#655=DIRECTION('',(-0.132006333,0.,0.991248873));
#656=AXIS2_PLACEMENT_3D('',#653,#654,#655);
#657=CIRCLE('',#656,1.5);
#658=EDGE_CURVE('',#644,#652,#657,.T.);
#659=ORIENTED_EDGE('',*,*,#658,.T.);
#660=CARTESIAN_POINT('',(35.048896898,111.629587024,53.183984602));
#661=VERTEX_POINT('',#660);
#662=CARTESIAN_POINT('',(32.294137133,111.629587024,60.874741795));
#663=DIRECTION('',(0.337211354,-0.,-0.941428969));
#664=VECTOR('',#663,8.169237881);
#665=LINE('',#662,#664);
#666=EDGE_CURVE('',#652,#661,#665,.T.);
#667=ORIENTED_EDGE('',*,*,#666,.T.);
#668=CARTESIAN_POINT('',(35.596181694,111.629587024,49.074367849));
#669=VERTEX_POINT('',#668);
#670=CARTESIAN_POINT('',(35.048896898,111.629587024,53.183984602));
#671=DIRECTION('',(0.132006333,-0.,-0.991248873));
#672=VECTOR('',#671,4.145898034);
#673=LINE('',#670,#672);
#674=EDGE_CURVE('',#661,#669,#673,.T.);
#675=ORIENTED_EDGE('',*,*,#674,.T.);
#676=CARTESIAN_POINT('',(37.842692106,111.629587024,47.355882769));
#677=VERTEX_POINT('',#676);
#678=CARTESIAN_POINT('',(37.57867944,111.629587024,49.338380515));
#679=DIRECTION('',(-0.,-1.,0.));
#680=DIRECTION('',(-0.132006333,0.,0.991248873));
#681=AXIS2_PLACEMENT_3D('',#678,#679,#680);
#682=CIRCLE('',#681,2.);
#683=EDGE_CURVE('',#669,#677,#682,.T.);
#684=ORIENTED_EDGE('',*,*,#683,.T.);
#685=CARTESIAN_POINT('',(41.952308859,111.629587024,47.903167565));
#686=VERTEX_POINT('',#685);
#687=CARTESIAN_POINT('',(37.842692106,111.629587024,47.355882769));
#688=DIRECTION('',(0.991248873,0.,0.132006333));
#689=VECTOR('',#688,4.145898034);
#690=LINE('',#687,#689);
#691=EDGE_CURVE('',#677,#686,#690,.T.);
#692=ORIENTED_EDGE('',*,*,#691,.T.);
#693=CARTESIAN_POINT('',(50.095959677,111.629587024,47.257103399));
#694=VERTEX_POINT('',#693);
#695=CARTESIAN_POINT('',(41.952308859,111.629587024,47.903167565));
#696=DIRECTION('',(0.996867876,-0.,-0.079084999));
#697=VECTOR('',#696,8.169237881);
#698=LINE('',#695,#697);
#699=EDGE_CURVE('',#686,#694,#698,.T.);
#700=ORIENTED_EDGE('',*,*,#699,.T.);
#701=CARTESIAN_POINT('',(51.464205489,111.629587024,45.959811084));
#702=VERTEX_POINT('',#701);
#703=CARTESIAN_POINT('',(49.977332179,111.629587024,45.761801584));
#704=DIRECTION('',(0.,1.,-0.));
#705=DIRECTION('',(-0.132006333,0.,0.991248873));
#706=AXIS2_PLACEMENT_3D('',#703,#704,#705);
#707=CIRCLE('',#706,1.5);
#708=EDGE_CURVE('',#694,#702,#707,.T.);
#709=ORIENTED_EDGE('',*,*,#708,.T.);
#710=CARTESIAN_POINT('',(50.48314921,111.629587024,44.349658132));
#711=VERTEX_POINT('',#710);
#712=CARTESIAN_POINT('',(49.977332179,111.629587024,45.761801584));
#713=DIRECTION('',(0.,1.,-0.));
#714=DIRECTION('',(-0.132006333,0.,0.991248873));
#715=AXIS2_PLACEMENT_3D('',#712,#713,#714);
#716=CIRCLE('',#715,1.5);
#717=EDGE_CURVE('',#702,#711,#716,.T.);
#718=ORIENTED_EDGE('',*,*,#717,.T.);
#719=CARTESIAN_POINT('',(42.792392018,111.629587024,41.594898366));
#720=VERTEX_POINT('',#719);
#721=CARTESIAN_POINT('',(50.48314921,111.629587024,44.349658132));
#722=DIRECTION('',(-0.941428969,-0.,-0.337211354));
#723=VECTOR('',#722,8.169237881);
#724=LINE('',#721,#723);
#725=EDGE_CURVE('',#711,#720,#724,.T.);
#726=ORIENTED_EDGE('',*,*,#725,.T.);
#727=CARTESIAN_POINT('',(38.682775265,111.629587024,41.04761357));
#728=VERTEX_POINT('',#727);
#729=CARTESIAN_POINT('',(42.792392018,111.629587024,41.594898366));
#730=DIRECTION('',(-0.991248873,-0.,-0.132006333));
#731=VECTOR('',#730,4.145898034);
#732=LINE('',#729,#731);
#733=EDGE_CURVE('',#720,#728,#732,.T.);
#734=ORIENTED_EDGE('',*,*,#733,.T.);
#735=CARTESIAN_POINT('',(36.964290185,111.629587024,38.801103158));
#736=VERTEX_POINT('',#735);
#737=CARTESIAN_POINT('',(38.94678793,111.629587024,39.065115824));
#738=DIRECTION('',(-0.,-1.,0.));
#739=DIRECTION('',(-0.132006333,0.,0.991248873));
#740=AXIS2_PLACEMENT_3D('',#737,#738,#739);
#741=CIRCLE('',#740,2.);
#742=EDGE_CURVE('',#728,#736,#741,.T.);
#743=ORIENTED_EDGE('',*,*,#742,.T.);
#744=CARTESIAN_POINT('',(37.511574981,111.629587024,34.691486405));
#745=VERTEX_POINT('',#744);
#746=CARTESIAN_POINT('',(36.964290185,111.629587024,38.801103158));
#747=DIRECTION('',(0.132006333,-0.,-0.991248873));
#748=VECTOR('',#747,4.145898034);
#749=LINE('',#746,#748);
#750=EDGE_CURVE('',#736,#745,#749,.T.);
#751=ORIENTED_EDGE('',*,*,#750,.T.);
#752=CARTESIAN_POINT('',(36.865510815,111.629587024,26.547835587));
#753=VERTEX_POINT('',#752);
#754=CARTESIAN_POINT('',(37.511574981,111.629587024,34.691486405));
#755=DIRECTION('',(-0.079084999,-0.,-0.996867876));
#756=VECTOR('',#755,8.169237881);
#757=LINE('',#754,#756);
#758=EDGE_CURVE('',#745,#753,#757,.T.);
#759=ORIENTED_EDGE('',*,*,#758,.T.);
#760=CARTESIAN_POINT('',(33.958065547,111.629587024,26.160646054));
#761=VERTEX_POINT('',#760);
#762=CARTESIAN_POINT('',(35.370209,111.629587024,26.666463085));
#763=DIRECTION('',(0.,1.,-0.));
#764=DIRECTION('',(-0.132006333,0.,0.991248873));
#765=AXIS2_PLACEMENT_3D('',#762,#763,#764);
#766=CIRCLE('',#765,1.5);
#767=EDGE_CURVE('',#753,#761,#766,.T.);
#768=ORIENTED_EDGE('',*,*,#767,.T.);
#769=CARTESIAN_POINT('',(31.203305782,111.629587024,33.851403246));
#770=VERTEX_POINT('',#769);
#771=CARTESIAN_POINT('',(33.958065547,111.629587024,26.160646054));
#772=DIRECTION('',(-0.337211354,0.,0.941428969));
#773=VECTOR('',#772,8.169237881);
#774=LINE('',#771,#773);
#775=EDGE_CURVE('',#761,#770,#774,.T.);
#776=ORIENTED_EDGE('',*,*,#775,.T.);
#777=CARTESIAN_POINT('',(30.656020986,111.629587024,37.96102));
#778=VERTEX_POINT('',#777);
#779=CARTESIAN_POINT('',(31.203305782,111.629587024,33.851403246));
#780=DIRECTION('',(-0.132006333,0.,0.991248873));
#781=VECTOR('',#780,4.145898034);
#782=LINE('',#779,#781);
#783=EDGE_CURVE('',#770,#778,#782,.T.);
#784=ORIENTED_EDGE('',*,*,#783,.T.);
#785=CARTESIAN_POINT('',(28.409510574,111.629587024,39.67950508));
#786=VERTEX_POINT('',#785);
#787=CARTESIAN_POINT('',(28.67352324,111.629587024,37.697007334));
#788=DIRECTION('',(-0.,-1.,0.));
#789=DIRECTION('',(-0.132006333,0.,0.991248873));
#790=AXIS2_PLACEMENT_3D('',#787,#788,#789);
#791=CIRCLE('',#790,2.);
#792=EDGE_CURVE('',#778,#786,#791,.T.);
#793=ORIENTED_EDGE('',*,*,#792,.T.);
#794=CARTESIAN_POINT('',(24.299893821,111.629587024,39.132220283));
#795=VERTEX_POINT('',#794);
#796=CARTESIAN_POINT('',(28.409510574,111.629587024,39.67950508));
#797=DIRECTION('',(-0.991248873,-0.,-0.132006333));
#798=VECTOR('',#797,4.145898034);
#799=LINE('',#796,#798);
#800=EDGE_CURVE('',#786,#795,#799,.T.);
#801=ORIENTED_EDGE('',*,*,#800,.T.);
#802=CARTESIAN_POINT('',(16.156243002,111.629587024,39.77828445));
#803=VERTEX_POINT('',#802);
#804=CARTESIAN_POINT('',(24.299893821,111.629587024,39.132220283));
#805=DIRECTION('',(-0.996867876,0.,0.079084999));
#806=VECTOR('',#805,8.169237881);
#807=LINE('',#804,#806);
#808=EDGE_CURVE('',#795,#803,#807,.T.);
#809=ORIENTED_EDGE('',*,*,#808,.T.);
#810=CARTESIAN_POINT('',(15.76905347,111.629587024,42.685729717));
#811=VERTEX_POINT('',#810);
#812=CARTESIAN_POINT('',(16.2748705,111.629587024,41.273586264));
#813=DIRECTION('',(0.,1.,-0.));
#814=DIRECTION('',(-0.132006333,0.,0.991248873));
#815=AXIS2_PLACEMENT_3D('',#812,#813,#814);
#816=CIRCLE('',#815,1.5);
#817=EDGE_CURVE('',#803,#811,#816,.T.);
#818=ORIENTED_EDGE('',*,*,#817,.T.);
#819=CARTESIAN_POINT('',(23.459810662,111.629587024,45.440489482));
#820=VERTEX_POINT('',#819);
#821=CARTESIAN_POINT('',(15.76905347,111.629587024,42.685729717));
#822=DIRECTION('',(0.941428969,0.,0.337211354));
#823=VECTOR('',#822,8.169237881);
#824=LINE('',#821,#823);
#825=EDGE_CURVE('',#811,#820,#824,.T.);
#826=ORIENTED_EDGE('',*,*,#825,.T.);
#827=CARTESIAN_POINT('',(23.459810662,111.629587024,45.440489482));
#828=DIRECTION('',(0.991248873,0.,0.132006333));
#829=VECTOR('',#828,4.145898034);
#830=LINE('',#827,#829);
#831=EDGE_CURVE('',#820,#625,#830,.T.);
#832=ORIENTED_EDGE('',*,*,#831,.T.);
#833=EDGE_LOOP('',(#634,#642,#650,#659,#667,#675,#684,#692,#700,#709,#718,#726,#734,#743,#751,#759,#768,#776,#784,#793,#801,#809,#818,#826,#832));
#834=FACE_BOUND('',#833,.T.);
#835=CARTESIAN_POINT('',(16.175865751,111.629587024,42.017022919));
#836=VERTEX_POINT('',#835);
#837=CARTESIAN_POINT('',(17.018307155,111.629587024,41.372591014));
#838=VERTEX_POINT('',#837);
#839=CARTESIAN_POINT('',(16.2748705,111.629587024,41.273586264));
#840=DIRECTION('',(-0.,-1.,0.));
#841=DIRECTION('',(-0.132006333,0.,0.991248873));
#842=AXIS2_PLACEMENT_3D('',#839,#840,#841);
#843=CIRCLE('',#842,0.75);
#844=EDGE_CURVE('',#836,#838,#843,.T.);
#845=ORIENTED_EDGE('',*,*,#844,.T.);
#846=CARTESIAN_POINT('',(16.2748705,111.629587024,41.273586264));
#847=DIRECTION('',(-0.,-1.,0.));
#848=DIRECTION('',(-0.132006333,0.,0.991248873));
#849=AXIS2_PLACEMENT_3D('',#846,#847,#848);
#850=CIRCLE('',#849,0.75);
#851=EDGE_CURVE('',#838,#836,#850,.T.);
#852=ORIENTED_EDGE('',*,*,#851,.T.);
#853=EDGE_LOOP('',(#845,#852));
#854=FACE_BOUND('',#853,.T.);
#855=CARTESIAN_POINT('',(22.123358988,111.629587024,42.809060917));
#856=VERTEX_POINT('',#855);
#857=CARTESIAN_POINT('',(22.965800392,111.629587024,42.164629012));
#858=VERTEX_POINT('',#857);
#859=CARTESIAN_POINT('',(22.222363738,111.629587024,42.065624262));
#860=DIRECTION('',(-0.,-1.,0.));
#861=DIRECTION('',(-0.132006333,0.,0.991248873));
#862=AXIS2_PLACEMENT_3D('',#859,#860,#861);
#863=CIRCLE('',#862,0.75);
#864=EDGE_CURVE('',#856,#858,#863,.T.);
#865=ORIENTED_EDGE('',*,*,#864,.T.);
#866=CARTESIAN_POINT('',(22.222363738,111.629587024,42.065624262));
#867=DIRECTION('',(-0.,-1.,0.));
#868=DIRECTION('',(-0.132006333,0.,0.991248873));
#869=AXIS2_PLACEMENT_3D('',#866,#867,#868);
#870=CIRCLE('',#869,0.75);
#871=EDGE_CURVE('',#858,#856,#870,.T.);
#872=ORIENTED_EDGE('',*,*,#871,.T.);
#873=EDGE_LOOP('',(#865,#872));
#874=FACE_BOUND('',#873,.T.);
#875=CARTESIAN_POINT('',(25.097105607,111.629587024,43.205079915));
#876=VERTEX_POINT('',#875);
#877=CARTESIAN_POINT('',(25.939547011,111.629587024,42.56064801));
#878=VERTEX_POINT('',#877);
#879=CARTESIAN_POINT('',(25.196110357,111.629587024,42.461643261));
#880=DIRECTION('',(-0.,-1.,0.));
#881=DIRECTION('',(-0.132006333,0.,0.991248873));
#882=AXIS2_PLACEMENT_3D('',#879,#880,#881);
#883=CIRCLE('',#882,0.75);
#884=EDGE_CURVE('',#876,#878,#883,.T.);
#885=ORIENTED_EDGE('',*,*,#884,.T.);
#886=CARTESIAN_POINT('',(25.196110357,111.629587024,42.461643261));
#887=DIRECTION('',(-0.,-1.,0.));
#888=DIRECTION('',(-0.132006333,0.,0.991248873));
#889=AXIS2_PLACEMENT_3D('',#886,#887,#888);
#890=CIRCLE('',#889,0.75);
#891=EDGE_CURVE('',#878,#876,#890,.T.);
#892=ORIENTED_EDGE('',*,*,#891,.T.);
#893=EDGE_LOOP('',(#885,#892));
#894=FACE_BOUND('',#893,.T.);
#895=CARTESIAN_POINT('',(34.875185251,111.629587024,30.383646358));
#896=VERTEX_POINT('',#895);
#897=CARTESIAN_POINT('',(35.717626656,111.629587024,29.739214453));
#898=VERTEX_POINT('',#897);
#899=CARTESIAN_POINT('',(34.974190001,111.629587024,29.640209703));
#900=DIRECTION('',(-0.,-1.,0.));
#901=DIRECTION('',(-0.132006333,0.,0.991248873));
#902=AXIS2_PLACEMENT_3D('',#899,#900,#901);
#903=CIRCLE('',#902,0.75);
#904=EDGE_CURVE('',#896,#898,#903,.T.);
#905=ORIENTED_EDGE('',*,*,#904,.T.);
#906=CARTESIAN_POINT('',(34.974190001,111.629587024,29.640209703));
#907=DIRECTION('',(-0.,-1.,0.));
#908=DIRECTION('',(-0.132006333,0.,0.991248873));
#909=AXIS2_PLACEMENT_3D('',#906,#907,#908);
#910=CIRCLE('',#909,0.75);
#911=EDGE_CURVE('',#898,#896,#910,.T.);
#912=ORIENTED_EDGE('',*,*,#911,.T.);
#913=EDGE_LOOP('',(#905,#912));
#914=FACE_BOUND('',#913,.T.);
#915=CARTESIAN_POINT('',(35.27120425,111.629587024,27.409899739));
#916=VERTEX_POINT('',#915);
#917=CARTESIAN_POINT('',(36.113645655,111.629587024,26.765467834));
#918=VERTEX_POINT('',#917);
#919=CARTESIAN_POINT('',(35.370209,111.629587024,26.666463085));
#920=DIRECTION('',(-0.,-1.,0.));
#921=DIRECTION('',(-0.132006333,0.,0.991248873));
#922=AXIS2_PLACEMENT_3D('',#919,#920,#921);
#923=CIRCLE('',#922,0.75);
#924=EDGE_CURVE('',#916,#918,#923,.T.);
#925=ORIENTED_EDGE('',*,*,#924,.T.);
#926=CARTESIAN_POINT('',(35.370209,111.629587024,26.666463085));
#927=DIRECTION('',(-0.,-1.,0.));
#928=DIRECTION('',(-0.132006333,0.,0.991248873));
#929=AXIS2_PLACEMENT_3D('',#926,#927,#928);
#930=CIRCLE('',#929,0.75);
#931=EDGE_CURVE('',#918,#916,#930,.T.);
#932=ORIENTED_EDGE('',*,*,#931,.T.);
#933=EDGE_LOOP('',(#925,#932));
#934=FACE_BOUND('',#933,.T.);
#935=CARTESIAN_POINT('',(34.479166253,111.629587024,33.357392977));
#936=VERTEX_POINT('',#935);
#937=CARTESIAN_POINT('',(35.321607657,111.629587024,32.712961072));
#938=VERTEX_POINT('',#937);
#939=CARTESIAN_POINT('',(34.578171002,111.629587024,32.613956322));
#940=DIRECTION('',(-0.,-1.,0.));
#941=DIRECTION('',(-0.132006333,0.,0.991248873));
#942=AXIS2_PLACEMENT_3D('',#939,#940,#941);
#943=CIRCLE('',#942,0.75);
#944=EDGE_CURVE('',#936,#938,#943,.T.);
#945=ORIENTED_EDGE('',*,*,#944,.T.);
#946=CARTESIAN_POINT('',(34.578171002,111.629587024,32.613956322));
#947=DIRECTION('',(-0.,-1.,0.));
#948=DIRECTION('',(-0.132006333,0.,0.991248873));
#949=AXIS2_PLACEMENT_3D('',#946,#947,#948);
#950=CIRCLE('',#949,0.75);
#951=EDGE_CURVE('',#938,#936,#950,.T.);
#952=ORIENTED_EDGE('',*,*,#951,.T.);
#953=EDGE_LOOP('',(#945,#952));
#954=FACE_BOUND('',#953,.T.);
#955=CARTESIAN_POINT('',(34.083147254,111.629587024,36.331139596));
#956=VERTEX_POINT('',#955);
#957=CARTESIAN_POINT('',(34.925588658,111.629587024,35.686707691));
#958=VERTEX_POINT('',#957);
#959=CARTESIAN_POINT('',(34.182152003,111.629587024,35.587702941));
#960=DIRECTION('',(-0.,-1.,0.));
#961=DIRECTION('',(-0.132006333,0.,0.991248873));
#962=AXIS2_PLACEMENT_3D('',#959,#960,#961);
#963=CIRCLE('',#962,0.75);
#964=EDGE_CURVE('',#956,#958,#963,.T.);
#965=ORIENTED_EDGE('',*,*,#964,.T.);
#966=CARTESIAN_POINT('',(34.182152003,111.629587024,35.587702941));
#967=DIRECTION('',(-0.,-1.,0.));
#968=DIRECTION('',(-0.132006333,0.,0.991248873));
#969=AXIS2_PLACEMENT_3D('',#966,#967,#968);
#970=CIRCLE('',#969,0.75);
#971=EDGE_CURVE('',#958,#956,#970,.T.);
#972=ORIENTED_EDGE('',*,*,#971,.T.);
#973=EDGE_LOOP('',(#965,#972));
#974=FACE_BOUND('',#973,.T.);
#975=CARTESIAN_POINT('',(31.179007929,111.629587024,58.1386148));
#976=VERTEX_POINT('',#975);
#977=CARTESIAN_POINT('',(32.021449333,111.629587024,57.494182895));
#978=VERTEX_POINT('',#977);
#979=CARTESIAN_POINT('',(31.278012679,111.629587024,57.395178145));
#980=DIRECTION('',(-0.,-1.,0.));
#981=DIRECTION('',(-0.132006333,0.,0.991248873));
#982=AXIS2_PLACEMENT_3D('',#979,#980,#981);
#983=CIRCLE('',#982,0.75);
#984=EDGE_CURVE('',#976,#978,#983,.T.);
#985=ORIENTED_EDGE('',*,*,#984,.T.);
#986=CARTESIAN_POINT('',(31.278012679,111.629587024,57.395178145));
#987=DIRECTION('',(-0.,-1.,0.));
#988=DIRECTION('',(-0.132006333,0.,0.991248873));
#989=AXIS2_PLACEMENT_3D('',#986,#987,#988);
#990=CIRCLE('',#989,0.75);
#991=EDGE_CURVE('',#978,#976,#990,.T.);
#992=ORIENTED_EDGE('',*,*,#991,.T.);
#993=EDGE_LOOP('',(#985,#992));
#994=FACE_BOUND('',#993,.T.);
#995=CARTESIAN_POINT('',(30.78298893,111.629587024,61.112361419));
#996=VERTEX_POINT('',#995);
#997=CARTESIAN_POINT('',(31.625430334,111.629587024,60.467929514));
#998=VERTEX_POINT('',#997);
#999=CARTESIAN_POINT('',(30.88199368,111.629587024,60.368924764));
#1000=DIRECTION('',(-0.,-1.,0.));
#1001=DIRECTION('',(-0.132006333,0.,0.991248873));
#1002=AXIS2_PLACEMENT_3D('',#999,#1000,#1001);
#1003=CIRCLE('',#1002,0.75);
#1004=EDGE_CURVE('',#996,#998,#1003,.T.);
#1005=ORIENTED_EDGE('',*,*,#1004,.T.);
#1006=CARTESIAN_POINT('',(30.88199368,111.629587024,60.368924764));
#1007=DIRECTION('',(-0.,-1.,0.));
#1008=DIRECTION('',(-0.132006333,0.,0.991248873));
#1009=AXIS2_PLACEMENT_3D('',#1006,#1007,#1008);
#1010=CIRCLE('',#1009,0.75);
#1011=EDGE_CURVE('',#998,#996,#1010,.T.);
#1012=ORIENTED_EDGE('',*,*,#1011,.T.);
#1013=EDGE_LOOP('',(#1005,#1012));
#1014=FACE_BOUND('',#1013,.T.);
#1015=CARTESIAN_POINT('',(31.575026928,111.629587024,55.164868181));
#1016=VERTEX_POINT('',#1015);
#1017=CARTESIAN_POINT('',(32.417468332,111.629587024,54.520436276));
#1018=VERTEX_POINT('',#1017);
#1019=CARTESIAN_POINT('',(31.674031677,111.629587024,54.421431526));
#1020=DIRECTION('',(-0.,-1.,0.));
#1021=DIRECTION('',(-0.132006333,0.,0.991248873));
#1022=AXIS2_PLACEMENT_3D('',#1019,#1020,#1021);
#1023=CIRCLE('',#1022,0.75);
#1024=EDGE_CURVE('',#1016,#1018,#1023,.T.);
#1025=ORIENTED_EDGE('',*,*,#1024,.T.);
#1026=CARTESIAN_POINT('',(31.674031677,111.629587024,54.421431526));
#1027=DIRECTION('',(-0.,-1.,0.));
#1028=DIRECTION('',(-0.132006333,0.,0.991248873));
#1029=AXIS2_PLACEMENT_3D('',#1026,#1027,#1028);
#1030=CIRCLE('',#1029,0.75);
#1031=EDGE_CURVE('',#1018,#1016,#1030,.T.);
#1032=ORIENTED_EDGE('',*,*,#1031,.T.);
#1033=EDGE_LOOP('',(#1025,#1032));
#1034=FACE_BOUND('',#1033,.T.);
#1035=CARTESIAN_POINT('',(31.971045927,111.629587024,52.191121562));
#1036=VERTEX_POINT('',#1035);
#1037=CARTESIAN_POINT('',(32.813487331,111.629587024,51.546689657));
#1038=VERTEX_POINT('',#1037);
#1039=CARTESIAN_POINT('',(32.070050676,111.629587024,51.447684908));
#1040=DIRECTION('',(-0.,-1.,0.));
#1041=DIRECTION('',(-0.132006333,0.,0.991248873));
#1042=AXIS2_PLACEMENT_3D('',#1039,#1040,#1041);
#1043=CIRCLE('',#1042,0.75);
#1044=EDGE_CURVE('',#1036,#1038,#1043,.T.);
#1045=ORIENTED_EDGE('',*,*,#1044,.T.);
#1046=CARTESIAN_POINT('',(32.070050676,111.629587024,51.447684908));
#1047=DIRECTION('',(-0.,-1.,0.));
#1048=DIRECTION('',(-0.132006333,0.,0.991248873));
#1049=AXIS2_PLACEMENT_3D('',#1046,#1047,#1048);
#1050=CIRCLE('',#1049,0.75);
#1051=EDGE_CURVE('',#1038,#1036,#1050,.T.);
#1052=ORIENTED_EDGE('',*,*,#1051,.T.);
#1053=EDGE_LOOP('',(#1045,#1052));
#1054=FACE_BOUND('',#1053,.T.);
#1055=CARTESIAN_POINT('',(46.904580811,111.629587024,46.10921924));
#1056=VERTEX_POINT('',#1055);
#1057=CARTESIAN_POINT('',(47.747022215,111.629587024,45.464787335));
#1058=VERTEX_POINT('',#1057);
#1059=CARTESIAN_POINT('',(47.003585561,111.629587024,45.365782586));
#1060=DIRECTION('',(-0.,-1.,0.));
#1061=DIRECTION('',(-0.132006333,0.,0.991248873));
#1062=AXIS2_PLACEMENT_3D('',#1059,#1060,#1061);
#1063=CIRCLE('',#1062,0.75);
#1064=EDGE_CURVE('',#1056,#1058,#1063,.T.);
#1065=ORIENTED_EDGE('',*,*,#1064,.T.);
#1066=CARTESIAN_POINT('',(47.003585561,111.629587024,45.365782586));
#1067=DIRECTION('',(-0.,-1.,0.));
#1068=DIRECTION('',(-0.132006333,0.,0.991248873));
#1069=AXIS2_PLACEMENT_3D('',#1066,#1067,#1068);
#1070=CIRCLE('',#1069,0.75);
#1071=EDGE_CURVE('',#1058,#1056,#1070,.T.);
#1072=ORIENTED_EDGE('',*,*,#1071,.T.);
#1073=EDGE_LOOP('',(#1065,#1072));
#1074=FACE_BOUND('',#1073,.T.);
#1075=CARTESIAN_POINT('',(49.87832743,111.629587024,46.505238239));
#1076=VERTEX_POINT('',#1075);
#1077=CARTESIAN_POINT('',(50.720768834,111.629587024,45.860806334));
#1078=VERTEX_POINT('',#1077);
#1079=CARTESIAN_POINT('',(49.977332179,111.629587024,45.761801584));
#1080=DIRECTION('',(-0.,-1.,0.));
#1081=DIRECTION('',(-0.132006333,0.,0.991248873));
#1082=AXIS2_PLACEMENT_3D('',#1079,#1080,#1081);
#1083=CIRCLE('',#1082,0.75);
#1084=EDGE_CURVE('',#1076,#1078,#1083,.T.);
#1085=ORIENTED_EDGE('',*,*,#1084,.T.);
#1086=CARTESIAN_POINT('',(49.977332179,111.629587024,45.761801584));
#1087=DIRECTION('',(-0.,-1.,0.));
#1088=DIRECTION('',(-0.132006333,0.,0.991248873));
#1089=AXIS2_PLACEMENT_3D('',#1086,#1087,#1088);
#1090=CIRCLE('',#1089,0.75);
#1091=EDGE_CURVE('',#1078,#1076,#1090,.T.);
#1092=ORIENTED_EDGE('',*,*,#1091,.T.);
#1093=EDGE_LOOP('',(#1085,#1092));
#1094=FACE_BOUND('',#1093,.T.);
#1095=CARTESIAN_POINT('',(43.930834192,111.629587024,45.713200241));
#1096=VERTEX_POINT('',#1095);
#1097=CARTESIAN_POINT('',(44.773275597,111.629587024,45.068768336));
#1098=VERTEX_POINT('',#1097);
#1099=CARTESIAN_POINT('',(44.029838942,111.629587024,44.969763587));
#1100=DIRECTION('',(-0.,-1.,0.));
#1101=DIRECTION('',(-0.132006333,0.,0.991248873));
#1102=AXIS2_PLACEMENT_3D('',#1099,#1100,#1101);
#1103=CIRCLE('',#1102,0.75);
#1104=EDGE_CURVE('',#1096,#1098,#1103,.T.);
#1105=ORIENTED_EDGE('',*,*,#1104,.T.);
#1106=CARTESIAN_POINT('',(44.029838942,111.629587024,44.969763587));
#1107=DIRECTION('',(-0.,-1.,0.));
#1108=DIRECTION('',(-0.132006333,0.,0.991248873));
#1109=AXIS2_PLACEMENT_3D('',#1106,#1107,#1108);
#1110=CIRCLE('',#1109,0.75);
#1111=EDGE_CURVE('',#1098,#1096,#1110,.T.);
#1112=ORIENTED_EDGE('',*,*,#1111,.T.);
#1113=EDGE_LOOP('',(#1105,#1112));
#1114=FACE_BOUND('',#1113,.T.);
#1115=CARTESIAN_POINT('',(40.957087573,111.629587024,45.317181243));
#1116=VERTEX_POINT('',#1115);
#1117=CARTESIAN_POINT('',(41.799528978,111.629587024,44.672749338));
#1118=VERTEX_POINT('',#1117);
#1119=CARTESIAN_POINT('',(41.056092323,111.629587024,44.573744588));
#1120=DIRECTION('',(-0.,-1.,0.));
#1121=DIRECTION('',(-0.132006333,0.,0.991248873));
#1122=AXIS2_PLACEMENT_3D('',#1119,#1120,#1121);
#1123=CIRCLE('',#1122,0.75);
#1124=EDGE_CURVE('',#1116,#1118,#1123,.T.);
#1125=ORIENTED_EDGE('',*,*,#1124,.T.);
#1126=CARTESIAN_POINT('',(41.056092323,111.629587024,44.573744588));
#1127=DIRECTION('',(-0.,-1.,0.));
#1128=DIRECTION('',(-0.132006333,0.,0.991248873));
#1129=AXIS2_PLACEMENT_3D('',#1126,#1127,#1128);
#1130=CIRCLE('',#1129,0.75);
#1131=EDGE_CURVE('',#1118,#1116,#1130,.T.);
#1132=ORIENTED_EDGE('',*,*,#1131,.T.);
#1133=EDGE_LOOP('',(#1125,#1132));
#1134=FACE_BOUND('',#1133,.T.);
#1135=ORIENTED_EDGE('',*,*,#604,.T.);
#1136=ORIENTED_EDGE('',*,*,#611,.T.);
#1137=EDGE_LOOP('',(#1135,#1136));
#1138=FACE_BOUND('',#1137,.T.);
#1139=CARTESIAN_POINT('',(37.586721268,111.629587024,44.111722423));
#1140=VERTEX_POINT('',#1139);
#1141=CARTESIAN_POINT('',(32.532072842,111.629587024,47.978313852));
#1142=VERTEX_POINT('',#1141);
#1143=CARTESIAN_POINT('',(33.12610134,111.629587024,43.517693924));
#1144=DIRECTION('',(0.,1.,-0.));
#1145=DIRECTION('',(-0.132006333,0.,0.991248873));
#1146=AXIS2_PLACEMENT_3D('',#1143,#1144,#1145);
#1147=CIRCLE('',#1146,4.5);
#1148=EDGE_CURVE('',#1140,#1142,#1147,.T.);
#1149=ORIENTED_EDGE('',*,*,#1148,.F.);
#1150=CARTESIAN_POINT('',(33.12610134,111.629587024,43.517693924));
#1151=DIRECTION('',(0.,1.,-0.));
#1152=DIRECTION('',(-0.132006333,0.,0.991248873));
#1153=AXIS2_PLACEMENT_3D('',#1150,#1151,#1152);
#1154=CIRCLE('',#1153,4.5);
#1155=EDGE_CURVE('',#1142,#1140,#1154,.T.);
#1156=ORIENTED_EDGE('',*,*,#1155,.F.);
#1157=EDGE_LOOP('',(#1149,#1156));
#1158=FACE_BOUND('',#1157,.T.);
#1159=ADVANCED_FACE('',(#834,#854,#874,#894,#914,#934,#954,#974,#994,#1014,#1034,#1054,#1074,#1094,#1114,#1134,#1138,#1158),#623,.T.);
#1160=CARTESIAN_POINT('',(16.2748705,108.629587024,41.273586264));
#1161=DIRECTION('',(-0.,1.,-0.));
#1162=DIRECTION('',(0.991248873,0.,0.132006333));
#1163=AXIS2_PLACEMENT_3D('',#1160,#1161,#1162);
#1164=CYLINDRICAL_SURFACE('',#1163,0.75);
#1165=CARTESIAN_POINT('',(17.018307155,111.629587024,41.372591014));
#1166=DIRECTION('',(0.,-1.,0.));
#1167=VECTOR('',#1166,3.);
#1168=LINE('',#1165,#1167);
#1169=EDGE_CURVE('',#838,#244,#1168,.T.);
#1170=ORIENTED_EDGE('',*,*,#1169,.F.);
#1171=ORIENTED_EDGE('',*,*,#844,.F.);
#1172=ORIENTED_EDGE('',*,*,#851,.F.);
#1173=ORIENTED_EDGE('',*,*,#1169,.T.);
#1174=ORIENTED_EDGE('',*,*,#252,.T.);
#1175=ORIENTED_EDGE('',*,*,#259,.T.);
#1176=EDGE_LOOP('',(#1170,#1171,#1172,#1173,#1174,#1175));
#1177=FACE_BOUND('',#1176,.T.);
#1178=ADVANCED_FACE('',(#1177),#1164,.F.);
#1179=CARTESIAN_POINT('',(22.222363738,108.629587024,42.065624262));
#1180=DIRECTION('',(-0.,1.,-0.));
#1181=DIRECTION('',(0.991248873,0.,0.132006333));
#1182=AXIS2_PLACEMENT_3D('',#1179,#1180,#1181);
#1183=CYLINDRICAL_SURFACE('',#1182,0.75);
#1184=CARTESIAN_POINT('',(22.965800392,111.629587024,42.164629012));
#1185=DIRECTION('',(0.,-1.,0.));
#1186=VECTOR('',#1185,3.);
#1187=LINE('',#1184,#1186);
#1188=EDGE_CURVE('',#858,#264,#1187,.T.);
#1189=ORIENTED_EDGE('',*,*,#1188,.F.);
#1190=ORIENTED_EDGE('',*,*,#864,.F.);
#1191=ORIENTED_EDGE('',*,*,#871,.F.);
#1192=ORIENTED_EDGE('',*,*,#1188,.T.);
#1193=ORIENTED_EDGE('',*,*,#272,.T.);
#1194=ORIENTED_EDGE('',*,*,#279,.T.);
#1195=EDGE_LOOP('',(#1189,#1190,#1191,#1192,#1193,#1194));
#1196=FACE_BOUND('',#1195,.T.);
#1197=ADVANCED_FACE('',(#1196),#1183,.F.);
#1198=CARTESIAN_POINT('',(25.196110357,108.629587024,42.461643261));
#1199=DIRECTION('',(-0.,1.,-0.));
#1200=DIRECTION('',(0.991248873,0.,0.132006333));
#1201=AXIS2_PLACEMENT_3D('',#1198,#1199,#1200);
#1202=CYLINDRICAL_SURFACE('',#1201,0.75);
#1203=CARTESIAN_POINT('',(25.939547011,111.629587024,42.56064801));
#1204=DIRECTION('',(0.,-1.,0.));
#1205=VECTOR('',#1204,3.);
#1206=LINE('',#1203,#1205);
#1207=EDGE_CURVE('',#878,#284,#1206,.T.);
#1208=ORIENTED_EDGE('',*,*,#1207,.F.);
#1209=ORIENTED_EDGE('',*,*,#884,.F.);
#1210=ORIENTED_EDGE('',*,*,#891,.F.);
#1211=ORIENTED_EDGE('',*,*,#1207,.T.);
#1212=ORIENTED_EDGE('',*,*,#292,.T.);
#1213=ORIENTED_EDGE('',*,*,#299,.T.);
#1214=EDGE_LOOP('',(#1208,#1209,#1210,#1211,#1212,#1213));
#1215=FACE_BOUND('',#1214,.T.);
#1216=ADVANCED_FACE('',(#1215),#1202,.F.);
#1217=CARTESIAN_POINT('',(34.974190001,108.629587024,29.640209703));
#1218=DIRECTION('',(-0.,1.,-0.));
#1219=DIRECTION('',(0.991248873,0.,0.132006333));
#1220=AXIS2_PLACEMENT_3D('',#1217,#1218,#1219);
#1221=CYLINDRICAL_SURFACE('',#1220,0.75);
#1222=CARTESIAN_POINT('',(35.717626656,111.629587024,29.739214453));
#1223=DIRECTION('',(0.,-1.,0.));
#1224=VECTOR('',#1223,3.);
#1225=LINE('',#1222,#1224);
#1226=EDGE_CURVE('',#898,#304,#1225,.T.);
#1227=ORIENTED_EDGE('',*,*,#1226,.F.);
#1228=ORIENTED_EDGE('',*,*,#904,.F.);
#1229=ORIENTED_EDGE('',*,*,#911,.F.);
#1230=ORIENTED_EDGE('',*,*,#1226,.T.);
#1231=ORIENTED_EDGE('',*,*,#312,.T.);
#1232=ORIENTED_EDGE('',*,*,#319,.T.);
#1233=EDGE_LOOP('',(#1227,#1228,#1229,#1230,#1231,#1232));
#1234=FACE_BOUND('',#1233,.T.);
#1235=ADVANCED_FACE('',(#1234),#1221,.F.);
#1236=CARTESIAN_POINT('',(35.370209,108.629587024,26.666463085));
#1237=DIRECTION('',(-0.,1.,-0.));
#1238=DIRECTION('',(0.991248873,0.,0.132006333));
#1239=AXIS2_PLACEMENT_3D('',#1236,#1237,#1238);
#1240=CYLINDRICAL_SURFACE('',#1239,0.75);
#1241=CARTESIAN_POINT('',(36.113645655,111.629587024,26.765467834));
#1242=DIRECTION('',(0.,-1.,0.));
#1243=VECTOR('',#1242,3.);
#1244=LINE('',#1241,#1243);
#1245=EDGE_CURVE('',#918,#324,#1244,.T.);
#1246=ORIENTED_EDGE('',*,*,#1245,.F.);
#1247=ORIENTED_EDGE('',*,*,#924,.F.);
#1248=ORIENTED_EDGE('',*,*,#931,.F.);
#1249=ORIENTED_EDGE('',*,*,#1245,.T.);
#1250=ORIENTED_EDGE('',*,*,#332,.T.);
#1251=ORIENTED_EDGE('',*,*,#339,.T.);
#1252=EDGE_LOOP('',(#1246,#1247,#1248,#1249,#1250,#1251));
#1253=FACE_BOUND('',#1252,.T.);
#1254=ADVANCED_FACE('',(#1253),#1240,.F.);
#1255=CARTESIAN_POINT('',(34.578171002,108.629587024,32.613956322));
#1256=DIRECTION('',(-0.,1.,-0.));
#1257=DIRECTION('',(0.991248873,0.,0.132006333));
#1258=AXIS2_PLACEMENT_3D('',#1255,#1256,#1257);
#1259=CYLINDRICAL_SURFACE('',#1258,0.75);
#1260=CARTESIAN_POINT('',(35.321607657,111.629587024,32.712961072));
#1261=DIRECTION('',(0.,-1.,0.));
#1262=VECTOR('',#1261,3.);
#1263=LINE('',#1260,#1262);
#1264=EDGE_CURVE('',#938,#344,#1263,.T.);
#1265=ORIENTED_EDGE('',*,*,#1264,.F.);
#1266=ORIENTED_EDGE('',*,*,#944,.F.);
#1267=ORIENTED_EDGE('',*,*,#951,.F.);
#1268=ORIENTED_EDGE('',*,*,#1264,.T.);
#1269=ORIENTED_EDGE('',*,*,#352,.T.);
#1270=ORIENTED_EDGE('',*,*,#359,.T.);
#1271=EDGE_LOOP('',(#1265,#1266,#1267,#1268,#1269,#1270));
#1272=FACE_BOUND('',#1271,.T.);
#1273=ADVANCED_FACE('',(#1272),#1259,.F.);
#1274=CARTESIAN_POINT('',(34.182152003,108.629587024,35.587702941));
#1275=DIRECTION('',(-0.,1.,-0.));
#1276=DIRECTION('',(0.991248873,0.,0.132006333));
#1277=AXIS2_PLACEMENT_3D('',#1274,#1275,#1276);
#1278=CYLINDRICAL_SURFACE('',#1277,0.75);
#1279=CARTESIAN_POINT('',(34.925588658,111.629587024,35.686707691));
#1280=DIRECTION('',(0.,-1.,0.));
#1281=VECTOR('',#1280,3.);
#1282=LINE('',#1279,#1281);
#1283=EDGE_CURVE('',#958,#364,#1282,.T.);
#1284=ORIENTED_EDGE('',*,*,#1283,.F.);
#1285=ORIENTED_EDGE('',*,*,#964,.F.);
#1286=ORIENTED_EDGE('',*,*,#971,.F.);
#1287=ORIENTED_EDGE('',*,*,#1283,.T.);
#1288=ORIENTED_EDGE('',*,*,#372,.T.);
#1289=ORIENTED_EDGE('',*,*,#379,.T.);
#1290=EDGE_LOOP('',(#1284,#1285,#1286,#1287,#1288,#1289));
#1291=FACE_BOUND('',#1290,.T.);
#1292=ADVANCED_FACE('',(#1291),#1278,.F.);
#1293=CARTESIAN_POINT('',(31.278012679,108.629587024,57.395178145));
#1294=DIRECTION('',(-0.,1.,-0.));
#1295=DIRECTION('',(0.991248873,0.,0.132006333));
#1296=AXIS2_PLACEMENT_3D('',#1293,#1294,#1295);
#1297=CYLINDRICAL_SURFACE('',#1296,0.75);
#1298=CARTESIAN_POINT('',(32.021449333,111.629587024,57.494182895));
#1299=DIRECTION('',(0.,-1.,0.));
#1300=VECTOR('',#1299,3.);
#1301=LINE('',#1298,#1300);
#1302=EDGE_CURVE('',#978,#384,#1301,.T.);
#1303=ORIENTED_EDGE('',*,*,#1302,.F.);
#1304=ORIENTED_EDGE('',*,*,#984,.F.);
#1305=ORIENTED_EDGE('',*,*,#991,.F.);
#1306=ORIENTED_EDGE('',*,*,#1302,.T.);
#1307=ORIENTED_EDGE('',*,*,#392,.T.);
#1308=ORIENTED_EDGE('',*,*,#399,.T.);
#1309=EDGE_LOOP('',(#1303,#1304,#1305,#1306,#1307,#1308));
#1310=FACE_BOUND('',#1309,.T.);
#1311=ADVANCED_FACE('',(#1310),#1297,.F.);
#1312=CARTESIAN_POINT('',(30.88199368,108.629587024,60.368924764));
#1313=DIRECTION('',(-0.,1.,-0.));
#1314=DIRECTION('',(0.991248873,0.,0.132006333));
#1315=AXIS2_PLACEMENT_3D('',#1312,#1313,#1314);
#1316=CYLINDRICAL_SURFACE('',#1315,0.75);
#1317=CARTESIAN_POINT('',(31.625430334,111.629587024,60.467929514));
#1318=DIRECTION('',(0.,-1.,0.));
#1319=VECTOR('',#1318,3.);
#1320=LINE('',#1317,#1319);
#1321=EDGE_CURVE('',#998,#404,#1320,.T.);
#1322=ORIENTED_EDGE('',*,*,#1321,.F.);
#1323=ORIENTED_EDGE('',*,*,#1004,.F.);
#1324=ORIENTED_EDGE('',*,*,#1011,.F.);
#1325=ORIENTED_EDGE('',*,*,#1321,.T.);
#1326=ORIENTED_EDGE('',*,*,#412,.T.);
#1327=ORIENTED_EDGE('',*,*,#419,.T.);
#1328=EDGE_LOOP('',(#1322,#1323,#1324,#1325,#1326,#1327));
#1329=FACE_BOUND('',#1328,.T.);
#1330=ADVANCED_FACE('',(#1329),#1316,.F.);
#1331=CARTESIAN_POINT('',(31.674031677,108.629587024,54.421431526));
#1332=DIRECTION('',(-0.,1.,-0.));
#1333=DIRECTION('',(0.991248873,0.,0.132006333));
#1334=AXIS2_PLACEMENT_3D('',#1331,#1332,#1333);
#1335=CYLINDRICAL_SURFACE('',#1334,0.75);
#1336=CARTESIAN_POINT('',(32.417468332,111.629587024,54.520436276));
#1337=DIRECTION('',(0.,-1.,0.));
#1338=VECTOR('',#1337,3.);
#1339=LINE('',#1336,#1338);
#1340=EDGE_CURVE('',#1018,#424,#1339,.T.);
#1341=ORIENTED_EDGE('',*,*,#1340,.F.);
#1342=ORIENTED_EDGE('',*,*,#1024,.F.);
#1343=ORIENTED_EDGE('',*,*,#1031,.F.);
#1344=ORIENTED_EDGE('',*,*,#1340,.T.);
#1345=ORIENTED_EDGE('',*,*,#432,.T.);
#1346=ORIENTED_EDGE('',*,*,#439,.T.);
#1347=EDGE_LOOP('',(#1341,#1342,#1343,#1344,#1345,#1346));
#1348=FACE_BOUND('',#1347,.T.);
#1349=ADVANCED_FACE('',(#1348),#1335,.F.);
#1350=CARTESIAN_POINT('',(32.070050676,108.629587024,51.447684908));
#1351=DIRECTION('',(-0.,1.,-0.));
#1352=DIRECTION('',(0.991248873,0.,0.132006333));
#1353=AXIS2_PLACEMENT_3D('',#1350,#1351,#1352);
#1354=CYLINDRICAL_SURFACE('',#1353,0.75);
#1355=CARTESIAN_POINT('',(32.813487331,111.629587024,51.546689657));
#1356=DIRECTION('',(0.,-1.,0.));
#1357=VECTOR('',#1356,3.);
#1358=LINE('',#1355,#1357);
#1359=EDGE_CURVE('',#1038,#444,#1358,.T.);
#1360=ORIENTED_EDGE('',*,*,#1359,.F.);
#1361=ORIENTED_EDGE('',*,*,#1044,.F.);
#1362=ORIENTED_EDGE('',*,*,#1051,.F.);
#1363=ORIENTED_EDGE('',*,*,#1359,.T.);
#1364=ORIENTED_EDGE('',*,*,#452,.T.);
#1365=ORIENTED_EDGE('',*,*,#459,.T.);
#1366=EDGE_LOOP('',(#1360,#1361,#1362,#1363,#1364,#1365));
#1367=FACE_BOUND('',#1366,.T.);
#1368=ADVANCED_FACE('',(#1367),#1354,.F.);
#1369=CARTESIAN_POINT('',(47.003585561,108.629587024,45.365782586));
#1370=DIRECTION('',(-0.,1.,-0.));
#1371=DIRECTION('',(0.991248873,0.,0.132006333));
#1372=AXIS2_PLACEMENT_3D('',#1369,#1370,#1371);
#1373=CYLINDRICAL_SURFACE('',#1372,0.75);
#1374=CARTESIAN_POINT('',(47.747022215,111.629587024,45.464787335));
#1375=DIRECTION('',(0.,-1.,0.));
#1376=VECTOR('',#1375,3.);
#1377=LINE('',#1374,#1376);
#1378=EDGE_CURVE('',#1058,#464,#1377,.T.);
#1379=ORIENTED_EDGE('',*,*,#1378,.F.);
#1380=ORIENTED_EDGE('',*,*,#1064,.F.);
#1381=ORIENTED_EDGE('',*,*,#1071,.F.);
#1382=ORIENTED_EDGE('',*,*,#1378,.T.);
#1383=ORIENTED_EDGE('',*,*,#472,.T.);
#1384=ORIENTED_EDGE('',*,*,#479,.T.);
#1385=EDGE_LOOP('',(#1379,#1380,#1381,#1382,#1383,#1384));
#1386=FACE_BOUND('',#1385,.T.);
#1387=ADVANCED_FACE('',(#1386),#1373,.F.);
#1388=CARTESIAN_POINT('',(49.977332179,108.629587024,45.761801584));
#1389=DIRECTION('',(-0.,1.,-0.));
#1390=DIRECTION('',(0.991248873,0.,0.132006333));
#1391=AXIS2_PLACEMENT_3D('',#1388,#1389,#1390);
#1392=CYLINDRICAL_SURFACE('',#1391,0.75);
#1393=CARTESIAN_POINT('',(50.720768834,111.629587024,45.860806334));
#1394=DIRECTION('',(0.,-1.,0.));
#1395=VECTOR('',#1394,3.);
#1396=LINE('',#1393,#1395);
#1397=EDGE_CURVE('',#1078,#484,#1396,.T.);
#1398=ORIENTED_EDGE('',*,*,#1397,.F.);
#1399=ORIENTED_EDGE('',*,*,#1084,.F.);
#1400=ORIENTED_EDGE('',*,*,#1091,.F.);
#1401=ORIENTED_EDGE('',*,*,#1397,.T.);
#1402=ORIENTED_EDGE('',*,*,#492,.T.);
#1403=ORIENTED_EDGE('',*,*,#499,.T.);
#1404=EDGE_LOOP('',(#1398,#1399,#1400,#1401,#1402,#1403));
#1405=FACE_BOUND('',#1404,.T.);
#1406=ADVANCED_FACE('',(#1405),#1392,.F.);
#1407=CARTESIAN_POINT('',(44.029838942,108.629587024,44.969763587));
#1408=DIRECTION('',(-0.,1.,-0.));
#1409=DIRECTION('',(0.991248873,0.,0.132006333));
#1410=AXIS2_PLACEMENT_3D('',#1407,#1408,#1409);
#1411=CYLINDRICAL_SURFACE('',#1410,0.75);
#1412=CARTESIAN_POINT('',(44.773275597,111.629587024,45.068768336));
#1413=DIRECTION('',(0.,-1.,0.));
#1414=VECTOR('',#1413,3.);
#1415=LINE('',#1412,#1414);
#1416=EDGE_CURVE('',#1098,#504,#1415,.T.);
#1417=ORIENTED_EDGE('',*,*,#1416,.F.);
#1418=ORIENTED_EDGE('',*,*,#1104,.F.);
#1419=ORIENTED_EDGE('',*,*,#1111,.F.);
#1420=ORIENTED_EDGE('',*,*,#1416,.T.);
#1421=ORIENTED_EDGE('',*,*,#512,.T.);
#1422=ORIENTED_EDGE('',*,*,#519,.T.);
#1423=EDGE_LOOP('',(#1417,#1418,#1419,#1420,#1421,#1422));
#1424=FACE_BOUND('',#1423,.T.);
#1425=ADVANCED_FACE('',(#1424),#1411,.F.);
#1426=CARTESIAN_POINT('',(41.056092323,108.629587024,44.573744588));
#1427=DIRECTION('',(-0.,1.,-0.));
#1428=DIRECTION('',(0.991248873,0.,0.132006333));
#1429=AXIS2_PLACEMENT_3D('',#1426,#1427,#1428);
#1430=CYLINDRICAL_SURFACE('',#1429,0.75);
#1431=CARTESIAN_POINT('',(41.799528978,111.629587024,44.672749338));
#1432=DIRECTION('',(0.,-1.,0.));
#1433=VECTOR('',#1432,3.);
#1434=LINE('',#1431,#1433);
#1435=EDGE_CURVE('',#1118,#524,#1434,.T.);
#1436=ORIENTED_EDGE('',*,*,#1435,.F.);
#1437=ORIENTED_EDGE('',*,*,#1124,.F.);
#1438=ORIENTED_EDGE('',*,*,#1131,.F.);
#1439=ORIENTED_EDGE('',*,*,#1435,.T.);
#1440=ORIENTED_EDGE('',*,*,#532,.T.);
#1441=ORIENTED_EDGE('',*,*,#539,.T.);
#1442=EDGE_LOOP('',(#1436,#1437,#1438,#1439,#1440,#1441));
#1443=FACE_BOUND('',#1442,.T.);
#1444=ADVANCED_FACE('',(#1443),#1430,.F.);
#1445=CARTESIAN_POINT('',(23.459810662,108.629587024,45.440489482));
#1446=DIRECTION('',(-0.132006333,0.,0.991248873));
#1447=DIRECTION('',(0.991248873,0.,0.132006333));
#1448=AXIS2_PLACEMENT_3D('',#1445,#1446,#1447);
#1449=PLANE('',#1448);
#1450=CARTESIAN_POINT('',(27.569427415,108.629587024,45.987774279));
#1451=DIRECTION('',(-0.,1.,-0.));
#1452=VECTOR('',#1451,3.);
#1453=LINE('',#1450,#1452);
#1454=EDGE_CURVE('',#227,#625,#1453,.T.);
#1455=ORIENTED_EDGE('',*,*,#1454,.T.);
#1456=ORIENTED_EDGE('',*,*,#831,.F.);
#1457=CARTESIAN_POINT('',(23.459810662,108.629587024,45.440489482));
#1458=DIRECTION('',(-0.,1.,-0.));
#1459=VECTOR('',#1458,3.);
#1460=LINE('',#1457,#1459);
#1461=EDGE_CURVE('',#35,#820,#1460,.T.);
#1462=ORIENTED_EDGE('',*,*,#1461,.F.);
#1463=ORIENTED_EDGE('',*,*,#239,.T.);
#1464=EDGE_LOOP('',(#1455,#1456,#1462,#1463));
#1465=FACE_BOUND('',#1464,.T.);
#1466=ADVANCED_FACE('',(#1465),#1449,.T.);
#1467=CARTESIAN_POINT('',(15.76905347,108.629587024,42.685729717));
#1468=DIRECTION('',(-0.337211354,0.,0.941428969));
#1469=DIRECTION('',(0.941428969,0.,0.337211354));
#1470=AXIS2_PLACEMENT_3D('',#1467,#1468,#1469);
#1471=PLANE('',#1470);
#1472=ORIENTED_EDGE('',*,*,#1461,.T.);
#1473=ORIENTED_EDGE('',*,*,#825,.F.);
#1474=CARTESIAN_POINT('',(15.76905347,108.629587024,42.685729717));
#1475=DIRECTION('',(-0.,1.,-0.));
#1476=VECTOR('',#1475,3.);
#1477=LINE('',#1474,#1476);
#1478=EDGE_CURVE('',#33,#811,#1477,.T.);
#1479=ORIENTED_EDGE('',*,*,#1478,.F.);
#1480=ORIENTED_EDGE('',*,*,#40,.T.);
#1481=EDGE_LOOP('',(#1472,#1473,#1479,#1480));
#1482=FACE_BOUND('',#1481,.T.);
#1483=ADVANCED_FACE('',(#1482),#1471,.T.);
#1484=CARTESIAN_POINT('',(16.2748705,108.629587024,41.273586264));
#1485=DIRECTION('',(-0.,1.,-0.));
#1486=DIRECTION('',(0.991248873,0.,0.132006333));
#1487=AXIS2_PLACEMENT_3D('',#1484,#1485,#1486);
#1488=CYLINDRICAL_SURFACE('',#1487,1.5);
#1489=ORIENTED_EDGE('',*,*,#1478,.T.);
#1490=ORIENTED_EDGE('',*,*,#817,.F.);
#1491=CARTESIAN_POINT('',(16.156243002,108.629587024,39.77828445));
#1492=DIRECTION('',(-0.,1.,-0.));
#1493=VECTOR('',#1492,3.);
#1494=LINE('',#1491,#1493);
#1495=EDGE_CURVE('',#43,#803,#1494,.T.);
#1496=ORIENTED_EDGE('',*,*,#1495,.F.);
#1497=ORIENTED_EDGE('',*,*,#49,.T.);
#1498=EDGE_LOOP('',(#1489,#1490,#1496,#1497));
#1499=FACE_BOUND('',#1498,.T.);
#1500=ADVANCED_FACE('',(#1499),#1488,.T.);
#1501=CARTESIAN_POINT('',(24.299893821,108.629587024,39.132220283));
#1502=DIRECTION('',(-0.079084999,-0.,-0.996867876));
#1503=DIRECTION('',(-0.996867876,0.,0.079084999));
#1504=AXIS2_PLACEMENT_3D('',#1501,#1502,#1503);
#1505=PLANE('',#1504);
#1506=ORIENTED_EDGE('',*,*,#1495,.T.);
#1507=ORIENTED_EDGE('',*,*,#808,.F.);
#1508=CARTESIAN_POINT('',(24.299893821,108.629587024,39.132220283));
#1509=DIRECTION('',(-0.,1.,-0.));
#1510=VECTOR('',#1509,3.);
#1511=LINE('',#1508,#1510);
#1512=EDGE_CURVE('',#52,#795,#1511,.T.);
#1513=ORIENTED_EDGE('',*,*,#1512,.F.);
#1514=ORIENTED_EDGE('',*,*,#57,.T.);
#1515=EDGE_LOOP('',(#1506,#1507,#1513,#1514));
#1516=FACE_BOUND('',#1515,.T.);
#1517=ADVANCED_FACE('',(#1516),#1505,.T.);
#1518=CARTESIAN_POINT('',(28.409510574,108.629587024,39.67950508));
#1519=DIRECTION('',(0.132006333,-0.,-0.991248873));
#1520=DIRECTION('',(-0.991248873,-0.,-0.132006333));
#1521=AXIS2_PLACEMENT_3D('',#1518,#1519,#1520);
#1522=PLANE('',#1521);
#1523=ORIENTED_EDGE('',*,*,#1512,.T.);
#1524=ORIENTED_EDGE('',*,*,#800,.F.);
#1525=CARTESIAN_POINT('',(28.409510574,108.629587024,39.67950508));
#1526=DIRECTION('',(-0.,1.,-0.));
#1527=VECTOR('',#1526,3.);
#1528=LINE('',#1525,#1527);
#1529=EDGE_CURVE('',#60,#786,#1528,.T.);
#1530=ORIENTED_EDGE('',*,*,#1529,.F.);
#1531=ORIENTED_EDGE('',*,*,#65,.T.);
#1532=EDGE_LOOP('',(#1523,#1524,#1530,#1531));
#1533=FACE_BOUND('',#1532,.T.);
#1534=ADVANCED_FACE('',(#1533),#1522,.T.);
#1535=CARTESIAN_POINT('',(28.67352324,108.629587024,37.697007334));
#1536=DIRECTION('',(-0.,1.,-0.));
#1537=DIRECTION('',(0.991248873,0.,0.132006333));
#1538=AXIS2_PLACEMENT_3D('',#1535,#1536,#1537);
#1539=CYLINDRICAL_SURFACE('',#1538,2.);
#1540=ORIENTED_EDGE('',*,*,#1529,.T.);
#1541=ORIENTED_EDGE('',*,*,#792,.F.);
#1542=CARTESIAN_POINT('',(30.656020986,108.629587024,37.96102));
#1543=DIRECTION('',(-0.,1.,-0.));
#1544=VECTOR('',#1543,3.);
#1545=LINE('',#1542,#1544);
#1546=EDGE_CURVE('',#68,#778,#1545,.T.);
#1547=ORIENTED_EDGE('',*,*,#1546,.F.);
#1548=ORIENTED_EDGE('',*,*,#74,.T.);
#1549=EDGE_LOOP('',(#1540,#1541,#1547,#1548));
#1550=FACE_BOUND('',#1549,.T.);
#1551=ADVANCED_FACE('',(#1550),#1539,.F.);
#1552=CARTESIAN_POINT('',(31.203305782,108.629587024,33.851403246));
#1553=DIRECTION('',(-0.991248873,-0.,-0.132006333));
#1554=DIRECTION('',(-0.132006333,0.,0.991248873));
#1555=AXIS2_PLACEMENT_3D('',#1552,#1553,#1554);
#1556=PLANE('',#1555);
#1557=ORIENTED_EDGE('',*,*,#1546,.T.);
#1558=ORIENTED_EDGE('',*,*,#783,.F.);
#1559=CARTESIAN_POINT('',(31.203305782,108.629587024,33.851403246));
#1560=DIRECTION('',(-0.,1.,-0.));
#1561=VECTOR('',#1560,3.);
#1562=LINE('',#1559,#1561);
#1563=EDGE_CURVE('',#77,#770,#1562,.T.);
#1564=ORIENTED_EDGE('',*,*,#1563,.F.);
#1565=ORIENTED_EDGE('',*,*,#82,.T.);
#1566=EDGE_LOOP('',(#1557,#1558,#1564,#1565));
#1567=FACE_BOUND('',#1566,.T.);
#1568=ADVANCED_FACE('',(#1567),#1556,.T.);
#1569=CARTESIAN_POINT('',(33.958065547,108.629587024,26.160646054));
#1570=DIRECTION('',(-0.941428969,-0.,-0.337211354));
#1571=DIRECTION('',(-0.337211354,0.,0.941428969));
#1572=AXIS2_PLACEMENT_3D('',#1569,#1570,#1571);
#1573=PLANE('',#1572);
#1574=ORIENTED_EDGE('',*,*,#1563,.T.);
#1575=ORIENTED_EDGE('',*,*,#775,.F.);
#1576=CARTESIAN_POINT('',(33.958065547,108.629587024,26.160646054));
#1577=DIRECTION('',(-0.,1.,-0.));
#1578=VECTOR('',#1577,3.);
#1579=LINE('',#1576,#1578);
#1580=EDGE_CURVE('',#85,#761,#1579,.T.);
#1581=ORIENTED_EDGE('',*,*,#1580,.F.);
#1582=ORIENTED_EDGE('',*,*,#90,.T.);
#1583=EDGE_LOOP('',(#1574,#1575,#1581,#1582));
#1584=FACE_BOUND('',#1583,.T.);
#1585=ADVANCED_FACE('',(#1584),#1573,.T.);
#1586=CARTESIAN_POINT('',(35.370209,108.629587024,26.666463085));
#1587=DIRECTION('',(-0.,1.,-0.));
#1588=DIRECTION('',(0.991248873,0.,0.132006333));
#1589=AXIS2_PLACEMENT_3D('',#1586,#1587,#1588);
#1590=CYLINDRICAL_SURFACE('',#1589,1.5);
#1591=ORIENTED_EDGE('',*,*,#1580,.T.);
#1592=ORIENTED_EDGE('',*,*,#767,.F.);
#1593=CARTESIAN_POINT('',(36.865510815,108.629587024,26.547835587));
#1594=DIRECTION('',(-0.,1.,-0.));
#1595=VECTOR('',#1594,3.);
#1596=LINE('',#1593,#1595);
#1597=EDGE_CURVE('',#93,#753,#1596,.T.);
#1598=ORIENTED_EDGE('',*,*,#1597,.F.);
#1599=ORIENTED_EDGE('',*,*,#99,.T.);
#1600=EDGE_LOOP('',(#1591,#1592,#1598,#1599));
#1601=FACE_BOUND('',#1600,.T.);
#1602=ADVANCED_FACE('',(#1601),#1590,.T.);
#1603=CARTESIAN_POINT('',(37.511574981,108.629587024,34.691486405));
#1604=DIRECTION('',(0.996867876,-0.,-0.079084999));
#1605=DIRECTION('',(-0.079084999,-0.,-0.996867876));
#1606=AXIS2_PLACEMENT_3D('',#1603,#1604,#1605);
#1607=PLANE('',#1606);
#1608=ORIENTED_EDGE('',*,*,#1597,.T.);
#1609=ORIENTED_EDGE('',*,*,#758,.F.);
#1610=CARTESIAN_POINT('',(37.511574981,108.629587024,34.691486405));
#1611=DIRECTION('',(-0.,1.,-0.));
#1612=VECTOR('',#1611,3.);
#1613=LINE('',#1610,#1612);
#1614=EDGE_CURVE('',#102,#745,#1613,.T.);
#1615=ORIENTED_EDGE('',*,*,#1614,.F.);
#1616=ORIENTED_EDGE('',*,*,#107,.T.);
#1617=EDGE_LOOP('',(#1608,#1609,#1615,#1616));
#1618=FACE_BOUND('',#1617,.T.);
#1619=ADVANCED_FACE('',(#1618),#1607,.T.);
#1620=CARTESIAN_POINT('',(36.964290185,108.629587024,38.801103158));
#1621=DIRECTION('',(0.991248873,0.,0.132006333));
#1622=DIRECTION('',(0.132006333,-0.,-0.991248873));
#1623=AXIS2_PLACEMENT_3D('',#1620,#1621,#1622);
#1624=PLANE('',#1623);
#1625=ORIENTED_EDGE('',*,*,#1614,.T.);
#1626=ORIENTED_EDGE('',*,*,#750,.F.);
#1627=CARTESIAN_POINT('',(36.964290185,108.629587024,38.801103158));
#1628=DIRECTION('',(-0.,1.,-0.));
#1629=VECTOR('',#1628,3.);
#1630=LINE('',#1627,#1629);
#1631=EDGE_CURVE('',#110,#736,#1630,.T.);
#1632=ORIENTED_EDGE('',*,*,#1631,.F.);
#1633=ORIENTED_EDGE('',*,*,#115,.T.);
#1634=EDGE_LOOP('',(#1625,#1626,#1632,#1633));
#1635=FACE_BOUND('',#1634,.T.);
#1636=ADVANCED_FACE('',(#1635),#1624,.T.);
#1637=CARTESIAN_POINT('',(38.94678793,108.629587024,39.065115824));
#1638=DIRECTION('',(-0.,1.,-0.));
#1639=DIRECTION('',(0.991248873,0.,0.132006333));
#1640=AXIS2_PLACEMENT_3D('',#1637,#1638,#1639);
#1641=CYLINDRICAL_SURFACE('',#1640,2.);
#1642=ORIENTED_EDGE('',*,*,#1631,.T.);
#1643=ORIENTED_EDGE('',*,*,#742,.F.);
#1644=CARTESIAN_POINT('',(38.682775265,108.629587024,41.04761357));
#1645=DIRECTION('',(-0.,1.,-0.));
#1646=VECTOR('',#1645,3.);
#1647=LINE('',#1644,#1646);
#1648=EDGE_CURVE('',#118,#728,#1647,.T.);
#1649=ORIENTED_EDGE('',*,*,#1648,.F.);
#1650=ORIENTED_EDGE('',*,*,#124,.T.);
#1651=EDGE_LOOP('',(#1642,#1643,#1649,#1650));
#1652=FACE_BOUND('',#1651,.T.);
#1653=ADVANCED_FACE('',(#1652),#1641,.F.);
#1654=CARTESIAN_POINT('',(42.792392018,108.629587024,41.594898366));
#1655=DIRECTION('',(0.132006333,-0.,-0.991248873));
#1656=DIRECTION('',(-0.991248873,-0.,-0.132006333));
#1657=AXIS2_PLACEMENT_3D('',#1654,#1655,#1656);
#1658=PLANE('',#1657);
#1659=ORIENTED_EDGE('',*,*,#1648,.T.);
#1660=ORIENTED_EDGE('',*,*,#733,.F.);
#1661=CARTESIAN_POINT('',(42.792392018,108.629587024,41.594898366));
#1662=DIRECTION('',(-0.,1.,-0.));
#1663=VECTOR('',#1662,3.);
#1664=LINE('',#1661,#1663);
#1665=EDGE_CURVE('',#127,#720,#1664,.T.);
#1666=ORIENTED_EDGE('',*,*,#1665,.F.);
#1667=ORIENTED_EDGE('',*,*,#132,.T.);
#1668=EDGE_LOOP('',(#1659,#1660,#1666,#1667));
#1669=FACE_BOUND('',#1668,.T.);
#1670=ADVANCED_FACE('',(#1669),#1658,.T.);
#1671=CARTESIAN_POINT('',(50.48314921,108.629587024,44.349658132));
#1672=DIRECTION('',(0.337211354,-0.,-0.941428969));
#1673=DIRECTION('',(-0.941428969,-0.,-0.337211354));
#1674=AXIS2_PLACEMENT_3D('',#1671,#1672,#1673);
#1675=PLANE('',#1674);
#1676=ORIENTED_EDGE('',*,*,#1665,.T.);
#1677=ORIENTED_EDGE('',*,*,#725,.F.);
#1678=CARTESIAN_POINT('',(50.48314921,108.629587024,44.349658132));
#1679=DIRECTION('',(-0.,1.,-0.));
#1680=VECTOR('',#1679,3.);
#1681=LINE('',#1678,#1680);
#1682=EDGE_CURVE('',#135,#711,#1681,.T.);
#1683=ORIENTED_EDGE('',*,*,#1682,.F.);
#1684=ORIENTED_EDGE('',*,*,#140,.T.);
#1685=EDGE_LOOP('',(#1676,#1677,#1683,#1684));
#1686=FACE_BOUND('',#1685,.T.);
#1687=ADVANCED_FACE('',(#1686),#1675,.T.);
#1688=CARTESIAN_POINT('',(49.977332179,108.629587024,45.761801584));
#1689=DIRECTION('',(-0.,1.,-0.));
#1690=DIRECTION('',(0.991248873,0.,0.132006333));
#1691=AXIS2_PLACEMENT_3D('',#1688,#1689,#1690);
#1692=CYLINDRICAL_SURFACE('',#1691,1.5);
#1693=CARTESIAN_POINT('',(51.464205489,111.629587024,45.959811084));
#1694=DIRECTION('',(0.,-1.,0.));
#1695=VECTOR('',#1694,3.);
#1696=LINE('',#1693,#1695);
#1697=EDGE_CURVE('',#702,#143,#1696,.T.);
#1698=ORIENTED_EDGE('',*,*,#1697,.T.);
#1699=ORIENTED_EDGE('',*,*,#149,.T.);
#1700=ORIENTED_EDGE('',*,*,#1682,.T.);
#1701=ORIENTED_EDGE('',*,*,#717,.F.);
#1702=EDGE_LOOP('',(#1698,#1699,#1700,#1701));
#1703=FACE_BOUND('',#1702,.T.);
#1704=ADVANCED_FACE('',(#1703),#1692,.T.);
#1705=CARTESIAN_POINT('',(41.952308859,108.629587024,47.903167565));
#1706=DIRECTION('',(0.079084999,0.,0.996867876));
#1707=DIRECTION('',(0.996867876,-0.,-0.079084999));
#1708=AXIS2_PLACEMENT_3D('',#1705,#1706,#1707);
#1709=PLANE('',#1708);
#1710=CARTESIAN_POINT('',(50.095959677,108.629587024,47.257103399));
#1711=DIRECTION('',(-0.,1.,-0.));
#1712=VECTOR('',#1711,3.);
#1713=LINE('',#1710,#1712);
#1714=EDGE_CURVE('',#152,#694,#1713,.T.);
#1715=ORIENTED_EDGE('',*,*,#1714,.T.);
#1716=ORIENTED_EDGE('',*,*,#699,.F.);
#1717=CARTESIAN_POINT('',(41.952308859,108.629587024,47.903167565));
#1718=DIRECTION('',(-0.,1.,-0.));
#1719=VECTOR('',#1718,3.);
#1720=LINE('',#1717,#1719);
#1721=EDGE_CURVE('',#161,#686,#1720,.T.);
#1722=ORIENTED_EDGE('',*,*,#1721,.F.);
#1723=ORIENTED_EDGE('',*,*,#166,.T.);
#1724=EDGE_LOOP('',(#1715,#1716,#1722,#1723));
#1725=FACE_BOUND('',#1724,.T.);
#1726=ADVANCED_FACE('',(#1725),#1709,.T.);
#1727=CARTESIAN_POINT('',(37.842692106,108.629587024,47.355882769));
#1728=DIRECTION('',(-0.132006333,0.,0.991248873));
#1729=DIRECTION('',(0.991248873,0.,0.132006333));
#1730=AXIS2_PLACEMENT_3D('',#1727,#1728,#1729);
#1731=PLANE('',#1730);
#1732=ORIENTED_EDGE('',*,*,#1721,.T.);
#1733=ORIENTED_EDGE('',*,*,#691,.F.);
#1734=CARTESIAN_POINT('',(37.842692106,108.629587024,47.355882769));
#1735=DIRECTION('',(-0.,1.,-0.));
#1736=VECTOR('',#1735,3.);
#1737=LINE('',#1734,#1736);
#1738=EDGE_CURVE('',#169,#677,#1737,.T.);
#1739=ORIENTED_EDGE('',*,*,#1738,.F.);
#1740=ORIENTED_EDGE('',*,*,#174,.T.);
#1741=EDGE_LOOP('',(#1732,#1733,#1739,#1740));
#1742=FACE_BOUND('',#1741,.T.);
#1743=ADVANCED_FACE('',(#1742),#1731,.T.);
#1744=CARTESIAN_POINT('',(37.57867944,108.629587024,49.338380515));
#1745=DIRECTION('',(-0.,1.,-0.));
#1746=DIRECTION('',(0.991248873,0.,0.132006333));
#1747=AXIS2_PLACEMENT_3D('',#1744,#1745,#1746);
#1748=CYLINDRICAL_SURFACE('',#1747,2.);
#1749=ORIENTED_EDGE('',*,*,#1738,.T.);
#1750=ORIENTED_EDGE('',*,*,#683,.F.);
#1751=CARTESIAN_POINT('',(35.596181694,108.629587024,49.074367849));
#1752=DIRECTION('',(-0.,1.,-0.));
#1753=VECTOR('',#1752,3.);
#1754=LINE('',#1751,#1753);
#1755=EDGE_CURVE('',#177,#669,#1754,.T.);
#1756=ORIENTED_EDGE('',*,*,#1755,.F.);
#1757=ORIENTED_EDGE('',*,*,#183,.T.);
#1758=EDGE_LOOP('',(#1749,#1750,#1756,#1757));
#1759=FACE_BOUND('',#1758,.T.);
#1760=ADVANCED_FACE('',(#1759),#1748,.F.);
#1761=CARTESIAN_POINT('',(35.048896898,108.629587024,53.183984602));
#1762=DIRECTION('',(0.991248873,0.,0.132006333));
#1763=DIRECTION('',(0.132006333,-0.,-0.991248873));
#1764=AXIS2_PLACEMENT_3D('',#1761,#1762,#1763);
#1765=PLANE('',#1764);
#1766=ORIENTED_EDGE('',*,*,#1755,.T.);
#1767=ORIENTED_EDGE('',*,*,#674,.F.);
#1768=CARTESIAN_POINT('',(35.048896898,108.629587024,53.183984602));
#1769=DIRECTION('',(-0.,1.,-0.));
#1770=VECTOR('',#1769,3.);
#1771=LINE('',#1768,#1770);
#1772=EDGE_CURVE('',#186,#661,#1771,.T.);
#1773=ORIENTED_EDGE('',*,*,#1772,.F.);
#1774=ORIENTED_EDGE('',*,*,#191,.T.);
#1775=EDGE_LOOP('',(#1766,#1767,#1773,#1774));
#1776=FACE_BOUND('',#1775,.T.);
#1777=ADVANCED_FACE('',(#1776),#1765,.T.);
#1778=CARTESIAN_POINT('',(32.294137133,108.629587024,60.874741795));
#1779=DIRECTION('',(0.941428969,0.,0.337211354));
#1780=DIRECTION('',(0.337211354,-0.,-0.941428969));
#1781=AXIS2_PLACEMENT_3D('',#1778,#1779,#1780);
#1782=PLANE('',#1781);
#1783=ORIENTED_EDGE('',*,*,#1772,.T.);
#1784=ORIENTED_EDGE('',*,*,#666,.F.);
#1785=CARTESIAN_POINT('',(32.294137133,108.629587024,60.874741795));
#1786=DIRECTION('',(-0.,1.,-0.));
#1787=VECTOR('',#1786,3.);
#1788=LINE('',#1785,#1787);
#1789=EDGE_CURVE('',#194,#652,#1788,.T.);
#1790=ORIENTED_EDGE('',*,*,#1789,.F.);
#1791=ORIENTED_EDGE('',*,*,#199,.T.);
#1792=EDGE_LOOP('',(#1783,#1784,#1790,#1791));
#1793=FACE_BOUND('',#1792,.T.);
#1794=ADVANCED_FACE('',(#1793),#1782,.T.);
#1795=CARTESIAN_POINT('',(30.88199368,108.629587024,60.368924764));
#1796=DIRECTION('',(-0.,1.,-0.));
#1797=DIRECTION('',(0.991248873,0.,0.132006333));
#1798=AXIS2_PLACEMENT_3D('',#1795,#1796,#1797);
#1799=CYLINDRICAL_SURFACE('',#1798,1.5);
#1800=ORIENTED_EDGE('',*,*,#1789,.T.);
#1801=ORIENTED_EDGE('',*,*,#658,.F.);
#1802=CARTESIAN_POINT('',(29.386691865,108.629587024,60.487552262));
#1803=DIRECTION('',(-0.,1.,-0.));
#1804=VECTOR('',#1803,3.);
#1805=LINE('',#1802,#1804);
#1806=EDGE_CURVE('',#202,#644,#1805,.T.);
#1807=ORIENTED_EDGE('',*,*,#1806,.F.);
#1808=ORIENTED_EDGE('',*,*,#208,.T.);
#1809=EDGE_LOOP('',(#1800,#1801,#1807,#1808));
#1810=FACE_BOUND('',#1809,.T.);
#1811=ADVANCED_FACE('',(#1810),#1799,.T.);
#1812=CARTESIAN_POINT('',(28.740627699,108.629587024,52.343901443));
#1813=DIRECTION('',(-0.996867876,0.,0.079084999));
#1814=DIRECTION('',(0.079084999,0.,0.996867876));
#1815=AXIS2_PLACEMENT_3D('',#1812,#1813,#1814);
#1816=PLANE('',#1815);
#1817=ORIENTED_EDGE('',*,*,#1806,.T.);
#1818=ORIENTED_EDGE('',*,*,#649,.F.);
#1819=CARTESIAN_POINT('',(28.740627699,108.629587024,52.343901443));
#1820=DIRECTION('',(-0.,1.,-0.));
#1821=VECTOR('',#1820,3.);
#1822=LINE('',#1819,#1821);
#1823=EDGE_CURVE('',#211,#636,#1822,.T.);
#1824=ORIENTED_EDGE('',*,*,#1823,.F.);
#1825=ORIENTED_EDGE('',*,*,#216,.T.);
#1826=EDGE_LOOP('',(#1817,#1818,#1824,#1825));
#1827=FACE_BOUND('',#1826,.T.);
#1828=ADVANCED_FACE('',(#1827),#1816,.T.);
#1829=CARTESIAN_POINT('',(29.287912495,108.629587024,48.23428469));
#1830=DIRECTION('',(-0.991248873,-0.,-0.132006333));
#1831=DIRECTION('',(-0.132006333,0.,0.991248873));
#1832=AXIS2_PLACEMENT_3D('',#1829,#1830,#1831);
#1833=PLANE('',#1832);
#1834=ORIENTED_EDGE('',*,*,#1823,.T.);
#1835=ORIENTED_EDGE('',*,*,#641,.F.);
#1836=CARTESIAN_POINT('',(29.287912495,108.629587024,48.23428469));
#1837=DIRECTION('',(-0.,1.,-0.));
#1838=VECTOR('',#1837,3.);
#1839=LINE('',#1836,#1838);
#1840=EDGE_CURVE('',#219,#627,#1839,.T.);
#1841=ORIENTED_EDGE('',*,*,#1840,.F.);
#1842=ORIENTED_EDGE('',*,*,#224,.T.);
#1843=EDGE_LOOP('',(#1834,#1835,#1841,#1842));
#1844=FACE_BOUND('',#1843,.T.);
#1845=ADVANCED_FACE('',(#1844),#1833,.T.);
#1846=CARTESIAN_POINT('',(27.305414749,108.629587024,47.970272024));
#1847=DIRECTION('',(-0.,1.,-0.));
#1848=DIRECTION('',(0.991248873,0.,0.132006333));
#1849=AXIS2_PLACEMENT_3D('',#1846,#1847,#1848);
#1850=CYLINDRICAL_SURFACE('',#1849,2.);
#1851=ORIENTED_EDGE('',*,*,#1840,.T.);
#1852=ORIENTED_EDGE('',*,*,#633,.F.);
#1853=ORIENTED_EDGE('',*,*,#1454,.F.);
#1854=ORIENTED_EDGE('',*,*,#233,.T.);
#1855=EDGE_LOOP('',(#1851,#1852,#1853,#1854));
#1856=FACE_BOUND('',#1855,.T.);
#1857=ADVANCED_FACE('',(#1856),#1850,.F.);
#1858=CARTESIAN_POINT('',(33.12610134,111.629587024,43.517693924));
#1859=DIRECTION('',(-0.,1.,-0.));
#1860=DIRECTION('',(0.991248873,0.,0.132006333));
#1861=AXIS2_PLACEMENT_3D('',#1858,#1859,#1860);
#1862=CYLINDRICAL_SURFACE('',#1861,4.5);
#1863=CARTESIAN_POINT('',(37.586721268,114.629587024,44.111722423));
#1864=VERTEX_POINT('',#1863);
#1865=CARTESIAN_POINT('',(37.586721268,114.629587024,44.111722423));
#1866=DIRECTION('',(0.,-1.,0.));
#1867=VECTOR('',#1866,3.);
#1868=LINE('',#1865,#1867);
#1869=EDGE_CURVE('',#1864,#1140,#1868,.T.);
#1870=ORIENTED_EDGE('',*,*,#1869,.T.);
#1871=ORIENTED_EDGE('',*,*,#1148,.T.);
#1872=ORIENTED_EDGE('',*,*,#1155,.T.);
#1873=ORIENTED_EDGE('',*,*,#1869,.F.);
#1874=CARTESIAN_POINT('',(32.532072842,114.629587024,47.978313852));
#1875=VERTEX_POINT('',#1874);
#1876=CARTESIAN_POINT('',(33.12610134,114.629587024,43.517693924));
#1877=DIRECTION('',(0.,1.,-0.));
#1878=DIRECTION('',(-0.132006333,0.,0.991248873));
#1879=AXIS2_PLACEMENT_3D('',#1876,#1877,#1878);
#1880=CIRCLE('',#1879,4.5);
#1881=EDGE_CURVE('',#1875,#1864,#1880,.T.);
#1882=ORIENTED_EDGE('',*,*,#1881,.F.);
#1883=CARTESIAN_POINT('',(33.12610134,114.629587024,43.517693924));
#1884=DIRECTION('',(0.,1.,-0.));
#1885=DIRECTION('',(-0.132006333,0.,0.991248873));
#1886=AXIS2_PLACEMENT_3D('',#1883,#1884,#1885);
#1887=CIRCLE('',#1886,4.5);
#1888=EDGE_CURVE('',#1864,#1875,#1887,.T.);
#1889=ORIENTED_EDGE('',*,*,#1888,.F.);
#1890=EDGE_LOOP('',(#1870,#1871,#1872,#1873,#1882,#1889));
#1891=FACE_BOUND('',#1890,.T.);
#1892=ADVANCED_FACE('',(#1891),#1862,.T.);
#1893=CARTESIAN_POINT('',(33.12610134,114.629587024,43.517693924));
#1894=DIRECTION('',(-0.,1.,-0.));
#1895=DIRECTION('',(0.991248873,0.,0.132006333));
#1896=AXIS2_PLACEMENT_3D('',#1893,#1894,#1895);
#1897=PLANE('',#1896);
#1898=ORIENTED_EDGE('',*,*,#1881,.T.);
#1899=ORIENTED_EDGE('',*,*,#1888,.T.);
#1900=EDGE_LOOP('',(#1898,#1899));
#1901=FACE_BOUND('',#1900,.T.);
#1902=CARTESIAN_POINT('',(36.099847959,114.629587024,43.913712923));
#1903=VERTEX_POINT('',#1902);
#1904=CARTESIAN_POINT('',(32.730082341,114.629587024,46.491440543));
#1905=VERTEX_POINT('',#1904);
#1906=CARTESIAN_POINT('',(33.12610134,114.629587024,43.517693924));
#1907=DIRECTION('',(0.,1.,-0.));
#1908=DIRECTION('',(-0.132006333,0.,0.991248873));
#1909=AXIS2_PLACEMENT_3D('',#1906,#1907,#1908);
#1910=CIRCLE('',#1909,3.);
#1911=EDGE_CURVE('',#1903,#1905,#1910,.T.);
#1912=ORIENTED_EDGE('',*,*,#1911,.F.);
#1913=CARTESIAN_POINT('',(33.12610134,114.629587024,43.517693924));
#1914=DIRECTION('',(0.,1.,-0.));
#1915=DIRECTION('',(-0.132006333,0.,0.991248873));
#1916=AXIS2_PLACEMENT_3D('',#1913,#1914,#1915);
#1917=CIRCLE('',#1916,3.);
#1918=EDGE_CURVE('',#1905,#1903,#1917,.T.);
#1919=ORIENTED_EDGE('',*,*,#1918,.F.);
#1920=EDGE_LOOP('',(#1912,#1919));
#1921=FACE_BOUND('',#1920,.T.);
#1922=ADVANCED_FACE('',(#1901,#1921),#1897,.T.);
#1923=CARTESIAN_POINT('',(33.12610134,114.629587024,43.517693924));
#1924=DIRECTION('',(-0.,1.,-0.));
#1925=DIRECTION('',(0.991248873,0.,0.132006333));
#1926=AXIS2_PLACEMENT_3D('',#1923,#1924,#1925);
#1927=CYLINDRICAL_SURFACE('',#1926,3.);
#1928=CARTESIAN_POINT('',(36.099847959,111.129587024,43.913712923));
#1929=VERTEX_POINT('',#1928);
#1930=CARTESIAN_POINT('',(36.099847959,114.629587024,43.913712923));
#1931=DIRECTION('',(0.,-1.,0.));
#1932=VECTOR('',#1931,3.5);
#1933=LINE('',#1930,#1932);
#1934=EDGE_CURVE('',#1903,#1929,#1933,.T.);
#1935=ORIENTED_EDGE('',*,*,#1934,.F.);
#1936=ORIENTED_EDGE('',*,*,#1911,.T.);
#1937=ORIENTED_EDGE('',*,*,#1918,.T.);
#1938=ORIENTED_EDGE('',*,*,#1934,.T.);
#1939=CARTESIAN_POINT('',(32.730082341,111.129587024,46.491440543));
#1940=VERTEX_POINT('',#1939);
#1941=CARTESIAN_POINT('',(33.12610134,111.129587024,43.517693924));
#1942=DIRECTION('',(0.,1.,-0.));
#1943=DIRECTION('',(-0.132006333,0.,0.991248873));
#1944=AXIS2_PLACEMENT_3D('',#1941,#1942,#1943);
#1945=CIRCLE('',#1944,3.);
#1946=EDGE_CURVE('',#1940,#1929,#1945,.T.);
#1947=ORIENTED_EDGE('',*,*,#1946,.F.);
#1948=CARTESIAN_POINT('',(33.12610134,111.129587024,43.517693924));
#1949=DIRECTION('',(0.,1.,-0.));
#1950=DIRECTION('',(-0.132006333,0.,0.991248873));
#1951=AXIS2_PLACEMENT_3D('',#1948,#1949,#1950);
#1952=CIRCLE('',#1951,3.);
#1953=EDGE_CURVE('',#1929,#1940,#1952,.T.);
#1954=ORIENTED_EDGE('',*,*,#1953,.F.);
#1955=EDGE_LOOP('',(#1935,#1936,#1937,#1938,#1947,#1954));
#1956=FACE_BOUND('',#1955,.T.);
#1957=ADVANCED_FACE('',(#1956),#1927,.F.);
#1958=CARTESIAN_POINT('',(33.12610134,111.129587024,43.517693924));
#1959=DIRECTION('',(-0.,1.,-0.));
#1960=DIRECTION('',(0.991248873,0.,0.132006333));
#1961=AXIS2_PLACEMENT_3D('',#1958,#1959,#1960);
#1962=PLANE('',#1961);
#1963=ORIENTED_EDGE('',*,*,#1946,.T.);
#1964=ORIENTED_EDGE('',*,*,#1953,.T.);
#1965=EDGE_LOOP('',(#1963,#1964));
#1966=FACE_BOUND('',#1965,.T.);
#1967=CARTESIAN_POINT('',(34.612974649,111.129587024,43.715703424));
#1968=VERTEX_POINT('',#1967);
#1969=CARTESIAN_POINT('',(32.92809184,111.129587024,45.004567234));
#1970=VERTEX_POINT('',#1969);
#1971=CARTESIAN_POINT('',(33.12610134,111.129587024,43.517693924));
#1972=DIRECTION('',(0.,1.,-0.));
#1973=DIRECTION('',(-0.132006333,0.,0.991248873));
#1974=AXIS2_PLACEMENT_3D('',#1971,#1972,#1973);
#1975=CIRCLE('',#1974,1.5);
#1976=EDGE_CURVE('',#1968,#1970,#1975,.T.);
#1977=ORIENTED_EDGE('',*,*,#1976,.F.);
#1978=CARTESIAN_POINT('',(33.12610134,111.129587024,43.517693924));
#1979=DIRECTION('',(0.,1.,-0.));
#1980=DIRECTION('',(-0.132006333,0.,0.991248873));
#1981=AXIS2_PLACEMENT_3D('',#1978,#1979,#1980);
#1982=CIRCLE('',#1981,1.5);
#1983=EDGE_CURVE('',#1970,#1968,#1982,.T.);
#1984=ORIENTED_EDGE('',*,*,#1983,.F.);
#1985=EDGE_LOOP('',(#1977,#1984));
#1986=FACE_BOUND('',#1985,.T.);
#1987=ADVANCED_FACE('',(#1966,#1986),#1962,.T.);
#1988=CARTESIAN_POINT('',(33.12610134,111.129587024,43.517693924));
#1989=DIRECTION('',(-0.,1.,-0.));
#1990=DIRECTION('',(0.991248873,0.,0.132006333));
#1991=AXIS2_PLACEMENT_3D('',#1988,#1989,#1990);
#1992=CYLINDRICAL_SURFACE('',#1991,1.5);
#1993=CARTESIAN_POINT('',(34.612974649,111.129587024,43.715703424));
#1994=DIRECTION('',(0.,-1.,0.));
#1995=VECTOR('',#1994,2.5);
#1996=LINE('',#1993,#1995);
#1997=EDGE_CURVE('',#1968,#566,#1996,.T.);
#1998=ORIENTED_EDGE('',*,*,#1997,.F.);
#1999=ORIENTED_EDGE('',*,*,#1976,.T.);
#2000=ORIENTED_EDGE('',*,*,#1983,.T.);
#2001=ORIENTED_EDGE('',*,*,#1997,.T.);
#2002=ORIENTED_EDGE('',*,*,#572,.F.);
#2003=ORIENTED_EDGE('',*,*,#579,.F.);
#2004=EDGE_LOOP('',(#1998,#1999,#2000,#2001,#2002,#2003));
#2005=FACE_BOUND('',#2004,.T.);
#2006=ADVANCED_FACE('',(#2005),#1992,.F.);
#2007=CARTESIAN_POINT('',(49.977332179,108.629587024,45.761801584));
#2008=DIRECTION('',(-0.,1.,-0.));
#2009=DIRECTION('',(0.991248873,0.,0.132006333));
#2010=AXIS2_PLACEMENT_3D('',#2007,#2008,#2009);
#2011=CYLINDRICAL_SURFACE('',#2010,1.5);
#2012=ORIENTED_EDGE('',*,*,#1697,.F.);
#2013=ORIENTED_EDGE('',*,*,#708,.F.);
#2014=ORIENTED_EDGE('',*,*,#1714,.F.);
#2015=ORIENTED_EDGE('',*,*,#158,.T.);
#2016=EDGE_LOOP('',(#2012,#2013,#2014,#2015));
#2017=FACE_BOUND('',#2016,.T.);
#2018=ADVANCED_FACE('',(#2017),#2011,.T.);
#2019=CLOSED_SHELL('',(#583,#618,#1159,#1178,#1197,#1216,#1235,#1254,#1273,#1292,#1311,#1330,#1349,#1368,#1387,#1406,#1425,#1444,#1466,#1483,#1500,#1517,#1534,#1551,#1568,#1585,
#1602,#1619,#1636,#1653,#1670,#1687,#1704,#1726,#1743,#1760,#1777,#1794,#1811,#1828,#1845,#1857,#1892,#1922,#1957,#1987,#2006,#2018));
#2020=MANIFOLD_SOLID_BREP('4_pat',#2019);
#2021=DRAUGHTING_PRE_DEFINED_COLOUR('white');
#2022=FILL_AREA_STYLE_COLOUR('',#2021);
#2023=FILL_AREA_STYLE('',(#2022));
#2024=SURFACE_STYLE_FILL_AREA(#2023);
#2025=SURFACE_SIDE_STYLE('',(#2024));
#2026=SURFACE_STYLE_USAGE(.BOTH.,#2025);
#2027=PRESENTATION_STYLE_ASSIGNMENT((#2026));
#26=STYLED_ITEM('',(#2027),#2020);
#16=SHAPE_REPRESENTATION('4_pat',(#15),#10);
#17=ADVANCED_BREP_SHAPE_REPRESENTATION('4_pat',(#2020),#10);
#2035=SHAPE_REPRESENTATION_RELATIONSHIP('','',#16,#17);
#2036=CARTESIAN_POINT('',(0.,0.,0.));
#2037=DIRECTION('',(0.,0.,1.));
#2038=DIRECTION('',(1.,0.,0.));
#2039=AXIS2_PLACEMENT_3D('',#2036,#2037,#2038);
#2041=MAPPED_ITEM('',#2040,#2039);
#2040=REPRESENTATION_MAP(#2039,#16);
#2042=APPLICATION_CONTEXT('Managed model based 3d engineering');
#2043=APPLICATION_PROTOCOL_DEFINITION('international standard','ap242_managed_model_based_3d_engineering',2014,#2042);
#2044=PRODUCT_CONTEXT('',#2042,'mechanical');
#2045=PRODUCT_DEFINITION_CONTEXT('part definition',#2042,'design');
#24=PRODUCT('4_pat','4_pat','',(#2044));
#2046=PRODUCT_RELATED_PRODUCT_CATEGORY('part','',(#24));
#2047=PRODUCT_DEFINITION_FORMATION_WITH_SPECIFIED_SOURCE('','',#24,.NOT_KNOWN.);
#25=PRODUCT_DEFINITION('design','',#2047,#2045);
#23=PRODUCT_DEFINITION_SHAPE('','',#25);
#2048=SHAPE_DEFINITION_REPRESENTATION(#23,#16);
#11=DRAUGHTING_MODEL('',(#2041),#10);
#2049=DESCRIPTIVE_REPRESENTATION_ITEM('KEY','/Users/quimgraellsolive/Library/Containers/com.shapr3d.shapr/Data/tmp/58AE2058-C510-44CC-A151-1F5230E8F562.tmp');
#2050=PROPERTY_DEFINITION('KEY','',#25);
#2051=REPRESENTATION('',(#2049),#10);
#2052=PROPERTY_DEFINITION_REPRESENTATION(#2050,#2051);
#2053=GENERAL_PROPERTY('','KEY','');
#2054=GENERAL_PROPERTY_ASSOCIATION('','',#2053,#2050);
#1=MECHANICAL_DESIGN_GEOMETRIC_PRESENTATION_REPRESENTATION('',(#26),#10);
ENDSEC;
END-ISO-10303-21;
