ISO-10303-21;
HEADER;

/* File generated by Shapr3D Version 5.831.0.8630 */

FILE_DESCRIPTION(('HOOPS Exchange Step'),'2;1');

FILE_NAME('/Users/quimgraellsolive/Library/Containers/com.shapr3d.shapr/Data/tmp/export/temp_export',
'2025-04-22T23:22:57+02:00',
('quimgraellsolive'),
('Shapr3D Limited'),
'HOOPS Exchange 2024.8',
'Shapr3D',
'Authorized');

FILE_SCHEMA( ('AP242_MANAGED_MODEL_BASED_3D_ENGINEERING_MIM_LF {1 0 10303 442 1 1 4}') );

ENDSEC;

DATA;
#3=(NAMED_UNIT(*)PLANE_ANGLE_UNIT()SI_UNIT($,.RADIAN.));
#4=PLANE_ANGLE_MEASURE_WITH_UNIT(PLANE_ANGLE_MEASURE(0.0174532925),#3);
#5=(CONVERSION_BASED_UNIT('DEGREE',#4)NAMED_UNIT(#6)PLANE_ANGLE_UNIT());
#6=DIMENSIONAL_EXPONENTS(0.,0.,0.,0.,0.,0.,0.);
#7=(NAMED_UNIT(*)SI_UNIT($,.STERADIAN.)SOLID_ANGLE_UNIT());
#8=(LENGTH_UNIT()NAMED_UNIT(*)SI_UNIT(.MILLI.,.METRE.));
#9=UNCERTAINTY_MEASURE_WITH_UNIT(LENGTH_MEASURE(1.000000E-05),#8,'DISTANCE_ACCURACY_VALUE','Maximum Tolerance applied to model');
#10=(GEOMETRIC_REPRESENTATION_CONTEXT(3)GLOBAL_UNCERTAINTY_ASSIGNED_CONTEXT((#9))GLOBAL_UNIT_ASSIGNED_CONTEXT((#8,#5,#7))REPRESENTATION_CONTEXT('','Balance_V4'));
#12=CARTESIAN_POINT('',(0.,0.,0.));
#13=DIRECTION('',(0.,0.,1.));
#14=DIRECTION('',(1.,0.,0.));
#15=AXIS2_PLACEMENT_3D('TS3D_PRODUCT_CSYS',#12,#13,#14);
#27=CARTESIAN_POINT('',(300.002577903,96.012448689,148.087231296));
#28=DIRECTION('',(-0.999999999,-0.,-0.000047249));
#29=DIRECTION('',(0.,-1.,0.));
#30=AXIS2_PLACEMENT_3D('',#27,#28,#29);
#31=PLANE('',#30);
#32=CARTESIAN_POINT('',(300.003637295,88.495458123,125.665548277));
#33=VERTEX_POINT('',#32);
#34=CARTESIAN_POINT('',(300.002739675,69.497639732,144.663366648));
#35=VERTEX_POINT('',#34);
#36=CARTESIAN_POINT('',(300.003637295,88.495458123,125.665548277));
#37=DIRECTION('',(-0.00003341,-0.707106781,0.70710678));
#38=VECTOR('',#37,26.866972425);
#39=LINE('',#36,#38);
#40=EDGE_CURVE('',#33,#35,#39,.T.);
#41=ORIENTED_EDGE('',*,*,#40,.F.);
#42=CARTESIAN_POINT('',(300.003637295,88.625209012,125.665548277));
#43=VERTEX_POINT('',#42);
#44=CARTESIAN_POINT('',(300.003637295,88.625209012,125.665548277));
#45=DIRECTION('',(0.,-1.,0.));
#46=VECTOR('',#45,0.129750888);
#47=LINE('',#44,#46);
#48=EDGE_CURVE('',#43,#33,#47,.T.);
#49=ORIENTED_EDGE('',*,*,#48,.F.);
#50=CARTESIAN_POINT('',(300.003826289,92.625209012,121.665548282));
#51=VERTEX_POINT('',#50);
#52=CARTESIAN_POINT('',(300.003826289,88.625209012,121.665548282));
#53=DIRECTION('',(-0.999999999,-0.,-0.000047249));
#54=DIRECTION('',(0.000047249,-0.,-0.999999999));
#55=AXIS2_PLACEMENT_3D('',#52,#53,#54);
#56=CIRCLE('',#55,4.);
#57=EDGE_CURVE('',#43,#51,#56,.T.);
#58=ORIENTED_EDGE('',*,*,#57,.T.);
#59=CARTESIAN_POINT('',(300.003991659,92.625209012,118.165548286));
#60=VERTEX_POINT('',#59);
#61=CARTESIAN_POINT('',(300.003826289,92.625209012,121.665548282));
#62=DIRECTION('',(0.000047249,-0.,-0.999999999));
#63=VECTOR('',#62,3.5);
#64=LINE('',#61,#63);
#65=EDGE_CURVE('',#51,#60,#64,.T.);
#66=ORIENTED_EDGE('',*,*,#65,.T.);
#67=CARTESIAN_POINT('',(300.003991659,99.522968307,118.165548286));
#68=VERTEX_POINT('',#67);
#69=CARTESIAN_POINT('',(300.003991659,99.522968307,118.165548286));
#70=DIRECTION('',(0.,-1.,0.));
#71=VECTOR('',#70,6.897759295);
#72=LINE('',#69,#71);
#73=EDGE_CURVE('',#68,#60,#72,.T.);
#74=ORIENTED_EDGE('',*,*,#73,.F.);
#75=CARTESIAN_POINT('',(300.003826285,99.522968307,121.665642884));
#76=VERTEX_POINT('',#75);
#77=CARTESIAN_POINT('',(300.003826285,99.522968307,121.665642884));
#78=DIRECTION('',(0.000047249,-0.,-0.999999999));
#79=VECTOR('',#78,3.500094602);
#80=LINE('',#77,#79);
#81=EDGE_CURVE('',#76,#68,#80,.T.);
#82=ORIENTED_EDGE('',*,*,#81,.F.);
#83=CARTESIAN_POINT('',(300.003637295,103.495458123,125.665548277));
#84=VERTEX_POINT('',#83);
#85=CARTESIAN_POINT('',(300.003826285,103.522968307,121.665642884));
#86=DIRECTION('',(-0.999999999,-0.,-0.000047249));
#87=DIRECTION('',(-0.000047249,0.,0.999999999));
#88=AXIS2_PLACEMENT_3D('',#85,#86,#87);
#89=CIRCLE('',#88,4.);
#90=EDGE_CURVE('',#76,#84,#89,.T.);
#91=ORIENTED_EDGE('',*,*,#90,.T.);
#92=CARTESIAN_POINT('',(300.002739675,122.493276515,144.663366648));
#93=VERTEX_POINT('',#92);
#94=CARTESIAN_POINT('',(300.002739675,122.493276515,144.663366648));
#95=DIRECTION('',(0.00003341,-0.707106781,-0.70710678));
#96=VECTOR('',#95,26.866972425);
#97=LINE('',#94,#96);
#98=EDGE_CURVE('',#93,#84,#97,.T.);
#99=ORIENTED_EDGE('',*,*,#98,.F.);
#100=CARTESIAN_POINT('',(300.002739675,109.948043333,144.663366648));
#101=VERTEX_POINT('',#100);
#102=CARTESIAN_POINT('',(300.002739675,122.493276515,144.663366648));
#103=DIRECTION('',(0.,-1.,0.));
#104=VECTOR('',#103,12.545233182);
#105=LINE('',#102,#104);
#106=EDGE_CURVE('',#93,#101,#105,.T.);
#107=ORIENTED_EDGE('',*,*,#106,.T.);
#108=CARTESIAN_POINT('',(300.003033805,97.508561944,138.438203545));
#109=VERTEX_POINT('',#108);
#110=CARTESIAN_POINT('',(300.002156645,95.995458123,157.003002753));
#111=DIRECTION('',(0.999999999,0.,0.000047249));
#112=DIRECTION('',(0.000047249,-0.,-0.999999999));
#113=AXIS2_PLACEMENT_3D('',#110,#111,#112);
#114=CIRCLE('',#113,18.626359107);
#115=EDGE_CURVE('',#109,#101,#114,.T.);
#116=ORIENTED_EDGE('',*,*,#115,.F.);
#117=CARTESIAN_POINT('',(300.003033805,97.372410056,138.438203545));
#118=VERTEX_POINT('',#117);
#119=CARTESIAN_POINT('',(300.003033805,97.372410056,138.438203545));
#120=DIRECTION('',(0.,1.,-0.));
#121=VECTOR('',#120,0.136151888);
#122=LINE('',#119,#121);
#123=EDGE_CURVE('',#118,#109,#122,.T.);
#124=ORIENTED_EDGE('',*,*,#123,.F.);
#125=CARTESIAN_POINT('',(300.003033805,94.618506191,138.438203545));
#126=VERTEX_POINT('',#125);
#127=CARTESIAN_POINT('',(300.00230765,95.995458123,153.807036818));
#128=DIRECTION('',(0.999999999,0.,0.000047249));
#129=DIRECTION('',(0.000047249,-0.,-0.999999999));
#130=AXIS2_PLACEMENT_3D('',#127,#128,#129);
#131=CIRCLE('',#130,15.430393168);
#132=EDGE_CURVE('',#126,#118,#131,.T.);
#133=ORIENTED_EDGE('',*,*,#132,.F.);
#134=CARTESIAN_POINT('',(300.003033805,94.482354303,138.438203545));
#135=VERTEX_POINT('',#134);
#136=CARTESIAN_POINT('',(300.003033805,94.482354303,138.438203545));
#137=DIRECTION('',(0.,1.,-0.));
#138=VECTOR('',#137,0.136151888);
#139=LINE('',#136,#138);
#140=EDGE_CURVE('',#135,#126,#139,.T.);
#141=ORIENTED_EDGE('',*,*,#140,.F.);
#142=CARTESIAN_POINT('',(300.002739675,82.042872913,144.663366648));
#143=VERTEX_POINT('',#142);
#144=CARTESIAN_POINT('',(300.002156645,95.995458123,157.003002753));
#145=DIRECTION('',(0.999999999,0.,0.000047249));
#146=DIRECTION('',(0.000047249,-0.,-0.999999999));
#147=AXIS2_PLACEMENT_3D('',#144,#145,#146);
#148=CIRCLE('',#147,18.626359107);
#149=EDGE_CURVE('',#143,#135,#148,.T.);
#150=ORIENTED_EDGE('',*,*,#149,.F.);
#151=CARTESIAN_POINT('',(300.002739675,82.042872913,144.663366648));
#152=DIRECTION('',(0.,-1.,0.));
#153=VECTOR('',#152,12.545233182);
#154=LINE('',#151,#153);
#155=EDGE_CURVE('',#143,#35,#154,.T.);
#156=ORIENTED_EDGE('',*,*,#155,.T.);
#157=EDGE_LOOP('',(#41,#49,#58,#66,#74,#82,#91,#99,#107,#116,#124,#133,#141,#150,#156));
#158=FACE_BOUND('',#157,.T.);
#159=CARTESIAN_POINT('',(300.003482538,90.65402761,128.940933732));
#160=VERTEX_POINT('',#159);
#161=CARTESIAN_POINT('',(300.003482538,101.340047384,128.940933732));
#162=VERTEX_POINT('',#161);
#163=CARTESIAN_POINT('',(300.003482538,90.65402761,128.940933732));
#164=DIRECTION('',(-0.,1.,-0.));
#165=VECTOR('',#164,10.686019774);
#166=LINE('',#163,#165);
#167=EDGE_CURVE('',#160,#162,#166,.T.);
#168=ORIENTED_EDGE('',*,*,#167,.T.);
#169=CARTESIAN_POINT('',(300.003600659,101.340047384,126.440933735));
#170=VERTEX_POINT('',#169);
#171=CARTESIAN_POINT('',(300.003482538,101.340047384,128.940933732));
#172=DIRECTION('',(0.000047249,-0.,-0.999999999));
#173=VECTOR('',#172,2.5);
#174=LINE('',#171,#173);
#175=EDGE_CURVE('',#162,#170,#174,.T.);
#176=ORIENTED_EDGE('',*,*,#175,.T.);
#177=CARTESIAN_POINT('',(300.003600659,90.65402761,126.440933735));
#178=VERTEX_POINT('',#177);
#179=CARTESIAN_POINT('',(300.003600659,101.340047384,126.440933735));
#180=DIRECTION('',(0.,-1.,0.));
#181=VECTOR('',#180,10.686019774);
#182=LINE('',#179,#181);
#183=EDGE_CURVE('',#170,#178,#182,.T.);
#184=ORIENTED_EDGE('',*,*,#183,.T.);
#185=CARTESIAN_POINT('',(300.003600659,90.65402761,126.440933735));
#186=DIRECTION('',(-0.000047249,0.,0.999999999));
#187=VECTOR('',#186,2.5);
#188=LINE('',#185,#187);
#189=EDGE_CURVE('',#178,#160,#188,.T.);
#190=ORIENTED_EDGE('',*,*,#189,.T.);
#191=EDGE_LOOP('',(#168,#176,#184,#190));
#192=FACE_BOUND('',#191,.T.);
#193=ADVANCED_FACE('',(#158,#192),#31,.F.);
#194=CARTESIAN_POINT('',(300.002739675,69.497639732,144.663366648));
#195=DIRECTION('',(-0.000047249,0.,0.999999999));
#196=DIRECTION('',(0.,1.,-0.));
#197=AXIS2_PLACEMENT_3D('',#194,#195,#196);
#198=PLANE('',#197);
#199=CARTESIAN_POINT('',(5.002740005,75.372888595,144.64942832));
#200=VERTEX_POINT('',#199);
#201=CARTESIAN_POINT('',(5.002740005,82.042872913,144.64942832));
#202=VERTEX_POINT('',#201);
#203=CARTESIAN_POINT('',(5.002740005,75.372888595,144.64942832));
#204=DIRECTION('',(0.,1.,-0.));
#205=VECTOR('',#204,6.669984319);
#206=LINE('',#203,#205);
#207=EDGE_CURVE('',#200,#202,#206,.T.);
#208=ORIENTED_EDGE('',*,*,#207,.T.);
#209=CARTESIAN_POINT('',(0.00274001,82.042872913,144.649192077));
#210=VERTEX_POINT('',#209);
#211=CARTESIAN_POINT('',(0.00274001,82.042872913,144.649192077));
#212=DIRECTION('',(0.999999999,0.,0.000047249));
#213=VECTOR('',#212,5.);
#214=LINE('',#211,#213);
#215=EDGE_CURVE('',#210,#202,#214,.T.);
#216=ORIENTED_EDGE('',*,*,#215,.F.);
#217=CARTESIAN_POINT('',(0.00274001,69.497639732,144.649192077));
#218=VERTEX_POINT('',#217);
#219=CARTESIAN_POINT('',(0.00274001,69.497639732,144.649192077));
#220=DIRECTION('',(-0.,1.,-0.));
#221=VECTOR('',#220,12.545233182);
#222=LINE('',#219,#221);
#223=EDGE_CURVE('',#218,#210,#222,.T.);
#224=ORIENTED_EDGE('',*,*,#223,.F.);
#225=CARTESIAN_POINT('',(300.002739675,69.497639732,144.663366648));
#226=DIRECTION('',(-0.999999999,-0.,-0.000047249));
#227=VECTOR('',#226,300.);
#228=LINE('',#225,#227);
#229=EDGE_CURVE('',#35,#218,#228,.T.);
#230=ORIENTED_EDGE('',*,*,#229,.F.);
#231=ORIENTED_EDGE('',*,*,#155,.F.);
#232=CARTESIAN_POINT('',(295.002739681,82.042872913,144.663130405));
#233=VERTEX_POINT('',#232);
#234=CARTESIAN_POINT('',(300.002739675,82.042872913,144.663366648));
#235=DIRECTION('',(-0.999999999,-0.,-0.000047249));
#236=VECTOR('',#235,5.);
#237=LINE('',#234,#236);
#238=EDGE_CURVE('',#143,#233,#237,.T.);
#239=ORIENTED_EDGE('',*,*,#238,.T.);
#240=CARTESIAN_POINT('',(295.002739681,75.372888595,144.663130405));
#241=VERTEX_POINT('',#240);
#242=CARTESIAN_POINT('',(295.002739681,75.372888595,144.663130405));
#243=DIRECTION('',(-0.,1.,-0.));
#244=VECTOR('',#243,6.669984319);
#245=LINE('',#242,#244);
#246=EDGE_CURVE('',#241,#233,#245,.T.);
#247=ORIENTED_EDGE('',*,*,#246,.F.);
#248=CARTESIAN_POINT('',(295.002739681,75.372888595,144.663130405));
#249=DIRECTION('',(-0.999999999,-0.,-0.000047249));
#250=VECTOR('',#249,290.);
#251=LINE('',#248,#250);
#252=EDGE_CURVE('',#241,#200,#251,.T.);
#253=ORIENTED_EDGE('',*,*,#252,.T.);
#254=EDGE_LOOP('',(#208,#216,#224,#230,#231,#239,#247,#253));
#255=FACE_BOUND('',#254,.T.);
#256=ADVANCED_FACE('',(#255),#198,.T.);
#257=CARTESIAN_POINT('',(300.002739675,75.372888595,144.663366648));
#258=DIRECTION('',(-0.00003696,0.622982063,0.78223612));
#259=DIRECTION('',(0.000029435,0.782236121,-0.622982062));
#260=AXIS2_PLACEMENT_3D('',#257,#258,#259);
#261=PLANE('',#260);
#262=CARTESIAN_POINT('',(295.00298824,81.978361713,139.4024538));
#263=VERTEX_POINT('',#262);
#264=CARTESIAN_POINT('',(5.002988564,81.978361713,139.388751715));
#265=VERTEX_POINT('',#264);
#266=CARTESIAN_POINT('',(295.00298824,81.978361713,139.4024538));
#267=DIRECTION('',(-0.999999999,-0.,-0.000047249));
#268=VECTOR('',#267,290.);
#269=LINE('',#266,#268);
#270=EDGE_CURVE('',#263,#265,#269,.T.);
#271=ORIENTED_EDGE('',*,*,#270,.T.);
#272=CARTESIAN_POINT('',(5.002740005,75.372888595,144.64942832));
#273=DIRECTION('',(0.000029435,0.782236121,-0.622982062));
#274=VECTOR('',#273,8.444346838);
#275=LINE('',#272,#274);
#276=EDGE_CURVE('',#200,#265,#275,.T.);
#277=ORIENTED_EDGE('',*,*,#276,.F.);
#278=ORIENTED_EDGE('',*,*,#252,.F.);
#279=CARTESIAN_POINT('',(295.002739681,75.372888595,144.663130405));
#280=DIRECTION('',(0.000029435,0.782236121,-0.622982062));
#281=VECTOR('',#280,8.444346838);
#282=LINE('',#279,#281);
#283=EDGE_CURVE('',#241,#263,#282,.T.);
#284=ORIENTED_EDGE('',*,*,#283,.T.);
#285=EDGE_LOOP('',(#271,#277,#278,#284));
#286=FACE_BOUND('',#285,.T.);
#287=ADVANCED_FACE('',(#286),#261,.T.);
#288=CARTESIAN_POINT('',(295.002577908,96.012448689,148.086995053));
#289=DIRECTION('',(-0.999999999,-0.,-0.000047249));
#290=DIRECTION('',(0.,-1.,0.));
#291=AXIS2_PLACEMENT_3D('',#288,#289,#290);
#292=PLANE('',#291);
#293=ORIENTED_EDGE('',*,*,#246,.T.);
#294=CARTESIAN_POINT('',(295.003033811,94.482354303,138.437967302));
#295=VERTEX_POINT('',#294);
#296=CARTESIAN_POINT('',(295.002156651,95.995458123,157.002766511));
#297=DIRECTION('',(0.999999999,0.,0.000047249));
#298=DIRECTION('',(0.000047249,-0.,-0.999999999));
#299=AXIS2_PLACEMENT_3D('',#296,#297,#298);
#300=CIRCLE('',#299,18.626359107);
#301=EDGE_CURVE('',#233,#295,#300,.T.);
#302=ORIENTED_EDGE('',*,*,#301,.T.);
#303=CARTESIAN_POINT('',(295.003033811,94.618506191,138.437967302));
#304=VERTEX_POINT('',#303);
#305=CARTESIAN_POINT('',(295.003033811,94.482354303,138.437967302));
#306=DIRECTION('',(-0.,1.,-0.));
#307=VECTOR('',#306,0.136151888);
#308=LINE('',#305,#307);
#309=EDGE_CURVE('',#295,#304,#308,.T.);
#310=ORIENTED_EDGE('',*,*,#309,.T.);
#311=CARTESIAN_POINT('',(295.003033811,97.372410056,138.437967302));
#312=VERTEX_POINT('',#311);
#313=CARTESIAN_POINT('',(295.002307656,95.995458123,153.806800575));
#314=DIRECTION('',(0.999999999,0.,0.000047249));
#315=DIRECTION('',(0.000047249,-0.,-0.999999999));
#316=AXIS2_PLACEMENT_3D('',#313,#314,#315);
#317=CIRCLE('',#316,15.430393168);
#318=EDGE_CURVE('',#304,#312,#317,.T.);
#319=ORIENTED_EDGE('',*,*,#318,.T.);
#320=CARTESIAN_POINT('',(295.003033811,97.508561944,138.437967302));
#321=VERTEX_POINT('',#320);
#322=CARTESIAN_POINT('',(295.003033811,97.372410056,138.437967302));
#323=DIRECTION('',(-0.,1.,-0.));
#324=VECTOR('',#323,0.136151888);
#325=LINE('',#322,#324);
#326=EDGE_CURVE('',#312,#321,#325,.T.);
#327=ORIENTED_EDGE('',*,*,#326,.T.);
#328=CARTESIAN_POINT('',(295.002739681,109.948043333,144.663130405));
#329=VERTEX_POINT('',#328);
#330=CARTESIAN_POINT('',(295.002156651,95.995458123,157.002766511));
#331=DIRECTION('',(0.999999999,0.,0.000047249));
#332=DIRECTION('',(0.000047249,-0.,-0.999999999));
#333=AXIS2_PLACEMENT_3D('',#330,#331,#332);
#334=CIRCLE('',#333,18.626359107);
#335=EDGE_CURVE('',#321,#329,#334,.T.);
#336=ORIENTED_EDGE('',*,*,#335,.T.);
#337=CARTESIAN_POINT('',(295.002739681,116.618027652,144.663130405));
#338=VERTEX_POINT('',#337);
#339=CARTESIAN_POINT('',(295.002739681,109.948043333,144.663130405));
#340=DIRECTION('',(-0.,1.,-0.));
#341=VECTOR('',#340,6.669984319);
#342=LINE('',#339,#341);
#343=EDGE_CURVE('',#329,#338,#342,.T.);
#344=ORIENTED_EDGE('',*,*,#343,.T.);
#345=CARTESIAN_POINT('',(295.00298824,110.012554534,139.4024538));
#346=VERTEX_POINT('',#345);
#347=CARTESIAN_POINT('',(295.00298824,110.012554534,139.4024538));
#348=DIRECTION('',(-0.000029435,0.782236121,0.622982062));
#349=VECTOR('',#348,8.444346838);
#350=LINE('',#347,#349);
#351=EDGE_CURVE('',#346,#338,#350,.T.);
#352=ORIENTED_EDGE('',*,*,#351,.F.);
#353=CARTESIAN_POINT('',(295.003196119,100.712448689,135.002766535));
#354=VERTEX_POINT('',#353);
#355=CARTESIAN_POINT('',(295.002156651,95.995458123,157.002766511));
#356=DIRECTION('',(-0.999999999,-0.,-0.000047249));
#357=DIRECTION('',(0.000047249,-0.,-0.999999999));
#358=AXIS2_PLACEMENT_3D('',#355,#356,#357);
#359=CIRCLE('',#358,22.5);
#360=EDGE_CURVE('',#346,#354,#359,.T.);
#361=ORIENTED_EDGE('',*,*,#360,.T.);
#362=CARTESIAN_POINT('',(295.003196462,91.312448689,134.995508127));
#363=VERTEX_POINT('',#362);
#364=CARTESIAN_POINT('',(295.003196462,91.312448689,134.995508127));
#365=DIRECTION('',(-0.000000036,0.999999702,0.000772171));
#366=VECTOR('',#365,9.400002802);
#367=LINE('',#364,#366);
#368=EDGE_CURVE('',#363,#354,#367,.T.);
#369=ORIENTED_EDGE('',*,*,#368,.F.);
#370=CARTESIAN_POINT('',(295.002156651,95.995458123,157.002766511));
#371=DIRECTION('',(-0.999999999,-0.,-0.000047249));
#372=DIRECTION('',(0.000047249,-0.,-0.999999999));
#373=AXIS2_PLACEMENT_3D('',#370,#371,#372);
#374=CIRCLE('',#373,22.5);
#375=EDGE_CURVE('',#363,#263,#374,.T.);
#376=ORIENTED_EDGE('',*,*,#375,.T.);
#377=ORIENTED_EDGE('',*,*,#283,.F.);
#378=EDGE_LOOP('',(#293,#302,#310,#319,#327,#336,#344,#352,#361,#369,#376,#377));
#379=FACE_BOUND('',#378,.T.);
#380=ADVANCED_FACE('',(#379),#292,.T.);
#381=CARTESIAN_POINT('',(300.002156645,95.995458123,157.003002753));
#382=DIRECTION('',(-0.999999999,-0.,-0.000047249));
#383=DIRECTION('',(0.,-1.,0.));
#384=AXIS2_PLACEMENT_3D('',#381,#382,#383);
#385=CYLINDRICAL_SURFACE('',#384,22.5);
#386=CARTESIAN_POINT('',(5.003196786,91.312448689,134.981806042));
#387=VERTEX_POINT('',#386);
#388=CARTESIAN_POINT('',(295.003196462,91.312448689,134.995508127));
#389=DIRECTION('',(-0.999999999,-0.,-0.000047249));
#390=VECTOR('',#389,290.);
#391=LINE('',#388,#390);
#392=EDGE_CURVE('',#363,#387,#391,.T.);
#393=ORIENTED_EDGE('',*,*,#392,.T.);
#394=CARTESIAN_POINT('',(5.002156975,95.995458123,156.989064425));
#395=DIRECTION('',(-0.999999999,-0.,-0.000047249));
#396=DIRECTION('',(0.000047249,-0.,-0.999999999));
#397=AXIS2_PLACEMENT_3D('',#394,#395,#396);
#398=CIRCLE('',#397,22.5);
#399=EDGE_CURVE('',#387,#265,#398,.T.);
#400=ORIENTED_EDGE('',*,*,#399,.T.);
#401=ORIENTED_EDGE('',*,*,#270,.F.);
#402=ORIENTED_EDGE('',*,*,#375,.F.);
#403=EDGE_LOOP('',(#393,#400,#401,#402));
#404=FACE_BOUND('',#403,.T.);
#405=ADVANCED_FACE('',(#404),#385,.F.);
#406=CARTESIAN_POINT('',(5.002578232,96.012448689,148.073292968));
#407=DIRECTION('',(-0.999999999,-0.,-0.000047249));
#408=DIRECTION('',(0.,-1.,0.));
#409=AXIS2_PLACEMENT_3D('',#406,#407,#408);
#410=PLANE('',#409);
#411=ORIENTED_EDGE('',*,*,#399,.F.);
#412=CARTESIAN_POINT('',(5.003196443,100.712448689,134.98906445));
#413=VERTEX_POINT('',#412);
#414=CARTESIAN_POINT('',(5.003196786,91.312448689,134.981806042));
#415=DIRECTION('',(-0.000000036,0.999999702,0.000772171));
#416=VECTOR('',#415,9.400002802);
#417=LINE('',#414,#416);
#418=EDGE_CURVE('',#387,#413,#417,.T.);
#419=ORIENTED_EDGE('',*,*,#418,.T.);
#420=CARTESIAN_POINT('',(5.002988564,110.012554534,139.388751715));
#421=VERTEX_POINT('',#420);
#422=CARTESIAN_POINT('',(5.002156975,95.995458123,156.989064425));
#423=DIRECTION('',(-0.999999999,-0.,-0.000047249));
#424=DIRECTION('',(0.000047249,-0.,-0.999999999));
#425=AXIS2_PLACEMENT_3D('',#422,#423,#424);
#426=CIRCLE('',#425,22.5);
#427=EDGE_CURVE('',#421,#413,#426,.T.);
#428=ORIENTED_EDGE('',*,*,#427,.F.);
#429=CARTESIAN_POINT('',(5.002740005,116.618027652,144.64942832));
#430=VERTEX_POINT('',#429);
#431=CARTESIAN_POINT('',(5.002988564,110.012554534,139.388751715));
#432=DIRECTION('',(-0.000029435,0.782236121,0.622982062));
#433=VECTOR('',#432,8.444346838);
#434=LINE('',#431,#433);
#435=EDGE_CURVE('',#421,#430,#434,.T.);
#436=ORIENTED_EDGE('',*,*,#435,.T.);
#437=CARTESIAN_POINT('',(5.002740005,109.948043333,144.64942832));
#438=VERTEX_POINT('',#437);
#439=CARTESIAN_POINT('',(5.002740005,109.948043333,144.64942832));
#440=DIRECTION('',(0.,1.,-0.));
#441=VECTOR('',#440,6.669984319);
#442=LINE('',#439,#441);
#443=EDGE_CURVE('',#438,#430,#442,.T.);
#444=ORIENTED_EDGE('',*,*,#443,.F.);
#445=CARTESIAN_POINT('',(5.003034135,97.508561944,138.424265217));
#446=VERTEX_POINT('',#445);
#447=CARTESIAN_POINT('',(5.002156975,95.995458123,156.989064425));
#448=DIRECTION('',(0.999999999,0.,0.000047249));
#449=DIRECTION('',(0.000047249,-0.,-0.999999999));
#450=AXIS2_PLACEMENT_3D('',#447,#448,#449);
#451=CIRCLE('',#450,18.626359107);
#452=EDGE_CURVE('',#446,#438,#451,.T.);
#453=ORIENTED_EDGE('',*,*,#452,.F.);
#454=CARTESIAN_POINT('',(5.003034135,97.372410056,138.424265217));
#455=VERTEX_POINT('',#454);
#456=CARTESIAN_POINT('',(5.003034135,97.372410056,138.424265217));
#457=DIRECTION('',(0.,1.,-0.));
#458=VECTOR('',#457,0.136151888);
#459=LINE('',#456,#458);
#460=EDGE_CURVE('',#455,#446,#459,.T.);
#461=ORIENTED_EDGE('',*,*,#460,.F.);
#462=CARTESIAN_POINT('',(5.003034135,94.618506191,138.424265217));
#463=VERTEX_POINT('',#462);
#464=CARTESIAN_POINT('',(5.002307979,95.995458123,153.79309849));
#465=DIRECTION('',(0.999999999,0.,0.000047249));
#466=DIRECTION('',(0.000047249,-0.,-0.999999999));
#467=AXIS2_PLACEMENT_3D('',#464,#465,#466);
#468=CIRCLE('',#467,15.430393168);
#469=EDGE_CURVE('',#463,#455,#468,.T.);
#470=ORIENTED_EDGE('',*,*,#469,.F.);
#471=CARTESIAN_POINT('',(5.003034135,94.482354303,138.424265217));
#472=VERTEX_POINT('',#471);
#473=CARTESIAN_POINT('',(5.003034135,94.482354303,138.424265217));
#474=DIRECTION('',(0.,1.,-0.));
#475=VECTOR('',#474,0.136151888);
#476=LINE('',#473,#475);
#477=EDGE_CURVE('',#472,#463,#476,.T.);
#478=ORIENTED_EDGE('',*,*,#477,.F.);
#479=CARTESIAN_POINT('',(5.002156975,95.995458123,156.989064425));
#480=DIRECTION('',(0.999999999,0.,0.000047249));
#481=DIRECTION('',(0.000047249,-0.,-0.999999999));
#482=AXIS2_PLACEMENT_3D('',#479,#480,#481);
#483=CIRCLE('',#482,18.626359107);
#484=EDGE_CURVE('',#202,#472,#483,.T.);
#485=ORIENTED_EDGE('',*,*,#484,.F.);
#486=ORIENTED_EDGE('',*,*,#207,.F.);
#487=ORIENTED_EDGE('',*,*,#276,.T.);
#488=EDGE_LOOP('',(#411,#419,#428,#436,#444,#453,#461,#470,#478,#485,#486,#487));
#489=FACE_BOUND('',#488,.T.);
#490=ADVANCED_FACE('',(#489),#410,.F.);
#491=CARTESIAN_POINT('',(0.00215698,95.995458123,156.988828183));
#492=DIRECTION('',(-0.999999999,-0.,-0.000047249));
#493=DIRECTION('',(0.,-1.,0.));
#494=AXIS2_PLACEMENT_3D('',#491,#492,#493);
#495=CYLINDRICAL_SURFACE('',#494,18.626359107);
#496=ORIENTED_EDGE('',*,*,#215,.T.);
#497=ORIENTED_EDGE('',*,*,#484,.T.);
#498=CARTESIAN_POINT('',(0.00303414,94.482354303,138.424028974));
#499=VERTEX_POINT('',#498);
#500=CARTESIAN_POINT('',(0.00303414,94.482354303,138.424028974));
#501=DIRECTION('',(0.999999999,0.,0.000047249));
#502=VECTOR('',#501,5.);
#503=LINE('',#500,#502);
#504=EDGE_CURVE('',#499,#472,#503,.T.);
#505=ORIENTED_EDGE('',*,*,#504,.F.);
#506=CARTESIAN_POINT('',(0.00215698,95.995458123,156.988828183));
#507=DIRECTION('',(0.999999999,0.,0.000047249));
#508=DIRECTION('',(0.000047249,-0.,-0.999999999));
#509=AXIS2_PLACEMENT_3D('',#506,#507,#508);
#510=CIRCLE('',#509,18.626359107);
#511=EDGE_CURVE('',#210,#499,#510,.T.);
#512=ORIENTED_EDGE('',*,*,#511,.F.);
#513=EDGE_LOOP('',(#496,#497,#505,#512));
#514=FACE_BOUND('',#513,.T.);
#515=ADVANCED_FACE('',(#514),#495,.F.);
#516=CARTESIAN_POINT('',(0.002578238,96.012448689,148.073056725));
#517=DIRECTION('',(-0.999999999,-0.,-0.000047249));
#518=DIRECTION('',(0.,-1.,0.));
#519=AXIS2_PLACEMENT_3D('',#516,#517,#518);
#520=PLANE('',#519);
#521=CARTESIAN_POINT('',(0.00363763,88.495458123,125.651373707));
#522=VERTEX_POINT('',#521);
#523=CARTESIAN_POINT('',(0.00363763,88.495458123,125.651373707));
#524=DIRECTION('',(-0.00003341,-0.707106781,0.70710678));
#525=VECTOR('',#524,26.866972425);
#526=LINE('',#523,#525);
#527=EDGE_CURVE('',#522,#218,#526,.T.);
#528=ORIENTED_EDGE('',*,*,#527,.T.);
#529=ORIENTED_EDGE('',*,*,#223,.T.);
#530=ORIENTED_EDGE('',*,*,#511,.T.);
#531=CARTESIAN_POINT('',(0.00303414,94.618506191,138.424028974));
#532=VERTEX_POINT('',#531);
#533=CARTESIAN_POINT('',(0.00303414,94.482354303,138.424028974));
#534=DIRECTION('',(-0.,1.,-0.));
#535=VECTOR('',#534,0.136151888);
#536=LINE('',#533,#535);
#537=EDGE_CURVE('',#499,#532,#536,.T.);
#538=ORIENTED_EDGE('',*,*,#537,.T.);
#539=CARTESIAN_POINT('',(0.00303414,97.372410056,138.424028974));
#540=VERTEX_POINT('',#539);
#541=CARTESIAN_POINT('',(0.002307985,95.995458123,153.792862247));
#542=DIRECTION('',(0.999999999,0.,0.000047249));
#543=DIRECTION('',(0.000047249,-0.,-0.999999999));
#544=AXIS2_PLACEMENT_3D('',#541,#542,#543);
#545=CIRCLE('',#544,15.430393168);
#546=EDGE_CURVE('',#532,#540,#545,.T.);
#547=ORIENTED_EDGE('',*,*,#546,.T.);
#548=CARTESIAN_POINT('',(0.00303414,97.508561944,138.424028974));
#549=VERTEX_POINT('',#548);
#550=CARTESIAN_POINT('',(0.00303414,97.372410056,138.424028974));
#551=DIRECTION('',(-0.,1.,-0.));
#552=VECTOR('',#551,0.136151888);
#553=LINE('',#550,#552);
#554=EDGE_CURVE('',#540,#549,#553,.T.);
#555=ORIENTED_EDGE('',*,*,#554,.T.);
#556=CARTESIAN_POINT('',(0.00274001,109.948043333,144.649192077));
#557=VERTEX_POINT('',#556);
#558=CARTESIAN_POINT('',(0.00215698,95.995458123,156.988828183));
#559=DIRECTION('',(0.999999999,0.,0.000047249));
#560=DIRECTION('',(0.000047249,-0.,-0.999999999));
#561=AXIS2_PLACEMENT_3D('',#558,#559,#560);
#562=CIRCLE('',#561,18.626359107);
#563=EDGE_CURVE('',#549,#557,#562,.T.);
#564=ORIENTED_EDGE('',*,*,#563,.T.);
#565=CARTESIAN_POINT('',(0.00274001,122.493276515,144.649192077));
#566=VERTEX_POINT('',#565);
#567=CARTESIAN_POINT('',(0.00274001,109.948043333,144.649192077));
#568=DIRECTION('',(-0.,1.,-0.));
#569=VECTOR('',#568,12.545233182);
#570=LINE('',#567,#569);
#571=EDGE_CURVE('',#557,#566,#570,.T.);
#572=ORIENTED_EDGE('',*,*,#571,.T.);
#573=CARTESIAN_POINT('',(0.00363763,103.495458123,125.651373707));
#574=VERTEX_POINT('',#573);
#575=CARTESIAN_POINT('',(0.00274001,122.493276515,144.649192077));
#576=DIRECTION('',(0.00003341,-0.707106781,-0.70710678));
#577=VECTOR('',#576,26.866972425);
#578=LINE('',#575,#577);
#579=EDGE_CURVE('',#566,#574,#578,.T.);
#580=ORIENTED_EDGE('',*,*,#579,.T.);
#581=CARTESIAN_POINT('',(0.00382662,99.522968307,121.651468313));
#582=VERTEX_POINT('',#581);
#583=CARTESIAN_POINT('',(0.00382662,103.522968307,121.651468313));
#584=DIRECTION('',(0.999999999,0.,0.000047249));
#585=DIRECTION('',(-0.000047249,0.,0.999999999));
#586=AXIS2_PLACEMENT_3D('',#583,#584,#585);
#587=CIRCLE('',#586,4.);
#588=EDGE_CURVE('',#574,#582,#587,.T.);
#589=ORIENTED_EDGE('',*,*,#588,.T.);
#590=CARTESIAN_POINT('',(0.003991994,99.522968307,118.151373715));
#591=VERTEX_POINT('',#590);
#592=CARTESIAN_POINT('',(0.00382662,99.522968307,121.651468313));
#593=DIRECTION('',(0.000047249,-0.,-0.999999999));
#594=VECTOR('',#593,3.500094602);
#595=LINE('',#592,#594);
#596=EDGE_CURVE('',#582,#591,#595,.T.);
#597=ORIENTED_EDGE('',*,*,#596,.T.);
#598=CARTESIAN_POINT('',(0.003991994,92.625209012,118.151373715));
#599=VERTEX_POINT('',#598);
#600=CARTESIAN_POINT('',(0.003991994,92.625209012,118.151373715));
#601=DIRECTION('',(0.,1.,-0.));
#602=VECTOR('',#601,6.897759295);
#603=LINE('',#600,#602);
#604=EDGE_CURVE('',#599,#591,#603,.T.);
#605=ORIENTED_EDGE('',*,*,#604,.F.);
#606=CARTESIAN_POINT('',(0.003826624,92.625209012,121.651373711));
#607=VERTEX_POINT('',#606);
#608=CARTESIAN_POINT('',(0.003826624,92.625209012,121.651373711));
#609=DIRECTION('',(0.000047249,-0.,-0.999999999));
#610=VECTOR('',#609,3.5);
#611=LINE('',#608,#610);
#612=EDGE_CURVE('',#607,#599,#611,.T.);
#613=ORIENTED_EDGE('',*,*,#612,.F.);
#614=CARTESIAN_POINT('',(0.00363763,88.625209012,125.651373707));
#615=VERTEX_POINT('',#614);
#616=CARTESIAN_POINT('',(0.003826624,88.625209012,121.651373711));
#617=DIRECTION('',(0.999999999,0.,0.000047249));
#618=DIRECTION('',(0.000047249,-0.,-0.999999999));
#619=AXIS2_PLACEMENT_3D('',#616,#617,#618);
#620=CIRCLE('',#619,4.);
#621=EDGE_CURVE('',#607,#615,#620,.T.);
#622=ORIENTED_EDGE('',*,*,#621,.T.);
#623=CARTESIAN_POINT('',(0.00363763,88.625209012,125.651373707));
#624=DIRECTION('',(0.,-1.,0.));
#625=VECTOR('',#624,0.129750888);
#626=LINE('',#623,#625);
#627=EDGE_CURVE('',#615,#522,#626,.T.);
#628=ORIENTED_EDGE('',*,*,#627,.T.);
#629=EDGE_LOOP('',(#528,#529,#530,#538,#547,#555,#564,#572,#580,#589,#597,#605,#613,#622,#628));
#630=FACE_BOUND('',#629,.T.);
#631=CARTESIAN_POINT('',(0.003600994,101.340047384,126.426759164));
#632=VERTEX_POINT('',#631);
#633=CARTESIAN_POINT('',(0.003600994,90.65402761,126.426759164));
#634=VERTEX_POINT('',#633);
#635=CARTESIAN_POINT('',(0.003600994,101.340047384,126.426759164));
#636=DIRECTION('',(0.,-1.,0.));
#637=VECTOR('',#636,10.686019774);
#638=LINE('',#635,#637);
#639=EDGE_CURVE('',#632,#634,#638,.T.);
#640=ORIENTED_EDGE('',*,*,#639,.F.);
#641=CARTESIAN_POINT('',(0.003482873,101.340047384,128.926759161));
#642=VERTEX_POINT('',#641);
#643=CARTESIAN_POINT('',(0.003482873,101.340047384,128.926759161));
#644=DIRECTION('',(0.000047249,-0.,-0.999999999));
#645=VECTOR('',#644,2.5);
#646=LINE('',#643,#645);
#647=EDGE_CURVE('',#642,#632,#646,.T.);
#648=ORIENTED_EDGE('',*,*,#647,.F.);
#649=CARTESIAN_POINT('',(0.003482873,90.65402761,128.926759161));
#650=VERTEX_POINT('',#649);
#651=CARTESIAN_POINT('',(0.003482873,90.65402761,128.926759161));
#652=DIRECTION('',(0.,1.,-0.));
#653=VECTOR('',#652,10.686019774);
#654=LINE('',#651,#653);
#655=EDGE_CURVE('',#650,#642,#654,.T.);
#656=ORIENTED_EDGE('',*,*,#655,.F.);
#657=CARTESIAN_POINT('',(0.003600994,90.65402761,126.426759164));
#658=DIRECTION('',(-0.000047249,0.,0.999999999));
#659=VECTOR('',#658,2.5);
#660=LINE('',#657,#659);
#661=EDGE_CURVE('',#634,#650,#660,.T.);
#662=ORIENTED_EDGE('',*,*,#661,.F.);
#663=EDGE_LOOP('',(#640,#648,#656,#662));
#664=FACE_BOUND('',#663,.T.);
#665=ADVANCED_FACE('',(#630,#664),#520,.T.);
#666=CARTESIAN_POINT('',(0.003600994,90.65402761,126.426759164));
#667=DIRECTION('',(-0.,-1.,0.));
#668=DIRECTION('',(-0.000047249,0.,0.999999999));
#669=AXIS2_PLACEMENT_3D('',#666,#667,#668);
#670=PLANE('',#669);
#671=CARTESIAN_POINT('',(45.003482823,90.65402761,128.928885347));
#672=VERTEX_POINT('',#671);
#673=CARTESIAN_POINT('',(0.003482873,90.65402761,128.926759161));
#674=DIRECTION('',(0.999999999,0.,0.000047249));
#675=VECTOR('',#674,45.);
#676=LINE('',#673,#675);
#677=EDGE_CURVE('',#650,#672,#676,.T.);
#678=ORIENTED_EDGE('',*,*,#677,.T.);
#679=CARTESIAN_POINT('',(45.003600944,90.65402761,126.42888535));
#680=VERTEX_POINT('',#679);
#681=CARTESIAN_POINT('',(45.003600944,90.65402761,126.42888535));
#682=DIRECTION('',(-0.000047249,0.,0.999999999));
#683=VECTOR('',#682,2.5);
#684=LINE('',#681,#683);
#685=EDGE_CURVE('',#680,#672,#684,.T.);
#686=ORIENTED_EDGE('',*,*,#685,.F.);
#687=CARTESIAN_POINT('',(0.003600994,90.65402761,126.426759164));
#688=DIRECTION('',(0.999999999,0.,0.000047249));
#689=VECTOR('',#688,45.);
#690=LINE('',#687,#689);
#691=EDGE_CURVE('',#634,#680,#690,.T.);
#692=ORIENTED_EDGE('',*,*,#691,.F.);
#693=ORIENTED_EDGE('',*,*,#661,.T.);
#694=EDGE_LOOP('',(#678,#686,#692,#693));
#695=FACE_BOUND('',#694,.T.);
#696=ADVANCED_FACE('',(#695),#670,.F.);
#697=CARTESIAN_POINT('',(0.003600994,101.340047384,126.426759164));
#698=DIRECTION('',(0.000047249,-0.,-0.999999999));
#699=DIRECTION('',(0.,-1.,0.));
#700=AXIS2_PLACEMENT_3D('',#697,#698,#699);
#701=PLANE('',#700);
#702=ORIENTED_EDGE('',*,*,#691,.T.);
#703=CARTESIAN_POINT('',(45.003600944,101.340047384,126.42888535));
#704=VERTEX_POINT('',#703);
#705=CARTESIAN_POINT('',(45.003600944,101.340047384,126.42888535));
#706=DIRECTION('',(0.,-1.,0.));
#707=VECTOR('',#706,10.686019774);
#708=LINE('',#705,#707);
#709=EDGE_CURVE('',#704,#680,#708,.T.);
#710=ORIENTED_EDGE('',*,*,#709,.F.);
#711=CARTESIAN_POINT('',(0.003600994,101.340047384,126.426759164));
#712=DIRECTION('',(0.999999999,0.,0.000047249));
#713=VECTOR('',#712,45.);
#714=LINE('',#711,#713);
#715=EDGE_CURVE('',#632,#704,#714,.T.);
#716=ORIENTED_EDGE('',*,*,#715,.F.);
#717=ORIENTED_EDGE('',*,*,#639,.T.);
#718=EDGE_LOOP('',(#702,#710,#716,#717));
#719=FACE_BOUND('',#718,.T.);
#720=ADVANCED_FACE('',(#719),#701,.F.);
#721=CARTESIAN_POINT('',(0.003482873,101.340047384,128.926759161));
#722=DIRECTION('',(0.,1.,-0.));
#723=DIRECTION('',(0.000047249,-0.,-0.999999999));
#724=AXIS2_PLACEMENT_3D('',#721,#722,#723);
#725=PLANE('',#724);
#726=ORIENTED_EDGE('',*,*,#715,.T.);
#727=CARTESIAN_POINT('',(45.003482823,101.340047384,128.928885347));
#728=VERTEX_POINT('',#727);
#729=CARTESIAN_POINT('',(45.003482823,101.340047384,128.928885347));
#730=DIRECTION('',(0.000047249,-0.,-0.999999999));
#731=VECTOR('',#730,2.5);
#732=LINE('',#729,#731);
#733=EDGE_CURVE('',#728,#704,#732,.T.);
#734=ORIENTED_EDGE('',*,*,#733,.F.);
#735=CARTESIAN_POINT('',(0.003482873,101.340047384,128.926759161));
#736=DIRECTION('',(0.999999999,0.,0.000047249));
#737=VECTOR('',#736,45.);
#738=LINE('',#735,#737);
#739=EDGE_CURVE('',#642,#728,#738,.T.);
#740=ORIENTED_EDGE('',*,*,#739,.F.);
#741=ORIENTED_EDGE('',*,*,#647,.T.);
#742=EDGE_LOOP('',(#726,#734,#740,#741));
#743=FACE_BOUND('',#742,.T.);
#744=ADVANCED_FACE('',(#743),#725,.F.);
#745=CARTESIAN_POINT('',(0.003482873,90.65402761,128.926759161));
#746=DIRECTION('',(-0.000047249,0.,0.999999999));
#747=DIRECTION('',(0.,1.,-0.));
#748=AXIS2_PLACEMENT_3D('',#745,#746,#747);
#749=PLANE('',#748);
#750=ORIENTED_EDGE('',*,*,#739,.T.);
#751=CARTESIAN_POINT('',(45.003482823,90.65402761,128.928885347));
#752=DIRECTION('',(0.,1.,-0.));
#753=VECTOR('',#752,10.686019774);
#754=LINE('',#751,#753);
#755=EDGE_CURVE('',#672,#728,#754,.T.);
#756=ORIENTED_EDGE('',*,*,#755,.F.);
#757=ORIENTED_EDGE('',*,*,#677,.F.);
#758=ORIENTED_EDGE('',*,*,#655,.T.);
#759=EDGE_LOOP('',(#750,#756,#757,#758));
#760=FACE_BOUND('',#759,.T.);
#761=ADVANCED_FACE('',(#760),#749,.F.);
#762=CARTESIAN_POINT('',(45.002578187,96.012448689,148.075182911));
#763=DIRECTION('',(-0.999999999,-0.,-0.000047249));
#764=DIRECTION('',(0.,-1.,0.));
#765=AXIS2_PLACEMENT_3D('',#762,#763,#764);
#766=PLANE('',#765);
#767=ORIENTED_EDGE('',*,*,#755,.T.);
#768=ORIENTED_EDGE('',*,*,#733,.T.);
#769=ORIENTED_EDGE('',*,*,#709,.T.);
#770=ORIENTED_EDGE('',*,*,#685,.T.);
#771=EDGE_LOOP('',(#767,#768,#769,#770));
#772=FACE_BOUND('',#771,.T.);
#773=ADVANCED_FACE('',(#772),#766,.T.);
#774=CARTESIAN_POINT('',(300.003637295,103.495458123,125.665548277));
#775=DIRECTION('',(0.000047249,-0.,-0.999999999));
#776=DIRECTION('',(0.,-1.,0.));
#777=AXIS2_PLACEMENT_3D('',#774,#775,#776);
#778=PLANE('',#777);
#779=CARTESIAN_POINT('',(281.003637316,103.495458123,125.664650555));
#780=VERTEX_POINT('',#779);
#781=CARTESIAN_POINT('',(19.003637609,103.495458123,125.652271429));
#782=VERTEX_POINT('',#781);
#783=CARTESIAN_POINT('',(281.003637316,103.495458123,125.664650555));
#784=DIRECTION('',(-0.999999999,-0.,-0.000047249));
#785=VECTOR('',#784,262.);
#786=LINE('',#783,#785);
#787=EDGE_CURVE('',#780,#782,#786,.T.);
#788=ORIENTED_EDGE('',*,*,#787,.F.);
#789=CARTESIAN_POINT('',(281.003637316,88.625209012,125.664650555));
#790=VERTEX_POINT('',#789);
#791=CARTESIAN_POINT('',(281.003637316,88.625209012,125.664650555));
#792=DIRECTION('',(0.,1.,-0.));
#793=VECTOR('',#792,14.870249111);
#794=LINE('',#791,#793);
#795=EDGE_CURVE('',#790,#780,#794,.T.);
#796=ORIENTED_EDGE('',*,*,#795,.F.);
#797=CARTESIAN_POINT('',(300.003637295,88.625209012,125.665548277));
#798=DIRECTION('',(-0.999999999,-0.,-0.000047249));
#799=VECTOR('',#798,19.);
#800=LINE('',#797,#799);
#801=EDGE_CURVE('',#43,#790,#800,.T.);
#802=ORIENTED_EDGE('',*,*,#801,.F.);
#803=ORIENTED_EDGE('',*,*,#48,.T.);
#804=CARTESIAN_POINT('',(300.003637295,88.495458123,125.665548277));
#805=DIRECTION('',(-0.999999999,-0.,-0.000047249));
#806=VECTOR('',#805,300.);
#807=LINE('',#804,#806);
#808=EDGE_CURVE('',#33,#522,#807,.T.);
#809=ORIENTED_EDGE('',*,*,#808,.T.);
#810=ORIENTED_EDGE('',*,*,#627,.F.);
#811=CARTESIAN_POINT('',(19.003637609,88.625209012,125.652271429));
#812=VERTEX_POINT('',#811);
#813=CARTESIAN_POINT('',(0.00363763,88.625209012,125.651373707));
#814=DIRECTION('',(0.999999999,0.,0.000047249));
#815=VECTOR('',#814,19.);
#816=LINE('',#813,#815);
#817=EDGE_CURVE('',#615,#812,#816,.T.);
#818=ORIENTED_EDGE('',*,*,#817,.T.);
#819=CARTESIAN_POINT('',(19.003637609,88.625209012,125.652271429));
#820=DIRECTION('',(-0.,1.,-0.));
#821=VECTOR('',#820,14.870249111);
#822=LINE('',#819,#821);
#823=EDGE_CURVE('',#812,#782,#822,.T.);
#824=ORIENTED_EDGE('',*,*,#823,.T.);
#825=EDGE_LOOP('',(#788,#796,#802,#803,#809,#810,#818,#824));
#826=FACE_BOUND('',#825,.T.);
#827=ADVANCED_FACE('',(#826),#778,.T.);
#828=CARTESIAN_POINT('',(19.003826603,0.41252762,121.652271434));
#829=DIRECTION('',(-0.,1.,-0.));
#830=DIRECTION('',(-0.999999999,-0.,-0.000047249));
#831=AXIS2_PLACEMENT_3D('',#828,#829,#830);
#832=CYLINDRICAL_SURFACE('',#831,4.);
#833=CARTESIAN_POINT('',(15.003826606,99.522968307,121.652117915));
#834=VERTEX_POINT('',#833);
#835=CARTESIAN_POINT('',(19.003637609,103.495458123,125.652271429));
#836=CARTESIAN_POINT('',(18.993477418,103.495458123,125.652270949));
#837=CARTESIAN_POINT('',(18.984496085,103.48995698,125.652233027));
#838=CARTESIAN_POINT('',(18.976346055,103.484217542,125.652177035));
#839=CARTESIAN_POINT('',(18.968196026,103.478478105,125.652121044));
#840=CARTESIAN_POINT('',(18.960565845,103.471986328,125.652044492));
#841=CARTESIAN_POINT('',(18.953081652,103.465412629,125.65194954));
#842=CARTESIAN_POINT('',(18.938113266,103.45226523,125.651759634));
#843=CARTESIAN_POINT('',(18.923693672,103.438520038,125.651494529));
#844=CARTESIAN_POINT('',(18.90932225,103.424723731,125.651154894));
#845=CARTESIAN_POINT('',(18.880579405,103.397131116,125.650475624));
#846=CARTESIAN_POINT('',(18.852222187,103.369135328,125.649497958));
#847=CARTESIAN_POINT('',(18.823899632,103.341139115,125.64822267));
#848=CARTESIAN_POINT('',(18.767254521,103.28514669,125.645672094));
#849=CARTESIAN_POINT('',(18.710882887,103.228960107,125.641930684));
#850=CARTESIAN_POINT('',(18.654557202,103.172808976,125.636993618));
#851=CARTESIAN_POINT('',(18.54190583,103.060506714,125.627119486));
#852=CARTESIAN_POINT('',(18.429661015,102.948354979,125.612464573));
#853=CARTESIAN_POINT('',(18.318215918,102.837000128,125.593075665));
#854=CARTESIAN_POINT('',(18.095325726,102.614290426,125.55429785));
#855=CARTESIAN_POINT('',(17.875089887,102.39410022,125.496655962));
#856=CARTESIAN_POINT('',(17.657609125,102.176664096,125.418927577));
#857=CARTESIAN_POINT('',(17.440128363,101.959227973,125.341199192));
#858=CARTESIAN_POINT('',(17.224506541,101.743629651,125.242704771));
#859=CARTESIAN_POINT('',(17.016945067,101.536085497,125.12391395));
#860=CARTESIAN_POINT('',(16.809383593,101.328541343,125.00512313));
#861=CARTESIAN_POINT('',(16.608822311,101.127990055,124.865924436));
#862=CARTESIAN_POINT('',(16.416472418,100.935646714,124.702779313));
#863=CARTESIAN_POINT('',(16.031772632,100.550960032,124.376489068));
#864=CARTESIAN_POINT('',(15.681993808,100.20118008,123.955356557));
#865=CARTESIAN_POINT('',(15.422694565,99.94187339,123.434262826));
#866=CARTESIAN_POINT('',(15.293044943,99.812220046,123.173715961));
#867=CARTESIAN_POINT('',(15.188542195,99.707711926,122.89379775));
#868=CARTESIAN_POINT('',(15.115256167,99.634419361,122.589832079));
#869=CARTESIAN_POINT('',(15.041970139,99.561126796,122.285866408));
#870=CARTESIAN_POINT('',(15.003814309,99.522963571,121.972521387));
#871=CARTESIAN_POINT('',(15.003826606,99.522968308,121.652117915));
#872=B_SPLINE_CURVE_WITH_KNOTS('',3,(#835,#836,#837,#838,#839,#840,#841,#842,#843,#844,#845,#846,#847,#848,#849,#850,#851,#852,#853,#854,#855,#856,#857,#858,#859,#860,
#861,#862,#863,#864,#865,#866,#867,#868,#869,#870,#871),.UNSPECIFIED.,.F.,.F.,(4,3,3,3,3,3,3,3,3,3,3,3,4),(0.,0.000029938,0.000059875,0.00011975,0.0002395,0.000479001,0.000958001,0.001916002,0.002874004,0.003832005,0.005748007,0.006706008,0.00766401),.UNSPECIFIED.);
#873=EDGE_CURVE('',#782,#834,#872,.T.);
#874=ORIENTED_EDGE('',*,*,#873,.F.);
#875=ORIENTED_EDGE('',*,*,#823,.F.);
#876=CARTESIAN_POINT('',(15.003826608,92.625209012,121.65208244));
#877=VERTEX_POINT('',#876);
#878=CARTESIAN_POINT('',(19.003826603,88.625209012,121.652271434));
#879=DIRECTION('',(0.70710678,0.707106781,0.00003341));
#880=DIRECTION('',(-0.70710678,0.707106781,-0.00003341));
#881=AXIS2_PLACEMENT_3D('',#878,#879,#880);
#882=ELLIPSE('',#881,5.656854249,4.);
#883=EDGE_CURVE('',#877,#812,#882,.T.);
#884=ORIENTED_EDGE('',*,*,#883,.F.);
#885=CARTESIAN_POINT('',(15.003826608,92.625209012,121.65208244));
#886=CARTESIAN_POINT('',(15.003826607,94.92446211,121.652090323));
#887=CARTESIAN_POINT('',(15.003826607,97.223715209,121.652098207));
#888=CARTESIAN_POINT('',(15.003826607,99.522968307,121.65210609));
#889=B_SPLINE_CURVE_WITH_KNOTS('',3,(#885,#886,#887,#888),.UNSPECIFIED.,.F.,.F.,(4,4),(0.,1.),.UNSPECIFIED.);
#890=EDGE_CURVE('',#877,#834,#889,.T.);
#891=ORIENTED_EDGE('',*,*,#890,.T.);
#892=EDGE_LOOP('',(#874,#875,#884,#891));
#893=FACE_BOUND('',#892,.T.);
#894=ADVANCED_FACE('',(#893),#832,.F.);
#895=CARTESIAN_POINT('',(15.003637613,92.625209012,125.652082435));
#896=DIRECTION('',(-0.999999999,-0.,-0.000047249));
#897=DIRECTION('',(0.,1.,-0.));
#898=AXIS2_PLACEMENT_3D('',#895,#896,#897);
#899=PLANE('',#898);
#900=CARTESIAN_POINT('',(15.003991978,92.625209012,118.152082443));
#901=VERTEX_POINT('',#900);
#902=CARTESIAN_POINT('',(15.003826608,92.625209012,121.65208244));
#903=DIRECTION('',(0.000047249,-0.,-0.999999999));
#904=VECTOR('',#903,3.5);
#905=LINE('',#902,#904);
#906=EDGE_CURVE('',#877,#901,#905,.T.);
#907=ORIENTED_EDGE('',*,*,#906,.T.);
#908=CARTESIAN_POINT('',(15.003991978,99.522968307,118.152082443));
#909=VERTEX_POINT('',#908);
#910=CARTESIAN_POINT('',(15.003991978,99.522968307,118.152082443));
#911=DIRECTION('',(-0.,-1.,0.));
#912=VECTOR('',#911,6.897759295);
#913=LINE('',#910,#912);
#914=EDGE_CURVE('',#909,#901,#913,.T.);
#915=ORIENTED_EDGE('',*,*,#914,.F.);
#916=CARTESIAN_POINT('',(15.003826605,99.522968307,121.652129741));
#917=DIRECTION('',(0.000047249,-0.,-0.999999999));
#918=VECTOR('',#917,3.500047301);
#919=LINE('',#916,#918);
#920=EDGE_CURVE('',#834,#909,#919,.T.);
#921=ORIENTED_EDGE('',*,*,#920,.F.);
#922=ORIENTED_EDGE('',*,*,#890,.F.);
#923=EDGE_LOOP('',(#907,#915,#921,#922));
#924=FACE_BOUND('',#923,.T.);
#925=ADVANCED_FACE('',(#924),#899,.F.);
#926=CARTESIAN_POINT('',(15.003637613,99.522968307,125.652082435));
#927=DIRECTION('',(0.,-1.,0.));
#928=DIRECTION('',(-0.999999999,-0.,-0.000047249));
#929=AXIS2_PLACEMENT_3D('',#926,#927,#928);
#930=PLANE('',#929);
#931=CARTESIAN_POINT('',(7.50434635,99.522968307,110.651728088));
#932=VERTEX_POINT('',#931);
#933=CARTESIAN_POINT('',(7.503991986,99.522968307,118.151728079));
#934=DIRECTION('',(-0.,-1.,0.));
#935=DIRECTION('',(0.000047249,-0.,-0.999999999));
#936=AXIS2_PLACEMENT_3D('',#933,#934,#935);
#937=CIRCLE('',#936,7.5);
#938=EDGE_CURVE('',#932,#909,#937,.T.);
#939=ORIENTED_EDGE('',*,*,#938,.F.);
#940=CARTESIAN_POINT('',(7.503991986,99.522968307,118.151728079));
#941=DIRECTION('',(-0.,-1.,0.));
#942=DIRECTION('',(0.000047249,-0.,-0.999999999));
#943=AXIS2_PLACEMENT_3D('',#940,#941,#942);
#944=CIRCLE('',#943,7.5);
#945=EDGE_CURVE('',#591,#932,#944,.T.);
#946=ORIENTED_EDGE('',*,*,#945,.F.);
#947=ORIENTED_EDGE('',*,*,#596,.F.);
#948=CARTESIAN_POINT('',(0.00382662,99.522968307,121.651468313));
#949=DIRECTION('',(0.999999999,0.,0.000044095));
#950=VECTOR('',#949,15.);
#951=LINE('',#948,#950);
#952=EDGE_CURVE('',#582,#834,#951,.T.);
#953=ORIENTED_EDGE('',*,*,#952,.T.);
#954=ORIENTED_EDGE('',*,*,#920,.T.);
#955=EDGE_LOOP('',(#939,#946,#947,#953,#954));
#956=FACE_BOUND('',#955,.T.);
#957=CARTESIAN_POINT('',(7.504039235,99.522968307,117.15172808));
#958=VERTEX_POINT('',#957);
#959=CARTESIAN_POINT('',(6.004110109,99.522968307,115.651657209));
#960=VERTEX_POINT('',#959);
#961=CARTESIAN_POINT('',(7.504110107,99.522968307,115.651728082));
#962=DIRECTION('',(-0.,-1.,0.));
#963=DIRECTION('',(-0.000047249,0.,0.999999999));
#964=AXIS2_PLACEMENT_3D('',#961,#962,#963);
#965=CIRCLE('',#964,1.5);
#966=EDGE_CURVE('',#958,#960,#965,.T.);
#967=ORIENTED_EDGE('',*,*,#966,.T.);
#968=CARTESIAN_POINT('',(7.504110107,99.522968307,115.651728082));
#969=DIRECTION('',(-0.,-1.,0.));
#970=DIRECTION('',(-0.000047249,0.,0.999999999));
#971=AXIS2_PLACEMENT_3D('',#968,#969,#970);
#972=CIRCLE('',#971,1.5);
#973=EDGE_CURVE('',#960,#958,#972,.T.);
#974=ORIENTED_EDGE('',*,*,#973,.T.);
#975=EDGE_LOOP('',(#967,#974));
#976=FACE_BOUND('',#975,.T.);
#977=ADVANCED_FACE('',(#956,#976),#930,.F.);
#978=CARTESIAN_POINT('',(7.504110107,99.522968307,115.651728082));
#979=DIRECTION('',(0.,-1.,0.));
#980=DIRECTION('',(-0.999999999,-0.,-0.000047249));
#981=AXIS2_PLACEMENT_3D('',#978,#979,#980);
#982=CYLINDRICAL_SURFACE('',#981,1.5);
#983=CARTESIAN_POINT('',(6.004110109,92.625209012,115.651657209));
#984=VERTEX_POINT('',#983);
#985=CARTESIAN_POINT('',(6.004110109,92.625209012,115.651657209));
#986=DIRECTION('',(-0.,1.,-0.));
#987=VECTOR('',#986,6.897759295);
#988=LINE('',#985,#987);
#989=EDGE_CURVE('',#984,#960,#988,.T.);
#990=ORIENTED_EDGE('',*,*,#989,.F.);
#991=CARTESIAN_POINT('',(7.504039235,92.625209012,117.15172808));
#992=VERTEX_POINT('',#991);
#993=CARTESIAN_POINT('',(7.504110107,92.625209012,115.651728082));
#994=DIRECTION('',(-0.,-1.,0.));
#995=DIRECTION('',(-0.000047249,0.,0.999999999));
#996=AXIS2_PLACEMENT_3D('',#993,#994,#995);
#997=CIRCLE('',#996,1.5);
#998=EDGE_CURVE('',#984,#992,#997,.T.);
#999=ORIENTED_EDGE('',*,*,#998,.T.);
#1000=CARTESIAN_POINT('',(7.504110107,92.625209012,115.651728082));
#1001=DIRECTION('',(-0.,-1.,0.));
#1002=DIRECTION('',(-0.000047249,0.,0.999999999));
#1003=AXIS2_PLACEMENT_3D('',#1000,#1001,#1002);
#1004=CIRCLE('',#1003,1.5);
#1005=EDGE_CURVE('',#992,#984,#1004,.T.);
#1006=ORIENTED_EDGE('',*,*,#1005,.T.);
#1007=ORIENTED_EDGE('',*,*,#989,.T.);
#1008=ORIENTED_EDGE('',*,*,#966,.F.);
#1009=ORIENTED_EDGE('',*,*,#973,.F.);
#1010=EDGE_LOOP('',(#990,#999,#1006,#1007,#1008,#1009));
#1011=FACE_BOUND('',#1010,.T.);
#1012=ADVANCED_FACE('',(#1011),#982,.F.);
#1013=CARTESIAN_POINT('',(0.00363763,92.625209012,125.651373707));
#1014=DIRECTION('',(-0.,1.,-0.));
#1015=DIRECTION('',(0.999999999,0.,0.000047249));
#1016=AXIS2_PLACEMENT_3D('',#1013,#1014,#1015);
#1017=PLANE('',#1016);
#1018=ORIENTED_EDGE('',*,*,#612,.T.);
#1019=CARTESIAN_POINT('',(7.50434635,92.625209012,110.651728088));
#1020=VERTEX_POINT('',#1019);
#1021=CARTESIAN_POINT('',(7.503991986,92.625209012,118.151728079));
#1022=DIRECTION('',(0.,1.,-0.));
#1023=DIRECTION('',(0.000047249,-0.,-0.999999999));
#1024=AXIS2_PLACEMENT_3D('',#1021,#1022,#1023);
#1025=CIRCLE('',#1024,7.5);
#1026=EDGE_CURVE('',#1020,#599,#1025,.T.);
#1027=ORIENTED_EDGE('',*,*,#1026,.F.);
#1028=CARTESIAN_POINT('',(7.503991986,92.625209012,118.151728079));
#1029=DIRECTION('',(0.,1.,-0.));
#1030=DIRECTION('',(0.000047249,-0.,-0.999999999));
#1031=AXIS2_PLACEMENT_3D('',#1028,#1029,#1030);
#1032=CIRCLE('',#1031,7.5);
#1033=EDGE_CURVE('',#901,#1020,#1032,.T.);
#1034=ORIENTED_EDGE('',*,*,#1033,.F.);
#1035=ORIENTED_EDGE('',*,*,#906,.F.);
#1036=CARTESIAN_POINT('',(15.003826608,92.625209012,121.65208244));
#1037=DIRECTION('',(-0.999999999,-0.,-0.000047249));
#1038=VECTOR('',#1037,15.);
#1039=LINE('',#1036,#1038);
#1040=EDGE_CURVE('',#877,#607,#1039,.T.);
#1041=ORIENTED_EDGE('',*,*,#1040,.T.);
#1042=EDGE_LOOP('',(#1018,#1027,#1034,#1035,#1041));
#1043=FACE_BOUND('',#1042,.T.);
#1044=ORIENTED_EDGE('',*,*,#998,.F.);
#1045=ORIENTED_EDGE('',*,*,#1005,.F.);
#1046=EDGE_LOOP('',(#1044,#1045));
#1047=FACE_BOUND('',#1046,.T.);
#1048=ADVANCED_FACE('',(#1043,#1047),#1017,.F.);
#1049=CARTESIAN_POINT('',(623.50656317,88.625209012,121.680833323));
#1050=DIRECTION('',(-0.999999999,-0.,-0.000047249));
#1051=DIRECTION('',(-0.000047249,0.,0.999999999));
#1052=AXIS2_PLACEMENT_3D('',#1049,#1050,#1051);
#1053=CYLINDRICAL_SURFACE('',#1052,4.);
#1054=ORIENTED_EDGE('',*,*,#621,.F.);
#1055=ORIENTED_EDGE('',*,*,#1040,.F.);
#1056=ORIENTED_EDGE('',*,*,#883,.T.);
#1057=ORIENTED_EDGE('',*,*,#817,.F.);
#1058=EDGE_LOOP('',(#1054,#1055,#1056,#1057));
#1059=FACE_BOUND('',#1058,.T.);
#1060=ADVANCED_FACE('',(#1059),#1053,.F.);
#1061=CARTESIAN_POINT('',(7.503991986,0.41252762,118.151728079));
#1062=DIRECTION('',(0.,1.,-0.));
#1063=DIRECTION('',(0.000047249,-0.,-0.999999999));
#1064=AXIS2_PLACEMENT_3D('',#1061,#1062,#1063);
#1065=CYLINDRICAL_SURFACE('',#1064,7.5);
#1066=CARTESIAN_POINT('',(7.50434635,99.522968307,110.651728088));
#1067=DIRECTION('',(-0.,-1.,0.));
#1068=VECTOR('',#1067,6.897759295);
#1069=LINE('',#1066,#1068);
#1070=EDGE_CURVE('',#932,#1020,#1069,.T.);
#1071=ORIENTED_EDGE('',*,*,#1070,.T.);
#1072=ORIENTED_EDGE('',*,*,#1026,.T.);
#1073=ORIENTED_EDGE('',*,*,#604,.T.);
#1074=ORIENTED_EDGE('',*,*,#945,.T.);
#1075=EDGE_LOOP('',(#1071,#1072,#1073,#1074));
#1076=FACE_BOUND('',#1075,.T.);
#1077=ADVANCED_FACE('',(#1076),#1065,.T.);
#1078=CARTESIAN_POINT('',(-391.350017436,103.522968307,121.632977404));
#1079=DIRECTION('',(0.999999999,0.,0.000047249));
#1080=DIRECTION('',(-0.000047247,-0.006877546,0.999976348));
#1081=AXIS2_PLACEMENT_3D('',#1078,#1079,#1080);
#1082=CYLINDRICAL_SURFACE('',#1081,4.);
#1083=ORIENTED_EDGE('',*,*,#588,.F.);
#1084=CARTESIAN_POINT('',(19.003637609,103.495458123,125.652271429));
#1085=DIRECTION('',(-0.999999999,-0.,-0.000047249));
#1086=VECTOR('',#1085,19.);
#1087=LINE('',#1084,#1086);
#1088=EDGE_CURVE('',#782,#574,#1087,.T.);
#1089=ORIENTED_EDGE('',*,*,#1088,.F.);
#1090=ORIENTED_EDGE('',*,*,#873,.T.);
#1091=ORIENTED_EDGE('',*,*,#952,.F.);
#1092=EDGE_LOOP('',(#1083,#1089,#1090,#1091));
#1093=FACE_BOUND('',#1092,.T.);
#1094=ADVANCED_FACE('',(#1093),#1082,.F.);
#1095=CARTESIAN_POINT('',(300.002739675,122.493276515,144.663366648));
#1096=DIRECTION('',(0.00003341,0.707106781,-0.70710678));
#1097=DIRECTION('',(0.00003341,-0.707106781,-0.70710678));
#1098=AXIS2_PLACEMENT_3D('',#1095,#1096,#1097);
#1099=PLANE('',#1098);
#1100=ORIENTED_EDGE('',*,*,#579,.F.);
#1101=CARTESIAN_POINT('',(300.002739675,122.493276515,144.663366648));
#1102=DIRECTION('',(-0.999999999,-0.,-0.000047249));
#1103=VECTOR('',#1102,300.);
#1104=LINE('',#1101,#1103);
#1105=EDGE_CURVE('',#93,#566,#1104,.T.);
#1106=ORIENTED_EDGE('',*,*,#1105,.F.);
#1107=ORIENTED_EDGE('',*,*,#98,.T.);
#1108=CARTESIAN_POINT('',(281.003637316,103.495458123,125.664650555));
#1109=DIRECTION('',(0.999999999,0.,0.000047249));
#1110=VECTOR('',#1109,19.);
#1111=LINE('',#1108,#1110);
#1112=EDGE_CURVE('',#780,#84,#1111,.T.);
#1113=ORIENTED_EDGE('',*,*,#1112,.F.);
#1114=ORIENTED_EDGE('',*,*,#787,.T.);
#1115=ORIENTED_EDGE('',*,*,#1088,.T.);
#1116=EDGE_LOOP('',(#1100,#1106,#1107,#1113,#1114,#1115));
#1117=FACE_BOUND('',#1116,.T.);
#1118=ADVANCED_FACE('',(#1117),#1099,.T.);
#1119=CARTESIAN_POINT('',(-319.986956779,103.522968307,121.636349207));
#1120=DIRECTION('',(0.999999999,0.,0.000047249));
#1121=DIRECTION('',(-0.000047247,-0.006877546,0.999976348));
#1122=AXIS2_PLACEMENT_3D('',#1119,#1120,#1121);
#1123=CYLINDRICAL_SURFACE('',#1122,4.);
#1124=ORIENTED_EDGE('',*,*,#90,.F.);
#1125=CARTESIAN_POINT('',(285.003826304,99.522968307,121.664886855));
#1126=VERTEX_POINT('',#1125);
#1127=CARTESIAN_POINT('',(285.003826304,99.522968307,121.664886855));
#1128=DIRECTION('',(0.999999999,0.,0.000050402));
#1129=VECTOR('',#1128,15.);
#1130=LINE('',#1127,#1129);
#1131=EDGE_CURVE('',#1126,#76,#1130,.T.);
#1132=ORIENTED_EDGE('',*,*,#1131,.F.);
#1133=CARTESIAN_POINT('',(285.003826304,99.522968307,121.664886855));
#1134=CARTESIAN_POINT('',(285.003807306,99.522964504,121.986484584));
#1135=CARTESIAN_POINT('',(284.965595709,99.561154019,122.29790878));
#1136=CARTESIAN_POINT('',(284.892894147,99.633833525,122.600145812));
#1137=CARTESIAN_POINT('',(284.856543365,99.670173277,122.751264328));
#1138=CARTESIAN_POINT('',(284.811517412,99.71518827,122.899167252));
#1139=CARTESIAN_POINT('',(284.75988799,99.766807003,123.040150708));
#1140=CARTESIAN_POINT('',(284.708258569,99.818425737,123.181134163));
#1141=CARTESIAN_POINT('',(284.649735553,99.876938246,123.316466092));
#1142=CARTESIAN_POINT('',(284.584948176,99.94171518,123.446662396));
#1143=CARTESIAN_POINT('',(284.520160799,100.006492115,123.576858699));
#1144=CARTESIAN_POINT('',(284.448731654,100.077910841,123.702345874));
#1145=CARTESIAN_POINT('',(284.37333949,100.153292774,123.82019711));
#1146=CARTESIAN_POINT('',(284.297947326,100.228674707,123.938048346));
#1147=CARTESIAN_POINT('',(284.218260717,100.308351214,124.04905909));
#1148=CARTESIAN_POINT('',(284.134789636,100.391812158,124.154041781));
#1149=CARTESIAN_POINT('',(284.051318554,100.475273102,124.259024472));
#1150=CARTESIAN_POINT('',(283.964058889,100.562522598,124.357972558));
#1151=CARTESIAN_POINT('',(283.873330317,100.653240772,124.451395391));
#1152=CARTESIAN_POINT('',(283.782601744,100.743958946,124.544818225));
#1153=CARTESIAN_POINT('',(283.68794163,100.838608385,124.63307176));
#1154=CARTESIAN_POINT('',(283.591488487,100.935050514,124.714897182));
#1155=CARTESIAN_POINT('',(283.398582202,101.127934772,124.878548025));
#1156=CARTESIAN_POINT('',(283.198243163,101.328250694,125.017438022));
#1157=CARTESIAN_POINT('',(282.991714768,101.534750691,125.135716603));
#1158=CARTESIAN_POINT('',(282.785186372,101.741250687,125.253995185));
#1159=CARTESIAN_POINT('',(282.572440287,101.95396453,125.351565563));
#1160=CARTESIAN_POINT('',(282.353916624,102.172436323,125.42992029));
#1161=CARTESIAN_POINT('',(282.135392962,102.390908115,125.508275016));
#1162=CARTESIAN_POINT('',(281.913637498,102.612612033,125.566423122));
#1163=CARTESIAN_POINT('',(281.689878588,102.836186808,125.605377938));
#1164=CARTESIAN_POINT('',(281.577999133,102.947974196,125.624855345));
#1165=CARTESIAN_POINT('',(281.465698357,103.060211208,125.639504907));
#1166=CARTESIAN_POINT('',(281.353017507,103.172511546,125.649379597));
#1167=CARTESIAN_POINT('',(281.296677082,103.228661715,125.654316942));
#1168=CARTESIAN_POINT('',(281.240313093,103.284909078,125.658057889));
#1169=CARTESIAN_POINT('',(281.183630859,103.340886861,125.660607307));
#1170=CARTESIAN_POINT('',(281.155289742,103.368875752,125.661882016));
#1171=CARTESIAN_POINT('',(281.126948153,103.396882888,125.662858611));
#1172=CARTESIAN_POINT('',(281.098205214,103.424481374,125.663536982));
#1173=CARTESIAN_POINT('',(281.083833745,103.438280616,125.663876167));
#1174=CARTESIAN_POINT('',(281.069400008,103.45204241,125.66414093));
#1175=CARTESIAN_POINT('',(281.05446915,103.465170185,125.664329959));
#1176=CARTESIAN_POINT('',(281.047003721,103.471734072,125.664424473));
#1177=CARTESIAN_POINT('',(281.039445105,103.478181168,125.66450022));
#1178=CARTESIAN_POINT('',(281.031332274,103.483932393,125.664555986));
#1179=CARTESIAN_POINT('',(281.023219443,103.489683617,125.664611752));
#1180=CARTESIAN_POINT('',(281.014085728,103.495458123,125.664651048));
#1181=CARTESIAN_POINT('',(281.003637316,103.495458123,125.664650555));
#1182=B_SPLINE_CURVE_WITH_KNOTS('',3,(#1133,#1134,#1135,#1136,#1137,#1138,#1139,#1140,#1141,#1142,#1143,#1144,#1145,#1146,#1147,#1148,#1149,#1150,#1151,#1152,#1153,#1154,#1155,#1156,#1157,#1158,
#1159,#1160,#1161,#1162,#1163,#1164,#1165,#1166,#1167,#1168,#1169,#1170,#1171,#1172,#1173,#1174,#1175,#1176,#1177,#1178,#1179,#1180,#1181),.UNSPECIFIED.,.F.,.F.,(4,3,3,3,3,3,3,3,3,3,3,3,3,3,3,3,4),(0.,0.000948127,0.001422191,0.001896255,0.002370319,0.002844382,0.003318446,0.00379251,0.004740637,0.005688765,0.006636892,0.007110956,0.007347988,0.007466504,0.007525762,0.007555391,0.00758502),.UNSPECIFIED.);
#1183=EDGE_CURVE('',#1126,#780,#1182,.T.);
#1184=ORIENTED_EDGE('',*,*,#1183,.T.);
#1185=ORIENTED_EDGE('',*,*,#1112,.T.);
#1186=EDGE_LOOP('',(#1124,#1132,#1184,#1185));
#1187=FACE_BOUND('',#1186,.T.);
#1188=ADVANCED_FACE('',(#1187),#1123,.F.);
#1189=CARTESIAN_POINT('',(281.003826311,0.41252762,121.664650559));
#1190=DIRECTION('',(0.,1.,-0.));
#1191=DIRECTION('',(-0.000047249,0.,0.999999999));
#1192=AXIS2_PLACEMENT_3D('',#1189,#1190,#1191);
#1193=CYLINDRICAL_SURFACE('',#1192,4.);
#1194=CARTESIAN_POINT('',(285.003826306,92.625209012,121.664839553));
#1195=VERTEX_POINT('',#1194);
#1196=CARTESIAN_POINT('',(281.003826311,88.625209012,121.664650559));
#1197=DIRECTION('',(0.70710678,-0.707106781,0.00003341));
#1198=DIRECTION('',(0.70710678,0.707106781,0.00003341));
#1199=AXIS2_PLACEMENT_3D('',#1196,#1197,#1198);
#1200=ELLIPSE('',#1199,5.656854249,4.);
#1201=EDGE_CURVE('',#1195,#790,#1200,.T.);
#1202=ORIENTED_EDGE('',*,*,#1201,.T.);
#1203=ORIENTED_EDGE('',*,*,#795,.T.);
#1204=ORIENTED_EDGE('',*,*,#1183,.F.);
#1205=CARTESIAN_POINT('',(285.003826306,92.625209012,121.664839553));
#1206=DIRECTION('',(-0.,1.,0.000006857));
#1207=VECTOR('',#1206,6.897759296);
#1208=LINE('',#1205,#1207);
#1209=EDGE_CURVE('',#1195,#1126,#1208,.T.);
#1210=ORIENTED_EDGE('',*,*,#1209,.F.);
#1211=EDGE_LOOP('',(#1202,#1203,#1204,#1210));
#1212=FACE_BOUND('',#1211,.T.);
#1213=ADVANCED_FACE('',(#1212),#1193,.F.);
#1214=CARTESIAN_POINT('',(285.003637312,92.625209012,125.664839549));
#1215=DIRECTION('',(-0.999999999,-0.,-0.000047249));
#1216=DIRECTION('',(0.,1.,-0.));
#1217=AXIS2_PLACEMENT_3D('',#1214,#1215,#1216);
#1218=PLANE('',#1217);
#1219=CARTESIAN_POINT('',(285.003991676,92.625209012,118.164839557));
#1220=VERTEX_POINT('',#1219);
#1221=CARTESIAN_POINT('',(285.003991676,99.522968307,118.164839557));
#1222=VERTEX_POINT('',#1221);
#1223=CARTESIAN_POINT('',(285.003991676,92.625209012,118.164839557));
#1224=DIRECTION('',(-0.,1.,-0.));
#1225=VECTOR('',#1224,6.897759295);
#1226=LINE('',#1223,#1225);
#1227=EDGE_CURVE('',#1220,#1222,#1226,.T.);
#1228=ORIENTED_EDGE('',*,*,#1227,.F.);
#1229=CARTESIAN_POINT('',(285.003826306,92.625209012,121.664839553));
#1230=DIRECTION('',(0.000047249,-0.,-0.999999999));
#1231=VECTOR('',#1230,3.5);
#1232=LINE('',#1229,#1231);
#1233=EDGE_CURVE('',#1195,#1220,#1232,.T.);
#1234=ORIENTED_EDGE('',*,*,#1233,.F.);
#1235=ORIENTED_EDGE('',*,*,#1209,.T.);
#1236=CARTESIAN_POINT('',(285.003826304,99.522968307,121.664886855));
#1237=DIRECTION('',(0.000047249,-0.,-0.999999999));
#1238=VECTOR('',#1237,3.500047301);
#1239=LINE('',#1236,#1238);
#1240=EDGE_CURVE('',#1126,#1222,#1239,.T.);
#1241=ORIENTED_EDGE('',*,*,#1240,.T.);
#1242=EDGE_LOOP('',(#1228,#1234,#1235,#1241));
#1243=FACE_BOUND('',#1242,.T.);
#1244=ADVANCED_FACE('',(#1243),#1218,.T.);
#1245=CARTESIAN_POINT('',(285.003637312,99.522968307,125.664839549));
#1246=DIRECTION('',(-0.,1.,-0.));
#1247=DIRECTION('',(0.999999999,0.,0.000047249));
#1248=AXIS2_PLACEMENT_3D('',#1245,#1246,#1247);
#1249=PLANE('',#1248);
#1250=ORIENTED_EDGE('',*,*,#1131,.T.);
#1251=ORIENTED_EDGE('',*,*,#81,.T.);
#1252=CARTESIAN_POINT('',(292.504346032,99.522968307,110.66519393));
#1253=VERTEX_POINT('',#1252);
#1254=CARTESIAN_POINT('',(292.503991668,99.522968307,118.165193922));
#1255=DIRECTION('',(-0.,-1.,0.));
#1256=DIRECTION('',(-0.000047249,0.,0.999999999));
#1257=AXIS2_PLACEMENT_3D('',#1254,#1255,#1256);
#1258=CIRCLE('',#1257,7.5);
#1259=EDGE_CURVE('',#1253,#68,#1258,.T.);
#1260=ORIENTED_EDGE('',*,*,#1259,.F.);
#1261=CARTESIAN_POINT('',(292.503991668,99.522968307,118.165193922));
#1262=DIRECTION('',(-0.,-1.,0.));
#1263=DIRECTION('',(-0.000047249,0.,0.999999999));
#1264=AXIS2_PLACEMENT_3D('',#1261,#1262,#1263);
#1265=CIRCLE('',#1264,7.5);
#1266=EDGE_CURVE('',#1222,#1253,#1265,.T.);
#1267=ORIENTED_EDGE('',*,*,#1266,.F.);
#1268=ORIENTED_EDGE('',*,*,#1240,.F.);
#1269=EDGE_LOOP('',(#1250,#1251,#1260,#1267,#1268));
#1270=FACE_BOUND('',#1269,.T.);
#1271=CARTESIAN_POINT('',(294.004109788,99.522968307,115.665264797));
#1272=VERTEX_POINT('',#1271);
#1273=CARTESIAN_POINT('',(292.504180662,99.522968307,114.165193926));
#1274=VERTEX_POINT('',#1273);
#1275=CARTESIAN_POINT('',(292.504109789,99.522968307,115.665193924));
#1276=DIRECTION('',(0.,1.,-0.));
#1277=DIRECTION('',(0.000047249,-0.,-0.999999999));
#1278=AXIS2_PLACEMENT_3D('',#1275,#1276,#1277);
#1279=CIRCLE('',#1278,1.5);
#1280=EDGE_CURVE('',#1272,#1274,#1279,.T.);
#1281=ORIENTED_EDGE('',*,*,#1280,.F.);
#1282=CARTESIAN_POINT('',(292.504109789,99.522968307,115.665193924));
#1283=DIRECTION('',(0.,1.,-0.));
#1284=DIRECTION('',(0.000047249,-0.,-0.999999999));
#1285=AXIS2_PLACEMENT_3D('',#1282,#1283,#1284);
#1286=CIRCLE('',#1285,1.5);
#1287=EDGE_CURVE('',#1274,#1272,#1286,.T.);
#1288=ORIENTED_EDGE('',*,*,#1287,.F.);
#1289=EDGE_LOOP('',(#1281,#1288));
#1290=FACE_BOUND('',#1289,.T.);
#1291=ADVANCED_FACE('',(#1270,#1290),#1249,.T.);
#1292=CARTESIAN_POINT('',(292.504109789,99.522968307,115.665193924));
#1293=DIRECTION('',(-0.,1.,-0.));
#1294=DIRECTION('',(0.999999999,0.,0.000047249));
#1295=AXIS2_PLACEMENT_3D('',#1292,#1293,#1294);
#1296=CYLINDRICAL_SURFACE('',#1295,1.5);
#1297=CARTESIAN_POINT('',(294.004109788,92.625209012,115.665264797));
#1298=VERTEX_POINT('',#1297);
#1299=CARTESIAN_POINT('',(294.004109788,99.522968307,115.665264797));
#1300=DIRECTION('',(-0.,-1.,0.));
#1301=VECTOR('',#1300,6.897759295);
#1302=LINE('',#1299,#1301);
#1303=EDGE_CURVE('',#1272,#1298,#1302,.T.);
#1304=ORIENTED_EDGE('',*,*,#1303,.F.);
#1305=ORIENTED_EDGE('',*,*,#1280,.T.);
#1306=ORIENTED_EDGE('',*,*,#1287,.T.);
#1307=ORIENTED_EDGE('',*,*,#1303,.T.);
#1308=CARTESIAN_POINT('',(292.504180662,92.625209012,114.165193926));
#1309=VERTEX_POINT('',#1308);
#1310=CARTESIAN_POINT('',(292.504109789,92.625209012,115.665193924));
#1311=DIRECTION('',(0.,1.,-0.));
#1312=DIRECTION('',(0.000047249,-0.,-0.999999999));
#1313=AXIS2_PLACEMENT_3D('',#1310,#1311,#1312);
#1314=CIRCLE('',#1313,1.5);
#1315=EDGE_CURVE('',#1309,#1298,#1314,.T.);
#1316=ORIENTED_EDGE('',*,*,#1315,.F.);
#1317=CARTESIAN_POINT('',(292.504109789,92.625209012,115.665193924));
#1318=DIRECTION('',(0.,1.,-0.));
#1319=DIRECTION('',(0.000047249,-0.,-0.999999999));
#1320=AXIS2_PLACEMENT_3D('',#1317,#1318,#1319);
#1321=CIRCLE('',#1320,1.5);
#1322=EDGE_CURVE('',#1298,#1309,#1321,.T.);
#1323=ORIENTED_EDGE('',*,*,#1322,.F.);
#1324=EDGE_LOOP('',(#1304,#1305,#1306,#1307,#1316,#1323));
#1325=FACE_BOUND('',#1324,.T.);
#1326=ADVANCED_FACE('',(#1325),#1296,.F.);
#1327=CARTESIAN_POINT('',(300.003637295,92.625209012,125.665548277));
#1328=DIRECTION('',(0.,-1.,0.));
#1329=DIRECTION('',(-0.999999999,-0.,-0.000047249));
#1330=AXIS2_PLACEMENT_3D('',#1327,#1328,#1329);
#1331=PLANE('',#1330);
#1332=ORIENTED_EDGE('',*,*,#1233,.T.);
#1333=CARTESIAN_POINT('',(292.504346032,92.625209012,110.66519393));
#1334=VERTEX_POINT('',#1333);
#1335=CARTESIAN_POINT('',(292.503991668,92.625209012,118.165193922));
#1336=DIRECTION('',(0.,1.,-0.));
#1337=DIRECTION('',(-0.000047249,0.,0.999999999));
#1338=AXIS2_PLACEMENT_3D('',#1335,#1336,#1337);
#1339=CIRCLE('',#1338,7.5);
#1340=EDGE_CURVE('',#1334,#1220,#1339,.T.);
#1341=ORIENTED_EDGE('',*,*,#1340,.F.);
#1342=CARTESIAN_POINT('',(292.503991668,92.625209012,118.165193922));
#1343=DIRECTION('',(0.,1.,-0.));
#1344=DIRECTION('',(-0.000047249,0.,0.999999999));
#1345=AXIS2_PLACEMENT_3D('',#1342,#1343,#1344);
#1346=CIRCLE('',#1345,7.5);
#1347=EDGE_CURVE('',#60,#1334,#1346,.T.);
#1348=ORIENTED_EDGE('',*,*,#1347,.F.);
#1349=ORIENTED_EDGE('',*,*,#65,.F.);
#1350=CARTESIAN_POINT('',(300.003826289,92.625209012,121.665548282));
#1351=DIRECTION('',(-0.999999999,-0.,-0.000047249));
#1352=VECTOR('',#1351,15.);
#1353=LINE('',#1350,#1352);
#1354=EDGE_CURVE('',#51,#1195,#1353,.T.);
#1355=ORIENTED_EDGE('',*,*,#1354,.T.);
#1356=EDGE_LOOP('',(#1332,#1341,#1348,#1349,#1355));
#1357=FACE_BOUND('',#1356,.T.);
#1358=ORIENTED_EDGE('',*,*,#1315,.T.);
#1359=ORIENTED_EDGE('',*,*,#1322,.T.);
#1360=EDGE_LOOP('',(#1358,#1359));
#1361=FACE_BOUND('',#1360,.T.);
#1362=ADVANCED_FACE('',(#1357,#1361),#1331,.T.);
#1363=CARTESIAN_POINT('',(691.083825853,88.625209012,121.684026252));
#1364=DIRECTION('',(-0.999999999,-0.,-0.000047249));
#1365=DIRECTION('',(-0.000047249,0.,0.999999999));
#1366=AXIS2_PLACEMENT_3D('',#1363,#1364,#1365);
#1367=CYLINDRICAL_SURFACE('',#1366,4.);
#1368=ORIENTED_EDGE('',*,*,#1201,.F.);
#1369=ORIENTED_EDGE('',*,*,#1354,.F.);
#1370=ORIENTED_EDGE('',*,*,#57,.F.);
#1371=ORIENTED_EDGE('',*,*,#801,.T.);
#1372=EDGE_LOOP('',(#1368,#1369,#1370,#1371));
#1373=FACE_BOUND('',#1372,.T.);
#1374=ADVANCED_FACE('',(#1373),#1367,.F.);
#1375=CARTESIAN_POINT('',(292.503991668,191.578388627,118.165193922));
#1376=DIRECTION('',(-0.,-1.,0.));
#1377=DIRECTION('',(0.000047249,-0.,-0.999999999));
#1378=AXIS2_PLACEMENT_3D('',#1375,#1376,#1377);
#1379=CYLINDRICAL_SURFACE('',#1378,7.5);
#1380=CARTESIAN_POINT('',(292.504346032,92.625209012,110.66519393));
#1381=DIRECTION('',(-0.,1.,-0.));
#1382=VECTOR('',#1381,6.897759295);
#1383=LINE('',#1380,#1382);
#1384=EDGE_CURVE('',#1334,#1253,#1383,.T.);
#1385=ORIENTED_EDGE('',*,*,#1384,.T.);
#1386=ORIENTED_EDGE('',*,*,#1259,.T.);
#1387=ORIENTED_EDGE('',*,*,#73,.T.);
#1388=ORIENTED_EDGE('',*,*,#1347,.T.);
#1389=EDGE_LOOP('',(#1385,#1386,#1387,#1388));
#1390=FACE_BOUND('',#1389,.T.);
#1391=ADVANCED_FACE('',(#1390),#1379,.T.);
#1392=CARTESIAN_POINT('',(300.002739675,116.618027652,144.663366648));
#1393=DIRECTION('',(-0.000047249,0.,0.999999999));
#1394=DIRECTION('',(0.,1.,-0.));
#1395=AXIS2_PLACEMENT_3D('',#1392,#1393,#1394);
#1396=PLANE('',#1395);
#1397=ORIENTED_EDGE('',*,*,#1105,.T.);
#1398=ORIENTED_EDGE('',*,*,#571,.F.);
#1399=CARTESIAN_POINT('',(0.00274001,109.948043333,144.649192077));
#1400=DIRECTION('',(0.999999999,0.,0.000047249));
#1401=VECTOR('',#1400,5.);
#1402=LINE('',#1399,#1401);
#1403=EDGE_CURVE('',#557,#438,#1402,.T.);
#1404=ORIENTED_EDGE('',*,*,#1403,.T.);
#1405=ORIENTED_EDGE('',*,*,#443,.T.);
#1406=CARTESIAN_POINT('',(295.002739681,116.618027652,144.663130405));
#1407=DIRECTION('',(-0.999999999,-0.,-0.000047249));
#1408=VECTOR('',#1407,290.);
#1409=LINE('',#1406,#1408);
#1410=EDGE_CURVE('',#338,#430,#1409,.T.);
#1411=ORIENTED_EDGE('',*,*,#1410,.F.);
#1412=ORIENTED_EDGE('',*,*,#343,.F.);
#1413=CARTESIAN_POINT('',(300.002739675,109.948043333,144.663366648));
#1414=DIRECTION('',(-0.999999999,-0.,-0.000047249));
#1415=VECTOR('',#1414,5.);
#1416=LINE('',#1413,#1415);
#1417=EDGE_CURVE('',#101,#329,#1416,.T.);
#1418=ORIENTED_EDGE('',*,*,#1417,.F.);
#1419=ORIENTED_EDGE('',*,*,#106,.F.);
#1420=EDGE_LOOP('',(#1397,#1398,#1404,#1405,#1411,#1412,#1418,#1419));
#1421=FACE_BOUND('',#1420,.T.);
#1422=ADVANCED_FACE('',(#1421),#1396,.T.);
#1423=CARTESIAN_POINT('',(300.002156645,95.995458123,157.003002753));
#1424=DIRECTION('',(-0.999999999,-0.,-0.000047249));
#1425=DIRECTION('',(0.,-1.,0.));
#1426=AXIS2_PLACEMENT_3D('',#1423,#1424,#1425);
#1427=CYLINDRICAL_SURFACE('',#1426,18.626359107);
#1428=ORIENTED_EDGE('',*,*,#1417,.T.);
#1429=ORIENTED_EDGE('',*,*,#335,.F.);
#1430=CARTESIAN_POINT('',(300.003033805,97.508561944,138.438203545));
#1431=DIRECTION('',(-0.999999999,-0.,-0.000047249));
#1432=VECTOR('',#1431,5.);
#1433=LINE('',#1430,#1432);
#1434=EDGE_CURVE('',#109,#321,#1433,.T.);
#1435=ORIENTED_EDGE('',*,*,#1434,.F.);
#1436=ORIENTED_EDGE('',*,*,#115,.T.);
#1437=EDGE_LOOP('',(#1428,#1429,#1435,#1436));
#1438=FACE_BOUND('',#1437,.T.);
#1439=ADVANCED_FACE('',(#1438),#1427,.F.);
#1440=CARTESIAN_POINT('',(300.003033805,97.372410056,138.438203545));
#1441=DIRECTION('',(0.000047249,-0.,-0.999999999));
#1442=DIRECTION('',(0.,1.,-0.));
#1443=AXIS2_PLACEMENT_3D('',#1440,#1441,#1442);
#1444=PLANE('',#1443);
#1445=ORIENTED_EDGE('',*,*,#1434,.T.);
#1446=ORIENTED_EDGE('',*,*,#326,.F.);
#1447=CARTESIAN_POINT('',(300.003033805,97.372410056,138.438203545));
#1448=DIRECTION('',(-0.999999999,-0.,-0.000047249));
#1449=VECTOR('',#1448,5.);
#1450=LINE('',#1447,#1449);
#1451=EDGE_CURVE('',#118,#312,#1450,.T.);
#1452=ORIENTED_EDGE('',*,*,#1451,.F.);
#1453=ORIENTED_EDGE('',*,*,#123,.T.);
#1454=EDGE_LOOP('',(#1445,#1446,#1452,#1453));
#1455=FACE_BOUND('',#1454,.T.);
#1456=ADVANCED_FACE('',(#1455),#1444,.F.);
#1457=CARTESIAN_POINT('',(300.00230765,95.995458123,153.807036818));
#1458=DIRECTION('',(-0.999999999,-0.,-0.000047249));
#1459=DIRECTION('',(0.,-1.,0.));
#1460=AXIS2_PLACEMENT_3D('',#1457,#1458,#1459);
#1461=CYLINDRICAL_SURFACE('',#1460,15.430393168);
#1462=ORIENTED_EDGE('',*,*,#1451,.T.);
#1463=ORIENTED_EDGE('',*,*,#318,.F.);
#1464=CARTESIAN_POINT('',(300.003033805,94.618506191,138.438203545));
#1465=DIRECTION('',(-0.999999999,-0.,-0.000047249));
#1466=VECTOR('',#1465,5.);
#1467=LINE('',#1464,#1466);
#1468=EDGE_CURVE('',#126,#304,#1467,.T.);
#1469=ORIENTED_EDGE('',*,*,#1468,.F.);
#1470=ORIENTED_EDGE('',*,*,#132,.T.);
#1471=EDGE_LOOP('',(#1462,#1463,#1469,#1470));
#1472=FACE_BOUND('',#1471,.T.);
#1473=ADVANCED_FACE('',(#1472),#1461,.F.);
#1474=CARTESIAN_POINT('',(300.003033805,94.482354303,138.438203545));
#1475=DIRECTION('',(0.000047249,-0.,-0.999999999));
#1476=DIRECTION('',(0.,1.,-0.));
#1477=AXIS2_PLACEMENT_3D('',#1474,#1475,#1476);
#1478=PLANE('',#1477);
#1479=ORIENTED_EDGE('',*,*,#1468,.T.);
#1480=ORIENTED_EDGE('',*,*,#309,.F.);
#1481=CARTESIAN_POINT('',(300.003033805,94.482354303,138.438203545));
#1482=DIRECTION('',(-0.999999999,-0.,-0.000047249));
#1483=VECTOR('',#1482,5.);
#1484=LINE('',#1481,#1483);
#1485=EDGE_CURVE('',#135,#295,#1484,.T.);
#1486=ORIENTED_EDGE('',*,*,#1485,.F.);
#1487=ORIENTED_EDGE('',*,*,#140,.T.);
#1488=EDGE_LOOP('',(#1479,#1480,#1486,#1487));
#1489=FACE_BOUND('',#1488,.T.);
#1490=ADVANCED_FACE('',(#1489),#1478,.F.);
#1491=CARTESIAN_POINT('',(300.002156645,95.995458123,157.003002753));
#1492=DIRECTION('',(-0.999999999,-0.,-0.000047249));
#1493=DIRECTION('',(0.,-1.,0.));
#1494=AXIS2_PLACEMENT_3D('',#1491,#1492,#1493);
#1495=CYLINDRICAL_SURFACE('',#1494,18.626359107);
#1496=ORIENTED_EDGE('',*,*,#1485,.T.);
#1497=ORIENTED_EDGE('',*,*,#301,.F.);
#1498=ORIENTED_EDGE('',*,*,#238,.F.);
#1499=ORIENTED_EDGE('',*,*,#149,.T.);
#1500=EDGE_LOOP('',(#1496,#1497,#1498,#1499));
#1501=FACE_BOUND('',#1500,.T.);
#1502=ADVANCED_FACE('',(#1501),#1495,.F.);
#1503=CARTESIAN_POINT('',(300.002988235,110.012554534,139.402690043));
#1504=DIRECTION('',(-0.00003696,-0.622982063,0.78223612));
#1505=DIRECTION('',(-0.000029435,0.782236121,0.622982062));
#1506=AXIS2_PLACEMENT_3D('',#1503,#1504,#1505);
#1507=PLANE('',#1506);
#1508=ORIENTED_EDGE('',*,*,#1410,.T.);
#1509=ORIENTED_EDGE('',*,*,#435,.F.);
#1510=CARTESIAN_POINT('',(295.00298824,110.012554534,139.4024538));
#1511=DIRECTION('',(-0.999999999,-0.,-0.000047249));
#1512=VECTOR('',#1511,290.);
#1513=LINE('',#1510,#1512);
#1514=EDGE_CURVE('',#346,#421,#1513,.T.);
#1515=ORIENTED_EDGE('',*,*,#1514,.F.);
#1516=ORIENTED_EDGE('',*,*,#351,.T.);
#1517=EDGE_LOOP('',(#1508,#1509,#1515,#1516));
#1518=FACE_BOUND('',#1517,.T.);
#1519=ADVANCED_FACE('',(#1518),#1507,.T.);
#1520=CARTESIAN_POINT('',(300.002156645,95.995458123,157.003002753));
#1521=DIRECTION('',(-0.999999999,-0.,-0.000047249));
#1522=DIRECTION('',(0.,-1.,0.));
#1523=AXIS2_PLACEMENT_3D('',#1520,#1521,#1522);
#1524=CYLINDRICAL_SURFACE('',#1523,22.5);
#1525=ORIENTED_EDGE('',*,*,#1514,.T.);
#1526=ORIENTED_EDGE('',*,*,#427,.T.);
#1527=CARTESIAN_POINT('',(295.003196119,100.712448689,135.002766535));
#1528=DIRECTION('',(-0.999999999,-0.,-0.000047249));
#1529=VECTOR('',#1528,290.);
#1530=LINE('',#1527,#1529);
#1531=EDGE_CURVE('',#354,#413,#1530,.T.);
#1532=ORIENTED_EDGE('',*,*,#1531,.F.);
#1533=ORIENTED_EDGE('',*,*,#360,.F.);
#1534=EDGE_LOOP('',(#1525,#1526,#1532,#1533));
#1535=FACE_BOUND('',#1534,.T.);
#1536=ADVANCED_FACE('',(#1535),#1524,.F.);
#1537=CARTESIAN_POINT('',(300.003196457,91.312448689,134.99574437));
#1538=DIRECTION('',(-0.000047249,-0.000772171,0.999999701));
#1539=DIRECTION('',(-0.000000036,0.999999702,0.000772171));
#1540=AXIS2_PLACEMENT_3D('',#1537,#1538,#1539);
#1541=PLANE('',#1540);
#1542=ORIENTED_EDGE('',*,*,#418,.F.);
#1543=ORIENTED_EDGE('',*,*,#392,.F.);
#1544=ORIENTED_EDGE('',*,*,#368,.T.);
#1545=ORIENTED_EDGE('',*,*,#1531,.T.);
#1546=EDGE_LOOP('',(#1542,#1543,#1544,#1545));
#1547=FACE_BOUND('',#1546,.T.);
#1548=ADVANCED_FACE('',(#1547),#1541,.T.);
#1549=CARTESIAN_POINT('',(0.00215698,95.995458123,156.988828183));
#1550=DIRECTION('',(-0.999999999,-0.,-0.000047249));
#1551=DIRECTION('',(0.,-1.,0.));
#1552=AXIS2_PLACEMENT_3D('',#1549,#1550,#1551);
#1553=CYLINDRICAL_SURFACE('',#1552,18.626359107);
#1554=CARTESIAN_POINT('',(0.00303414,97.508561944,138.424028974));
#1555=DIRECTION('',(0.999999999,0.,0.000047249));
#1556=VECTOR('',#1555,5.);
#1557=LINE('',#1554,#1556);
#1558=EDGE_CURVE('',#549,#446,#1557,.T.);
#1559=ORIENTED_EDGE('',*,*,#1558,.T.);
#1560=ORIENTED_EDGE('',*,*,#452,.T.);
#1561=ORIENTED_EDGE('',*,*,#1403,.F.);
#1562=ORIENTED_EDGE('',*,*,#563,.F.);
#1563=EDGE_LOOP('',(#1559,#1560,#1561,#1562));
#1564=FACE_BOUND('',#1563,.T.);
#1565=ADVANCED_FACE('',(#1564),#1553,.F.);
#1566=CARTESIAN_POINT('',(0.00303414,97.372410056,138.424028974));
#1567=DIRECTION('',(-0.000047249,0.,0.999999999));
#1568=DIRECTION('',(0.,1.,-0.));
#1569=AXIS2_PLACEMENT_3D('',#1566,#1567,#1568);
#1570=PLANE('',#1569);
#1571=CARTESIAN_POINT('',(0.00303414,97.372410056,138.424028974));
#1572=DIRECTION('',(0.999999999,0.,0.000047249));
#1573=VECTOR('',#1572,5.);
#1574=LINE('',#1571,#1573);
#1575=EDGE_CURVE('',#540,#455,#1574,.T.);
#1576=ORIENTED_EDGE('',*,*,#1575,.T.);
#1577=ORIENTED_EDGE('',*,*,#460,.T.);
#1578=ORIENTED_EDGE('',*,*,#1558,.F.);
#1579=ORIENTED_EDGE('',*,*,#554,.F.);
#1580=EDGE_LOOP('',(#1576,#1577,#1578,#1579));
#1581=FACE_BOUND('',#1580,.T.);
#1582=ADVANCED_FACE('',(#1581),#1570,.T.);
#1583=CARTESIAN_POINT('',(0.002307985,95.995458123,153.792862247));
#1584=DIRECTION('',(-0.999999999,-0.,-0.000047249));
#1585=DIRECTION('',(0.,-1.,0.));
#1586=AXIS2_PLACEMENT_3D('',#1583,#1584,#1585);
#1587=CYLINDRICAL_SURFACE('',#1586,15.430393168);
#1588=CARTESIAN_POINT('',(0.00303414,94.618506191,138.424028974));
#1589=DIRECTION('',(0.999999999,0.,0.000047249));
#1590=VECTOR('',#1589,5.);
#1591=LINE('',#1588,#1590);
#1592=EDGE_CURVE('',#532,#463,#1591,.T.);
#1593=ORIENTED_EDGE('',*,*,#1592,.T.);
#1594=ORIENTED_EDGE('',*,*,#469,.T.);
#1595=ORIENTED_EDGE('',*,*,#1575,.F.);
#1596=ORIENTED_EDGE('',*,*,#546,.F.);
#1597=EDGE_LOOP('',(#1593,#1594,#1595,#1596));
#1598=FACE_BOUND('',#1597,.T.);
#1599=ADVANCED_FACE('',(#1598),#1587,.F.);
#1600=CARTESIAN_POINT('',(0.00303414,94.482354303,138.424028974));
#1601=DIRECTION('',(-0.000047249,0.,0.999999999));
#1602=DIRECTION('',(0.,1.,-0.));
#1603=AXIS2_PLACEMENT_3D('',#1600,#1601,#1602);
#1604=PLANE('',#1603);
#1605=ORIENTED_EDGE('',*,*,#504,.T.);
#1606=ORIENTED_EDGE('',*,*,#477,.T.);
#1607=ORIENTED_EDGE('',*,*,#1592,.F.);
#1608=ORIENTED_EDGE('',*,*,#537,.F.);
#1609=EDGE_LOOP('',(#1605,#1606,#1607,#1608));
#1610=FACE_BOUND('',#1609,.T.);
#1611=ADVANCED_FACE('',(#1610),#1604,.T.);
#1612=CARTESIAN_POINT('',(300.003637295,88.495458123,125.665548277));
#1613=DIRECTION('',(0.00003341,-0.707106781,-0.70710678));
#1614=DIRECTION('',(-0.00003341,-0.707106781,0.70710678));
#1615=AXIS2_PLACEMENT_3D('',#1612,#1613,#1614);
#1616=PLANE('',#1615);
#1617=ORIENTED_EDGE('',*,*,#229,.T.);
#1618=ORIENTED_EDGE('',*,*,#527,.F.);
#1619=ORIENTED_EDGE('',*,*,#808,.F.);
#1620=ORIENTED_EDGE('',*,*,#40,.T.);
#1621=EDGE_LOOP('',(#1617,#1618,#1619,#1620));
#1622=FACE_BOUND('',#1621,.T.);
#1623=ADVANCED_FACE('',(#1622),#1616,.T.);
#1624=CARTESIAN_POINT('',(300.003600659,90.65402761,126.440933735));
#1625=DIRECTION('',(0.,1.,-0.));
#1626=DIRECTION('',(-0.000047249,0.,0.999999999));
#1627=AXIS2_PLACEMENT_3D('',#1624,#1625,#1626);
#1628=PLANE('',#1627);
#1629=CARTESIAN_POINT('',(255.00360071,90.65402761,126.438807549));
#1630=VERTEX_POINT('',#1629);
#1631=CARTESIAN_POINT('',(255.003482588,90.65402761,128.938807546));
#1632=VERTEX_POINT('',#1631);
#1633=CARTESIAN_POINT('',(255.00360071,90.65402761,126.438807549));
#1634=DIRECTION('',(-0.000047249,0.,0.999999999));
#1635=VECTOR('',#1634,2.5);
#1636=LINE('',#1633,#1635);
#1637=EDGE_CURVE('',#1630,#1632,#1636,.T.);
#1638=ORIENTED_EDGE('',*,*,#1637,.T.);
#1639=CARTESIAN_POINT('',(300.003482538,90.65402761,128.940933732));
#1640=DIRECTION('',(-0.999999999,-0.,-0.000047249));
#1641=VECTOR('',#1640,45.);
#1642=LINE('',#1639,#1641);
#1643=EDGE_CURVE('',#160,#1632,#1642,.T.);
#1644=ORIENTED_EDGE('',*,*,#1643,.F.);
#1645=ORIENTED_EDGE('',*,*,#189,.F.);
#1646=CARTESIAN_POINT('',(300.003600659,90.65402761,126.440933735));
#1647=DIRECTION('',(-0.999999999,-0.,-0.000047249));
#1648=VECTOR('',#1647,45.);
#1649=LINE('',#1646,#1648);
#1650=EDGE_CURVE('',#178,#1630,#1649,.T.);
#1651=ORIENTED_EDGE('',*,*,#1650,.T.);
#1652=EDGE_LOOP('',(#1638,#1644,#1645,#1651));
#1653=FACE_BOUND('',#1652,.T.);
#1654=ADVANCED_FACE('',(#1653),#1628,.T.);
#1655=CARTESIAN_POINT('',(300.003600659,101.340047384,126.440933735));
#1656=DIRECTION('',(-0.000047249,0.,0.999999999));
#1657=DIRECTION('',(0.,-1.,0.));
#1658=AXIS2_PLACEMENT_3D('',#1655,#1656,#1657);
#1659=PLANE('',#1658);
#1660=ORIENTED_EDGE('',*,*,#183,.F.);
#1661=CARTESIAN_POINT('',(255.00360071,101.340047384,126.438807549));
#1662=VERTEX_POINT('',#1661);
#1663=CARTESIAN_POINT('',(300.003600659,101.340047384,126.440933735));
#1664=DIRECTION('',(-0.999999999,-0.,-0.000047249));
#1665=VECTOR('',#1664,45.);
#1666=LINE('',#1663,#1665);
#1667=EDGE_CURVE('',#170,#1662,#1666,.T.);
#1668=ORIENTED_EDGE('',*,*,#1667,.T.);
#1669=CARTESIAN_POINT('',(255.00360071,101.340047384,126.438807549));
#1670=DIRECTION('',(0.,-1.,0.));
#1671=VECTOR('',#1670,10.686019774);
#1672=LINE('',#1669,#1671);
#1673=EDGE_CURVE('',#1662,#1630,#1672,.T.);
#1674=ORIENTED_EDGE('',*,*,#1673,.T.);
#1675=ORIENTED_EDGE('',*,*,#1650,.F.);
#1676=EDGE_LOOP('',(#1660,#1668,#1674,#1675));
#1677=FACE_BOUND('',#1676,.T.);
#1678=ADVANCED_FACE('',(#1677),#1659,.T.);
#1679=CARTESIAN_POINT('',(255.002577953,96.012448689,148.085105111));
#1680=DIRECTION('',(-0.999999999,-0.,-0.000047249));
#1681=DIRECTION('',(0.,-1.,0.));
#1682=AXIS2_PLACEMENT_3D('',#1679,#1680,#1681);
#1683=PLANE('',#1682);
#1684=ORIENTED_EDGE('',*,*,#1673,.F.);
#1685=CARTESIAN_POINT('',(255.003482588,101.340047384,128.938807546));
#1686=VERTEX_POINT('',#1685);
#1687=CARTESIAN_POINT('',(255.003482588,101.340047384,128.938807546));
#1688=DIRECTION('',(0.000047249,-0.,-0.999999999));
#1689=VECTOR('',#1688,2.5);
#1690=LINE('',#1687,#1689);
#1691=EDGE_CURVE('',#1686,#1662,#1690,.T.);
#1692=ORIENTED_EDGE('',*,*,#1691,.F.);
#1693=CARTESIAN_POINT('',(255.003482588,90.65402761,128.938807546));
#1694=DIRECTION('',(0.,1.,-0.));
#1695=VECTOR('',#1694,10.686019774);
#1696=LINE('',#1693,#1695);
#1697=EDGE_CURVE('',#1632,#1686,#1696,.T.);
#1698=ORIENTED_EDGE('',*,*,#1697,.F.);
#1699=ORIENTED_EDGE('',*,*,#1637,.F.);
#1700=EDGE_LOOP('',(#1684,#1692,#1698,#1699));
#1701=FACE_BOUND('',#1700,.T.);
#1702=ADVANCED_FACE('',(#1701),#1683,.F.);
#1703=CARTESIAN_POINT('',(300.003482538,90.65402761,128.940933732));
#1704=DIRECTION('',(0.000047249,-0.,-0.999999999));
#1705=DIRECTION('',(0.,1.,-0.));
#1706=AXIS2_PLACEMENT_3D('',#1703,#1704,#1705);
#1707=PLANE('',#1706);
#1708=ORIENTED_EDGE('',*,*,#1697,.T.);
#1709=CARTESIAN_POINT('',(300.003482538,101.340047384,128.940933732));
#1710=DIRECTION('',(-0.999999999,-0.,-0.000047249));
#1711=VECTOR('',#1710,45.);
#1712=LINE('',#1709,#1711);
#1713=EDGE_CURVE('',#162,#1686,#1712,.T.);
#1714=ORIENTED_EDGE('',*,*,#1713,.F.);
#1715=ORIENTED_EDGE('',*,*,#167,.F.);
#1716=ORIENTED_EDGE('',*,*,#1643,.T.);
#1717=EDGE_LOOP('',(#1708,#1714,#1715,#1716));
#1718=FACE_BOUND('',#1717,.T.);
#1719=ADVANCED_FACE('',(#1718),#1707,.T.);
#1720=CARTESIAN_POINT('',(300.003482538,101.340047384,128.940933732));
#1721=DIRECTION('',(-0.,-1.,0.));
#1722=DIRECTION('',(0.000047249,-0.,-0.999999999));
#1723=AXIS2_PLACEMENT_3D('',#1720,#1721,#1722);
#1724=PLANE('',#1723);
#1725=ORIENTED_EDGE('',*,*,#1691,.T.);
#1726=ORIENTED_EDGE('',*,*,#1667,.F.);
#1727=ORIENTED_EDGE('',*,*,#175,.F.);
#1728=ORIENTED_EDGE('',*,*,#1713,.T.);
#1729=EDGE_LOOP('',(#1725,#1726,#1727,#1728));
#1730=FACE_BOUND('',#1729,.T.);
#1731=ADVANCED_FACE('',(#1730),#1724,.T.);
#1732=CARTESIAN_POINT('',(7.503991986,0.41252762,118.151728079));
#1733=DIRECTION('',(0.,1.,-0.));
#1734=DIRECTION('',(0.000047249,-0.,-0.999999999));
#1735=AXIS2_PLACEMENT_3D('',#1732,#1733,#1734);
#1736=CYLINDRICAL_SURFACE('',#1735,7.5);
#1737=ORIENTED_EDGE('',*,*,#1070,.F.);
#1738=ORIENTED_EDGE('',*,*,#938,.T.);
#1739=ORIENTED_EDGE('',*,*,#914,.T.);
#1740=ORIENTED_EDGE('',*,*,#1033,.T.);
#1741=EDGE_LOOP('',(#1737,#1738,#1739,#1740));
#1742=FACE_BOUND('',#1741,.T.);
#1743=ADVANCED_FACE('',(#1742),#1736,.T.);
#1744=CARTESIAN_POINT('',(292.503991668,191.578388627,118.165193922));
#1745=DIRECTION('',(-0.,-1.,0.));
#1746=DIRECTION('',(0.000047249,-0.,-0.999999999));
#1747=AXIS2_PLACEMENT_3D('',#1744,#1745,#1746);
#1748=CYLINDRICAL_SURFACE('',#1747,7.5);
#1749=ORIENTED_EDGE('',*,*,#1384,.F.);
#1750=ORIENTED_EDGE('',*,*,#1340,.T.);
#1751=ORIENTED_EDGE('',*,*,#1227,.T.);
#1752=ORIENTED_EDGE('',*,*,#1266,.T.);
#1753=EDGE_LOOP('',(#1749,#1750,#1751,#1752));
#1754=FACE_BOUND('',#1753,.T.);
#1755=ADVANCED_FACE('',(#1754),#1748,.T.);
#1756=CLOSED_SHELL('',(#193,#256,#287,#380,#405,#490,#515,#665,#696,#720,#744,#761,#773,#827,#894,#925,#977,#1012,#1048,#1060,#1077,#1094,#1118,#1188,#1213,#1244,
#1291,#1326,#1362,#1374,#1391,#1422,#1439,#1456,#1473,#1490,#1502,#1519,#1536,#1548,#1565,#1582,#1599,#1611,#1623,#1654,#1678,#1702,#1719,#1731,#1743,
#1755));
#1757=MANIFOLD_SOLID_BREP('Balance_V4',#1756);
#1758=COLOUR_RGB('',0.447058827,0.800000012,0.847058833);
#1759=FILL_AREA_STYLE_COLOUR('',#1758);
#1760=FILL_AREA_STYLE('',(#1759));
#1761=SURFACE_STYLE_FILL_AREA(#1760);
#1762=SURFACE_SIDE_STYLE('',(#1761));
#1763=SURFACE_STYLE_USAGE(.BOTH.,#1762);
#1764=PRESENTATION_STYLE_ASSIGNMENT((#1763));
#26=STYLED_ITEM('',(#1764),#1757);
#16=SHAPE_REPRESENTATION('Balance_V4',(#15),#10);
#17=ADVANCED_BREP_SHAPE_REPRESENTATION('Balance_V4',(#1757),#10);
#1772=SHAPE_REPRESENTATION_RELATIONSHIP('','',#16,#17);
#1773=CARTESIAN_POINT('',(0.,0.,0.));
#1774=DIRECTION('',(0.,0.,1.));
#1775=DIRECTION('',(1.,0.,0.));
#1776=AXIS2_PLACEMENT_3D('',#1773,#1774,#1775);
#1778=MAPPED_ITEM('',#1777,#1776);
#1777=REPRESENTATION_MAP(#1776,#16);
#1779=APPLICATION_CONTEXT('Managed model based 3d engineering');
#1780=APPLICATION_PROTOCOL_DEFINITION('international standard','ap242_managed_model_based_3d_engineering',2014,#1779);
#1781=PRODUCT_CONTEXT('',#1779,'mechanical');
#1782=PRODUCT_DEFINITION_CONTEXT('part definition',#1779,'design');
#24=PRODUCT('Balance_V4','Balance_V4','',(#1781));
#1783=PRODUCT_RELATED_PRODUCT_CATEGORY('part','',(#24));
#1784=PRODUCT_DEFINITION_FORMATION_WITH_SPECIFIED_SOURCE('','',#24,.NOT_KNOWN.);
#25=PRODUCT_DEFINITION('design','',#1784,#1782);
#23=PRODUCT_DEFINITION_SHAPE('','',#25);
#1785=SHAPE_DEFINITION_REPRESENTATION(#23,#16);
#11=DRAUGHTING_MODEL('',(#1778),#10);
#1786=DESCRIPTIVE_REPRESENTATION_ITEM('KEY','/Users/quimgraellsolive/Library/Containers/com.shapr3d.shapr/Data/tmp/188C7861-3683-4A18-B522-026948B5C325.tmp');
#1787=PROPERTY_DEFINITION('KEY','',#25);
#1788=REPRESENTATION('',(#1786),#10);
#1789=PROPERTY_DEFINITION_REPRESENTATION(#1787,#1788);
#1790=GENERAL_PROPERTY('','KEY','');
#1791=GENERAL_PROPERTY_ASSOCIATION('','',#1790,#1787);
#1=MECHANICAL_DESIGN_GEOMETRIC_PRESENTATION_REPRESENTATION('',(#26),#10);
ENDSEC;
END-ISO-10303-21;
