ISO-10303-21;
HEADER;

/* File generated by Shapr3D Version 5.831.0.8630 */

FILE_DESCRIPTION(('HOOPS Exchange Step'),'2;1');

FILE_NAME('/Users/quimgraellsolive/Library/Containers/com.shapr3d.shapr/Data/tmp/export/temp_export',
'2025-04-22T23:22:57+02:00',
('quimgraellsolive'),
('Shapr3D Limited'),
'HOOPS Exchange 2024.8',
'Shapr3D',
'Authorized');

FILE_SCHEMA( ('AP242_MANAGED_MODEL_BASED_3D_ENGINEERING_MIM_LF {1 0 10303 442 1 1 4}') );

ENDSEC;

DATA;
#3=(NAMED_UNIT(*)PLANE_ANGLE_UNIT()SI_UNIT($,.RADIAN.));
#4=PLANE_ANGLE_MEASURE_WITH_UNIT(PLANE_ANGLE_MEASURE(0.0174532925),#3);
#5=(CONVERSION_BASED_UNIT('DEGREE',#4)NAMED_UNIT(#6)PLANE_ANGLE_UNIT());
#6=DIMENSIONAL_EXPONENTS(0.,0.,0.,0.,0.,0.,0.);
#7=(NAMED_UNIT(*)SI_UNIT($,.STERADIAN.)SOLID_ANGLE_UNIT());
#8=(LENGTH_UNIT()NAMED_UNIT(*)SI_UNIT(.MILLI.,.METRE.));
#9=UNCERTAINTY_MEASURE_WITH_UNIT(LENGTH_MEASURE(1.000000E-05),#8,'DISTANCE_ACCURACY_VALUE','Maximum Tolerance applied to model');
#10=(GEOMETRIC_REPRESENTATION_CONTEXT(3)GLOBAL_UNCERTAINTY_ASSIGNED_CONTEXT((#9))GLOBAL_UNIT_ASSIGNED_CONTEXT((#8,#5,#7))REPRESENTATION_CONTEXT('','Ball'));
#12=CARTESIAN_POINT('',(0.,0.,0.));
#13=DIRECTION('',(0.,0.,1.));
#14=DIRECTION('',(1.,0.,0.));
#15=AXIS2_PLACEMENT_3D('TS3D_PRODUCT_CSYS',#12,#13,#14);
#27=CARTESIAN_POINT('',(164.159173913,100.695456722,153.805428842));
#28=DIRECTION('',(-0.000000036,0.999999702,0.000772171));
#29=DIRECTION('',(-0.999999999,-0.,-0.000047249));
#30=AXIS2_PLACEMENT_3D('',#27,#28,#29);
#31=PLANE('',#30);
#32=CARTESIAN_POINT('',(164.160065172,100.710022329,134.942242816));
#33=VERTEX_POINT('',#32);
#34=CARTESIAN_POINT('',(164.160118885,100.710900139,133.805434826));
#35=VERTEX_POINT('',#34);
#36=CARTESIAN_POINT('',(164.160065172,100.710022329,134.942242816));
#37=DIRECTION('',(0.000047249,0.000772171,-0.999999701));
#38=VECTOR('',#37,1.136808329);
#39=LINE('',#36,#38);
#40=EDGE_CURVE('',#33,#35,#39,.T.);
#41=ORIENTED_EDGE('',*,*,#40,.T.);
#42=CARTESIAN_POINT('',(154.760118895,100.710900139,133.80499069));
#43=VERTEX_POINT('',#42);
#44=CARTESIAN_POINT('',(164.160118885,100.710900139,133.805434826));
#45=DIRECTION('',(-0.999999999,-0.,-0.000047249));
#46=VECTOR('',#45,9.4);
#47=LINE('',#44,#46);
#48=EDGE_CURVE('',#35,#43,#47,.T.);
#49=ORIENTED_EDGE('',*,*,#48,.T.);
#50=CARTESIAN_POINT('',(154.760065182,100.710022329,134.941798679));
#51=VERTEX_POINT('',#50);
#52=CARTESIAN_POINT('',(154.760065182,100.710022329,134.941798679));
#53=DIRECTION('',(0.000047249,0.000772171,-0.999999701));
#54=VECTOR('',#53,1.136808329);
#55=LINE('',#52,#54);
#56=EDGE_CURVE('',#51,#43,#55,.T.);
#57=ORIENTED_EDGE('',*,*,#56,.F.);
#58=CARTESIAN_POINT('',(164.160065172,100.710022329,134.942242816));
#59=CARTESIAN_POINT('',(159.460120508,100.71092659,133.770957346));
#60=CARTESIAN_POINT('',(154.760065182,100.710022329,134.941798679));
#61=(BOUNDED_CURVE()
B_SPLINE_CURVE(2,(#58,#59,#60),.UNSPECIFIED.,.F.,.F.)
B_SPLINE_CURVE_WITH_KNOTS((3,3),(0.,27.982144071),.UNSPECIFIED.)
CURVE()
GEOMETRIC_REPRESENTATION_ITEM()
RATIONAL_B_SPLINE_CURVE((1.,0.970333411,1.))
REPRESENTATION_ITEM(''));
#62=EDGE_CURVE('',#33,#51,#61,.T.);
#63=ORIENTED_EDGE('',*,*,#62,.F.);
#64=EDGE_LOOP('',(#41,#49,#57,#63));
#65=FACE_BOUND('',#64,.T.);
#66=ADVANCED_FACE('',(#65),#31,.T.);
#67=CARTESIAN_POINT('',(159.45917409,95.995458123,153.80157757));
#68=DIRECTION('',(-0.999999999,-0.,-0.000047249));
#69=DIRECTION('',(0.000047249,0.000772171,-0.999999701));
#70=AXIS2_PLACEMENT_3D('',#67,#68,#69);
#71=SPHERICAL_SURFACE('',#70,20.);
#72=CARTESIAN_POINT('',(164.160092592,96.010469053,134.361898049));
#73=VERTEX_POINT('',#72);
#74=CARTESIAN_POINT('',(179.459174068,95.995458123,153.802522542));
#75=VERTEX_POINT('',#74);
#76=CARTESIAN_POINT('',(159.45917409,95.995458123,153.80157757));
#77=DIRECTION('',(0.000000036,-0.999999702,-0.000772171));
#78=DIRECTION('',(0.000047249,0.000772171,-0.999999701));
#79=AXIS2_PLACEMENT_3D('',#76,#77,#78);
#80=CIRCLE('',#79,20.);
#81=EDGE_CURVE('',#73,#75,#80,.T.);
#82=ORIENTED_EDGE('',*,*,#81,.T.);
#83=ORIENTED_EDGE('',*,*,#81,.F.);
#84=CARTESIAN_POINT('',(164.159174085,95.995458123,153.801799639));
#85=DIRECTION('',(-0.999999999,-0.,-0.000047249));
#86=DIRECTION('',(-0.000047249,-0.000772171,0.999999701));
#87=AXIS2_PLACEMENT_3D('',#84,#85,#86);
#88=CIRCLE('',#87,19.439907407);
#89=EDGE_CURVE('',#33,#73,#88,.T.);
#90=ORIENTED_EDGE('',*,*,#89,.F.);
#91=ORIENTED_EDGE('',*,*,#62,.T.);
#92=CARTESIAN_POINT('',(154.760092603,96.010469053,134.361453912));
#93=VERTEX_POINT('',#92);
#94=CARTESIAN_POINT('',(154.759174095,95.995458123,153.801355502));
#95=DIRECTION('',(-0.999999999,-0.,-0.000047249));
#96=DIRECTION('',(-0.000047249,-0.000772171,0.999999701));
#97=AXIS2_PLACEMENT_3D('',#94,#95,#96);
#98=CIRCLE('',#97,19.439907407);
#99=EDGE_CURVE('',#51,#93,#98,.T.);
#100=ORIENTED_EDGE('',*,*,#99,.T.);
#101=CARTESIAN_POINT('',(139.459174112,95.995458123,153.800632599));
#102=VERTEX_POINT('',#101);
#103=CARTESIAN_POINT('',(159.45917409,95.995458123,153.80157757));
#104=DIRECTION('',(0.000000036,-0.999999702,-0.000772171));
#105=DIRECTION('',(0.000047249,0.000772171,-0.999999701));
#106=AXIS2_PLACEMENT_3D('',#103,#104,#105);
#107=CIRCLE('',#106,20.);
#108=EDGE_CURVE('',#102,#93,#107,.T.);
#109=ORIENTED_EDGE('',*,*,#108,.F.);
#110=ORIENTED_EDGE('',*,*,#108,.T.);
#111=CARTESIAN_POINT('',(154.760065525,91.310025131,134.934540273));
#112=VERTEX_POINT('',#111);
#113=CARTESIAN_POINT('',(154.759174095,95.995458123,153.801355502));
#114=DIRECTION('',(-0.999999999,-0.,-0.000047249));
#115=DIRECTION('',(-0.000047249,-0.000772171,0.999999701));
#116=AXIS2_PLACEMENT_3D('',#113,#114,#115);
#117=CIRCLE('',#116,19.439907407);
#118=EDGE_CURVE('',#93,#112,#117,.T.);
#119=ORIENTED_EDGE('',*,*,#118,.T.);
#120=CARTESIAN_POINT('',(164.160065515,91.310025131,134.93498441));
#121=VERTEX_POINT('',#120);
#122=CARTESIAN_POINT('',(154.760065525,91.310025131,134.934540273));
#123=CARTESIAN_POINT('',(159.460120851,91.310929393,133.763698941));
#124=CARTESIAN_POINT('',(164.160065515,91.310025131,134.93498441));
#125=(BOUNDED_CURVE()
B_SPLINE_CURVE(2,(#122,#123,#124),.UNSPECIFIED.,.F.,.F.)
B_SPLINE_CURVE_WITH_KNOTS((3,3),(0.,27.982144071),.UNSPECIFIED.)
CURVE()
GEOMETRIC_REPRESENTATION_ITEM()
RATIONAL_B_SPLINE_CURVE((1.,0.970333411,1.))
REPRESENTATION_ITEM(''));
#126=EDGE_CURVE('',#112,#121,#125,.T.);
#127=ORIENTED_EDGE('',*,*,#126,.T.);
#128=CARTESIAN_POINT('',(164.159174085,95.995458123,153.801799639));
#129=DIRECTION('',(-0.999999999,-0.,-0.000047249));
#130=DIRECTION('',(-0.000047249,-0.000772171,0.999999701));
#131=AXIS2_PLACEMENT_3D('',#128,#129,#130);
#132=CIRCLE('',#131,19.439907407);
#133=EDGE_CURVE('',#73,#121,#132,.T.);
#134=ORIENTED_EDGE('',*,*,#133,.F.);
#135=EDGE_LOOP('',(#82,#83,#90,#91,#100,#109,#110,#119,#127,#134));
#136=FACE_BOUND('',#135,.T.);
#137=ADVANCED_FACE('',(#136),#71,.T.);
#138=CARTESIAN_POINT('',(154.759173924,100.695456722,153.804984705));
#139=DIRECTION('',(-0.999999999,-0.,-0.000047249));
#140=DIRECTION('',(0.000000036,-0.999999702,-0.000772171));
#141=AXIS2_PLACEMENT_3D('',#138,#139,#140);
#142=PLANE('',#141);
#143=ORIENTED_EDGE('',*,*,#118,.F.);
#144=ORIENTED_EDGE('',*,*,#99,.F.);
#145=ORIENTED_EDGE('',*,*,#56,.T.);
#146=CARTESIAN_POINT('',(154.760119238,91.310902942,133.797732284));
#147=VERTEX_POINT('',#146);
#148=CARTESIAN_POINT('',(154.760118895,100.710900139,133.80499069));
#149=DIRECTION('',(0.000000036,-0.999999702,-0.000772171));
#150=VECTOR('',#149,9.4);
#151=LINE('',#148,#150);
#152=EDGE_CURVE('',#43,#147,#151,.T.);
#153=ORIENTED_EDGE('',*,*,#152,.T.);
#154=CARTESIAN_POINT('',(154.760065525,91.310025131,134.934540273));
#155=DIRECTION('',(0.000047249,0.000772171,-0.999999701));
#156=VECTOR('',#155,1.136808329);
#157=LINE('',#154,#156);
#158=EDGE_CURVE('',#112,#147,#157,.T.);
#159=ORIENTED_EDGE('',*,*,#158,.F.);
#160=EDGE_LOOP('',(#143,#144,#145,#153,#159));
#161=FACE_BOUND('',#160,.T.);
#162=ADVANCED_FACE('',(#161),#142,.T.);
#163=CARTESIAN_POINT('',(164.159174256,91.295459525,153.798170436));
#164=DIRECTION('',(0.999999999,0.,0.000047249));
#165=DIRECTION('',(-0.000000036,0.999999702,0.000772171));
#166=AXIS2_PLACEMENT_3D('',#163,#164,#165);
#167=PLANE('',#166);
#168=CARTESIAN_POINT('',(164.160119227,91.310902942,133.79817642));
#169=VERTEX_POINT('',#168);
#170=CARTESIAN_POINT('',(164.160065515,91.310025131,134.93498441));
#171=DIRECTION('',(0.000047249,0.000772171,-0.999999701));
#172=VECTOR('',#171,1.136808329);
#173=LINE('',#170,#172);
#174=EDGE_CURVE('',#121,#169,#173,.T.);
#175=ORIENTED_EDGE('',*,*,#174,.T.);
#176=CARTESIAN_POINT('',(164.160119227,91.310902942,133.79817642));
#177=DIRECTION('',(-0.000000036,0.999999702,0.000772171));
#178=VECTOR('',#177,9.4);
#179=LINE('',#176,#178);
#180=EDGE_CURVE('',#169,#35,#179,.T.);
#181=ORIENTED_EDGE('',*,*,#180,.T.);
#182=ORIENTED_EDGE('',*,*,#40,.F.);
#183=ORIENTED_EDGE('',*,*,#89,.T.);
#184=ORIENTED_EDGE('',*,*,#133,.T.);
#185=EDGE_LOOP('',(#175,#181,#182,#183,#184));
#186=FACE_BOUND('',#185,.T.);
#187=ADVANCED_FACE('',(#186),#167,.T.);
#188=CARTESIAN_POINT('',(159.460119061,96.01090154,133.801583555));
#189=DIRECTION('',(-0.000047249,-0.000772171,0.999999701));
#190=DIRECTION('',(-0.000000036,0.999999702,0.000772171));
#191=AXIS2_PLACEMENT_3D('',#188,#189,#190);
#192=PLANE('',#191);
#193=ORIENTED_EDGE('',*,*,#48,.F.);
#194=ORIENTED_EDGE('',*,*,#180,.F.);
#195=CARTESIAN_POINT('',(154.760119238,91.310902942,133.797732284));
#196=DIRECTION('',(0.999999999,0.,0.000047249));
#197=VECTOR('',#196,9.4);
#198=LINE('',#195,#197);
#199=EDGE_CURVE('',#147,#169,#198,.T.);
#200=ORIENTED_EDGE('',*,*,#199,.F.);
#201=ORIENTED_EDGE('',*,*,#152,.F.);
#202=EDGE_LOOP('',(#193,#194,#200,#201));
#203=FACE_BOUND('',#202,.T.);
#204=ADVANCED_FACE('',(#203),#192,.F.);
#205=CARTESIAN_POINT('',(154.759174267,91.295459525,153.797726299));
#206=DIRECTION('',(0.000000036,-0.999999702,-0.000772171));
#207=DIRECTION('',(0.999999999,0.,0.000047249));
#208=AXIS2_PLACEMENT_3D('',#205,#206,#207);
#209=PLANE('',#208);
#210=ORIENTED_EDGE('',*,*,#158,.T.);
#211=ORIENTED_EDGE('',*,*,#199,.T.);
#212=ORIENTED_EDGE('',*,*,#174,.F.);
#213=ORIENTED_EDGE('',*,*,#126,.F.);
#214=EDGE_LOOP('',(#210,#211,#212,#213));
#215=FACE_BOUND('',#214,.T.);
#216=ADVANCED_FACE('',(#215),#209,.T.);
#217=CLOSED_SHELL('',(#66,#137,#162,#187,#204,#216));
#218=CARTESIAN_POINT('',(164.159173913,100.695456722,153.805428842));
#219=DIRECTION('',(-0.000000036,0.999999702,0.000772171));
#220=DIRECTION('',(-0.999999999,-0.,-0.000047249));
#221=AXIS2_PLACEMENT_3D('',#218,#219,#220);
#222=PLANE('',#221);
#223=CARTESIAN_POINT('',(164.159973949,100.708531493,136.87294998));
#224=VERTEX_POINT('',#223);
#225=CARTESIAN_POINT('',(154.759973959,100.708531493,136.872505844));
#226=VERTEX_POINT('',#225);
#227=CARTESIAN_POINT('',(164.159973949,100.708531493,136.87294998));
#228=CARTESIAN_POINT('',(159.460035594,100.709538861,135.568135303));
#229=CARTESIAN_POINT('',(154.759973959,100.708531493,136.872505844));
#230=(BOUNDED_CURVE()
B_SPLINE_CURVE(2,(#227,#228,#229),.UNSPECIFIED.,.F.,.F.)
B_SPLINE_CURVE_WITH_KNOTS((3,3),(0.,31.026433699),.UNSPECIFIED.)
CURVE()
GEOMETRIC_REPRESENTATION_ITEM()
RATIONAL_B_SPLINE_CURVE((1.,0.963568782,1.))
REPRESENTATION_ITEM(''));
#231=EDGE_CURVE('',#224,#226,#230,.T.);
#232=ORIENTED_EDGE('',*,*,#231,.T.);
#233=CARTESIAN_POINT('',(154.759173924,100.695456722,153.804984705));
#234=VERTEX_POINT('',#233);
#235=CARTESIAN_POINT('',(154.759173924,100.695456722,153.804984705));
#236=DIRECTION('',(0.000047249,0.000772171,-0.999999701));
#237=VECTOR('',#236,16.932483928);
#238=LINE('',#235,#237);
#239=EDGE_CURVE('',#234,#226,#238,.T.);
#240=ORIENTED_EDGE('',*,*,#239,.F.);
#241=CARTESIAN_POINT('',(164.159173913,100.695456722,153.805428842));
#242=VERTEX_POINT('',#241);
#243=CARTESIAN_POINT('',(164.159173913,100.695456722,153.805428842));
#244=DIRECTION('',(-0.999999999,-0.,-0.000047249));
#245=VECTOR('',#244,9.4);
#246=LINE('',#243,#245);
#247=EDGE_CURVE('',#242,#234,#246,.T.);
#248=ORIENTED_EDGE('',*,*,#247,.F.);
#249=CARTESIAN_POINT('',(164.159173913,100.695456722,153.805428842));
#250=DIRECTION('',(0.000047249,0.000772171,-0.999999701));
#251=VECTOR('',#250,16.932483928);
#252=LINE('',#249,#251);
#253=EDGE_CURVE('',#242,#224,#252,.T.);
#254=ORIENTED_EDGE('',*,*,#253,.T.);
#255=EDGE_LOOP('',(#232,#240,#248,#254));
#256=FACE_BOUND('',#255,.T.);
#257=ADVANCED_FACE('',(#256),#222,.T.);
#258=CARTESIAN_POINT('',(159.45917409,95.995458123,153.80157757));
#259=DIRECTION('',(-0.999999999,-0.,-0.000047249));
#260=DIRECTION('',(0.000047249,0.000772171,-0.999999701));
#261=AXIS2_PLACEMENT_3D('',#258,#259,#260);
#262=SPHERICAL_SURFACE('',#261,18.190354916);
#263=CARTESIAN_POINT('',(164.160004369,96.009027233,136.2291269));
#264=VERTEX_POINT('',#263);
#265=CARTESIAN_POINT('',(177.649528986,95.995458123,153.802437039));
#266=VERTEX_POINT('',#265);
#267=CARTESIAN_POINT('',(159.45917409,95.995458123,153.80157757));
#268=DIRECTION('',(0.000000036,-0.999999702,-0.000772171));
#269=DIRECTION('',(0.000047249,0.000772171,-0.999999701));
#270=AXIS2_PLACEMENT_3D('',#267,#268,#269);
#271=CIRCLE('',#270,18.190354916);
#272=EDGE_CURVE('',#264,#266,#271,.T.);
#273=ORIENTED_EDGE('',*,*,#272,.F.);
#274=CARTESIAN_POINT('',(164.159974292,91.308534295,136.865691574));
#275=VERTEX_POINT('',#274);
#276=CARTESIAN_POINT('',(164.159174085,95.995458123,153.801799639));
#277=DIRECTION('',(-0.999999999,-0.,-0.000047249));
#278=DIRECTION('',(-0.000047249,-0.000772171,0.999999701));
#279=AXIS2_PLACEMENT_3D('',#276,#277,#278);
#280=CIRCLE('',#279,17.572677997);
#281=EDGE_CURVE('',#264,#275,#280,.T.);
#282=ORIENTED_EDGE('',*,*,#281,.T.);
#283=CARTESIAN_POINT('',(154.759974302,91.308534295,136.865247438));
#284=VERTEX_POINT('',#283);
#285=CARTESIAN_POINT('',(154.759974302,91.308534295,136.865247438));
#286=CARTESIAN_POINT('',(159.460035937,91.309541664,135.560876897));
#287=CARTESIAN_POINT('',(164.159974292,91.308534295,136.865691574));
#288=(BOUNDED_CURVE()
B_SPLINE_CURVE(2,(#285,#286,#287),.UNSPECIFIED.,.F.,.F.)
B_SPLINE_CURVE_WITH_KNOTS((3,3),(0.,31.026433699),.UNSPECIFIED.)
CURVE()
GEOMETRIC_REPRESENTATION_ITEM()
RATIONAL_B_SPLINE_CURVE((1.,0.963568782,1.))
REPRESENTATION_ITEM(''));
#289=EDGE_CURVE('',#284,#275,#288,.T.);
#290=ORIENTED_EDGE('',*,*,#289,.F.);
#291=CARTESIAN_POINT('',(154.760004379,96.009027233,136.228682764));
#292=VERTEX_POINT('',#291);
#293=CARTESIAN_POINT('',(154.759174095,95.995458123,153.801355502));
#294=DIRECTION('',(-0.999999999,-0.,-0.000047249));
#295=DIRECTION('',(-0.000047249,-0.000772171,0.999999701));
#296=AXIS2_PLACEMENT_3D('',#293,#294,#295);
#297=CIRCLE('',#296,17.572677997);
#298=EDGE_CURVE('',#292,#284,#297,.T.);
#299=ORIENTED_EDGE('',*,*,#298,.F.);
#300=CARTESIAN_POINT('',(141.268819194,95.995458123,153.800718102));
#301=VERTEX_POINT('',#300);
#302=CARTESIAN_POINT('',(159.45917409,95.995458123,153.80157757));
#303=DIRECTION('',(0.000000036,-0.999999702,-0.000772171));
#304=DIRECTION('',(0.000047249,0.000772171,-0.999999701));
#305=AXIS2_PLACEMENT_3D('',#302,#303,#304);
#306=CIRCLE('',#305,18.190354916);
#307=EDGE_CURVE('',#301,#292,#306,.T.);
#308=ORIENTED_EDGE('',*,*,#307,.F.);
#309=ORIENTED_EDGE('',*,*,#307,.T.);
#310=CARTESIAN_POINT('',(154.759174095,95.995458123,153.801355502));
#311=DIRECTION('',(-0.999999999,-0.,-0.000047249));
#312=DIRECTION('',(-0.000047249,-0.000772171,0.999999701));
#313=AXIS2_PLACEMENT_3D('',#310,#311,#312);
#314=CIRCLE('',#313,17.572677997);
#315=EDGE_CURVE('',#226,#292,#314,.T.);
#316=ORIENTED_EDGE('',*,*,#315,.F.);
#317=ORIENTED_EDGE('',*,*,#231,.F.);
#318=CARTESIAN_POINT('',(164.159174085,95.995458123,153.801799639));
#319=DIRECTION('',(-0.999999999,-0.,-0.000047249));
#320=DIRECTION('',(-0.000047249,-0.000772171,0.999999701));
#321=AXIS2_PLACEMENT_3D('',#318,#319,#320);
#322=CIRCLE('',#321,17.572677997);
#323=EDGE_CURVE('',#224,#264,#322,.T.);
#324=ORIENTED_EDGE('',*,*,#323,.T.);
#325=ORIENTED_EDGE('',*,*,#272,.T.);
#326=EDGE_LOOP('',(#273,#282,#290,#299,#308,#309,#316,#317,#324,#325));
#327=FACE_BOUND('',#326,.T.);
#328=ADVANCED_FACE('',(#327),#262,.F.);
#329=CARTESIAN_POINT('',(154.759173924,100.695456722,153.804984705));
#330=DIRECTION('',(-0.999999999,-0.,-0.000047249));
#331=DIRECTION('',(0.000000036,-0.999999702,-0.000772171));
#332=AXIS2_PLACEMENT_3D('',#329,#330,#331);
#333=PLANE('',#332);
#334=ORIENTED_EDGE('',*,*,#315,.T.);
#335=ORIENTED_EDGE('',*,*,#298,.T.);
#336=CARTESIAN_POINT('',(154.759174267,91.295459525,153.797726299));
#337=VERTEX_POINT('',#336);
#338=CARTESIAN_POINT('',(154.759174267,91.295459525,153.797726299));
#339=DIRECTION('',(0.000047249,0.000772171,-0.999999701));
#340=VECTOR('',#339,16.932483928);
#341=LINE('',#338,#340);
#342=EDGE_CURVE('',#337,#284,#341,.T.);
#343=ORIENTED_EDGE('',*,*,#342,.F.);
#344=CARTESIAN_POINT('',(154.759173924,100.695456722,153.804984705));
#345=DIRECTION('',(0.000000036,-0.999999702,-0.000772171));
#346=VECTOR('',#345,9.4);
#347=LINE('',#344,#346);
#348=EDGE_CURVE('',#234,#337,#347,.T.);
#349=ORIENTED_EDGE('',*,*,#348,.F.);
#350=ORIENTED_EDGE('',*,*,#239,.T.);
#351=EDGE_LOOP('',(#334,#335,#343,#349,#350));
#352=FACE_BOUND('',#351,.T.);
#353=ADVANCED_FACE('',(#352),#333,.T.);
#354=CARTESIAN_POINT('',(164.159174256,91.295459525,153.798170436));
#355=DIRECTION('',(0.999999999,0.,0.000047249));
#356=DIRECTION('',(-0.000000036,0.999999702,0.000772171));
#357=AXIS2_PLACEMENT_3D('',#354,#355,#356);
#358=PLANE('',#357);
#359=CARTESIAN_POINT('',(164.159174256,91.295459525,153.798170436));
#360=VERTEX_POINT('',#359);
#361=CARTESIAN_POINT('',(164.159174256,91.295459525,153.798170436));
#362=DIRECTION('',(0.000047249,0.000772171,-0.999999701));
#363=VECTOR('',#362,16.932483928);
#364=LINE('',#361,#363);
#365=EDGE_CURVE('',#360,#275,#364,.T.);
#366=ORIENTED_EDGE('',*,*,#365,.T.);
#367=ORIENTED_EDGE('',*,*,#281,.F.);
#368=ORIENTED_EDGE('',*,*,#323,.F.);
#369=ORIENTED_EDGE('',*,*,#253,.F.);
#370=CARTESIAN_POINT('',(164.159174256,91.295459525,153.798170436));
#371=DIRECTION('',(-0.000000036,0.999999702,0.000772171));
#372=VECTOR('',#371,9.4);
#373=LINE('',#370,#372);
#374=EDGE_CURVE('',#360,#242,#373,.T.);
#375=ORIENTED_EDGE('',*,*,#374,.F.);
#376=EDGE_LOOP('',(#366,#367,#368,#369,#375));
#377=FACE_BOUND('',#376,.T.);
#378=ADVANCED_FACE('',(#377),#358,.T.);
#379=CARTESIAN_POINT('',(159.45917409,95.995458123,153.80157757));
#380=DIRECTION('',(-0.000047249,-0.000772171,0.999999701));
#381=DIRECTION('',(-0.000000036,0.999999702,0.000772171));
#382=AXIS2_PLACEMENT_3D('',#379,#380,#381);
#383=PLANE('',#382);
#384=ORIENTED_EDGE('',*,*,#348,.T.);
#385=CARTESIAN_POINT('',(154.759174267,91.295459525,153.797726299));
#386=DIRECTION('',(0.999999999,0.,0.000047249));
#387=VECTOR('',#386,9.4);
#388=LINE('',#385,#387);
#389=EDGE_CURVE('',#337,#360,#388,.T.);
#390=ORIENTED_EDGE('',*,*,#389,.T.);
#391=ORIENTED_EDGE('',*,*,#374,.T.);
#392=ORIENTED_EDGE('',*,*,#247,.T.);
#393=EDGE_LOOP('',(#384,#390,#391,#392));
#394=FACE_BOUND('',#393,.T.);
#395=ADVANCED_FACE('',(#394),#383,.T.);
#396=CARTESIAN_POINT('',(154.759174267,91.295459525,153.797726299));
#397=DIRECTION('',(0.000000036,-0.999999702,-0.000772171));
#398=DIRECTION('',(0.999999999,0.,0.000047249));
#399=AXIS2_PLACEMENT_3D('',#396,#397,#398);
#400=PLANE('',#399);
#401=ORIENTED_EDGE('',*,*,#289,.T.);
#402=ORIENTED_EDGE('',*,*,#365,.F.);
#403=ORIENTED_EDGE('',*,*,#389,.F.);
#404=ORIENTED_EDGE('',*,*,#342,.T.);
#405=EDGE_LOOP('',(#401,#402,#403,#404));
#406=FACE_BOUND('',#405,.T.);
#407=ADVANCED_FACE('',(#406),#400,.T.);
#408=CLOSED_SHELL('',(#257,#328,#353,#378,#395,#407));
#409=ORIENTED_CLOSED_SHELL('',*,#408,.T.);
#410=BREP_WITH_VOIDS('Ball',#217,(#409));
#411=COLOUR_RGB('',1.,0.721568644,0.156862751);
#412=FILL_AREA_STYLE_COLOUR('',#411);
#413=FILL_AREA_STYLE('',(#412));
#414=SURFACE_STYLE_FILL_AREA(#413);
#415=SURFACE_SIDE_STYLE('',(#414));
#416=SURFACE_STYLE_USAGE(.BOTH.,#415);
#417=PRESENTATION_STYLE_ASSIGNMENT((#416));
#26=STYLED_ITEM('',(#417),#410);
#16=SHAPE_REPRESENTATION('Ball',(#15),#10);
#17=ADVANCED_BREP_SHAPE_REPRESENTATION('Ball',(#410),#10);
#425=SHAPE_REPRESENTATION_RELATIONSHIP('','',#16,#17);
#426=CARTESIAN_POINT('',(0.,0.,0.));
#427=DIRECTION('',(0.,0.,1.));
#428=DIRECTION('',(1.,0.,0.));
#429=AXIS2_PLACEMENT_3D('',#426,#427,#428);
#431=MAPPED_ITEM('',#430,#429);
#430=REPRESENTATION_MAP(#429,#16);
#432=APPLICATION_CONTEXT('Managed model based 3d engineering');
#433=APPLICATION_PROTOCOL_DEFINITION('international standard','ap242_managed_model_based_3d_engineering',2014,#432);
#434=PRODUCT_CONTEXT('',#432,'mechanical');
#435=PRODUCT_DEFINITION_CONTEXT('part definition',#432,'design');
#24=PRODUCT('Ball','Ball','',(#434));
#436=PRODUCT_RELATED_PRODUCT_CATEGORY('part','',(#24));
#437=PRODUCT_DEFINITION_FORMATION_WITH_SPECIFIED_SOURCE('','',#24,.NOT_KNOWN.);
#25=PRODUCT_DEFINITION('design','',#437,#435);
#23=PRODUCT_DEFINITION_SHAPE('','',#25);
#438=SHAPE_DEFINITION_REPRESENTATION(#23,#16);
#11=DRAUGHTING_MODEL('',(#431),#10);
#439=DESCRIPTIVE_REPRESENTATION_ITEM('KEY','/Users/quimgraellsolive/Library/Containers/com.shapr3d.shapr/Data/tmp/487575BB-865E-47C9-8B7B-8E1B87BA9571.tmp');
#440=PROPERTY_DEFINITION('KEY','',#25);
#441=REPRESENTATION('',(#439),#10);
#442=PROPERTY_DEFINITION_REPRESENTATION(#440,#441);
#443=GENERAL_PROPERTY('','KEY','');
#444=GENERAL_PROPERTY_ASSOCIATION('','',#443,#440);
#1=MECHANICAL_DESIGN_GEOMETRIC_PRESENTATION_REPRESENTATION('',(#26),#10);
ENDSEC;
END-ISO-10303-21;
