ISO-10303-21;
HEADER;

/* File generated by Shapr3D Version 5.831.0.8630 */

FILE_DESCRIPTION(('HOOPS Exchange Step'),'2;1');

FILE_NAME('/Users/quimgraellsolive/Library/Containers/com.shapr3d.shapr/Data/tmp/export/temp_export',
'2025-04-22T23:22:57+02:00',
('quimgraellsolive'),
('Shapr3D Limited'),
'HOOPS Exchange 2024.8',
'Shapr3D',
'Authorized');

FILE_SCHEMA( ('AP242_MANAGED_MODEL_BASED_3D_ENGINEERING_MIM_LF {1 0 10303 442 1 1 4}') );

ENDSEC;

DATA;
#3=(NAMED_UNIT(*)PLANE_ANGLE_UNIT()SI_UNIT($,.RADIAN.));
#4=PLANE_ANGLE_MEASURE_WITH_UNIT(PLANE_ANGLE_MEASURE(0.0174532925),#3);
#5=(CONVERSION_BASED_UNIT('DEGREE',#4)NAMED_UNIT(#6)PLANE_ANGLE_UNIT());
#6=DIMENSIONAL_EXPONENTS(0.,0.,0.,0.,0.,0.,0.);
#7=(NAMED_UNIT(*)SI_UNIT($,.STERADIAN.)SOLID_ANGLE_UNIT());
#8=(LENGTH_UNIT()NAMED_UNIT(*)SI_UNIT(.MILLI.,.METRE.));
#9=UNCERTAINTY_MEASURE_WITH_UNIT(LENGTH_MEASURE(1.000000E-05),#8,'DISTANCE_ACCURACY_VALUE','Maximum Tolerance applied to model');
#10=(GEOMETRIC_REPRESENTATION_CONTEXT(3)GLOBAL_UNCERTAINTY_ASSIGNED_CONTEXT((#9))GLOBAL_UNIT_ASSIGNED_CONTEXT((#8,#5,#7))REPRESENTATION_CONTEXT('','BASE_V4_2'));
#12=CARTESIAN_POINT('',(0.,0.,0.));
#13=DIRECTION('',(0.,0.,1.));
#14=DIRECTION('',(1.,0.,0.));
#15=AXIS2_PLACEMENT_3D('TS3D_PRODUCT_CSYS',#12,#13,#14);
#27=CARTESIAN_POINT('',(8.125511812,11.65437033,0.017693924));
#28=DIRECTION('',(0.,-1.,0.));
#29=DIRECTION('',(1.,0.,0.));
#30=AXIS2_PLACEMENT_3D('',#27,#28,#29);
#31=PLANE('',#30);
#32=CARTESIAN_POINT('',(13.125511812,11.65437033,3.517693924));
#33=VERTEX_POINT('',#32);
#34=CARTESIAN_POINT('',(158.125511812,11.65437033,3.517693924));
#35=VERTEX_POINT('',#34);
#36=CARTESIAN_POINT('',(13.125511812,11.65437033,3.517693924));
#37=DIRECTION('',(1.,0.,-0.));
#38=VECTOR('',#37,145.);
#39=LINE('',#36,#38);
#40=EDGE_CURVE('',#33,#35,#39,.T.);
#41=ORIENTED_EDGE('',*,*,#40,.F.);
#42=CARTESIAN_POINT('',(13.125511812,11.65437033,0.017693924));
#43=VERTEX_POINT('',#42);
#44=CARTESIAN_POINT('',(13.125511812,11.65437033,0.017693924));
#45=DIRECTION('',(0.,0.,1.));
#46=VECTOR('',#45,3.5);
#47=LINE('',#44,#46);
#48=EDGE_CURVE('',#43,#33,#47,.T.);
#49=ORIENTED_EDGE('',*,*,#48,.F.);
#50=CARTESIAN_POINT('',(158.125511812,11.65437033,0.017693924));
#51=VERTEX_POINT('',#50);
#52=CARTESIAN_POINT('',(13.125511812,11.65437033,0.017693924));
#53=DIRECTION('',(1.,0.,-0.));
#54=VECTOR('',#53,145.);
#55=LINE('',#52,#54);
#56=EDGE_CURVE('',#43,#51,#55,.T.);
#57=ORIENTED_EDGE('',*,*,#56,.T.);
#58=CARTESIAN_POINT('',(158.125511812,11.65437033,0.017693924));
#59=DIRECTION('',(0.,0.,1.));
#60=VECTOR('',#59,3.5);
#61=LINE('',#58,#60);
#62=EDGE_CURVE('',#51,#35,#61,.T.);
#63=ORIENTED_EDGE('',*,*,#62,.T.);
#64=EDGE_LOOP('',(#41,#49,#57,#63));
#65=FACE_BOUND('',#64,.T.);
#66=ADVANCED_FACE('',(#65),#31,.T.);
#67=CARTESIAN_POINT('',(13.125511812,161.65437033,0.017693924));
#68=DIRECTION('',(-1.,0.,0.));
#69=DIRECTION('',(0.,-1.,0.));
#70=AXIS2_PLACEMENT_3D('',#67,#68,#69);
#71=PLANE('',#70);
#72=ORIENTED_EDGE('',*,*,#48,.T.);
#73=CARTESIAN_POINT('',(13.125511812,161.65437033,3.517693924));
#74=VERTEX_POINT('',#73);
#75=CARTESIAN_POINT('',(13.125511812,11.65437033,3.517693924));
#76=DIRECTION('',(0.,1.,-0.));
#77=VECTOR('',#76,150.);
#78=LINE('',#75,#77);
#79=EDGE_CURVE('',#33,#74,#78,.T.);
#80=ORIENTED_EDGE('',*,*,#79,.T.);
#81=CARTESIAN_POINT('',(13.125511812,161.65437033,0.017693924));
#82=VERTEX_POINT('',#81);
#83=CARTESIAN_POINT('',(13.125511812,161.65437033,0.017693924));
#84=DIRECTION('',(0.,0.,1.));
#85=VECTOR('',#84,3.5);
#86=LINE('',#83,#85);
#87=EDGE_CURVE('',#82,#74,#86,.T.);
#88=ORIENTED_EDGE('',*,*,#87,.F.);
#89=CARTESIAN_POINT('',(13.125511812,161.65437033,0.017693924));
#90=DIRECTION('',(0.,-1.,0.));
#91=VECTOR('',#90,150.);
#92=LINE('',#89,#91);
#93=EDGE_CURVE('',#82,#43,#92,.T.);
#94=ORIENTED_EDGE('',*,*,#93,.T.);
#95=EDGE_LOOP('',(#72,#80,#88,#94));
#96=FACE_BOUND('',#95,.T.);
#97=ADVANCED_FACE('',(#96),#71,.T.);
#98=CARTESIAN_POINT('',(158.125511812,86.65437033,0.017693924));
#99=DIRECTION('',(0.,0.,1.));
#100=DIRECTION('',(1.,0.,0.));
#101=AXIS2_PLACEMENT_3D('',#98,#99,#100);
#102=PLANE('',#101);
#103=CARTESIAN_POINT('',(29.516120933,130.941786373,0.017693924));
#104=VERTEX_POINT('',#103);
#105=CARTESIAN_POINT('',(26.716120933,130.941786373,0.017693924));
#106=VERTEX_POINT('',#105);
#107=CARTESIAN_POINT('',(29.516120933,130.941786373,0.017693924));
#108=DIRECTION('',(-1.,0.,0.));
#109=VECTOR('',#108,2.8);
#110=LINE('',#107,#109);
#111=EDGE_CURVE('',#104,#106,#110,.T.);
#112=ORIENTED_EDGE('',*,*,#111,.F.);
#113=CARTESIAN_POINT('',(30.926035946,133.38383081,0.017693924));
#114=VERTEX_POINT('',#113);
#115=CARTESIAN_POINT('',(30.926035946,133.38383081,0.017693924));
#116=DIRECTION('',(-0.5,-0.866025404,0.));
#117=VECTOR('',#116,2.819830026);
#118=LINE('',#115,#117);
#119=EDGE_CURVE('',#114,#104,#118,.T.);
#120=ORIENTED_EDGE('',*,*,#119,.F.);
#121=CARTESIAN_POINT('',(29.536013153,135.791420912,0.017693924));
#122=VERTEX_POINT('',#121);
#123=CARTESIAN_POINT('',(29.536013153,135.791420912,0.017693924));
#124=DIRECTION('',(0.5,-0.866025404,0.));
#125=VECTOR('',#124,2.780045587);
#126=LINE('',#123,#125);
#127=EDGE_CURVE('',#122,#114,#126,.T.);
#128=ORIENTED_EDGE('',*,*,#127,.F.);
#129=CARTESIAN_POINT('',(26.736013153,135.791420912,0.017693924));
#130=VERTEX_POINT('',#129);
#131=CARTESIAN_POINT('',(26.736013153,135.791420912,0.017693924));
#132=DIRECTION('',(1.,0.,-0.));
#133=VECTOR('',#132,2.8);
#134=LINE('',#131,#133);
#135=EDGE_CURVE('',#130,#122,#134,.T.);
#136=ORIENTED_EDGE('',*,*,#135,.F.);
#137=CARTESIAN_POINT('',(25.32609814,133.349376475,0.017693924));
#138=VERTEX_POINT('',#137);
#139=CARTESIAN_POINT('',(25.32609814,133.349376475,0.017693924));
#140=DIRECTION('',(0.5,0.866025404,-0.));
#141=VECTOR('',#140,2.819830026);
#142=LINE('',#139,#141);
#143=EDGE_CURVE('',#138,#130,#142,.T.);
#144=ORIENTED_EDGE('',*,*,#143,.F.);
#145=CARTESIAN_POINT('',(26.716120933,130.941786373,0.017693924));
#146=DIRECTION('',(-0.5,0.866025404,-0.));
#147=VECTOR('',#146,2.780045587);
#148=LINE('',#145,#147);
#149=EDGE_CURVE('',#106,#138,#148,.T.);
#150=ORIENTED_EDGE('',*,*,#149,.F.);
#151=EDGE_LOOP('',(#112,#120,#128,#136,#144,#150));
#152=FACE_BOUND('',#151,.T.);
#153=CARTESIAN_POINT('',(56.736017786,160.308140446,0.017693924));
#154=VERTEX_POINT('',#153);
#155=CARTESIAN_POINT('',(59.536017786,160.308140446,0.017693924));
#156=VERTEX_POINT('',#155);
#157=CARTESIAN_POINT('',(56.736017786,160.308140446,0.017693924));
#158=DIRECTION('',(1.,-0.,0.));
#159=VECTOR('',#158,2.8);
#160=LINE('',#157,#159);
#161=EDGE_CURVE('',#154,#156,#160,.T.);
#162=ORIENTED_EDGE('',*,*,#161,.F.);
#163=CARTESIAN_POINT('',(55.325828568,157.865621072,0.017693924));
#164=VERTEX_POINT('',#163);
#165=CARTESIAN_POINT('',(55.325828568,157.865621072,0.017693924));
#166=DIRECTION('',(0.5,0.866025404,-0.));
#167=VECTOR('',#166,2.820378436);
#168=LINE('',#165,#167);
#169=EDGE_CURVE('',#164,#154,#168,.T.);
#170=ORIENTED_EDGE('',*,*,#169,.F.);
#171=CARTESIAN_POINT('',(56.725828568,155.440749942,0.017693924));
#172=VERTEX_POINT('',#171);
#173=CARTESIAN_POINT('',(56.725828568,155.440749942,0.017693924));
#174=DIRECTION('',(-0.5,0.866025404,-0.));
#175=VECTOR('',#174,2.8);
#176=LINE('',#173,#175);
#177=EDGE_CURVE('',#172,#164,#176,.T.);
#178=ORIENTED_EDGE('',*,*,#177,.F.);
#179=CARTESIAN_POINT('',(59.525828568,155.440749942,0.017693924));
#180=VERTEX_POINT('',#179);
#181=CARTESIAN_POINT('',(59.525828568,155.440749942,0.017693924));
#182=DIRECTION('',(-1.,0.,0.));
#183=VECTOR('',#182,2.8);
#184=LINE('',#181,#183);
#185=EDGE_CURVE('',#180,#172,#184,.T.);
#186=ORIENTED_EDGE('',*,*,#185,.F.);
#187=CARTESIAN_POINT('',(60.936017786,157.883269316,0.017693924));
#188=VERTEX_POINT('',#187);
#189=CARTESIAN_POINT('',(60.936017786,157.883269316,0.017693924));
#190=DIRECTION('',(-0.5,-0.866025404,0.));
#191=VECTOR('',#190,2.820378436);
#192=LINE('',#189,#191);
#193=EDGE_CURVE('',#188,#180,#192,.T.);
#194=ORIENTED_EDGE('',*,*,#193,.F.);
#195=CARTESIAN_POINT('',(59.536017786,160.308140446,0.017693924));
#196=DIRECTION('',(0.5,-0.866025404,0.));
#197=VECTOR('',#196,2.8);
#198=LINE('',#195,#197);
#199=EDGE_CURVE('',#156,#188,#198,.T.);
#200=ORIENTED_EDGE('',*,*,#199,.F.);
#201=EDGE_LOOP('',(#162,#170,#178,#186,#194,#200));
#202=FACE_BOUND('',#201,.T.);
#203=CARTESIAN_POINT('',(25.32609814,157.882794378,0.017693924));
#204=VERTEX_POINT('',#203);
#205=CARTESIAN_POINT('',(26.716120933,160.29038448,0.017693924));
#206=VERTEX_POINT('',#205);
#207=CARTESIAN_POINT('',(25.32609814,157.882794378,0.017693924));
#208=DIRECTION('',(0.5,0.866025404,-0.));
#209=VECTOR('',#208,2.780045587);
#210=LINE('',#207,#209);
#211=EDGE_CURVE('',#204,#206,#210,.T.);
#212=ORIENTED_EDGE('',*,*,#211,.F.);
#213=CARTESIAN_POINT('',(26.736013153,155.440749942,0.017693924));
#214=VERTEX_POINT('',#213);
#215=CARTESIAN_POINT('',(26.736013153,155.440749942,0.017693924));
#216=DIRECTION('',(-0.5,0.866025404,-0.));
#217=VECTOR('',#216,2.819830026);
#218=LINE('',#215,#217);
#219=EDGE_CURVE('',#214,#204,#218,.T.);
#220=ORIENTED_EDGE('',*,*,#219,.F.);
#221=CARTESIAN_POINT('',(29.536013153,155.440749942,0.017693924));
#222=VERTEX_POINT('',#221);
#223=CARTESIAN_POINT('',(29.536013153,155.440749942,0.017693924));
#224=DIRECTION('',(-1.,0.,0.));
#225=VECTOR('',#224,2.8);
#226=LINE('',#223,#225);
#227=EDGE_CURVE('',#222,#214,#226,.T.);
#228=ORIENTED_EDGE('',*,*,#227,.F.);
#229=CARTESIAN_POINT('',(30.926035946,157.848340043,0.017693924));
#230=VERTEX_POINT('',#229);
#231=CARTESIAN_POINT('',(30.926035946,157.848340043,0.017693924));
#232=DIRECTION('',(-0.5,-0.866025404,0.));
#233=VECTOR('',#232,2.780045587);
#234=LINE('',#231,#233);
#235=EDGE_CURVE('',#230,#222,#234,.T.);
#236=ORIENTED_EDGE('',*,*,#235,.F.);
#237=CARTESIAN_POINT('',(29.516120933,160.29038448,0.017693924));
#238=VERTEX_POINT('',#237);
#239=CARTESIAN_POINT('',(29.516120933,160.29038448,0.017693924));
#240=DIRECTION('',(0.5,-0.866025404,0.));
#241=VECTOR('',#240,2.819830026);
#242=LINE('',#239,#241);
#243=EDGE_CURVE('',#238,#230,#242,.T.);
#244=ORIENTED_EDGE('',*,*,#243,.F.);
#245=CARTESIAN_POINT('',(26.716120933,160.29038448,0.017693924));
#246=DIRECTION('',(1.,0.,-0.));
#247=VECTOR('',#246,2.8);
#248=LINE('',#245,#247);
#249=EDGE_CURVE('',#206,#238,#248,.T.);
#250=ORIENTED_EDGE('',*,*,#249,.F.);
#251=EDGE_LOOP('',(#212,#220,#228,#236,#244,#250));
#252=FACE_BOUND('',#251,.T.);
#253=CARTESIAN_POINT('',(60.936017786,133.348901538,0.017693924));
#254=VERTEX_POINT('',#253);
#255=CARTESIAN_POINT('',(59.536017786,130.924030407,0.017693924));
#256=VERTEX_POINT('',#255);
#257=CARTESIAN_POINT('',(60.936017786,133.348901538,0.017693924));
#258=DIRECTION('',(-0.5,-0.866025404,0.));
#259=VECTOR('',#258,2.8);
#260=LINE('',#257,#259);
#261=EDGE_CURVE('',#254,#256,#260,.T.);
#262=ORIENTED_EDGE('',*,*,#261,.F.);
#263=CARTESIAN_POINT('',(59.525828568,135.791420912,0.017693924));
#264=VERTEX_POINT('',#263);
#265=CARTESIAN_POINT('',(59.525828568,135.791420912,0.017693924));
#266=DIRECTION('',(0.5,-0.866025404,0.));
#267=VECTOR('',#266,2.820378436);
#268=LINE('',#265,#267);
#269=EDGE_CURVE('',#264,#254,#268,.T.);
#270=ORIENTED_EDGE('',*,*,#269,.F.);
#271=CARTESIAN_POINT('',(56.725828568,135.791420912,0.017693924));
#272=VERTEX_POINT('',#271);
#273=CARTESIAN_POINT('',(56.725828568,135.791420912,0.017693924));
#274=DIRECTION('',(1.,0.,-0.));
#275=VECTOR('',#274,2.8);
#276=LINE('',#273,#275);
#277=EDGE_CURVE('',#272,#264,#276,.T.);
#278=ORIENTED_EDGE('',*,*,#277,.F.);
#279=CARTESIAN_POINT('',(55.325828568,133.366549781,0.017693924));
#280=VERTEX_POINT('',#279);
#281=CARTESIAN_POINT('',(55.325828568,133.366549781,0.017693924));
#282=DIRECTION('',(0.5,0.866025404,-0.));
#283=VECTOR('',#282,2.8);
#284=LINE('',#281,#283);
#285=EDGE_CURVE('',#280,#272,#284,.T.);
#286=ORIENTED_EDGE('',*,*,#285,.F.);
#287=CARTESIAN_POINT('',(56.736017786,130.924030407,0.017693924));
#288=VERTEX_POINT('',#287);
#289=CARTESIAN_POINT('',(56.736017786,130.924030407,0.017693924));
#290=DIRECTION('',(-0.5,0.866025404,-0.));
#291=VECTOR('',#290,2.820378436);
#292=LINE('',#289,#291);
#293=EDGE_CURVE('',#288,#280,#292,.T.);
#294=ORIENTED_EDGE('',*,*,#293,.F.);
#295=CARTESIAN_POINT('',(59.536017786,130.924030407,0.017693924));
#296=DIRECTION('',(-1.,-0.,0.));
#297=VECTOR('',#296,2.8);
#298=LINE('',#295,#297);
#299=EDGE_CURVE('',#256,#288,#298,.T.);
#300=ORIENTED_EDGE('',*,*,#299,.F.);
#301=EDGE_LOOP('',(#262,#270,#278,#286,#294,#300));
#302=FACE_BOUND('',#301,.T.);
#303=CARTESIAN_POINT('',(158.125511812,161.65437033,0.017693924));
#304=VERTEX_POINT('',#303);
#305=CARTESIAN_POINT('',(158.125511812,122.220380116,0.017693924));
#306=VERTEX_POINT('',#305);
#307=CARTESIAN_POINT('',(158.125511812,161.65437033,0.017693924));
#308=DIRECTION('',(0.,-1.,0.));
#309=VECTOR('',#308,39.433990214);
#310=LINE('',#307,#309);
#311=EDGE_CURVE('',#304,#306,#310,.T.);
#312=ORIENTED_EDGE('',*,*,#311,.T.);
#313=CARTESIAN_POINT('',(154.775439951,123.699722065,0.017693924));
#314=VERTEX_POINT('',#313);
#315=CARTESIAN_POINT('',(158.15,126.808740659,0.017693924));
#316=DIRECTION('',(-0.,-0.,-1.));
#317=DIRECTION('',(0.,-1.,0.));
#318=AXIS2_PLACEMENT_3D('',#315,#316,#317);
#319=CIRCLE('',#318,4.58842589);
#320=EDGE_CURVE('',#306,#314,#319,.T.);
#321=ORIENTED_EDGE('',*,*,#320,.T.);
#322=CARTESIAN_POINT('',(142.908210678,135.566951338,0.017693924));
#323=VERTEX_POINT('',#322);
#324=CARTESIAN_POINT('',(154.775439951,123.699722065,0.017693924));
#325=DIRECTION('',(-0.707106781,0.707106781,-0.));
#326=VECTOR('',#325,16.782796585);
#327=LINE('',#324,#326);
#328=EDGE_CURVE('',#314,#323,#327,.T.);
#329=ORIENTED_EDGE('',*,*,#328,.T.);
#330=CARTESIAN_POINT('',(138.391789322,131.050529981,0.017693924));
#331=VERTEX_POINT('',#330);
#332=CARTESIAN_POINT('',(140.65,133.308740659,0.017693924));
#333=DIRECTION('',(-0.,-0.,-1.));
#334=DIRECTION('',(0.,-1.,0.));
#335=AXIS2_PLACEMENT_3D('',#332,#333,#334);
#336=CIRCLE('',#335,3.193592168);
#337=EDGE_CURVE('',#331,#323,#336,.T.);
#338=ORIENTED_EDGE('',*,*,#337,.F.);
#339=CARTESIAN_POINT('',(150.592536374,118.849782929,0.017693924));
#340=VERTEX_POINT('',#339);
#341=CARTESIAN_POINT('',(138.391789322,131.050529981,0.017693924));
#342=DIRECTION('',(0.707106781,-0.707106781,0.));
#343=VECTOR('',#342,17.254461953);
#344=LINE('',#341,#343);
#345=EDGE_CURVE('',#331,#340,#344,.T.);
#346=ORIENTED_EDGE('',*,*,#345,.T.);
#347=CARTESIAN_POINT('',(151.743364211,115.80874066,0.017693924));
#348=VERTEX_POINT('',#347);
#349=CARTESIAN_POINT('',(147.15,115.808740659,0.017693924));
#350=DIRECTION('',(-0.,-0.,-1.));
#351=DIRECTION('',(0.,-1.,0.));
#352=AXIS2_PLACEMENT_3D('',#349,#350,#351);
#353=CIRCLE('',#352,4.593364211);
#354=EDGE_CURVE('',#340,#348,#353,.T.);
#355=ORIENTED_EDGE('',*,*,#354,.T.);
#356=CARTESIAN_POINT('',(150.592536375,112.767698391,0.017693924));
#357=VERTEX_POINT('',#356);
#358=CARTESIAN_POINT('',(147.15,115.808740659,0.017693924));
#359=DIRECTION('',(-0.,-0.,-1.));
#360=DIRECTION('',(0.,-1.,0.));
#361=AXIS2_PLACEMENT_3D('',#358,#359,#360);
#362=CIRCLE('',#361,4.593364211);
#363=EDGE_CURVE('',#348,#357,#362,.T.);
#364=ORIENTED_EDGE('',*,*,#363,.T.);
#365=CARTESIAN_POINT('',(138.391789322,100.566951338,0.017693924));
#366=VERTEX_POINT('',#365);
#367=CARTESIAN_POINT('',(150.592536375,112.767698391,0.017693924));
#368=DIRECTION('',(-0.707106781,-0.707106781,0.));
#369=VECTOR('',#368,17.254461954);
#370=LINE('',#367,#369);
#371=EDGE_CURVE('',#357,#366,#370,.T.);
#372=ORIENTED_EDGE('',*,*,#371,.T.);
#373=CARTESIAN_POINT('',(142.908210678,96.050529981,0.017693924));
#374=VERTEX_POINT('',#373);
#375=CARTESIAN_POINT('',(140.65,98.308740659,0.017693924));
#376=DIRECTION('',(-0.,-0.,-1.));
#377=DIRECTION('',(0.,-1.,0.));
#378=AXIS2_PLACEMENT_3D('',#375,#376,#377);
#379=CIRCLE('',#378,3.193592168);
#380=EDGE_CURVE('',#374,#366,#379,.T.);
#381=ORIENTED_EDGE('',*,*,#380,.F.);
#382=CARTESIAN_POINT('',(155.08550488,108.227824183,0.017693924));
#383=VERTEX_POINT('',#382);
#384=CARTESIAN_POINT('',(142.908210678,96.050529981,0.017693924));
#385=DIRECTION('',(0.707106781,0.707106781,-0.));
#386=VECTOR('',#385,17.221294614);
#387=LINE('',#384,#386);
#388=EDGE_CURVE('',#374,#383,#387,.T.);
#389=ORIENTED_EDGE('',*,*,#388,.T.);
#390=CARTESIAN_POINT('',(158.125511812,109.400108953,0.017693924));
#391=VERTEX_POINT('',#390);
#392=CARTESIAN_POINT('',(158.15,104.808740659,0.017693924));
#393=DIRECTION('',(-0.,-0.,-1.));
#394=DIRECTION('',(0.,-1.,0.));
#395=AXIS2_PLACEMENT_3D('',#392,#393,#394);
#396=CIRCLE('',#395,4.591433598);
#397=EDGE_CURVE('',#383,#391,#396,.T.);
#398=ORIENTED_EDGE('',*,*,#397,.T.);
#399=CARTESIAN_POINT('',(158.125511812,63.908631706,0.017693924));
#400=VERTEX_POINT('',#399);
#401=CARTESIAN_POINT('',(158.125511812,109.400108953,0.017693924));
#402=DIRECTION('',(0.,-1.,0.));
#403=VECTOR('',#402,45.491477248);
#404=LINE('',#401,#403);
#405=EDGE_CURVE('',#391,#400,#404,.T.);
#406=ORIENTED_EDGE('',*,*,#405,.T.);
#407=CARTESIAN_POINT('',(155.08550488,65.080916476,0.017693924));
#408=VERTEX_POINT('',#407);
#409=CARTESIAN_POINT('',(158.15,68.5,0.017693924));
#410=DIRECTION('',(-0.,-0.,-1.));
#411=DIRECTION('',(0.,-1.,0.));
#412=AXIS2_PLACEMENT_3D('',#409,#410,#411);
#413=CIRCLE('',#412,4.591433598);
#414=EDGE_CURVE('',#400,#408,#413,.T.);
#415=ORIENTED_EDGE('',*,*,#414,.T.);
#416=CARTESIAN_POINT('',(142.908210678,77.258210678,0.017693924));
#417=VERTEX_POINT('',#416);
#418=CARTESIAN_POINT('',(155.08550488,65.080916476,0.017693924));
#419=DIRECTION('',(-0.707106781,0.707106781,-0.));
#420=VECTOR('',#419,17.221294614);
#421=LINE('',#418,#420);
#422=EDGE_CURVE('',#408,#417,#421,.T.);
#423=ORIENTED_EDGE('',*,*,#422,.T.);
#424=CARTESIAN_POINT('',(138.391789322,72.741789322,0.017693924));
#425=VERTEX_POINT('',#424);
#426=CARTESIAN_POINT('',(140.65,75.,0.017693924));
#427=DIRECTION('',(-0.,-0.,-1.));
#428=DIRECTION('',(0.,-1.,0.));
#429=AXIS2_PLACEMENT_3D('',#426,#427,#428);
#430=CIRCLE('',#429,3.193592168);
#431=EDGE_CURVE('',#425,#417,#430,.T.);
#432=ORIENTED_EDGE('',*,*,#431,.F.);
#433=CARTESIAN_POINT('',(150.592536375,60.541042269,0.017693924));
#434=VERTEX_POINT('',#433);
#435=CARTESIAN_POINT('',(138.391789322,72.741789322,0.017693924));
#436=DIRECTION('',(0.707106781,-0.707106781,0.));
#437=VECTOR('',#436,17.254461954);
#438=LINE('',#435,#437);
#439=EDGE_CURVE('',#425,#434,#438,.T.);
#440=ORIENTED_EDGE('',*,*,#439,.T.);
#441=CARTESIAN_POINT('',(151.743364211,57.5,0.017693924));
#442=VERTEX_POINT('',#441);
#443=CARTESIAN_POINT('',(147.15,57.5,0.017693924));
#444=DIRECTION('',(-0.,-0.,-1.));
#445=DIRECTION('',(0.,-1.,0.));
#446=AXIS2_PLACEMENT_3D('',#443,#444,#445);
#447=CIRCLE('',#446,4.593364211);
#448=EDGE_CURVE('',#434,#442,#447,.T.);
#449=ORIENTED_EDGE('',*,*,#448,.T.);
#450=CARTESIAN_POINT('',(150.592536374,54.458957731,0.017693924));
#451=VERTEX_POINT('',#450);
#452=CARTESIAN_POINT('',(147.15,57.5,0.017693924));
#453=DIRECTION('',(-0.,-0.,-1.));
#454=DIRECTION('',(0.,-1.,0.));
#455=AXIS2_PLACEMENT_3D('',#452,#453,#454);
#456=CIRCLE('',#455,4.593364211);
#457=EDGE_CURVE('',#442,#451,#456,.T.);
#458=ORIENTED_EDGE('',*,*,#457,.T.);
#459=CARTESIAN_POINT('',(138.391789322,42.258210678,0.017693924));
#460=VERTEX_POINT('',#459);
#461=CARTESIAN_POINT('',(150.592536374,54.458957731,0.017693924));
#462=DIRECTION('',(-0.707106781,-0.707106781,0.));
#463=VECTOR('',#462,17.254461953);
#464=LINE('',#461,#463);
#465=EDGE_CURVE('',#451,#460,#464,.T.);
#466=ORIENTED_EDGE('',*,*,#465,.T.);
#467=CARTESIAN_POINT('',(142.908210678,37.741789322,0.017693924));
#468=VERTEX_POINT('',#467);
#469=CARTESIAN_POINT('',(140.65,40.,0.017693924));
#470=DIRECTION('',(-0.,-0.,-1.));
#471=DIRECTION('',(0.,-1.,0.));
#472=AXIS2_PLACEMENT_3D('',#469,#470,#471);
#473=CIRCLE('',#472,3.193592168);
#474=EDGE_CURVE('',#468,#460,#473,.T.);
#475=ORIENTED_EDGE('',*,*,#474,.F.);
#476=CARTESIAN_POINT('',(154.775439951,49.609018595,0.017693924));
#477=VERTEX_POINT('',#476);
#478=CARTESIAN_POINT('',(142.908210678,37.741789322,0.017693924));
#479=DIRECTION('',(0.707106781,0.707106781,-0.));
#480=VECTOR('',#479,16.782796585);
#481=LINE('',#478,#480);
#482=EDGE_CURVE('',#468,#477,#481,.T.);
#483=ORIENTED_EDGE('',*,*,#482,.T.);
#484=CARTESIAN_POINT('',(158.125511812,51.088360543,0.017693924));
#485=VERTEX_POINT('',#484);
#486=CARTESIAN_POINT('',(158.15,46.5,0.017693924));
#487=DIRECTION('',(-0.,-0.,-1.));
#488=DIRECTION('',(0.,-1.,0.));
#489=AXIS2_PLACEMENT_3D('',#486,#487,#488);
#490=CIRCLE('',#489,4.58842589);
#491=EDGE_CURVE('',#477,#485,#490,.T.);
#492=ORIENTED_EDGE('',*,*,#491,.T.);
#493=CARTESIAN_POINT('',(158.125511812,51.088360543,0.017693924));
#494=DIRECTION('',(0.,-1.,0.));
#495=VECTOR('',#494,39.433990214);
#496=LINE('',#493,#495);
#497=EDGE_CURVE('',#485,#51,#496,.T.);
#498=ORIENTED_EDGE('',*,*,#497,.T.);
#499=ORIENTED_EDGE('',*,*,#56,.F.);
#500=ORIENTED_EDGE('',*,*,#93,.F.);
#501=CARTESIAN_POINT('',(158.125511812,161.65437033,0.017693924));
#502=DIRECTION('',(-1.,0.,0.));
#503=VECTOR('',#502,145.);
#504=LINE('',#501,#503);
#505=EDGE_CURVE('',#304,#82,#504,.T.);
#506=ORIENTED_EDGE('',*,*,#505,.F.);
#507=EDGE_LOOP('',(#312,#321,#329,#338,#346,#355,#364,#372,#381,#389,#398,#406,#415,#423,#432,#440,#449,#458,#466,#475,#483,#492,#498,#499,#500,#506));
#508=FACE_BOUND('',#507,.T.);
#509=ADVANCED_FACE('',(#152,#202,#252,#302,#508),#102,.F.);
#510=CARTESIAN_POINT('',(158.125511812,86.65437033,5.017693924));
#511=DIRECTION('',(0.,0.,1.));
#512=DIRECTION('',(1.,0.,0.));
#513=AXIS2_PLACEMENT_3D('',#510,#511,#512);
#514=PLANE('',#513);
#515=CARTESIAN_POINT('',(158.125511812,122.220380116,5.017693924));
#516=VERTEX_POINT('',#515);
#517=CARTESIAN_POINT('',(158.125511812,160.15437033,5.017693924));
#518=VERTEX_POINT('',#517);
#519=CARTESIAN_POINT('',(158.125511812,122.220380116,5.017693924));
#520=DIRECTION('',(0.,1.,-0.));
#521=VECTOR('',#520,37.933990214);
#522=LINE('',#519,#521);
#523=EDGE_CURVE('',#516,#518,#522,.T.);
#524=ORIENTED_EDGE('',*,*,#523,.T.);
#525=CARTESIAN_POINT('',(14.625511812,160.15437033,5.017693924));
#526=VERTEX_POINT('',#525);
#527=CARTESIAN_POINT('',(158.125511812,160.15437033,5.017693924));
#528=DIRECTION('',(-1.,0.,0.));
#529=VECTOR('',#528,143.5);
#530=LINE('',#527,#529);
#531=EDGE_CURVE('',#518,#526,#530,.T.);
#532=ORIENTED_EDGE('',*,*,#531,.T.);
#533=CARTESIAN_POINT('',(14.625511812,13.15437033,5.017693924));
#534=VERTEX_POINT('',#533);
#535=CARTESIAN_POINT('',(14.625511812,160.15437033,5.017693924));
#536=DIRECTION('',(0.,-1.,0.));
#537=VECTOR('',#536,147.);
#538=LINE('',#535,#537);
#539=EDGE_CURVE('',#526,#534,#538,.T.);
#540=ORIENTED_EDGE('',*,*,#539,.T.);
#541=CARTESIAN_POINT('',(158.125511812,13.15437033,5.017693924));
#542=VERTEX_POINT('',#541);
#543=CARTESIAN_POINT('',(14.625511812,13.15437033,5.017693924));
#544=DIRECTION('',(1.,0.,-0.));
#545=VECTOR('',#544,143.5);
#546=LINE('',#543,#545);
#547=EDGE_CURVE('',#534,#542,#546,.T.);
#548=ORIENTED_EDGE('',*,*,#547,.T.);
#549=CARTESIAN_POINT('',(158.125511812,51.088360543,5.017693924));
#550=VERTEX_POINT('',#549);
#551=CARTESIAN_POINT('',(158.125511812,13.15437033,5.017693924));
#552=DIRECTION('',(0.,1.,-0.));
#553=VECTOR('',#552,37.933990214);
#554=LINE('',#551,#553);
#555=EDGE_CURVE('',#542,#550,#554,.T.);
#556=ORIENTED_EDGE('',*,*,#555,.T.);
#557=CARTESIAN_POINT('',(154.775439951,49.609018595,5.017693924));
#558=VERTEX_POINT('',#557);
#559=CARTESIAN_POINT('',(158.15,46.5,5.017693924));
#560=DIRECTION('',(-0.,-0.,-1.));
#561=DIRECTION('',(0.,-1.,0.));
#562=AXIS2_PLACEMENT_3D('',#559,#560,#561);
#563=CIRCLE('',#562,4.58842589);
#564=EDGE_CURVE('',#558,#550,#563,.T.);
#565=ORIENTED_EDGE('',*,*,#564,.F.);
#566=CARTESIAN_POINT('',(142.908210678,37.741789322,5.017693924));
#567=VERTEX_POINT('',#566);
#568=CARTESIAN_POINT('',(142.908210678,37.741789322,5.017693924));
#569=DIRECTION('',(0.707106781,0.707106781,-0.));
#570=VECTOR('',#569,16.782796585);
#571=LINE('',#568,#570);
#572=EDGE_CURVE('',#567,#558,#571,.T.);
#573=ORIENTED_EDGE('',*,*,#572,.F.);
#574=CARTESIAN_POINT('',(138.391789322,42.258210678,5.017693924));
#575=VERTEX_POINT('',#574);
#576=CARTESIAN_POINT('',(140.65,40.,5.017693924));
#577=DIRECTION('',(-0.,-0.,-1.));
#578=DIRECTION('',(0.,-1.,0.));
#579=AXIS2_PLACEMENT_3D('',#576,#577,#578);
#580=CIRCLE('',#579,3.193592168);
#581=EDGE_CURVE('',#567,#575,#580,.T.);
#582=ORIENTED_EDGE('',*,*,#581,.T.);
#583=CARTESIAN_POINT('',(150.592536374,54.458957731,5.017693924));
#584=VERTEX_POINT('',#583);
#585=CARTESIAN_POINT('',(150.592536374,54.458957731,5.017693924));
#586=DIRECTION('',(-0.707106781,-0.707106781,0.));
#587=VECTOR('',#586,17.254461953);
#588=LINE('',#585,#587);
#589=EDGE_CURVE('',#584,#575,#588,.T.);
#590=ORIENTED_EDGE('',*,*,#589,.F.);
#591=CARTESIAN_POINT('',(151.743364211,57.5,5.017693924));
#592=VERTEX_POINT('',#591);
#593=CARTESIAN_POINT('',(147.15,57.5,5.017693924));
#594=DIRECTION('',(-0.,-0.,-1.));
#595=DIRECTION('',(0.,-1.,0.));
#596=AXIS2_PLACEMENT_3D('',#593,#594,#595);
#597=CIRCLE('',#596,4.593364211);
#598=EDGE_CURVE('',#592,#584,#597,.T.);
#599=ORIENTED_EDGE('',*,*,#598,.F.);
#600=CARTESIAN_POINT('',(150.592536375,60.541042269,5.017693924));
#601=VERTEX_POINT('',#600);
#602=CARTESIAN_POINT('',(147.15,57.5,5.017693924));
#603=DIRECTION('',(-0.,-0.,-1.));
#604=DIRECTION('',(0.,-1.,0.));
#605=AXIS2_PLACEMENT_3D('',#602,#603,#604);
#606=CIRCLE('',#605,4.593364211);
#607=EDGE_CURVE('',#601,#592,#606,.T.);
#608=ORIENTED_EDGE('',*,*,#607,.F.);
#609=CARTESIAN_POINT('',(138.391789322,72.741789322,5.017693924));
#610=VERTEX_POINT('',#609);
#611=CARTESIAN_POINT('',(138.391789322,72.741789322,5.017693924));
#612=DIRECTION('',(0.707106781,-0.707106781,0.));
#613=VECTOR('',#612,17.254461954);
#614=LINE('',#611,#613);
#615=EDGE_CURVE('',#610,#601,#614,.T.);
#616=ORIENTED_EDGE('',*,*,#615,.F.);
#617=CARTESIAN_POINT('',(142.908210678,77.258210678,5.017693924));
#618=VERTEX_POINT('',#617);
#619=CARTESIAN_POINT('',(140.65,75.,5.017693924));
#620=DIRECTION('',(-0.,-0.,-1.));
#621=DIRECTION('',(0.,-1.,0.));
#622=AXIS2_PLACEMENT_3D('',#619,#620,#621);
#623=CIRCLE('',#622,3.193592168);
#624=EDGE_CURVE('',#610,#618,#623,.T.);
#625=ORIENTED_EDGE('',*,*,#624,.T.);
#626=CARTESIAN_POINT('',(155.08550488,65.080916476,5.017693924));
#627=VERTEX_POINT('',#626);
#628=CARTESIAN_POINT('',(155.08550488,65.080916476,5.017693924));
#629=DIRECTION('',(-0.707106781,0.707106781,-0.));
#630=VECTOR('',#629,17.221294614);
#631=LINE('',#628,#630);
#632=EDGE_CURVE('',#627,#618,#631,.T.);
#633=ORIENTED_EDGE('',*,*,#632,.F.);
#634=CARTESIAN_POINT('',(158.125511812,63.908631706,5.017693924));
#635=VERTEX_POINT('',#634);
#636=CARTESIAN_POINT('',(158.15,68.5,5.017693924));
#637=DIRECTION('',(-0.,-0.,-1.));
#638=DIRECTION('',(0.,-1.,0.));
#639=AXIS2_PLACEMENT_3D('',#636,#637,#638);
#640=CIRCLE('',#639,4.591433598);
#641=EDGE_CURVE('',#635,#627,#640,.T.);
#642=ORIENTED_EDGE('',*,*,#641,.F.);
#643=CARTESIAN_POINT('',(158.125511812,109.400108953,5.017693924));
#644=VERTEX_POINT('',#643);
#645=CARTESIAN_POINT('',(158.125511812,63.908631706,5.017693924));
#646=DIRECTION('',(0.,1.,-0.));
#647=VECTOR('',#646,45.491477248);
#648=LINE('',#645,#647);
#649=EDGE_CURVE('',#635,#644,#648,.T.);
#650=ORIENTED_EDGE('',*,*,#649,.T.);
#651=CARTESIAN_POINT('',(155.08550488,108.227824183,5.017693924));
#652=VERTEX_POINT('',#651);
#653=CARTESIAN_POINT('',(158.15,104.808740659,5.017693924));
#654=DIRECTION('',(-0.,-0.,-1.));
#655=DIRECTION('',(0.,-1.,0.));
#656=AXIS2_PLACEMENT_3D('',#653,#654,#655);
#657=CIRCLE('',#656,4.591433598);
#658=EDGE_CURVE('',#652,#644,#657,.T.);
#659=ORIENTED_EDGE('',*,*,#658,.F.);
#660=CARTESIAN_POINT('',(142.908210678,96.050529981,5.017693924));
#661=VERTEX_POINT('',#660);
#662=CARTESIAN_POINT('',(142.908210678,96.050529981,5.017693924));
#663=DIRECTION('',(0.707106781,0.707106781,-0.));
#664=VECTOR('',#663,17.221294614);
#665=LINE('',#662,#664);
#666=EDGE_CURVE('',#661,#652,#665,.T.);
#667=ORIENTED_EDGE('',*,*,#666,.F.);
#668=CARTESIAN_POINT('',(138.391789322,100.566951338,5.017693924));
#669=VERTEX_POINT('',#668);
#670=CARTESIAN_POINT('',(140.65,98.308740659,5.017693924));
#671=DIRECTION('',(-0.,-0.,-1.));
#672=DIRECTION('',(0.,-1.,0.));
#673=AXIS2_PLACEMENT_3D('',#670,#671,#672);
#674=CIRCLE('',#673,3.193592168);
#675=EDGE_CURVE('',#661,#669,#674,.T.);
#676=ORIENTED_EDGE('',*,*,#675,.T.);
#677=CARTESIAN_POINT('',(150.592536375,112.767698391,5.017693924));
#678=VERTEX_POINT('',#677);
#679=CARTESIAN_POINT('',(150.592536375,112.767698391,5.017693924));
#680=DIRECTION('',(-0.707106781,-0.707106781,0.));
#681=VECTOR('',#680,17.254461954);
#682=LINE('',#679,#681);
#683=EDGE_CURVE('',#678,#669,#682,.T.);
#684=ORIENTED_EDGE('',*,*,#683,.F.);
#685=CARTESIAN_POINT('',(151.743364211,115.80874066,5.017693924));
#686=VERTEX_POINT('',#685);
#687=CARTESIAN_POINT('',(147.15,115.808740659,5.017693924));
#688=DIRECTION('',(-0.,-0.,-1.));
#689=DIRECTION('',(0.,-1.,0.));
#690=AXIS2_PLACEMENT_3D('',#687,#688,#689);
#691=CIRCLE('',#690,4.593364211);
#692=EDGE_CURVE('',#686,#678,#691,.T.);
#693=ORIENTED_EDGE('',*,*,#692,.F.);
#694=CARTESIAN_POINT('',(150.592536374,118.849782929,5.017693924));
#695=VERTEX_POINT('',#694);
#696=CARTESIAN_POINT('',(147.15,115.808740659,5.017693924));
#697=DIRECTION('',(-0.,-0.,-1.));
#698=DIRECTION('',(0.,-1.,0.));
#699=AXIS2_PLACEMENT_3D('',#696,#697,#698);
#700=CIRCLE('',#699,4.593364211);
#701=EDGE_CURVE('',#695,#686,#700,.T.);
#702=ORIENTED_EDGE('',*,*,#701,.F.);
#703=CARTESIAN_POINT('',(138.391789322,131.050529981,5.017693924));
#704=VERTEX_POINT('',#703);
#705=CARTESIAN_POINT('',(138.391789322,131.050529981,5.017693924));
#706=DIRECTION('',(0.707106781,-0.707106781,0.));
#707=VECTOR('',#706,17.254461953);
#708=LINE('',#705,#707);
#709=EDGE_CURVE('',#704,#695,#708,.T.);
#710=ORIENTED_EDGE('',*,*,#709,.F.);
#711=CARTESIAN_POINT('',(142.908210678,135.566951338,5.017693924));
#712=VERTEX_POINT('',#711);
#713=CARTESIAN_POINT('',(140.65,133.308740659,5.017693924));
#714=DIRECTION('',(-0.,-0.,-1.));
#715=DIRECTION('',(0.,-1.,0.));
#716=AXIS2_PLACEMENT_3D('',#713,#714,#715);
#717=CIRCLE('',#716,3.193592168);
#718=EDGE_CURVE('',#704,#712,#717,.T.);
#719=ORIENTED_EDGE('',*,*,#718,.T.);
#720=CARTESIAN_POINT('',(154.775439951,123.699722065,5.017693924));
#721=VERTEX_POINT('',#720);
#722=CARTESIAN_POINT('',(154.775439951,123.699722065,5.017693924));
#723=DIRECTION('',(-0.707106781,0.707106781,-0.));
#724=VECTOR('',#723,16.782796585);
#725=LINE('',#722,#724);
#726=EDGE_CURVE('',#721,#712,#725,.T.);
#727=ORIENTED_EDGE('',*,*,#726,.F.);
#728=CARTESIAN_POINT('',(158.15,126.808740659,5.017693924));
#729=DIRECTION('',(-0.,-0.,-1.));
#730=DIRECTION('',(0.,-1.,0.));
#731=AXIS2_PLACEMENT_3D('',#728,#729,#730);
#732=CIRCLE('',#731,4.58842589);
#733=EDGE_CURVE('',#516,#721,#732,.T.);
#734=ORIENTED_EDGE('',*,*,#733,.F.);
#735=EDGE_LOOP('',(#524,#532,#540,#548,#556,#565,#573,#582,#590,#599,#608,#616,#625,#633,#642,#650,#659,#667,#676,#684,#693,#702,#710,#719,#727,#734));
#736=FACE_BOUND('',#735,.T.);
#737=CARTESIAN_POINT('',(28.125511812,134.979587024,5.017693924));
#738=VERTEX_POINT('',#737);
#739=CARTESIAN_POINT('',(29.725511812,133.379587024,5.017693924));
#740=VERTEX_POINT('',#739);
#741=CARTESIAN_POINT('',(28.125511812,133.379587024,5.017693924));
#742=DIRECTION('',(0.,-0.,-1.));
#743=DIRECTION('',(0.,1.,-0.));
#744=AXIS2_PLACEMENT_3D('',#741,#742,#743);
#745=CIRCLE('',#744,1.6);
#746=EDGE_CURVE('',#738,#740,#745,.T.);
#747=ORIENTED_EDGE('',*,*,#746,.T.);
#748=CARTESIAN_POINT('',(28.125511812,133.379587024,5.017693924));
#749=DIRECTION('',(0.,-0.,-1.));
#750=DIRECTION('',(0.,1.,-0.));
#751=AXIS2_PLACEMENT_3D('',#748,#749,#750);
#752=CIRCLE('',#751,1.6);
#753=EDGE_CURVE('',#740,#738,#752,.T.);
#754=ORIENTED_EDGE('',*,*,#753,.T.);
#755=EDGE_LOOP('',(#747,#754));
#756=FACE_BOUND('',#755,.T.);
#757=CARTESIAN_POINT('',(28.125511812,159.477296961,5.017693924));
#758=VERTEX_POINT('',#757);
#759=CARTESIAN_POINT('',(29.725511812,157.877296961,5.017693924));
#760=VERTEX_POINT('',#759);
#761=CARTESIAN_POINT('',(28.125511812,157.877296961,5.017693924));
#762=DIRECTION('',(0.,-0.,-1.));
#763=DIRECTION('',(0.,1.,-0.));
#764=AXIS2_PLACEMENT_3D('',#761,#762,#763);
#765=CIRCLE('',#764,1.6);
#766=EDGE_CURVE('',#758,#760,#765,.T.);
#767=ORIENTED_EDGE('',*,*,#766,.T.);
#768=CARTESIAN_POINT('',(28.125511812,157.877296961,5.017693924));
#769=DIRECTION('',(0.,-0.,-1.));
#770=DIRECTION('',(0.,1.,-0.));
#771=AXIS2_PLACEMENT_3D('',#768,#769,#770);
#772=CIRCLE('',#771,1.6);
#773=EDGE_CURVE('',#760,#758,#772,.T.);
#774=ORIENTED_EDGE('',*,*,#773,.T.);
#775=EDGE_LOOP('',(#767,#774));
#776=FACE_BOUND('',#775,.T.);
#777=CARTESIAN_POINT('',(58.126690868,159.477296961,5.017693924));
#778=VERTEX_POINT('',#777);
#779=CARTESIAN_POINT('',(59.726690868,157.877296961,5.017693924));
#780=VERTEX_POINT('',#779);
#781=CARTESIAN_POINT('',(58.126690868,157.877296961,5.017693924));
#782=DIRECTION('',(0.,-0.,-1.));
#783=DIRECTION('',(0.,1.,-0.));
#784=AXIS2_PLACEMENT_3D('',#781,#782,#783);
#785=CIRCLE('',#784,1.6);
#786=EDGE_CURVE('',#778,#780,#785,.T.);
#787=ORIENTED_EDGE('',*,*,#786,.T.);
#788=CARTESIAN_POINT('',(58.126690868,157.877296961,5.017693924));
#789=DIRECTION('',(0.,-0.,-1.));
#790=DIRECTION('',(0.,1.,-0.));
#791=AXIS2_PLACEMENT_3D('',#788,#789,#790);
#792=CIRCLE('',#791,1.6);
#793=EDGE_CURVE('',#780,#778,#792,.T.);
#794=ORIENTED_EDGE('',*,*,#793,.T.);
#795=EDGE_LOOP('',(#787,#794));
#796=FACE_BOUND('',#795,.T.);
#797=CARTESIAN_POINT('',(58.126690868,134.979587024,5.017693924));
#798=VERTEX_POINT('',#797);
#799=CARTESIAN_POINT('',(59.726690868,133.379587024,5.017693924));
#800=VERTEX_POINT('',#799);
#801=CARTESIAN_POINT('',(58.126690868,133.379587024,5.017693924));
#802=DIRECTION('',(0.,-0.,-1.));
#803=DIRECTION('',(0.,1.,-0.));
#804=AXIS2_PLACEMENT_3D('',#801,#802,#803);
#805=CIRCLE('',#804,1.6);
#806=EDGE_CURVE('',#798,#800,#805,.T.);
#807=ORIENTED_EDGE('',*,*,#806,.T.);
#808=CARTESIAN_POINT('',(58.126690868,133.379587024,5.017693924));
#809=DIRECTION('',(0.,-0.,-1.));
#810=DIRECTION('',(0.,1.,-0.));
#811=AXIS2_PLACEMENT_3D('',#808,#809,#810);
#812=CIRCLE('',#811,1.6);
#813=EDGE_CURVE('',#800,#798,#812,.T.);
#814=ORIENTED_EDGE('',*,*,#813,.T.);
#815=EDGE_LOOP('',(#807,#814));
#816=FACE_BOUND('',#815,.T.);
#817=ADVANCED_FACE('',(#736,#756,#776,#796,#816),#514,.T.);
#818=CARTESIAN_POINT('',(158.125511812,13.65437033,1.767693924));
#819=DIRECTION('',(1.,0.,0.));
#820=DIRECTION('',(0.,0.,-1.));
#821=AXIS2_PLACEMENT_3D('',#818,#819,#820);
#822=PLANE('',#821);
#823=CARTESIAN_POINT('',(158.125511812,161.65437033,3.517693924));
#824=VERTEX_POINT('',#823);
#825=CARTESIAN_POINT('',(158.125511812,161.65437033,0.017693924));
#826=DIRECTION('',(0.,0.,1.));
#827=VECTOR('',#826,3.5);
#828=LINE('',#825,#827);
#829=EDGE_CURVE('',#304,#824,#828,.T.);
#830=ORIENTED_EDGE('',*,*,#829,.T.);
#831=CARTESIAN_POINT('',(158.125511812,161.65437033,3.517693924));
#832=DIRECTION('',(-0.,-0.707106781,0.707106781));
#833=VECTOR('',#832,2.121320344);
#834=LINE('',#831,#833);
#835=EDGE_CURVE('',#824,#518,#834,.T.);
#836=ORIENTED_EDGE('',*,*,#835,.T.);
#837=ORIENTED_EDGE('',*,*,#523,.F.);
#838=CARTESIAN_POINT('',(158.125511812,122.220380116,0.017693924));
#839=DIRECTION('',(0.,-0.,1.));
#840=VECTOR('',#839,5.);
#841=LINE('',#838,#840);
#842=EDGE_CURVE('',#306,#516,#841,.T.);
#843=ORIENTED_EDGE('',*,*,#842,.F.);
#844=ORIENTED_EDGE('',*,*,#311,.F.);
#845=EDGE_LOOP('',(#830,#836,#837,#843,#844));
#846=FACE_BOUND('',#845,.T.);
#847=ADVANCED_FACE('',(#846),#822,.T.);
#848=CARTESIAN_POINT('',(158.125511812,13.65437033,1.767693924));
#849=DIRECTION('',(1.,0.,0.));
#850=DIRECTION('',(0.,0.,-1.));
#851=AXIS2_PLACEMENT_3D('',#848,#849,#850);
#852=PLANE('',#851);
#853=CARTESIAN_POINT('',(158.125511812,51.088360543,5.017693924));
#854=DIRECTION('',(-0.,-0.,-1.));
#855=VECTOR('',#854,5.);
#856=LINE('',#853,#855);
#857=EDGE_CURVE('',#550,#485,#856,.T.);
#858=ORIENTED_EDGE('',*,*,#857,.F.);
#859=ORIENTED_EDGE('',*,*,#555,.F.);
#860=CARTESIAN_POINT('',(158.125511812,11.65437033,3.517693924));
#861=DIRECTION('',(0.,0.707106781,0.707106781));
#862=VECTOR('',#861,2.121320344);
#863=LINE('',#860,#862);
#864=EDGE_CURVE('',#35,#542,#863,.T.);
#865=ORIENTED_EDGE('',*,*,#864,.F.);
#866=ORIENTED_EDGE('',*,*,#62,.F.);
#867=ORIENTED_EDGE('',*,*,#497,.F.);
#868=EDGE_LOOP('',(#858,#859,#865,#866,#867));
#869=FACE_BOUND('',#868,.T.);
#870=ADVANCED_FACE('',(#869),#852,.T.);
#871=CARTESIAN_POINT('',(158.125511812,12.40437033,4.267693924));
#872=DIRECTION('',(0.,-0.707106781,0.707106781));
#873=DIRECTION('',(0.,-0.707106781,-0.707106781));
#874=AXIS2_PLACEMENT_3D('',#871,#872,#873);
#875=PLANE('',#874);
#876=ORIENTED_EDGE('',*,*,#547,.F.);
#877=CARTESIAN_POINT('',(14.625511812,13.15437033,5.017693924));
#878=DIRECTION('',(-0.577350269,-0.577350269,-0.577350269));
#879=VECTOR('',#878,2.598076211);
#880=LINE('',#877,#879);
#881=EDGE_CURVE('',#534,#33,#880,.T.);
#882=ORIENTED_EDGE('',*,*,#881,.T.);
#883=ORIENTED_EDGE('',*,*,#40,.T.);
#884=ORIENTED_EDGE('',*,*,#864,.T.);
#885=EDGE_LOOP('',(#876,#882,#883,#884));
#886=FACE_BOUND('',#885,.T.);
#887=ADVANCED_FACE('',(#886),#875,.T.);
#888=CARTESIAN_POINT('',(26.716120933,130.941786373,0.017693924));
#889=DIRECTION('',(-0.866025404,-0.5,0.));
#890=DIRECTION('',(-0.5,0.866025404,-0.));
#891=AXIS2_PLACEMENT_3D('',#888,#889,#890);
#892=PLANE('',#891);
#893=CARTESIAN_POINT('',(25.32609814,133.349376475,2.217693924));
#894=VERTEX_POINT('',#893);
#895=CARTESIAN_POINT('',(25.32609814,133.349376475,0.017693924));
#896=DIRECTION('',(-0.,0.,1.));
#897=VECTOR('',#896,2.2);
#898=LINE('',#895,#897);
#899=EDGE_CURVE('',#138,#894,#898,.T.);
#900=ORIENTED_EDGE('',*,*,#899,.T.);
#901=CARTESIAN_POINT('',(26.716120933,130.941786373,2.217693924));
#902=VERTEX_POINT('',#901);
#903=CARTESIAN_POINT('',(26.716120933,130.941786373,2.217693924));
#904=DIRECTION('',(-0.5,0.866025404,-0.));
#905=VECTOR('',#904,2.780045587);
#906=LINE('',#903,#905);
#907=EDGE_CURVE('',#902,#894,#906,.T.);
#908=ORIENTED_EDGE('',*,*,#907,.F.);
#909=CARTESIAN_POINT('',(26.716120933,130.941786373,0.017693924));
#910=DIRECTION('',(-0.,0.,1.));
#911=VECTOR('',#910,2.2);
#912=LINE('',#909,#911);
#913=EDGE_CURVE('',#106,#902,#912,.T.);
#914=ORIENTED_EDGE('',*,*,#913,.F.);
#915=ORIENTED_EDGE('',*,*,#149,.T.);
#916=EDGE_LOOP('',(#900,#908,#914,#915));
#917=FACE_BOUND('',#916,.T.);
#918=ADVANCED_FACE('',(#917),#892,.F.);
#919=CARTESIAN_POINT('',(29.516120933,130.941786373,0.017693924));
#920=DIRECTION('',(0.,-1.,0.));
#921=DIRECTION('',(-1.,0.,0.));
#922=AXIS2_PLACEMENT_3D('',#919,#920,#921);
#923=PLANE('',#922);
#924=ORIENTED_EDGE('',*,*,#913,.T.);
#925=CARTESIAN_POINT('',(29.516120933,130.941786373,2.217693924));
#926=VERTEX_POINT('',#925);
#927=CARTESIAN_POINT('',(29.516120933,130.941786373,2.217693924));
#928=DIRECTION('',(-1.,-0.,0.));
#929=VECTOR('',#928,2.8);
#930=LINE('',#927,#929);
#931=EDGE_CURVE('',#926,#902,#930,.T.);
#932=ORIENTED_EDGE('',*,*,#931,.F.);
#933=CARTESIAN_POINT('',(29.516120933,130.941786373,0.017693924));
#934=DIRECTION('',(-0.,0.,1.));
#935=VECTOR('',#934,2.2);
#936=LINE('',#933,#935);
#937=EDGE_CURVE('',#104,#926,#936,.T.);
#938=ORIENTED_EDGE('',*,*,#937,.F.);
#939=ORIENTED_EDGE('',*,*,#111,.T.);
#940=EDGE_LOOP('',(#924,#932,#938,#939));
#941=FACE_BOUND('',#940,.T.);
#942=ADVANCED_FACE('',(#941),#923,.F.);
#943=CARTESIAN_POINT('',(30.926035946,133.38383081,0.017693924));
#944=DIRECTION('',(0.866025404,-0.5,0.));
#945=DIRECTION('',(-0.5,-0.866025404,0.));
#946=AXIS2_PLACEMENT_3D('',#943,#944,#945);
#947=PLANE('',#946);
#948=ORIENTED_EDGE('',*,*,#937,.T.);
#949=CARTESIAN_POINT('',(30.926035946,133.38383081,2.217693924));
#950=VERTEX_POINT('',#949);
#951=CARTESIAN_POINT('',(30.926035946,133.38383081,2.217693924));
#952=DIRECTION('',(-0.5,-0.866025404,0.));
#953=VECTOR('',#952,2.819830026);
#954=LINE('',#951,#953);
#955=EDGE_CURVE('',#950,#926,#954,.T.);
#956=ORIENTED_EDGE('',*,*,#955,.F.);
#957=CARTESIAN_POINT('',(30.926035946,133.38383081,0.017693924));
#958=DIRECTION('',(-0.,0.,1.));
#959=VECTOR('',#958,2.2);
#960=LINE('',#957,#959);
#961=EDGE_CURVE('',#114,#950,#960,.T.);
#962=ORIENTED_EDGE('',*,*,#961,.F.);
#963=ORIENTED_EDGE('',*,*,#119,.T.);
#964=EDGE_LOOP('',(#948,#956,#962,#963));
#965=FACE_BOUND('',#964,.T.);
#966=ADVANCED_FACE('',(#965),#947,.F.);
#967=CARTESIAN_POINT('',(29.536013153,135.791420912,0.017693924));
#968=DIRECTION('',(0.866025404,0.5,-0.));
#969=DIRECTION('',(0.5,-0.866025404,0.));
#970=AXIS2_PLACEMENT_3D('',#967,#968,#969);
#971=PLANE('',#970);
#972=ORIENTED_EDGE('',*,*,#961,.T.);
#973=CARTESIAN_POINT('',(29.536013153,135.791420912,2.217693924));
#974=VERTEX_POINT('',#973);
#975=CARTESIAN_POINT('',(29.536013153,135.791420912,2.217693924));
#976=DIRECTION('',(0.5,-0.866025404,0.));
#977=VECTOR('',#976,2.780045587);
#978=LINE('',#975,#977);
#979=EDGE_CURVE('',#974,#950,#978,.T.);
#980=ORIENTED_EDGE('',*,*,#979,.F.);
#981=CARTESIAN_POINT('',(29.536013153,135.791420912,0.017693924));
#982=DIRECTION('',(-0.,0.,1.));
#983=VECTOR('',#982,2.2);
#984=LINE('',#981,#983);
#985=EDGE_CURVE('',#122,#974,#984,.T.);
#986=ORIENTED_EDGE('',*,*,#985,.F.);
#987=ORIENTED_EDGE('',*,*,#127,.T.);
#988=EDGE_LOOP('',(#972,#980,#986,#987));
#989=FACE_BOUND('',#988,.T.);
#990=ADVANCED_FACE('',(#989),#971,.F.);
#991=CARTESIAN_POINT('',(26.736013153,135.791420912,0.017693924));
#992=DIRECTION('',(0.,1.,-0.));
#993=DIRECTION('',(1.,0.,0.));
#994=AXIS2_PLACEMENT_3D('',#991,#992,#993);
#995=PLANE('',#994);
#996=ORIENTED_EDGE('',*,*,#985,.T.);
#997=CARTESIAN_POINT('',(26.736013153,135.791420912,2.217693924));
#998=VERTEX_POINT('',#997);
#999=CARTESIAN_POINT('',(26.736013153,135.791420912,2.217693924));
#1000=DIRECTION('',(1.,0.,-0.));
#1001=VECTOR('',#1000,2.8);
#1002=LINE('',#999,#1001);
#1003=EDGE_CURVE('',#998,#974,#1002,.T.);
#1004=ORIENTED_EDGE('',*,*,#1003,.F.);
#1005=CARTESIAN_POINT('',(26.736013153,135.791420912,0.017693924));
#1006=DIRECTION('',(-0.,0.,1.));
#1007=VECTOR('',#1006,2.2);
#1008=LINE('',#1005,#1007);
#1009=EDGE_CURVE('',#130,#998,#1008,.T.);
#1010=ORIENTED_EDGE('',*,*,#1009,.F.);
#1011=ORIENTED_EDGE('',*,*,#135,.T.);
#1012=EDGE_LOOP('',(#996,#1004,#1010,#1011));
#1013=FACE_BOUND('',#1012,.T.);
#1014=ADVANCED_FACE('',(#1013),#995,.F.);
#1015=CARTESIAN_POINT('',(25.32609814,133.349376475,0.017693924));
#1016=DIRECTION('',(-0.866025404,0.5,-0.));
#1017=DIRECTION('',(0.5,0.866025404,-0.));
#1018=AXIS2_PLACEMENT_3D('',#1015,#1016,#1017);
#1019=PLANE('',#1018);
#1020=ORIENTED_EDGE('',*,*,#1009,.T.);
#1021=CARTESIAN_POINT('',(25.32609814,133.349376475,2.217693924));
#1022=DIRECTION('',(0.5,0.866025404,-0.));
#1023=VECTOR('',#1022,2.819830026);
#1024=LINE('',#1021,#1023);
#1025=EDGE_CURVE('',#894,#998,#1024,.T.);
#1026=ORIENTED_EDGE('',*,*,#1025,.F.);
#1027=ORIENTED_EDGE('',*,*,#899,.F.);
#1028=ORIENTED_EDGE('',*,*,#143,.T.);
#1029=EDGE_LOOP('',(#1020,#1026,#1027,#1028));
#1030=FACE_BOUND('',#1029,.T.);
#1031=ADVANCED_FACE('',(#1030),#1019,.F.);
#1032=CARTESIAN_POINT('',(158.125511812,86.65437033,2.217693924));
#1033=DIRECTION('',(0.,-0.,-1.));
#1034=DIRECTION('',(1.,0.,0.));
#1035=AXIS2_PLACEMENT_3D('',#1032,#1033,#1034);
#1036=PLANE('',#1035);
#1037=ORIENTED_EDGE('',*,*,#1025,.T.);
#1038=ORIENTED_EDGE('',*,*,#1003,.T.);
#1039=ORIENTED_EDGE('',*,*,#979,.T.);
#1040=ORIENTED_EDGE('',*,*,#955,.T.);
#1041=ORIENTED_EDGE('',*,*,#931,.T.);
#1042=ORIENTED_EDGE('',*,*,#907,.T.);
#1043=EDGE_LOOP('',(#1037,#1038,#1039,#1040,#1041,#1042));
#1044=FACE_BOUND('',#1043,.T.);
#1045=CARTESIAN_POINT('',(29.725511812,133.379587024,2.217693924));
#1046=VERTEX_POINT('',#1045);
#1047=CARTESIAN_POINT('',(28.125511812,134.979587024,2.217693924));
#1048=VERTEX_POINT('',#1047);
#1049=CARTESIAN_POINT('',(28.125511812,133.379587024,2.217693924));
#1050=DIRECTION('',(0.,-0.,-1.));
#1051=DIRECTION('',(0.,1.,-0.));
#1052=AXIS2_PLACEMENT_3D('',#1049,#1050,#1051);
#1053=CIRCLE('',#1052,1.6);
#1054=EDGE_CURVE('',#1046,#1048,#1053,.T.);
#1055=ORIENTED_EDGE('',*,*,#1054,.F.);
#1056=CARTESIAN_POINT('',(28.125511812,133.379587024,2.217693924));
#1057=DIRECTION('',(0.,-0.,-1.));
#1058=DIRECTION('',(0.,1.,-0.));
#1059=AXIS2_PLACEMENT_3D('',#1056,#1057,#1058);
#1060=CIRCLE('',#1059,1.6);
#1061=EDGE_CURVE('',#1048,#1046,#1060,.T.);
#1062=ORIENTED_EDGE('',*,*,#1061,.F.);
#1063=EDGE_LOOP('',(#1055,#1062));
#1064=FACE_BOUND('',#1063,.T.);
#1065=ADVANCED_FACE('',(#1044,#1064),#1036,.T.);
#1066=CARTESIAN_POINT('',(158.125511812,86.65437033,2.217693924));
#1067=DIRECTION('',(0.,-0.,-1.));
#1068=DIRECTION('',(1.,0.,0.));
#1069=AXIS2_PLACEMENT_3D('',#1066,#1067,#1068);
#1070=PLANE('',#1069);
#1071=CARTESIAN_POINT('',(56.736017786,130.924030407,2.217693924));
#1072=VERTEX_POINT('',#1071);
#1073=CARTESIAN_POINT('',(55.325828568,133.366549781,2.217693924));
#1074=VERTEX_POINT('',#1073);
#1075=CARTESIAN_POINT('',(56.736017786,130.924030407,2.217693924));
#1076=DIRECTION('',(-0.5,0.866025404,-0.));
#1077=VECTOR('',#1076,2.820378436);
#1078=LINE('',#1075,#1077);
#1079=EDGE_CURVE('',#1072,#1074,#1078,.T.);
#1080=ORIENTED_EDGE('',*,*,#1079,.T.);
#1081=CARTESIAN_POINT('',(56.725828568,135.791420912,2.217693924));
#1082=VERTEX_POINT('',#1081);
#1083=CARTESIAN_POINT('',(55.325828568,133.366549781,2.217693924));
#1084=DIRECTION('',(0.5,0.866025404,-0.));
#1085=VECTOR('',#1084,2.8);
#1086=LINE('',#1083,#1085);
#1087=EDGE_CURVE('',#1074,#1082,#1086,.T.);
#1088=ORIENTED_EDGE('',*,*,#1087,.T.);
#1089=CARTESIAN_POINT('',(59.525828568,135.791420912,2.217693924));
#1090=VERTEX_POINT('',#1089);
#1091=CARTESIAN_POINT('',(56.725828568,135.791420912,2.217693924));
#1092=DIRECTION('',(1.,0.,-0.));
#1093=VECTOR('',#1092,2.8);
#1094=LINE('',#1091,#1093);
#1095=EDGE_CURVE('',#1082,#1090,#1094,.T.);
#1096=ORIENTED_EDGE('',*,*,#1095,.T.);
#1097=CARTESIAN_POINT('',(60.936017786,133.348901538,2.217693924));
#1098=VERTEX_POINT('',#1097);
#1099=CARTESIAN_POINT('',(59.525828568,135.791420912,2.217693924));
#1100=DIRECTION('',(0.5,-0.866025404,0.));
#1101=VECTOR('',#1100,2.820378436);
#1102=LINE('',#1099,#1101);
#1103=EDGE_CURVE('',#1090,#1098,#1102,.T.);
#1104=ORIENTED_EDGE('',*,*,#1103,.T.);
#1105=CARTESIAN_POINT('',(59.536017786,130.924030407,2.217693924));
#1106=VERTEX_POINT('',#1105);
#1107=CARTESIAN_POINT('',(60.936017786,133.348901538,2.217693924));
#1108=DIRECTION('',(-0.5,-0.866025404,0.));
#1109=VECTOR('',#1108,2.8);
#1110=LINE('',#1107,#1109);
#1111=EDGE_CURVE('',#1098,#1106,#1110,.T.);
#1112=ORIENTED_EDGE('',*,*,#1111,.T.);
#1113=CARTESIAN_POINT('',(59.536017786,130.924030407,2.217693924));
#1114=DIRECTION('',(-1.,-0.,0.));
#1115=VECTOR('',#1114,2.8);
#1116=LINE('',#1113,#1115);
#1117=EDGE_CURVE('',#1106,#1072,#1116,.T.);
#1118=ORIENTED_EDGE('',*,*,#1117,.T.);
#1119=EDGE_LOOP('',(#1080,#1088,#1096,#1104,#1112,#1118));
#1120=FACE_BOUND('',#1119,.T.);
#1121=CARTESIAN_POINT('',(59.726690868,133.379587024,2.217693924));
#1122=VERTEX_POINT('',#1121);
#1123=CARTESIAN_POINT('',(58.126690868,134.979587024,2.217693924));
#1124=VERTEX_POINT('',#1123);
#1125=CARTESIAN_POINT('',(58.126690868,133.379587024,2.217693924));
#1126=DIRECTION('',(0.,-0.,-1.));
#1127=DIRECTION('',(0.,1.,-0.));
#1128=AXIS2_PLACEMENT_3D('',#1125,#1126,#1127);
#1129=CIRCLE('',#1128,1.6);
#1130=EDGE_CURVE('',#1122,#1124,#1129,.T.);
#1131=ORIENTED_EDGE('',*,*,#1130,.F.);
#1132=CARTESIAN_POINT('',(58.126690868,133.379587024,2.217693924));
#1133=DIRECTION('',(0.,-0.,-1.));
#1134=DIRECTION('',(0.,1.,-0.));
#1135=AXIS2_PLACEMENT_3D('',#1132,#1133,#1134);
#1136=CIRCLE('',#1135,1.6);
#1137=EDGE_CURVE('',#1124,#1122,#1136,.T.);
#1138=ORIENTED_EDGE('',*,*,#1137,.F.);
#1139=EDGE_LOOP('',(#1131,#1138));
#1140=FACE_BOUND('',#1139,.T.);
#1141=ADVANCED_FACE('',(#1120,#1140),#1070,.T.);
#1142=CARTESIAN_POINT('',(158.125511812,86.65437033,2.217693924));
#1143=DIRECTION('',(0.,-0.,-1.));
#1144=DIRECTION('',(1.,0.,0.));
#1145=AXIS2_PLACEMENT_3D('',#1142,#1143,#1144);
#1146=PLANE('',#1145);
#1147=CARTESIAN_POINT('',(29.516120933,160.29038448,2.217693924));
#1148=VERTEX_POINT('',#1147);
#1149=CARTESIAN_POINT('',(30.926035946,157.848340043,2.217693924));
#1150=VERTEX_POINT('',#1149);
#1151=CARTESIAN_POINT('',(29.516120933,160.29038448,2.217693924));
#1152=DIRECTION('',(0.5,-0.866025404,0.));
#1153=VECTOR('',#1152,2.819830026);
#1154=LINE('',#1151,#1153);
#1155=EDGE_CURVE('',#1148,#1150,#1154,.T.);
#1156=ORIENTED_EDGE('',*,*,#1155,.T.);
#1157=CARTESIAN_POINT('',(29.536013153,155.440749942,2.217693924));
#1158=VERTEX_POINT('',#1157);
#1159=CARTESIAN_POINT('',(30.926035946,157.848340043,2.217693924));
#1160=DIRECTION('',(-0.5,-0.866025404,0.));
#1161=VECTOR('',#1160,2.780045587);
#1162=LINE('',#1159,#1161);
#1163=EDGE_CURVE('',#1150,#1158,#1162,.T.);
#1164=ORIENTED_EDGE('',*,*,#1163,.T.);
#1165=CARTESIAN_POINT('',(26.736013153,155.440749942,2.217693924));
#1166=VERTEX_POINT('',#1165);
#1167=CARTESIAN_POINT('',(29.536013153,155.440749942,2.217693924));
#1168=DIRECTION('',(-1.,-0.,0.));
#1169=VECTOR('',#1168,2.8);
#1170=LINE('',#1167,#1169);
#1171=EDGE_CURVE('',#1158,#1166,#1170,.T.);
#1172=ORIENTED_EDGE('',*,*,#1171,.T.);
#1173=CARTESIAN_POINT('',(25.32609814,157.882794378,2.217693924));
#1174=VERTEX_POINT('',#1173);
#1175=CARTESIAN_POINT('',(26.736013153,155.440749942,2.217693924));
#1176=DIRECTION('',(-0.5,0.866025404,-0.));
#1177=VECTOR('',#1176,2.819830026);
#1178=LINE('',#1175,#1177);
#1179=EDGE_CURVE('',#1166,#1174,#1178,.T.);
#1180=ORIENTED_EDGE('',*,*,#1179,.T.);
#1181=CARTESIAN_POINT('',(26.716120933,160.29038448,2.217693924));
#1182=VERTEX_POINT('',#1181);
#1183=CARTESIAN_POINT('',(25.32609814,157.882794378,2.217693924));
#1184=DIRECTION('',(0.5,0.866025404,-0.));
#1185=VECTOR('',#1184,2.780045587);
#1186=LINE('',#1183,#1185);
#1187=EDGE_CURVE('',#1174,#1182,#1186,.T.);
#1188=ORIENTED_EDGE('',*,*,#1187,.T.);
#1189=CARTESIAN_POINT('',(26.716120933,160.29038448,2.217693924));
#1190=DIRECTION('',(1.,0.,-0.));
#1191=VECTOR('',#1190,2.8);
#1192=LINE('',#1189,#1191);
#1193=EDGE_CURVE('',#1182,#1148,#1192,.T.);
#1194=ORIENTED_EDGE('',*,*,#1193,.T.);
#1195=EDGE_LOOP('',(#1156,#1164,#1172,#1180,#1188,#1194));
#1196=FACE_BOUND('',#1195,.T.);
#1197=CARTESIAN_POINT('',(29.725511812,157.877296961,2.217693924));
#1198=VERTEX_POINT('',#1197);
#1199=CARTESIAN_POINT('',(28.125511812,159.477296961,2.217693924));
#1200=VERTEX_POINT('',#1199);
#1201=CARTESIAN_POINT('',(28.125511812,157.877296961,2.217693924));
#1202=DIRECTION('',(0.,-0.,-1.));
#1203=DIRECTION('',(0.,1.,-0.));
#1204=AXIS2_PLACEMENT_3D('',#1201,#1202,#1203);
#1205=CIRCLE('',#1204,1.6);
#1206=EDGE_CURVE('',#1198,#1200,#1205,.T.);
#1207=ORIENTED_EDGE('',*,*,#1206,.F.);
#1208=CARTESIAN_POINT('',(28.125511812,157.877296961,2.217693924));
#1209=DIRECTION('',(0.,-0.,-1.));
#1210=DIRECTION('',(0.,1.,-0.));
#1211=AXIS2_PLACEMENT_3D('',#1208,#1209,#1210);
#1212=CIRCLE('',#1211,1.6);
#1213=EDGE_CURVE('',#1200,#1198,#1212,.T.);
#1214=ORIENTED_EDGE('',*,*,#1213,.F.);
#1215=EDGE_LOOP('',(#1207,#1214));
#1216=FACE_BOUND('',#1215,.T.);
#1217=ADVANCED_FACE('',(#1196,#1216),#1146,.T.);
#1218=CARTESIAN_POINT('',(158.125511812,86.65437033,2.217693924));
#1219=DIRECTION('',(0.,-0.,-1.));
#1220=DIRECTION('',(1.,0.,0.));
#1221=AXIS2_PLACEMENT_3D('',#1218,#1219,#1220);
#1222=PLANE('',#1221);
#1223=CARTESIAN_POINT('',(60.936017786,157.883269316,2.217693924));
#1224=VERTEX_POINT('',#1223);
#1225=CARTESIAN_POINT('',(59.525828568,155.440749942,2.217693924));
#1226=VERTEX_POINT('',#1225);
#1227=CARTESIAN_POINT('',(60.936017786,157.883269316,2.217693924));
#1228=DIRECTION('',(-0.5,-0.866025404,0.));
#1229=VECTOR('',#1228,2.820378436);
#1230=LINE('',#1227,#1229);
#1231=EDGE_CURVE('',#1224,#1226,#1230,.T.);
#1232=ORIENTED_EDGE('',*,*,#1231,.T.);
#1233=CARTESIAN_POINT('',(56.725828568,155.440749942,2.217693924));
#1234=VERTEX_POINT('',#1233);
#1235=CARTESIAN_POINT('',(59.525828568,155.440749942,2.217693924));
#1236=DIRECTION('',(-1.,-0.,0.));
#1237=VECTOR('',#1236,2.8);
#1238=LINE('',#1235,#1237);
#1239=EDGE_CURVE('',#1226,#1234,#1238,.T.);
#1240=ORIENTED_EDGE('',*,*,#1239,.T.);
#1241=CARTESIAN_POINT('',(55.325828568,157.865621072,2.217693924));
#1242=VERTEX_POINT('',#1241);
#1243=CARTESIAN_POINT('',(56.725828568,155.440749942,2.217693924));
#1244=DIRECTION('',(-0.5,0.866025404,-0.));
#1245=VECTOR('',#1244,2.8);
#1246=LINE('',#1243,#1245);
#1247=EDGE_CURVE('',#1234,#1242,#1246,.T.);
#1248=ORIENTED_EDGE('',*,*,#1247,.T.);
#1249=CARTESIAN_POINT('',(56.736017786,160.308140446,2.217693924));
#1250=VERTEX_POINT('',#1249);
#1251=CARTESIAN_POINT('',(55.325828568,157.865621072,2.217693924));
#1252=DIRECTION('',(0.5,0.866025404,-0.));
#1253=VECTOR('',#1252,2.820378436);
#1254=LINE('',#1251,#1253);
#1255=EDGE_CURVE('',#1242,#1250,#1254,.T.);
#1256=ORIENTED_EDGE('',*,*,#1255,.T.);
#1257=CARTESIAN_POINT('',(59.536017786,160.308140446,2.217693924));
#1258=VERTEX_POINT('',#1257);
#1259=CARTESIAN_POINT('',(56.736017786,160.308140446,2.217693924));
#1260=DIRECTION('',(1.,0.,-0.));
#1261=VECTOR('',#1260,2.8);
#1262=LINE('',#1259,#1261);
#1263=EDGE_CURVE('',#1250,#1258,#1262,.T.);
#1264=ORIENTED_EDGE('',*,*,#1263,.T.);
#1265=CARTESIAN_POINT('',(59.536017786,160.308140446,2.217693924));
#1266=DIRECTION('',(0.5,-0.866025404,0.));
#1267=VECTOR('',#1266,2.8);
#1268=LINE('',#1265,#1267);
#1269=EDGE_CURVE('',#1258,#1224,#1268,.T.);
#1270=ORIENTED_EDGE('',*,*,#1269,.T.);
#1271=EDGE_LOOP('',(#1232,#1240,#1248,#1256,#1264,#1270));
#1272=FACE_BOUND('',#1271,.T.);
#1273=CARTESIAN_POINT('',(59.726690868,157.877296961,2.217693924));
#1274=VERTEX_POINT('',#1273);
#1275=CARTESIAN_POINT('',(58.126690868,159.477296961,2.217693924));
#1276=VERTEX_POINT('',#1275);
#1277=CARTESIAN_POINT('',(58.126690868,157.877296961,2.217693924));
#1278=DIRECTION('',(0.,-0.,-1.));
#1279=DIRECTION('',(0.,1.,-0.));
#1280=AXIS2_PLACEMENT_3D('',#1277,#1278,#1279);
#1281=CIRCLE('',#1280,1.6);
#1282=EDGE_CURVE('',#1274,#1276,#1281,.T.);
#1283=ORIENTED_EDGE('',*,*,#1282,.F.);
#1284=CARTESIAN_POINT('',(58.126690868,157.877296961,2.217693924));
#1285=DIRECTION('',(0.,-0.,-1.));
#1286=DIRECTION('',(0.,1.,-0.));
#1287=AXIS2_PLACEMENT_3D('',#1284,#1285,#1286);
#1288=CIRCLE('',#1287,1.6);
#1289=EDGE_CURVE('',#1276,#1274,#1288,.T.);
#1290=ORIENTED_EDGE('',*,*,#1289,.F.);
#1291=EDGE_LOOP('',(#1283,#1290));
#1292=FACE_BOUND('',#1291,.T.);
#1293=ADVANCED_FACE('',(#1272,#1292),#1222,.T.);
#1294=CARTESIAN_POINT('',(59.536017786,130.924030407,0.017693924));
#1295=DIRECTION('',(0.,-1.,0.));
#1296=DIRECTION('',(-1.,-0.,0.));
#1297=AXIS2_PLACEMENT_3D('',#1294,#1295,#1296);
#1298=PLANE('',#1297);
#1299=CARTESIAN_POINT('',(56.736017786,130.924030407,0.017693924));
#1300=DIRECTION('',(-0.,0.,1.));
#1301=VECTOR('',#1300,2.2);
#1302=LINE('',#1299,#1301);
#1303=EDGE_CURVE('',#288,#1072,#1302,.T.);
#1304=ORIENTED_EDGE('',*,*,#1303,.T.);
#1305=ORIENTED_EDGE('',*,*,#1117,.F.);
#1306=CARTESIAN_POINT('',(59.536017786,130.924030407,0.017693924));
#1307=DIRECTION('',(-0.,0.,1.));
#1308=VECTOR('',#1307,2.2);
#1309=LINE('',#1306,#1308);
#1310=EDGE_CURVE('',#256,#1106,#1309,.T.);
#1311=ORIENTED_EDGE('',*,*,#1310,.F.);
#1312=ORIENTED_EDGE('',*,*,#299,.T.);
#1313=EDGE_LOOP('',(#1304,#1305,#1311,#1312));
#1314=FACE_BOUND('',#1313,.T.);
#1315=ADVANCED_FACE('',(#1314),#1298,.F.);
#1316=CARTESIAN_POINT('',(60.936017786,133.348901538,0.017693924));
#1317=DIRECTION('',(0.866025404,-0.5,0.));
#1318=DIRECTION('',(-0.5,-0.866025404,0.));
#1319=AXIS2_PLACEMENT_3D('',#1316,#1317,#1318);
#1320=PLANE('',#1319);
#1321=ORIENTED_EDGE('',*,*,#1310,.T.);
#1322=ORIENTED_EDGE('',*,*,#1111,.F.);
#1323=CARTESIAN_POINT('',(60.936017786,133.348901538,0.017693924));
#1324=DIRECTION('',(-0.,0.,1.));
#1325=VECTOR('',#1324,2.2);
#1326=LINE('',#1323,#1325);
#1327=EDGE_CURVE('',#254,#1098,#1326,.T.);
#1328=ORIENTED_EDGE('',*,*,#1327,.F.);
#1329=ORIENTED_EDGE('',*,*,#261,.T.);
#1330=EDGE_LOOP('',(#1321,#1322,#1328,#1329));
#1331=FACE_BOUND('',#1330,.T.);
#1332=ADVANCED_FACE('',(#1331),#1320,.F.);
#1333=CARTESIAN_POINT('',(59.525828568,135.791420912,0.017693924));
#1334=DIRECTION('',(0.866025404,0.5,-0.));
#1335=DIRECTION('',(0.5,-0.866025404,0.));
#1336=AXIS2_PLACEMENT_3D('',#1333,#1334,#1335);
#1337=PLANE('',#1336);
#1338=ORIENTED_EDGE('',*,*,#1327,.T.);
#1339=ORIENTED_EDGE('',*,*,#1103,.F.);
#1340=CARTESIAN_POINT('',(59.525828568,135.791420912,0.017693924));
#1341=DIRECTION('',(-0.,0.,1.));
#1342=VECTOR('',#1341,2.2);
#1343=LINE('',#1340,#1342);
#1344=EDGE_CURVE('',#264,#1090,#1343,.T.);
#1345=ORIENTED_EDGE('',*,*,#1344,.F.);
#1346=ORIENTED_EDGE('',*,*,#269,.T.);
#1347=EDGE_LOOP('',(#1338,#1339,#1345,#1346));
#1348=FACE_BOUND('',#1347,.T.);
#1349=ADVANCED_FACE('',(#1348),#1337,.F.);
#1350=CARTESIAN_POINT('',(56.725828568,135.791420912,0.017693924));
#1351=DIRECTION('',(0.,1.,-0.));
#1352=DIRECTION('',(1.,0.,0.));
#1353=AXIS2_PLACEMENT_3D('',#1350,#1351,#1352);
#1354=PLANE('',#1353);
#1355=ORIENTED_EDGE('',*,*,#1344,.T.);
#1356=ORIENTED_EDGE('',*,*,#1095,.F.);
#1357=CARTESIAN_POINT('',(56.725828568,135.791420912,0.017693924));
#1358=DIRECTION('',(-0.,0.,1.));
#1359=VECTOR('',#1358,2.2);
#1360=LINE('',#1357,#1359);
#1361=EDGE_CURVE('',#272,#1082,#1360,.T.);
#1362=ORIENTED_EDGE('',*,*,#1361,.F.);
#1363=ORIENTED_EDGE('',*,*,#277,.T.);
#1364=EDGE_LOOP('',(#1355,#1356,#1362,#1363));
#1365=FACE_BOUND('',#1364,.T.);
#1366=ADVANCED_FACE('',(#1365),#1354,.F.);
#1367=CARTESIAN_POINT('',(55.325828568,133.366549781,0.017693924));
#1368=DIRECTION('',(-0.866025404,0.5,-0.));
#1369=DIRECTION('',(0.5,0.866025404,-0.));
#1370=AXIS2_PLACEMENT_3D('',#1367,#1368,#1369);
#1371=PLANE('',#1370);
#1372=ORIENTED_EDGE('',*,*,#1361,.T.);
#1373=ORIENTED_EDGE('',*,*,#1087,.F.);
#1374=CARTESIAN_POINT('',(55.325828568,133.366549781,0.017693924));
#1375=DIRECTION('',(-0.,0.,1.));
#1376=VECTOR('',#1375,2.2);
#1377=LINE('',#1374,#1376);
#1378=EDGE_CURVE('',#280,#1074,#1377,.T.);
#1379=ORIENTED_EDGE('',*,*,#1378,.F.);
#1380=ORIENTED_EDGE('',*,*,#285,.T.);
#1381=EDGE_LOOP('',(#1372,#1373,#1379,#1380));
#1382=FACE_BOUND('',#1381,.T.);
#1383=ADVANCED_FACE('',(#1382),#1371,.F.);
#1384=CARTESIAN_POINT('',(56.736017786,130.924030407,0.017693924));
#1385=DIRECTION('',(-0.866025404,-0.5,0.));
#1386=DIRECTION('',(-0.5,0.866025404,-0.));
#1387=AXIS2_PLACEMENT_3D('',#1384,#1385,#1386);
#1388=PLANE('',#1387);
#1389=ORIENTED_EDGE('',*,*,#1378,.T.);
#1390=ORIENTED_EDGE('',*,*,#1079,.F.);
#1391=ORIENTED_EDGE('',*,*,#1303,.F.);
#1392=ORIENTED_EDGE('',*,*,#293,.T.);
#1393=EDGE_LOOP('',(#1389,#1390,#1391,#1392));
#1394=FACE_BOUND('',#1393,.T.);
#1395=ADVANCED_FACE('',(#1394),#1388,.F.);
#1396=CARTESIAN_POINT('',(26.716120933,160.29038448,0.017693924));
#1397=DIRECTION('',(0.,1.,-0.));
#1398=DIRECTION('',(1.,0.,0.));
#1399=AXIS2_PLACEMENT_3D('',#1396,#1397,#1398);
#1400=PLANE('',#1399);
#1401=CARTESIAN_POINT('',(29.516120933,160.29038448,0.017693924));
#1402=DIRECTION('',(-0.,0.,1.));
#1403=VECTOR('',#1402,2.2);
#1404=LINE('',#1401,#1403);
#1405=EDGE_CURVE('',#238,#1148,#1404,.T.);
#1406=ORIENTED_EDGE('',*,*,#1405,.T.);
#1407=ORIENTED_EDGE('',*,*,#1193,.F.);
#1408=CARTESIAN_POINT('',(26.716120933,160.29038448,0.017693924));
#1409=DIRECTION('',(-0.,0.,1.));
#1410=VECTOR('',#1409,2.2);
#1411=LINE('',#1408,#1410);
#1412=EDGE_CURVE('',#206,#1182,#1411,.T.);
#1413=ORIENTED_EDGE('',*,*,#1412,.F.);
#1414=ORIENTED_EDGE('',*,*,#249,.T.);
#1415=EDGE_LOOP('',(#1406,#1407,#1413,#1414));
#1416=FACE_BOUND('',#1415,.T.);
#1417=ADVANCED_FACE('',(#1416),#1400,.F.);
#1418=CARTESIAN_POINT('',(25.32609814,157.882794378,0.017693924));
#1419=DIRECTION('',(-0.866025404,0.5,-0.));
#1420=DIRECTION('',(0.5,0.866025404,-0.));
#1421=AXIS2_PLACEMENT_3D('',#1418,#1419,#1420);
#1422=PLANE('',#1421);
#1423=ORIENTED_EDGE('',*,*,#1412,.T.);
#1424=ORIENTED_EDGE('',*,*,#1187,.F.);
#1425=CARTESIAN_POINT('',(25.32609814,157.882794378,0.017693924));
#1426=DIRECTION('',(-0.,0.,1.));
#1427=VECTOR('',#1426,2.2);
#1428=LINE('',#1425,#1427);
#1429=EDGE_CURVE('',#204,#1174,#1428,.T.);
#1430=ORIENTED_EDGE('',*,*,#1429,.F.);
#1431=ORIENTED_EDGE('',*,*,#211,.T.);
#1432=EDGE_LOOP('',(#1423,#1424,#1430,#1431));
#1433=FACE_BOUND('',#1432,.T.);
#1434=ADVANCED_FACE('',(#1433),#1422,.F.);
#1435=CARTESIAN_POINT('',(26.736013153,155.440749942,0.017693924));
#1436=DIRECTION('',(-0.866025404,-0.5,0.));
#1437=DIRECTION('',(-0.5,0.866025404,-0.));
#1438=AXIS2_PLACEMENT_3D('',#1435,#1436,#1437);
#1439=PLANE('',#1438);
#1440=ORIENTED_EDGE('',*,*,#1429,.T.);
#1441=ORIENTED_EDGE('',*,*,#1179,.F.);
#1442=CARTESIAN_POINT('',(26.736013153,155.440749942,0.017693924));
#1443=DIRECTION('',(-0.,0.,1.));
#1444=VECTOR('',#1443,2.2);
#1445=LINE('',#1442,#1444);
#1446=EDGE_CURVE('',#214,#1166,#1445,.T.);
#1447=ORIENTED_EDGE('',*,*,#1446,.F.);
#1448=ORIENTED_EDGE('',*,*,#219,.T.);
#1449=EDGE_LOOP('',(#1440,#1441,#1447,#1448));
#1450=FACE_BOUND('',#1449,.T.);
#1451=ADVANCED_FACE('',(#1450),#1439,.F.);
#1452=CARTESIAN_POINT('',(29.536013153,155.440749942,0.017693924));
#1453=DIRECTION('',(0.,-1.,0.));
#1454=DIRECTION('',(-1.,0.,0.));
#1455=AXIS2_PLACEMENT_3D('',#1452,#1453,#1454);
#1456=PLANE('',#1455);
#1457=ORIENTED_EDGE('',*,*,#1446,.T.);
#1458=ORIENTED_EDGE('',*,*,#1171,.F.);
#1459=CARTESIAN_POINT('',(29.536013153,155.440749942,0.017693924));
#1460=DIRECTION('',(-0.,0.,1.));
#1461=VECTOR('',#1460,2.2);
#1462=LINE('',#1459,#1461);
#1463=EDGE_CURVE('',#222,#1158,#1462,.T.);
#1464=ORIENTED_EDGE('',*,*,#1463,.F.);
#1465=ORIENTED_EDGE('',*,*,#227,.T.);
#1466=EDGE_LOOP('',(#1457,#1458,#1464,#1465));
#1467=FACE_BOUND('',#1466,.T.);
#1468=ADVANCED_FACE('',(#1467),#1456,.F.);
#1469=CARTESIAN_POINT('',(30.926035946,157.848340043,0.017693924));
#1470=DIRECTION('',(0.866025404,-0.5,0.));
#1471=DIRECTION('',(-0.5,-0.866025404,0.));
#1472=AXIS2_PLACEMENT_3D('',#1469,#1470,#1471);
#1473=PLANE('',#1472);
#1474=ORIENTED_EDGE('',*,*,#1463,.T.);
#1475=ORIENTED_EDGE('',*,*,#1163,.F.);
#1476=CARTESIAN_POINT('',(30.926035946,157.848340043,0.017693924));
#1477=DIRECTION('',(-0.,0.,1.));
#1478=VECTOR('',#1477,2.2);
#1479=LINE('',#1476,#1478);
#1480=EDGE_CURVE('',#230,#1150,#1479,.T.);
#1481=ORIENTED_EDGE('',*,*,#1480,.F.);
#1482=ORIENTED_EDGE('',*,*,#235,.T.);
#1483=EDGE_LOOP('',(#1474,#1475,#1481,#1482));
#1484=FACE_BOUND('',#1483,.T.);
#1485=ADVANCED_FACE('',(#1484),#1473,.F.);
#1486=CARTESIAN_POINT('',(29.516120933,160.29038448,0.017693924));
#1487=DIRECTION('',(0.866025404,0.5,-0.));
#1488=DIRECTION('',(0.5,-0.866025404,0.));
#1489=AXIS2_PLACEMENT_3D('',#1486,#1487,#1488);
#1490=PLANE('',#1489);
#1491=ORIENTED_EDGE('',*,*,#1480,.T.);
#1492=ORIENTED_EDGE('',*,*,#1155,.F.);
#1493=ORIENTED_EDGE('',*,*,#1405,.F.);
#1494=ORIENTED_EDGE('',*,*,#243,.T.);
#1495=EDGE_LOOP('',(#1491,#1492,#1493,#1494));
#1496=FACE_BOUND('',#1495,.T.);
#1497=ADVANCED_FACE('',(#1496),#1490,.F.);
#1498=CARTESIAN_POINT('',(59.536017786,160.308140446,0.017693924));
#1499=DIRECTION('',(0.866025404,0.5,-0.));
#1500=DIRECTION('',(0.5,-0.866025404,0.));
#1501=AXIS2_PLACEMENT_3D('',#1498,#1499,#1500);
#1502=PLANE('',#1501);
#1503=CARTESIAN_POINT('',(60.936017786,157.883269316,0.017693924));
#1504=DIRECTION('',(-0.,0.,1.));
#1505=VECTOR('',#1504,2.2);
#1506=LINE('',#1503,#1505);
#1507=EDGE_CURVE('',#188,#1224,#1506,.T.);
#1508=ORIENTED_EDGE('',*,*,#1507,.T.);
#1509=ORIENTED_EDGE('',*,*,#1269,.F.);
#1510=CARTESIAN_POINT('',(59.536017786,160.308140446,0.017693924));
#1511=DIRECTION('',(-0.,0.,1.));
#1512=VECTOR('',#1511,2.2);
#1513=LINE('',#1510,#1512);
#1514=EDGE_CURVE('',#156,#1258,#1513,.T.);
#1515=ORIENTED_EDGE('',*,*,#1514,.F.);
#1516=ORIENTED_EDGE('',*,*,#199,.T.);
#1517=EDGE_LOOP('',(#1508,#1509,#1515,#1516));
#1518=FACE_BOUND('',#1517,.T.);
#1519=ADVANCED_FACE('',(#1518),#1502,.F.);
#1520=CARTESIAN_POINT('',(56.736017786,160.308140446,0.017693924));
#1521=DIRECTION('',(0.,1.,-0.));
#1522=DIRECTION('',(1.,-0.,0.));
#1523=AXIS2_PLACEMENT_3D('',#1520,#1521,#1522);
#1524=PLANE('',#1523);
#1525=ORIENTED_EDGE('',*,*,#1514,.T.);
#1526=ORIENTED_EDGE('',*,*,#1263,.F.);
#1527=CARTESIAN_POINT('',(56.736017786,160.308140446,0.017693924));
#1528=DIRECTION('',(-0.,0.,1.));
#1529=VECTOR('',#1528,2.2);
#1530=LINE('',#1527,#1529);
#1531=EDGE_CURVE('',#154,#1250,#1530,.T.);
#1532=ORIENTED_EDGE('',*,*,#1531,.F.);
#1533=ORIENTED_EDGE('',*,*,#161,.T.);
#1534=EDGE_LOOP('',(#1525,#1526,#1532,#1533));
#1535=FACE_BOUND('',#1534,.T.);
#1536=ADVANCED_FACE('',(#1535),#1524,.F.);
#1537=CARTESIAN_POINT('',(55.325828568,157.865621072,0.017693924));
#1538=DIRECTION('',(-0.866025404,0.5,-0.));
#1539=DIRECTION('',(0.5,0.866025404,-0.));
#1540=AXIS2_PLACEMENT_3D('',#1537,#1538,#1539);
#1541=PLANE('',#1540);
#1542=ORIENTED_EDGE('',*,*,#1531,.T.);
#1543=ORIENTED_EDGE('',*,*,#1255,.F.);
#1544=CARTESIAN_POINT('',(55.325828568,157.865621072,0.017693924));
#1545=DIRECTION('',(-0.,0.,1.));
#1546=VECTOR('',#1545,2.2);
#1547=LINE('',#1544,#1546);
#1548=EDGE_CURVE('',#164,#1242,#1547,.T.);
#1549=ORIENTED_EDGE('',*,*,#1548,.F.);
#1550=ORIENTED_EDGE('',*,*,#169,.T.);
#1551=EDGE_LOOP('',(#1542,#1543,#1549,#1550));
#1552=FACE_BOUND('',#1551,.T.);
#1553=ADVANCED_FACE('',(#1552),#1541,.F.);
#1554=CARTESIAN_POINT('',(56.725828568,155.440749942,0.017693924));
#1555=DIRECTION('',(-0.866025404,-0.5,0.));
#1556=DIRECTION('',(-0.5,0.866025404,-0.));
#1557=AXIS2_PLACEMENT_3D('',#1554,#1555,#1556);
#1558=PLANE('',#1557);
#1559=ORIENTED_EDGE('',*,*,#1548,.T.);
#1560=ORIENTED_EDGE('',*,*,#1247,.F.);
#1561=CARTESIAN_POINT('',(56.725828568,155.440749942,0.017693924));
#1562=DIRECTION('',(-0.,0.,1.));
#1563=VECTOR('',#1562,2.2);
#1564=LINE('',#1561,#1563);
#1565=EDGE_CURVE('',#172,#1234,#1564,.T.);
#1566=ORIENTED_EDGE('',*,*,#1565,.F.);
#1567=ORIENTED_EDGE('',*,*,#177,.T.);
#1568=EDGE_LOOP('',(#1559,#1560,#1566,#1567));
#1569=FACE_BOUND('',#1568,.T.);
#1570=ADVANCED_FACE('',(#1569),#1558,.F.);
#1571=CARTESIAN_POINT('',(59.525828568,155.440749942,0.017693924));
#1572=DIRECTION('',(0.,-1.,0.));
#1573=DIRECTION('',(-1.,0.,0.));
#1574=AXIS2_PLACEMENT_3D('',#1571,#1572,#1573);
#1575=PLANE('',#1574);
#1576=ORIENTED_EDGE('',*,*,#1565,.T.);
#1577=ORIENTED_EDGE('',*,*,#1239,.F.);
#1578=CARTESIAN_POINT('',(59.525828568,155.440749942,0.017693924));
#1579=DIRECTION('',(-0.,0.,1.));
#1580=VECTOR('',#1579,2.2);
#1581=LINE('',#1578,#1580);
#1582=EDGE_CURVE('',#180,#1226,#1581,.T.);
#1583=ORIENTED_EDGE('',*,*,#1582,.F.);
#1584=ORIENTED_EDGE('',*,*,#185,.T.);
#1585=EDGE_LOOP('',(#1576,#1577,#1583,#1584));
#1586=FACE_BOUND('',#1585,.T.);
#1587=ADVANCED_FACE('',(#1586),#1575,.F.);
#1588=CARTESIAN_POINT('',(60.936017786,157.883269316,0.017693924));
#1589=DIRECTION('',(0.866025404,-0.5,0.));
#1590=DIRECTION('',(-0.5,-0.866025404,0.));
#1591=AXIS2_PLACEMENT_3D('',#1588,#1589,#1590);
#1592=PLANE('',#1591);
#1593=ORIENTED_EDGE('',*,*,#1582,.T.);
#1594=ORIENTED_EDGE('',*,*,#1231,.F.);
#1595=ORIENTED_EDGE('',*,*,#1507,.F.);
#1596=ORIENTED_EDGE('',*,*,#193,.T.);
#1597=EDGE_LOOP('',(#1593,#1594,#1595,#1596));
#1598=FACE_BOUND('',#1597,.T.);
#1599=ADVANCED_FACE('',(#1598),#1592,.F.);
#1600=CARTESIAN_POINT('',(28.125511812,133.379587024,2.217693924));
#1601=DIRECTION('',(0.,-0.,-1.));
#1602=DIRECTION('',(1.,0.,0.));
#1603=AXIS2_PLACEMENT_3D('',#1600,#1601,#1602);
#1604=CYLINDRICAL_SURFACE('',#1603,1.6);
#1605=CARTESIAN_POINT('',(29.725511812,133.379587024,2.217693924));
#1606=DIRECTION('',(-0.,0.,1.));
#1607=VECTOR('',#1606,2.8);
#1608=LINE('',#1605,#1607);
#1609=EDGE_CURVE('',#1046,#740,#1608,.T.);
#1610=ORIENTED_EDGE('',*,*,#1609,.F.);
#1611=ORIENTED_EDGE('',*,*,#1054,.T.);
#1612=ORIENTED_EDGE('',*,*,#1061,.T.);
#1613=ORIENTED_EDGE('',*,*,#1609,.T.);
#1614=ORIENTED_EDGE('',*,*,#746,.F.);
#1615=ORIENTED_EDGE('',*,*,#753,.F.);
#1616=EDGE_LOOP('',(#1610,#1611,#1612,#1613,#1614,#1615));
#1617=FACE_BOUND('',#1616,.T.);
#1618=ADVANCED_FACE('',(#1617),#1604,.F.);
#1619=CARTESIAN_POINT('',(58.126690868,133.379587024,2.217693924));
#1620=DIRECTION('',(0.,-0.,-1.));
#1621=DIRECTION('',(1.,0.,0.));
#1622=AXIS2_PLACEMENT_3D('',#1619,#1620,#1621);
#1623=CYLINDRICAL_SURFACE('',#1622,1.6);
#1624=CARTESIAN_POINT('',(59.726690868,133.379587024,2.217693924));
#1625=DIRECTION('',(-0.,0.,1.));
#1626=VECTOR('',#1625,2.8);
#1627=LINE('',#1624,#1626);
#1628=EDGE_CURVE('',#1122,#800,#1627,.T.);
#1629=ORIENTED_EDGE('',*,*,#1628,.F.);
#1630=ORIENTED_EDGE('',*,*,#1130,.T.);
#1631=ORIENTED_EDGE('',*,*,#1137,.T.);
#1632=ORIENTED_EDGE('',*,*,#1628,.T.);
#1633=ORIENTED_EDGE('',*,*,#806,.F.);
#1634=ORIENTED_EDGE('',*,*,#813,.F.);
#1635=EDGE_LOOP('',(#1629,#1630,#1631,#1632,#1633,#1634));
#1636=FACE_BOUND('',#1635,.T.);
#1637=ADVANCED_FACE('',(#1636),#1623,.F.);
#1638=CARTESIAN_POINT('',(58.126690868,157.877296961,2.217693924));
#1639=DIRECTION('',(0.,-0.,-1.));
#1640=DIRECTION('',(1.,0.,0.));
#1641=AXIS2_PLACEMENT_3D('',#1638,#1639,#1640);
#1642=CYLINDRICAL_SURFACE('',#1641,1.6);
#1643=CARTESIAN_POINT('',(59.726690868,157.877296961,2.217693924));
#1644=DIRECTION('',(-0.,0.,1.));
#1645=VECTOR('',#1644,2.8);
#1646=LINE('',#1643,#1645);
#1647=EDGE_CURVE('',#1274,#780,#1646,.T.);
#1648=ORIENTED_EDGE('',*,*,#1647,.F.);
#1649=ORIENTED_EDGE('',*,*,#1282,.T.);
#1650=ORIENTED_EDGE('',*,*,#1289,.T.);
#1651=ORIENTED_EDGE('',*,*,#1647,.T.);
#1652=ORIENTED_EDGE('',*,*,#786,.F.);
#1653=ORIENTED_EDGE('',*,*,#793,.F.);
#1654=EDGE_LOOP('',(#1648,#1649,#1650,#1651,#1652,#1653));
#1655=FACE_BOUND('',#1654,.T.);
#1656=ADVANCED_FACE('',(#1655),#1642,.F.);
#1657=CARTESIAN_POINT('',(28.125511812,157.877296961,2.217693924));
#1658=DIRECTION('',(0.,-0.,-1.));
#1659=DIRECTION('',(1.,0.,0.));
#1660=AXIS2_PLACEMENT_3D('',#1657,#1658,#1659);
#1661=CYLINDRICAL_SURFACE('',#1660,1.6);
#1662=CARTESIAN_POINT('',(29.725511812,157.877296961,2.217693924));
#1663=DIRECTION('',(-0.,0.,1.));
#1664=VECTOR('',#1663,2.8);
#1665=LINE('',#1662,#1664);
#1666=EDGE_CURVE('',#1198,#760,#1665,.T.);
#1667=ORIENTED_EDGE('',*,*,#1666,.F.);
#1668=ORIENTED_EDGE('',*,*,#1206,.T.);
#1669=ORIENTED_EDGE('',*,*,#1213,.T.);
#1670=ORIENTED_EDGE('',*,*,#1666,.T.);
#1671=ORIENTED_EDGE('',*,*,#766,.F.);
#1672=ORIENTED_EDGE('',*,*,#773,.F.);
#1673=EDGE_LOOP('',(#1667,#1668,#1669,#1670,#1671,#1672));
#1674=FACE_BOUND('',#1673,.T.);
#1675=ADVANCED_FACE('',(#1674),#1661,.F.);
#1676=CARTESIAN_POINT('',(308.125511812,161.65437033,0.017693924));
#1677=DIRECTION('',(0.,1.,-0.));
#1678=DIRECTION('',(-1.,0.,0.));
#1679=AXIS2_PLACEMENT_3D('',#1676,#1677,#1678);
#1680=PLANE('',#1679);
#1681=ORIENTED_EDGE('',*,*,#87,.T.);
#1682=CARTESIAN_POINT('',(13.125511812,161.65437033,3.517693924));
#1683=DIRECTION('',(1.,0.,-0.));
#1684=VECTOR('',#1683,145.);
#1685=LINE('',#1682,#1684);
#1686=EDGE_CURVE('',#74,#824,#1685,.T.);
#1687=ORIENTED_EDGE('',*,*,#1686,.T.);
#1688=ORIENTED_EDGE('',*,*,#829,.F.);
#1689=ORIENTED_EDGE('',*,*,#505,.T.);
#1690=EDGE_LOOP('',(#1681,#1687,#1688,#1689));
#1691=FACE_BOUND('',#1690,.T.);
#1692=ADVANCED_FACE('',(#1691),#1680,.T.);
#1693=CARTESIAN_POINT('',(158.125511812,13.65437033,1.767693924));
#1694=DIRECTION('',(1.,0.,0.));
#1695=DIRECTION('',(0.,0.,-1.));
#1696=AXIS2_PLACEMENT_3D('',#1693,#1694,#1695);
#1697=PLANE('',#1696);
#1698=CARTESIAN_POINT('',(158.125511812,109.400108953,5.017693924));
#1699=DIRECTION('',(-0.,0.,-1.));
#1700=VECTOR('',#1699,5.);
#1701=LINE('',#1698,#1700);
#1702=EDGE_CURVE('',#644,#391,#1701,.T.);
#1703=ORIENTED_EDGE('',*,*,#1702,.F.);
#1704=ORIENTED_EDGE('',*,*,#649,.F.);
#1705=CARTESIAN_POINT('',(158.125511812,63.908631706,0.017693924));
#1706=DIRECTION('',(0.,0.,1.));
#1707=VECTOR('',#1706,5.);
#1708=LINE('',#1705,#1707);
#1709=EDGE_CURVE('',#400,#635,#1708,.T.);
#1710=ORIENTED_EDGE('',*,*,#1709,.F.);
#1711=ORIENTED_EDGE('',*,*,#405,.F.);
#1712=EDGE_LOOP('',(#1703,#1704,#1710,#1711));
#1713=FACE_BOUND('',#1712,.T.);
#1714=ADVANCED_FACE('',(#1713),#1697,.T.);
#1715=CARTESIAN_POINT('',(153.216105514,48.049684157,13.));
#1716=DIRECTION('',(0.707106781,-0.707106781,0.));
#1717=DIRECTION('',(0.707106781,0.707106781,0.));
#1718=AXIS2_PLACEMENT_3D('',#1715,#1716,#1717);
#1719=PLANE('',#1718);
#1720=CARTESIAN_POINT('',(142.908210678,37.741789322,0.017693924));
#1721=DIRECTION('',(0.,0.,1.));
#1722=VECTOR('',#1721,5.);
#1723=LINE('',#1720,#1722);
#1724=EDGE_CURVE('',#468,#567,#1723,.T.);
#1725=ORIENTED_EDGE('',*,*,#1724,.T.);
#1726=ORIENTED_EDGE('',*,*,#572,.T.);
#1727=CARTESIAN_POINT('',(154.775439951,49.609018595,0.017693924));
#1728=DIRECTION('',(0.,0.,1.));
#1729=VECTOR('',#1728,5.);
#1730=LINE('',#1727,#1729);
#1731=EDGE_CURVE('',#477,#558,#1730,.T.);
#1732=ORIENTED_EDGE('',*,*,#1731,.F.);
#1733=ORIENTED_EDGE('',*,*,#482,.F.);
#1734=EDGE_LOOP('',(#1725,#1726,#1732,#1733));
#1735=FACE_BOUND('',#1734,.T.);
#1736=ADVANCED_FACE('',(#1735),#1719,.F.);
#1737=CARTESIAN_POINT('',(140.65,40.,13.));
#1738=DIRECTION('',(0.,0.,1.));
#1739=DIRECTION('',(1.,0.,-0.));
#1740=AXIS2_PLACEMENT_3D('',#1737,#1738,#1739);
#1741=CYLINDRICAL_SURFACE('',#1740,3.193592168);
#1742=ORIENTED_EDGE('',*,*,#474,.T.);
#1743=CARTESIAN_POINT('',(138.391789322,42.258210678,0.017693924));
#1744=DIRECTION('',(0.,0.,1.));
#1745=VECTOR('',#1744,5.);
#1746=LINE('',#1743,#1745);
#1747=EDGE_CURVE('',#460,#575,#1746,.T.);
#1748=ORIENTED_EDGE('',*,*,#1747,.T.);
#1749=ORIENTED_EDGE('',*,*,#581,.F.);
#1750=ORIENTED_EDGE('',*,*,#1724,.F.);
#1751=EDGE_LOOP('',(#1742,#1748,#1749,#1750));
#1752=FACE_BOUND('',#1751,.T.);
#1753=ADVANCED_FACE('',(#1752),#1741,.F.);
#1754=CARTESIAN_POINT('',(142.766789322,46.633210678,13.));
#1755=DIRECTION('',(-0.707106781,0.707106781,0.));
#1756=DIRECTION('',(-0.707106781,-0.707106781,0.));
#1757=AXIS2_PLACEMENT_3D('',#1754,#1755,#1756);
#1758=PLANE('',#1757);
#1759=CARTESIAN_POINT('',(150.592536374,54.458957731,0.017693924));
#1760=DIRECTION('',(0.,0.,1.));
#1761=VECTOR('',#1760,5.);
#1762=LINE('',#1759,#1761);
#1763=EDGE_CURVE('',#451,#584,#1762,.T.);
#1764=ORIENTED_EDGE('',*,*,#1763,.T.);
#1765=ORIENTED_EDGE('',*,*,#589,.T.);
#1766=ORIENTED_EDGE('',*,*,#1747,.F.);
#1767=ORIENTED_EDGE('',*,*,#465,.F.);
#1768=EDGE_LOOP('',(#1764,#1765,#1766,#1767));
#1769=FACE_BOUND('',#1768,.T.);
#1770=ADVANCED_FACE('',(#1769),#1758,.F.);
#1771=CARTESIAN_POINT('',(147.15,57.5,13.));
#1772=DIRECTION('',(0.,0.,1.));
#1773=DIRECTION('',(1.,0.,-0.));
#1774=AXIS2_PLACEMENT_3D('',#1771,#1772,#1773);
#1775=CYLINDRICAL_SURFACE('',#1774,4.593364211);
#1776=CARTESIAN_POINT('',(151.743364211,57.5,5.017693924));
#1777=DIRECTION('',(-0.,-0.,-1.));
#1778=VECTOR('',#1777,5.);
#1779=LINE('',#1776,#1778);
#1780=EDGE_CURVE('',#592,#442,#1779,.T.);
#1781=ORIENTED_EDGE('',*,*,#1780,.T.);
#1782=ORIENTED_EDGE('',*,*,#448,.F.);
#1783=CARTESIAN_POINT('',(150.592536375,60.541042269,0.017693924));
#1784=DIRECTION('',(0.,0.,1.));
#1785=VECTOR('',#1784,5.);
#1786=LINE('',#1783,#1785);
#1787=EDGE_CURVE('',#434,#601,#1786,.T.);
#1788=ORIENTED_EDGE('',*,*,#1787,.T.);
#1789=ORIENTED_EDGE('',*,*,#607,.T.);
#1790=EDGE_LOOP('',(#1781,#1782,#1788,#1789));
#1791=FACE_BOUND('',#1790,.T.);
#1792=ADVANCED_FACE('',(#1791),#1775,.T.);
#1793=CARTESIAN_POINT('',(148.868250593,62.265328051,13.));
#1794=DIRECTION('',(-0.707106781,-0.707106781,0.));
#1795=DIRECTION('',(0.707106781,-0.707106781,0.));
#1796=AXIS2_PLACEMENT_3D('',#1793,#1794,#1795);
#1797=PLANE('',#1796);
#1798=CARTESIAN_POINT('',(138.391789322,72.741789322,0.017693924));
#1799=DIRECTION('',(0.,0.,1.));
#1800=VECTOR('',#1799,5.);
#1801=LINE('',#1798,#1800);
#1802=EDGE_CURVE('',#425,#610,#1801,.T.);
#1803=ORIENTED_EDGE('',*,*,#1802,.T.);
#1804=ORIENTED_EDGE('',*,*,#615,.T.);
#1805=ORIENTED_EDGE('',*,*,#1787,.F.);
#1806=ORIENTED_EDGE('',*,*,#439,.F.);
#1807=EDGE_LOOP('',(#1803,#1804,#1805,#1806));
#1808=FACE_BOUND('',#1807,.T.);
#1809=ADVANCED_FACE('',(#1808),#1797,.F.);
#1810=CARTESIAN_POINT('',(140.65,75.,13.));
#1811=DIRECTION('',(0.,0.,1.));
#1812=DIRECTION('',(1.,0.,-0.));
#1813=AXIS2_PLACEMENT_3D('',#1810,#1811,#1812);
#1814=CYLINDRICAL_SURFACE('',#1813,3.193592168);
#1815=ORIENTED_EDGE('',*,*,#431,.T.);
#1816=CARTESIAN_POINT('',(142.908210678,77.258210678,0.017693924));
#1817=DIRECTION('',(0.,0.,1.));
#1818=VECTOR('',#1817,5.);
#1819=LINE('',#1816,#1818);
#1820=EDGE_CURVE('',#417,#618,#1819,.T.);
#1821=ORIENTED_EDGE('',*,*,#1820,.T.);
#1822=ORIENTED_EDGE('',*,*,#624,.F.);
#1823=ORIENTED_EDGE('',*,*,#1802,.F.);
#1824=EDGE_LOOP('',(#1815,#1821,#1822,#1823));
#1825=FACE_BOUND('',#1824,.T.);
#1826=ADVANCED_FACE('',(#1825),#1814,.F.);
#1827=CARTESIAN_POINT('',(147.283210678,72.883210678,13.));
#1828=DIRECTION('',(0.707106781,0.707106781,0.));
#1829=DIRECTION('',(-0.707106781,0.707106781,0.));
#1830=AXIS2_PLACEMENT_3D('',#1827,#1828,#1829);
#1831=PLANE('',#1830);
#1832=CARTESIAN_POINT('',(155.08550488,65.080916476,0.017693924));
#1833=DIRECTION('',(0.,0.,1.));
#1834=VECTOR('',#1833,5.);
#1835=LINE('',#1832,#1834);
#1836=EDGE_CURVE('',#408,#627,#1835,.T.);
#1837=ORIENTED_EDGE('',*,*,#1836,.T.);
#1838=ORIENTED_EDGE('',*,*,#632,.T.);
#1839=ORIENTED_EDGE('',*,*,#1820,.F.);
#1840=ORIENTED_EDGE('',*,*,#422,.F.);
#1841=EDGE_LOOP('',(#1837,#1838,#1839,#1840));
#1842=FACE_BOUND('',#1841,.T.);
#1843=ADVANCED_FACE('',(#1842),#1831,.F.);
#1844=CARTESIAN_POINT('',(158.15,46.5,13.));
#1845=DIRECTION('',(0.,0.,1.));
#1846=DIRECTION('',(1.,0.,-0.));
#1847=AXIS2_PLACEMENT_3D('',#1844,#1845,#1846);
#1848=CYLINDRICAL_SURFACE('',#1847,4.58842589);
#1849=ORIENTED_EDGE('',*,*,#1731,.T.);
#1850=ORIENTED_EDGE('',*,*,#564,.T.);
#1851=ORIENTED_EDGE('',*,*,#857,.T.);
#1852=ORIENTED_EDGE('',*,*,#491,.F.);
#1853=EDGE_LOOP('',(#1849,#1850,#1851,#1852));
#1854=FACE_BOUND('',#1853,.T.);
#1855=ADVANCED_FACE('',(#1854),#1848,.T.);
#1856=CARTESIAN_POINT('',(158.15,68.5,13.));
#1857=DIRECTION('',(0.,0.,1.));
#1858=DIRECTION('',(1.,0.,-0.));
#1859=AXIS2_PLACEMENT_3D('',#1856,#1857,#1858);
#1860=CYLINDRICAL_SURFACE('',#1859,4.591433598);
#1861=ORIENTED_EDGE('',*,*,#1709,.T.);
#1862=ORIENTED_EDGE('',*,*,#641,.T.);
#1863=ORIENTED_EDGE('',*,*,#1836,.F.);
#1864=ORIENTED_EDGE('',*,*,#414,.F.);
#1865=EDGE_LOOP('',(#1861,#1862,#1863,#1864));
#1866=FACE_BOUND('',#1865,.T.);
#1867=ADVANCED_FACE('',(#1866),#1860,.T.);
#1868=CARTESIAN_POINT('',(153.216105514,125.259056502,16.035387849));
#1869=DIRECTION('',(0.707106781,0.707106781,0.));
#1870=DIRECTION('',(0.707106781,-0.707106781,-0.));
#1871=AXIS2_PLACEMENT_3D('',#1868,#1869,#1870);
#1872=PLANE('',#1871);
#1873=CARTESIAN_POINT('',(154.775439951,123.699722065,5.017693924));
#1874=DIRECTION('',(-0.,0.,-1.));
#1875=VECTOR('',#1874,5.);
#1876=LINE('',#1873,#1875);
#1877=EDGE_CURVE('',#721,#314,#1876,.T.);
#1878=ORIENTED_EDGE('',*,*,#1877,.F.);
#1879=ORIENTED_EDGE('',*,*,#726,.T.);
#1880=CARTESIAN_POINT('',(142.908210678,135.566951338,5.017693924));
#1881=DIRECTION('',(-0.,0.,-1.));
#1882=VECTOR('',#1881,5.);
#1883=LINE('',#1880,#1882);
#1884=EDGE_CURVE('',#712,#323,#1883,.T.);
#1885=ORIENTED_EDGE('',*,*,#1884,.T.);
#1886=ORIENTED_EDGE('',*,*,#328,.F.);
#1887=EDGE_LOOP('',(#1878,#1879,#1885,#1886));
#1888=FACE_BOUND('',#1887,.T.);
#1889=ADVANCED_FACE('',(#1888),#1872,.F.);
#1890=CARTESIAN_POINT('',(140.65,133.308740659,16.035387849));
#1891=DIRECTION('',(-0.,0.,-1.));
#1892=DIRECTION('',(1.,0.,0.));
#1893=AXIS2_PLACEMENT_3D('',#1890,#1891,#1892);
#1894=CYLINDRICAL_SURFACE('',#1893,3.193592168);
#1895=ORIENTED_EDGE('',*,*,#337,.T.);
#1896=ORIENTED_EDGE('',*,*,#1884,.F.);
#1897=ORIENTED_EDGE('',*,*,#718,.F.);
#1898=CARTESIAN_POINT('',(138.391789322,131.050529981,5.017693924));
#1899=DIRECTION('',(-0.,0.,-1.));
#1900=VECTOR('',#1899,5.);
#1901=LINE('',#1898,#1900);
#1902=EDGE_CURVE('',#704,#331,#1901,.T.);
#1903=ORIENTED_EDGE('',*,*,#1902,.T.);
#1904=EDGE_LOOP('',(#1895,#1896,#1897,#1903));
#1905=FACE_BOUND('',#1904,.T.);
#1906=ADVANCED_FACE('',(#1905),#1894,.F.);
#1907=CARTESIAN_POINT('',(142.766789322,126.675529981,16.035387849));
#1908=DIRECTION('',(-0.707106781,-0.707106781,-0.));
#1909=DIRECTION('',(-0.707106781,0.707106781,0.));
#1910=AXIS2_PLACEMENT_3D('',#1907,#1908,#1909);
#1911=PLANE('',#1910);
#1912=ORIENTED_EDGE('',*,*,#1902,.F.);
#1913=ORIENTED_EDGE('',*,*,#709,.T.);
#1914=CARTESIAN_POINT('',(150.592536374,118.849782929,5.017693924));
#1915=DIRECTION('',(-0.,0.,-1.));
#1916=VECTOR('',#1915,5.);
#1917=LINE('',#1914,#1916);
#1918=EDGE_CURVE('',#695,#340,#1917,.T.);
#1919=ORIENTED_EDGE('',*,*,#1918,.T.);
#1920=ORIENTED_EDGE('',*,*,#345,.F.);
#1921=EDGE_LOOP('',(#1912,#1913,#1919,#1920));
#1922=FACE_BOUND('',#1921,.T.);
#1923=ADVANCED_FACE('',(#1922),#1911,.F.);
#1924=CARTESIAN_POINT('',(147.15,115.808740659,16.035387849));
#1925=DIRECTION('',(-0.,0.,-1.));
#1926=DIRECTION('',(1.,0.,0.));
#1927=AXIS2_PLACEMENT_3D('',#1924,#1925,#1926);
#1928=CYLINDRICAL_SURFACE('',#1927,4.593364211);
#1929=CARTESIAN_POINT('',(151.743364211,115.808740659,0.017693924));
#1930=DIRECTION('',(0.,-0.,1.));
#1931=VECTOR('',#1930,5.);
#1932=LINE('',#1929,#1931);
#1933=EDGE_CURVE('',#348,#686,#1932,.T.);
#1934=ORIENTED_EDGE('',*,*,#1933,.T.);
#1935=ORIENTED_EDGE('',*,*,#692,.T.);
#1936=CARTESIAN_POINT('',(150.592536375,112.767698391,5.017693924));
#1937=DIRECTION('',(-0.,0.,-1.));
#1938=VECTOR('',#1937,5.);
#1939=LINE('',#1936,#1938);
#1940=EDGE_CURVE('',#678,#357,#1939,.T.);
#1941=ORIENTED_EDGE('',*,*,#1940,.T.);
#1942=ORIENTED_EDGE('',*,*,#363,.F.);
#1943=EDGE_LOOP('',(#1934,#1935,#1941,#1942));
#1944=FACE_BOUND('',#1943,.T.);
#1945=ADVANCED_FACE('',(#1944),#1928,.T.);
#1946=CARTESIAN_POINT('',(148.868250593,111.043412608,16.035387849));
#1947=DIRECTION('',(-0.707106781,0.707106781,0.));
#1948=DIRECTION('',(0.707106781,0.707106781,0.));
#1949=AXIS2_PLACEMENT_3D('',#1946,#1947,#1948);
#1950=PLANE('',#1949);
#1951=ORIENTED_EDGE('',*,*,#1940,.F.);
#1952=ORIENTED_EDGE('',*,*,#683,.T.);
#1953=CARTESIAN_POINT('',(138.391789322,100.566951338,5.017693924));
#1954=DIRECTION('',(-0.,0.,-1.));
#1955=VECTOR('',#1954,5.);
#1956=LINE('',#1953,#1955);
#1957=EDGE_CURVE('',#669,#366,#1956,.T.);
#1958=ORIENTED_EDGE('',*,*,#1957,.T.);
#1959=ORIENTED_EDGE('',*,*,#371,.F.);
#1960=EDGE_LOOP('',(#1951,#1952,#1958,#1959));
#1961=FACE_BOUND('',#1960,.T.);
#1962=ADVANCED_FACE('',(#1961),#1950,.F.);
#1963=CARTESIAN_POINT('',(140.65,98.308740659,16.035387849));
#1964=DIRECTION('',(-0.,0.,-1.));
#1965=DIRECTION('',(1.,0.,0.));
#1966=AXIS2_PLACEMENT_3D('',#1963,#1964,#1965);
#1967=CYLINDRICAL_SURFACE('',#1966,3.193592168);
#1968=ORIENTED_EDGE('',*,*,#380,.T.);
#1969=ORIENTED_EDGE('',*,*,#1957,.F.);
#1970=ORIENTED_EDGE('',*,*,#675,.F.);
#1971=CARTESIAN_POINT('',(142.908210678,96.050529981,5.017693924));
#1972=DIRECTION('',(-0.,0.,-1.));
#1973=VECTOR('',#1972,5.);
#1974=LINE('',#1971,#1973);
#1975=EDGE_CURVE('',#661,#374,#1974,.T.);
#1976=ORIENTED_EDGE('',*,*,#1975,.T.);
#1977=EDGE_LOOP('',(#1968,#1969,#1970,#1976));
#1978=FACE_BOUND('',#1977,.T.);
#1979=ADVANCED_FACE('',(#1978),#1967,.F.);
#1980=CARTESIAN_POINT('',(147.283210678,100.425529981,16.035387849));
#1981=DIRECTION('',(0.707106781,-0.707106781,-0.));
#1982=DIRECTION('',(-0.707106781,-0.707106781,-0.));
#1983=AXIS2_PLACEMENT_3D('',#1980,#1981,#1982);
#1984=PLANE('',#1983);
#1985=ORIENTED_EDGE('',*,*,#1975,.F.);
#1986=ORIENTED_EDGE('',*,*,#666,.T.);
#1987=CARTESIAN_POINT('',(155.08550488,108.227824183,5.017693924));
#1988=DIRECTION('',(-0.,0.,-1.));
#1989=VECTOR('',#1988,5.);
#1990=LINE('',#1987,#1989);
#1991=EDGE_CURVE('',#652,#383,#1990,.T.);
#1992=ORIENTED_EDGE('',*,*,#1991,.T.);
#1993=ORIENTED_EDGE('',*,*,#388,.F.);
#1994=EDGE_LOOP('',(#1985,#1986,#1992,#1993));
#1995=FACE_BOUND('',#1994,.T.);
#1996=ADVANCED_FACE('',(#1995),#1984,.F.);
#1997=CARTESIAN_POINT('',(158.15,126.808740659,16.035387849));
#1998=DIRECTION('',(-0.,0.,-1.));
#1999=DIRECTION('',(1.,0.,0.));
#2000=AXIS2_PLACEMENT_3D('',#1997,#1998,#1999);
#2001=CYLINDRICAL_SURFACE('',#2000,4.58842589);
#2002=ORIENTED_EDGE('',*,*,#842,.T.);
#2003=ORIENTED_EDGE('',*,*,#733,.T.);
#2004=ORIENTED_EDGE('',*,*,#1877,.T.);
#2005=ORIENTED_EDGE('',*,*,#320,.F.);
#2006=EDGE_LOOP('',(#2002,#2003,#2004,#2005));
#2007=FACE_BOUND('',#2006,.T.);
#2008=ADVANCED_FACE('',(#2007),#2001,.T.);
#2009=CARTESIAN_POINT('',(158.15,104.808740659,16.035387849));
#2010=DIRECTION('',(-0.,0.,-1.));
#2011=DIRECTION('',(1.,0.,0.));
#2012=AXIS2_PLACEMENT_3D('',#2009,#2010,#2011);
#2013=CYLINDRICAL_SURFACE('',#2012,4.591433598);
#2014=ORIENTED_EDGE('',*,*,#1991,.F.);
#2015=ORIENTED_EDGE('',*,*,#658,.T.);
#2016=ORIENTED_EDGE('',*,*,#1702,.T.);
#2017=ORIENTED_EDGE('',*,*,#397,.F.);
#2018=EDGE_LOOP('',(#2014,#2015,#2016,#2017));
#2019=FACE_BOUND('',#2018,.T.);
#2020=ADVANCED_FACE('',(#2019),#2013,.T.);
#2021=CARTESIAN_POINT('',(13.125511812,161.65437033,3.517693924));
#2022=DIRECTION('',(0.707106781,-0.,-0.707106781));
#2023=DIRECTION('',(0.,1.,-0.));
#2024=AXIS2_PLACEMENT_3D('',#2021,#2022,#2023);
#2025=PLANE('',#2024);
#2026=ORIENTED_EDGE('',*,*,#881,.F.);
#2027=ORIENTED_EDGE('',*,*,#539,.F.);
#2028=CARTESIAN_POINT('',(13.125511812,161.65437033,3.517693924));
#2029=DIRECTION('',(0.577350269,-0.577350269,0.577350269));
#2030=VECTOR('',#2029,2.598076211);
#2031=LINE('',#2028,#2030);
#2032=EDGE_CURVE('',#74,#526,#2031,.T.);
#2033=ORIENTED_EDGE('',*,*,#2032,.F.);
#2034=ORIENTED_EDGE('',*,*,#79,.F.);
#2035=EDGE_LOOP('',(#2026,#2027,#2033,#2034));
#2036=FACE_BOUND('',#2035,.T.);
#2037=ADVANCED_FACE('',(#2036),#2025,.F.);
#2038=CARTESIAN_POINT('',(308.125511812,161.65437033,3.517693924));
#2039=DIRECTION('',(0.,-0.707106781,-0.707106781));
#2040=DIRECTION('',(1.,0.,0.));
#2041=AXIS2_PLACEMENT_3D('',#2038,#2039,#2040);
#2042=PLANE('',#2041);
#2043=ORIENTED_EDGE('',*,*,#2032,.T.);
#2044=ORIENTED_EDGE('',*,*,#531,.F.);
#2045=ORIENTED_EDGE('',*,*,#835,.F.);
#2046=ORIENTED_EDGE('',*,*,#1686,.F.);
#2047=EDGE_LOOP('',(#2043,#2044,#2045,#2046));
#2048=FACE_BOUND('',#2047,.T.);
#2049=ADVANCED_FACE('',(#2048),#2042,.F.);
#2050=CARTESIAN_POINT('',(147.15,57.5,13.));
#2051=DIRECTION('',(0.,0.,1.));
#2052=DIRECTION('',(1.,0.,-0.));
#2053=AXIS2_PLACEMENT_3D('',#2050,#2051,#2052);
#2054=CYLINDRICAL_SURFACE('',#2053,4.593364211);
#2055=ORIENTED_EDGE('',*,*,#1780,.F.);
#2056=ORIENTED_EDGE('',*,*,#598,.T.);
#2057=ORIENTED_EDGE('',*,*,#1763,.F.);
#2058=ORIENTED_EDGE('',*,*,#457,.F.);
#2059=EDGE_LOOP('',(#2055,#2056,#2057,#2058));
#2060=FACE_BOUND('',#2059,.T.);
#2061=ADVANCED_FACE('',(#2060),#2054,.T.);
#2062=CARTESIAN_POINT('',(147.15,115.808740659,16.035387849));
#2063=DIRECTION('',(-0.,0.,-1.));
#2064=DIRECTION('',(1.,0.,0.));
#2065=AXIS2_PLACEMENT_3D('',#2062,#2063,#2064);
#2066=CYLINDRICAL_SURFACE('',#2065,4.593364211);
#2067=ORIENTED_EDGE('',*,*,#1933,.F.);
#2068=ORIENTED_EDGE('',*,*,#354,.F.);
#2069=ORIENTED_EDGE('',*,*,#1918,.F.);
#2070=ORIENTED_EDGE('',*,*,#701,.T.);
#2071=EDGE_LOOP('',(#2067,#2068,#2069,#2070));
#2072=FACE_BOUND('',#2071,.T.);
#2073=ADVANCED_FACE('',(#2072),#2066,.T.);
#2074=CLOSED_SHELL('',(#66,#97,#509,#817,#847,#870,#887,#918,#942,#966,#990,#1014,#1031,#1065,#1141,#1217,#1293,#1315,#1332,#1349,#1366,#1383,#1395,#1417,#1434,#1451,
#1468,#1485,#1497,#1519,#1536,#1553,#1570,#1587,#1599,#1618,#1637,#1656,#1675,#1692,#1714,#1736,#1753,#1770,#1792,#1809,#1826,#1843,#1855,#1867,#1889,
#1906,#1923,#1945,#1962,#1979,#1996,#2008,#2020,#2037,#2049,#2061,#2073));
#2075=MANIFOLD_SOLID_BREP('BASE_V4_2',#2074);
#2076=DRAUGHTING_PRE_DEFINED_COLOUR('white');
#2077=FILL_AREA_STYLE_COLOUR('',#2076);
#2078=FILL_AREA_STYLE('',(#2077));
#2079=SURFACE_STYLE_FILL_AREA(#2078);
#2080=SURFACE_SIDE_STYLE('',(#2079));
#2081=SURFACE_STYLE_USAGE(.BOTH.,#2080);
#2082=PRESENTATION_STYLE_ASSIGNMENT((#2081));
#26=STYLED_ITEM('',(#2082),#2075);
#16=SHAPE_REPRESENTATION('BASE_V4_2',(#15),#10);
#17=ADVANCED_BREP_SHAPE_REPRESENTATION('BASE_V4_2',(#2075),#10);
#2090=SHAPE_REPRESENTATION_RELATIONSHIP('','',#16,#17);
#2091=CARTESIAN_POINT('',(0.,0.,0.));
#2092=DIRECTION('',(0.,0.,1.));
#2093=DIRECTION('',(1.,0.,0.));
#2094=AXIS2_PLACEMENT_3D('',#2091,#2092,#2093);
#2096=MAPPED_ITEM('',#2095,#2094);
#2095=REPRESENTATION_MAP(#2094,#16);
#2097=APPLICATION_CONTEXT('Managed model based 3d engineering');
#2098=APPLICATION_PROTOCOL_DEFINITION('international standard','ap242_managed_model_based_3d_engineering',2014,#2097);
#2099=PRODUCT_CONTEXT('',#2097,'mechanical');
#2100=PRODUCT_DEFINITION_CONTEXT('part definition',#2097,'design');
#24=PRODUCT('BASE_V4_2','BASE_V4_2','',(#2099));
#2101=PRODUCT_RELATED_PRODUCT_CATEGORY('part','',(#24));
#2102=PRODUCT_DEFINITION_FORMATION_WITH_SPECIFIED_SOURCE('','',#24,.NOT_KNOWN.);
#25=PRODUCT_DEFINITION('design','',#2102,#2100);
#23=PRODUCT_DEFINITION_SHAPE('','',#25);
#2103=SHAPE_DEFINITION_REPRESENTATION(#23,#16);
#11=DRAUGHTING_MODEL('',(#2096),#10);
#2104=DESCRIPTIVE_REPRESENTATION_ITEM('KEY','/Users/quimgraellsolive/Library/Containers/com.shapr3d.shapr/Data/tmp/BEB29853-071E-4957-BAE3-4732549D7729.tmp');
#2105=PROPERTY_DEFINITION('KEY','',#25);
#2106=REPRESENTATION('',(#2104),#10);
#2107=PROPERTY_DEFINITION_REPRESENTATION(#2105,#2106);
#2108=GENERAL_PROPERTY('','KEY','');
#2109=GENERAL_PROPERTY_ASSOCIATION('','',#2108,#2105);
#1=MECHANICAL_DESIGN_GEOMETRIC_PRESENTATION_REPRESENTATION('',(#26),#10);
ENDSEC;
END-ISO-10303-21;
