ISO-10303-21;
HEADER;

/* File generated by Shapr3D Version 5.831.0.8630 */

FILE_DESCRIPTION(('HOOPS Exchange Step'),'2;1');

FILE_NAME('/Users/quimgraellsolive/Library/Containers/com.shapr3d.shapr/Data/tmp/export/temp_export',
'2025-04-22T23:22:57+02:00',
('quimgraellsolive'),
('Shapr3D Limited'),
'HOOPS Exchange 2024.8',
'Shapr3D',
'Authorized');

FILE_SCHEMA( ('AP242_MANAGED_MODEL_BASED_3D_ENGINEERING_MIM_LF {1 0 10303 442 1 1 4}') );

ENDSEC;

DATA;
#3=(NAMED_UNIT(*)PLANE_ANGLE_UNIT()SI_UNIT($,.RADIAN.));
#4=PLANE_ANGLE_MEASURE_WITH_UNIT(PLANE_ANGLE_MEASURE(0.0174532925),#3);
#5=(CONVERSION_BASED_UNIT('DEGREE',#4)NAMED_UNIT(#6)PLANE_ANGLE_UNIT());
#6=DIMENSIONAL_EXPONENTS(0.,0.,0.,0.,0.,0.,0.);
#7=(NAMED_UNIT(*)SI_UNIT($,.STERADIAN.)SOLID_ANGLE_UNIT());
#8=(LENGTH_UNIT()NAMED_UNIT(*)SI_UNIT(.MILLI.,.METRE.));
#9=UNCERTAINTY_MEASURE_WITH_UNIT(LENGTH_MEASURE(1.000000E-05),#8,'DISTANCE_ACCURACY_VALUE','Maximum Tolerance applied to model');
#10=(GEOMETRIC_REPRESENTATION_CONTEXT(3)GLOBAL_UNCERTAINTY_ASSIGNED_CONTEXT((#9))GLOBAL_UNIT_ASSIGNED_CONTEXT((#8,#5,#7))REPRESENTATION_CONTEXT('','BASE_V$_1'));
#12=CARTESIAN_POINT('',(0.,0.,0.));
#13=DIRECTION('',(0.,0.,1.));
#14=DIRECTION('',(1.,0.,0.));
#15=AXIS2_PLACEMENT_3D('TS3D_PRODUCT_CSYS',#12,#13,#14);
#27=CARTESIAN_POINT('',(308.125511812,108.75437033,5.017693924));
#28=DIRECTION('',(0.,1.,-0.));
#29=DIRECTION('',(-1.,0.,0.));
#30=AXIS2_PLACEMENT_3D('',#27,#28,#29);
#31=PLANE('',#30);
#32=CARTESIAN_POINT('',(285.882707767,108.75437033,28.017693924));
#33=VERTEX_POINT('',#32);
#34=CARTESIAN_POINT('',(301.625511812,108.75437033,28.017693924));
#35=VERTEX_POINT('',#34);
#36=CARTESIAN_POINT('',(285.882707767,108.75437033,28.017693924));
#37=DIRECTION('',(1.,0.,-0.));
#38=VECTOR('',#37,15.742804045);
#39=LINE('',#36,#38);
#40=EDGE_CURVE('',#33,#35,#39,.T.);
#41=ORIENTED_EDGE('',*,*,#40,.T.);
#42=CARTESIAN_POINT('',(301.625511812,108.75437033,14.017693924));
#43=VERTEX_POINT('',#42);
#44=CARTESIAN_POINT('',(301.625511812,108.75437033,28.017693924));
#45=DIRECTION('',(0.,-0.,-1.));
#46=VECTOR('',#45,14.);
#47=LINE('',#44,#46);
#48=EDGE_CURVE('',#35,#43,#47,.T.);
#49=ORIENTED_EDGE('',*,*,#48,.T.);
#50=CARTESIAN_POINT('',(285.882707767,108.75437033,14.017693924));
#51=VERTEX_POINT('',#50);
#52=CARTESIAN_POINT('',(301.625511812,108.75437033,14.017693924));
#53=DIRECTION('',(-1.,-0.,0.));
#54=VECTOR('',#53,15.742804045);
#55=LINE('',#52,#54);
#56=EDGE_CURVE('',#43,#51,#55,.T.);
#57=ORIENTED_EDGE('',*,*,#56,.T.);
#58=CARTESIAN_POINT('',(285.882707767,108.75437033,28.017693924));
#59=DIRECTION('',(0.,-0.,-1.));
#60=VECTOR('',#59,14.);
#61=LINE('',#58,#60);
#62=EDGE_CURVE('',#33,#51,#61,.T.);
#63=ORIENTED_EDGE('',*,*,#62,.F.);
#64=EDGE_LOOP('',(#41,#49,#57,#63));
#65=FACE_BOUND('',#64,.T.);
#66=ADVANCED_FACE('',(#65),#31,.T.);
#67=CARTESIAN_POINT('',(285.882707767,103.75437033,5.017693924));
#68=DIRECTION('',(0.,0.,1.));
#69=DIRECTION('',(0.,-1.,0.));
#70=AXIS2_PLACEMENT_3D('',#67,#68,#69);
#71=CYLINDRICAL_SURFACE('',#70,5.);
#72=CARTESIAN_POINT('',(280.882707767,103.75437033,28.017693924));
#73=VERTEX_POINT('',#72);
#74=CARTESIAN_POINT('',(280.882707767,103.75437033,14.017693924));
#75=VERTEX_POINT('',#74);
#76=CARTESIAN_POINT('',(280.882707767,103.75437033,28.017693924));
#77=DIRECTION('',(-0.,-0.,-1.));
#78=VECTOR('',#77,14.);
#79=LINE('',#76,#78);
#80=EDGE_CURVE('',#73,#75,#79,.T.);
#81=ORIENTED_EDGE('',*,*,#80,.F.);
#82=CARTESIAN_POINT('',(282.347173861,107.289904236,29.482160018));
#83=VERTEX_POINT('',#82);
#84=CARTESIAN_POINT('',(285.882707767,103.75437033,33.017693924));
#85=DIRECTION('',(0.707106781,-0.,-0.707106781));
#86=DIRECTION('',(0.707106781,0.,0.707106781));
#87=AXIS2_PLACEMENT_3D('',#84,#85,#86);
#88=ELLIPSE('',#87,7.071067812,5.);
#89=EDGE_CURVE('',#73,#83,#88,.T.);
#90=ORIENTED_EDGE('',*,*,#89,.T.);
#91=CARTESIAN_POINT('',(285.882707767,103.75437033,33.017693924));
#92=DIRECTION('',(0.,-0.707106781,-0.707106781));
#93=DIRECTION('',(0.,-0.707106781,0.707106781));
#94=AXIS2_PLACEMENT_3D('',#91,#92,#93);
#95=ELLIPSE('',#94,7.071067812,5.);
#96=EDGE_CURVE('',#83,#33,#95,.T.);
#97=ORIENTED_EDGE('',*,*,#96,.T.);
#98=ORIENTED_EDGE('',*,*,#62,.T.);
#99=CARTESIAN_POINT('',(285.882707767,103.75437033,14.017693924));
#100=DIRECTION('',(-0.,-0.,-1.));
#101=DIRECTION('',(0.,-1.,0.));
#102=AXIS2_PLACEMENT_3D('',#99,#100,#101);
#103=CIRCLE('',#102,5.);
#104=EDGE_CURVE('',#75,#51,#103,.T.);
#105=ORIENTED_EDGE('',*,*,#104,.F.);
#106=EDGE_LOOP('',(#81,#90,#97,#98,#105));
#107=FACE_BOUND('',#106,.T.);
#108=ADVANCED_FACE('',(#107),#71,.T.);
#109=CARTESIAN_POINT('',(280.882707767,111.75437033,5.017693924));
#110=DIRECTION('',(-1.,0.,0.));
#111=DIRECTION('',(0.,-1.,0.));
#112=AXIS2_PLACEMENT_3D('',#109,#110,#111);
#113=PLANE('',#112);
#114=CARTESIAN_POINT('',(280.882707767,88.581566284,28.017693924));
#115=VERTEX_POINT('',#114);
#116=CARTESIAN_POINT('',(280.882707767,88.581566284,14.017693924));
#117=VERTEX_POINT('',#116);
#118=CARTESIAN_POINT('',(280.882707767,88.581566284,28.017693924));
#119=DIRECTION('',(-0.,-0.,-1.));
#120=VECTOR('',#119,14.);
#121=LINE('',#118,#120);
#122=EDGE_CURVE('',#115,#117,#121,.T.);
#123=ORIENTED_EDGE('',*,*,#122,.F.);
#124=CARTESIAN_POINT('',(280.882707767,88.581566284,28.017693924));
#125=DIRECTION('',(0.,1.,-0.));
#126=VECTOR('',#125,15.172804045);
#127=LINE('',#124,#126);
#128=EDGE_CURVE('',#115,#73,#127,.T.);
#129=ORIENTED_EDGE('',*,*,#128,.T.);
#130=ORIENTED_EDGE('',*,*,#80,.T.);
#131=CARTESIAN_POINT('',(280.882707767,103.75437033,14.017693924));
#132=DIRECTION('',(0.,-1.,0.));
#133=VECTOR('',#132,15.172804045);
#134=LINE('',#131,#133);
#135=EDGE_CURVE('',#75,#117,#134,.T.);
#136=ORIENTED_EDGE('',*,*,#135,.T.);
#137=EDGE_LOOP('',(#123,#129,#130,#136));
#138=FACE_BOUND('',#137,.T.);
#139=ADVANCED_FACE('',(#138),#113,.T.);
#140=CARTESIAN_POINT('',(158.125511812,86.65437033,35.017693924));
#141=DIRECTION('',(0.,0.,1.));
#142=DIRECTION('',(1.,0.,0.));
#143=AXIS2_PLACEMENT_3D('',#140,#141,#142);
#144=PLANE('',#143);
#145=CARTESIAN_POINT('',(287.882707767,90.581566284,35.017693924));
#146=VERTEX_POINT('',#145);
#147=CARTESIAN_POINT('',(296.125511812,90.581566284,35.017693924));
#148=VERTEX_POINT('',#147);
#149=CARTESIAN_POINT('',(287.882707767,90.581566284,35.017693924));
#150=DIRECTION('',(1.,0.,-0.));
#151=VECTOR('',#150,8.242804045);
#152=LINE('',#149,#151);
#153=EDGE_CURVE('',#146,#148,#152,.T.);
#154=ORIENTED_EDGE('',*,*,#153,.T.);
#155=CARTESIAN_POINT('',(296.125511812,101.75437033,35.017693924));
#156=VERTEX_POINT('',#155);
#157=CARTESIAN_POINT('',(296.125511812,90.581566284,35.017693924));
#158=DIRECTION('',(0.,1.,-0.));
#159=VECTOR('',#158,11.172804045);
#160=LINE('',#157,#159);
#161=EDGE_CURVE('',#148,#156,#160,.T.);
#162=ORIENTED_EDGE('',*,*,#161,.T.);
#163=CARTESIAN_POINT('',(287.882707767,101.75437033,35.017693924));
#164=VERTEX_POINT('',#163);
#165=CARTESIAN_POINT('',(296.125511812,101.75437033,35.017693924));
#166=DIRECTION('',(-1.,0.,0.));
#167=VECTOR('',#166,8.242804045);
#168=LINE('',#165,#167);
#169=EDGE_CURVE('',#156,#164,#168,.T.);
#170=ORIENTED_EDGE('',*,*,#169,.T.);
#171=CARTESIAN_POINT('',(287.882707767,101.75437033,35.017693924));
#172=DIRECTION('',(0.,-1.,0.));
#173=VECTOR('',#172,11.172804045);
#174=LINE('',#171,#173);
#175=EDGE_CURVE('',#164,#146,#174,.T.);
#176=ORIENTED_EDGE('',*,*,#175,.T.);
#177=EDGE_LOOP('',(#154,#162,#170,#176));
#178=FACE_BOUND('',#177,.T.);
#179=CARTESIAN_POINT('',(295.504109789,96.132968307,35.017693924));
#180=VERTEX_POINT('',#179);
#181=CARTESIAN_POINT('',(292.504109789,93.132968307,35.017693924));
#182=VERTEX_POINT('',#181);
#183=CARTESIAN_POINT('',(292.504109789,96.132968307,35.017693924));
#184=DIRECTION('',(0.,0.,1.));
#185=DIRECTION('',(0.,-1.,0.));
#186=AXIS2_PLACEMENT_3D('',#183,#184,#185);
#187=CIRCLE('',#186,3.);
#188=EDGE_CURVE('',#180,#182,#187,.T.);
#189=ORIENTED_EDGE('',*,*,#188,.F.);
#190=CARTESIAN_POINT('',(292.504109789,96.132968307,35.017693924));
#191=DIRECTION('',(0.,0.,1.));
#192=DIRECTION('',(0.,-1.,0.));
#193=AXIS2_PLACEMENT_3D('',#190,#191,#192);
#194=CIRCLE('',#193,3.);
#195=EDGE_CURVE('',#182,#180,#194,.T.);
#196=ORIENTED_EDGE('',*,*,#195,.F.);
#197=EDGE_LOOP('',(#189,#196));
#198=FACE_BOUND('',#197,.T.);
#199=ADVANCED_FACE('',(#178,#198),#144,.T.);
#200=CARTESIAN_POINT('',(303.125511812,11.65437033,0.017693924));
#201=DIRECTION('',(1.,0.,0.));
#202=DIRECTION('',(0.,1.,-0.));
#203=AXIS2_PLACEMENT_3D('',#200,#201,#202);
#204=PLANE('',#203);
#205=CARTESIAN_POINT('',(303.125511812,117.75437033,3.517693924));
#206=VERTEX_POINT('',#205);
#207=CARTESIAN_POINT('',(303.125511812,107.25437033,14.017693924));
#208=VERTEX_POINT('',#207);
#209=CARTESIAN_POINT('',(303.125511812,117.75437033,14.017693924));
#210=DIRECTION('',(-1.,-0.,-0.));
#211=DIRECTION('',(0.,0.,-1.));
#212=AXIS2_PLACEMENT_3D('',#209,#210,#211);
#213=CIRCLE('',#212,10.5);
#214=EDGE_CURVE('',#206,#208,#213,.T.);
#215=ORIENTED_EDGE('',*,*,#214,.T.);
#216=CARTESIAN_POINT('',(303.125511812,107.25437033,28.017693924));
#217=VERTEX_POINT('',#216);
#218=CARTESIAN_POINT('',(303.125511812,107.25437033,14.017693924));
#219=DIRECTION('',(0.,0.,1.));
#220=VECTOR('',#219,14.);
#221=LINE('',#218,#220);
#222=EDGE_CURVE('',#208,#217,#221,.T.);
#223=ORIENTED_EDGE('',*,*,#222,.T.);
#224=CARTESIAN_POINT('',(303.125511812,85.081566284,28.017693924));
#225=VERTEX_POINT('',#224);
#226=CARTESIAN_POINT('',(303.125511812,107.25437033,28.017693924));
#227=DIRECTION('',(0.,-1.,0.));
#228=VECTOR('',#227,22.172804045);
#229=LINE('',#226,#228);
#230=EDGE_CURVE('',#217,#225,#229,.T.);
#231=ORIENTED_EDGE('',*,*,#230,.T.);
#232=CARTESIAN_POINT('',(303.125511812,85.081566284,14.017693924));
#233=VERTEX_POINT('',#232);
#234=CARTESIAN_POINT('',(303.125511812,85.081566284,28.017693924));
#235=DIRECTION('',(0.,-0.,-1.));
#236=VECTOR('',#235,14.);
#237=LINE('',#234,#236);
#238=EDGE_CURVE('',#225,#233,#237,.T.);
#239=ORIENTED_EDGE('',*,*,#238,.T.);
#240=CARTESIAN_POINT('',(303.125511812,74.581566284,3.517693924));
#241=VERTEX_POINT('',#240);
#242=CARTESIAN_POINT('',(303.125511812,74.581566284,14.017693924));
#243=DIRECTION('',(-1.,-0.,-0.));
#244=DIRECTION('',(0.,0.,-1.));
#245=AXIS2_PLACEMENT_3D('',#242,#243,#244);
#246=CIRCLE('',#245,10.5);
#247=EDGE_CURVE('',#233,#241,#246,.T.);
#248=ORIENTED_EDGE('',*,*,#247,.T.);
#249=CARTESIAN_POINT('',(303.125511812,11.65437033,3.517693924));
#250=VERTEX_POINT('',#249);
#251=CARTESIAN_POINT('',(303.125511812,74.581566284,3.517693924));
#252=DIRECTION('',(0.,-1.,0.));
#253=VECTOR('',#252,62.927195955);
#254=LINE('',#251,#253);
#255=EDGE_CURVE('',#241,#250,#254,.T.);
#256=ORIENTED_EDGE('',*,*,#255,.T.);
#257=CARTESIAN_POINT('',(303.125511812,11.65437033,0.017693924));
#258=VERTEX_POINT('',#257);
#259=CARTESIAN_POINT('',(303.125511812,11.65437033,0.017693924));
#260=DIRECTION('',(0.,0.,1.));
#261=VECTOR('',#260,3.5);
#262=LINE('',#259,#261);
#263=EDGE_CURVE('',#258,#250,#262,.T.);
#264=ORIENTED_EDGE('',*,*,#263,.F.);
#265=CARTESIAN_POINT('',(303.125511812,161.65437033,0.017693924));
#266=VERTEX_POINT('',#265);
#267=CARTESIAN_POINT('',(303.125511812,11.65437033,0.017693924));
#268=DIRECTION('',(0.,1.,-0.));
#269=VECTOR('',#268,150.);
#270=LINE('',#267,#269);
#271=EDGE_CURVE('',#258,#266,#270,.T.);
#272=ORIENTED_EDGE('',*,*,#271,.T.);
#273=CARTESIAN_POINT('',(303.125511812,161.65437033,3.517693924));
#274=VERTEX_POINT('',#273);
#275=CARTESIAN_POINT('',(303.125511812,161.65437033,0.017693924));
#276=DIRECTION('',(0.,0.,1.));
#277=VECTOR('',#276,3.5);
#278=LINE('',#275,#277);
#279=EDGE_CURVE('',#266,#274,#278,.T.);
#280=ORIENTED_EDGE('',*,*,#279,.T.);
#281=CARTESIAN_POINT('',(303.125511812,161.65437033,3.517693924));
#282=DIRECTION('',(0.,-1.,0.));
#283=VECTOR('',#282,43.9);
#284=LINE('',#281,#283);
#285=EDGE_CURVE('',#274,#206,#284,.T.);
#286=ORIENTED_EDGE('',*,*,#285,.T.);
#287=EDGE_LOOP('',(#215,#223,#231,#239,#248,#256,#264,#272,#280,#286));
#288=FACE_BOUND('',#287,.T.);
#289=ADVANCED_FACE('',(#288),#204,.T.);
#290=CARTESIAN_POINT('',(276.882707767,83.581566284,5.017693924));
#291=DIRECTION('',(0.,-1.,0.));
#292=DIRECTION('',(1.,0.,0.));
#293=AXIS2_PLACEMENT_3D('',#290,#291,#292);
#294=PLANE('',#293);
#295=CARTESIAN_POINT('',(285.882707767,83.581566284,14.017693924));
#296=VERTEX_POINT('',#295);
#297=CARTESIAN_POINT('',(301.625511812,83.581566284,14.017693924));
#298=VERTEX_POINT('',#297);
#299=CARTESIAN_POINT('',(285.882707767,83.581566284,14.017693924));
#300=DIRECTION('',(1.,0.,-0.));
#301=VECTOR('',#300,15.742804045);
#302=LINE('',#299,#301);
#303=EDGE_CURVE('',#296,#298,#302,.T.);
#304=ORIENTED_EDGE('',*,*,#303,.T.);
#305=CARTESIAN_POINT('',(301.625511812,83.581566284,28.017693924));
#306=VERTEX_POINT('',#305);
#307=CARTESIAN_POINT('',(301.625511812,83.581566284,14.017693924));
#308=DIRECTION('',(0.,0.,1.));
#309=VECTOR('',#308,14.);
#310=LINE('',#307,#309);
#311=EDGE_CURVE('',#298,#306,#310,.T.);
#312=ORIENTED_EDGE('',*,*,#311,.T.);
#313=CARTESIAN_POINT('',(285.882707767,83.581566284,28.017693924));
#314=VERTEX_POINT('',#313);
#315=CARTESIAN_POINT('',(301.625511812,83.581566284,28.017693924));
#316=DIRECTION('',(-1.,0.,0.));
#317=VECTOR('',#316,15.742804045);
#318=LINE('',#315,#317);
#319=EDGE_CURVE('',#306,#314,#318,.T.);
#320=ORIENTED_EDGE('',*,*,#319,.T.);
#321=CARTESIAN_POINT('',(285.882707767,83.581566284,28.017693924));
#322=DIRECTION('',(0.,-0.,-1.));
#323=VECTOR('',#322,14.);
#324=LINE('',#321,#323);
#325=EDGE_CURVE('',#314,#296,#324,.T.);
#326=ORIENTED_EDGE('',*,*,#325,.T.);
#327=EDGE_LOOP('',(#304,#312,#320,#326));
#328=FACE_BOUND('',#327,.T.);
#329=ADVANCED_FACE('',(#328),#294,.T.);
#330=CARTESIAN_POINT('',(158.125511812,12.40437033,4.267693924));
#331=DIRECTION('',(0.,-0.707106781,0.707106781));
#332=DIRECTION('',(0.,-0.707106781,-0.707106781));
#333=AXIS2_PLACEMENT_3D('',#330,#331,#332);
#334=PLANE('',#333);
#335=CARTESIAN_POINT('',(158.125511812,11.65437033,3.517693924));
#336=VERTEX_POINT('',#335);
#337=CARTESIAN_POINT('',(158.125511812,11.65437033,3.517693924));
#338=DIRECTION('',(1.,0.,-0.));
#339=VECTOR('',#338,145.);
#340=LINE('',#337,#339);
#341=EDGE_CURVE('',#336,#250,#340,.T.);
#342=ORIENTED_EDGE('',*,*,#341,.T.);
#343=CARTESIAN_POINT('',(301.625511812,13.15437033,5.017693924));
#344=VERTEX_POINT('',#343);
#345=CARTESIAN_POINT('',(303.125511812,11.65437033,3.517693924));
#346=DIRECTION('',(-0.577350269,0.577350269,0.577350269));
#347=VECTOR('',#346,2.598076211);
#348=LINE('',#345,#347);
#349=EDGE_CURVE('',#250,#344,#348,.T.);
#350=ORIENTED_EDGE('',*,*,#349,.T.);
#351=CARTESIAN_POINT('',(158.125511812,13.15437033,5.017693924));
#352=VERTEX_POINT('',#351);
#353=CARTESIAN_POINT('',(158.125511812,13.15437033,5.017693924));
#354=DIRECTION('',(1.,0.,-0.));
#355=VECTOR('',#354,143.5);
#356=LINE('',#353,#355);
#357=EDGE_CURVE('',#352,#344,#356,.T.);
#358=ORIENTED_EDGE('',*,*,#357,.F.);
#359=CARTESIAN_POINT('',(158.125511812,13.15437033,5.017693924));
#360=DIRECTION('',(0.,-0.707106781,-0.707106781));
#361=VECTOR('',#360,2.121320344);
#362=LINE('',#359,#361);
#363=EDGE_CURVE('',#352,#336,#362,.T.);
#364=ORIENTED_EDGE('',*,*,#363,.T.);
#365=EDGE_LOOP('',(#342,#350,#358,#364));
#366=FACE_BOUND('',#365,.T.);
#367=ADVANCED_FACE('',(#366),#334,.T.);
#368=CARTESIAN_POINT('',(308.125511812,161.65437033,0.017693924));
#369=DIRECTION('',(0.,1.,-0.));
#370=DIRECTION('',(-1.,0.,0.));
#371=AXIS2_PLACEMENT_3D('',#368,#369,#370);
#372=PLANE('',#371);
#373=CARTESIAN_POINT('',(158.125511812,161.65437033,3.517693924));
#374=VERTEX_POINT('',#373);
#375=CARTESIAN_POINT('',(303.125511812,161.65437033,3.517693924));
#376=DIRECTION('',(-1.,0.,0.));
#377=VECTOR('',#376,145.);
#378=LINE('',#375,#377);
#379=EDGE_CURVE('',#274,#374,#378,.T.);
#380=ORIENTED_EDGE('',*,*,#379,.F.);
#381=ORIENTED_EDGE('',*,*,#279,.F.);
#382=CARTESIAN_POINT('',(158.125511812,161.65437033,0.017693924));
#383=VERTEX_POINT('',#382);
#384=CARTESIAN_POINT('',(303.125511812,161.65437033,0.017693924));
#385=DIRECTION('',(-1.,0.,0.));
#386=VECTOR('',#385,145.);
#387=LINE('',#384,#386);
#388=EDGE_CURVE('',#266,#383,#387,.T.);
#389=ORIENTED_EDGE('',*,*,#388,.T.);
#390=CARTESIAN_POINT('',(158.125511812,161.65437033,0.017693924));
#391=DIRECTION('',(0.,0.,1.));
#392=VECTOR('',#391,3.5);
#393=LINE('',#390,#392);
#394=EDGE_CURVE('',#383,#374,#393,.T.);
#395=ORIENTED_EDGE('',*,*,#394,.T.);
#396=EDGE_LOOP('',(#380,#381,#389,#395));
#397=FACE_BOUND('',#396,.T.);
#398=ADVANCED_FACE('',(#397),#372,.T.);
#399=CARTESIAN_POINT('',(158.125511812,13.65437033,1.767693924));
#400=DIRECTION('',(-1.,0.,0.));
#401=DIRECTION('',(0.,0.,1.));
#402=AXIS2_PLACEMENT_3D('',#399,#400,#401);
#403=PLANE('',#402);
#404=CARTESIAN_POINT('',(158.125511812,122.220380116,5.017693924));
#405=VERTEX_POINT('',#404);
#406=CARTESIAN_POINT('',(158.125511812,122.220380116,0.017693924));
#407=VERTEX_POINT('',#406);
#408=CARTESIAN_POINT('',(158.125511812,122.220380116,5.017693924));
#409=DIRECTION('',(-0.,0.,-1.));
#410=VECTOR('',#409,5.);
#411=LINE('',#408,#410);
#412=EDGE_CURVE('',#405,#407,#411,.T.);
#413=ORIENTED_EDGE('',*,*,#412,.F.);
#414=CARTESIAN_POINT('',(158.125511812,160.15437033,5.017693924));
#415=VERTEX_POINT('',#414);
#416=CARTESIAN_POINT('',(158.125511812,160.15437033,5.017693924));
#417=DIRECTION('',(0.,-1.,0.));
#418=VECTOR('',#417,37.933990214);
#419=LINE('',#416,#418);
#420=EDGE_CURVE('',#415,#405,#419,.T.);
#421=ORIENTED_EDGE('',*,*,#420,.F.);
#422=CARTESIAN_POINT('',(158.125511812,160.15437033,5.017693924));
#423=DIRECTION('',(0.,0.707106781,-0.707106781));
#424=VECTOR('',#423,2.121320344);
#425=LINE('',#422,#424);
#426=EDGE_CURVE('',#415,#374,#425,.T.);
#427=ORIENTED_EDGE('',*,*,#426,.T.);
#428=ORIENTED_EDGE('',*,*,#394,.F.);
#429=CARTESIAN_POINT('',(158.125511812,161.65437033,0.017693924));
#430=DIRECTION('',(0.,-1.,0.));
#431=VECTOR('',#430,39.433990214);
#432=LINE('',#429,#431);
#433=EDGE_CURVE('',#383,#407,#432,.T.);
#434=ORIENTED_EDGE('',*,*,#433,.T.);
#435=EDGE_LOOP('',(#413,#421,#427,#428,#434));
#436=FACE_BOUND('',#435,.T.);
#437=ADVANCED_FACE('',(#436),#403,.T.);
#438=CARTESIAN_POINT('',(158.125511812,13.65437033,1.767693924));
#439=DIRECTION('',(-1.,0.,0.));
#440=DIRECTION('',(0.,0.,1.));
#441=AXIS2_PLACEMENT_3D('',#438,#439,#440);
#442=PLANE('',#441);
#443=CARTESIAN_POINT('',(158.125511812,51.088360543,0.017693924));
#444=VERTEX_POINT('',#443);
#445=CARTESIAN_POINT('',(158.125511812,51.088360543,5.017693924));
#446=VERTEX_POINT('',#445);
#447=CARTESIAN_POINT('',(158.125511812,51.088360543,0.017693924));
#448=DIRECTION('',(0.,0.,1.));
#449=VECTOR('',#448,5.);
#450=LINE('',#447,#449);
#451=EDGE_CURVE('',#444,#446,#450,.T.);
#452=ORIENTED_EDGE('',*,*,#451,.F.);
#453=CARTESIAN_POINT('',(158.125511812,11.65437033,0.017693924));
#454=VERTEX_POINT('',#453);
#455=CARTESIAN_POINT('',(158.125511812,51.088360543,0.017693924));
#456=DIRECTION('',(0.,-1.,0.));
#457=VECTOR('',#456,39.433990214);
#458=LINE('',#455,#457);
#459=EDGE_CURVE('',#444,#454,#458,.T.);
#460=ORIENTED_EDGE('',*,*,#459,.T.);
#461=CARTESIAN_POINT('',(158.125511812,11.65437033,3.517693924));
#462=DIRECTION('',(0.,-0.,-1.));
#463=VECTOR('',#462,3.5);
#464=LINE('',#461,#463);
#465=EDGE_CURVE('',#336,#454,#464,.T.);
#466=ORIENTED_EDGE('',*,*,#465,.F.);
#467=ORIENTED_EDGE('',*,*,#363,.F.);
#468=CARTESIAN_POINT('',(158.125511812,51.088360543,5.017693924));
#469=DIRECTION('',(0.,-1.,0.));
#470=VECTOR('',#469,37.933990214);
#471=LINE('',#468,#470);
#472=EDGE_CURVE('',#446,#352,#471,.T.);
#473=ORIENTED_EDGE('',*,*,#472,.F.);
#474=EDGE_LOOP('',(#452,#460,#466,#467,#473));
#475=FACE_BOUND('',#474,.T.);
#476=ADVANCED_FACE('',(#475),#442,.T.);
#477=CARTESIAN_POINT('',(158.125511812,13.65437033,1.767693924));
#478=DIRECTION('',(-1.,0.,0.));
#479=DIRECTION('',(0.,0.,1.));
#480=AXIS2_PLACEMENT_3D('',#477,#478,#479);
#481=PLANE('',#480);
#482=CARTESIAN_POINT('',(158.125511812,109.400108953,0.017693924));
#483=VERTEX_POINT('',#482);
#484=CARTESIAN_POINT('',(158.125511812,109.400108953,5.017693924));
#485=VERTEX_POINT('',#484);
#486=CARTESIAN_POINT('',(158.125511812,109.400108953,0.017693924));
#487=DIRECTION('',(0.,-0.,1.));
#488=VECTOR('',#487,5.);
#489=LINE('',#486,#488);
#490=EDGE_CURVE('',#483,#485,#489,.T.);
#491=ORIENTED_EDGE('',*,*,#490,.F.);
#492=CARTESIAN_POINT('',(158.125511812,63.908631706,0.017693924));
#493=VERTEX_POINT('',#492);
#494=CARTESIAN_POINT('',(158.125511812,109.400108953,0.017693924));
#495=DIRECTION('',(0.,-1.,0.));
#496=VECTOR('',#495,45.491477248);
#497=LINE('',#494,#496);
#498=EDGE_CURVE('',#483,#493,#497,.T.);
#499=ORIENTED_EDGE('',*,*,#498,.T.);
#500=CARTESIAN_POINT('',(158.125511812,63.908631706,5.017693924));
#501=VERTEX_POINT('',#500);
#502=CARTESIAN_POINT('',(158.125511812,63.908631706,5.017693924));
#503=DIRECTION('',(-0.,-0.,-1.));
#504=VECTOR('',#503,5.);
#505=LINE('',#502,#504);
#506=EDGE_CURVE('',#501,#493,#505,.T.);
#507=ORIENTED_EDGE('',*,*,#506,.F.);
#508=CARTESIAN_POINT('',(158.125511812,109.400108953,5.017693924));
#509=DIRECTION('',(0.,-1.,0.));
#510=VECTOR('',#509,45.491477248);
#511=LINE('',#508,#510);
#512=EDGE_CURVE('',#485,#501,#511,.T.);
#513=ORIENTED_EDGE('',*,*,#512,.F.);
#514=EDGE_LOOP('',(#491,#499,#507,#513));
#515=FACE_BOUND('',#514,.T.);
#516=ADVANCED_FACE('',(#515),#481,.T.);
#517=CARTESIAN_POINT('',(285.882707767,88.581566284,5.017693924));
#518=DIRECTION('',(0.,-0.,-1.));
#519=DIRECTION('',(0.,1.,-0.));
#520=AXIS2_PLACEMENT_3D('',#517,#518,#519);
#521=CYLINDRICAL_SURFACE('',#520,5.);
#522=ORIENTED_EDGE('',*,*,#325,.F.);
#523=CARTESIAN_POINT('',(282.347173861,85.046032378,29.482160018));
#524=VERTEX_POINT('',#523);
#525=CARTESIAN_POINT('',(285.882707767,88.581566284,33.017693924));
#526=DIRECTION('',(0.,0.707106781,-0.707106781));
#527=DIRECTION('',(0.,-0.707106781,-0.707106781));
#528=AXIS2_PLACEMENT_3D('',#525,#526,#527);
#529=ELLIPSE('',#528,7.071067812,5.);
#530=EDGE_CURVE('',#314,#524,#529,.T.);
#531=ORIENTED_EDGE('',*,*,#530,.T.);
#532=CARTESIAN_POINT('',(285.882707767,88.581566284,33.017693924));
#533=DIRECTION('',(0.707106781,-0.,-0.707106781));
#534=DIRECTION('',(-0.707106781,-0.,-0.707106781));
#535=AXIS2_PLACEMENT_3D('',#532,#533,#534);
#536=ELLIPSE('',#535,7.071067812,5.);
#537=EDGE_CURVE('',#524,#115,#536,.T.);
#538=ORIENTED_EDGE('',*,*,#537,.T.);
#539=ORIENTED_EDGE('',*,*,#122,.T.);
#540=CARTESIAN_POINT('',(285.882707767,88.581566284,14.017693924));
#541=DIRECTION('',(-0.,-0.,-1.));
#542=DIRECTION('',(0.,-1.,0.));
#543=AXIS2_PLACEMENT_3D('',#540,#541,#542);
#544=CIRCLE('',#543,5.);
#545=EDGE_CURVE('',#296,#117,#544,.T.);
#546=ORIENTED_EDGE('',*,*,#545,.F.);
#547=EDGE_LOOP('',(#522,#531,#538,#539,#546));
#548=FACE_BOUND('',#547,.T.);
#549=ADVANCED_FACE('',(#548),#521,.T.);
#550=CARTESIAN_POINT('',(158.125511812,117.75437033,14.017693924));
#551=DIRECTION('',(-1.,0.,0.));
#552=DIRECTION('',(0.,0.,1.));
#553=AXIS2_PLACEMENT_3D('',#550,#551,#552);
#554=CYLINDRICAL_SURFACE('',#553,9.);
#555=ORIENTED_EDGE('',*,*,#56,.F.);
#556=CARTESIAN_POINT('',(301.625511812,117.75437033,5.017693924));
#557=VERTEX_POINT('',#556);
#558=CARTESIAN_POINT('',(301.625511812,117.75437033,14.017693924));
#559=DIRECTION('',(1.,0.,0.));
#560=DIRECTION('',(0.,0.,-1.));
#561=AXIS2_PLACEMENT_3D('',#558,#559,#560);
#562=CIRCLE('',#561,9.);
#563=EDGE_CURVE('',#43,#557,#562,.T.);
#564=ORIENTED_EDGE('',*,*,#563,.T.);
#565=CARTESIAN_POINT('',(285.882707767,117.75437033,5.017693924));
#566=VERTEX_POINT('',#565);
#567=CARTESIAN_POINT('',(301.625511812,117.75437033,5.017693924));
#568=DIRECTION('',(-1.,0.,0.));
#569=VECTOR('',#568,15.742804045);
#570=LINE('',#567,#569);
#571=EDGE_CURVE('',#557,#566,#570,.T.);
#572=ORIENTED_EDGE('',*,*,#571,.T.);
#573=CARTESIAN_POINT('',(285.882707767,117.75437033,14.017693924));
#574=DIRECTION('',(1.,-0.,-0.));
#575=DIRECTION('',(0.,0.,1.));
#576=AXIS2_PLACEMENT_3D('',#573,#574,#575);
#577=CIRCLE('',#576,9.);
#578=EDGE_CURVE('',#51,#566,#577,.T.);
#579=ORIENTED_EDGE('',*,*,#578,.F.);
#580=EDGE_LOOP('',(#555,#564,#572,#579));
#581=FACE_BOUND('',#580,.T.);
#582=ADVANCED_FACE('',(#581),#554,.F.);
#583=CARTESIAN_POINT('',(285.882707767,103.75437033,14.017693924));
#584=DIRECTION('',(0.,0.,1.));
#585=DIRECTION('',(0.,-1.,0.));
#586=AXIS2_PLACEMENT_3D('',#583,#584,#585);
#587=TOROIDAL_SURFACE('',#586,14.,9.);
#588=CARTESIAN_POINT('',(280.439806225,116.653006801,5.017693924));
#589=VERTEX_POINT('',#588);
#590=CARTESIAN_POINT('',(285.882707767,103.75437033,5.017693924));
#591=DIRECTION('',(-0.,-0.,-1.));
#592=DIRECTION('',(0.,-1.,0.));
#593=AXIS2_PLACEMENT_3D('',#590,#591,#592);
#594=CIRCLE('',#593,14.);
#595=EDGE_CURVE('',#589,#566,#594,.T.);
#596=ORIENTED_EDGE('',*,*,#595,.F.);
#597=CARTESIAN_POINT('',(271.882707767,103.75437033,5.017693924));
#598=VERTEX_POINT('',#597);
#599=CARTESIAN_POINT('',(285.882707767,103.75437033,5.017693924));
#600=DIRECTION('',(-0.,-0.,-1.));
#601=DIRECTION('',(0.,-1.,0.));
#602=AXIS2_PLACEMENT_3D('',#599,#600,#601);
#603=CIRCLE('',#602,14.);
#604=EDGE_CURVE('',#598,#589,#603,.T.);
#605=ORIENTED_EDGE('',*,*,#604,.F.);
#606=CARTESIAN_POINT('',(271.882707767,103.75437033,14.017693924));
#607=DIRECTION('',(0.,-1.,0.));
#608=DIRECTION('',(0.,-0.,-1.));
#609=AXIS2_PLACEMENT_3D('',#606,#607,#608);
#610=CIRCLE('',#609,9.);
#611=EDGE_CURVE('',#598,#75,#610,.T.);
#612=ORIENTED_EDGE('',*,*,#611,.T.);
#613=ORIENTED_EDGE('',*,*,#104,.T.);
#614=ORIENTED_EDGE('',*,*,#578,.T.);
#615=EDGE_LOOP('',(#596,#605,#612,#613,#614));
#616=FACE_BOUND('',#615,.T.);
#617=ADVANCED_FACE('',(#616),#587,.F.);
#618=CARTESIAN_POINT('',(158.125511812,86.65437033,24.017693924));
#619=DIRECTION('',(0.,0.,1.));
#620=DIRECTION('',(1.,0.,0.));
#621=AXIS2_PLACEMENT_3D('',#618,#619,#620);
#622=PLANE('',#621);
#623=CARTESIAN_POINT('',(292.504109789,93.132968307,24.017693924));
#624=VERTEX_POINT('',#623);
#625=CARTESIAN_POINT('',(295.504109789,96.132968307,24.017693924));
#626=VERTEX_POINT('',#625);
#627=CARTESIAN_POINT('',(292.504109789,96.132968307,24.017693924));
#628=DIRECTION('',(0.,0.,1.));
#629=DIRECTION('',(0.,-1.,0.));
#630=AXIS2_PLACEMENT_3D('',#627,#628,#629);
#631=CIRCLE('',#630,3.);
#632=EDGE_CURVE('',#624,#626,#631,.T.);
#633=ORIENTED_EDGE('',*,*,#632,.T.);
#634=CARTESIAN_POINT('',(292.504109789,96.132968307,24.017693924));
#635=DIRECTION('',(0.,0.,1.));
#636=DIRECTION('',(0.,-1.,0.));
#637=AXIS2_PLACEMENT_3D('',#634,#635,#636);
#638=CIRCLE('',#637,3.);
#639=EDGE_CURVE('',#626,#624,#638,.T.);
#640=ORIENTED_EDGE('',*,*,#639,.T.);
#641=EDGE_LOOP('',(#633,#640));
#642=FACE_BOUND('',#641,.T.);
#643=ADVANCED_FACE('',(#642),#622,.T.);
#644=CARTESIAN_POINT('',(292.504109789,96.132968307,45.017693924));
#645=DIRECTION('',(-0.,0.,1.));
#646=DIRECTION('',(1.,0.,0.));
#647=AXIS2_PLACEMENT_3D('',#644,#645,#646);
#648=CYLINDRICAL_SURFACE('',#647,3.);
#649=CARTESIAN_POINT('',(295.504109789,96.132968307,35.017693924));
#650=DIRECTION('',(-0.,-0.,-1.));
#651=VECTOR('',#650,11.);
#652=LINE('',#649,#651);
#653=EDGE_CURVE('',#180,#626,#652,.T.);
#654=ORIENTED_EDGE('',*,*,#653,.F.);
#655=ORIENTED_EDGE('',*,*,#188,.T.);
#656=ORIENTED_EDGE('',*,*,#195,.T.);
#657=ORIENTED_EDGE('',*,*,#653,.T.);
#658=ORIENTED_EDGE('',*,*,#632,.F.);
#659=ORIENTED_EDGE('',*,*,#639,.F.);
#660=EDGE_LOOP('',(#654,#655,#656,#657,#658,#659));
#661=FACE_BOUND('',#660,.T.);
#662=ADVANCED_FACE('',(#661),#648,.F.);
#663=CARTESIAN_POINT('',(271.882707767,357.19437033,14.017693924));
#664=DIRECTION('',(0.,-1.,0.));
#665=DIRECTION('',(0.,-0.,-1.));
#666=AXIS2_PLACEMENT_3D('',#663,#664,#665);
#667=CYLINDRICAL_SURFACE('',#666,9.);
#668=ORIENTED_EDGE('',*,*,#611,.F.);
#669=CARTESIAN_POINT('',(271.882707767,88.581566284,5.017693924));
#670=VERTEX_POINT('',#669);
#671=CARTESIAN_POINT('',(271.882707767,103.75437033,5.017693924));
#672=DIRECTION('',(0.,-1.,0.));
#673=VECTOR('',#672,15.172804045);
#674=LINE('',#671,#673);
#675=EDGE_CURVE('',#598,#670,#674,.T.);
#676=ORIENTED_EDGE('',*,*,#675,.T.);
#677=CARTESIAN_POINT('',(271.882707767,88.581566284,14.017693924));
#678=DIRECTION('',(-0.,1.,-0.));
#679=DIRECTION('',(0.,-0.,-1.));
#680=AXIS2_PLACEMENT_3D('',#677,#678,#679);
#681=CIRCLE('',#680,9.);
#682=EDGE_CURVE('',#117,#670,#681,.T.);
#683=ORIENTED_EDGE('',*,*,#682,.F.);
#684=ORIENTED_EDGE('',*,*,#135,.F.);
#685=EDGE_LOOP('',(#668,#676,#683,#684));
#686=FACE_BOUND('',#685,.T.);
#687=ADVANCED_FACE('',(#686),#667,.F.);
#688=CARTESIAN_POINT('',(285.882707767,88.581566284,14.017693924));
#689=DIRECTION('',(0.,0.,1.));
#690=DIRECTION('',(0.,-1.,0.));
#691=AXIS2_PLACEMENT_3D('',#688,#689,#690);
#692=TOROIDAL_SURFACE('',#691,14.,9.);
#693=ORIENTED_EDGE('',*,*,#545,.T.);
#694=ORIENTED_EDGE('',*,*,#682,.T.);
#695=CARTESIAN_POINT('',(285.882707767,74.581566284,5.017693924));
#696=VERTEX_POINT('',#695);
#697=CARTESIAN_POINT('',(285.882707767,88.581566284,5.017693924));
#698=DIRECTION('',(-0.,-0.,-1.));
#699=DIRECTION('',(0.,-1.,0.));
#700=AXIS2_PLACEMENT_3D('',#697,#698,#699);
#701=CIRCLE('',#700,14.);
#702=EDGE_CURVE('',#696,#670,#701,.T.);
#703=ORIENTED_EDGE('',*,*,#702,.F.);
#704=CARTESIAN_POINT('',(285.882707767,74.581566284,14.017693924));
#705=DIRECTION('',(1.,0.,0.));
#706=DIRECTION('',(0.,0.,-1.));
#707=AXIS2_PLACEMENT_3D('',#704,#705,#706);
#708=CIRCLE('',#707,9.);
#709=EDGE_CURVE('',#696,#296,#708,.T.);
#710=ORIENTED_EDGE('',*,*,#709,.T.);
#711=EDGE_LOOP('',(#693,#694,#703,#710));
#712=FACE_BOUND('',#711,.T.);
#713=ADVANCED_FACE('',(#712),#692,.F.);
#714=CARTESIAN_POINT('',(-350.134023559,74.581566284,14.017693924));
#715=DIRECTION('',(1.,0.,0.));
#716=DIRECTION('',(0.,-0.,-1.));
#717=AXIS2_PLACEMENT_3D('',#714,#715,#716);
#718=CYLINDRICAL_SURFACE('',#717,9.);
#719=CARTESIAN_POINT('',(301.625511812,74.581566284,5.017693924));
#720=VERTEX_POINT('',#719);
#721=CARTESIAN_POINT('',(285.882707767,74.581566284,5.017693924));
#722=DIRECTION('',(1.,0.,-0.));
#723=VECTOR('',#722,15.742804045);
#724=LINE('',#721,#723);
#725=EDGE_CURVE('',#696,#720,#724,.T.);
#726=ORIENTED_EDGE('',*,*,#725,.T.);
#727=CARTESIAN_POINT('',(301.625511812,74.581566284,14.017693924));
#728=DIRECTION('',(1.,0.,0.));
#729=DIRECTION('',(0.,0.,-1.));
#730=AXIS2_PLACEMENT_3D('',#727,#728,#729);
#731=CIRCLE('',#730,9.);
#732=EDGE_CURVE('',#720,#298,#731,.T.);
#733=ORIENTED_EDGE('',*,*,#732,.T.);
#734=ORIENTED_EDGE('',*,*,#303,.F.);
#735=ORIENTED_EDGE('',*,*,#709,.F.);
#736=EDGE_LOOP('',(#726,#733,#734,#735));
#737=FACE_BOUND('',#736,.T.);
#738=ADVANCED_FACE('',(#737),#718,.F.);
#739=CARTESIAN_POINT('',(158.125511812,86.65437033,0.017693924));
#740=DIRECTION('',(0.,0.,1.));
#741=DIRECTION('',(1.,0.,0.));
#742=AXIS2_PLACEMENT_3D('',#739,#740,#741);
#743=PLANE('',#742);
#744=CARTESIAN_POINT('',(173.391789322,135.566951338,0.017693924));
#745=VERTEX_POINT('',#744);
#746=CARTESIAN_POINT('',(161.259018594,123.434180609,0.017693924));
#747=VERTEX_POINT('',#746);
#748=CARTESIAN_POINT('',(173.391789322,135.566951338,0.017693924));
#749=DIRECTION('',(-0.707106781,-0.707106781,0.));
#750=VECTOR('',#749,17.158328913);
#751=LINE('',#748,#750);
#752=EDGE_CURVE('',#745,#747,#751,.T.);
#753=ORIENTED_EDGE('',*,*,#752,.T.);
#754=CARTESIAN_POINT('',(158.15,126.808740659,0.017693924));
#755=DIRECTION('',(-0.,-0.,-1.));
#756=DIRECTION('',(0.,-1.,0.));
#757=AXIS2_PLACEMENT_3D('',#754,#755,#756);
#758=CIRCLE('',#757,4.58842589);
#759=EDGE_CURVE('',#747,#407,#758,.T.);
#760=ORIENTED_EDGE('',*,*,#759,.T.);
#761=ORIENTED_EDGE('',*,*,#433,.F.);
#762=ORIENTED_EDGE('',*,*,#388,.F.);
#763=ORIENTED_EDGE('',*,*,#271,.F.);
#764=CARTESIAN_POINT('',(158.125511812,11.65437033,0.017693924));
#765=DIRECTION('',(1.,0.,-0.));
#766=VECTOR('',#765,145.);
#767=LINE('',#764,#766);
#768=EDGE_CURVE('',#454,#258,#767,.T.);
#769=ORIENTED_EDGE('',*,*,#768,.F.);
#770=ORIENTED_EDGE('',*,*,#459,.F.);
#771=CARTESIAN_POINT('',(161.259018594,49.87456005,0.017693924));
#772=VERTEX_POINT('',#771);
#773=CARTESIAN_POINT('',(158.15,46.5,0.017693924));
#774=DIRECTION('',(-0.,-0.,-1.));
#775=DIRECTION('',(0.,-1.,0.));
#776=AXIS2_PLACEMENT_3D('',#773,#774,#775);
#777=CIRCLE('',#776,4.58842589);
#778=EDGE_CURVE('',#444,#772,#777,.T.);
#779=ORIENTED_EDGE('',*,*,#778,.T.);
#780=CARTESIAN_POINT('',(173.391789322,37.741789322,0.017693924));
#781=VERTEX_POINT('',#780);
#782=CARTESIAN_POINT('',(161.259018594,49.87456005,0.017693924));
#783=DIRECTION('',(0.707106781,-0.707106781,0.));
#784=VECTOR('',#783,17.158328913);
#785=LINE('',#782,#784);
#786=EDGE_CURVE('',#772,#781,#785,.T.);
#787=ORIENTED_EDGE('',*,*,#786,.T.);
#788=CARTESIAN_POINT('',(178.843592168,40.,0.017693924));
#789=VERTEX_POINT('',#788);
#790=CARTESIAN_POINT('',(175.65,40.,0.017693924));
#791=DIRECTION('',(-0.,-0.,-1.));
#792=DIRECTION('',(0.,-1.,0.));
#793=AXIS2_PLACEMENT_3D('',#790,#791,#792);
#794=CIRCLE('',#793,3.193592168);
#795=EDGE_CURVE('',#789,#781,#794,.T.);
#796=ORIENTED_EDGE('',*,*,#795,.F.);
#797=CARTESIAN_POINT('',(177.908210678,42.258210678,0.017693924));
#798=VERTEX_POINT('',#797);
#799=CARTESIAN_POINT('',(175.65,40.,0.017693924));
#800=DIRECTION('',(-0.,-0.,-1.));
#801=DIRECTION('',(0.,-1.,0.));
#802=AXIS2_PLACEMENT_3D('',#799,#800,#801);
#803=CIRCLE('',#802,3.193592168);
#804=EDGE_CURVE('',#798,#789,#803,.T.);
#805=ORIENTED_EDGE('',*,*,#804,.F.);
#806=CARTESIAN_POINT('',(165.590328737,54.576092619,0.017693924));
#807=VERTEX_POINT('',#806);
#808=CARTESIAN_POINT('',(165.590328737,54.576092619,0.017693924));
#809=DIRECTION('',(0.707106781,-0.707106781,0.));
#810=VECTOR('',#809,17.420115701);
#811=LINE('',#808,#810);
#812=EDGE_CURVE('',#807,#798,#811,.T.);
#813=ORIENTED_EDGE('',*,*,#812,.F.);
#814=CARTESIAN_POINT('',(165.590328737,60.423907381,0.017693924));
#815=VERTEX_POINT('',#814);
#816=CARTESIAN_POINT('',(169.15,57.5,0.017693924));
#817=DIRECTION('',(-0.,-0.,-1.));
#818=DIRECTION('',(0.,-1.,0.));
#819=AXIS2_PLACEMENT_3D('',#816,#817,#818);
#820=CIRCLE('',#819,4.606570728);
#821=EDGE_CURVE('',#807,#815,#820,.T.);
#822=ORIENTED_EDGE('',*,*,#821,.T.);
#823=CARTESIAN_POINT('',(177.908210678,72.741789322,0.017693924));
#824=VERTEX_POINT('',#823);
#825=CARTESIAN_POINT('',(165.590328737,60.423907381,0.017693924));
#826=DIRECTION('',(0.707106781,0.707106781,-0.));
#827=VECTOR('',#826,17.420115701);
#828=LINE('',#825,#827);
#829=EDGE_CURVE('',#815,#824,#828,.T.);
#830=ORIENTED_EDGE('',*,*,#829,.T.);
#831=CARTESIAN_POINT('',(178.843592168,75.,0.017693924));
#832=VERTEX_POINT('',#831);
#833=CARTESIAN_POINT('',(175.65,75.,0.017693924));
#834=DIRECTION('',(-0.,-0.,-1.));
#835=DIRECTION('',(0.,-1.,0.));
#836=AXIS2_PLACEMENT_3D('',#833,#834,#835);
#837=CIRCLE('',#836,3.193592168);
#838=EDGE_CURVE('',#832,#824,#837,.T.);
#839=ORIENTED_EDGE('',*,*,#838,.F.);
#840=CARTESIAN_POINT('',(173.391789322,77.258210678,0.017693924));
#841=VERTEX_POINT('',#840);
#842=CARTESIAN_POINT('',(175.65,75.,0.017693924));
#843=DIRECTION('',(-0.,-0.,-1.));
#844=DIRECTION('',(0.,-1.,0.));
#845=AXIS2_PLACEMENT_3D('',#842,#843,#844);
#846=CIRCLE('',#845,3.193592168);
#847=EDGE_CURVE('',#841,#832,#846,.T.);
#848=ORIENTED_EDGE('',*,*,#847,.F.);
#849=CARTESIAN_POINT('',(161.214495121,65.080916477,0.017693924));
#850=VERTEX_POINT('',#849);
#851=CARTESIAN_POINT('',(161.214495121,65.080916477,0.017693924));
#852=DIRECTION('',(0.707106781,0.707106781,-0.));
#853=VECTOR('',#852,17.221294613);
#854=LINE('',#851,#853);
#855=EDGE_CURVE('',#850,#841,#854,.T.);
#856=ORIENTED_EDGE('',*,*,#855,.F.);
#857=CARTESIAN_POINT('',(158.15,68.5,0.017693924));
#858=DIRECTION('',(-0.,-0.,-1.));
#859=DIRECTION('',(0.,-1.,0.));
#860=AXIS2_PLACEMENT_3D('',#857,#858,#859);
#861=CIRCLE('',#860,4.591433598);
#862=EDGE_CURVE('',#850,#493,#861,.T.);
#863=ORIENTED_EDGE('',*,*,#862,.T.);
#864=ORIENTED_EDGE('',*,*,#498,.F.);
#865=CARTESIAN_POINT('',(161.214495121,108.227824183,0.017693924));
#866=VERTEX_POINT('',#865);
#867=CARTESIAN_POINT('',(158.15,104.808740659,0.017693924));
#868=DIRECTION('',(-0.,-0.,-1.));
#869=DIRECTION('',(0.,-1.,0.));
#870=AXIS2_PLACEMENT_3D('',#867,#868,#869);
#871=CIRCLE('',#870,4.591433598);
#872=EDGE_CURVE('',#483,#866,#871,.T.);
#873=ORIENTED_EDGE('',*,*,#872,.T.);
#874=CARTESIAN_POINT('',(173.391789322,96.050529981,0.017693924));
#875=VERTEX_POINT('',#874);
#876=CARTESIAN_POINT('',(173.391789322,96.050529981,0.017693924));
#877=DIRECTION('',(-0.707106781,0.707106781,-0.));
#878=VECTOR('',#877,17.221294613);
#879=LINE('',#876,#878);
#880=EDGE_CURVE('',#875,#866,#879,.T.);
#881=ORIENTED_EDGE('',*,*,#880,.F.);
#882=CARTESIAN_POINT('',(178.843592168,98.308740659,0.017693924));
#883=VERTEX_POINT('',#882);
#884=CARTESIAN_POINT('',(175.65,98.308740659,0.017693924));
#885=DIRECTION('',(-0.,-0.,-1.));
#886=DIRECTION('',(0.,-1.,0.));
#887=AXIS2_PLACEMENT_3D('',#884,#885,#886);
#888=CIRCLE('',#887,3.193592168);
#889=EDGE_CURVE('',#883,#875,#888,.T.);
#890=ORIENTED_EDGE('',*,*,#889,.F.);
#891=CARTESIAN_POINT('',(177.908210678,100.566951338,0.017693924));
#892=VERTEX_POINT('',#891);
#893=CARTESIAN_POINT('',(175.65,98.308740659,0.017693924));
#894=DIRECTION('',(-0.,-0.,-1.));
#895=DIRECTION('',(0.,-1.,0.));
#896=AXIS2_PLACEMENT_3D('',#893,#894,#895);
#897=CIRCLE('',#896,3.193592168);
#898=EDGE_CURVE('',#892,#883,#897,.T.);
#899=ORIENTED_EDGE('',*,*,#898,.F.);
#900=CARTESIAN_POINT('',(165.590328737,112.884833279,0.017693924));
#901=VERTEX_POINT('',#900);
#902=CARTESIAN_POINT('',(177.908210678,100.566951338,0.017693924));
#903=DIRECTION('',(-0.707106781,0.707106781,-0.));
#904=VECTOR('',#903,17.420115701);
#905=LINE('',#902,#904);
#906=EDGE_CURVE('',#892,#901,#905,.T.);
#907=ORIENTED_EDGE('',*,*,#906,.T.);
#908=CARTESIAN_POINT('',(165.590328737,118.73264804,0.017693924));
#909=VERTEX_POINT('',#908);
#910=CARTESIAN_POINT('',(169.15,115.808740659,0.017693924));
#911=DIRECTION('',(-0.,-0.,-1.));
#912=DIRECTION('',(0.,-1.,0.));
#913=AXIS2_PLACEMENT_3D('',#910,#911,#912);
#914=CIRCLE('',#913,4.606570728);
#915=EDGE_CURVE('',#901,#909,#914,.T.);
#916=ORIENTED_EDGE('',*,*,#915,.T.);
#917=CARTESIAN_POINT('',(177.908210678,131.050529981,0.017693924));
#918=VERTEX_POINT('',#917);
#919=CARTESIAN_POINT('',(177.908210678,131.050529981,0.017693924));
#920=DIRECTION('',(-0.707106781,-0.707106781,0.));
#921=VECTOR('',#920,17.420115701);
#922=LINE('',#919,#921);
#923=EDGE_CURVE('',#918,#909,#922,.T.);
#924=ORIENTED_EDGE('',*,*,#923,.F.);
#925=CARTESIAN_POINT('',(178.843592168,133.308740659,0.017693924));
#926=VERTEX_POINT('',#925);
#927=CARTESIAN_POINT('',(175.65,133.308740659,0.017693924));
#928=DIRECTION('',(-0.,-0.,-1.));
#929=DIRECTION('',(0.,-1.,0.));
#930=AXIS2_PLACEMENT_3D('',#927,#928,#929);
#931=CIRCLE('',#930,3.193592168);
#932=EDGE_CURVE('',#926,#918,#931,.T.);
#933=ORIENTED_EDGE('',*,*,#932,.F.);
#934=CARTESIAN_POINT('',(175.65,133.308740659,0.017693924));
#935=DIRECTION('',(-0.,-0.,-1.));
#936=DIRECTION('',(0.,-1.,0.));
#937=AXIS2_PLACEMENT_3D('',#934,#935,#936);
#938=CIRCLE('',#937,3.193592168);
#939=EDGE_CURVE('',#745,#926,#938,.T.);
#940=ORIENTED_EDGE('',*,*,#939,.F.);
#941=EDGE_LOOP('',(#753,#760,#761,#762,#763,#769,#770,#779,#787,#796,#805,#813,#822,#830,#839,#848,#856,#863,#864,#873,#881,#890,#899,#907,#916,#924,
#933,#940));
#942=FACE_BOUND('',#941,.T.);
#943=ADVANCED_FACE('',(#942),#743,.F.);
#944=CARTESIAN_POINT('',(158.125511812,86.65437033,5.017693924));
#945=DIRECTION('',(0.,0.,1.));
#946=DIRECTION('',(1.,0.,0.));
#947=AXIS2_PLACEMENT_3D('',#944,#945,#946);
#948=PLANE('',#947);
#949=ORIENTED_EDGE('',*,*,#571,.F.);
#950=CARTESIAN_POINT('',(301.625511812,160.15437033,5.017693924));
#951=VERTEX_POINT('',#950);
#952=CARTESIAN_POINT('',(301.625511812,117.75437033,5.017693924));
#953=DIRECTION('',(0.,1.,-0.));
#954=VECTOR('',#953,42.4);
#955=LINE('',#952,#954);
#956=EDGE_CURVE('',#557,#951,#955,.T.);
#957=ORIENTED_EDGE('',*,*,#956,.T.);
#958=CARTESIAN_POINT('',(301.625511812,160.15437033,5.017693924));
#959=DIRECTION('',(-1.,-0.,0.));
#960=VECTOR('',#959,143.5);
#961=LINE('',#958,#960);
#962=EDGE_CURVE('',#951,#415,#961,.T.);
#963=ORIENTED_EDGE('',*,*,#962,.T.);
#964=ORIENTED_EDGE('',*,*,#420,.T.);
#965=CARTESIAN_POINT('',(161.259018594,123.434180609,5.017693924));
#966=VERTEX_POINT('',#965);
#967=CARTESIAN_POINT('',(158.15,126.808740659,5.017693924));
#968=DIRECTION('',(-0.,-0.,-1.));
#969=DIRECTION('',(0.,-1.,0.));
#970=AXIS2_PLACEMENT_3D('',#967,#968,#969);
#971=CIRCLE('',#970,4.58842589);
#972=EDGE_CURVE('',#966,#405,#971,.T.);
#973=ORIENTED_EDGE('',*,*,#972,.F.);
#974=CARTESIAN_POINT('',(173.391789322,135.566951338,5.017693924));
#975=VERTEX_POINT('',#974);
#976=CARTESIAN_POINT('',(173.391789322,135.566951338,5.017693924));
#977=DIRECTION('',(-0.707106781,-0.707106781,0.));
#978=VECTOR('',#977,17.158328913);
#979=LINE('',#976,#978);
#980=EDGE_CURVE('',#975,#966,#979,.T.);
#981=ORIENTED_EDGE('',*,*,#980,.F.);
#982=CARTESIAN_POINT('',(178.843592168,133.308740659,5.017693924));
#983=VERTEX_POINT('',#982);
#984=CARTESIAN_POINT('',(175.65,133.308740659,5.017693924));
#985=DIRECTION('',(-0.,-0.,-1.));
#986=DIRECTION('',(0.,-1.,0.));
#987=AXIS2_PLACEMENT_3D('',#984,#985,#986);
#988=CIRCLE('',#987,3.193592168);
#989=EDGE_CURVE('',#975,#983,#988,.T.);
#990=ORIENTED_EDGE('',*,*,#989,.T.);
#991=CARTESIAN_POINT('',(177.908210678,131.050529981,5.017693924));
#992=VERTEX_POINT('',#991);
#993=CARTESIAN_POINT('',(175.65,133.308740659,5.017693924));
#994=DIRECTION('',(-0.,-0.,-1.));
#995=DIRECTION('',(0.,-1.,0.));
#996=AXIS2_PLACEMENT_3D('',#993,#994,#995);
#997=CIRCLE('',#996,3.193592168);
#998=EDGE_CURVE('',#983,#992,#997,.T.);
#999=ORIENTED_EDGE('',*,*,#998,.T.);
#1000=CARTESIAN_POINT('',(165.590328737,118.73264804,5.017693924));
#1001=VERTEX_POINT('',#1000);
#1002=CARTESIAN_POINT('',(177.908210678,131.050529981,5.017693924));
#1003=DIRECTION('',(-0.707106781,-0.707106781,0.));
#1004=VECTOR('',#1003,17.420115701);
#1005=LINE('',#1002,#1004);
#1006=EDGE_CURVE('',#992,#1001,#1005,.T.);
#1007=ORIENTED_EDGE('',*,*,#1006,.T.);
#1008=CARTESIAN_POINT('',(165.590328737,112.884833279,5.017693924));
#1009=VERTEX_POINT('',#1008);
#1010=CARTESIAN_POINT('',(169.15,115.808740659,5.017693924));
#1011=DIRECTION('',(-0.,-0.,-1.));
#1012=DIRECTION('',(0.,-1.,0.));
#1013=AXIS2_PLACEMENT_3D('',#1010,#1011,#1012);
#1014=CIRCLE('',#1013,4.606570728);
#1015=EDGE_CURVE('',#1009,#1001,#1014,.T.);
#1016=ORIENTED_EDGE('',*,*,#1015,.F.);
#1017=CARTESIAN_POINT('',(177.908210678,100.566951338,5.017693924));
#1018=VERTEX_POINT('',#1017);
#1019=CARTESIAN_POINT('',(177.908210678,100.566951338,5.017693924));
#1020=DIRECTION('',(-0.707106781,0.707106781,-0.));
#1021=VECTOR('',#1020,17.420115701);
#1022=LINE('',#1019,#1021);
#1023=EDGE_CURVE('',#1018,#1009,#1022,.T.);
#1024=ORIENTED_EDGE('',*,*,#1023,.F.);
#1025=CARTESIAN_POINT('',(178.843592168,98.308740659,5.017693924));
#1026=VERTEX_POINT('',#1025);
#1027=CARTESIAN_POINT('',(175.65,98.308740659,5.017693924));
#1028=DIRECTION('',(-0.,-0.,-1.));
#1029=DIRECTION('',(0.,-1.,0.));
#1030=AXIS2_PLACEMENT_3D('',#1027,#1028,#1029);
#1031=CIRCLE('',#1030,3.193592168);
#1032=EDGE_CURVE('',#1018,#1026,#1031,.T.);
#1033=ORIENTED_EDGE('',*,*,#1032,.T.);
#1034=CARTESIAN_POINT('',(173.391789322,96.050529981,5.017693924));
#1035=VERTEX_POINT('',#1034);
#1036=CARTESIAN_POINT('',(175.65,98.308740659,5.017693924));
#1037=DIRECTION('',(-0.,-0.,-1.));
#1038=DIRECTION('',(0.,-1.,0.));
#1039=AXIS2_PLACEMENT_3D('',#1036,#1037,#1038);
#1040=CIRCLE('',#1039,3.193592168);
#1041=EDGE_CURVE('',#1026,#1035,#1040,.T.);
#1042=ORIENTED_EDGE('',*,*,#1041,.T.);
#1043=CARTESIAN_POINT('',(161.214495121,108.227824183,5.017693924));
#1044=VERTEX_POINT('',#1043);
#1045=CARTESIAN_POINT('',(173.391789322,96.050529981,5.017693924));
#1046=DIRECTION('',(-0.707106781,0.707106781,-0.));
#1047=VECTOR('',#1046,17.221294613);
#1048=LINE('',#1045,#1047);
#1049=EDGE_CURVE('',#1035,#1044,#1048,.T.);
#1050=ORIENTED_EDGE('',*,*,#1049,.T.);
#1051=CARTESIAN_POINT('',(158.15,104.808740659,5.017693924));
#1052=DIRECTION('',(-0.,-0.,-1.));
#1053=DIRECTION('',(0.,-1.,0.));
#1054=AXIS2_PLACEMENT_3D('',#1051,#1052,#1053);
#1055=CIRCLE('',#1054,4.591433598);
#1056=EDGE_CURVE('',#485,#1044,#1055,.T.);
#1057=ORIENTED_EDGE('',*,*,#1056,.F.);
#1058=ORIENTED_EDGE('',*,*,#512,.T.);
#1059=CARTESIAN_POINT('',(161.214495121,65.080916477,5.017693924));
#1060=VERTEX_POINT('',#1059);
#1061=CARTESIAN_POINT('',(158.15,68.5,5.017693924));
#1062=DIRECTION('',(-0.,-0.,-1.));
#1063=DIRECTION('',(0.,-1.,0.));
#1064=AXIS2_PLACEMENT_3D('',#1061,#1062,#1063);
#1065=CIRCLE('',#1064,4.591433598);
#1066=EDGE_CURVE('',#1060,#501,#1065,.T.);
#1067=ORIENTED_EDGE('',*,*,#1066,.F.);
#1068=CARTESIAN_POINT('',(173.391789322,77.258210678,5.017693924));
#1069=VERTEX_POINT('',#1068);
#1070=CARTESIAN_POINT('',(161.214495121,65.080916477,5.017693924));
#1071=DIRECTION('',(0.707106781,0.707106781,-0.));
#1072=VECTOR('',#1071,17.221294613);
#1073=LINE('',#1070,#1072);
#1074=EDGE_CURVE('',#1060,#1069,#1073,.T.);
#1075=ORIENTED_EDGE('',*,*,#1074,.T.);
#1076=CARTESIAN_POINT('',(178.843592168,75.,5.017693924));
#1077=VERTEX_POINT('',#1076);
#1078=CARTESIAN_POINT('',(175.65,75.,5.017693924));
#1079=DIRECTION('',(-0.,-0.,-1.));
#1080=DIRECTION('',(0.,-1.,0.));
#1081=AXIS2_PLACEMENT_3D('',#1078,#1079,#1080);
#1082=CIRCLE('',#1081,3.193592168);
#1083=EDGE_CURVE('',#1069,#1077,#1082,.T.);
#1084=ORIENTED_EDGE('',*,*,#1083,.T.);
#1085=CARTESIAN_POINT('',(177.908210678,72.741789322,5.017693924));
#1086=VERTEX_POINT('',#1085);
#1087=CARTESIAN_POINT('',(175.65,75.,5.017693924));
#1088=DIRECTION('',(-0.,-0.,-1.));
#1089=DIRECTION('',(0.,-1.,0.));
#1090=AXIS2_PLACEMENT_3D('',#1087,#1088,#1089);
#1091=CIRCLE('',#1090,3.193592168);
#1092=EDGE_CURVE('',#1077,#1086,#1091,.T.);
#1093=ORIENTED_EDGE('',*,*,#1092,.T.);
#1094=CARTESIAN_POINT('',(165.590328737,60.423907381,5.017693924));
#1095=VERTEX_POINT('',#1094);
#1096=CARTESIAN_POINT('',(165.590328737,60.423907381,5.017693924));
#1097=DIRECTION('',(0.707106781,0.707106781,-0.));
#1098=VECTOR('',#1097,17.420115701);
#1099=LINE('',#1096,#1098);
#1100=EDGE_CURVE('',#1095,#1086,#1099,.T.);
#1101=ORIENTED_EDGE('',*,*,#1100,.F.);
#1102=CARTESIAN_POINT('',(165.590328737,54.576092619,5.017693924));
#1103=VERTEX_POINT('',#1102);
#1104=CARTESIAN_POINT('',(169.15,57.5,5.017693924));
#1105=DIRECTION('',(-0.,-0.,-1.));
#1106=DIRECTION('',(0.,-1.,0.));
#1107=AXIS2_PLACEMENT_3D('',#1104,#1105,#1106);
#1108=CIRCLE('',#1107,4.606570728);
#1109=EDGE_CURVE('',#1103,#1095,#1108,.T.);
#1110=ORIENTED_EDGE('',*,*,#1109,.F.);
#1111=CARTESIAN_POINT('',(177.908210678,42.258210678,5.017693924));
#1112=VERTEX_POINT('',#1111);
#1113=CARTESIAN_POINT('',(165.590328737,54.576092619,5.017693924));
#1114=DIRECTION('',(0.707106781,-0.707106781,0.));
#1115=VECTOR('',#1114,17.420115701);
#1116=LINE('',#1113,#1115);
#1117=EDGE_CURVE('',#1103,#1112,#1116,.T.);
#1118=ORIENTED_EDGE('',*,*,#1117,.T.);
#1119=CARTESIAN_POINT('',(178.843592168,40.,5.017693924));
#1120=VERTEX_POINT('',#1119);
#1121=CARTESIAN_POINT('',(175.65,40.,5.017693924));
#1122=DIRECTION('',(-0.,-0.,-1.));
#1123=DIRECTION('',(0.,-1.,0.));
#1124=AXIS2_PLACEMENT_3D('',#1121,#1122,#1123);
#1125=CIRCLE('',#1124,3.193592168);
#1126=EDGE_CURVE('',#1112,#1120,#1125,.T.);
#1127=ORIENTED_EDGE('',*,*,#1126,.T.);
#1128=CARTESIAN_POINT('',(173.391789322,37.741789322,5.017693924));
#1129=VERTEX_POINT('',#1128);
#1130=CARTESIAN_POINT('',(175.65,40.,5.017693924));
#1131=DIRECTION('',(-0.,-0.,-1.));
#1132=DIRECTION('',(0.,-1.,0.));
#1133=AXIS2_PLACEMENT_3D('',#1130,#1131,#1132);
#1134=CIRCLE('',#1133,3.193592168);
#1135=EDGE_CURVE('',#1120,#1129,#1134,.T.);
#1136=ORIENTED_EDGE('',*,*,#1135,.T.);
#1137=CARTESIAN_POINT('',(161.259018594,49.87456005,5.017693924));
#1138=VERTEX_POINT('',#1137);
#1139=CARTESIAN_POINT('',(161.259018594,49.87456005,5.017693924));
#1140=DIRECTION('',(0.707106781,-0.707106781,0.));
#1141=VECTOR('',#1140,17.158328913);
#1142=LINE('',#1139,#1141);
#1143=EDGE_CURVE('',#1138,#1129,#1142,.T.);
#1144=ORIENTED_EDGE('',*,*,#1143,.F.);
#1145=CARTESIAN_POINT('',(158.15,46.5,5.017693924));
#1146=DIRECTION('',(-0.,-0.,-1.));
#1147=DIRECTION('',(0.,-1.,0.));
#1148=AXIS2_PLACEMENT_3D('',#1145,#1146,#1147);
#1149=CIRCLE('',#1148,4.58842589);
#1150=EDGE_CURVE('',#446,#1138,#1149,.T.);
#1151=ORIENTED_EDGE('',*,*,#1150,.F.);
#1152=ORIENTED_EDGE('',*,*,#472,.T.);
#1153=ORIENTED_EDGE('',*,*,#357,.T.);
#1154=CARTESIAN_POINT('',(301.625511812,13.15437033,5.017693924));
#1155=DIRECTION('',(0.,1.,-0.));
#1156=VECTOR('',#1155,61.427195955);
#1157=LINE('',#1154,#1156);
#1158=EDGE_CURVE('',#344,#720,#1157,.T.);
#1159=ORIENTED_EDGE('',*,*,#1158,.T.);
#1160=ORIENTED_EDGE('',*,*,#725,.F.);
#1161=ORIENTED_EDGE('',*,*,#702,.T.);
#1162=ORIENTED_EDGE('',*,*,#675,.F.);
#1163=ORIENTED_EDGE('',*,*,#604,.T.);
#1164=ORIENTED_EDGE('',*,*,#595,.T.);
#1165=EDGE_LOOP('',(#949,#957,#963,#964,#973,#981,#990,#999,#1007,#1016,#1024,#1033,#1042,#1050,#1057,#1058,#1067,#1075,#1084,#1093,#1101,#1110,#1118,#1127,#1136,#1144,
#1151,#1152,#1153,#1159,#1160,#1161,#1162,#1163,#1164));
#1166=FACE_BOUND('',#1165,.T.);
#1167=ADVANCED_FACE('',(#1166),#948,.T.);
#1168=CARTESIAN_POINT('',(8.125511812,11.65437033,0.017693924));
#1169=DIRECTION('',(0.,-1.,0.));
#1170=DIRECTION('',(1.,0.,0.));
#1171=AXIS2_PLACEMENT_3D('',#1168,#1169,#1170);
#1172=PLANE('',#1171);
#1173=ORIENTED_EDGE('',*,*,#768,.T.);
#1174=ORIENTED_EDGE('',*,*,#263,.T.);
#1175=ORIENTED_EDGE('',*,*,#341,.F.);
#1176=ORIENTED_EDGE('',*,*,#465,.T.);
#1177=EDGE_LOOP('',(#1173,#1174,#1175,#1176));
#1178=FACE_BOUND('',#1177,.T.);
#1179=ADVANCED_FACE('',(#1178),#1172,.T.);
#1180=CARTESIAN_POINT('',(158.125511812,160.90437033,4.267693924));
#1181=DIRECTION('',(0.,0.707106781,0.707106781));
#1182=DIRECTION('',(0.,0.707106781,-0.707106781));
#1183=AXIS2_PLACEMENT_3D('',#1180,#1181,#1182);
#1184=PLANE('',#1183);
#1185=ORIENTED_EDGE('',*,*,#962,.F.);
#1186=CARTESIAN_POINT('',(301.625511812,160.15437033,5.017693924));
#1187=DIRECTION('',(0.577350269,0.577350269,-0.577350269));
#1188=VECTOR('',#1187,2.598076211);
#1189=LINE('',#1186,#1188);
#1190=EDGE_CURVE('',#951,#274,#1189,.T.);
#1191=ORIENTED_EDGE('',*,*,#1190,.T.);
#1192=ORIENTED_EDGE('',*,*,#379,.T.);
#1193=ORIENTED_EDGE('',*,*,#426,.F.);
#1194=EDGE_LOOP('',(#1185,#1191,#1192,#1193));
#1195=FACE_BOUND('',#1194,.T.);
#1196=ADVANCED_FACE('',(#1195),#1184,.T.);
#1197=CARTESIAN_POINT('',(158.15,46.5,13.));
#1198=DIRECTION('',(0.,0.,1.));
#1199=DIRECTION('',(1.,0.,-0.));
#1200=AXIS2_PLACEMENT_3D('',#1197,#1198,#1199);
#1201=CYLINDRICAL_SURFACE('',#1200,4.58842589);
#1202=ORIENTED_EDGE('',*,*,#451,.T.);
#1203=ORIENTED_EDGE('',*,*,#1150,.T.);
#1204=CARTESIAN_POINT('',(161.259018594,49.87456005,0.017693924));
#1205=DIRECTION('',(0.,0.,1.));
#1206=VECTOR('',#1205,5.);
#1207=LINE('',#1204,#1206);
#1208=EDGE_CURVE('',#772,#1138,#1207,.T.);
#1209=ORIENTED_EDGE('',*,*,#1208,.F.);
#1210=ORIENTED_EDGE('',*,*,#778,.F.);
#1211=EDGE_LOOP('',(#1202,#1203,#1209,#1210));
#1212=FACE_BOUND('',#1211,.T.);
#1213=ADVANCED_FACE('',(#1212),#1201,.T.);
#1214=CARTESIAN_POINT('',(158.15,68.5,13.));
#1215=DIRECTION('',(0.,0.,1.));
#1216=DIRECTION('',(1.,0.,-0.));
#1217=AXIS2_PLACEMENT_3D('',#1214,#1215,#1216);
#1218=CYLINDRICAL_SURFACE('',#1217,4.591433598);
#1219=CARTESIAN_POINT('',(161.214495121,65.080916477,0.017693924));
#1220=DIRECTION('',(0.,0.,1.));
#1221=VECTOR('',#1220,5.);
#1222=LINE('',#1219,#1221);
#1223=EDGE_CURVE('',#850,#1060,#1222,.T.);
#1224=ORIENTED_EDGE('',*,*,#1223,.T.);
#1225=ORIENTED_EDGE('',*,*,#1066,.T.);
#1226=ORIENTED_EDGE('',*,*,#506,.T.);
#1227=ORIENTED_EDGE('',*,*,#862,.F.);
#1228=EDGE_LOOP('',(#1224,#1225,#1226,#1227));
#1229=FACE_BOUND('',#1228,.T.);
#1230=ADVANCED_FACE('',(#1229),#1218,.T.);
#1231=CARTESIAN_POINT('',(167.302181354,71.168602711,13.));
#1232=DIRECTION('',(0.707106781,-0.707106781,0.));
#1233=DIRECTION('',(0.707106781,0.707106781,0.));
#1234=AXIS2_PLACEMENT_3D('',#1231,#1232,#1233);
#1235=PLANE('',#1234);
#1236=ORIENTED_EDGE('',*,*,#855,.T.);
#1237=CARTESIAN_POINT('',(173.391789322,77.258210678,0.017693924));
#1238=DIRECTION('',(0.,0.,1.));
#1239=VECTOR('',#1238,5.);
#1240=LINE('',#1237,#1239);
#1241=EDGE_CURVE('',#841,#1069,#1240,.T.);
#1242=ORIENTED_EDGE('',*,*,#1241,.T.);
#1243=ORIENTED_EDGE('',*,*,#1074,.F.);
#1244=ORIENTED_EDGE('',*,*,#1223,.F.);
#1245=EDGE_LOOP('',(#1236,#1242,#1243,#1244));
#1246=FACE_BOUND('',#1245,.T.);
#1247=ADVANCED_FACE('',(#1246),#1235,.T.);
#1248=CARTESIAN_POINT('',(175.65,75.,13.));
#1249=DIRECTION('',(0.,0.,1.));
#1250=DIRECTION('',(1.,0.,-0.));
#1251=AXIS2_PLACEMENT_3D('',#1248,#1249,#1250);
#1252=CYLINDRICAL_SURFACE('',#1251,3.193592168);
#1253=CARTESIAN_POINT('',(178.843592168,75.,5.017693924));
#1254=DIRECTION('',(-0.,-0.,-1.));
#1255=VECTOR('',#1254,5.);
#1256=LINE('',#1253,#1255);
#1257=EDGE_CURVE('',#1077,#832,#1256,.T.);
#1258=ORIENTED_EDGE('',*,*,#1257,.F.);
#1259=ORIENTED_EDGE('',*,*,#1083,.F.);
#1260=ORIENTED_EDGE('',*,*,#1241,.F.);
#1261=ORIENTED_EDGE('',*,*,#847,.T.);
#1262=EDGE_LOOP('',(#1258,#1259,#1260,#1261));
#1263=FACE_BOUND('',#1262,.T.);
#1264=ADVANCED_FACE('',(#1263),#1252,.F.);
#1265=CARTESIAN_POINT('',(171.747549732,66.581128376,13.));
#1266=DIRECTION('',(0.707106781,-0.707106781,0.));
#1267=DIRECTION('',(0.707106781,0.707106781,0.));
#1268=AXIS2_PLACEMENT_3D('',#1265,#1266,#1267);
#1269=PLANE('',#1268);
#1270=CARTESIAN_POINT('',(165.590328737,60.423907381,0.017693924));
#1271=DIRECTION('',(0.,0.,1.));
#1272=VECTOR('',#1271,5.);
#1273=LINE('',#1270,#1272);
#1274=EDGE_CURVE('',#815,#1095,#1273,.T.);
#1275=ORIENTED_EDGE('',*,*,#1274,.T.);
#1276=ORIENTED_EDGE('',*,*,#1100,.T.);
#1277=CARTESIAN_POINT('',(177.908210678,72.741789322,0.017693924));
#1278=DIRECTION('',(0.,0.,1.));
#1279=VECTOR('',#1278,5.);
#1280=LINE('',#1277,#1279);
#1281=EDGE_CURVE('',#824,#1086,#1280,.T.);
#1282=ORIENTED_EDGE('',*,*,#1281,.F.);
#1283=ORIENTED_EDGE('',*,*,#829,.F.);
#1284=EDGE_LOOP('',(#1275,#1276,#1282,#1283));
#1285=FACE_BOUND('',#1284,.T.);
#1286=ADVANCED_FACE('',(#1285),#1269,.F.);
#1287=CARTESIAN_POINT('',(169.15,57.5,13.));
#1288=DIRECTION('',(0.,0.,1.));
#1289=DIRECTION('',(1.,0.,-0.));
#1290=AXIS2_PLACEMENT_3D('',#1287,#1288,#1289);
#1291=CYLINDRICAL_SURFACE('',#1290,4.606570728);
#1292=CARTESIAN_POINT('',(165.590328737,54.576092619,0.017693924));
#1293=DIRECTION('',(0.,0.,1.));
#1294=VECTOR('',#1293,5.);
#1295=LINE('',#1292,#1294);
#1296=EDGE_CURVE('',#807,#1103,#1295,.T.);
#1297=ORIENTED_EDGE('',*,*,#1296,.T.);
#1298=ORIENTED_EDGE('',*,*,#1109,.T.);
#1299=ORIENTED_EDGE('',*,*,#1274,.F.);
#1300=ORIENTED_EDGE('',*,*,#821,.F.);
#1301=EDGE_LOOP('',(#1297,#1298,#1299,#1300));
#1302=FACE_BOUND('',#1301,.T.);
#1303=ADVANCED_FACE('',(#1302),#1291,.T.);
#1304=CARTESIAN_POINT('',(171.747549732,48.418871624,13.));
#1305=DIRECTION('',(-0.707106781,-0.707106781,0.));
#1306=DIRECTION('',(0.707106781,-0.707106781,0.));
#1307=AXIS2_PLACEMENT_3D('',#1304,#1305,#1306);
#1308=PLANE('',#1307);
#1309=ORIENTED_EDGE('',*,*,#812,.T.);
#1310=CARTESIAN_POINT('',(177.908210678,42.258210678,0.017693924));
#1311=DIRECTION('',(0.,0.,1.));
#1312=VECTOR('',#1311,5.);
#1313=LINE('',#1310,#1312);
#1314=EDGE_CURVE('',#798,#1112,#1313,.T.);
#1315=ORIENTED_EDGE('',*,*,#1314,.T.);
#1316=ORIENTED_EDGE('',*,*,#1117,.F.);
#1317=ORIENTED_EDGE('',*,*,#1296,.F.);
#1318=EDGE_LOOP('',(#1309,#1315,#1316,#1317));
#1319=FACE_BOUND('',#1318,.T.);
#1320=ADVANCED_FACE('',(#1319),#1308,.T.);
#1321=CARTESIAN_POINT('',(175.65,40.,13.));
#1322=DIRECTION('',(0.,0.,1.));
#1323=DIRECTION('',(1.,0.,-0.));
#1324=AXIS2_PLACEMENT_3D('',#1321,#1322,#1323);
#1325=CYLINDRICAL_SURFACE('',#1324,3.193592168);
#1326=CARTESIAN_POINT('',(178.843592168,40.,5.017693924));
#1327=DIRECTION('',(-0.,-0.,-1.));
#1328=VECTOR('',#1327,5.);
#1329=LINE('',#1326,#1328);
#1330=EDGE_CURVE('',#1120,#789,#1329,.T.);
#1331=ORIENTED_EDGE('',*,*,#1330,.F.);
#1332=ORIENTED_EDGE('',*,*,#1126,.F.);
#1333=ORIENTED_EDGE('',*,*,#1314,.F.);
#1334=ORIENTED_EDGE('',*,*,#804,.T.);
#1335=EDGE_LOOP('',(#1331,#1332,#1333,#1334));
#1336=FACE_BOUND('',#1335,.T.);
#1337=ADVANCED_FACE('',(#1336),#1325,.F.);
#1338=CARTESIAN_POINT('',(167.324684157,43.808894487,13.));
#1339=DIRECTION('',(-0.707106781,-0.707106781,0.));
#1340=DIRECTION('',(0.707106781,-0.707106781,0.));
#1341=AXIS2_PLACEMENT_3D('',#1338,#1339,#1340);
#1342=PLANE('',#1341);
#1343=ORIENTED_EDGE('',*,*,#1208,.T.);
#1344=ORIENTED_EDGE('',*,*,#1143,.T.);
#1345=CARTESIAN_POINT('',(173.391789322,37.741789322,0.017693924));
#1346=DIRECTION('',(0.,0.,1.));
#1347=VECTOR('',#1346,5.);
#1348=LINE('',#1345,#1347);
#1349=EDGE_CURVE('',#781,#1129,#1348,.T.);
#1350=ORIENTED_EDGE('',*,*,#1349,.F.);
#1351=ORIENTED_EDGE('',*,*,#786,.F.);
#1352=EDGE_LOOP('',(#1343,#1344,#1350,#1351));
#1353=FACE_BOUND('',#1352,.T.);
#1354=ADVANCED_FACE('',(#1353),#1342,.F.);
#1355=CARTESIAN_POINT('',(158.15,126.808740659,16.035387849));
#1356=DIRECTION('',(-0.,0.,-1.));
#1357=DIRECTION('',(1.,0.,0.));
#1358=AXIS2_PLACEMENT_3D('',#1355,#1356,#1357);
#1359=CYLINDRICAL_SURFACE('',#1358,4.58842589);
#1360=CARTESIAN_POINT('',(161.259018594,123.434180609,5.017693924));
#1361=DIRECTION('',(-0.,0.,-1.));
#1362=VECTOR('',#1361,5.);
#1363=LINE('',#1360,#1362);
#1364=EDGE_CURVE('',#966,#747,#1363,.T.);
#1365=ORIENTED_EDGE('',*,*,#1364,.F.);
#1366=ORIENTED_EDGE('',*,*,#972,.T.);
#1367=ORIENTED_EDGE('',*,*,#412,.T.);
#1368=ORIENTED_EDGE('',*,*,#759,.F.);
#1369=EDGE_LOOP('',(#1365,#1366,#1367,#1368));
#1370=FACE_BOUND('',#1369,.T.);
#1371=ADVANCED_FACE('',(#1370),#1359,.T.);
#1372=CARTESIAN_POINT('',(158.15,104.808740659,16.035387849));
#1373=DIRECTION('',(-0.,0.,-1.));
#1374=DIRECTION('',(1.,0.,0.));
#1375=AXIS2_PLACEMENT_3D('',#1372,#1373,#1374);
#1376=CYLINDRICAL_SURFACE('',#1375,4.591433598);
#1377=ORIENTED_EDGE('',*,*,#490,.T.);
#1378=ORIENTED_EDGE('',*,*,#1056,.T.);
#1379=CARTESIAN_POINT('',(161.214495121,108.227824183,5.017693924));
#1380=DIRECTION('',(-0.,0.,-1.));
#1381=VECTOR('',#1380,5.);
#1382=LINE('',#1379,#1381);
#1383=EDGE_CURVE('',#1044,#866,#1382,.T.);
#1384=ORIENTED_EDGE('',*,*,#1383,.T.);
#1385=ORIENTED_EDGE('',*,*,#872,.F.);
#1386=EDGE_LOOP('',(#1377,#1378,#1384,#1385));
#1387=FACE_BOUND('',#1386,.T.);
#1388=ADVANCED_FACE('',(#1387),#1376,.T.);
#1389=CARTESIAN_POINT('',(167.302181354,102.140137949,16.035387849));
#1390=DIRECTION('',(0.707106781,0.707106781,0.));
#1391=DIRECTION('',(0.707106781,-0.707106781,-0.));
#1392=AXIS2_PLACEMENT_3D('',#1389,#1390,#1391);
#1393=PLANE('',#1392);
#1394=ORIENTED_EDGE('',*,*,#880,.T.);
#1395=ORIENTED_EDGE('',*,*,#1383,.F.);
#1396=ORIENTED_EDGE('',*,*,#1049,.F.);
#1397=CARTESIAN_POINT('',(173.391789322,96.050529981,5.017693924));
#1398=DIRECTION('',(-0.,0.,-1.));
#1399=VECTOR('',#1398,5.);
#1400=LINE('',#1397,#1399);
#1401=EDGE_CURVE('',#1035,#875,#1400,.T.);
#1402=ORIENTED_EDGE('',*,*,#1401,.T.);
#1403=EDGE_LOOP('',(#1394,#1395,#1396,#1402));
#1404=FACE_BOUND('',#1403,.T.);
#1405=ADVANCED_FACE('',(#1404),#1393,.T.);
#1406=CARTESIAN_POINT('',(175.65,98.308740659,16.035387849));
#1407=DIRECTION('',(-0.,0.,-1.));
#1408=DIRECTION('',(1.,0.,0.));
#1409=AXIS2_PLACEMENT_3D('',#1406,#1407,#1408);
#1410=CYLINDRICAL_SURFACE('',#1409,3.193592168);
#1411=CARTESIAN_POINT('',(178.843592168,98.308740659,0.017693924));
#1412=DIRECTION('',(0.,-0.,1.));
#1413=VECTOR('',#1412,5.);
#1414=LINE('',#1411,#1413);
#1415=EDGE_CURVE('',#883,#1026,#1414,.T.);
#1416=ORIENTED_EDGE('',*,*,#1415,.F.);
#1417=ORIENTED_EDGE('',*,*,#889,.T.);
#1418=ORIENTED_EDGE('',*,*,#1401,.F.);
#1419=ORIENTED_EDGE('',*,*,#1041,.F.);
#1420=EDGE_LOOP('',(#1416,#1417,#1418,#1419));
#1421=FACE_BOUND('',#1420,.T.);
#1422=ADVANCED_FACE('',(#1421),#1410,.F.);
#1423=CARTESIAN_POINT('',(171.747549732,106.727612284,16.035387849));
#1424=DIRECTION('',(0.707106781,0.707106781,0.));
#1425=DIRECTION('',(0.707106781,-0.707106781,-0.));
#1426=AXIS2_PLACEMENT_3D('',#1423,#1424,#1425);
#1427=PLANE('',#1426);
#1428=CARTESIAN_POINT('',(177.908210678,100.566951338,5.017693924));
#1429=DIRECTION('',(-0.,0.,-1.));
#1430=VECTOR('',#1429,5.);
#1431=LINE('',#1428,#1430);
#1432=EDGE_CURVE('',#1018,#892,#1431,.T.);
#1433=ORIENTED_EDGE('',*,*,#1432,.F.);
#1434=ORIENTED_EDGE('',*,*,#1023,.T.);
#1435=CARTESIAN_POINT('',(165.590328737,112.884833279,5.017693924));
#1436=DIRECTION('',(-0.,0.,-1.));
#1437=VECTOR('',#1436,5.);
#1438=LINE('',#1435,#1437);
#1439=EDGE_CURVE('',#1009,#901,#1438,.T.);
#1440=ORIENTED_EDGE('',*,*,#1439,.T.);
#1441=ORIENTED_EDGE('',*,*,#906,.F.);
#1442=EDGE_LOOP('',(#1433,#1434,#1440,#1441));
#1443=FACE_BOUND('',#1442,.T.);
#1444=ADVANCED_FACE('',(#1443),#1427,.F.);
#1445=CARTESIAN_POINT('',(169.15,115.808740659,16.035387849));
#1446=DIRECTION('',(-0.,0.,-1.));
#1447=DIRECTION('',(1.,0.,0.));
#1448=AXIS2_PLACEMENT_3D('',#1445,#1446,#1447);
#1449=CYLINDRICAL_SURFACE('',#1448,4.606570728);
#1450=ORIENTED_EDGE('',*,*,#1439,.F.);
#1451=ORIENTED_EDGE('',*,*,#1015,.T.);
#1452=CARTESIAN_POINT('',(165.590328737,118.73264804,5.017693924));
#1453=DIRECTION('',(-0.,0.,-1.));
#1454=VECTOR('',#1453,5.);
#1455=LINE('',#1452,#1454);
#1456=EDGE_CURVE('',#1001,#909,#1455,.T.);
#1457=ORIENTED_EDGE('',*,*,#1456,.T.);
#1458=ORIENTED_EDGE('',*,*,#915,.F.);
#1459=EDGE_LOOP('',(#1450,#1451,#1457,#1458));
#1460=FACE_BOUND('',#1459,.T.);
#1461=ADVANCED_FACE('',(#1460),#1449,.T.);
#1462=CARTESIAN_POINT('',(171.747549732,124.889869035,16.035387849));
#1463=DIRECTION('',(-0.707106781,0.707106781,0.));
#1464=DIRECTION('',(0.707106781,0.707106781,0.));
#1465=AXIS2_PLACEMENT_3D('',#1462,#1463,#1464);
#1466=PLANE('',#1465);
#1467=ORIENTED_EDGE('',*,*,#923,.T.);
#1468=ORIENTED_EDGE('',*,*,#1456,.F.);
#1469=ORIENTED_EDGE('',*,*,#1006,.F.);
#1470=CARTESIAN_POINT('',(177.908210678,131.050529981,5.017693924));
#1471=DIRECTION('',(-0.,0.,-1.));
#1472=VECTOR('',#1471,5.);
#1473=LINE('',#1470,#1472);
#1474=EDGE_CURVE('',#992,#918,#1473,.T.);
#1475=ORIENTED_EDGE('',*,*,#1474,.T.);
#1476=EDGE_LOOP('',(#1467,#1468,#1469,#1475));
#1477=FACE_BOUND('',#1476,.T.);
#1478=ADVANCED_FACE('',(#1477),#1466,.T.);
#1479=CARTESIAN_POINT('',(175.65,133.308740659,16.035387849));
#1480=DIRECTION('',(-0.,0.,-1.));
#1481=DIRECTION('',(1.,0.,0.));
#1482=AXIS2_PLACEMENT_3D('',#1479,#1480,#1481);
#1483=CYLINDRICAL_SURFACE('',#1482,3.193592168);
#1484=CARTESIAN_POINT('',(178.843592168,133.308740659,0.017693924));
#1485=DIRECTION('',(0.,-0.,1.));
#1486=VECTOR('',#1485,5.);
#1487=LINE('',#1484,#1486);
#1488=EDGE_CURVE('',#926,#983,#1487,.T.);
#1489=ORIENTED_EDGE('',*,*,#1488,.F.);
#1490=ORIENTED_EDGE('',*,*,#932,.T.);
#1491=ORIENTED_EDGE('',*,*,#1474,.F.);
#1492=ORIENTED_EDGE('',*,*,#998,.F.);
#1493=EDGE_LOOP('',(#1489,#1490,#1491,#1492));
#1494=FACE_BOUND('',#1493,.T.);
#1495=ADVANCED_FACE('',(#1494),#1483,.F.);
#1496=CARTESIAN_POINT('',(167.324684157,129.499846172,16.035387849));
#1497=DIRECTION('',(-0.707106781,0.707106781,0.));
#1498=DIRECTION('',(0.707106781,0.707106781,0.));
#1499=AXIS2_PLACEMENT_3D('',#1496,#1497,#1498);
#1500=PLANE('',#1499);
#1501=CARTESIAN_POINT('',(173.391789322,135.566951338,5.017693924));
#1502=DIRECTION('',(-0.,0.,-1.));
#1503=VECTOR('',#1502,5.);
#1504=LINE('',#1501,#1503);
#1505=EDGE_CURVE('',#975,#745,#1504,.T.);
#1506=ORIENTED_EDGE('',*,*,#1505,.F.);
#1507=ORIENTED_EDGE('',*,*,#980,.T.);
#1508=ORIENTED_EDGE('',*,*,#1364,.T.);
#1509=ORIENTED_EDGE('',*,*,#752,.F.);
#1510=EDGE_LOOP('',(#1506,#1507,#1508,#1509));
#1511=FACE_BOUND('',#1510,.T.);
#1512=ADVANCED_FACE('',(#1511),#1500,.F.);
#1513=CARTESIAN_POINT('',(158.125511812,101.75437033,35.017693924));
#1514=DIRECTION('',(0.,-0.707106781,-0.707106781));
#1515=DIRECTION('',(-1.,0.,0.));
#1516=AXIS2_PLACEMENT_3D('',#1513,#1514,#1515);
#1517=PLANE('',#1516);
#1518=CARTESIAN_POINT('',(302.375511812,108.00437033,28.767693924));
#1519=VERTEX_POINT('',#1518);
#1520=CARTESIAN_POINT('',(296.125511812,101.75437033,35.017693924));
#1521=DIRECTION('',(0.577350269,0.577350269,-0.577350269));
#1522=VECTOR('',#1521,10.825317547);
#1523=LINE('',#1520,#1522);
#1524=EDGE_CURVE('',#156,#1519,#1523,.T.);
#1525=ORIENTED_EDGE('',*,*,#1524,.T.);
#1526=CARTESIAN_POINT('',(302.375511812,108.00437033,28.767693924));
#1527=DIRECTION('',(-0.577350269,0.577350269,-0.577350269));
#1528=VECTOR('',#1527,1.299038106);
#1529=LINE('',#1526,#1528);
#1530=EDGE_CURVE('',#1519,#35,#1529,.T.);
#1531=ORIENTED_EDGE('',*,*,#1530,.T.);
#1532=ORIENTED_EDGE('',*,*,#40,.F.);
#1533=ORIENTED_EDGE('',*,*,#96,.F.);
#1534=CARTESIAN_POINT('',(287.882707767,101.75437033,35.017693924));
#1535=DIRECTION('',(-0.577350269,0.577350269,-0.577350269));
#1536=VECTOR('',#1535,9.587825972);
#1537=LINE('',#1534,#1536);
#1538=EDGE_CURVE('',#164,#83,#1537,.T.);
#1539=ORIENTED_EDGE('',*,*,#1538,.F.);
#1540=ORIENTED_EDGE('',*,*,#169,.F.);
#1541=EDGE_LOOP('',(#1525,#1531,#1532,#1533,#1539,#1540));
#1542=FACE_BOUND('',#1541,.T.);
#1543=ADVANCED_FACE('',(#1542),#1517,.F.);
#1544=CARTESIAN_POINT('',(287.882707767,86.65437033,35.017693924));
#1545=DIRECTION('',(0.707106781,-0.,-0.707106781));
#1546=DIRECTION('',(0.,-1.,0.));
#1547=AXIS2_PLACEMENT_3D('',#1544,#1545,#1546);
#1548=PLANE('',#1547);
#1549=ORIENTED_EDGE('',*,*,#128,.F.);
#1550=ORIENTED_EDGE('',*,*,#537,.F.);
#1551=CARTESIAN_POINT('',(287.882707767,90.581566284,35.017693924));
#1552=DIRECTION('',(-0.577350269,-0.577350269,-0.577350269));
#1553=VECTOR('',#1552,9.587825972);
#1554=LINE('',#1551,#1553);
#1555=EDGE_CURVE('',#146,#524,#1554,.T.);
#1556=ORIENTED_EDGE('',*,*,#1555,.F.);
#1557=ORIENTED_EDGE('',*,*,#175,.F.);
#1558=ORIENTED_EDGE('',*,*,#1538,.T.);
#1559=ORIENTED_EDGE('',*,*,#89,.F.);
#1560=EDGE_LOOP('',(#1549,#1550,#1556,#1557,#1558,#1559));
#1561=FACE_BOUND('',#1560,.T.);
#1562=ADVANCED_FACE('',(#1561),#1548,.F.);
#1563=CARTESIAN_POINT('',(276.882707767,83.581566284,28.017693924));
#1564=DIRECTION('',(0.,0.707106781,-0.707106781));
#1565=DIRECTION('',(-1.,0.,0.));
#1566=AXIS2_PLACEMENT_3D('',#1563,#1564,#1565);
#1567=PLANE('',#1566);
#1568=ORIENTED_EDGE('',*,*,#319,.F.);
#1569=CARTESIAN_POINT('',(302.375511812,84.331566284,28.767693924));
#1570=VERTEX_POINT('',#1569);
#1571=CARTESIAN_POINT('',(301.625511812,83.581566284,28.017693924));
#1572=DIRECTION('',(0.577350269,0.577350269,0.577350269));
#1573=VECTOR('',#1572,1.299038106);
#1574=LINE('',#1571,#1573);
#1575=EDGE_CURVE('',#306,#1570,#1574,.T.);
#1576=ORIENTED_EDGE('',*,*,#1575,.T.);
#1577=CARTESIAN_POINT('',(302.375511812,84.331566284,28.767693924));
#1578=DIRECTION('',(-0.577350269,0.577350269,0.577350269));
#1579=VECTOR('',#1578,10.825317547);
#1580=LINE('',#1577,#1579);
#1581=EDGE_CURVE('',#1570,#148,#1580,.T.);
#1582=ORIENTED_EDGE('',*,*,#1581,.T.);
#1583=ORIENTED_EDGE('',*,*,#153,.F.);
#1584=ORIENTED_EDGE('',*,*,#1555,.T.);
#1585=ORIENTED_EDGE('',*,*,#530,.F.);
#1586=EDGE_LOOP('',(#1568,#1576,#1582,#1583,#1584,#1585));
#1587=FACE_BOUND('',#1586,.T.);
#1588=ADVANCED_FACE('',(#1587),#1567,.F.);
#1589=CARTESIAN_POINT('',(303.125511812,11.65437033,28.017693924));
#1590=DIRECTION('',(-0.707106781,-0.,-0.707106781));
#1591=DIRECTION('',(0.,-1.,0.));
#1592=AXIS2_PLACEMENT_3D('',#1589,#1590,#1591);
#1593=PLANE('',#1592);
#1594=ORIENTED_EDGE('',*,*,#230,.F.);
#1595=CARTESIAN_POINT('',(303.125511812,107.25437033,28.017693924));
#1596=DIRECTION('',(-0.577350269,0.577350269,0.577350269));
#1597=VECTOR('',#1596,1.299038106);
#1598=LINE('',#1595,#1597);
#1599=EDGE_CURVE('',#217,#1519,#1598,.T.);
#1600=ORIENTED_EDGE('',*,*,#1599,.T.);
#1601=ORIENTED_EDGE('',*,*,#1524,.F.);
#1602=ORIENTED_EDGE('',*,*,#161,.F.);
#1603=ORIENTED_EDGE('',*,*,#1581,.F.);
#1604=CARTESIAN_POINT('',(302.375511812,84.331566284,28.767693924));
#1605=DIRECTION('',(0.577350269,0.577350269,-0.577350269));
#1606=VECTOR('',#1605,1.299038106);
#1607=LINE('',#1604,#1606);
#1608=EDGE_CURVE('',#1570,#225,#1607,.T.);
#1609=ORIENTED_EDGE('',*,*,#1608,.T.);
#1610=EDGE_LOOP('',(#1594,#1600,#1601,#1602,#1603,#1609));
#1611=FACE_BOUND('',#1610,.T.);
#1612=ADVANCED_FACE('',(#1611),#1593,.F.);
#1613=CARTESIAN_POINT('',(301.625511812,86.65437033,5.017693924));
#1614=DIRECTION('',(-0.707106781,-0.,-0.707106781));
#1615=DIRECTION('',(0.,1.,-0.));
#1616=AXIS2_PLACEMENT_3D('',#1613,#1614,#1615);
#1617=PLANE('',#1616);
#1618=ORIENTED_EDGE('',*,*,#349,.F.);
#1619=ORIENTED_EDGE('',*,*,#255,.F.);
#1620=CARTESIAN_POINT('',(301.625511812,74.581566284,5.017693924));
#1621=DIRECTION('',(0.707106781,0.,-0.707106781));
#1622=VECTOR('',#1621,2.121320344);
#1623=LINE('',#1620,#1622);
#1624=EDGE_CURVE('',#720,#241,#1623,.T.);
#1625=ORIENTED_EDGE('',*,*,#1624,.F.);
#1626=ORIENTED_EDGE('',*,*,#1158,.F.);
#1627=EDGE_LOOP('',(#1618,#1619,#1625,#1626));
#1628=FACE_BOUND('',#1627,.T.);
#1629=ADVANCED_FACE('',(#1628),#1617,.F.);
#1630=CARTESIAN_POINT('',(301.625511812,74.581566284,14.017693924));
#1631=DIRECTION('',(1.,0.,0.));
#1632=DIRECTION('',(0.,0.,-1.));
#1633=AXIS2_PLACEMENT_3D('',#1630,#1631,#1632);
#1634=CONICAL_SURFACE('',#1633,9.,45.);
#1635=ORIENTED_EDGE('',*,*,#1624,.T.);
#1636=ORIENTED_EDGE('',*,*,#247,.F.);
#1637=CARTESIAN_POINT('',(301.625511812,83.581566284,14.017693924));
#1638=DIRECTION('',(0.707106781,0.707106781,0.));
#1639=VECTOR('',#1638,2.121320344);
#1640=LINE('',#1637,#1639);
#1641=EDGE_CURVE('',#298,#233,#1640,.T.);
#1642=ORIENTED_EDGE('',*,*,#1641,.F.);
#1643=ORIENTED_EDGE('',*,*,#732,.F.);
#1644=EDGE_LOOP('',(#1635,#1636,#1642,#1643));
#1645=FACE_BOUND('',#1644,.T.);
#1646=ADVANCED_FACE('',(#1645),#1634,.F.);
#1647=CARTESIAN_POINT('',(303.125511812,85.081566284,0.017693924));
#1648=DIRECTION('',(-0.707106781,0.707106781,-0.));
#1649=DIRECTION('',(0.,-0.,-1.));
#1650=AXIS2_PLACEMENT_3D('',#1647,#1648,#1649);
#1651=PLANE('',#1650);
#1652=ORIENTED_EDGE('',*,*,#1575,.F.);
#1653=ORIENTED_EDGE('',*,*,#311,.F.);
#1654=ORIENTED_EDGE('',*,*,#1641,.T.);
#1655=ORIENTED_EDGE('',*,*,#238,.F.);
#1656=ORIENTED_EDGE('',*,*,#1608,.F.);
#1657=EDGE_LOOP('',(#1652,#1653,#1654,#1655,#1656));
#1658=FACE_BOUND('',#1657,.T.);
#1659=ADVANCED_FACE('',(#1658),#1651,.F.);
#1660=CARTESIAN_POINT('',(303.125511812,11.65437033,3.517693924));
#1661=DIRECTION('',(-0.707106781,-0.,-0.707106781));
#1662=DIRECTION('',(-0.,-1.,0.));
#1663=AXIS2_PLACEMENT_3D('',#1660,#1661,#1662);
#1664=PLANE('',#1663);
#1665=ORIENTED_EDGE('',*,*,#1190,.F.);
#1666=ORIENTED_EDGE('',*,*,#956,.F.);
#1667=CARTESIAN_POINT('',(303.125511812,117.75437033,3.517693924));
#1668=DIRECTION('',(-0.707106781,0.,0.707106781));
#1669=VECTOR('',#1668,2.121320344);
#1670=LINE('',#1667,#1669);
#1671=EDGE_CURVE('',#206,#557,#1670,.T.);
#1672=ORIENTED_EDGE('',*,*,#1671,.F.);
#1673=ORIENTED_EDGE('',*,*,#285,.F.);
#1674=EDGE_LOOP('',(#1665,#1666,#1672,#1673));
#1675=FACE_BOUND('',#1674,.T.);
#1676=ADVANCED_FACE('',(#1675),#1664,.F.);
#1677=CARTESIAN_POINT('',(303.125511812,117.75437033,14.017693924));
#1678=DIRECTION('',(1.,0.,0.));
#1679=DIRECTION('',(0.,0.,-1.));
#1680=AXIS2_PLACEMENT_3D('',#1677,#1678,#1679);
#1681=CONICAL_SURFACE('',#1680,10.5,45.);
#1682=ORIENTED_EDGE('',*,*,#1671,.T.);
#1683=ORIENTED_EDGE('',*,*,#563,.F.);
#1684=CARTESIAN_POINT('',(303.125511812,107.25437033,14.017693924));
#1685=DIRECTION('',(-0.707106781,0.707106781,0.));
#1686=VECTOR('',#1685,2.121320344);
#1687=LINE('',#1684,#1686);
#1688=EDGE_CURVE('',#208,#43,#1687,.T.);
#1689=ORIENTED_EDGE('',*,*,#1688,.F.);
#1690=ORIENTED_EDGE('',*,*,#214,.F.);
#1691=EDGE_LOOP('',(#1682,#1683,#1689,#1690));
#1692=FACE_BOUND('',#1691,.T.);
#1693=ADVANCED_FACE('',(#1692),#1681,.F.);
#1694=CARTESIAN_POINT('',(301.625511812,108.75437033,5.017693924));
#1695=DIRECTION('',(-0.707106781,-0.707106781,0.));
#1696=DIRECTION('',(-0.,-0.,-1.));
#1697=AXIS2_PLACEMENT_3D('',#1694,#1695,#1696);
#1698=PLANE('',#1697);
#1699=ORIENTED_EDGE('',*,*,#1599,.F.);
#1700=ORIENTED_EDGE('',*,*,#222,.F.);
#1701=ORIENTED_EDGE('',*,*,#1688,.T.);
#1702=ORIENTED_EDGE('',*,*,#48,.F.);
#1703=ORIENTED_EDGE('',*,*,#1530,.F.);
#1704=EDGE_LOOP('',(#1699,#1700,#1701,#1702,#1703));
#1705=FACE_BOUND('',#1704,.T.);
#1706=ADVANCED_FACE('',(#1705),#1698,.F.);
#1707=CARTESIAN_POINT('',(175.65,75.,13.));
#1708=DIRECTION('',(0.,0.,1.));
#1709=DIRECTION('',(1.,0.,-0.));
#1710=AXIS2_PLACEMENT_3D('',#1707,#1708,#1709);
#1711=CYLINDRICAL_SURFACE('',#1710,3.193592168);
#1712=ORIENTED_EDGE('',*,*,#1257,.T.);
#1713=ORIENTED_EDGE('',*,*,#838,.T.);
#1714=ORIENTED_EDGE('',*,*,#1281,.T.);
#1715=ORIENTED_EDGE('',*,*,#1092,.F.);
#1716=EDGE_LOOP('',(#1712,#1713,#1714,#1715));
#1717=FACE_BOUND('',#1716,.T.);
#1718=ADVANCED_FACE('',(#1717),#1711,.F.);
#1719=CARTESIAN_POINT('',(175.65,40.,13.));
#1720=DIRECTION('',(0.,0.,1.));
#1721=DIRECTION('',(1.,0.,-0.));
#1722=AXIS2_PLACEMENT_3D('',#1719,#1720,#1721);
#1723=CYLINDRICAL_SURFACE('',#1722,3.193592168);
#1724=ORIENTED_EDGE('',*,*,#1330,.T.);
#1725=ORIENTED_EDGE('',*,*,#795,.T.);
#1726=ORIENTED_EDGE('',*,*,#1349,.T.);
#1727=ORIENTED_EDGE('',*,*,#1135,.F.);
#1728=EDGE_LOOP('',(#1724,#1725,#1726,#1727));
#1729=FACE_BOUND('',#1728,.T.);
#1730=ADVANCED_FACE('',(#1729),#1723,.F.);
#1731=CARTESIAN_POINT('',(175.65,98.308740659,16.035387849));
#1732=DIRECTION('',(-0.,0.,-1.));
#1733=DIRECTION('',(1.,0.,0.));
#1734=AXIS2_PLACEMENT_3D('',#1731,#1732,#1733);
#1735=CYLINDRICAL_SURFACE('',#1734,3.193592168);
#1736=ORIENTED_EDGE('',*,*,#1415,.T.);
#1737=ORIENTED_EDGE('',*,*,#1032,.F.);
#1738=ORIENTED_EDGE('',*,*,#1432,.T.);
#1739=ORIENTED_EDGE('',*,*,#898,.T.);
#1740=EDGE_LOOP('',(#1736,#1737,#1738,#1739));
#1741=FACE_BOUND('',#1740,.T.);
#1742=ADVANCED_FACE('',(#1741),#1735,.F.);
#1743=CARTESIAN_POINT('',(175.65,133.308740659,16.035387849));
#1744=DIRECTION('',(-0.,0.,-1.));
#1745=DIRECTION('',(1.,0.,0.));
#1746=AXIS2_PLACEMENT_3D('',#1743,#1744,#1745);
#1747=CYLINDRICAL_SURFACE('',#1746,3.193592168);
#1748=ORIENTED_EDGE('',*,*,#1488,.T.);
#1749=ORIENTED_EDGE('',*,*,#989,.F.);
#1750=ORIENTED_EDGE('',*,*,#1505,.T.);
#1751=ORIENTED_EDGE('',*,*,#939,.T.);
#1752=EDGE_LOOP('',(#1748,#1749,#1750,#1751));
#1753=FACE_BOUND('',#1752,.T.);
#1754=ADVANCED_FACE('',(#1753),#1747,.F.);
#1755=CLOSED_SHELL('',(#66,#108,#139,#199,#289,#329,#367,#398,#437,#476,#516,#549,#582,#617,#643,#662,#687,#713,#738,#943,#1167,#1179,#1196,#1213,#1230,#1247,
#1264,#1286,#1303,#1320,#1337,#1354,#1371,#1388,#1405,#1422,#1444,#1461,#1478,#1495,#1512,#1543,#1562,#1588,#1612,#1629,#1646,#1659,#1676,#1693,#1706,
#1718,#1730,#1742,#1754));
#1756=MANIFOLD_SOLID_BREP('BASE_V$_1',#1755);
#1757=DRAUGHTING_PRE_DEFINED_COLOUR('white');
#1758=FILL_AREA_STYLE_COLOUR('',#1757);
#1759=FILL_AREA_STYLE('',(#1758));
#1760=SURFACE_STYLE_FILL_AREA(#1759);
#1761=SURFACE_SIDE_STYLE('',(#1760));
#1762=SURFACE_STYLE_USAGE(.BOTH.,#1761);
#1763=PRESENTATION_STYLE_ASSIGNMENT((#1762));
#26=STYLED_ITEM('',(#1763),#1756);
#16=SHAPE_REPRESENTATION('BASE_V$_1',(#15),#10);
#17=ADVANCED_BREP_SHAPE_REPRESENTATION('BASE_V$_1',(#1756),#10);
#1771=SHAPE_REPRESENTATION_RELATIONSHIP('','',#16,#17);
#1772=CARTESIAN_POINT('',(0.,0.,0.));
#1773=DIRECTION('',(0.,0.,1.));
#1774=DIRECTION('',(1.,0.,0.));
#1775=AXIS2_PLACEMENT_3D('',#1772,#1773,#1774);
#1777=MAPPED_ITEM('',#1776,#1775);
#1776=REPRESENTATION_MAP(#1775,#16);
#1778=APPLICATION_CONTEXT('Managed model based 3d engineering');
#1779=APPLICATION_PROTOCOL_DEFINITION('international standard','ap242_managed_model_based_3d_engineering',2014,#1778);
#1780=PRODUCT_CONTEXT('',#1778,'mechanical');
#1781=PRODUCT_DEFINITION_CONTEXT('part definition',#1778,'design');
#24=PRODUCT('BASE_V$_1','BASE_V$_1','',(#1780));
#1782=PRODUCT_RELATED_PRODUCT_CATEGORY('part','',(#24));
#1783=PRODUCT_DEFINITION_FORMATION_WITH_SPECIFIED_SOURCE('','',#24,.NOT_KNOWN.);
#25=PRODUCT_DEFINITION('design','',#1783,#1781);
#23=PRODUCT_DEFINITION_SHAPE('','',#25);
#1784=SHAPE_DEFINITION_REPRESENTATION(#23,#16);
#11=DRAUGHTING_MODEL('',(#1777),#10);
#1785=DESCRIPTIVE_REPRESENTATION_ITEM('KEY','/Users/quimgraellsolive/Library/Containers/com.shapr3d.shapr/Data/tmp/DE7035A0-99DC-4F2D-873F-2F718302DD29.tmp');
#1786=PROPERTY_DEFINITION('KEY','',#25);
#1787=REPRESENTATION('',(#1785),#10);
#1788=PROPERTY_DEFINITION_REPRESENTATION(#1786,#1787);
#1789=GENERAL_PROPERTY('','KEY','');
#1790=GENERAL_PROPERTY_ASSOCIATION('','',#1789,#1786);
#1=MECHANICAL_DESIGN_GEOMETRIC_PRESENTATION_REPRESENTATION('',(#26),#10);
ENDSEC;
END-ISO-10303-21;
