ISO-10303-21;
HEADER;

/* File generated by Shapr3D Version 5.831.0.8630 */

FILE_DESCRIPTION(('HOOPS Exchange Step'),'2;1');

FILE_NAME('/Users/quimgraellsolive/Library/Containers/com.shapr3d.shapr/Data/tmp/export/temp_export',
'2025-04-22T23:22:57+02:00',
('quimgraellsolive'),
('Shapr3D Limited'),
'HOOPS Exchange 2024.8',
'Shapr3D',
'Authorized');

FILE_SCHEMA( ('AP242_MANAGED_MODEL_BASED_3D_ENGINEERING_MIM_LF {1 0 10303 442 1 1 4}') );

ENDSEC;

DATA;
#3=(NAMED_UNIT(*)PLANE_ANGLE_UNIT()SI_UNIT($,.RADIAN.));
#4=PLANE_ANGLE_MEASURE_WITH_UNIT(PLANE_ANGLE_MEASURE(0.0174532925),#3);
#5=(CONVERSION_BASED_UNIT('DEGREE',#4)NAMED_UNIT(#6)PLANE_ANGLE_UNIT());
#6=DIMENSIONAL_EXPONENTS(0.,0.,0.,0.,0.,0.,0.);
#7=(NAMED_UNIT(*)SI_UNIT($,.STERADIAN.)SOLID_ANGLE_UNIT());
#8=(LENGTH_UNIT()NAMED_UNIT(*)SI_UNIT(.MILLI.,.METRE.));
#9=UNCERTAINTY_MEASURE_WITH_UNIT(LENGTH_MEASURE(1.000000E-05),#8,'DISTANCE_ACCURACY_VALUE','Maximum Tolerance applied to model');
#10=(GEOMETRIC_REPRESENTATION_CONTEXT(3)GLOBAL_UNCERTAINTY_ASSIGNED_CONTEXT((#9))GLOBAL_UNIT_ASSIGNED_CONTEXT((#8,#5,#7))REPRESENTATION_CONTEXT('','Base_Varilla'));
#12=CARTESIAN_POINT('',(0.,0.,0.));
#13=DIRECTION('',(0.,0.,1.));
#14=DIRECTION('',(1.,0.,0.));
#15=AXIS2_PLACEMENT_3D('TS3D_PRODUCT_CSYS',#12,#13,#14);
#27=CARTESIAN_POINT('',(6.049775906,96.129587024,39.478110154));
#28=DIRECTION('',(0.019088882,0.,0.999817791));
#29=DIRECTION('',(0.999817791,-0.,-0.019088882));
#30=AXIS2_PLACEMENT_3D('',#27,#28,#29);
#31=PLANE('',#30);
#32=CARTESIAN_POINT('',(1.550595848,88.629587024,39.564010123));
#33=VERTEX_POINT('',#32);
#34=CARTESIAN_POINT('',(10.548955964,88.629587024,39.392210185));
#35=VERTEX_POINT('',#34);
#36=CARTESIAN_POINT('',(1.550595848,88.629587024,39.564010123));
#37=DIRECTION('',(0.999817791,-0.,-0.019088882));
#38=VECTOR('',#37,9.);
#39=LINE('',#36,#38);
#40=EDGE_CURVE('',#33,#35,#39,.T.);
#41=ORIENTED_EDGE('',*,*,#40,.F.);
#42=CARTESIAN_POINT('',(-1.448857524,91.629587024,39.621276769));
#43=VERTEX_POINT('',#42);
#44=CARTESIAN_POINT('',(1.550595848,91.629587024,39.564010123));
#45=DIRECTION('',(-0.019088882,-0.,-0.999817791));
#46=DIRECTION('',(0.,1.,-0.));
#47=AXIS2_PLACEMENT_3D('',#44,#45,#46);
#48=CIRCLE('',#47,3.);
#49=EDGE_CURVE('',#33,#43,#48,.T.);
#50=ORIENTED_EDGE('',*,*,#49,.T.);
#51=CARTESIAN_POINT('',(-1.448857524,100.629587024,39.621276769));
#52=VERTEX_POINT('',#51);
#53=CARTESIAN_POINT('',(-1.448857524,100.629587024,39.621276769));
#54=DIRECTION('',(0.,-1.,0.));
#55=VECTOR('',#54,9.);
#56=LINE('',#53,#55);
#57=EDGE_CURVE('',#52,#43,#56,.T.);
#58=ORIENTED_EDGE('',*,*,#57,.F.);
#59=CARTESIAN_POINT('',(1.550595848,103.629587024,39.564010123));
#60=VERTEX_POINT('',#59);
#61=CARTESIAN_POINT('',(1.550595848,100.629587024,39.564010123));
#62=DIRECTION('',(-0.019088882,-0.,-0.999817791));
#63=DIRECTION('',(0.,1.,-0.));
#64=AXIS2_PLACEMENT_3D('',#61,#62,#63);
#65=CIRCLE('',#64,3.);
#66=EDGE_CURVE('',#52,#60,#65,.T.);
#67=ORIENTED_EDGE('',*,*,#66,.T.);
#68=CARTESIAN_POINT('',(10.548955964,103.629587024,39.392210185));
#69=VERTEX_POINT('',#68);
#70=CARTESIAN_POINT('',(10.548955964,103.629587024,39.392210185));
#71=DIRECTION('',(-0.999817791,0.,0.019088882));
#72=VECTOR('',#71,9.);
#73=LINE('',#70,#72);
#74=EDGE_CURVE('',#69,#60,#73,.T.);
#75=ORIENTED_EDGE('',*,*,#74,.F.);
#76=CARTESIAN_POINT('',(13.548409336,100.629587024,39.334943538));
#77=VERTEX_POINT('',#76);
#78=CARTESIAN_POINT('',(10.548955964,100.629587024,39.392210185));
#79=DIRECTION('',(-0.019088882,-0.,-0.999817791));
#80=DIRECTION('',(0.,1.,-0.));
#81=AXIS2_PLACEMENT_3D('',#78,#79,#80);
#82=CIRCLE('',#81,3.);
#83=EDGE_CURVE('',#69,#77,#82,.T.);
#84=ORIENTED_EDGE('',*,*,#83,.T.);
#85=CARTESIAN_POINT('',(13.548409336,91.629587024,39.334943538));
#86=VERTEX_POINT('',#85);
#87=CARTESIAN_POINT('',(13.548409336,91.629587024,39.334943538));
#88=DIRECTION('',(0.,1.,-0.));
#89=VECTOR('',#88,9.);
#90=LINE('',#87,#89);
#91=EDGE_CURVE('',#86,#77,#90,.T.);
#92=ORIENTED_EDGE('',*,*,#91,.F.);
#93=CARTESIAN_POINT('',(10.548955964,91.629587024,39.392210185));
#94=DIRECTION('',(-0.019088882,-0.,-0.999817791));
#95=DIRECTION('',(0.,1.,-0.));
#96=AXIS2_PLACEMENT_3D('',#93,#94,#95);
#97=CIRCLE('',#96,3.);
#98=EDGE_CURVE('',#86,#35,#97,.T.);
#99=ORIENTED_EDGE('',*,*,#98,.T.);
#100=EDGE_LOOP('',(#41,#50,#58,#67,#75,#84,#92,#99));
#101=FACE_BOUND('',#100,.T.);
#102=ADVANCED_FACE('',(#101),#31,.F.);
#103=CARTESIAN_POINT('',(11.428418938,91.629587024,85.455815437));
#104=DIRECTION('',(-0.019088882,-0.,-0.999817791));
#105=DIRECTION('',(0.999817791,-0.,-0.019088882));
#106=AXIS2_PLACEMENT_3D('',#103,#104,#105);
#107=CYLINDRICAL_SURFACE('',#106,3.);
#108=CARTESIAN_POINT('',(13.930186977,91.629587024,59.331299352));
#109=VERTEX_POINT('',#108);
#110=CARTESIAN_POINT('',(13.930186977,91.629587024,59.331299352));
#111=DIRECTION('',(-0.019088882,-0.,-0.999817791));
#112=VECTOR('',#111,20.);
#113=LINE('',#110,#112);
#114=EDGE_CURVE('',#109,#86,#113,.T.);
#115=ORIENTED_EDGE('',*,*,#114,.F.);
#116=CARTESIAN_POINT('',(10.930733605,88.629587024,59.388565998));
#117=VERTEX_POINT('',#116);
#118=CARTESIAN_POINT('',(10.930733605,91.629587024,59.388565998));
#119=DIRECTION('',(0.019088882,0.,0.999817791));
#120=DIRECTION('',(0.,1.,-0.));
#121=AXIS2_PLACEMENT_3D('',#118,#119,#120);
#122=CIRCLE('',#121,3.);
#123=EDGE_CURVE('',#117,#109,#122,.T.);
#124=ORIENTED_EDGE('',*,*,#123,.F.);
#125=CARTESIAN_POINT('',(10.930733605,88.629587024,59.388565998));
#126=DIRECTION('',(-0.019088882,-0.,-0.999817791));
#127=VECTOR('',#126,20.);
#128=LINE('',#125,#127);
#129=EDGE_CURVE('',#117,#35,#128,.T.);
#130=ORIENTED_EDGE('',*,*,#129,.T.);
#131=ORIENTED_EDGE('',*,*,#98,.F.);
#132=EDGE_LOOP('',(#115,#124,#130,#131));
#133=FACE_BOUND('',#132,.T.);
#134=ADVANCED_FACE('',(#133),#107,.T.);
#135=CARTESIAN_POINT('',(-1.448857524,88.629587024,39.621276769));
#136=DIRECTION('',(0.,-1.,0.));
#137=DIRECTION('',(0.999817791,-0.,-0.019088882));
#138=AXIS2_PLACEMENT_3D('',#135,#136,#137);
#139=PLANE('',#138);
#140=CARTESIAN_POINT('',(1.932373489,88.629587024,59.560365937));
#141=VERTEX_POINT('',#140);
#142=CARTESIAN_POINT('',(1.932373489,88.629587024,59.560365937));
#143=DIRECTION('',(0.999817791,-0.,-0.019088882));
#144=VECTOR('',#143,9.);
#145=LINE('',#142,#144);
#146=EDGE_CURVE('',#141,#117,#145,.T.);
#147=ORIENTED_EDGE('',*,*,#146,.F.);
#148=CARTESIAN_POINT('',(1.932373489,88.629587024,59.560365937));
#149=DIRECTION('',(-0.019088882,-0.,-0.999817791));
#150=VECTOR('',#149,20.);
#151=LINE('',#148,#150);
#152=EDGE_CURVE('',#141,#33,#151,.T.);
#153=ORIENTED_EDGE('',*,*,#152,.T.);
#154=ORIENTED_EDGE('',*,*,#40,.T.);
#155=ORIENTED_EDGE('',*,*,#129,.F.);
#156=EDGE_LOOP('',(#147,#153,#154,#155));
#157=FACE_BOUND('',#156,.T.);
#158=CARTESIAN_POINT('',(7.7258399,88.629587024,43.446839105));
#159=VERTEX_POINT('',#158);
#160=CARTESIAN_POINT('',(6.126131434,88.629587024,43.477381316));
#161=DIRECTION('',(0.,-1.,0.));
#162=DIRECTION('',(0.999817791,-0.,-0.019088882));
#163=AXIS2_PLACEMENT_3D('',#160,#161,#162);
#164=CIRCLE('',#163,1.6);
#165=EDGE_CURVE('',#159,#159,#164,.T.);
#166=ORIENTED_EDGE('',*,*,#165,.F.);
#167=EDGE_LOOP('',(#166));
#168=FACE_BOUND('',#167,.T.);
#169=ADVANCED_FACE('',(#157,#168),#139,.T.);
#170=CARTESIAN_POINT('',(6.126131434,88.629587024,43.477381316));
#171=DIRECTION('',(0.,-1.,0.));
#172=DIRECTION('',(0.999817791,-0.,-0.019088882));
#173=AXIS2_PLACEMENT_3D('',#170,#171,#172);
#174=CYLINDRICAL_SURFACE('',#173,1.6);
#175=CARTESIAN_POINT('',(7.7258399,103.629587024,43.446839105));
#176=VERTEX_POINT('',#175);
#177=CARTESIAN_POINT('',(7.7258399,88.629587024,43.446839105));
#178=DIRECTION('',(0.,1.,-0.));
#179=VECTOR('',#178,15.);
#180=LINE('',#177,#179);
#181=EDGE_CURVE('',#159,#176,#180,.T.);
#182=ORIENTED_EDGE('',*,*,#181,.F.);
#183=ORIENTED_EDGE('',*,*,#165,.T.);
#184=ORIENTED_EDGE('',*,*,#181,.T.);
#185=CARTESIAN_POINT('',(6.126131434,103.629587024,43.477381316));
#186=DIRECTION('',(0.,-1.,0.));
#187=DIRECTION('',(0.999817791,-0.,-0.019088882));
#188=AXIS2_PLACEMENT_3D('',#185,#186,#187);
#189=CIRCLE('',#188,1.6);
#190=EDGE_CURVE('',#176,#176,#189,.T.);
#191=ORIENTED_EDGE('',*,*,#190,.F.);
#192=EDGE_LOOP('',(#182,#183,#184,#191));
#193=FACE_BOUND('',#192,.T.);
#194=ADVANCED_FACE('',(#193),#174,.F.);
#195=CARTESIAN_POINT('',(13.548409336,103.629587024,39.334943538));
#196=DIRECTION('',(-0.,1.,-0.));
#197=DIRECTION('',(-0.999817791,0.,0.019088882));
#198=AXIS2_PLACEMENT_3D('',#195,#196,#197);
#199=PLANE('',#198);
#200=ORIENTED_EDGE('',*,*,#74,.T.);
#201=CARTESIAN_POINT('',(1.932373489,103.629587024,59.560365937));
#202=VERTEX_POINT('',#201);
#203=CARTESIAN_POINT('',(1.932373489,103.629587024,59.560365937));
#204=DIRECTION('',(-0.019088882,-0.,-0.999817791));
#205=VECTOR('',#204,20.);
#206=LINE('',#203,#205);
#207=EDGE_CURVE('',#202,#60,#206,.T.);
#208=ORIENTED_EDGE('',*,*,#207,.F.);
#209=CARTESIAN_POINT('',(10.930733605,103.629587024,59.388565998));
#210=VERTEX_POINT('',#209);
#211=CARTESIAN_POINT('',(10.930733605,103.629587024,59.388565998));
#212=DIRECTION('',(-0.999817791,0.,0.019088882));
#213=VECTOR('',#212,9.);
#214=LINE('',#211,#213);
#215=EDGE_CURVE('',#210,#202,#214,.T.);
#216=ORIENTED_EDGE('',*,*,#215,.F.);
#217=CARTESIAN_POINT('',(10.930733605,103.629587024,59.388565998));
#218=DIRECTION('',(-0.019088882,-0.,-0.999817791));
#219=VECTOR('',#218,20.);
#220=LINE('',#217,#219);
#221=EDGE_CURVE('',#210,#69,#220,.T.);
#222=ORIENTED_EDGE('',*,*,#221,.T.);
#223=EDGE_LOOP('',(#200,#208,#216,#222));
#224=FACE_BOUND('',#223,.T.);
#225=ORIENTED_EDGE('',*,*,#190,.T.);
#226=EDGE_LOOP('',(#225));
#227=FACE_BOUND('',#226,.T.);
#228=ADVANCED_FACE('',(#224,#227),#199,.T.);
#229=CARTESIAN_POINT('',(11.428418938,100.629587024,85.455815437));
#230=DIRECTION('',(-0.019088882,-0.,-0.999817791));
#231=DIRECTION('',(0.,1.,-0.));
#232=AXIS2_PLACEMENT_3D('',#229,#230,#231);
#233=CYLINDRICAL_SURFACE('',#232,3.);
#234=ORIENTED_EDGE('',*,*,#221,.F.);
#235=CARTESIAN_POINT('',(13.930186977,100.629587024,59.331299352));
#236=VERTEX_POINT('',#235);
#237=CARTESIAN_POINT('',(10.930733605,100.629587024,59.388565998));
#238=DIRECTION('',(0.019088882,0.,0.999817791));
#239=DIRECTION('',(0.,1.,-0.));
#240=AXIS2_PLACEMENT_3D('',#237,#238,#239);
#241=CIRCLE('',#240,3.);
#242=EDGE_CURVE('',#236,#210,#241,.T.);
#243=ORIENTED_EDGE('',*,*,#242,.F.);
#244=CARTESIAN_POINT('',(13.930186977,100.629587024,59.331299352));
#245=DIRECTION('',(-0.019088882,-0.,-0.999817791));
#246=VECTOR('',#245,20.);
#247=LINE('',#244,#246);
#248=EDGE_CURVE('',#236,#77,#247,.T.);
#249=ORIENTED_EDGE('',*,*,#248,.T.);
#250=ORIENTED_EDGE('',*,*,#83,.F.);
#251=EDGE_LOOP('',(#234,#243,#249,#250));
#252=FACE_BOUND('',#251,.T.);
#253=ADVANCED_FACE('',(#252),#233,.T.);
#254=CARTESIAN_POINT('',(13.548409336,88.629587024,39.334943538));
#255=DIRECTION('',(0.999817791,-0.,-0.019088882));
#256=DIRECTION('',(0.,1.,-0.));
#257=AXIS2_PLACEMENT_3D('',#254,#255,#256);
#258=PLANE('',#257);
#259=ORIENTED_EDGE('',*,*,#91,.T.);
#260=ORIENTED_EDGE('',*,*,#248,.F.);
#261=CARTESIAN_POINT('',(13.930186977,91.629587024,59.331299352));
#262=DIRECTION('',(0.,1.,-0.));
#263=VECTOR('',#262,9.);
#264=LINE('',#261,#263);
#265=EDGE_CURVE('',#109,#236,#264,.T.);
#266=ORIENTED_EDGE('',*,*,#265,.F.);
#267=ORIENTED_EDGE('',*,*,#114,.T.);
#268=EDGE_LOOP('',(#259,#260,#266,#267));
#269=FACE_BOUND('',#268,.T.);
#270=ADVANCED_FACE('',(#269),#258,.T.);
#271=CARTESIAN_POINT('',(6.431553547,96.129587024,59.474465968));
#272=DIRECTION('',(0.019088882,0.,0.999817791));
#273=DIRECTION('',(0.999817791,-0.,-0.019088882));
#274=AXIS2_PLACEMENT_3D('',#271,#272,#273);
#275=PLANE('',#274);
#276=ORIENTED_EDGE('',*,*,#265,.T.);
#277=ORIENTED_EDGE('',*,*,#242,.T.);
#278=ORIENTED_EDGE('',*,*,#215,.T.);
#279=CARTESIAN_POINT('',(-1.067079883,100.629587024,59.617632583));
#280=VERTEX_POINT('',#279);
#281=CARTESIAN_POINT('',(1.932373489,100.629587024,59.560365937));
#282=DIRECTION('',(0.019088882,0.,0.999817791));
#283=DIRECTION('',(0.,1.,-0.));
#284=AXIS2_PLACEMENT_3D('',#281,#282,#283);
#285=CIRCLE('',#284,3.);
#286=EDGE_CURVE('',#202,#280,#285,.T.);
#287=ORIENTED_EDGE('',*,*,#286,.T.);
#288=CARTESIAN_POINT('',(-1.067079883,91.629587024,59.617632583));
#289=VERTEX_POINT('',#288);
#290=CARTESIAN_POINT('',(-1.067079883,100.629587024,59.617632583));
#291=DIRECTION('',(-0.,-1.,0.));
#292=VECTOR('',#291,9.);
#293=LINE('',#290,#292);
#294=EDGE_CURVE('',#280,#289,#293,.T.);
#295=ORIENTED_EDGE('',*,*,#294,.T.);
#296=CARTESIAN_POINT('',(1.932373489,91.629587024,59.560365937));
#297=DIRECTION('',(0.019088882,0.,0.999817791));
#298=DIRECTION('',(0.,1.,-0.));
#299=AXIS2_PLACEMENT_3D('',#296,#297,#298);
#300=CIRCLE('',#299,3.);
#301=EDGE_CURVE('',#289,#141,#300,.T.);
#302=ORIENTED_EDGE('',*,*,#301,.T.);
#303=ORIENTED_EDGE('',*,*,#146,.T.);
#304=ORIENTED_EDGE('',*,*,#123,.T.);
#305=EDGE_LOOP('',(#276,#277,#278,#287,#295,#302,#303,#304));
#306=FACE_BOUND('',#305,.T.);
#307=CARTESIAN_POINT('',(9.431006919,96.129587024,59.417199321));
#308=VERTEX_POINT('',#307);
#309=CARTESIAN_POINT('',(6.431553547,93.129587024,59.474465968));
#310=VERTEX_POINT('',#309);
#311=CARTESIAN_POINT('',(6.431553547,96.129587024,59.474465968));
#312=DIRECTION('',(0.019088882,0.,0.999817791));
#313=DIRECTION('',(-0.,-1.,0.));
#314=AXIS2_PLACEMENT_3D('',#311,#312,#313);
#315=CIRCLE('',#314,3.);
#316=EDGE_CURVE('',#308,#310,#315,.T.);
#317=ORIENTED_EDGE('',*,*,#316,.F.);
#318=CARTESIAN_POINT('',(6.431553547,96.129587024,59.474465968));
#319=DIRECTION('',(0.019088882,0.,0.999817791));
#320=DIRECTION('',(-0.,-1.,0.));
#321=AXIS2_PLACEMENT_3D('',#318,#319,#320);
#322=CIRCLE('',#321,3.);
#323=EDGE_CURVE('',#310,#308,#322,.T.);
#324=ORIENTED_EDGE('',*,*,#323,.F.);
#325=EDGE_LOOP('',(#317,#324));
#326=FACE_BOUND('',#325,.T.);
#327=ADVANCED_FACE('',(#306,#326),#275,.T.);
#328=CARTESIAN_POINT('',(6.431553547,96.129587024,59.474465968));
#329=DIRECTION('',(0.019088882,0.,0.999817791));
#330=DIRECTION('',(0.999817791,-0.,-0.019088882));
#331=AXIS2_PLACEMENT_3D('',#328,#329,#330);
#332=CYLINDRICAL_SURFACE('',#331,3.);
#333=CARTESIAN_POINT('',(9.240118099,96.129587024,49.419021414));
#334=VERTEX_POINT('',#333);
#335=CARTESIAN_POINT('',(9.431006919,96.129587024,59.417199321));
#336=DIRECTION('',(-0.019088882,-0.,-0.999817791));
#337=VECTOR('',#336,10.);
#338=LINE('',#335,#337);
#339=EDGE_CURVE('',#308,#334,#338,.T.);
#340=ORIENTED_EDGE('',*,*,#339,.F.);
#341=ORIENTED_EDGE('',*,*,#316,.T.);
#342=ORIENTED_EDGE('',*,*,#323,.T.);
#343=ORIENTED_EDGE('',*,*,#339,.T.);
#344=CARTESIAN_POINT('',(6.240664727,93.129587024,49.476288061));
#345=VERTEX_POINT('',#344);
#346=CARTESIAN_POINT('',(6.240664727,96.129587024,49.476288061));
#347=DIRECTION('',(0.019088882,0.,0.999817791));
#348=DIRECTION('',(-0.,-1.,0.));
#349=AXIS2_PLACEMENT_3D('',#346,#347,#348);
#350=CIRCLE('',#349,3.);
#351=EDGE_CURVE('',#345,#334,#350,.T.);
#352=ORIENTED_EDGE('',*,*,#351,.F.);
#353=CARTESIAN_POINT('',(6.240664727,96.129587024,49.476288061));
#354=DIRECTION('',(0.019088882,0.,0.999817791));
#355=DIRECTION('',(-0.,-1.,0.));
#356=AXIS2_PLACEMENT_3D('',#353,#354,#355);
#357=CIRCLE('',#356,3.);
#358=EDGE_CURVE('',#334,#345,#357,.T.);
#359=ORIENTED_EDGE('',*,*,#358,.F.);
#360=EDGE_LOOP('',(#340,#341,#342,#343,#352,#359));
#361=FACE_BOUND('',#360,.T.);
#362=ADVANCED_FACE('',(#361),#332,.F.);
#363=CARTESIAN_POINT('',(6.240664727,96.129587024,49.476288061));
#364=DIRECTION('',(0.019088882,0.,0.999817791));
#365=DIRECTION('',(0.999817791,-0.,-0.019088882));
#366=AXIS2_PLACEMENT_3D('',#363,#364,#365);
#367=PLANE('',#366);
#368=ORIENTED_EDGE('',*,*,#351,.T.);
#369=ORIENTED_EDGE('',*,*,#358,.T.);
#370=EDGE_LOOP('',(#368,#369));
#371=FACE_BOUND('',#370,.T.);
#372=ADVANCED_FACE('',(#371),#367,.T.);
#373=CARTESIAN_POINT('',(2.430058822,91.629587024,85.627615376));
#374=DIRECTION('',(-0.019088882,-0.,-0.999817791));
#375=DIRECTION('',(-0.,-1.,0.));
#376=AXIS2_PLACEMENT_3D('',#373,#374,#375);
#377=CYLINDRICAL_SURFACE('',#376,3.);
#378=ORIENTED_EDGE('',*,*,#152,.F.);
#379=ORIENTED_EDGE('',*,*,#301,.F.);
#380=CARTESIAN_POINT('',(-1.067079883,91.629587024,59.617632583));
#381=DIRECTION('',(-0.019088882,-0.,-0.999817791));
#382=VECTOR('',#381,20.);
#383=LINE('',#380,#382);
#384=EDGE_CURVE('',#289,#43,#383,.T.);
#385=ORIENTED_EDGE('',*,*,#384,.T.);
#386=ORIENTED_EDGE('',*,*,#49,.F.);
#387=EDGE_LOOP('',(#378,#379,#385,#386));
#388=FACE_BOUND('',#387,.T.);
#389=ADVANCED_FACE('',(#388),#377,.T.);
#390=CARTESIAN_POINT('',(-1.448857524,103.629587024,39.621276769));
#391=DIRECTION('',(-0.999817791,0.,0.019088882));
#392=DIRECTION('',(-0.,-1.,0.));
#393=AXIS2_PLACEMENT_3D('',#390,#391,#392);
#394=PLANE('',#393);
#395=ORIENTED_EDGE('',*,*,#294,.F.);
#396=CARTESIAN_POINT('',(-1.067079883,100.629587024,59.617632583));
#397=DIRECTION('',(-0.019088882,-0.,-0.999817791));
#398=VECTOR('',#397,20.);
#399=LINE('',#396,#398);
#400=EDGE_CURVE('',#280,#52,#399,.T.);
#401=ORIENTED_EDGE('',*,*,#400,.T.);
#402=ORIENTED_EDGE('',*,*,#57,.T.);
#403=ORIENTED_EDGE('',*,*,#384,.F.);
#404=EDGE_LOOP('',(#395,#401,#402,#403));
#405=FACE_BOUND('',#404,.T.);
#406=ADVANCED_FACE('',(#405),#394,.T.);
#407=CARTESIAN_POINT('',(2.430058822,100.629587024,85.627615376));
#408=DIRECTION('',(-0.019088882,-0.,-0.999817791));
#409=DIRECTION('',(-0.999817791,0.,0.019088882));
#410=AXIS2_PLACEMENT_3D('',#407,#408,#409);
#411=CYLINDRICAL_SURFACE('',#410,3.);
#412=ORIENTED_EDGE('',*,*,#400,.F.);
#413=ORIENTED_EDGE('',*,*,#286,.F.);
#414=ORIENTED_EDGE('',*,*,#207,.T.);
#415=ORIENTED_EDGE('',*,*,#66,.F.);
#416=EDGE_LOOP('',(#412,#413,#414,#415));
#417=FACE_BOUND('',#416,.T.);
#418=ADVANCED_FACE('',(#417),#411,.T.);
#419=CLOSED_SHELL('',(#102,#134,#169,#194,#228,#253,#270,#327,#362,#372,#389,#406,#418));
#420=MANIFOLD_SOLID_BREP('Base_Varilla',#419);
#421=COLOUR_RGB('',0.247058824,0.247058824,0.258823544);
#422=FILL_AREA_STYLE_COLOUR('',#421);
#423=FILL_AREA_STYLE('',(#422));
#424=SURFACE_STYLE_FILL_AREA(#423);
#425=SURFACE_SIDE_STYLE('',(#424));
#426=SURFACE_STYLE_USAGE(.BOTH.,#425);
#427=PRESENTATION_STYLE_ASSIGNMENT((#426));
#26=STYLED_ITEM('',(#427),#420);
#16=SHAPE_REPRESENTATION('Base_Varilla',(#15),#10);
#17=ADVANCED_BREP_SHAPE_REPRESENTATION('Base_Varilla',(#420),#10);
#435=SHAPE_REPRESENTATION_RELATIONSHIP('','',#16,#17);
#436=CARTESIAN_POINT('',(0.,0.,0.));
#437=DIRECTION('',(0.,0.,1.));
#438=DIRECTION('',(1.,0.,0.));
#439=AXIS2_PLACEMENT_3D('',#436,#437,#438);
#441=MAPPED_ITEM('',#440,#439);
#440=REPRESENTATION_MAP(#439,#16);
#442=APPLICATION_CONTEXT('Managed model based 3d engineering');
#443=APPLICATION_PROTOCOL_DEFINITION('international standard','ap242_managed_model_based_3d_engineering',2014,#442);
#444=PRODUCT_CONTEXT('',#442,'mechanical');
#445=PRODUCT_DEFINITION_CONTEXT('part definition',#442,'design');
#24=PRODUCT('Base_Varilla','Base_Varilla','',(#444));
#446=PRODUCT_RELATED_PRODUCT_CATEGORY('part','',(#24));
#447=PRODUCT_DEFINITION_FORMATION_WITH_SPECIFIED_SOURCE('','',#24,.NOT_KNOWN.);
#25=PRODUCT_DEFINITION('design','',#447,#445);
#23=PRODUCT_DEFINITION_SHAPE('','',#25);
#448=SHAPE_DEFINITION_REPRESENTATION(#23,#16);
#11=DRAUGHTING_MODEL('',(#441),#10);
#449=DESCRIPTIVE_REPRESENTATION_ITEM('KEY','/Users/quimgraellsolive/Library/Containers/com.shapr3d.shapr/Data/tmp/E575DCB0-7005-416F-BF2C-9ECA6840E842.tmp');
#450=PROPERTY_DEFINITION('KEY','',#25);
#451=REPRESENTATION('',(#449),#10);
#452=PROPERTY_DEFINITION_REPRESENTATION(#450,#451);
#453=GENERAL_PROPERTY('','KEY','');
#454=GENERAL_PROPERTY_ASSOCIATION('','',#453,#450);
#1=MECHANICAL_DESIGN_GEOMETRIC_PRESENTATION_REPRESENTATION('',(#26),#10);
ENDSEC;
END-ISO-10303-21;
