ISO-10303-21;
HEADER;

/* File generated by Shapr3D Version 5.831.0.8630 */

FILE_DESCRIPTION(('HOOPS Exchange Step'),'2;1');

FILE_NAME('/Users/quimgraellsolive/Library/Containers/com.shapr3d.shapr/Data/tmp/export/temp_export',
'2025-04-22T23:22:57+02:00',
('quimgraellsolive'),
('Shapr3D Limited'),
'HOOPS Exchange 2024.8',
'Shapr3D',
'Authorized');

FILE_SCHEMA( ('AP242_MANAGED_MODEL_BASED_3D_ENGINEERING_MIM_LF {1 0 10303 442 1 1 4}') );

ENDSEC;

DATA;
#3=(NAMED_UNIT(*)PLANE_ANGLE_UNIT()SI_UNIT($,.RADIAN.));
#4=PLANE_ANGLE_MEASURE_WITH_UNIT(PLANE_ANGLE_MEASURE(0.0174532925),#3);
#5=(CONVERSION_BASED_UNIT('DEGREE',#4)NAMED_UNIT(#6)PLANE_ANGLE_UNIT());
#6=DIMENSIONAL_EXPONENTS(0.,0.,0.,0.,0.,0.,0.);
#7=(NAMED_UNIT(*)SI_UNIT($,.STERADIAN.)SOLID_ANGLE_UNIT());
#8=(LENGTH_UNIT()NAMED_UNIT(*)SI_UNIT(.MILLI.,.METRE.));
#9=UNCERTAINTY_MEASURE_WITH_UNIT(LENGTH_MEASURE(1.000000E-05),#8,'DISTANCE_ACCURACY_VALUE','Maximum Tolerance applied to model');
#10=(GEOMETRIC_REPRESENTATION_CONTEXT(3)GLOBAL_UNCERTAINTY_ASSIGNED_CONTEXT((#9))GLOBAL_UNIT_ASSIGNED_CONTEXT((#8,#5,#7))REPRESENTATION_CONTEXT('','Fork_V4_(2)'));
#12=CARTESIAN_POINT('',(0.,0.,0.));
#13=DIRECTION('',(0.,0.,1.));
#14=DIRECTION('',(1.,0.,0.));
#15=AXIS2_PLACEMENT_3D('TS3D_PRODUCT_CSYS',#12,#13,#14);
#27=CARTESIAN_POINT('',(7.080575537,96.129587024,93.468270851));
#28=DIRECTION('',(0.019088882,0.,0.999817791));
#29=DIRECTION('',(0.,1.,-0.));
#30=AXIS2_PLACEMENT_3D('',#27,#28,#29);
#31=PLANE('',#30);
#32=CARTESIAN_POINT('',(14.579208967,89.629587024,93.325104236));
#33=VERTEX_POINT('',#32);
#34=CARTESIAN_POINT('',(14.579208967,102.629587024,93.325104236));
#35=VERTEX_POINT('',#34);
#36=CARTESIAN_POINT('',(14.579208967,89.629587024,93.325104236));
#37=DIRECTION('',(0.,1.,-0.));
#38=VECTOR('',#37,13.);
#39=LINE('',#36,#38);
#40=EDGE_CURVE('',#33,#35,#39,.T.);
#41=ORIENTED_EDGE('',*,*,#40,.F.);
#42=CARTESIAN_POINT('',(13.579391176,88.629587024,93.344193118));
#43=VERTEX_POINT('',#42);
#44=CARTESIAN_POINT('',(13.579391176,89.629587024,93.344193118));
#45=DIRECTION('',(-0.019088882,-0.,-0.999817791));
#46=DIRECTION('',(-0.999817791,0.,0.019088882));
#47=AXIS2_PLACEMENT_3D('',#44,#45,#46);
#48=CIRCLE('',#47,1.);
#49=EDGE_CURVE('',#33,#43,#48,.T.);
#50=ORIENTED_EDGE('',*,*,#49,.T.);
#51=CARTESIAN_POINT('',(0.581759897,88.629587024,93.592348584));
#52=VERTEX_POINT('',#51);
#53=CARTESIAN_POINT('',(0.581759897,88.629587024,93.592348584));
#54=DIRECTION('',(0.999817791,-0.,-0.019088882));
#55=VECTOR('',#54,13.);
#56=LINE('',#53,#55);
#57=EDGE_CURVE('',#52,#43,#56,.T.);
#58=ORIENTED_EDGE('',*,*,#57,.F.);
#59=CARTESIAN_POINT('',(-0.418057893,89.629587024,93.611437466));
#60=VERTEX_POINT('',#59);
#61=CARTESIAN_POINT('',(0.581759897,89.629587024,93.592348584));
#62=DIRECTION('',(-0.019088882,-0.,-0.999817791));
#63=DIRECTION('',(-0.999817791,0.,0.019088882));
#64=AXIS2_PLACEMENT_3D('',#61,#62,#63);
#65=CIRCLE('',#64,1.);
#66=EDGE_CURVE('',#52,#60,#65,.T.);
#67=ORIENTED_EDGE('',*,*,#66,.T.);
#68=CARTESIAN_POINT('',(-0.418057893,102.629587024,93.611437466));
#69=VERTEX_POINT('',#68);
#70=CARTESIAN_POINT('',(-0.418057893,102.629587024,93.611437466));
#71=DIRECTION('',(0.,-1.,0.));
#72=VECTOR('',#71,13.);
#73=LINE('',#70,#72);
#74=EDGE_CURVE('',#69,#60,#73,.T.);
#75=ORIENTED_EDGE('',*,*,#74,.F.);
#76=CARTESIAN_POINT('',(0.581759897,103.629587024,93.592348584));
#77=VERTEX_POINT('',#76);
#78=CARTESIAN_POINT('',(0.581759897,102.629587024,93.592348584));
#79=DIRECTION('',(-0.019088882,-0.,-0.999817791));
#80=DIRECTION('',(-0.999817791,0.,0.019088882));
#81=AXIS2_PLACEMENT_3D('',#78,#79,#80);
#82=CIRCLE('',#81,1.);
#83=EDGE_CURVE('',#69,#77,#82,.T.);
#84=ORIENTED_EDGE('',*,*,#83,.T.);
#85=CARTESIAN_POINT('',(13.579391176,103.629587024,93.344193118));
#86=VERTEX_POINT('',#85);
#87=CARTESIAN_POINT('',(13.579391176,103.629587024,93.344193118));
#88=DIRECTION('',(-0.999817791,0.,0.019088882));
#89=VECTOR('',#88,13.);
#90=LINE('',#87,#89);
#91=EDGE_CURVE('',#86,#77,#90,.T.);
#92=ORIENTED_EDGE('',*,*,#91,.F.);
#93=CARTESIAN_POINT('',(13.579391176,102.629587024,93.344193118));
#94=DIRECTION('',(-0.019088882,-0.,-0.999817791));
#95=DIRECTION('',(-0.999817791,0.,0.019088882));
#96=AXIS2_PLACEMENT_3D('',#93,#94,#95);
#97=CIRCLE('',#96,1.);
#98=EDGE_CURVE('',#86,#35,#97,.T.);
#99=ORIENTED_EDGE('',*,*,#98,.T.);
#100=EDGE_LOOP('',(#41,#50,#58,#67,#75,#84,#92,#99));
#101=FACE_BOUND('',#100,.T.);
#102=CARTESIAN_POINT('',(7.080575537,99.129587024,93.468270851));
#103=VERTEX_POINT('',#102);
#104=CARTESIAN_POINT('',(4.081122165,96.129587024,93.525537497));
#105=VERTEX_POINT('',#104);
#106=CARTESIAN_POINT('',(7.080575537,96.129587024,93.468270851));
#107=DIRECTION('',(-0.019088882,-0.,-0.999817791));
#108=DIRECTION('',(-0.999817791,0.,0.019088882));
#109=AXIS2_PLACEMENT_3D('',#106,#107,#108);
#110=CIRCLE('',#109,3.);
#111=EDGE_CURVE('',#103,#105,#110,.T.);
#112=ORIENTED_EDGE('',*,*,#111,.F.);
#113=CARTESIAN_POINT('',(7.080575537,96.129587024,93.468270851));
#114=DIRECTION('',(-0.019088882,-0.,-0.999817791));
#115=DIRECTION('',(-0.999817791,0.,0.019088882));
#116=AXIS2_PLACEMENT_3D('',#113,#114,#115);
#117=CIRCLE('',#116,3.);
#118=EDGE_CURVE('',#105,#103,#117,.T.);
#119=ORIENTED_EDGE('',*,*,#118,.F.);
#120=EDGE_LOOP('',(#112,#119));
#121=FACE_BOUND('',#120,.T.);
#122=ADVANCED_FACE('',(#101,#121),#31,.F.);
#123=CARTESIAN_POINT('',(7.080575537,96.129587024,93.468270851));
#124=DIRECTION('',(-0.019088882,-0.,-0.999817791));
#125=DIRECTION('',(0.,1.,-0.));
#126=AXIS2_PLACEMENT_3D('',#123,#124,#125);
#127=CYLINDRICAL_SURFACE('',#126,3.);
#128=CARTESIAN_POINT('',(7.271464357,99.129587024,103.466448758));
#129=VERTEX_POINT('',#128);
#130=CARTESIAN_POINT('',(7.080575537,99.129587024,93.468270851));
#131=DIRECTION('',(0.019088882,0.,0.999817791));
#132=VECTOR('',#131,10.);
#133=LINE('',#130,#132);
#134=EDGE_CURVE('',#103,#129,#133,.T.);
#135=ORIENTED_EDGE('',*,*,#134,.F.);
#136=ORIENTED_EDGE('',*,*,#111,.T.);
#137=ORIENTED_EDGE('',*,*,#118,.T.);
#138=ORIENTED_EDGE('',*,*,#134,.T.);
#139=CARTESIAN_POINT('',(4.272010985,96.129587024,103.523715404));
#140=VERTEX_POINT('',#139);
#141=CARTESIAN_POINT('',(7.271464357,96.129587024,103.466448758));
#142=DIRECTION('',(-0.019088882,-0.,-0.999817791));
#143=DIRECTION('',(-0.999817791,0.,0.019088882));
#144=AXIS2_PLACEMENT_3D('',#141,#142,#143);
#145=CIRCLE('',#144,3.);
#146=EDGE_CURVE('',#140,#129,#145,.T.);
#147=ORIENTED_EDGE('',*,*,#146,.F.);
#148=CARTESIAN_POINT('',(7.271464357,96.129587024,103.466448758));
#149=DIRECTION('',(-0.019088882,-0.,-0.999817791));
#150=DIRECTION('',(-0.999817791,0.,0.019088882));
#151=AXIS2_PLACEMENT_3D('',#148,#149,#150);
#152=CIRCLE('',#151,3.);
#153=EDGE_CURVE('',#129,#140,#152,.T.);
#154=ORIENTED_EDGE('',*,*,#153,.F.);
#155=EDGE_LOOP('',(#135,#136,#137,#138,#147,#154));
#156=FACE_BOUND('',#155,.T.);
#157=ADVANCED_FACE('',(#156),#127,.F.);
#158=CARTESIAN_POINT('',(7.271464357,96.129587024,103.466448758));
#159=DIRECTION('',(-0.019088882,-0.,-0.999817791));
#160=DIRECTION('',(0.,1.,-0.));
#161=AXIS2_PLACEMENT_3D('',#158,#159,#160);
#162=PLANE('',#161);
#163=ORIENTED_EDGE('',*,*,#146,.T.);
#164=ORIENTED_EDGE('',*,*,#153,.T.);
#165=EDGE_LOOP('',(#163,#164));
#166=FACE_BOUND('',#165,.T.);
#167=ADVANCED_FACE('',(#166),#162,.T.);
#168=CARTESIAN_POINT('',(14.678719894,102.629587024,150.923699684));
#169=DIRECTION('',(-0.019088882,-0.,-0.999817791));
#170=DIRECTION('',(0.,1.,-0.));
#171=AXIS2_PLACEMENT_3D('',#168,#169,#170);
#172=CYLINDRICAL_SURFACE('',#171,1.);
#173=CARTESIAN_POINT('',(13.991816996,103.629587024,114.945807661));
#174=VERTEX_POINT('',#173);
#175=CARTESIAN_POINT('',(13.991816996,103.629587024,114.945807661));
#176=DIRECTION('',(-0.019088882,-0.,-0.999817791));
#177=VECTOR('',#176,21.605551275);
#178=LINE('',#175,#177);
#179=EDGE_CURVE('',#174,#86,#178,.T.);
#180=ORIENTED_EDGE('',*,*,#179,.F.);
#181=CARTESIAN_POINT('',(14.922808844,102.629587024,111.321824468));
#182=VERTEX_POINT('',#181);
#183=CARTESIAN_POINT('',(14.922808844,102.629587024,111.321824468));
#184=CARTESIAN_POINT('',(14.928706361,102.746360893,111.630718544));
#185=CARTESIAN_POINT('',(14.914235688,102.862041572,111.937079028));
#186=CARTESIAN_POINT('',(14.879749787,102.972456536,112.242032783));
#187=CARTESIAN_POINT('',(14.845263886,103.082871499,112.546986537));
#188=CARTESIAN_POINT('',(14.790792471,103.188217855,112.850586938));
#189=CARTESIAN_POINT('',(14.714763327,103.282991191,113.154469442));
#190=CARTESIAN_POINT('',(14.638734184,103.377764528,113.458351946));
#191=CARTESIAN_POINT('',(14.539910872,103.462826247,113.76520267));
#192=CARTESIAN_POINT('',(14.41962145,103.525342743,114.064660557));
#193=CARTESIAN_POINT('',(14.299332028,103.587859238,114.364118445));
#194=CARTESIAN_POINT('',(14.157809802,103.629587024,114.65724153));
#195=CARTESIAN_POINT('',(13.991816996,103.629587024,114.945807661));
#196=B_SPLINE_CURVE_WITH_KNOTS('',3,(#183,#184,#185,#186,#187,#188,#189,#190,#191,#192,#193,#194,#195),.UNSPECIFIED.,.F.,.F.,(4,3,3,3,4),(0.,0.000984052,0.001968103,0.002952155,0.003936207),.UNSPECIFIED.);
#197=EDGE_CURVE('',#182,#174,#196,.T.);
#198=ORIENTED_EDGE('',*,*,#197,.F.);
#199=CARTESIAN_POINT('',(14.922808844,102.629587024,111.321824468));
#200=DIRECTION('',(-0.019088882,-0.,-0.999817791));
#201=VECTOR('',#200,18.);
#202=LINE('',#199,#201);
#203=EDGE_CURVE('',#182,#35,#202,.T.);
#204=ORIENTED_EDGE('',*,*,#203,.T.);
#205=ORIENTED_EDGE('',*,*,#98,.F.);
#206=EDGE_LOOP('',(#180,#198,#204,#205));
#207=FACE_BOUND('',#206,.T.);
#208=ADVANCED_FACE('',(#207),#172,.T.);
#209=CARTESIAN_POINT('',(14.579208967,88.629587024,93.325104236));
#210=DIRECTION('',(0.999817791,-0.,-0.019088882));
#211=DIRECTION('',(0.,1.,-0.));
#212=AXIS2_PLACEMENT_3D('',#209,#210,#211);
#213=PLANE('',#212);
#214=CARTESIAN_POINT('',(14.922808844,100.879587024,111.321824468));
#215=VERTEX_POINT('',#214);
#216=CARTESIAN_POINT('',(14.922808844,100.879587024,111.321824468));
#217=DIRECTION('',(0.,1.,-0.));
#218=VECTOR('',#217,1.75);
#219=LINE('',#216,#218);
#220=EDGE_CURVE('',#215,#182,#219,.T.);
#221=ORIENTED_EDGE('',*,*,#220,.F.);
#222=CARTESIAN_POINT('',(14.731920023,100.879587024,101.323646561));
#223=VERTEX_POINT('',#222);
#224=CARTESIAN_POINT('',(14.922808844,100.879587024,111.321824468));
#225=DIRECTION('',(-0.019088882,-0.,-0.999817791));
#226=VECTOR('',#225,10.);
#227=LINE('',#224,#226);
#228=EDGE_CURVE('',#215,#223,#227,.T.);
#229=ORIENTED_EDGE('',*,*,#228,.T.);
#230=CARTESIAN_POINT('',(14.731920023,91.379587024,101.323646561));
#231=VERTEX_POINT('',#230);
#232=CARTESIAN_POINT('',(14.731920023,100.879587024,101.323646561));
#233=DIRECTION('',(-0.,-1.,0.));
#234=VECTOR('',#233,9.5);
#235=LINE('',#232,#234);
#236=EDGE_CURVE('',#223,#231,#235,.T.);
#237=ORIENTED_EDGE('',*,*,#236,.T.);
#238=CARTESIAN_POINT('',(14.922808844,91.379587024,111.321824468));
#239=VERTEX_POINT('',#238);
#240=CARTESIAN_POINT('',(14.731920023,91.379587024,101.323646561));
#241=DIRECTION('',(0.019088882,0.,0.999817791));
#242=VECTOR('',#241,10.);
#243=LINE('',#240,#242);
#244=EDGE_CURVE('',#231,#239,#243,.T.);
#245=ORIENTED_EDGE('',*,*,#244,.T.);
#246=CARTESIAN_POINT('',(14.922808844,89.629587024,111.321824468));
#247=VERTEX_POINT('',#246);
#248=CARTESIAN_POINT('',(14.922808844,89.629587024,111.321824468));
#249=DIRECTION('',(0.,1.,-0.));
#250=VECTOR('',#249,1.75);
#251=LINE('',#248,#250);
#252=EDGE_CURVE('',#247,#239,#251,.T.);
#253=ORIENTED_EDGE('',*,*,#252,.F.);
#254=CARTESIAN_POINT('',(14.922808844,89.629587024,111.321824468));
#255=DIRECTION('',(-0.019088882,-0.,-0.999817791));
#256=VECTOR('',#255,18.);
#257=LINE('',#254,#256);
#258=EDGE_CURVE('',#247,#33,#257,.T.);
#259=ORIENTED_EDGE('',*,*,#258,.T.);
#260=ORIENTED_EDGE('',*,*,#40,.T.);
#261=ORIENTED_EDGE('',*,*,#203,.F.);
#262=EDGE_LOOP('',(#221,#229,#237,#245,#253,#259,#260,#261));
#263=FACE_BOUND('',#262,.T.);
#264=ADVANCED_FACE('',(#263),#213,.T.);
#265=CARTESIAN_POINT('',(14.678719894,89.629587024,150.923699684));
#266=DIRECTION('',(-0.019088882,-0.,-0.999817791));
#267=DIRECTION('',(0.999817791,-0.,-0.019088882));
#268=AXIS2_PLACEMENT_3D('',#265,#266,#267);
#269=CYLINDRICAL_SURFACE('',#268,1.);
#270=ORIENTED_EDGE('',*,*,#258,.F.);
#271=CARTESIAN_POINT('',(13.991816996,88.629587024,114.945807661));
#272=VERTEX_POINT('',#271);
#273=CARTESIAN_POINT('',(14.922808844,89.629587024,111.321824468));
#274=CARTESIAN_POINT('',(14.928706376,89.512815198,111.630719316));
#275=CARTESIAN_POINT('',(14.914235688,89.397132476,111.937079028));
#276=CARTESIAN_POINT('',(14.879749787,89.286717512,112.242032783));
#277=CARTESIAN_POINT('',(14.845263886,89.176302549,112.546986537));
#278=CARTESIAN_POINT('',(14.790792471,89.070956193,112.850586938));
#279=CARTESIAN_POINT('',(14.714763327,88.976182857,113.154469442));
#280=CARTESIAN_POINT('',(14.638734184,88.881409521,113.458351946));
#281=CARTESIAN_POINT('',(14.539910872,88.796347801,113.76520267));
#282=CARTESIAN_POINT('',(14.41962145,88.733831305,114.064660557));
#283=CARTESIAN_POINT('',(14.299332028,88.67131481,114.364118445));
#284=CARTESIAN_POINT('',(14.157809802,88.629587024,114.65724153));
#285=CARTESIAN_POINT('',(13.991816996,88.629587024,114.945807661));
#286=B_SPLINE_CURVE_WITH_KNOTS('',3,(#273,#274,#275,#276,#277,#278,#279,#280,#281,#282,#283,#284,#285),.UNSPECIFIED.,.F.,.F.,(4,3,3,3,4),(0.,0.000984052,0.001968103,0.002952155,0.003936207),.UNSPECIFIED.);
#287=EDGE_CURVE('',#247,#272,#286,.T.);
#288=ORIENTED_EDGE('',*,*,#287,.T.);
#289=CARTESIAN_POINT('',(13.991816996,88.629587024,114.945807661));
#290=DIRECTION('',(-0.019088882,-0.,-0.999817791));
#291=VECTOR('',#290,21.605551275);
#292=LINE('',#289,#291);
#293=EDGE_CURVE('',#272,#43,#292,.T.);
#294=ORIENTED_EDGE('',*,*,#293,.T.);
#295=ORIENTED_EDGE('',*,*,#49,.F.);
#296=EDGE_LOOP('',(#270,#288,#294,#295));
#297=FACE_BOUND('',#296,.T.);
#298=ADVANCED_FACE('',(#297),#269,.T.);
#299=CARTESIAN_POINT('',(-0.418057893,88.629587024,93.611437466));
#300=DIRECTION('',(0.,-1.,0.));
#301=DIRECTION('',(0.999817791,-0.,-0.019088882));
#302=AXIS2_PLACEMENT_3D('',#299,#300,#301);
#303=PLANE('',#302);
#304=CARTESIAN_POINT('',(0.994185717,88.629587024,115.193963127));
#305=VERTEX_POINT('',#304);
#306=CARTESIAN_POINT('',(0.994185717,88.629587024,115.193963127));
#307=DIRECTION('',(-0.019088882,-0.,-0.999817791));
#308=VECTOR('',#307,21.605551275);
#309=LINE('',#306,#308);
#310=EDGE_CURVE('',#305,#52,#309,.T.);
#311=ORIENTED_EDGE('',*,*,#310,.T.);
#312=ORIENTED_EDGE('',*,*,#57,.T.);
#313=ORIENTED_EDGE('',*,*,#293,.F.);
#314=CARTESIAN_POINT('',(8.057706483,88.629587024,118.454171177));
#315=VERTEX_POINT('',#314);
#316=CARTESIAN_POINT('',(7.924084309,88.629587024,111.455446642));
#317=DIRECTION('',(0.,-1.,0.));
#318=DIRECTION('',(-0.999817791,0.,0.019088882));
#319=AXIS2_PLACEMENT_3D('',#316,#317,#318);
#320=CIRCLE('',#319,7.);
#321=EDGE_CURVE('',#272,#315,#320,.T.);
#322=ORIENTED_EDGE('',*,*,#321,.T.);
#323=CARTESIAN_POINT('',(7.057888693,88.629587024,118.473260059));
#324=VERTEX_POINT('',#323);
#325=CARTESIAN_POINT('',(7.057888693,88.629587024,118.473260059));
#326=DIRECTION('',(0.999817791,-0.,-0.019088882));
#327=VECTOR('',#326,1.);
#328=LINE('',#325,#327);
#329=EDGE_CURVE('',#324,#315,#328,.T.);
#330=ORIENTED_EDGE('',*,*,#329,.F.);
#331=CARTESIAN_POINT('',(6.924266518,88.629587024,111.474535524));
#332=DIRECTION('',(0.,-1.,0.));
#333=DIRECTION('',(0.999817791,-0.,-0.019088882));
#334=AXIS2_PLACEMENT_3D('',#331,#332,#333);
#335=CIRCLE('',#334,7.);
#336=EDGE_CURVE('',#324,#305,#335,.T.);
#337=ORIENTED_EDGE('',*,*,#336,.T.);
#338=EDGE_LOOP('',(#311,#312,#313,#322,#330,#337));
#339=FACE_BOUND('',#338,.T.);
#340=CARTESIAN_POINT('',(5.904401642,88.629587024,115.682270293));
#341=VERTEX_POINT('',#340);
#342=CARTESIAN_POINT('',(7.504110107,88.629587024,115.651728082));
#343=DIRECTION('',(-0.,1.,-0.));
#344=DIRECTION('',(-0.999817791,0.,0.019088882));
#345=AXIS2_PLACEMENT_3D('',#342,#343,#344);
#346=CIRCLE('',#345,1.6);
#347=EDGE_CURVE('',#341,#341,#346,.T.);
#348=ORIENTED_EDGE('',*,*,#347,.T.);
#349=EDGE_LOOP('',(#348));
#350=FACE_BOUND('',#349,.T.);
#351=ADVANCED_FACE('',(#339,#350),#303,.T.);
#352=CARTESIAN_POINT('',(7.504110107,103.629587024,115.651728082));
#353=DIRECTION('',(-0.,1.,-0.));
#354=DIRECTION('',(-0.999817791,0.,0.019088882));
#355=AXIS2_PLACEMENT_3D('',#352,#353,#354);
#356=CYLINDRICAL_SURFACE('',#355,1.6);
#357=CARTESIAN_POINT('',(5.904401642,103.629587024,115.682270293));
#358=VERTEX_POINT('',#357);
#359=CARTESIAN_POINT('',(5.904401642,99.879587024,115.682270293));
#360=VERTEX_POINT('',#359);
#361=CARTESIAN_POINT('',(5.904401642,103.629587024,115.682270293));
#362=DIRECTION('',(-0.,-1.,0.));
#363=VECTOR('',#362,3.75);
#364=LINE('',#361,#363);
#365=EDGE_CURVE('',#358,#360,#364,.T.);
#366=ORIENTED_EDGE('',*,*,#365,.F.);
#367=CARTESIAN_POINT('',(7.504110107,103.629587024,115.651728082));
#368=DIRECTION('',(-0.,1.,-0.));
#369=DIRECTION('',(-0.999817791,0.,0.019088882));
#370=AXIS2_PLACEMENT_3D('',#367,#368,#369);
#371=CIRCLE('',#370,1.6);
#372=EDGE_CURVE('',#358,#358,#371,.T.);
#373=ORIENTED_EDGE('',*,*,#372,.T.);
#374=ORIENTED_EDGE('',*,*,#365,.T.);
#375=CARTESIAN_POINT('',(7.504110107,99.879587024,115.651728082));
#376=DIRECTION('',(-0.,1.,-0.));
#377=DIRECTION('',(-0.999817791,0.,0.019088882));
#378=AXIS2_PLACEMENT_3D('',#375,#376,#377);
#379=CIRCLE('',#378,1.6);
#380=EDGE_CURVE('',#360,#360,#379,.T.);
#381=ORIENTED_EDGE('',*,*,#380,.F.);
#382=EDGE_LOOP('',(#366,#373,#374,#381));
#383=FACE_BOUND('',#382,.T.);
#384=ADVANCED_FACE('',(#383),#356,.F.);
#385=CARTESIAN_POINT('',(7.504110107,103.629587024,115.651728082));
#386=DIRECTION('',(-0.,1.,-0.));
#387=DIRECTION('',(-0.999817791,0.,0.019088882));
#388=AXIS2_PLACEMENT_3D('',#385,#386,#387);
#389=CYLINDRICAL_SURFACE('',#388,1.6);
#390=CARTESIAN_POINT('',(5.904401642,92.379587024,115.682270293));
#391=VERTEX_POINT('',#390);
#392=CARTESIAN_POINT('',(5.904401642,92.379587024,115.682270293));
#393=DIRECTION('',(-0.,-1.,0.));
#394=VECTOR('',#393,3.75);
#395=LINE('',#392,#394);
#396=EDGE_CURVE('',#391,#341,#395,.T.);
#397=ORIENTED_EDGE('',*,*,#396,.F.);
#398=CARTESIAN_POINT('',(7.504110107,92.379587024,115.651728082));
#399=DIRECTION('',(-0.,1.,-0.));
#400=DIRECTION('',(-0.999817791,0.,0.019088882));
#401=AXIS2_PLACEMENT_3D('',#398,#399,#400);
#402=CIRCLE('',#401,1.6);
#403=EDGE_CURVE('',#391,#391,#402,.T.);
#404=ORIENTED_EDGE('',*,*,#403,.T.);
#405=ORIENTED_EDGE('',*,*,#396,.T.);
#406=ORIENTED_EDGE('',*,*,#347,.F.);
#407=EDGE_LOOP('',(#397,#404,#405,#406));
#408=FACE_BOUND('',#407,.T.);
#409=ADVANCED_FACE('',(#408),#389,.F.);
#410=CARTESIAN_POINT('',(14.579208967,103.629587024,93.325104236));
#411=DIRECTION('',(-0.,1.,-0.));
#412=DIRECTION('',(-0.999817791,0.,0.019088882));
#413=AXIS2_PLACEMENT_3D('',#410,#411,#412);
#414=PLANE('',#413);
#415=CARTESIAN_POINT('',(8.057706483,103.629587024,118.454171177));
#416=VERTEX_POINT('',#415);
#417=CARTESIAN_POINT('',(7.057888693,103.629587024,118.473260059));
#418=VERTEX_POINT('',#417);
#419=CARTESIAN_POINT('',(8.057706483,103.629587024,118.454171177));
#420=DIRECTION('',(-0.999817791,0.,0.019088882));
#421=VECTOR('',#420,1.);
#422=LINE('',#419,#421);
#423=EDGE_CURVE('',#416,#418,#422,.T.);
#424=ORIENTED_EDGE('',*,*,#423,.F.);
#425=CARTESIAN_POINT('',(7.924084309,103.629587024,111.455446642));
#426=DIRECTION('',(-0.,1.,-0.));
#427=DIRECTION('',(-0.999817791,0.,0.019088882));
#428=AXIS2_PLACEMENT_3D('',#425,#426,#427);
#429=CIRCLE('',#428,7.);
#430=EDGE_CURVE('',#416,#174,#429,.T.);
#431=ORIENTED_EDGE('',*,*,#430,.T.);
#432=ORIENTED_EDGE('',*,*,#179,.T.);
#433=ORIENTED_EDGE('',*,*,#91,.T.);
#434=CARTESIAN_POINT('',(0.994185717,103.629587024,115.193963127));
#435=VERTEX_POINT('',#434);
#436=CARTESIAN_POINT('',(0.994185717,103.629587024,115.193963127));
#437=DIRECTION('',(-0.019088882,-0.,-0.999817791));
#438=VECTOR('',#437,21.605551275);
#439=LINE('',#436,#438);
#440=EDGE_CURVE('',#435,#77,#439,.T.);
#441=ORIENTED_EDGE('',*,*,#440,.F.);
#442=CARTESIAN_POINT('',(6.924266518,103.629587024,111.474535524));
#443=DIRECTION('',(-0.,1.,-0.));
#444=DIRECTION('',(0.999817791,-0.,-0.019088882));
#445=AXIS2_PLACEMENT_3D('',#442,#443,#444);
#446=CIRCLE('',#445,7.);
#447=EDGE_CURVE('',#435,#418,#446,.T.);
#448=ORIENTED_EDGE('',*,*,#447,.T.);
#449=EDGE_LOOP('',(#424,#431,#432,#433,#441,#448));
#450=FACE_BOUND('',#449,.T.);
#451=ORIENTED_EDGE('',*,*,#372,.F.);
#452=EDGE_LOOP('',(#451));
#453=FACE_BOUND('',#452,.T.);
#454=ADVANCED_FACE('',(#450,#453),#414,.T.);
#455=CARTESIAN_POINT('',(14.865542198,99.879587024,108.322371096));
#456=DIRECTION('',(0.,1.,-0.));
#457=DIRECTION('',(0.019088882,0.,0.999817791));
#458=AXIS2_PLACEMENT_3D('',#455,#456,#457);
#459=PLANE('',#458);
#460=CARTESIAN_POINT('',(13.991816996,99.879587024,114.945807661));
#461=VERTEX_POINT('',#460);
#462=CARTESIAN_POINT('',(8.057706483,99.879587024,118.454171177));
#463=VERTEX_POINT('',#462);
#464=CARTESIAN_POINT('',(7.924084309,99.879587024,111.455446642));
#465=DIRECTION('',(0.,-1.,0.));
#466=DIRECTION('',(-0.999817791,0.,0.019088882));
#467=AXIS2_PLACEMENT_3D('',#464,#465,#466);
#468=CIRCLE('',#467,7.);
#469=EDGE_CURVE('',#461,#463,#468,.T.);
#470=ORIENTED_EDGE('',*,*,#469,.T.);
#471=CARTESIAN_POINT('',(7.057888693,99.879587024,118.473260059));
#472=VERTEX_POINT('',#471);
#473=CARTESIAN_POINT('',(8.057706483,99.879587024,118.454171177));
#474=DIRECTION('',(-0.999817791,0.,0.019088882));
#475=VECTOR('',#474,1.);
#476=LINE('',#473,#475);
#477=EDGE_CURVE('',#463,#472,#476,.T.);
#478=ORIENTED_EDGE('',*,*,#477,.T.);
#479=CARTESIAN_POINT('',(0.994185717,99.879587024,115.193963127));
#480=VERTEX_POINT('',#479);
#481=CARTESIAN_POINT('',(6.924266518,99.879587024,111.474535524));
#482=DIRECTION('',(0.,-1.,0.));
#483=DIRECTION('',(0.999817791,-0.,-0.019088882));
#484=AXIS2_PLACEMENT_3D('',#481,#482,#483);
#485=CIRCLE('',#484,7.);
#486=EDGE_CURVE('',#472,#480,#485,.T.);
#487=ORIENTED_EDGE('',*,*,#486,.T.);
#488=CARTESIAN_POINT('',(0.803296897,99.879587024,105.19578522));
#489=VERTEX_POINT('',#488);
#490=CARTESIAN_POINT('',(0.803296897,99.879587024,105.19578522));
#491=DIRECTION('',(0.019088882,0.,0.999817791));
#492=VECTOR('',#491,10.);
#493=LINE('',#490,#492);
#494=EDGE_CURVE('',#489,#480,#493,.T.);
#495=ORIENTED_EDGE('',*,*,#494,.F.);
#496=CARTESIAN_POINT('',(6.866999872,99.879587024,108.475082152));
#497=VERTEX_POINT('',#496);
#498=CARTESIAN_POINT('',(6.733377698,99.879587024,101.476357618));
#499=DIRECTION('',(-0.,1.,-0.));
#500=DIRECTION('',(-0.999817791,0.,0.019088882));
#501=AXIS2_PLACEMENT_3D('',#498,#499,#500);
#502=CIRCLE('',#501,7.);
#503=EDGE_CURVE('',#489,#497,#502,.T.);
#504=ORIENTED_EDGE('',*,*,#503,.T.);
#505=CARTESIAN_POINT('',(7.866817663,99.879587024,108.45599327));
#506=VERTEX_POINT('',#505);
#507=CARTESIAN_POINT('',(7.866817663,99.879587024,108.45599327));
#508=DIRECTION('',(-0.999817791,0.,0.019088882));
#509=VECTOR('',#508,1.);
#510=LINE('',#507,#509);
#511=EDGE_CURVE('',#506,#497,#510,.T.);
#512=ORIENTED_EDGE('',*,*,#511,.F.);
#513=CARTESIAN_POINT('',(13.800928176,99.879587024,104.947629754));
#514=VERTEX_POINT('',#513);
#515=CARTESIAN_POINT('',(7.733195489,99.879587024,101.457268736));
#516=DIRECTION('',(-0.,1.,-0.));
#517=DIRECTION('',(0.999817791,-0.,-0.019088882));
#518=AXIS2_PLACEMENT_3D('',#515,#516,#517);
#519=CIRCLE('',#518,7.);
#520=EDGE_CURVE('',#506,#514,#519,.T.);
#521=ORIENTED_EDGE('',*,*,#520,.T.);
#522=CARTESIAN_POINT('',(13.991816996,99.879587024,114.945807661));
#523=DIRECTION('',(-0.019088882,-0.,-0.999817791));
#524=VECTOR('',#523,10.);
#525=LINE('',#522,#524);
#526=EDGE_CURVE('',#461,#514,#525,.T.);
#527=ORIENTED_EDGE('',*,*,#526,.F.);
#528=EDGE_LOOP('',(#470,#478,#487,#495,#504,#512,#521,#527));
#529=FACE_BOUND('',#528,.T.);
#530=ORIENTED_EDGE('',*,*,#380,.T.);
#531=EDGE_LOOP('',(#530));
#532=FACE_BOUND('',#531,.T.);
#533=ADVANCED_FACE('',(#529,#532),#459,.F.);
#534=CARTESIAN_POINT('',(14.678719894,100.879587024,150.923699684));
#535=DIRECTION('',(-0.019088882,-0.,-0.999817791));
#536=DIRECTION('',(0.999817791,-0.,-0.019088882));
#537=AXIS2_PLACEMENT_3D('',#534,#535,#536);
#538=CYLINDRICAL_SURFACE('',#537,1.);
#539=CARTESIAN_POINT('',(13.800928176,99.879587024,104.947629754));
#540=CARTESIAN_POINT('',(13.966920982,99.879587024,104.659063623));
#541=CARTESIAN_POINT('',(14.108443207,99.92131481,104.365940538));
#542=CARTESIAN_POINT('',(14.228732629,99.983831305,104.06648265));
#543=CARTESIAN_POINT('',(14.349022051,100.046347801,103.767024763));
#544=CARTESIAN_POINT('',(14.447845363,100.131409521,103.460174039));
#545=CARTESIAN_POINT('',(14.523874507,100.226182857,103.156291535));
#546=CARTESIAN_POINT('',(14.599903651,100.320956193,102.852409031));
#547=CARTESIAN_POINT('',(14.654375066,100.426302549,102.54880863));
#548=CARTESIAN_POINT('',(14.688860967,100.536717512,102.243854876));
#549=CARTESIAN_POINT('',(14.723346868,100.647132476,101.938901121));
#550=CARTESIAN_POINT('',(14.737817555,100.762815198,101.632541409));
#551=CARTESIAN_POINT('',(14.731920023,100.879587024,101.323646561));
#552=B_SPLINE_CURVE_WITH_KNOTS('',3,(#539,#540,#541,#542,#543,#544,#545,#546,#547,#548,#549,#550,#551),.UNSPECIFIED.,.F.,.F.,(4,3,3,3,4),(0.,0.000984052,0.001968103,0.002952155,0.003936207),.UNSPECIFIED.);
#553=EDGE_CURVE('',#514,#223,#552,.T.);
#554=ORIENTED_EDGE('',*,*,#553,.T.);
#555=ORIENTED_EDGE('',*,*,#228,.F.);
#556=CARTESIAN_POINT('',(14.922808844,100.879587024,111.321824468));
#557=CARTESIAN_POINT('',(14.928706376,100.762815198,111.630719316));
#558=CARTESIAN_POINT('',(14.914235688,100.647132476,111.937079028));
#559=CARTESIAN_POINT('',(14.879749787,100.536717512,112.242032783));
#560=CARTESIAN_POINT('',(14.845263886,100.426302549,112.546986537));
#561=CARTESIAN_POINT('',(14.790792471,100.320956193,112.850586938));
#562=CARTESIAN_POINT('',(14.714763327,100.226182857,113.154469442));
#563=CARTESIAN_POINT('',(14.638734184,100.131409521,113.458351946));
#564=CARTESIAN_POINT('',(14.539910872,100.046347801,113.76520267));
#565=CARTESIAN_POINT('',(14.41962145,99.983831305,114.064660557));
#566=CARTESIAN_POINT('',(14.299332028,99.92131481,114.364118445));
#567=CARTESIAN_POINT('',(14.157809802,99.879587024,114.65724153));
#568=CARTESIAN_POINT('',(13.991816996,99.879587024,114.945807661));
#569=B_SPLINE_CURVE_WITH_KNOTS('',3,(#556,#557,#558,#559,#560,#561,#562,#563,#564,#565,#566,#567,#568),.UNSPECIFIED.,.F.,.F.,(4,3,3,3,4),(0.,0.000984052,0.001968103,0.002952155,0.003936207),.UNSPECIFIED.);
#570=EDGE_CURVE('',#215,#461,#569,.T.);
#571=ORIENTED_EDGE('',*,*,#570,.T.);
#572=ORIENTED_EDGE('',*,*,#526,.T.);
#573=EDGE_LOOP('',(#554,#555,#571,#572));
#574=FACE_BOUND('',#573,.T.);
#575=ADVANCED_FACE('',(#574),#538,.T.);
#576=CARTESIAN_POINT('',(7.924084309,69.075587024,111.455446642));
#577=DIRECTION('',(0.,1.,-0.));
#578=DIRECTION('',(0.019088882,0.,0.999817791));
#579=AXIS2_PLACEMENT_3D('',#576,#577,#578);
#580=CYLINDRICAL_SURFACE('',#579,7.);
#581=CARTESIAN_POINT('',(8.057706483,99.879587024,118.454171177));
#582=DIRECTION('',(0.,1.,-0.));
#583=VECTOR('',#582,3.75);
#584=LINE('',#581,#583);
#585=EDGE_CURVE('',#463,#416,#584,.T.);
#586=ORIENTED_EDGE('',*,*,#585,.F.);
#587=ORIENTED_EDGE('',*,*,#469,.F.);
#588=ORIENTED_EDGE('',*,*,#570,.F.);
#589=ORIENTED_EDGE('',*,*,#220,.T.);
#590=ORIENTED_EDGE('',*,*,#197,.T.);
#591=ORIENTED_EDGE('',*,*,#430,.F.);
#592=EDGE_LOOP('',(#586,#587,#588,#589,#590,#591));
#593=FACE_BOUND('',#592,.T.);
#594=ADVANCED_FACE('',(#593),#580,.T.);
#595=CARTESIAN_POINT('',(7.557797588,96.129587024,118.463715618));
#596=DIRECTION('',(0.019088882,0.,0.999817791));
#597=DIRECTION('',(0.,1.,-0.));
#598=AXIS2_PLACEMENT_3D('',#595,#596,#597);
#599=PLANE('',#598);
#600=ORIENTED_EDGE('',*,*,#477,.F.);
#601=ORIENTED_EDGE('',*,*,#585,.T.);
#602=ORIENTED_EDGE('',*,*,#423,.T.);
#603=CARTESIAN_POINT('',(7.057888693,103.629587024,118.473260059));
#604=DIRECTION('',(-0.,-1.,0.));
#605=VECTOR('',#604,3.75);
#606=LINE('',#603,#605);
#607=EDGE_CURVE('',#418,#472,#606,.T.);
#608=ORIENTED_EDGE('',*,*,#607,.T.);
#609=EDGE_LOOP('',(#600,#601,#602,#608));
#610=FACE_BOUND('',#609,.T.);
#611=ADVANCED_FACE('',(#610),#599,.T.);
#612=CARTESIAN_POINT('',(7.557797588,96.129587024,118.463715618));
#613=DIRECTION('',(0.019088882,0.,0.999817791));
#614=DIRECTION('',(0.,1.,-0.));
#615=AXIS2_PLACEMENT_3D('',#612,#613,#614);
#616=PLANE('',#615);
#617=ORIENTED_EDGE('',*,*,#329,.T.);
#618=CARTESIAN_POINT('',(8.057706483,92.379587024,118.454171177));
#619=VERTEX_POINT('',#618);
#620=CARTESIAN_POINT('',(8.057706483,88.629587024,118.454171177));
#621=DIRECTION('',(0.,1.,-0.));
#622=VECTOR('',#621,3.75);
#623=LINE('',#620,#622);
#624=EDGE_CURVE('',#315,#619,#623,.T.);
#625=ORIENTED_EDGE('',*,*,#624,.T.);
#626=CARTESIAN_POINT('',(7.057888693,92.379587024,118.473260059));
#627=VERTEX_POINT('',#626);
#628=CARTESIAN_POINT('',(8.057706483,92.379587024,118.454171177));
#629=DIRECTION('',(-0.999817791,0.,0.019088882));
#630=VECTOR('',#629,1.);
#631=LINE('',#628,#630);
#632=EDGE_CURVE('',#619,#627,#631,.T.);
#633=ORIENTED_EDGE('',*,*,#632,.T.);
#634=CARTESIAN_POINT('',(7.057888693,92.379587024,118.473260059));
#635=DIRECTION('',(-0.,-1.,0.));
#636=VECTOR('',#635,3.75);
#637=LINE('',#634,#636);
#638=EDGE_CURVE('',#627,#324,#637,.T.);
#639=ORIENTED_EDGE('',*,*,#638,.T.);
#640=EDGE_LOOP('',(#617,#625,#633,#639));
#641=FACE_BOUND('',#640,.T.);
#642=ADVANCED_FACE('',(#641),#616,.T.);
#643=CARTESIAN_POINT('',(6.924266518,123.183587024,111.474535524));
#644=DIRECTION('',(0.,-1.,0.));
#645=DIRECTION('',(0.019088882,0.,0.999817791));
#646=AXIS2_PLACEMENT_3D('',#643,#644,#645);
#647=CYLINDRICAL_SURFACE('',#646,7.);
#648=CARTESIAN_POINT('',(-0.074458016,100.879587024,111.608157699));
#649=VERTEX_POINT('',#648);
#650=CARTESIAN_POINT('',(0.994185717,99.879587024,115.193963127));
#651=CARTESIAN_POINT('',(0.81729908,99.879587024,114.911943375));
#652=CARTESIAN_POINT('',(0.664691247,99.92131481,114.624435927));
#653=CARTESIAN_POINT('',(0.533058938,99.983831305,114.32978782));
#654=CARTESIAN_POINT('',(0.40142663,100.046347801,114.035139713));
#655=CARTESIAN_POINT('',(0.290962598,100.131409521,113.732284778));
#656=CARTESIAN_POINT('',(0.203389422,100.226182857,113.431525829));
#657=CARTESIAN_POINT('',(0.115816245,100.320956193,113.13076688));
#658=CARTESIAN_POINT('',(0.049795855,100.426302549,112.829466952));
#659=CARTESIAN_POINT('',(0.003694755,100.536717512,112.526051793));
#660=CARTESIAN_POINT('',(-0.042406345,100.647132476,112.222636635));
#661=CARTESIAN_POINT('',(-0.068560499,100.762813155,111.917051775));
#662=CARTESIAN_POINT('',(-0.074458016,100.879587024,111.608157699));
#663=B_SPLINE_CURVE_WITH_KNOTS('',3,(#650,#651,#652,#653,#654,#655,#656,#657,#658,#659,#660,#661,#662),.UNSPECIFIED.,.F.,.F.,(4,3,3,3,4),(0.,0.000984052,0.001968103,0.002952155,0.003936207),.UNSPECIFIED.);
#664=EDGE_CURVE('',#480,#649,#663,.T.);
#665=ORIENTED_EDGE('',*,*,#664,.F.);
#666=ORIENTED_EDGE('',*,*,#486,.F.);
#667=ORIENTED_EDGE('',*,*,#607,.F.);
#668=ORIENTED_EDGE('',*,*,#447,.F.);
#669=CARTESIAN_POINT('',(-0.074458016,102.629587024,111.608157699));
#670=VERTEX_POINT('',#669);
#671=CARTESIAN_POINT('',(-0.074458016,102.629587024,111.608157699));
#672=CARTESIAN_POINT('',(-0.068560485,102.74635885,111.917052547));
#673=CARTESIAN_POINT('',(-0.042406345,102.862041572,112.222636635));
#674=CARTESIAN_POINT('',(0.003694755,102.972456536,112.526051793));
#675=CARTESIAN_POINT('',(0.049795855,103.082871499,112.829466952));
#676=CARTESIAN_POINT('',(0.115816245,103.188217855,113.13076688));
#677=CARTESIAN_POINT('',(0.203389422,103.282991191,113.431525829));
#678=CARTESIAN_POINT('',(0.290962598,103.377764528,113.732284778));
#679=CARTESIAN_POINT('',(0.40142663,103.462826247,114.035139713));
#680=CARTESIAN_POINT('',(0.533058938,103.525342743,114.32978782));
#681=CARTESIAN_POINT('',(0.664691247,103.587859238,114.624435927));
#682=CARTESIAN_POINT('',(0.81729908,103.629587024,114.911943375));
#683=CARTESIAN_POINT('',(0.994185717,103.629587024,115.193963127));
#684=B_SPLINE_CURVE_WITH_KNOTS('',3,(#671,#672,#673,#674,#675,#676,#677,#678,#679,#680,#681,#682,#683),.UNSPECIFIED.,.F.,.F.,(4,3,3,3,4),(0.,0.000984052,0.001968103,0.002952155,0.003936207),.UNSPECIFIED.);
#685=EDGE_CURVE('',#670,#435,#684,.T.);
#686=ORIENTED_EDGE('',*,*,#685,.F.);
#687=CARTESIAN_POINT('',(-0.074458016,102.629587024,111.608157699));
#688=DIRECTION('',(0.,-1.,0.));
#689=VECTOR('',#688,1.75);
#690=LINE('',#687,#689);
#691=EDGE_CURVE('',#670,#649,#690,.T.);
#692=ORIENTED_EDGE('',*,*,#691,.T.);
#693=EDGE_LOOP('',(#665,#666,#667,#668,#686,#692));
#694=FACE_BOUND('',#693,.T.);
#695=ADVANCED_FACE('',(#694),#647,.T.);
#696=CARTESIAN_POINT('',(-0.418057893,103.629587024,93.611437466));
#697=DIRECTION('',(-0.999817791,0.,0.019088882));
#698=DIRECTION('',(-0.,-1.,0.));
#699=AXIS2_PLACEMENT_3D('',#696,#697,#698);
#700=PLANE('',#699);
#701=CARTESIAN_POINT('',(-0.074458016,102.629587024,111.608157699));
#702=DIRECTION('',(-0.019088882,-0.,-0.999817791));
#703=VECTOR('',#702,18.);
#704=LINE('',#701,#703);
#705=EDGE_CURVE('',#670,#69,#704,.T.);
#706=ORIENTED_EDGE('',*,*,#705,.T.);
#707=ORIENTED_EDGE('',*,*,#74,.T.);
#708=CARTESIAN_POINT('',(-0.074458016,89.629587024,111.608157699));
#709=VERTEX_POINT('',#708);
#710=CARTESIAN_POINT('',(-0.074458016,89.629587024,111.608157699));
#711=DIRECTION('',(-0.019088882,-0.,-0.999817791));
#712=VECTOR('',#711,18.);
#713=LINE('',#710,#712);
#714=EDGE_CURVE('',#709,#60,#713,.T.);
#715=ORIENTED_EDGE('',*,*,#714,.F.);
#716=CARTESIAN_POINT('',(-0.074458016,91.379587024,111.608157699));
#717=VERTEX_POINT('',#716);
#718=CARTESIAN_POINT('',(-0.074458016,91.379587024,111.608157699));
#719=DIRECTION('',(0.,-1.,0.));
#720=VECTOR('',#719,1.75);
#721=LINE('',#718,#720);
#722=EDGE_CURVE('',#717,#709,#721,.T.);
#723=ORIENTED_EDGE('',*,*,#722,.F.);
#724=CARTESIAN_POINT('',(-0.265346837,91.379587024,101.609979792));
#725=VERTEX_POINT('',#724);
#726=CARTESIAN_POINT('',(-0.074458016,91.379587024,111.608157699));
#727=DIRECTION('',(-0.019088882,-0.,-0.999817791));
#728=VECTOR('',#727,10.);
#729=LINE('',#726,#728);
#730=EDGE_CURVE('',#717,#725,#729,.T.);
#731=ORIENTED_EDGE('',*,*,#730,.T.);
#732=CARTESIAN_POINT('',(-0.265346837,100.879587024,101.609979792));
#733=VERTEX_POINT('',#732);
#734=CARTESIAN_POINT('',(-0.265346837,91.379587024,101.609979792));
#735=DIRECTION('',(-0.,1.,-0.));
#736=VECTOR('',#735,9.5);
#737=LINE('',#734,#736);
#738=EDGE_CURVE('',#725,#733,#737,.T.);
#739=ORIENTED_EDGE('',*,*,#738,.T.);
#740=CARTESIAN_POINT('',(-0.265346837,100.879587024,101.609979792));
#741=DIRECTION('',(0.019088882,0.,0.999817791));
#742=VECTOR('',#741,10.);
#743=LINE('',#740,#742);
#744=EDGE_CURVE('',#733,#649,#743,.T.);
#745=ORIENTED_EDGE('',*,*,#744,.T.);
#746=ORIENTED_EDGE('',*,*,#691,.F.);
#747=EDGE_LOOP('',(#706,#707,#715,#723,#731,#739,#745,#746));
#748=FACE_BOUND('',#747,.T.);
#749=ADVANCED_FACE('',(#748),#700,.T.);
#750=CARTESIAN_POINT('',(-0.040346769,100.879587024,61.008286786));
#751=DIRECTION('',(0.019088882,0.,0.999817791));
#752=DIRECTION('',(-0.999817791,0.,0.019088882));
#753=AXIS2_PLACEMENT_3D('',#750,#751,#752);
#754=CYLINDRICAL_SURFACE('',#753,1.);
#755=CARTESIAN_POINT('',(0.803296897,99.879587024,105.19578522));
#756=CARTESIAN_POINT('',(0.626410259,99.879587024,104.913765468));
#757=CARTESIAN_POINT('',(0.473802426,99.92131481,104.62625802));
#758=CARTESIAN_POINT('',(0.342170118,99.983831305,104.331609913));
#759=CARTESIAN_POINT('',(0.21053781,100.046347801,104.036961806));
#760=CARTESIAN_POINT('',(0.100073778,100.131409521,103.734106871));
#761=CARTESIAN_POINT('',(0.012500601,100.226182857,103.433347922));
#762=CARTESIAN_POINT('',(-0.075072575,100.320956193,103.132588973));
#763=CARTESIAN_POINT('',(-0.141092966,100.426302549,102.831289045));
#764=CARTESIAN_POINT('',(-0.187194066,100.536717512,102.527873886));
#765=CARTESIAN_POINT('',(-0.233295166,100.647132476,102.224458728));
#766=CARTESIAN_POINT('',(-0.25944932,100.762813155,101.918873868));
#767=CARTESIAN_POINT('',(-0.265346837,100.879587024,101.609979792));
#768=B_SPLINE_CURVE_WITH_KNOTS('',3,(#755,#756,#757,#758,#759,#760,#761,#762,#763,#764,#765,#766,#767),.UNSPECIFIED.,.F.,.F.,(4,3,3,3,4),(0.,0.000984052,0.001968103,0.002952155,0.003936207),.UNSPECIFIED.);
#769=EDGE_CURVE('',#489,#733,#768,.T.);
#770=ORIENTED_EDGE('',*,*,#769,.F.);
#771=ORIENTED_EDGE('',*,*,#494,.T.);
#772=ORIENTED_EDGE('',*,*,#664,.T.);
#773=ORIENTED_EDGE('',*,*,#744,.F.);
#774=EDGE_LOOP('',(#770,#771,#772,#773));
#775=FACE_BOUND('',#774,.T.);
#776=ADVANCED_FACE('',(#775),#754,.T.);
#777=CARTESIAN_POINT('',(6.733377698,69.075587024,101.476357618));
#778=DIRECTION('',(-0.,1.,-0.));
#779=DIRECTION('',(-0.999817791,0.,0.019088882));
#780=AXIS2_PLACEMENT_3D('',#777,#778,#779);
#781=CYLINDRICAL_SURFACE('',#780,7.);
#782=CARTESIAN_POINT('',(0.803296897,92.379587024,105.19578522));
#783=VERTEX_POINT('',#782);
#784=CARTESIAN_POINT('',(0.803296897,92.379587024,105.19578522));
#785=CARTESIAN_POINT('',(0.626410259,92.379587024,104.913765468));
#786=CARTESIAN_POINT('',(0.473802426,92.337859238,104.62625802));
#787=CARTESIAN_POINT('',(0.342170118,92.275342743,104.331609913));
#788=CARTESIAN_POINT('',(0.21053781,92.212826247,104.036961806));
#789=CARTESIAN_POINT('',(0.100073778,92.127764528,103.734106871));
#790=CARTESIAN_POINT('',(0.012500601,92.032991191,103.433347922));
#791=CARTESIAN_POINT('',(-0.075072575,91.938217855,103.132588973));
#792=CARTESIAN_POINT('',(-0.141092966,91.832871499,102.831289045));
#793=CARTESIAN_POINT('',(-0.187194066,91.722456536,102.527873886));
#794=CARTESIAN_POINT('',(-0.233295166,91.612041572,102.224458728));
#795=CARTESIAN_POINT('',(-0.259449305,91.49635885,101.91887464));
#796=CARTESIAN_POINT('',(-0.265346837,91.379587024,101.609979792));
#797=B_SPLINE_CURVE_WITH_KNOTS('',3,(#784,#785,#786,#787,#788,#789,#790,#791,#792,#793,#794,#795,#796),.UNSPECIFIED.,.F.,.F.,(4,3,3,3,4),(0.,0.000984052,0.001968103,0.002952155,0.003936207),.UNSPECIFIED.);
#798=EDGE_CURVE('',#783,#725,#797,.T.);
#799=ORIENTED_EDGE('',*,*,#798,.F.);
#800=CARTESIAN_POINT('',(6.866999872,92.379587024,108.475082152));
#801=VERTEX_POINT('',#800);
#802=CARTESIAN_POINT('',(6.733377698,92.379587024,101.476357618));
#803=DIRECTION('',(0.,-1.,0.));
#804=DIRECTION('',(-0.999817791,0.,0.019088882));
#805=AXIS2_PLACEMENT_3D('',#802,#803,#804);
#806=CIRCLE('',#805,7.);
#807=EDGE_CURVE('',#801,#783,#806,.T.);
#808=ORIENTED_EDGE('',*,*,#807,.F.);
#809=CARTESIAN_POINT('',(6.866999872,92.379587024,108.475082152));
#810=DIRECTION('',(0.,1.,-0.));
#811=VECTOR('',#810,7.5);
#812=LINE('',#809,#811);
#813=EDGE_CURVE('',#801,#497,#812,.T.);
#814=ORIENTED_EDGE('',*,*,#813,.T.);
#815=ORIENTED_EDGE('',*,*,#503,.F.);
#816=ORIENTED_EDGE('',*,*,#769,.T.);
#817=ORIENTED_EDGE('',*,*,#738,.F.);
#818=EDGE_LOOP('',(#799,#808,#814,#815,#816,#817));
#819=FACE_BOUND('',#818,.T.);
#820=ADVANCED_FACE('',(#819),#781,.T.);
#821=CARTESIAN_POINT('',(14.865542198,92.379587024,108.322371096));
#822=DIRECTION('',(-0.019088882,-0.,-0.999817791));
#823=DIRECTION('',(0.,1.,-0.));
#824=AXIS2_PLACEMENT_3D('',#821,#822,#823);
#825=PLANE('',#824);
#826=CARTESIAN_POINT('',(7.866817663,92.379587024,108.45599327));
#827=VERTEX_POINT('',#826);
#828=CARTESIAN_POINT('',(7.866817663,92.379587024,108.45599327));
#829=DIRECTION('',(-0.999817791,0.,0.019088882));
#830=VECTOR('',#829,1.);
#831=LINE('',#828,#830);
#832=EDGE_CURVE('',#827,#801,#831,.T.);
#833=ORIENTED_EDGE('',*,*,#832,.F.);
#834=CARTESIAN_POINT('',(7.866817663,99.879587024,108.45599327));
#835=DIRECTION('',(0.,-1.,0.));
#836=VECTOR('',#835,7.5);
#837=LINE('',#834,#836);
#838=EDGE_CURVE('',#506,#827,#837,.T.);
#839=ORIENTED_EDGE('',*,*,#838,.F.);
#840=ORIENTED_EDGE('',*,*,#511,.T.);
#841=ORIENTED_EDGE('',*,*,#813,.F.);
#842=EDGE_LOOP('',(#833,#839,#840,#841));
#843=FACE_BOUND('',#842,.T.);
#844=ADVANCED_FACE('',(#843),#825,.F.);
#845=CARTESIAN_POINT('',(7.733195489,123.183587024,101.457268736));
#846=DIRECTION('',(0.,-1.,0.));
#847=DIRECTION('',(0.999817791,-0.,-0.019088882));
#848=AXIS2_PLACEMENT_3D('',#845,#846,#847);
#849=CYLINDRICAL_SURFACE('',#848,7.);
#850=CARTESIAN_POINT('',(13.800928176,92.379587024,104.947629754));
#851=VERTEX_POINT('',#850);
#852=CARTESIAN_POINT('',(7.733195489,92.379587024,101.457268736));
#853=DIRECTION('',(0.,-1.,0.));
#854=DIRECTION('',(0.999817791,-0.,-0.019088882));
#855=AXIS2_PLACEMENT_3D('',#852,#853,#854);
#856=CIRCLE('',#855,7.);
#857=EDGE_CURVE('',#851,#827,#856,.T.);
#858=ORIENTED_EDGE('',*,*,#857,.F.);
#859=CARTESIAN_POINT('',(13.800928176,92.379587024,104.947629754));
#860=CARTESIAN_POINT('',(13.966920982,92.379587024,104.659063623));
#861=CARTESIAN_POINT('',(14.108443207,92.337859238,104.365940538));
#862=CARTESIAN_POINT('',(14.228732629,92.275342743,104.06648265));
#863=CARTESIAN_POINT('',(14.349022051,92.212826247,103.767024763));
#864=CARTESIAN_POINT('',(14.447845363,92.127764528,103.460174039));
#865=CARTESIAN_POINT('',(14.523874507,92.032991191,103.156291535));
#866=CARTESIAN_POINT('',(14.599903651,91.938217855,102.852409031));
#867=CARTESIAN_POINT('',(14.654375066,91.832871499,102.54880863));
#868=CARTESIAN_POINT('',(14.688860967,91.722456536,102.243854876));
#869=CARTESIAN_POINT('',(14.723346868,91.612041572,101.938901121));
#870=CARTESIAN_POINT('',(14.737817541,91.496360893,101.632540637));
#871=CARTESIAN_POINT('',(14.731920023,91.379587024,101.323646561));
#872=B_SPLINE_CURVE_WITH_KNOTS('',3,(#859,#860,#861,#862,#863,#864,#865,#866,#867,#868,#869,#870,#871),.UNSPECIFIED.,.F.,.F.,(4,3,3,3,4),(0.,0.000984052,0.001968103,0.002952155,0.003936207),.UNSPECIFIED.);
#873=EDGE_CURVE('',#851,#231,#872,.T.);
#874=ORIENTED_EDGE('',*,*,#873,.T.);
#875=ORIENTED_EDGE('',*,*,#236,.F.);
#876=ORIENTED_EDGE('',*,*,#553,.F.);
#877=ORIENTED_EDGE('',*,*,#520,.F.);
#878=ORIENTED_EDGE('',*,*,#838,.T.);
#879=EDGE_LOOP('',(#858,#874,#875,#876,#877,#878));
#880=FACE_BOUND('',#879,.T.);
#881=ADVANCED_FACE('',(#880),#849,.T.);
#882=CARTESIAN_POINT('',(12.95728451,91.379587024,60.760131319));
#883=DIRECTION('',(0.019088882,0.,0.999817791));
#884=DIRECTION('',(0.999817791,-0.,-0.019088882));
#885=AXIS2_PLACEMENT_3D('',#882,#883,#884);
#886=CYLINDRICAL_SURFACE('',#885,1.);
#887=ORIENTED_EDGE('',*,*,#873,.F.);
#888=CARTESIAN_POINT('',(13.991816996,92.379587024,114.945807661));
#889=VERTEX_POINT('',#888);
#890=CARTESIAN_POINT('',(13.800928176,92.379587024,104.947629754));
#891=DIRECTION('',(0.019088882,0.,0.999817791));
#892=VECTOR('',#891,10.);
#893=LINE('',#890,#892);
#894=EDGE_CURVE('',#851,#889,#893,.T.);
#895=ORIENTED_EDGE('',*,*,#894,.T.);
#896=CARTESIAN_POINT('',(13.991816996,92.379587024,114.945807661));
#897=CARTESIAN_POINT('',(14.157809802,92.379587024,114.65724153));
#898=CARTESIAN_POINT('',(14.299332028,92.337859238,114.364118445));
#899=CARTESIAN_POINT('',(14.41962145,92.275342743,114.064660557));
#900=CARTESIAN_POINT('',(14.539910872,92.212826247,113.76520267));
#901=CARTESIAN_POINT('',(14.638734184,92.127764528,113.458351946));
#902=CARTESIAN_POINT('',(14.714763327,92.032991191,113.154469442));
#903=CARTESIAN_POINT('',(14.790792471,91.938217855,112.850586938));
#904=CARTESIAN_POINT('',(14.845263886,91.832871499,112.546986537));
#905=CARTESIAN_POINT('',(14.879749787,91.722456536,112.242032783));
#906=CARTESIAN_POINT('',(14.914235688,91.612041572,111.937079028));
#907=CARTESIAN_POINT('',(14.928706361,91.496360893,111.630718544));
#908=CARTESIAN_POINT('',(14.922808844,91.379587024,111.321824468));
#909=B_SPLINE_CURVE_WITH_KNOTS('',3,(#896,#897,#898,#899,#900,#901,#902,#903,#904,#905,#906,#907,#908),.UNSPECIFIED.,.F.,.F.,(4,3,3,3,4),(0.,0.000984052,0.001968103,0.002952155,0.003936207),.UNSPECIFIED.);
#910=EDGE_CURVE('',#889,#239,#909,.T.);
#911=ORIENTED_EDGE('',*,*,#910,.T.);
#912=ORIENTED_EDGE('',*,*,#244,.F.);
#913=EDGE_LOOP('',(#887,#895,#911,#912));
#914=FACE_BOUND('',#913,.T.);
#915=ADVANCED_FACE('',(#914),#886,.T.);
#916=CARTESIAN_POINT('',(7.924084309,69.075587024,111.455446642));
#917=DIRECTION('',(0.,1.,-0.));
#918=DIRECTION('',(0.019088882,0.,0.999817791));
#919=AXIS2_PLACEMENT_3D('',#916,#917,#918);
#920=CYLINDRICAL_SURFACE('',#919,7.);
#921=ORIENTED_EDGE('',*,*,#910,.F.);
#922=CARTESIAN_POINT('',(7.924084309,92.379587024,111.455446642));
#923=DIRECTION('',(-0.,1.,-0.));
#924=DIRECTION('',(-0.999817791,0.,0.019088882));
#925=AXIS2_PLACEMENT_3D('',#922,#923,#924);
#926=CIRCLE('',#925,7.);
#927=EDGE_CURVE('',#619,#889,#926,.T.);
#928=ORIENTED_EDGE('',*,*,#927,.F.);
#929=ORIENTED_EDGE('',*,*,#624,.F.);
#930=ORIENTED_EDGE('',*,*,#321,.F.);
#931=ORIENTED_EDGE('',*,*,#287,.F.);
#932=ORIENTED_EDGE('',*,*,#252,.T.);
#933=EDGE_LOOP('',(#921,#928,#929,#930,#931,#932));
#934=FACE_BOUND('',#933,.T.);
#935=ADVANCED_FACE('',(#934),#920,.T.);
#936=CARTESIAN_POINT('',(15.056431018,92.379587024,118.320549003));
#937=DIRECTION('',(0.,-1.,0.));
#938=DIRECTION('',(-0.019088882,-0.,-0.999817791));
#939=AXIS2_PLACEMENT_3D('',#936,#937,#938);
#940=PLANE('',#939);
#941=ORIENTED_EDGE('',*,*,#807,.T.);
#942=CARTESIAN_POINT('',(0.994185717,92.379587024,115.193963127));
#943=VERTEX_POINT('',#942);
#944=CARTESIAN_POINT('',(0.994185717,92.379587024,115.193963127));
#945=DIRECTION('',(-0.019088882,-0.,-0.999817791));
#946=VECTOR('',#945,10.);
#947=LINE('',#944,#946);
#948=EDGE_CURVE('',#943,#783,#947,.T.);
#949=ORIENTED_EDGE('',*,*,#948,.F.);
#950=CARTESIAN_POINT('',(6.924266518,92.379587024,111.474535524));
#951=DIRECTION('',(-0.,1.,-0.));
#952=DIRECTION('',(0.999817791,-0.,-0.019088882));
#953=AXIS2_PLACEMENT_3D('',#950,#951,#952);
#954=CIRCLE('',#953,7.);
#955=EDGE_CURVE('',#943,#627,#954,.T.);
#956=ORIENTED_EDGE('',*,*,#955,.T.);
#957=ORIENTED_EDGE('',*,*,#632,.F.);
#958=ORIENTED_EDGE('',*,*,#927,.T.);
#959=ORIENTED_EDGE('',*,*,#894,.F.);
#960=ORIENTED_EDGE('',*,*,#857,.T.);
#961=ORIENTED_EDGE('',*,*,#832,.T.);
#962=EDGE_LOOP('',(#941,#949,#956,#957,#958,#959,#960,#961));
#963=FACE_BOUND('',#962,.T.);
#964=ORIENTED_EDGE('',*,*,#403,.F.);
#965=EDGE_LOOP('',(#964));
#966=FACE_BOUND('',#965,.T.);
#967=ADVANCED_FACE('',(#963,#966),#940,.F.);
#968=CARTESIAN_POINT('',(6.924266518,123.183587024,111.474535524));
#969=DIRECTION('',(0.,-1.,0.));
#970=DIRECTION('',(0.019088882,0.,0.999817791));
#971=AXIS2_PLACEMENT_3D('',#968,#969,#970);
#972=CYLINDRICAL_SURFACE('',#971,7.);
#973=ORIENTED_EDGE('',*,*,#638,.F.);
#974=ORIENTED_EDGE('',*,*,#955,.F.);
#975=CARTESIAN_POINT('',(-0.074458016,91.379587024,111.608157699));
#976=CARTESIAN_POINT('',(-0.068560485,91.49635885,111.917052547));
#977=CARTESIAN_POINT('',(-0.042406345,91.612041572,112.222636635));
#978=CARTESIAN_POINT('',(0.003694755,91.722456536,112.526051793));
#979=CARTESIAN_POINT('',(0.049795855,91.832871499,112.829466952));
#980=CARTESIAN_POINT('',(0.115816245,91.938217855,113.13076688));
#981=CARTESIAN_POINT('',(0.203389422,92.032991191,113.431525829));
#982=CARTESIAN_POINT('',(0.290962598,92.127764528,113.732284778));
#983=CARTESIAN_POINT('',(0.40142663,92.212826247,114.035139713));
#984=CARTESIAN_POINT('',(0.533058938,92.275342743,114.32978782));
#985=CARTESIAN_POINT('',(0.664691247,92.337859238,114.624435927));
#986=CARTESIAN_POINT('',(0.81729908,92.379587024,114.911943375));
#987=CARTESIAN_POINT('',(0.994185717,92.379587024,115.193963127));
#988=B_SPLINE_CURVE_WITH_KNOTS('',3,(#975,#976,#977,#978,#979,#980,#981,#982,#983,#984,#985,#986,#987),.UNSPECIFIED.,.F.,.F.,(4,3,3,3,4),(0.,0.000984052,0.001968103,0.002952155,0.003936207),.UNSPECIFIED.);
#989=EDGE_CURVE('',#717,#943,#988,.T.);
#990=ORIENTED_EDGE('',*,*,#989,.F.);
#991=ORIENTED_EDGE('',*,*,#722,.T.);
#992=CARTESIAN_POINT('',(0.994185717,88.629587024,115.193963127));
#993=CARTESIAN_POINT('',(0.81729908,88.629587024,114.911943375));
#994=CARTESIAN_POINT('',(0.664691247,88.67131481,114.624435927));
#995=CARTESIAN_POINT('',(0.533058938,88.733831305,114.32978782));
#996=CARTESIAN_POINT('',(0.40142663,88.796347801,114.035139713));
#997=CARTESIAN_POINT('',(0.290962598,88.881409521,113.732284778));
#998=CARTESIAN_POINT('',(0.203389422,88.976182857,113.431525829));
#999=CARTESIAN_POINT('',(0.115816245,89.070956193,113.13076688));
#1000=CARTESIAN_POINT('',(0.049795855,89.176302549,112.829466952));
#1001=CARTESIAN_POINT('',(0.003694755,89.286717512,112.526051793));
#1002=CARTESIAN_POINT('',(-0.042406345,89.397132476,112.222636635));
#1003=CARTESIAN_POINT('',(-0.068560499,89.512813155,111.917051775));
#1004=CARTESIAN_POINT('',(-0.074458016,89.629587024,111.608157699));
#1005=B_SPLINE_CURVE_WITH_KNOTS('',3,(#992,#993,#994,#995,#996,#997,#998,#999,#1000,#1001,#1002,#1003,#1004),.UNSPECIFIED.,.F.,.F.,(4,3,3,3,4),(0.,0.000984052,0.001968103,0.002952155,0.003936207),.UNSPECIFIED.);
#1006=EDGE_CURVE('',#305,#709,#1005,.T.);
#1007=ORIENTED_EDGE('',*,*,#1006,.F.);
#1008=ORIENTED_EDGE('',*,*,#336,.F.);
#1009=EDGE_LOOP('',(#973,#974,#990,#991,#1007,#1008));
#1010=FACE_BOUND('',#1009,.T.);
#1011=ADVANCED_FACE('',(#1010),#972,.T.);
#1012=CARTESIAN_POINT('',(1.681088615,89.629587024,151.17185515));
#1013=DIRECTION('',(-0.019088882,-0.,-0.999817791));
#1014=DIRECTION('',(-0.,-1.,0.));
#1015=AXIS2_PLACEMENT_3D('',#1012,#1013,#1014);
#1016=CYLINDRICAL_SURFACE('',#1015,1.);
#1017=ORIENTED_EDGE('',*,*,#310,.F.);
#1018=ORIENTED_EDGE('',*,*,#1006,.T.);
#1019=ORIENTED_EDGE('',*,*,#714,.T.);
#1020=ORIENTED_EDGE('',*,*,#66,.F.);
#1021=EDGE_LOOP('',(#1017,#1018,#1019,#1020));
#1022=FACE_BOUND('',#1021,.T.);
#1023=ADVANCED_FACE('',(#1022),#1016,.T.);
#1024=CARTESIAN_POINT('',(1.681088615,91.379587024,151.17185515));
#1025=DIRECTION('',(-0.019088882,-0.,-0.999817791));
#1026=DIRECTION('',(-0.999817791,0.,0.019088882));
#1027=AXIS2_PLACEMENT_3D('',#1024,#1025,#1026);
#1028=CYLINDRICAL_SURFACE('',#1027,1.);
#1029=ORIENTED_EDGE('',*,*,#798,.T.);
#1030=ORIENTED_EDGE('',*,*,#730,.F.);
#1031=ORIENTED_EDGE('',*,*,#989,.T.);
#1032=ORIENTED_EDGE('',*,*,#948,.T.);
#1033=EDGE_LOOP('',(#1029,#1030,#1031,#1032));
#1034=FACE_BOUND('',#1033,.T.);
#1035=ADVANCED_FACE('',(#1034),#1028,.T.);
#1036=CARTESIAN_POINT('',(1.681088615,102.629587024,151.17185515));
#1037=DIRECTION('',(-0.019088882,-0.,-0.999817791));
#1038=DIRECTION('',(-0.999817791,0.,0.019088882));
#1039=AXIS2_PLACEMENT_3D('',#1036,#1037,#1038);
#1040=CYLINDRICAL_SURFACE('',#1039,1.);
#1041=ORIENTED_EDGE('',*,*,#705,.F.);
#1042=ORIENTED_EDGE('',*,*,#685,.T.);
#1043=ORIENTED_EDGE('',*,*,#440,.T.);
#1044=ORIENTED_EDGE('',*,*,#83,.F.);
#1045=EDGE_LOOP('',(#1041,#1042,#1043,#1044));
#1046=FACE_BOUND('',#1045,.T.);
#1047=ADVANCED_FACE('',(#1046),#1040,.T.);
#1048=CLOSED_SHELL('',(#122,#157,#167,#208,#264,#298,#351,#384,#409,#454,#533,#575,#594,#611,#642,#695,#749,#776,#820,#844,#881,#915,#935,#967,#1011,#1023,
#1035,#1047));
#1049=MANIFOLD_SOLID_BREP('Fork_V4_(2)',#1048);
#1050=COLOUR_RGB('',0.247058824,0.247058824,0.258823544);
#1051=FILL_AREA_STYLE_COLOUR('',#1050);
#1052=FILL_AREA_STYLE('',(#1051));
#1053=SURFACE_STYLE_FILL_AREA(#1052);
#1054=SURFACE_SIDE_STYLE('',(#1053));
#1055=SURFACE_STYLE_USAGE(.BOTH.,#1054);
#1056=PRESENTATION_STYLE_ASSIGNMENT((#1055));
#26=STYLED_ITEM('',(#1056),#1049);
#16=SHAPE_REPRESENTATION('Fork_V4_(2)',(#15),#10);
#17=ADVANCED_BREP_SHAPE_REPRESENTATION('Fork_V4_(2)',(#1049),#10);
#1064=SHAPE_REPRESENTATION_RELATIONSHIP('','',#16,#17);
#1065=CARTESIAN_POINT('',(0.,0.,0.));
#1066=DIRECTION('',(0.,0.,1.));
#1067=DIRECTION('',(1.,0.,0.));
#1068=AXIS2_PLACEMENT_3D('',#1065,#1066,#1067);
#1070=MAPPED_ITEM('',#1069,#1068);
#1069=REPRESENTATION_MAP(#1068,#16);
#1071=APPLICATION_CONTEXT('Managed model based 3d engineering');
#1072=APPLICATION_PROTOCOL_DEFINITION('international standard','ap242_managed_model_based_3d_engineering',2014,#1071);
#1073=PRODUCT_CONTEXT('',#1071,'mechanical');
#1074=PRODUCT_DEFINITION_CONTEXT('part definition',#1071,'design');
#24=PRODUCT('Fork_V4_(2)','Fork_V4_(2)','',(#1073));
#1075=PRODUCT_RELATED_PRODUCT_CATEGORY('part','',(#24));
#1076=PRODUCT_DEFINITION_FORMATION_WITH_SPECIFIED_SOURCE('','',#24,.NOT_KNOWN.);
#25=PRODUCT_DEFINITION('design','',#1076,#1074);
#23=PRODUCT_DEFINITION_SHAPE('','',#25);
#1077=SHAPE_DEFINITION_REPRESENTATION(#23,#16);
#11=DRAUGHTING_MODEL('',(#1070),#10);
#1078=DESCRIPTIVE_REPRESENTATION_ITEM('KEY','/Users/quimgraellsolive/Library/Containers/com.shapr3d.shapr/Data/tmp/66F14FAB-4600-4E67-8F4E-581ECADEB8A3.tmp');
#1079=PROPERTY_DEFINITION('KEY','',#25);
#1080=REPRESENTATION('',(#1078),#10);
#1081=PROPERTY_DEFINITION_REPRESENTATION(#1079,#1080);
#1082=GENERAL_PROPERTY('','KEY','');
#1083=GENERAL_PROPERTY_ASSOCIATION('','',#1082,#1079);
#1=MECHANICAL_DESIGN_GEOMETRIC_PRESENTATION_REPRESENTATION('',(#26),#10);
ENDSEC;
END-ISO-10303-21;
