ISO-10303-21;
HEADER;

/* File generated by Shapr3D Version 5.831.0.8630 */

FILE_DESCRIPTION(('HOOPS Exchange Step'),'2;1');

FILE_NAME('/Users/quimgraellsolive/Library/Containers/com.shapr3d.shapr/Data/tmp/export/temp_export',
'2025-04-22T23:22:57+02:00',
('quimgraellsolive'),
('Shapr3D Limited'),
'HOOPS Exchange 2024.8',
'Shapr3D',
'Authorized');

FILE_SCHEMA( ('AP242_MANAGED_MODEL_BASED_3D_ENGINEERING_MIM_LF {1 0 10303 442 1 1 4}') );

ENDSEC;

DATA;
#3=(NAMED_UNIT(*)PLANE_ANGLE_UNIT()SI_UNIT($,.RADIAN.));
#4=PLANE_ANGLE_MEASURE_WITH_UNIT(PLANE_ANGLE_MEASURE(0.0174532925),#3);
#5=(CONVERSION_BASED_UNIT('DEGREE',#4)NAMED_UNIT(#6)PLANE_ANGLE_UNIT());
#6=DIMENSIONAL_EXPONENTS(0.,0.,0.,0.,0.,0.,0.);
#7=(NAMED_UNIT(*)SI_UNIT($,.STERADIAN.)SOLID_ANGLE_UNIT());
#8=(LENGTH_UNIT()NAMED_UNIT(*)SI_UNIT(.MILLI.,.METRE.));
#9=UNCERTAINTY_MEASURE_WITH_UNIT(LENGTH_MEASURE(1.000000E-05),#8,'DISTANCE_ACCURACY_VALUE','Maximum Tolerance applied to model');
#10=(GEOMETRIC_REPRESENTATION_CONTEXT(3)GLOBAL_UNCERTAINTY_ASSIGNED_CONTEXT((#9))GLOBAL_UNIT_ASSIGNED_CONTEXT((#8,#5,#7))REPRESENTATION_CONTEXT('','Fork_V4_(1)'));
#12=CARTESIAN_POINT('',(0.,0.,0.));
#13=DIRECTION('',(0.,0.,1.));
#14=DIRECTION('',(1.,0.,0.));
#15=AXIS2_PLACEMENT_3D('TS3D_PRODUCT_CSYS',#12,#13,#14);
#27=CARTESIAN_POINT('',(292.504109789,96.132968307,93.477693924));
#28=DIRECTION('',(0.,0.,1.));
#29=DIRECTION('',(0.,-1.,0.));
#30=AXIS2_PLACEMENT_3D('',#27,#28,#29);
#31=PLANE('',#30);
#32=CARTESIAN_POINT('',(285.004109789,102.632968307,93.477693924));
#33=VERTEX_POINT('',#32);
#34=CARTESIAN_POINT('',(285.004109789,89.632968307,93.477693924));
#35=VERTEX_POINT('',#34);
#36=CARTESIAN_POINT('',(285.004109789,102.632968307,93.477693924));
#37=DIRECTION('',(0.,-1.,0.));
#38=VECTOR('',#37,13.);
#39=LINE('',#36,#38);
#40=EDGE_CURVE('',#33,#35,#39,.T.);
#41=ORIENTED_EDGE('',*,*,#40,.F.);
#42=CARTESIAN_POINT('',(286.004109789,103.632968307,93.477693924));
#43=VERTEX_POINT('',#42);
#44=CARTESIAN_POINT('',(286.004109789,102.632968307,93.477693924));
#45=DIRECTION('',(0.,-0.,-1.));
#46=DIRECTION('',(1.,0.,0.));
#47=AXIS2_PLACEMENT_3D('',#44,#45,#46);
#48=CIRCLE('',#47,1.);
#49=EDGE_CURVE('',#33,#43,#48,.T.);
#50=ORIENTED_EDGE('',*,*,#49,.T.);
#51=CARTESIAN_POINT('',(299.004109789,103.632968307,93.477693924));
#52=VERTEX_POINT('',#51);
#53=CARTESIAN_POINT('',(299.004109789,103.632968307,93.477693924));
#54=DIRECTION('',(-1.,0.,0.));
#55=VECTOR('',#54,13.);
#56=LINE('',#53,#55);
#57=EDGE_CURVE('',#52,#43,#56,.T.);
#58=ORIENTED_EDGE('',*,*,#57,.F.);
#59=CARTESIAN_POINT('',(300.004109789,102.632968307,93.477693924));
#60=VERTEX_POINT('',#59);
#61=CARTESIAN_POINT('',(299.004109789,102.632968307,93.477693924));
#62=DIRECTION('',(0.,-0.,-1.));
#63=DIRECTION('',(1.,0.,0.));
#64=AXIS2_PLACEMENT_3D('',#61,#62,#63);
#65=CIRCLE('',#64,1.);
#66=EDGE_CURVE('',#52,#60,#65,.T.);
#67=ORIENTED_EDGE('',*,*,#66,.T.);
#68=CARTESIAN_POINT('',(300.004109789,89.632968307,93.477693924));
#69=VERTEX_POINT('',#68);
#70=CARTESIAN_POINT('',(300.004109789,89.632968307,93.477693924));
#71=DIRECTION('',(0.,1.,-0.));
#72=VECTOR('',#71,13.);
#73=LINE('',#70,#72);
#74=EDGE_CURVE('',#69,#60,#73,.T.);
#75=ORIENTED_EDGE('',*,*,#74,.F.);
#76=CARTESIAN_POINT('',(299.004109789,88.632968307,93.477693924));
#77=VERTEX_POINT('',#76);
#78=CARTESIAN_POINT('',(299.004109789,89.632968307,93.477693924));
#79=DIRECTION('',(0.,-0.,-1.));
#80=DIRECTION('',(1.,0.,0.));
#81=AXIS2_PLACEMENT_3D('',#78,#79,#80);
#82=CIRCLE('',#81,1.);
#83=EDGE_CURVE('',#69,#77,#82,.T.);
#84=ORIENTED_EDGE('',*,*,#83,.T.);
#85=CARTESIAN_POINT('',(286.004109789,88.632968307,93.477693924));
#86=VERTEX_POINT('',#85);
#87=CARTESIAN_POINT('',(286.004109789,88.632968307,93.477693924));
#88=DIRECTION('',(1.,0.,-0.));
#89=VECTOR('',#88,13.);
#90=LINE('',#87,#89);
#91=EDGE_CURVE('',#86,#77,#90,.T.);
#92=ORIENTED_EDGE('',*,*,#91,.F.);
#93=CARTESIAN_POINT('',(286.004109789,89.632968307,93.477693924));
#94=DIRECTION('',(0.,-0.,-1.));
#95=DIRECTION('',(1.,0.,0.));
#96=AXIS2_PLACEMENT_3D('',#93,#94,#95);
#97=CIRCLE('',#96,1.);
#98=EDGE_CURVE('',#86,#35,#97,.T.);
#99=ORIENTED_EDGE('',*,*,#98,.T.);
#100=EDGE_LOOP('',(#41,#50,#58,#67,#75,#84,#92,#99));
#101=FACE_BOUND('',#100,.T.);
#102=CARTESIAN_POINT('',(292.504109789,93.132968307,93.477693924));
#103=VERTEX_POINT('',#102);
#104=CARTESIAN_POINT('',(295.504109789,96.132968307,93.477693924));
#105=VERTEX_POINT('',#104);
#106=CARTESIAN_POINT('',(292.504109789,96.132968307,93.477693924));
#107=DIRECTION('',(0.,-0.,-1.));
#108=DIRECTION('',(1.,0.,0.));
#109=AXIS2_PLACEMENT_3D('',#106,#107,#108);
#110=CIRCLE('',#109,3.);
#111=EDGE_CURVE('',#103,#105,#110,.T.);
#112=ORIENTED_EDGE('',*,*,#111,.F.);
#113=CARTESIAN_POINT('',(292.504109789,96.132968307,93.477693924));
#114=DIRECTION('',(0.,-0.,-1.));
#115=DIRECTION('',(1.,0.,0.));
#116=AXIS2_PLACEMENT_3D('',#113,#114,#115);
#117=CIRCLE('',#116,3.);
#118=EDGE_CURVE('',#105,#103,#117,.T.);
#119=ORIENTED_EDGE('',*,*,#118,.F.);
#120=EDGE_LOOP('',(#112,#119));
#121=FACE_BOUND('',#120,.T.);
#122=ADVANCED_FACE('',(#101,#121),#31,.F.);
#123=CARTESIAN_POINT('',(292.504109789,96.132968307,93.477693924));
#124=DIRECTION('',(0.,-0.,-1.));
#125=DIRECTION('',(0.,-1.,0.));
#126=AXIS2_PLACEMENT_3D('',#123,#124,#125);
#127=CYLINDRICAL_SURFACE('',#126,3.);
#128=CARTESIAN_POINT('',(292.504109789,93.132968307,103.477693924));
#129=VERTEX_POINT('',#128);
#130=CARTESIAN_POINT('',(292.504109789,93.132968307,93.477693924));
#131=DIRECTION('',(-0.,0.,1.));
#132=VECTOR('',#131,10.);
#133=LINE('',#130,#132);
#134=EDGE_CURVE('',#103,#129,#133,.T.);
#135=ORIENTED_EDGE('',*,*,#134,.F.);
#136=ORIENTED_EDGE('',*,*,#111,.T.);
#137=ORIENTED_EDGE('',*,*,#118,.T.);
#138=ORIENTED_EDGE('',*,*,#134,.T.);
#139=CARTESIAN_POINT('',(295.504109789,96.132968307,103.477693924));
#140=VERTEX_POINT('',#139);
#141=CARTESIAN_POINT('',(292.504109789,96.132968307,103.477693924));
#142=DIRECTION('',(0.,-0.,-1.));
#143=DIRECTION('',(1.,0.,0.));
#144=AXIS2_PLACEMENT_3D('',#141,#142,#143);
#145=CIRCLE('',#144,3.);
#146=EDGE_CURVE('',#140,#129,#145,.T.);
#147=ORIENTED_EDGE('',*,*,#146,.F.);
#148=CARTESIAN_POINT('',(292.504109789,96.132968307,103.477693924));
#149=DIRECTION('',(0.,-0.,-1.));
#150=DIRECTION('',(1.,0.,0.));
#151=AXIS2_PLACEMENT_3D('',#148,#149,#150);
#152=CIRCLE('',#151,3.);
#153=EDGE_CURVE('',#129,#140,#152,.T.);
#154=ORIENTED_EDGE('',*,*,#153,.F.);
#155=EDGE_LOOP('',(#135,#136,#137,#138,#147,#154));
#156=FACE_BOUND('',#155,.T.);
#157=ADVANCED_FACE('',(#156),#127,.F.);
#158=CARTESIAN_POINT('',(292.504109789,96.132968307,103.477693924));
#159=DIRECTION('',(0.,-0.,-1.));
#160=DIRECTION('',(0.,-1.,0.));
#161=AXIS2_PLACEMENT_3D('',#158,#159,#160);
#162=PLANE('',#161);
#163=ORIENTED_EDGE('',*,*,#146,.T.);
#164=ORIENTED_EDGE('',*,*,#153,.T.);
#165=EDGE_LOOP('',(#163,#164));
#166=FACE_BOUND('',#165,.T.);
#167=ADVANCED_FACE('',(#166),#162,.T.);
#168=CARTESIAN_POINT('',(286.004109789,89.632968307,151.067693924));
#169=DIRECTION('',(0.,-0.,-1.));
#170=DIRECTION('',(0.,-1.,0.));
#171=AXIS2_PLACEMENT_3D('',#168,#169,#170);
#172=CYLINDRICAL_SURFACE('',#171,1.);
#173=CARTESIAN_POINT('',(286.004109789,88.632968307,115.0832452));
#174=VERTEX_POINT('',#173);
#175=CARTESIAN_POINT('',(286.004109789,88.632968307,115.0832452));
#176=DIRECTION('',(-0.,-0.,-1.));
#177=VECTOR('',#176,21.605551275);
#178=LINE('',#175,#177);
#179=EDGE_CURVE('',#174,#86,#178,.T.);
#180=ORIENTED_EDGE('',*,*,#179,.F.);
#181=CARTESIAN_POINT('',(285.004109789,89.632968307,111.477693924));
#182=VERTEX_POINT('',#181);
#183=CARTESIAN_POINT('',(285.004109789,89.632968307,111.477693924));
#184=CARTESIAN_POINT('',(285.004109789,89.516194438,111.786644294));
#185=CARTESIAN_POINT('',(285.024425904,89.400513759,112.092672727));
#186=CARTESIAN_POINT('',(285.064726748,89.290098795,112.396912619));
#187=CARTESIAN_POINT('',(285.105027592,89.179683832,112.701152511));
#188=CARTESIAN_POINT('',(285.165284474,89.074337476,113.003657795));
#189=CARTESIAN_POINT('',(285.247100542,88.97956414,113.306033617));
#190=CARTESIAN_POINT('',(285.32891661,88.884790804,113.608409439));
#191=CARTESIAN_POINT('',(285.433579352,88.799729084,113.913317826));
#192=CARTESIAN_POINT('',(285.559563173,88.737212588,114.210424959));
#193=CARTESIAN_POINT('',(285.685546993,88.674696093,114.507532091));
#194=CARTESIAN_POINT('',(285.832638824,88.632968307,114.797900266));
#195=CARTESIAN_POINT('',(286.004109789,88.632968307,115.0832452));
#196=B_SPLINE_CURVE_WITH_KNOTS('',3,(#183,#184,#185,#186,#187,#188,#189,#190,#191,#192,#193,#194,#195),.UNSPECIFIED.,.F.,.F.,(4,3,3,3,4),(0.,0.000984052,0.001968103,0.002952155,0.003936207),.UNSPECIFIED.);
#197=EDGE_CURVE('',#182,#174,#196,.T.);
#198=ORIENTED_EDGE('',*,*,#197,.F.);
#199=CARTESIAN_POINT('',(285.004109789,89.632968307,111.477693924));
#200=DIRECTION('',(0.,-0.,-1.));
#201=VECTOR('',#200,18.);
#202=LINE('',#199,#201);
#203=EDGE_CURVE('',#182,#35,#202,.T.);
#204=ORIENTED_EDGE('',*,*,#203,.T.);
#205=ORIENTED_EDGE('',*,*,#98,.F.);
#206=EDGE_LOOP('',(#180,#198,#204,#205));
#207=FACE_BOUND('',#206,.T.);
#208=ADVANCED_FACE('',(#207),#172,.T.);
#209=CARTESIAN_POINT('',(285.004109789,103.632968307,93.477693924));
#210=DIRECTION('',(-1.,0.,0.));
#211=DIRECTION('',(0.,-1.,0.));
#212=AXIS2_PLACEMENT_3D('',#209,#210,#211);
#213=PLANE('',#212);
#214=CARTESIAN_POINT('',(285.004109789,91.382968307,111.477693924));
#215=VERTEX_POINT('',#214);
#216=CARTESIAN_POINT('',(285.004109789,91.382968307,111.477693924));
#217=DIRECTION('',(0.,-1.,0.));
#218=VECTOR('',#217,1.75);
#219=LINE('',#216,#218);
#220=EDGE_CURVE('',#215,#182,#219,.T.);
#221=ORIENTED_EDGE('',*,*,#220,.F.);
#222=CARTESIAN_POINT('',(285.004109789,91.382968307,101.477693924));
#223=VERTEX_POINT('',#222);
#224=CARTESIAN_POINT('',(285.004109789,91.382968307,111.477693924));
#225=DIRECTION('',(-0.,-0.,-1.));
#226=VECTOR('',#225,10.);
#227=LINE('',#224,#226);
#228=EDGE_CURVE('',#215,#223,#227,.T.);
#229=ORIENTED_EDGE('',*,*,#228,.T.);
#230=CARTESIAN_POINT('',(285.004109789,100.882968307,101.477693924));
#231=VERTEX_POINT('',#230);
#232=CARTESIAN_POINT('',(285.004109789,91.382968307,101.477693924));
#233=DIRECTION('',(-0.,1.,-0.));
#234=VECTOR('',#233,9.5);
#235=LINE('',#232,#234);
#236=EDGE_CURVE('',#223,#231,#235,.T.);
#237=ORIENTED_EDGE('',*,*,#236,.T.);
#238=CARTESIAN_POINT('',(285.004109789,100.882968307,111.477693924));
#239=VERTEX_POINT('',#238);
#240=CARTESIAN_POINT('',(285.004109789,100.882968307,101.477693924));
#241=DIRECTION('',(0.,0.,1.));
#242=VECTOR('',#241,10.);
#243=LINE('',#240,#242);
#244=EDGE_CURVE('',#231,#239,#243,.T.);
#245=ORIENTED_EDGE('',*,*,#244,.T.);
#246=CARTESIAN_POINT('',(285.004109789,102.632968307,111.477693924));
#247=VERTEX_POINT('',#246);
#248=CARTESIAN_POINT('',(285.004109789,102.632968307,111.477693924));
#249=DIRECTION('',(0.,-1.,0.));
#250=VECTOR('',#249,1.75);
#251=LINE('',#248,#250);
#252=EDGE_CURVE('',#247,#239,#251,.T.);
#253=ORIENTED_EDGE('',*,*,#252,.F.);
#254=CARTESIAN_POINT('',(285.004109789,102.632968307,111.477693924));
#255=DIRECTION('',(-0.,-0.,-1.));
#256=VECTOR('',#255,18.);
#257=LINE('',#254,#256);
#258=EDGE_CURVE('',#247,#33,#257,.T.);
#259=ORIENTED_EDGE('',*,*,#258,.T.);
#260=ORIENTED_EDGE('',*,*,#40,.T.);
#261=ORIENTED_EDGE('',*,*,#203,.F.);
#262=EDGE_LOOP('',(#221,#229,#237,#245,#253,#259,#260,#261));
#263=FACE_BOUND('',#262,.T.);
#264=ADVANCED_FACE('',(#263),#213,.T.);
#265=CARTESIAN_POINT('',(286.004109789,102.632968307,151.067693924));
#266=DIRECTION('',(-0.,-0.,-1.));
#267=DIRECTION('',(-1.,0.,0.));
#268=AXIS2_PLACEMENT_3D('',#265,#266,#267);
#269=CYLINDRICAL_SURFACE('',#268,1.);
#270=ORIENTED_EDGE('',*,*,#258,.F.);
#271=CARTESIAN_POINT('',(286.004109789,103.632968307,115.0832452));
#272=VERTEX_POINT('',#271);
#273=CARTESIAN_POINT('',(285.004109789,102.632968307,111.477693924));
#274=CARTESIAN_POINT('',(285.004109789,102.749740133,111.786645066));
#275=CARTESIAN_POINT('',(285.024425904,102.865422855,112.092672727));
#276=CARTESIAN_POINT('',(285.064726748,102.975837819,112.396912619));
#277=CARTESIAN_POINT('',(285.105027592,103.086252782,112.701152511));
#278=CARTESIAN_POINT('',(285.165284474,103.191599138,113.003657795));
#279=CARTESIAN_POINT('',(285.247100542,103.286372474,113.306033617));
#280=CARTESIAN_POINT('',(285.32891661,103.381145811,113.608409439));
#281=CARTESIAN_POINT('',(285.433579352,103.46620753,113.913317826));
#282=CARTESIAN_POINT('',(285.559563173,103.528724026,114.210424959));
#283=CARTESIAN_POINT('',(285.685546993,103.591240521,114.507532091));
#284=CARTESIAN_POINT('',(285.832638824,103.632968307,114.797900266));
#285=CARTESIAN_POINT('',(286.004109789,103.632968307,115.0832452));
#286=B_SPLINE_CURVE_WITH_KNOTS('',3,(#273,#274,#275,#276,#277,#278,#279,#280,#281,#282,#283,#284,#285),.UNSPECIFIED.,.F.,.F.,(4,3,3,3,4),(0.,0.000984052,0.001968103,0.002952155,0.003936207),.UNSPECIFIED.);
#287=EDGE_CURVE('',#247,#272,#286,.T.);
#288=ORIENTED_EDGE('',*,*,#287,.T.);
#289=CARTESIAN_POINT('',(286.004109789,103.632968307,115.0832452));
#290=DIRECTION('',(0.,-0.,-1.));
#291=VECTOR('',#290,21.605551275);
#292=LINE('',#289,#291);
#293=EDGE_CURVE('',#272,#43,#292,.T.);
#294=ORIENTED_EDGE('',*,*,#293,.T.);
#295=ORIENTED_EDGE('',*,*,#49,.F.);
#296=EDGE_LOOP('',(#270,#288,#294,#295));
#297=FACE_BOUND('',#296,.T.);
#298=ADVANCED_FACE('',(#297),#269,.T.);
#299=CARTESIAN_POINT('',(300.004109789,103.632968307,93.477693924));
#300=DIRECTION('',(0.,1.,-0.));
#301=DIRECTION('',(-1.,0.,0.));
#302=AXIS2_PLACEMENT_3D('',#299,#300,#301);
#303=PLANE('',#302);
#304=CARTESIAN_POINT('',(299.004109789,103.632968307,115.0832452));
#305=VERTEX_POINT('',#304);
#306=CARTESIAN_POINT('',(299.004109789,103.632968307,115.0832452));
#307=DIRECTION('',(-0.,-0.,-1.));
#308=VECTOR('',#307,21.605551275);
#309=LINE('',#306,#308);
#310=EDGE_CURVE('',#305,#52,#309,.T.);
#311=ORIENTED_EDGE('',*,*,#310,.T.);
#312=ORIENTED_EDGE('',*,*,#57,.T.);
#313=ORIENTED_EDGE('',*,*,#293,.F.);
#314=CARTESIAN_POINT('',(292.004109789,103.632968307,118.477693924));
#315=VERTEX_POINT('',#314);
#316=CARTESIAN_POINT('',(292.004109789,103.632968307,111.477693924));
#317=DIRECTION('',(-0.,1.,-0.));
#318=DIRECTION('',(1.,0.,0.));
#319=AXIS2_PLACEMENT_3D('',#316,#317,#318);
#320=CIRCLE('',#319,7.);
#321=EDGE_CURVE('',#272,#315,#320,.T.);
#322=ORIENTED_EDGE('',*,*,#321,.T.);
#323=CARTESIAN_POINT('',(293.004109789,103.632968307,118.477693924));
#324=VERTEX_POINT('',#323);
#325=CARTESIAN_POINT('',(293.004109789,103.632968307,118.477693924));
#326=DIRECTION('',(-1.,-0.,0.));
#327=VECTOR('',#326,1.);
#328=LINE('',#325,#327);
#329=EDGE_CURVE('',#324,#315,#328,.T.);
#330=ORIENTED_EDGE('',*,*,#329,.F.);
#331=CARTESIAN_POINT('',(293.004109789,103.632968307,111.477693924));
#332=DIRECTION('',(0.,1.,-0.));
#333=DIRECTION('',(-1.,0.,0.));
#334=AXIS2_PLACEMENT_3D('',#331,#332,#333);
#335=CIRCLE('',#334,7.);
#336=EDGE_CURVE('',#324,#305,#335,.T.);
#337=ORIENTED_EDGE('',*,*,#336,.T.);
#338=EDGE_LOOP('',(#311,#312,#313,#322,#330,#337));
#339=FACE_BOUND('',#338,.T.);
#340=CARTESIAN_POINT('',(294.104109789,103.632968307,115.665193924));
#341=VERTEX_POINT('',#340);
#342=CARTESIAN_POINT('',(292.504109789,103.632968307,115.665193924));
#343=DIRECTION('',(0.,-1.,0.));
#344=DIRECTION('',(1.,0.,0.));
#345=AXIS2_PLACEMENT_3D('',#342,#343,#344);
#346=CIRCLE('',#345,1.6);
#347=EDGE_CURVE('',#341,#341,#346,.T.);
#348=ORIENTED_EDGE('',*,*,#347,.T.);
#349=EDGE_LOOP('',(#348));
#350=FACE_BOUND('',#349,.T.);
#351=ADVANCED_FACE('',(#339,#350),#303,.T.);
#352=CARTESIAN_POINT('',(292.504109789,88.632968307,115.665193924));
#353=DIRECTION('',(0.,-1.,0.));
#354=DIRECTION('',(1.,0.,0.));
#355=AXIS2_PLACEMENT_3D('',#352,#353,#354);
#356=CYLINDRICAL_SURFACE('',#355,1.6);
#357=CARTESIAN_POINT('',(294.104109789,88.632968307,115.665193924));
#358=VERTEX_POINT('',#357);
#359=CARTESIAN_POINT('',(294.104109789,92.382968307,115.665193924));
#360=VERTEX_POINT('',#359);
#361=CARTESIAN_POINT('',(294.104109789,88.632968307,115.665193924));
#362=DIRECTION('',(-0.,1.,-0.));
#363=VECTOR('',#362,3.75);
#364=LINE('',#361,#363);
#365=EDGE_CURVE('',#358,#360,#364,.T.);
#366=ORIENTED_EDGE('',*,*,#365,.F.);
#367=CARTESIAN_POINT('',(292.504109789,88.632968307,115.665193924));
#368=DIRECTION('',(0.,-1.,0.));
#369=DIRECTION('',(1.,0.,0.));
#370=AXIS2_PLACEMENT_3D('',#367,#368,#369);
#371=CIRCLE('',#370,1.6);
#372=EDGE_CURVE('',#358,#358,#371,.T.);
#373=ORIENTED_EDGE('',*,*,#372,.T.);
#374=ORIENTED_EDGE('',*,*,#365,.T.);
#375=CARTESIAN_POINT('',(292.504109789,92.382968307,115.665193924));
#376=DIRECTION('',(0.,-1.,0.));
#377=DIRECTION('',(1.,0.,0.));
#378=AXIS2_PLACEMENT_3D('',#375,#376,#377);
#379=CIRCLE('',#378,1.6);
#380=EDGE_CURVE('',#360,#360,#379,.T.);
#381=ORIENTED_EDGE('',*,*,#380,.F.);
#382=EDGE_LOOP('',(#366,#373,#374,#381));
#383=FACE_BOUND('',#382,.T.);
#384=ADVANCED_FACE('',(#383),#356,.F.);
#385=CARTESIAN_POINT('',(292.504109789,88.632968307,115.665193924));
#386=DIRECTION('',(0.,-1.,0.));
#387=DIRECTION('',(1.,0.,0.));
#388=AXIS2_PLACEMENT_3D('',#385,#386,#387);
#389=CYLINDRICAL_SURFACE('',#388,1.6);
#390=CARTESIAN_POINT('',(294.104109789,99.882968307,115.665193924));
#391=VERTEX_POINT('',#390);
#392=CARTESIAN_POINT('',(294.104109789,99.882968307,115.665193924));
#393=DIRECTION('',(-0.,1.,-0.));
#394=VECTOR('',#393,3.75);
#395=LINE('',#392,#394);
#396=EDGE_CURVE('',#391,#341,#395,.T.);
#397=ORIENTED_EDGE('',*,*,#396,.F.);
#398=CARTESIAN_POINT('',(292.504109789,99.882968307,115.665193924));
#399=DIRECTION('',(0.,-1.,0.));
#400=DIRECTION('',(1.,0.,0.));
#401=AXIS2_PLACEMENT_3D('',#398,#399,#400);
#402=CIRCLE('',#401,1.6);
#403=EDGE_CURVE('',#391,#391,#402,.T.);
#404=ORIENTED_EDGE('',*,*,#403,.T.);
#405=ORIENTED_EDGE('',*,*,#396,.T.);
#406=ORIENTED_EDGE('',*,*,#347,.F.);
#407=EDGE_LOOP('',(#397,#404,#405,#406));
#408=FACE_BOUND('',#407,.T.);
#409=ADVANCED_FACE('',(#408),#389,.F.);
#410=CARTESIAN_POINT('',(285.004109789,88.632968307,93.477693924));
#411=DIRECTION('',(0.,-1.,0.));
#412=DIRECTION('',(1.,0.,0.));
#413=AXIS2_PLACEMENT_3D('',#410,#411,#412);
#414=PLANE('',#413);
#415=CARTESIAN_POINT('',(292.004109789,88.632968307,118.477693924));
#416=VERTEX_POINT('',#415);
#417=CARTESIAN_POINT('',(293.004109789,88.632968307,118.477693924));
#418=VERTEX_POINT('',#417);
#419=CARTESIAN_POINT('',(292.004109789,88.632968307,118.477693924));
#420=DIRECTION('',(1.,0.,-0.));
#421=VECTOR('',#420,1.);
#422=LINE('',#419,#421);
#423=EDGE_CURVE('',#416,#418,#422,.T.);
#424=ORIENTED_EDGE('',*,*,#423,.F.);
#425=CARTESIAN_POINT('',(292.004109789,88.632968307,111.477693924));
#426=DIRECTION('',(0.,-1.,0.));
#427=DIRECTION('',(1.,0.,0.));
#428=AXIS2_PLACEMENT_3D('',#425,#426,#427);
#429=CIRCLE('',#428,7.);
#430=EDGE_CURVE('',#416,#174,#429,.T.);
#431=ORIENTED_EDGE('',*,*,#430,.T.);
#432=ORIENTED_EDGE('',*,*,#179,.T.);
#433=ORIENTED_EDGE('',*,*,#91,.T.);
#434=CARTESIAN_POINT('',(299.004109789,88.632968307,115.0832452));
#435=VERTEX_POINT('',#434);
#436=CARTESIAN_POINT('',(299.004109789,88.632968307,115.0832452));
#437=DIRECTION('',(0.,-0.,-1.));
#438=VECTOR('',#437,21.605551275);
#439=LINE('',#436,#438);
#440=EDGE_CURVE('',#435,#77,#439,.T.);
#441=ORIENTED_EDGE('',*,*,#440,.F.);
#442=CARTESIAN_POINT('',(293.004109789,88.632968307,111.477693924));
#443=DIRECTION('',(-0.,-1.,0.));
#444=DIRECTION('',(-1.,0.,0.));
#445=AXIS2_PLACEMENT_3D('',#442,#443,#444);
#446=CIRCLE('',#445,7.);
#447=EDGE_CURVE('',#435,#418,#446,.T.);
#448=ORIENTED_EDGE('',*,*,#447,.T.);
#449=EDGE_LOOP('',(#424,#431,#432,#433,#441,#448));
#450=FACE_BOUND('',#449,.T.);
#451=ORIENTED_EDGE('',*,*,#372,.F.);
#452=EDGE_LOOP('',(#451));
#453=FACE_BOUND('',#452,.T.);
#454=ADVANCED_FACE('',(#450,#453),#414,.T.);
#455=CARTESIAN_POINT('',(285.004109789,92.382968307,108.477693924));
#456=DIRECTION('',(0.,-1.,0.));
#457=DIRECTION('',(0.,0.,1.));
#458=AXIS2_PLACEMENT_3D('',#455,#456,#457);
#459=PLANE('',#458);
#460=CARTESIAN_POINT('',(286.004109789,92.382968307,115.0832452));
#461=VERTEX_POINT('',#460);
#462=CARTESIAN_POINT('',(292.004109789,92.382968307,118.477693924));
#463=VERTEX_POINT('',#462);
#464=CARTESIAN_POINT('',(292.004109789,92.382968307,111.477693924));
#465=DIRECTION('',(-0.,1.,-0.));
#466=DIRECTION('',(1.,0.,0.));
#467=AXIS2_PLACEMENT_3D('',#464,#465,#466);
#468=CIRCLE('',#467,7.);
#469=EDGE_CURVE('',#461,#463,#468,.T.);
#470=ORIENTED_EDGE('',*,*,#469,.T.);
#471=CARTESIAN_POINT('',(293.004109789,92.382968307,118.477693924));
#472=VERTEX_POINT('',#471);
#473=CARTESIAN_POINT('',(292.004109789,92.382968307,118.477693924));
#474=DIRECTION('',(1.,-0.,-0.));
#475=VECTOR('',#474,1.);
#476=LINE('',#473,#475);
#477=EDGE_CURVE('',#463,#472,#476,.T.);
#478=ORIENTED_EDGE('',*,*,#477,.T.);
#479=CARTESIAN_POINT('',(299.004109789,92.382968307,115.0832452));
#480=VERTEX_POINT('',#479);
#481=CARTESIAN_POINT('',(293.004109789,92.382968307,111.477693924));
#482=DIRECTION('',(0.,1.,-0.));
#483=DIRECTION('',(-1.,0.,0.));
#484=AXIS2_PLACEMENT_3D('',#481,#482,#483);
#485=CIRCLE('',#484,7.);
#486=EDGE_CURVE('',#472,#480,#485,.T.);
#487=ORIENTED_EDGE('',*,*,#486,.T.);
#488=CARTESIAN_POINT('',(299.004109789,92.382968307,105.0832452));
#489=VERTEX_POINT('',#488);
#490=CARTESIAN_POINT('',(299.004109789,92.382968307,105.0832452));
#491=DIRECTION('',(0.,0.,1.));
#492=VECTOR('',#491,10.);
#493=LINE('',#490,#492);
#494=EDGE_CURVE('',#489,#480,#493,.T.);
#495=ORIENTED_EDGE('',*,*,#494,.F.);
#496=CARTESIAN_POINT('',(293.004109789,92.382968307,108.477693924));
#497=VERTEX_POINT('',#496);
#498=CARTESIAN_POINT('',(293.004109789,92.382968307,101.477693924));
#499=DIRECTION('',(0.,-1.,0.));
#500=DIRECTION('',(1.,0.,0.));
#501=AXIS2_PLACEMENT_3D('',#498,#499,#500);
#502=CIRCLE('',#501,7.);
#503=EDGE_CURVE('',#489,#497,#502,.T.);
#504=ORIENTED_EDGE('',*,*,#503,.T.);
#505=CARTESIAN_POINT('',(292.004109789,92.382968307,108.477693924));
#506=VERTEX_POINT('',#505);
#507=CARTESIAN_POINT('',(292.004109789,92.382968307,108.477693924));
#508=DIRECTION('',(1.,-0.,-0.));
#509=VECTOR('',#508,1.);
#510=LINE('',#507,#509);
#511=EDGE_CURVE('',#506,#497,#510,.T.);
#512=ORIENTED_EDGE('',*,*,#511,.F.);
#513=CARTESIAN_POINT('',(286.004109789,92.382968307,105.0832452));
#514=VERTEX_POINT('',#513);
#515=CARTESIAN_POINT('',(292.004109789,92.382968307,101.477693924));
#516=DIRECTION('',(-0.,-1.,0.));
#517=DIRECTION('',(-1.,0.,0.));
#518=AXIS2_PLACEMENT_3D('',#515,#516,#517);
#519=CIRCLE('',#518,7.);
#520=EDGE_CURVE('',#506,#514,#519,.T.);
#521=ORIENTED_EDGE('',*,*,#520,.T.);
#522=CARTESIAN_POINT('',(286.004109789,92.382968307,115.0832452));
#523=DIRECTION('',(0.,-0.,-1.));
#524=VECTOR('',#523,10.);
#525=LINE('',#522,#524);
#526=EDGE_CURVE('',#461,#514,#525,.T.);
#527=ORIENTED_EDGE('',*,*,#526,.F.);
#528=EDGE_LOOP('',(#470,#478,#487,#495,#504,#512,#521,#527));
#529=FACE_BOUND('',#528,.T.);
#530=ORIENTED_EDGE('',*,*,#380,.T.);
#531=EDGE_LOOP('',(#530));
#532=FACE_BOUND('',#531,.T.);
#533=ADVANCED_FACE('',(#529,#532),#459,.F.);
#534=CARTESIAN_POINT('',(286.004109789,91.382968307,151.067693924));
#535=DIRECTION('',(-0.,-0.,-1.));
#536=DIRECTION('',(-1.,0.,0.));
#537=AXIS2_PLACEMENT_3D('',#534,#535,#536);
#538=CYLINDRICAL_SURFACE('',#537,1.);
#539=CARTESIAN_POINT('',(286.004109789,92.382968307,105.0832452));
#540=CARTESIAN_POINT('',(285.832638824,92.382968307,104.797900266));
#541=CARTESIAN_POINT('',(285.685546993,92.341240521,104.507532091));
#542=CARTESIAN_POINT('',(285.559563173,92.278724026,104.210424959));
#543=CARTESIAN_POINT('',(285.433579352,92.21620753,103.913317826));
#544=CARTESIAN_POINT('',(285.32891661,92.131145811,103.608409439));
#545=CARTESIAN_POINT('',(285.247100542,92.036372474,103.306033617));
#546=CARTESIAN_POINT('',(285.165284474,91.941599138,103.003657795));
#547=CARTESIAN_POINT('',(285.105027592,91.836252782,102.701152511));
#548=CARTESIAN_POINT('',(285.064726748,91.725837819,102.396912619));
#549=CARTESIAN_POINT('',(285.024425904,91.615422855,102.092672727));
#550=CARTESIAN_POINT('',(285.004109789,91.499740133,101.786645066));
#551=CARTESIAN_POINT('',(285.004109789,91.382968307,101.477693924));
#552=B_SPLINE_CURVE_WITH_KNOTS('',3,(#539,#540,#541,#542,#543,#544,#545,#546,#547,#548,#549,#550,#551),.UNSPECIFIED.,.F.,.F.,(4,3,3,3,4),(0.,0.000984052,0.001968103,0.002952155,0.003936207),.UNSPECIFIED.);
#553=EDGE_CURVE('',#514,#223,#552,.T.);
#554=ORIENTED_EDGE('',*,*,#553,.T.);
#555=ORIENTED_EDGE('',*,*,#228,.F.);
#556=CARTESIAN_POINT('',(285.004109789,91.382968307,111.477693924));
#557=CARTESIAN_POINT('',(285.004109789,91.499740133,111.786645066));
#558=CARTESIAN_POINT('',(285.024425904,91.615422855,112.092672727));
#559=CARTESIAN_POINT('',(285.064726748,91.725837819,112.396912619));
#560=CARTESIAN_POINT('',(285.105027592,91.836252782,112.701152511));
#561=CARTESIAN_POINT('',(285.165284474,91.941599138,113.003657795));
#562=CARTESIAN_POINT('',(285.247100542,92.036372474,113.306033617));
#563=CARTESIAN_POINT('',(285.32891661,92.131145811,113.608409439));
#564=CARTESIAN_POINT('',(285.433579352,92.21620753,113.913317826));
#565=CARTESIAN_POINT('',(285.559563173,92.278724026,114.210424959));
#566=CARTESIAN_POINT('',(285.685546993,92.341240521,114.507532091));
#567=CARTESIAN_POINT('',(285.832638824,92.382968307,114.797900266));
#568=CARTESIAN_POINT('',(286.004109789,92.382968307,115.0832452));
#569=B_SPLINE_CURVE_WITH_KNOTS('',3,(#556,#557,#558,#559,#560,#561,#562,#563,#564,#565,#566,#567,#568),.UNSPECIFIED.,.F.,.F.,(4,3,3,3,4),(0.,0.000984052,0.001968103,0.002952155,0.003936207),.UNSPECIFIED.);
#570=EDGE_CURVE('',#215,#461,#569,.T.);
#571=ORIENTED_EDGE('',*,*,#570,.T.);
#572=ORIENTED_EDGE('',*,*,#526,.T.);
#573=EDGE_LOOP('',(#554,#555,#571,#572));
#574=FACE_BOUND('',#573,.T.);
#575=ADVANCED_FACE('',(#574),#538,.T.);
#576=CARTESIAN_POINT('',(292.004109789,123.186968307,111.477693924));
#577=DIRECTION('',(0.,-1.,0.));
#578=DIRECTION('',(0.,0.,1.));
#579=AXIS2_PLACEMENT_3D('',#576,#577,#578);
#580=CYLINDRICAL_SURFACE('',#579,7.);
#581=CARTESIAN_POINT('',(292.004109789,92.382968307,118.477693924));
#582=DIRECTION('',(0.,-1.,0.));
#583=VECTOR('',#582,3.75);
#584=LINE('',#581,#583);
#585=EDGE_CURVE('',#463,#416,#584,.T.);
#586=ORIENTED_EDGE('',*,*,#585,.F.);
#587=ORIENTED_EDGE('',*,*,#469,.F.);
#588=ORIENTED_EDGE('',*,*,#570,.F.);
#589=ORIENTED_EDGE('',*,*,#220,.T.);
#590=ORIENTED_EDGE('',*,*,#197,.T.);
#591=ORIENTED_EDGE('',*,*,#430,.F.);
#592=EDGE_LOOP('',(#586,#587,#588,#589,#590,#591));
#593=FACE_BOUND('',#592,.T.);
#594=ADVANCED_FACE('',(#593),#580,.T.);
#595=CARTESIAN_POINT('',(292.504109789,96.132968307,118.477693924));
#596=DIRECTION('',(0.,0.,1.));
#597=DIRECTION('',(0.,-1.,0.));
#598=AXIS2_PLACEMENT_3D('',#595,#596,#597);
#599=PLANE('',#598);
#600=ORIENTED_EDGE('',*,*,#477,.F.);
#601=ORIENTED_EDGE('',*,*,#585,.T.);
#602=ORIENTED_EDGE('',*,*,#423,.T.);
#603=CARTESIAN_POINT('',(293.004109789,88.632968307,118.477693924));
#604=DIRECTION('',(-0.,1.,-0.));
#605=VECTOR('',#604,3.75);
#606=LINE('',#603,#605);
#607=EDGE_CURVE('',#418,#472,#606,.T.);
#608=ORIENTED_EDGE('',*,*,#607,.T.);
#609=EDGE_LOOP('',(#600,#601,#602,#608));
#610=FACE_BOUND('',#609,.T.);
#611=ADVANCED_FACE('',(#610),#599,.T.);
#612=CARTESIAN_POINT('',(292.504109789,96.132968307,118.477693924));
#613=DIRECTION('',(0.,0.,1.));
#614=DIRECTION('',(0.,-1.,0.));
#615=AXIS2_PLACEMENT_3D('',#612,#613,#614);
#616=PLANE('',#615);
#617=ORIENTED_EDGE('',*,*,#329,.T.);
#618=CARTESIAN_POINT('',(292.004109789,99.882968307,118.477693924));
#619=VERTEX_POINT('',#618);
#620=CARTESIAN_POINT('',(292.004109789,103.632968307,118.477693924));
#621=DIRECTION('',(0.,-1.,0.));
#622=VECTOR('',#621,3.75);
#623=LINE('',#620,#622);
#624=EDGE_CURVE('',#315,#619,#623,.T.);
#625=ORIENTED_EDGE('',*,*,#624,.T.);
#626=CARTESIAN_POINT('',(293.004109789,99.882968307,118.477693924));
#627=VERTEX_POINT('',#626);
#628=CARTESIAN_POINT('',(292.004109789,99.882968307,118.477693924));
#629=DIRECTION('',(1.,0.,-0.));
#630=VECTOR('',#629,1.);
#631=LINE('',#628,#630);
#632=EDGE_CURVE('',#619,#627,#631,.T.);
#633=ORIENTED_EDGE('',*,*,#632,.T.);
#634=CARTESIAN_POINT('',(293.004109789,99.882968307,118.477693924));
#635=DIRECTION('',(-0.,1.,-0.));
#636=VECTOR('',#635,3.75);
#637=LINE('',#634,#636);
#638=EDGE_CURVE('',#627,#324,#637,.T.);
#639=ORIENTED_EDGE('',*,*,#638,.T.);
#640=EDGE_LOOP('',(#617,#625,#633,#639));
#641=FACE_BOUND('',#640,.T.);
#642=ADVANCED_FACE('',(#641),#616,.T.);
#643=CARTESIAN_POINT('',(293.004109789,69.078968307,111.477693924));
#644=DIRECTION('',(0.,1.,-0.));
#645=DIRECTION('',(0.,0.,1.));
#646=AXIS2_PLACEMENT_3D('',#643,#644,#645);
#647=CYLINDRICAL_SURFACE('',#646,7.);
#648=CARTESIAN_POINT('',(300.004109789,91.382968307,111.477693924));
#649=VERTEX_POINT('',#648);
#650=CARTESIAN_POINT('',(299.004109789,92.382968307,115.0832452));
#651=CARTESIAN_POINT('',(299.175580754,92.382968307,114.797900266));
#652=CARTESIAN_POINT('',(299.322672585,92.341240521,114.507532091));
#653=CARTESIAN_POINT('',(299.448656406,92.278724026,114.210424959));
#654=CARTESIAN_POINT('',(299.574640227,92.21620753,113.913317826));
#655=CARTESIAN_POINT('',(299.679302969,92.131145811,113.608409439));
#656=CARTESIAN_POINT('',(299.761119037,92.036372474,113.306033617));
#657=CARTESIAN_POINT('',(299.842935105,91.941599138,113.003657795));
#658=CARTESIAN_POINT('',(299.903191987,91.836252782,112.701152511));
#659=CARTESIAN_POINT('',(299.94349283,91.725837819,112.396912619));
#660=CARTESIAN_POINT('',(299.983793674,91.615422855,112.092672727));
#661=CARTESIAN_POINT('',(300.004109789,91.499742176,111.786644294));
#662=CARTESIAN_POINT('',(300.004109789,91.382968307,111.477693924));
#663=B_SPLINE_CURVE_WITH_KNOTS('',3,(#650,#651,#652,#653,#654,#655,#656,#657,#658,#659,#660,#661,#662),.UNSPECIFIED.,.F.,.F.,(4,3,3,3,4),(0.,0.000984052,0.001968103,0.002952155,0.003936207),.UNSPECIFIED.);
#664=EDGE_CURVE('',#480,#649,#663,.T.);
#665=ORIENTED_EDGE('',*,*,#664,.F.);
#666=ORIENTED_EDGE('',*,*,#486,.F.);
#667=ORIENTED_EDGE('',*,*,#607,.F.);
#668=ORIENTED_EDGE('',*,*,#447,.F.);
#669=CARTESIAN_POINT('',(300.004109789,89.632968307,111.477693924));
#670=VERTEX_POINT('',#669);
#671=CARTESIAN_POINT('',(300.004109789,89.632968307,111.477693924));
#672=CARTESIAN_POINT('',(300.004109789,89.516196481,111.786645066));
#673=CARTESIAN_POINT('',(299.983793674,89.400513759,112.092672727));
#674=CARTESIAN_POINT('',(299.94349283,89.290098795,112.396912619));
#675=CARTESIAN_POINT('',(299.903191987,89.179683832,112.701152511));
#676=CARTESIAN_POINT('',(299.842935105,89.074337476,113.003657795));
#677=CARTESIAN_POINT('',(299.761119037,88.97956414,113.306033617));
#678=CARTESIAN_POINT('',(299.679302969,88.884790804,113.608409439));
#679=CARTESIAN_POINT('',(299.574640227,88.799729084,113.913317826));
#680=CARTESIAN_POINT('',(299.448656406,88.737212588,114.210424959));
#681=CARTESIAN_POINT('',(299.322672585,88.674696093,114.507532091));
#682=CARTESIAN_POINT('',(299.175580754,88.632968307,114.797900266));
#683=CARTESIAN_POINT('',(299.004109789,88.632968307,115.0832452));
#684=B_SPLINE_CURVE_WITH_KNOTS('',3,(#671,#672,#673,#674,#675,#676,#677,#678,#679,#680,#681,#682,#683),.UNSPECIFIED.,.F.,.F.,(4,3,3,3,4),(0.,0.000984052,0.001968103,0.002952155,0.003936207),.UNSPECIFIED.);
#685=EDGE_CURVE('',#670,#435,#684,.T.);
#686=ORIENTED_EDGE('',*,*,#685,.F.);
#687=CARTESIAN_POINT('',(300.004109789,89.632968307,111.477693924));
#688=DIRECTION('',(0.,1.,-0.));
#689=VECTOR('',#688,1.75);
#690=LINE('',#687,#689);
#691=EDGE_CURVE('',#670,#649,#690,.T.);
#692=ORIENTED_EDGE('',*,*,#691,.T.);
#693=EDGE_LOOP('',(#665,#666,#667,#668,#686,#692));
#694=FACE_BOUND('',#693,.T.);
#695=ADVANCED_FACE('',(#694),#647,.T.);
#696=CARTESIAN_POINT('',(300.004109789,88.632968307,93.477693924));
#697=DIRECTION('',(1.,0.,0.));
#698=DIRECTION('',(0.,1.,-0.));
#699=AXIS2_PLACEMENT_3D('',#696,#697,#698);
#700=PLANE('',#699);
#701=CARTESIAN_POINT('',(300.004109789,89.632968307,111.477693924));
#702=DIRECTION('',(-0.,-0.,-1.));
#703=VECTOR('',#702,18.);
#704=LINE('',#701,#703);
#705=EDGE_CURVE('',#670,#69,#704,.T.);
#706=ORIENTED_EDGE('',*,*,#705,.T.);
#707=ORIENTED_EDGE('',*,*,#74,.T.);
#708=CARTESIAN_POINT('',(300.004109789,102.632968307,111.477693924));
#709=VERTEX_POINT('',#708);
#710=CARTESIAN_POINT('',(300.004109789,102.632968307,111.477693924));
#711=DIRECTION('',(0.,-0.,-1.));
#712=VECTOR('',#711,18.);
#713=LINE('',#710,#712);
#714=EDGE_CURVE('',#709,#60,#713,.T.);
#715=ORIENTED_EDGE('',*,*,#714,.F.);
#716=CARTESIAN_POINT('',(300.004109789,100.882968307,111.477693924));
#717=VERTEX_POINT('',#716);
#718=CARTESIAN_POINT('',(300.004109789,100.882968307,111.477693924));
#719=DIRECTION('',(0.,1.,-0.));
#720=VECTOR('',#719,1.75);
#721=LINE('',#718,#720);
#722=EDGE_CURVE('',#717,#709,#721,.T.);
#723=ORIENTED_EDGE('',*,*,#722,.F.);
#724=CARTESIAN_POINT('',(300.004109789,100.882968307,101.477693924));
#725=VERTEX_POINT('',#724);
#726=CARTESIAN_POINT('',(300.004109789,100.882968307,111.477693924));
#727=DIRECTION('',(-0.,-0.,-1.));
#728=VECTOR('',#727,10.);
#729=LINE('',#726,#728);
#730=EDGE_CURVE('',#717,#725,#729,.T.);
#731=ORIENTED_EDGE('',*,*,#730,.T.);
#732=CARTESIAN_POINT('',(300.004109789,91.382968307,101.477693924));
#733=VERTEX_POINT('',#732);
#734=CARTESIAN_POINT('',(300.004109789,100.882968307,101.477693924));
#735=DIRECTION('',(-0.,-1.,0.));
#736=VECTOR('',#735,9.5);
#737=LINE('',#734,#736);
#738=EDGE_CURVE('',#725,#733,#737,.T.);
#739=ORIENTED_EDGE('',*,*,#738,.T.);
#740=CARTESIAN_POINT('',(300.004109789,91.382968307,101.477693924));
#741=DIRECTION('',(0.,0.,1.));
#742=VECTOR('',#741,10.);
#743=LINE('',#740,#742);
#744=EDGE_CURVE('',#733,#649,#743,.T.);
#745=ORIENTED_EDGE('',*,*,#744,.T.);
#746=ORIENTED_EDGE('',*,*,#691,.F.);
#747=EDGE_LOOP('',(#706,#707,#715,#723,#731,#739,#745,#746));
#748=FACE_BOUND('',#747,.T.);
#749=ADVANCED_FACE('',(#748),#700,.T.);
#750=CARTESIAN_POINT('',(299.004109789,91.382968307,60.887693924));
#751=DIRECTION('',(-0.,0.,1.));
#752=DIRECTION('',(1.,0.,0.));
#753=AXIS2_PLACEMENT_3D('',#750,#751,#752);
#754=CYLINDRICAL_SURFACE('',#753,1.);
#755=CARTESIAN_POINT('',(299.004109789,92.382968307,105.0832452));
#756=CARTESIAN_POINT('',(299.175580754,92.382968307,104.797900266));
#757=CARTESIAN_POINT('',(299.322672585,92.341240521,104.507532091));
#758=CARTESIAN_POINT('',(299.448656406,92.278724026,104.210424959));
#759=CARTESIAN_POINT('',(299.574640227,92.21620753,103.913317826));
#760=CARTESIAN_POINT('',(299.679302969,92.131145811,103.608409439));
#761=CARTESIAN_POINT('',(299.761119037,92.036372474,103.306033617));
#762=CARTESIAN_POINT('',(299.842935105,91.941599138,103.003657795));
#763=CARTESIAN_POINT('',(299.903191987,91.836252782,102.701152511));
#764=CARTESIAN_POINT('',(299.94349283,91.725837819,102.396912619));
#765=CARTESIAN_POINT('',(299.983793674,91.615422855,102.092672727));
#766=CARTESIAN_POINT('',(300.004109789,91.499742176,101.786644294));
#767=CARTESIAN_POINT('',(300.004109789,91.382968307,101.477693924));
#768=B_SPLINE_CURVE_WITH_KNOTS('',3,(#755,#756,#757,#758,#759,#760,#761,#762,#763,#764,#765,#766,#767),.UNSPECIFIED.,.F.,.F.,(4,3,3,3,4),(0.,0.000984052,0.001968103,0.002952155,0.003936207),.UNSPECIFIED.);
#769=EDGE_CURVE('',#489,#733,#768,.T.);
#770=ORIENTED_EDGE('',*,*,#769,.F.);
#771=ORIENTED_EDGE('',*,*,#494,.T.);
#772=ORIENTED_EDGE('',*,*,#664,.T.);
#773=ORIENTED_EDGE('',*,*,#744,.F.);
#774=EDGE_LOOP('',(#770,#771,#772,#773));
#775=FACE_BOUND('',#774,.T.);
#776=ADVANCED_FACE('',(#775),#754,.T.);
#777=CARTESIAN_POINT('',(293.004109789,123.186968307,101.477693924));
#778=DIRECTION('',(0.,-1.,0.));
#779=DIRECTION('',(1.,0.,0.));
#780=AXIS2_PLACEMENT_3D('',#777,#778,#779);
#781=CYLINDRICAL_SURFACE('',#780,7.);
#782=CARTESIAN_POINT('',(299.004109789,99.882968307,105.0832452));
#783=VERTEX_POINT('',#782);
#784=CARTESIAN_POINT('',(299.004109789,99.882968307,105.0832452));
#785=CARTESIAN_POINT('',(299.175580754,99.882968307,104.797900266));
#786=CARTESIAN_POINT('',(299.322672585,99.924696093,104.507532091));
#787=CARTESIAN_POINT('',(299.448656406,99.987212588,104.210424959));
#788=CARTESIAN_POINT('',(299.574640227,100.049729084,103.913317826));
#789=CARTESIAN_POINT('',(299.679302969,100.134790804,103.608409439));
#790=CARTESIAN_POINT('',(299.761119037,100.22956414,103.306033617));
#791=CARTESIAN_POINT('',(299.842935105,100.324337476,103.003657795));
#792=CARTESIAN_POINT('',(299.903191987,100.429683832,102.701152511));
#793=CARTESIAN_POINT('',(299.94349283,100.540098795,102.396912619));
#794=CARTESIAN_POINT('',(299.983793674,100.650513759,102.092672727));
#795=CARTESIAN_POINT('',(300.004109789,100.766196481,101.786645066));
#796=CARTESIAN_POINT('',(300.004109789,100.882968307,101.477693924));
#797=B_SPLINE_CURVE_WITH_KNOTS('',3,(#784,#785,#786,#787,#788,#789,#790,#791,#792,#793,#794,#795,#796),.UNSPECIFIED.,.F.,.F.,(4,3,3,3,4),(0.,0.000984052,0.001968103,0.002952155,0.003936207),.UNSPECIFIED.);
#798=EDGE_CURVE('',#783,#725,#797,.T.);
#799=ORIENTED_EDGE('',*,*,#798,.F.);
#800=CARTESIAN_POINT('',(293.004109789,99.882968307,108.477693924));
#801=VERTEX_POINT('',#800);
#802=CARTESIAN_POINT('',(293.004109789,99.882968307,101.477693924));
#803=DIRECTION('',(-0.,1.,-0.));
#804=DIRECTION('',(1.,0.,0.));
#805=AXIS2_PLACEMENT_3D('',#802,#803,#804);
#806=CIRCLE('',#805,7.);
#807=EDGE_CURVE('',#801,#783,#806,.T.);
#808=ORIENTED_EDGE('',*,*,#807,.F.);
#809=CARTESIAN_POINT('',(293.004109789,99.882968307,108.477693924));
#810=DIRECTION('',(0.,-1.,0.));
#811=VECTOR('',#810,7.5);
#812=LINE('',#809,#811);
#813=EDGE_CURVE('',#801,#497,#812,.T.);
#814=ORIENTED_EDGE('',*,*,#813,.T.);
#815=ORIENTED_EDGE('',*,*,#503,.F.);
#816=ORIENTED_EDGE('',*,*,#769,.T.);
#817=ORIENTED_EDGE('',*,*,#738,.F.);
#818=EDGE_LOOP('',(#799,#808,#814,#815,#816,#817));
#819=FACE_BOUND('',#818,.T.);
#820=ADVANCED_FACE('',(#819),#781,.T.);
#821=CARTESIAN_POINT('',(285.004109789,99.882968307,108.477693924));
#822=DIRECTION('',(0.,-0.,-1.));
#823=DIRECTION('',(0.,-1.,0.));
#824=AXIS2_PLACEMENT_3D('',#821,#822,#823);
#825=PLANE('',#824);
#826=CARTESIAN_POINT('',(292.004109789,99.882968307,108.477693924));
#827=VERTEX_POINT('',#826);
#828=CARTESIAN_POINT('',(292.004109789,99.882968307,108.477693924));
#829=DIRECTION('',(1.,-0.,-0.));
#830=VECTOR('',#829,1.);
#831=LINE('',#828,#830);
#832=EDGE_CURVE('',#827,#801,#831,.T.);
#833=ORIENTED_EDGE('',*,*,#832,.F.);
#834=CARTESIAN_POINT('',(292.004109789,92.382968307,108.477693924));
#835=DIRECTION('',(0.,1.,-0.));
#836=VECTOR('',#835,7.5);
#837=LINE('',#834,#836);
#838=EDGE_CURVE('',#506,#827,#837,.T.);
#839=ORIENTED_EDGE('',*,*,#838,.F.);
#840=ORIENTED_EDGE('',*,*,#511,.T.);
#841=ORIENTED_EDGE('',*,*,#813,.F.);
#842=EDGE_LOOP('',(#833,#839,#840,#841));
#843=FACE_BOUND('',#842,.T.);
#844=ADVANCED_FACE('',(#843),#825,.F.);
#845=CARTESIAN_POINT('',(292.004109789,69.078968307,101.477693924));
#846=DIRECTION('',(0.,1.,-0.));
#847=DIRECTION('',(-1.,0.,0.));
#848=AXIS2_PLACEMENT_3D('',#845,#846,#847);
#849=CYLINDRICAL_SURFACE('',#848,7.);
#850=CARTESIAN_POINT('',(286.004109789,99.882968307,105.0832452));
#851=VERTEX_POINT('',#850);
#852=CARTESIAN_POINT('',(292.004109789,99.882968307,101.477693924));
#853=DIRECTION('',(0.,1.,-0.));
#854=DIRECTION('',(-1.,0.,0.));
#855=AXIS2_PLACEMENT_3D('',#852,#853,#854);
#856=CIRCLE('',#855,7.);
#857=EDGE_CURVE('',#851,#827,#856,.T.);
#858=ORIENTED_EDGE('',*,*,#857,.F.);
#859=CARTESIAN_POINT('',(286.004109789,99.882968307,105.0832452));
#860=CARTESIAN_POINT('',(285.832638824,99.882968307,104.797900266));
#861=CARTESIAN_POINT('',(285.685546993,99.924696093,104.507532091));
#862=CARTESIAN_POINT('',(285.559563173,99.987212588,104.210424959));
#863=CARTESIAN_POINT('',(285.433579352,100.049729084,103.913317826));
#864=CARTESIAN_POINT('',(285.32891661,100.134790804,103.608409439));
#865=CARTESIAN_POINT('',(285.247100542,100.22956414,103.306033617));
#866=CARTESIAN_POINT('',(285.165284474,100.324337476,103.003657795));
#867=CARTESIAN_POINT('',(285.105027592,100.429683832,102.701152511));
#868=CARTESIAN_POINT('',(285.064726748,100.540098795,102.396912619));
#869=CARTESIAN_POINT('',(285.024425904,100.650513759,102.092672727));
#870=CARTESIAN_POINT('',(285.004109789,100.766194438,101.786644294));
#871=CARTESIAN_POINT('',(285.004109789,100.882968307,101.477693924));
#872=B_SPLINE_CURVE_WITH_KNOTS('',3,(#859,#860,#861,#862,#863,#864,#865,#866,#867,#868,#869,#870,#871),.UNSPECIFIED.,.F.,.F.,(4,3,3,3,4),(0.,0.000984052,0.001968103,0.002952155,0.003936207),.UNSPECIFIED.);
#873=EDGE_CURVE('',#851,#231,#872,.T.);
#874=ORIENTED_EDGE('',*,*,#873,.T.);
#875=ORIENTED_EDGE('',*,*,#236,.F.);
#876=ORIENTED_EDGE('',*,*,#553,.F.);
#877=ORIENTED_EDGE('',*,*,#520,.F.);
#878=ORIENTED_EDGE('',*,*,#838,.T.);
#879=EDGE_LOOP('',(#858,#874,#875,#876,#877,#878));
#880=FACE_BOUND('',#879,.T.);
#881=ADVANCED_FACE('',(#880),#849,.T.);
#882=CARTESIAN_POINT('',(286.004109789,100.882968307,60.887693924));
#883=DIRECTION('',(0.,0.,1.));
#884=DIRECTION('',(-1.,0.,0.));
#885=AXIS2_PLACEMENT_3D('',#882,#883,#884);
#886=CYLINDRICAL_SURFACE('',#885,1.);
#887=ORIENTED_EDGE('',*,*,#873,.F.);
#888=CARTESIAN_POINT('',(286.004109789,99.882968307,115.0832452));
#889=VERTEX_POINT('',#888);
#890=CARTESIAN_POINT('',(286.004109789,99.882968307,105.0832452));
#891=DIRECTION('',(0.,0.,1.));
#892=VECTOR('',#891,10.);
#893=LINE('',#890,#892);
#894=EDGE_CURVE('',#851,#889,#893,.T.);
#895=ORIENTED_EDGE('',*,*,#894,.T.);
#896=CARTESIAN_POINT('',(286.004109789,99.882968307,115.0832452));
#897=CARTESIAN_POINT('',(285.832638824,99.882968307,114.797900266));
#898=CARTESIAN_POINT('',(285.685546993,99.924696093,114.507532091));
#899=CARTESIAN_POINT('',(285.559563173,99.987212588,114.210424959));
#900=CARTESIAN_POINT('',(285.433579352,100.049729084,113.913317826));
#901=CARTESIAN_POINT('',(285.32891661,100.134790804,113.608409439));
#902=CARTESIAN_POINT('',(285.247100542,100.22956414,113.306033617));
#903=CARTESIAN_POINT('',(285.165284474,100.324337476,113.003657795));
#904=CARTESIAN_POINT('',(285.105027592,100.429683832,112.701152511));
#905=CARTESIAN_POINT('',(285.064726748,100.540098795,112.396912619));
#906=CARTESIAN_POINT('',(285.024425904,100.650513759,112.092672727));
#907=CARTESIAN_POINT('',(285.004109789,100.766194438,111.786644294));
#908=CARTESIAN_POINT('',(285.004109789,100.882968307,111.477693924));
#909=B_SPLINE_CURVE_WITH_KNOTS('',3,(#896,#897,#898,#899,#900,#901,#902,#903,#904,#905,#906,#907,#908),.UNSPECIFIED.,.F.,.F.,(4,3,3,3,4),(0.,0.000984052,0.001968103,0.002952155,0.003936207),.UNSPECIFIED.);
#910=EDGE_CURVE('',#889,#239,#909,.T.);
#911=ORIENTED_EDGE('',*,*,#910,.T.);
#912=ORIENTED_EDGE('',*,*,#244,.F.);
#913=EDGE_LOOP('',(#887,#895,#911,#912));
#914=FACE_BOUND('',#913,.T.);
#915=ADVANCED_FACE('',(#914),#886,.T.);
#916=CARTESIAN_POINT('',(292.004109789,123.186968307,111.477693924));
#917=DIRECTION('',(0.,-1.,0.));
#918=DIRECTION('',(0.,0.,1.));
#919=AXIS2_PLACEMENT_3D('',#916,#917,#918);
#920=CYLINDRICAL_SURFACE('',#919,7.);
#921=ORIENTED_EDGE('',*,*,#910,.F.);
#922=CARTESIAN_POINT('',(292.004109789,99.882968307,111.477693924));
#923=DIRECTION('',(0.,-1.,0.));
#924=DIRECTION('',(1.,0.,0.));
#925=AXIS2_PLACEMENT_3D('',#922,#923,#924);
#926=CIRCLE('',#925,7.);
#927=EDGE_CURVE('',#619,#889,#926,.T.);
#928=ORIENTED_EDGE('',*,*,#927,.F.);
#929=ORIENTED_EDGE('',*,*,#624,.F.);
#930=ORIENTED_EDGE('',*,*,#321,.F.);
#931=ORIENTED_EDGE('',*,*,#287,.F.);
#932=ORIENTED_EDGE('',*,*,#252,.T.);
#933=EDGE_LOOP('',(#921,#928,#929,#930,#931,#932));
#934=FACE_BOUND('',#933,.T.);
#935=ADVANCED_FACE('',(#934),#920,.T.);
#936=CARTESIAN_POINT('',(285.004109789,99.882968307,118.477693924));
#937=DIRECTION('',(0.,1.,-0.));
#938=DIRECTION('',(0.,-0.,-1.));
#939=AXIS2_PLACEMENT_3D('',#936,#937,#938);
#940=PLANE('',#939);
#941=ORIENTED_EDGE('',*,*,#807,.T.);
#942=CARTESIAN_POINT('',(299.004109789,99.882968307,115.0832452));
#943=VERTEX_POINT('',#942);
#944=CARTESIAN_POINT('',(299.004109789,99.882968307,115.0832452));
#945=DIRECTION('',(0.,-0.,-1.));
#946=VECTOR('',#945,10.);
#947=LINE('',#944,#946);
#948=EDGE_CURVE('',#943,#783,#947,.T.);
#949=ORIENTED_EDGE('',*,*,#948,.F.);
#950=CARTESIAN_POINT('',(293.004109789,99.882968307,111.477693924));
#951=DIRECTION('',(-0.,-1.,0.));
#952=DIRECTION('',(-1.,0.,0.));
#953=AXIS2_PLACEMENT_3D('',#950,#951,#952);
#954=CIRCLE('',#953,7.);
#955=EDGE_CURVE('',#943,#627,#954,.T.);
#956=ORIENTED_EDGE('',*,*,#955,.T.);
#957=ORIENTED_EDGE('',*,*,#632,.F.);
#958=ORIENTED_EDGE('',*,*,#927,.T.);
#959=ORIENTED_EDGE('',*,*,#894,.F.);
#960=ORIENTED_EDGE('',*,*,#857,.T.);
#961=ORIENTED_EDGE('',*,*,#832,.T.);
#962=EDGE_LOOP('',(#941,#949,#956,#957,#958,#959,#960,#961));
#963=FACE_BOUND('',#962,.T.);
#964=ORIENTED_EDGE('',*,*,#403,.F.);
#965=EDGE_LOOP('',(#964));
#966=FACE_BOUND('',#965,.T.);
#967=ADVANCED_FACE('',(#963,#966),#940,.F.);
#968=CARTESIAN_POINT('',(293.004109789,69.078968307,111.477693924));
#969=DIRECTION('',(0.,1.,-0.));
#970=DIRECTION('',(0.,0.,1.));
#971=AXIS2_PLACEMENT_3D('',#968,#969,#970);
#972=CYLINDRICAL_SURFACE('',#971,7.);
#973=ORIENTED_EDGE('',*,*,#638,.F.);
#974=ORIENTED_EDGE('',*,*,#955,.F.);
#975=CARTESIAN_POINT('',(300.004109789,100.882968307,111.477693924));
#976=CARTESIAN_POINT('',(300.004109789,100.766196481,111.786645066));
#977=CARTESIAN_POINT('',(299.983793674,100.650513759,112.092672727));
#978=CARTESIAN_POINT('',(299.94349283,100.540098795,112.396912619));
#979=CARTESIAN_POINT('',(299.903191987,100.429683832,112.701152511));
#980=CARTESIAN_POINT('',(299.842935105,100.324337476,113.003657795));
#981=CARTESIAN_POINT('',(299.761119037,100.22956414,113.306033617));
#982=CARTESIAN_POINT('',(299.679302969,100.134790804,113.608409439));
#983=CARTESIAN_POINT('',(299.574640227,100.049729084,113.913317826));
#984=CARTESIAN_POINT('',(299.448656406,99.987212588,114.210424959));
#985=CARTESIAN_POINT('',(299.322672585,99.924696093,114.507532091));
#986=CARTESIAN_POINT('',(299.175580754,99.882968307,114.797900266));
#987=CARTESIAN_POINT('',(299.004109789,99.882968307,115.0832452));
#988=B_SPLINE_CURVE_WITH_KNOTS('',3,(#975,#976,#977,#978,#979,#980,#981,#982,#983,#984,#985,#986,#987),.UNSPECIFIED.,.F.,.F.,(4,3,3,3,4),(0.,0.000984052,0.001968103,0.002952155,0.003936207),.UNSPECIFIED.);
#989=EDGE_CURVE('',#717,#943,#988,.T.);
#990=ORIENTED_EDGE('',*,*,#989,.F.);
#991=ORIENTED_EDGE('',*,*,#722,.T.);
#992=CARTESIAN_POINT('',(299.004109789,103.632968307,115.0832452));
#993=CARTESIAN_POINT('',(299.175580754,103.632968307,114.797900266));
#994=CARTESIAN_POINT('',(299.322672585,103.591240521,114.507532091));
#995=CARTESIAN_POINT('',(299.448656406,103.528724026,114.210424959));
#996=CARTESIAN_POINT('',(299.574640227,103.46620753,113.913317826));
#997=CARTESIAN_POINT('',(299.679302969,103.381145811,113.608409439));
#998=CARTESIAN_POINT('',(299.761119037,103.286372474,113.306033617));
#999=CARTESIAN_POINT('',(299.842935105,103.191599138,113.003657795));
#1000=CARTESIAN_POINT('',(299.903191987,103.086252782,112.701152511));
#1001=CARTESIAN_POINT('',(299.94349283,102.975837819,112.396912619));
#1002=CARTESIAN_POINT('',(299.983793674,102.865422855,112.092672727));
#1003=CARTESIAN_POINT('',(300.004109789,102.749742176,111.786644294));
#1004=CARTESIAN_POINT('',(300.004109789,102.632968307,111.477693924));
#1005=B_SPLINE_CURVE_WITH_KNOTS('',3,(#992,#993,#994,#995,#996,#997,#998,#999,#1000,#1001,#1002,#1003,#1004),.UNSPECIFIED.,.F.,.F.,(4,3,3,3,4),(0.,0.000984052,0.001968103,0.002952155,0.003936207),.UNSPECIFIED.);
#1006=EDGE_CURVE('',#305,#709,#1005,.T.);
#1007=ORIENTED_EDGE('',*,*,#1006,.F.);
#1008=ORIENTED_EDGE('',*,*,#336,.F.);
#1009=EDGE_LOOP('',(#973,#974,#990,#991,#1007,#1008));
#1010=FACE_BOUND('',#1009,.T.);
#1011=ADVANCED_FACE('',(#1010),#972,.T.);
#1012=CARTESIAN_POINT('',(299.004109789,102.632968307,151.067693924));
#1013=DIRECTION('',(0.,-0.,-1.));
#1014=DIRECTION('',(0.,1.,-0.));
#1015=AXIS2_PLACEMENT_3D('',#1012,#1013,#1014);
#1016=CYLINDRICAL_SURFACE('',#1015,1.);
#1017=ORIENTED_EDGE('',*,*,#310,.F.);
#1018=ORIENTED_EDGE('',*,*,#1006,.T.);
#1019=ORIENTED_EDGE('',*,*,#714,.T.);
#1020=ORIENTED_EDGE('',*,*,#66,.F.);
#1021=EDGE_LOOP('',(#1017,#1018,#1019,#1020));
#1022=FACE_BOUND('',#1021,.T.);
#1023=ADVANCED_FACE('',(#1022),#1016,.T.);
#1024=CARTESIAN_POINT('',(299.004109789,100.882968307,151.067693924));
#1025=DIRECTION('',(0.,-0.,-1.));
#1026=DIRECTION('',(1.,0.,0.));
#1027=AXIS2_PLACEMENT_3D('',#1024,#1025,#1026);
#1028=CYLINDRICAL_SURFACE('',#1027,1.);
#1029=ORIENTED_EDGE('',*,*,#798,.T.);
#1030=ORIENTED_EDGE('',*,*,#730,.F.);
#1031=ORIENTED_EDGE('',*,*,#989,.T.);
#1032=ORIENTED_EDGE('',*,*,#948,.T.);
#1033=EDGE_LOOP('',(#1029,#1030,#1031,#1032));
#1034=FACE_BOUND('',#1033,.T.);
#1035=ADVANCED_FACE('',(#1034),#1028,.T.);
#1036=CARTESIAN_POINT('',(299.004109789,89.632968307,151.067693924));
#1037=DIRECTION('',(0.,-0.,-1.));
#1038=DIRECTION('',(1.,0.,0.));
#1039=AXIS2_PLACEMENT_3D('',#1036,#1037,#1038);
#1040=CYLINDRICAL_SURFACE('',#1039,1.);
#1041=ORIENTED_EDGE('',*,*,#705,.F.);
#1042=ORIENTED_EDGE('',*,*,#685,.T.);
#1043=ORIENTED_EDGE('',*,*,#440,.T.);
#1044=ORIENTED_EDGE('',*,*,#83,.F.);
#1045=EDGE_LOOP('',(#1041,#1042,#1043,#1044));
#1046=FACE_BOUND('',#1045,.T.);
#1047=ADVANCED_FACE('',(#1046),#1040,.T.);
#1048=CLOSED_SHELL('',(#122,#157,#167,#208,#264,#298,#351,#384,#409,#454,#533,#575,#594,#611,#642,#695,#749,#776,#820,#844,#881,#915,#935,#967,#1011,#1023,
#1035,#1047));
#1049=MANIFOLD_SOLID_BREP('Fork_V4_(1)',#1048);
#1050=COLOUR_RGB('',0.247058824,0.247058824,0.258823544);
#1051=FILL_AREA_STYLE_COLOUR('',#1050);
#1052=FILL_AREA_STYLE('',(#1051));
#1053=SURFACE_STYLE_FILL_AREA(#1052);
#1054=SURFACE_SIDE_STYLE('',(#1053));
#1055=SURFACE_STYLE_USAGE(.BOTH.,#1054);
#1056=PRESENTATION_STYLE_ASSIGNMENT((#1055));
#26=STYLED_ITEM('',(#1056),#1049);
#16=SHAPE_REPRESENTATION('Fork_V4_(1)',(#15),#10);
#17=ADVANCED_BREP_SHAPE_REPRESENTATION('Fork_V4_(1)',(#1049),#10);
#1064=SHAPE_REPRESENTATION_RELATIONSHIP('','',#16,#17);
#1065=CARTESIAN_POINT('',(0.,0.,0.));
#1066=DIRECTION('',(0.,0.,1.));
#1067=DIRECTION('',(1.,0.,0.));
#1068=AXIS2_PLACEMENT_3D('',#1065,#1066,#1067);
#1070=MAPPED_ITEM('',#1069,#1068);
#1069=REPRESENTATION_MAP(#1068,#16);
#1071=APPLICATION_CONTEXT('Managed model based 3d engineering');
#1072=APPLICATION_PROTOCOL_DEFINITION('international standard','ap242_managed_model_based_3d_engineering',2014,#1071);
#1073=PRODUCT_CONTEXT('',#1071,'mechanical');
#1074=PRODUCT_DEFINITION_CONTEXT('part definition',#1071,'design');
#24=PRODUCT('Fork_V4_(1)','Fork_V4_(1)','',(#1073));
#1075=PRODUCT_RELATED_PRODUCT_CATEGORY('part','',(#24));
#1076=PRODUCT_DEFINITION_FORMATION_WITH_SPECIFIED_SOURCE('','',#24,.NOT_KNOWN.);
#25=PRODUCT_DEFINITION('design','',#1076,#1074);
#23=PRODUCT_DEFINITION_SHAPE('','',#25);
#1077=SHAPE_DEFINITION_REPRESENTATION(#23,#16);
#11=DRAUGHTING_MODEL('',(#1070),#10);
#1078=DESCRIPTIVE_REPRESENTATION_ITEM('KEY','/Users/quimgraellsolive/Library/Containers/com.shapr3d.shapr/Data/tmp/4E423D61-BDA2-41DD-AB9F-340F56B7281A.tmp');
#1079=PROPERTY_DEFINITION('KEY','',#25);
#1080=REPRESENTATION('',(#1078),#10);
#1081=PROPERTY_DEFINITION_REPRESENTATION(#1079,#1080);
#1082=GENERAL_PROPERTY('','KEY','');
#1083=GENERAL_PROPERTY_ASSOCIATION('','',#1082,#1079);
#1=MECHANICAL_DESIGN_GEOMETRIC_PRESENTATION_REPRESENTATION('',(#26),#10);
ENDSEC;
END-ISO-10303-21;
