ISO-10303-21;
HEADER;

/* File generated by Shapr3D Version 5.831.0.8630 */

FILE_DESCRIPTION(('HOOPS Exchange Step'),'2;1');

FILE_NAME('/Users/quimgraellsolive/Library/Containers/com.shapr3d.shapr/Data/tmp/export/temp_export',
'2025-04-22T23:22:57+02:00',
('quimgraellsolive'),
('Shapr3D Limited'),
'HOOPS Exchange 2024.8',
'Shapr3D',
'Authorized');

FILE_SCHEMA( ('AP242_MANAGED_MODEL_BASED_3D_ENGINEERING_MIM_LF {1 0 10303 442 1 1 4}') );

ENDSEC;

DATA;
#3=(NAMED_UNIT(*)PLANE_ANGLE_UNIT()SI_UNIT($,.RADIAN.));
#4=PLANE_ANGLE_MEASURE_WITH_UNIT(PLANE_ANGLE_MEASURE(0.0174532925),#3);
#5=(CONVERSION_BASED_UNIT('DEGREE',#4)NAMED_UNIT(#6)PLANE_ANGLE_UNIT());
#6=DIMENSIONAL_EXPONENTS(0.,0.,0.,0.,0.,0.,0.);
#7=(NAMED_UNIT(*)SI_UNIT($,.STERADIAN.)SOLID_ANGLE_UNIT());
#8=(LENGTH_UNIT()NAMED_UNIT(*)SI_UNIT(.MILLI.,.METRE.));
#9=UNCERTAINTY_MEASURE_WITH_UNIT(LENGTH_MEASURE(1.000000E-05),#8,'DISTANCE_ACCURACY_VALUE','Maximum Tolerance applied to model');
#10=(GEOMETRIC_REPRESENTATION_CONTEXT(3)GLOBAL_UNCERTAINTY_ASSIGNED_CONTEXT((#9))GLOBAL_UNIT_ASSIGNED_CONTEXT((#8,#5,#7))REPRESENTATION_CONTEXT('','Roda'));
#12=CARTESIAN_POINT('',(0.,0.,0.));
#13=DIRECTION('',(0.,0.,1.));
#14=DIRECTION('',(1.,0.,0.));
#15=AXIS2_PLACEMENT_3D('TS3D_PRODUCT_CSYS',#12,#13,#14);
#27=CARTESIAN_POINT('',(33.12610134,108.629587024,43.517693924));
#28=DIRECTION('',(-0.,-1.,0.));
#29=DIRECTION('',(0.999998885,0.,0.00149306));
#30=AXIS2_PLACEMENT_3D('',#27,#28,#29);
#31=PLANE('',#30);
#32=CARTESIAN_POINT('',(47.003585561,108.629587024,44.465782586));
#33=VERTEX_POINT('',#32);
#34=CARTESIAN_POINT('',(47.003585561,108.629587024,45.365782586));
#35=DIRECTION('',(0.,-1.,0.));
#36=DIRECTION('',(0.,-0.,-1.));
#37=AXIS2_PLACEMENT_3D('',#34,#35,#36);
#38=CIRCLE('',#37,0.9);
#39=EDGE_CURVE('',#33,#33,#38,.T.);
#40=ORIENTED_EDGE('',*,*,#39,.T.);
#41=EDGE_LOOP('',(#40));
#42=FACE_BOUND('',#41,.T.);
#43=CARTESIAN_POINT('',(31.278012679,108.629587024,56.495178145));
#44=VERTEX_POINT('',#43);
#45=CARTESIAN_POINT('',(31.278012679,108.629587024,57.395178145));
#46=DIRECTION('',(0.,-1.,0.));
#47=DIRECTION('',(0.,-0.,-1.));
#48=AXIS2_PLACEMENT_3D('',#45,#46,#47);
#49=CIRCLE('',#48,0.9);
#50=EDGE_CURVE('',#44,#44,#49,.T.);
#51=ORIENTED_EDGE('',*,*,#50,.T.);
#52=EDGE_LOOP('',(#51));
#53=FACE_BOUND('',#52,.T.);
#54=CARTESIAN_POINT('',(19.248617119,108.629587024,40.769605263));
#55=VERTEX_POINT('',#54);
#56=CARTESIAN_POINT('',(19.248617119,108.629587024,41.669605263));
#57=DIRECTION('',(0.,-1.,0.));
#58=DIRECTION('',(0.,-0.,-1.));
#59=AXIS2_PLACEMENT_3D('',#56,#57,#58);
#60=CIRCLE('',#59,0.9);
#61=EDGE_CURVE('',#55,#55,#60,.T.);
#62=ORIENTED_EDGE('',*,*,#61,.T.);
#63=EDGE_LOOP('',(#62));
#64=FACE_BOUND('',#63,.T.);
#65=CARTESIAN_POINT('',(34.974190001,108.629587024,28.740209703));
#66=VERTEX_POINT('',#65);
#67=CARTESIAN_POINT('',(34.974190001,108.629587024,29.640209703));
#68=DIRECTION('',(0.,-1.,0.));
#69=DIRECTION('',(0.,-0.,-1.));
#70=AXIS2_PLACEMENT_3D('',#67,#68,#69);
#71=CIRCLE('',#70,0.9);
#72=EDGE_CURVE('',#66,#66,#71,.T.);
#73=ORIENTED_EDGE('',*,*,#72,.T.);
#74=EDGE_LOOP('',(#73));
#75=FACE_BOUND('',#74,.T.);
#76=CARTESIAN_POINT('',(33.169400067,108.629587024,14.517726248));
#77=VERTEX_POINT('',#76);
#78=CARTESIAN_POINT('',(33.082802613,108.629587024,72.517661601));
#79=VERTEX_POINT('',#78);
#80=CARTESIAN_POINT('',(33.12610134,108.629587024,43.517693924));
#81=DIRECTION('',(0.,1.,-0.));
#82=DIRECTION('',(0.00149306,-0.,-0.999998885));
#83=AXIS2_PLACEMENT_3D('',#80,#81,#82);
#84=CIRCLE('',#83,29.);
#85=EDGE_CURVE('',#77,#79,#84,.T.);
#86=ORIENTED_EDGE('',*,*,#85,.T.);
#87=CARTESIAN_POINT('',(33.12610134,108.629587024,43.517693924));
#88=DIRECTION('',(0.,1.,-0.));
#89=DIRECTION('',(0.00149306,-0.,-0.999998885));
#90=AXIS2_PLACEMENT_3D('',#87,#88,#89);
#91=CIRCLE('',#90,29.);
#92=EDGE_CURVE('',#79,#77,#91,.T.);
#93=ORIENTED_EDGE('',*,*,#92,.T.);
#94=EDGE_LOOP('',(#86,#93));
#95=FACE_BOUND('',#94,.T.);
#96=CARTESIAN_POINT('',(6.12852033,108.629587024,41.8773831));
#97=VERTEX_POINT('',#96);
#98=CARTESIAN_POINT('',(7.726129651,108.629587024,43.479770212));
#99=VERTEX_POINT('',#98);
#100=CARTESIAN_POINT('',(6.126131434,108.629587024,43.477381316));
#101=DIRECTION('',(-0.,-1.,0.));
#102=DIRECTION('',(0.00149306,-0.,-0.999998885));
#103=AXIS2_PLACEMENT_3D('',#100,#101,#102);
#104=CIRCLE('',#103,1.6);
#105=EDGE_CURVE('',#97,#99,#104,.T.);
#106=ORIENTED_EDGE('',*,*,#105,.T.);
#107=CARTESIAN_POINT('',(6.126131434,108.629587024,43.477381316));
#108=DIRECTION('',(-0.,-1.,0.));
#109=DIRECTION('',(0.00149306,-0.,-0.999998885));
#110=AXIS2_PLACEMENT_3D('',#107,#108,#109);
#111=CIRCLE('',#110,1.6);
#112=EDGE_CURVE('',#99,#97,#111,.T.);
#113=ORIENTED_EDGE('',*,*,#112,.T.);
#114=EDGE_LOOP('',(#106,#113));
#115=FACE_BOUND('',#114,.T.);
#116=CARTESIAN_POINT('',(33.129908642,108.629587024,40.967696767));
#117=VERTEX_POINT('',#116);
#118=CARTESIAN_POINT('',(35.676098498,108.629587024,43.521501226));
#119=VERTEX_POINT('',#118);
#120=CARTESIAN_POINT('',(33.12610134,108.629587024,43.517693924));
#121=DIRECTION('',(-0.,-1.,0.));
#122=DIRECTION('',(0.00149306,-0.,-0.999998885));
#123=AXIS2_PLACEMENT_3D('',#120,#121,#122);
#124=CIRCLE('',#123,2.55);
#125=EDGE_CURVE('',#117,#119,#124,.T.);
#126=ORIENTED_EDGE('',*,*,#125,.T.);
#127=CARTESIAN_POINT('',(33.12610134,108.629587024,43.517693924));
#128=DIRECTION('',(-0.,-1.,0.));
#129=DIRECTION('',(0.00149306,-0.,-0.999998885));
#130=AXIS2_PLACEMENT_3D('',#127,#128,#129);
#131=CIRCLE('',#130,2.55);
#132=EDGE_CURVE('',#119,#117,#131,.T.);
#133=ORIENTED_EDGE('',*,*,#132,.T.);
#134=EDGE_LOOP('',(#126,#133));
#135=FACE_BOUND('',#134,.T.);
#136=ADVANCED_FACE('',(#42,#53,#64,#75,#95,#115,#135),#31,.F.);
#137=CARTESIAN_POINT('',(33.12610134,103.629587024,43.517693924));
#138=DIRECTION('',(-0.,-1.,0.));
#139=DIRECTION('',(0.999998885,0.,0.00149306));
#140=AXIS2_PLACEMENT_3D('',#137,#138,#139);
#141=CYLINDRICAL_SURFACE('',#140,2.55);
#142=CARTESIAN_POINT('',(35.676098498,103.629587024,43.521501226));
#143=VERTEX_POINT('',#142);
#144=CARTESIAN_POINT('',(35.676098498,103.629587024,43.521501226));
#145=DIRECTION('',(0.,1.,-0.));
#146=VECTOR('',#145,5.);
#147=LINE('',#144,#146);
#148=EDGE_CURVE('',#143,#119,#147,.T.);
#149=ORIENTED_EDGE('',*,*,#148,.F.);
#150=CARTESIAN_POINT('',(33.129908642,103.629587024,40.967696767));
#151=VERTEX_POINT('',#150);
#152=CARTESIAN_POINT('',(33.12610134,103.629587024,43.517693924));
#153=DIRECTION('',(-0.,-1.,0.));
#154=DIRECTION('',(0.00149306,-0.,-0.999998885));
#155=AXIS2_PLACEMENT_3D('',#152,#153,#154);
#156=CIRCLE('',#155,2.55);
#157=EDGE_CURVE('',#143,#151,#156,.T.);
#158=ORIENTED_EDGE('',*,*,#157,.T.);
#159=CARTESIAN_POINT('',(33.12610134,103.629587024,43.517693924));
#160=DIRECTION('',(-0.,-1.,0.));
#161=DIRECTION('',(0.00149306,-0.,-0.999998885));
#162=AXIS2_PLACEMENT_3D('',#159,#160,#161);
#163=CIRCLE('',#162,2.55);
#164=EDGE_CURVE('',#151,#143,#163,.T.);
#165=ORIENTED_EDGE('',*,*,#164,.T.);
#166=ORIENTED_EDGE('',*,*,#148,.T.);
#167=ORIENTED_EDGE('',*,*,#125,.F.);
#168=ORIENTED_EDGE('',*,*,#132,.F.);
#169=EDGE_LOOP('',(#149,#158,#165,#166,#167,#168));
#170=FACE_BOUND('',#169,.T.);
#171=ADVANCED_FACE('',(#170),#141,.F.);
#172=CARTESIAN_POINT('',(33.12610134,103.629587024,43.517693924));
#173=DIRECTION('',(-0.,-1.,0.));
#174=DIRECTION('',(0.999998885,0.,0.00149306));
#175=AXIS2_PLACEMENT_3D('',#172,#173,#174);
#176=PLANE('',#175);
#177=CARTESIAN_POINT('',(47.003585561,103.629587024,44.465782586));
#178=VERTEX_POINT('',#177);
#179=CARTESIAN_POINT('',(47.003585561,103.629587024,45.365782586));
#180=DIRECTION('',(0.,-1.,0.));
#181=DIRECTION('',(0.,-0.,-1.));
#182=AXIS2_PLACEMENT_3D('',#179,#180,#181);
#183=CIRCLE('',#182,0.9);
#184=EDGE_CURVE('',#178,#178,#183,.T.);
#185=ORIENTED_EDGE('',*,*,#184,.F.);
#186=EDGE_LOOP('',(#185));
#187=FACE_BOUND('',#186,.T.);
#188=CARTESIAN_POINT('',(31.278012679,103.629587024,56.495178145));
#189=VERTEX_POINT('',#188);
#190=CARTESIAN_POINT('',(31.278012679,103.629587024,57.395178145));
#191=DIRECTION('',(0.,-1.,0.));
#192=DIRECTION('',(0.,-0.,-1.));
#193=AXIS2_PLACEMENT_3D('',#190,#191,#192);
#194=CIRCLE('',#193,0.9);
#195=EDGE_CURVE('',#189,#189,#194,.T.);
#196=ORIENTED_EDGE('',*,*,#195,.F.);
#197=EDGE_LOOP('',(#196));
#198=FACE_BOUND('',#197,.T.);
#199=CARTESIAN_POINT('',(19.248617119,103.629587024,40.769605263));
#200=VERTEX_POINT('',#199);
#201=CARTESIAN_POINT('',(19.248617119,103.629587024,41.669605263));
#202=DIRECTION('',(0.,-1.,0.));
#203=DIRECTION('',(0.,-0.,-1.));
#204=AXIS2_PLACEMENT_3D('',#201,#202,#203);
#205=CIRCLE('',#204,0.9);
#206=EDGE_CURVE('',#200,#200,#205,.T.);
#207=ORIENTED_EDGE('',*,*,#206,.F.);
#208=EDGE_LOOP('',(#207));
#209=FACE_BOUND('',#208,.T.);
#210=CARTESIAN_POINT('',(34.974190001,103.629587024,28.740209703));
#211=VERTEX_POINT('',#210);
#212=CARTESIAN_POINT('',(34.974190001,103.629587024,29.640209703));
#213=DIRECTION('',(0.,-1.,0.));
#214=DIRECTION('',(0.,-0.,-1.));
#215=AXIS2_PLACEMENT_3D('',#212,#213,#214);
#216=CIRCLE('',#215,0.9);
#217=EDGE_CURVE('',#211,#211,#216,.T.);
#218=ORIENTED_EDGE('',*,*,#217,.F.);
#219=EDGE_LOOP('',(#218));
#220=FACE_BOUND('',#219,.T.);
#221=CARTESIAN_POINT('',(33.082802613,103.629587024,72.517661601));
#222=VERTEX_POINT('',#221);
#223=CARTESIAN_POINT('',(33.12610134,103.629587024,43.517693924));
#224=DIRECTION('',(-0.,-1.,0.));
#225=DIRECTION('',(-0.00149306,0.,0.999998885));
#226=AXIS2_PLACEMENT_3D('',#223,#224,#225);
#227=CIRCLE('',#226,29.);
#228=EDGE_CURVE('',#222,#222,#227,.T.);
#229=ORIENTED_EDGE('',*,*,#228,.T.);
#230=EDGE_LOOP('',(#229));
#231=FACE_BOUND('',#230,.T.);
#232=CARTESIAN_POINT('',(7.726129651,103.629587024,43.479770212));
#233=VERTEX_POINT('',#232);
#234=CARTESIAN_POINT('',(6.12852033,103.629587024,41.8773831));
#235=VERTEX_POINT('',#234);
#236=CARTESIAN_POINT('',(6.126131434,103.629587024,43.477381316));
#237=DIRECTION('',(-0.,-1.,0.));
#238=DIRECTION('',(0.00149306,-0.,-0.999998885));
#239=AXIS2_PLACEMENT_3D('',#236,#237,#238);
#240=CIRCLE('',#239,1.6);
#241=EDGE_CURVE('',#233,#235,#240,.T.);
#242=ORIENTED_EDGE('',*,*,#241,.F.);
#243=CARTESIAN_POINT('',(6.126131434,103.629587024,43.477381316));
#244=DIRECTION('',(-0.,-1.,0.));
#245=DIRECTION('',(0.00149306,-0.,-0.999998885));
#246=AXIS2_PLACEMENT_3D('',#243,#244,#245);
#247=CIRCLE('',#246,1.6);
#248=EDGE_CURVE('',#235,#233,#247,.T.);
#249=ORIENTED_EDGE('',*,*,#248,.F.);
#250=EDGE_LOOP('',(#242,#249));
#251=FACE_BOUND('',#250,.T.);
#252=ORIENTED_EDGE('',*,*,#157,.F.);
#253=ORIENTED_EDGE('',*,*,#164,.F.);
#254=EDGE_LOOP('',(#252,#253));
#255=FACE_BOUND('',#254,.T.);
#256=ADVANCED_FACE('',(#187,#198,#209,#220,#231,#251,#255),#176,.T.);
#257=CARTESIAN_POINT('',(6.126131434,103.629587024,43.477381316));
#258=DIRECTION('',(-0.,-1.,0.));
#259=DIRECTION('',(0.999998885,0.,0.00149306));
#260=AXIS2_PLACEMENT_3D('',#257,#258,#259);
#261=CYLINDRICAL_SURFACE('',#260,1.6);
#262=CARTESIAN_POINT('',(7.726129651,103.629587024,43.479770212));
#263=DIRECTION('',(0.,1.,-0.));
#264=VECTOR('',#263,5.);
#265=LINE('',#262,#264);
#266=EDGE_CURVE('',#233,#99,#265,.T.);
#267=ORIENTED_EDGE('',*,*,#266,.F.);
#268=ORIENTED_EDGE('',*,*,#241,.T.);
#269=ORIENTED_EDGE('',*,*,#248,.T.);
#270=ORIENTED_EDGE('',*,*,#266,.T.);
#271=ORIENTED_EDGE('',*,*,#105,.F.);
#272=ORIENTED_EDGE('',*,*,#112,.F.);
#273=EDGE_LOOP('',(#267,#268,#269,#270,#271,#272));
#274=FACE_BOUND('',#273,.T.);
#275=ADVANCED_FACE('',(#274),#261,.F.);
#276=CARTESIAN_POINT('',(33.12610134,104.129587024,43.517693924));
#277=DIRECTION('',(0.,1.,-0.));
#278=DIRECTION('',(-0.00149306,0.,0.999998885));
#279=AXIS2_PLACEMENT_3D('',#276,#277,#278);
#280=CONICAL_SURFACE('',#279,29.5,45.);
#281=CARTESIAN_POINT('',(33.081309553,104.629587024,73.517660486));
#282=VERTEX_POINT('',#281);
#283=CARTESIAN_POINT('',(33.081309553,104.629587024,73.517660486));
#284=DIRECTION('',(0.001055753,-0.707106781,-0.707105993));
#285=VECTOR('',#284,1.414213562);
#286=LINE('',#283,#285);
#287=EDGE_CURVE('',#282,#222,#286,.T.);
#288=ORIENTED_EDGE('',*,*,#287,.T.);
#289=ORIENTED_EDGE('',*,*,#228,.F.);
#290=ORIENTED_EDGE('',*,*,#287,.F.);
#291=CARTESIAN_POINT('',(63.126067901,104.629587024,43.562485711));
#292=VERTEX_POINT('',#291);
#293=CARTESIAN_POINT('',(33.12610134,104.629587024,43.517693924));
#294=DIRECTION('',(-0.,-1.,0.));
#295=DIRECTION('',(-0.00149306,0.,0.999998885));
#296=AXIS2_PLACEMENT_3D('',#293,#294,#295);
#297=CIRCLE('',#296,30.);
#298=EDGE_CURVE('',#282,#292,#297,.T.);
#299=ORIENTED_EDGE('',*,*,#298,.T.);
#300=CARTESIAN_POINT('',(33.12610134,104.629587024,43.517693924));
#301=DIRECTION('',(-0.,-1.,0.));
#302=DIRECTION('',(-0.00149306,0.,0.999998885));
#303=AXIS2_PLACEMENT_3D('',#300,#301,#302);
#304=CIRCLE('',#303,30.);
#305=EDGE_CURVE('',#292,#282,#304,.T.);
#306=ORIENTED_EDGE('',*,*,#305,.T.);
#307=EDGE_LOOP('',(#288,#289,#290,#299,#306));
#308=FACE_BOUND('',#307,.T.);
#309=ADVANCED_FACE('',(#308),#280,.T.);
#310=CARTESIAN_POINT('',(33.12610134,108.629587024,43.517693924));
#311=DIRECTION('',(-0.,-1.,0.));
#312=DIRECTION('',(0.999998885,0.,0.00149306));
#313=AXIS2_PLACEMENT_3D('',#310,#311,#312);
#314=CYLINDRICAL_SURFACE('',#313,30.);
#315=CARTESIAN_POINT('',(63.126067901,107.629587024,43.562485711));
#316=VERTEX_POINT('',#315);
#317=CARTESIAN_POINT('',(63.126067901,104.629587024,43.562485711));
#318=DIRECTION('',(0.,1.,-0.));
#319=VECTOR('',#318,3.);
#320=LINE('',#317,#319);
#321=EDGE_CURVE('',#292,#316,#320,.T.);
#322=ORIENTED_EDGE('',*,*,#321,.T.);
#323=CARTESIAN_POINT('',(33.081309553,107.629587024,73.517660486));
#324=VERTEX_POINT('',#323);
#325=CARTESIAN_POINT('',(33.12610134,107.629587024,43.517693924));
#326=DIRECTION('',(0.,1.,-0.));
#327=DIRECTION('',(0.00149306,-0.,-0.999998885));
#328=AXIS2_PLACEMENT_3D('',#325,#326,#327);
#329=CIRCLE('',#328,30.);
#330=EDGE_CURVE('',#324,#316,#329,.T.);
#331=ORIENTED_EDGE('',*,*,#330,.F.);
#332=CARTESIAN_POINT('',(33.170893126,107.629587024,13.517727363));
#333=VERTEX_POINT('',#332);
#334=CARTESIAN_POINT('',(33.12610134,107.629587024,43.517693924));
#335=DIRECTION('',(0.,1.,-0.));
#336=DIRECTION('',(0.00149306,-0.,-0.999998885));
#337=AXIS2_PLACEMENT_3D('',#334,#335,#336);
#338=CIRCLE('',#337,30.);
#339=EDGE_CURVE('',#333,#324,#338,.T.);
#340=ORIENTED_EDGE('',*,*,#339,.F.);
#341=CARTESIAN_POINT('',(33.12610134,107.629587024,43.517693924));
#342=DIRECTION('',(0.,1.,-0.));
#343=DIRECTION('',(0.00149306,-0.,-0.999998885));
#344=AXIS2_PLACEMENT_3D('',#341,#342,#343);
#345=CIRCLE('',#344,30.);
#346=EDGE_CURVE('',#316,#333,#345,.T.);
#347=ORIENTED_EDGE('',*,*,#346,.F.);
#348=ORIENTED_EDGE('',*,*,#321,.F.);
#349=ORIENTED_EDGE('',*,*,#298,.F.);
#350=ORIENTED_EDGE('',*,*,#305,.F.);
#351=EDGE_LOOP('',(#322,#331,#340,#347,#348,#349,#350));
#352=FACE_BOUND('',#351,.T.);
#353=ADVANCED_FACE('',(#352),#314,.T.);
#354=CARTESIAN_POINT('',(33.12610134,108.129587024,43.517693924));
#355=DIRECTION('',(-0.,-1.,0.));
#356=DIRECTION('',(-0.00149306,0.,0.999998885));
#357=AXIS2_PLACEMENT_3D('',#354,#355,#356);
#358=CONICAL_SURFACE('',#357,29.5,45.);
#359=CARTESIAN_POINT('',(33.081309553,107.629587024,73.517660486));
#360=DIRECTION('',(0.001055753,0.707106781,-0.707105993));
#361=VECTOR('',#360,1.414213562);
#362=LINE('',#359,#361);
#363=EDGE_CURVE('',#324,#79,#362,.T.);
#364=ORIENTED_EDGE('',*,*,#363,.T.);
#365=ORIENTED_EDGE('',*,*,#85,.F.);
#366=ORIENTED_EDGE('',*,*,#92,.F.);
#367=ORIENTED_EDGE('',*,*,#363,.F.);
#368=ORIENTED_EDGE('',*,*,#330,.T.);
#369=ORIENTED_EDGE('',*,*,#346,.T.);
#370=ORIENTED_EDGE('',*,*,#339,.T.);
#371=EDGE_LOOP('',(#364,#365,#366,#367,#368,#369,#370));
#372=FACE_BOUND('',#371,.T.);
#373=ADVANCED_FACE('',(#372),#358,.T.);
#374=CARTESIAN_POINT('',(34.974190001,110.629587024,29.640209703));
#375=DIRECTION('',(0.,-1.,0.));
#376=DIRECTION('',(0.,-0.,-1.));
#377=AXIS2_PLACEMENT_3D('',#374,#375,#376);
#378=CYLINDRICAL_SURFACE('',#377,0.9);
#379=CARTESIAN_POINT('',(34.974190001,103.629587024,28.740209703));
#380=DIRECTION('',(-0.,1.,-0.));
#381=VECTOR('',#380,5.);
#382=LINE('',#379,#381);
#383=EDGE_CURVE('',#211,#66,#382,.T.);
#384=ORIENTED_EDGE('',*,*,#383,.F.);
#385=ORIENTED_EDGE('',*,*,#217,.T.);
#386=ORIENTED_EDGE('',*,*,#383,.T.);
#387=ORIENTED_EDGE('',*,*,#72,.F.);
#388=EDGE_LOOP('',(#384,#385,#386,#387));
#389=FACE_BOUND('',#388,.T.);
#390=ADVANCED_FACE('',(#389),#378,.F.);
#391=CARTESIAN_POINT('',(19.248617119,110.629587024,41.669605263));
#392=DIRECTION('',(0.,-1.,0.));
#393=DIRECTION('',(0.,-0.,-1.));
#394=AXIS2_PLACEMENT_3D('',#391,#392,#393);
#395=CYLINDRICAL_SURFACE('',#394,0.9);
#396=CARTESIAN_POINT('',(19.248617119,103.629587024,40.769605263));
#397=DIRECTION('',(-0.,1.,-0.));
#398=VECTOR('',#397,5.);
#399=LINE('',#396,#398);
#400=EDGE_CURVE('',#200,#55,#399,.T.);
#401=ORIENTED_EDGE('',*,*,#400,.F.);
#402=ORIENTED_EDGE('',*,*,#206,.T.);
#403=ORIENTED_EDGE('',*,*,#400,.T.);
#404=ORIENTED_EDGE('',*,*,#61,.F.);
#405=EDGE_LOOP('',(#401,#402,#403,#404));
#406=FACE_BOUND('',#405,.T.);
#407=ADVANCED_FACE('',(#406),#395,.F.);
#408=CARTESIAN_POINT('',(31.278012679,110.629587024,57.395178145));
#409=DIRECTION('',(0.,-1.,0.));
#410=DIRECTION('',(0.,-0.,-1.));
#411=AXIS2_PLACEMENT_3D('',#408,#409,#410);
#412=CYLINDRICAL_SURFACE('',#411,0.9);
#413=CARTESIAN_POINT('',(31.278012679,103.629587024,56.495178145));
#414=DIRECTION('',(-0.,1.,-0.));
#415=VECTOR('',#414,5.);
#416=LINE('',#413,#415);
#417=EDGE_CURVE('',#189,#44,#416,.T.);
#418=ORIENTED_EDGE('',*,*,#417,.F.);
#419=ORIENTED_EDGE('',*,*,#195,.T.);
#420=ORIENTED_EDGE('',*,*,#417,.T.);
#421=ORIENTED_EDGE('',*,*,#50,.F.);
#422=EDGE_LOOP('',(#418,#419,#420,#421));
#423=FACE_BOUND('',#422,.T.);
#424=ADVANCED_FACE('',(#423),#412,.F.);
#425=CARTESIAN_POINT('',(47.003585561,110.629587024,45.365782586));
#426=DIRECTION('',(0.,-1.,0.));
#427=DIRECTION('',(0.,-0.,-1.));
#428=AXIS2_PLACEMENT_3D('',#425,#426,#427);
#429=CYLINDRICAL_SURFACE('',#428,0.9);
#430=CARTESIAN_POINT('',(47.003585561,103.629587024,44.465782586));
#431=DIRECTION('',(-0.,1.,-0.));
#432=VECTOR('',#431,5.);
#433=LINE('',#430,#432);
#434=EDGE_CURVE('',#178,#33,#433,.T.);
#435=ORIENTED_EDGE('',*,*,#434,.F.);
#436=ORIENTED_EDGE('',*,*,#184,.T.);
#437=ORIENTED_EDGE('',*,*,#434,.T.);
#438=ORIENTED_EDGE('',*,*,#39,.F.);
#439=EDGE_LOOP('',(#435,#436,#437,#438));
#440=FACE_BOUND('',#439,.T.);
#441=ADVANCED_FACE('',(#440),#429,.F.);
#442=CLOSED_SHELL('',(#136,#171,#256,#275,#309,#353,#373,#390,#407,#424,#441));
#443=MANIFOLD_SOLID_BREP('Roda',#442);
#444=COLOUR_RGB('',0.529411793,0.87843138,0.152941182);
#445=FILL_AREA_STYLE_COLOUR('',#444);
#446=FILL_AREA_STYLE('',(#445));
#447=SURFACE_STYLE_FILL_AREA(#446);
#448=SURFACE_SIDE_STYLE('',(#447));
#449=SURFACE_STYLE_USAGE(.BOTH.,#448);
#450=PRESENTATION_STYLE_ASSIGNMENT((#449));
#26=STYLED_ITEM('',(#450),#443);
#16=SHAPE_REPRESENTATION('Roda',(#15),#10);
#17=ADVANCED_BREP_SHAPE_REPRESENTATION('Roda',(#443),#10);
#458=SHAPE_REPRESENTATION_RELATIONSHIP('','',#16,#17);
#459=CARTESIAN_POINT('',(0.,0.,0.));
#460=DIRECTION('',(0.,0.,1.));
#461=DIRECTION('',(1.,0.,0.));
#462=AXIS2_PLACEMENT_3D('',#459,#460,#461);
#464=MAPPED_ITEM('',#463,#462);
#463=REPRESENTATION_MAP(#462,#16);
#465=APPLICATION_CONTEXT('Managed model based 3d engineering');
#466=APPLICATION_PROTOCOL_DEFINITION('international standard','ap242_managed_model_based_3d_engineering',2014,#465);
#467=PRODUCT_CONTEXT('',#465,'mechanical');
#468=PRODUCT_DEFINITION_CONTEXT('part definition',#465,'design');
#24=PRODUCT('Roda','Roda','',(#467));
#469=PRODUCT_RELATED_PRODUCT_CATEGORY('part','',(#24));
#470=PRODUCT_DEFINITION_FORMATION_WITH_SPECIFIED_SOURCE('','',#24,.NOT_KNOWN.);
#25=PRODUCT_DEFINITION('design','',#470,#468);
#23=PRODUCT_DEFINITION_SHAPE('','',#25);
#471=SHAPE_DEFINITION_REPRESENTATION(#23,#16);
#11=DRAUGHTING_MODEL('',(#464),#10);
#472=DESCRIPTIVE_REPRESENTATION_ITEM('KEY','/Users/quimgraellsolive/Library/Containers/com.shapr3d.shapr/Data/tmp/667AD1CA-48EE-4F22-BF12-564799C39FF5.tmp');
#473=PROPERTY_DEFINITION('KEY','',#25);
#474=REPRESENTATION('',(#472),#10);
#475=PROPERTY_DEFINITION_REPRESENTATION(#473,#474);
#476=GENERAL_PROPERTY('','KEY','');
#477=GENERAL_PROPERTY_ASSOCIATION('','',#476,#473);
#1=MECHANICAL_DESIGN_GEOMETRIC_PRESENTATION_REPRESENTATION('',(#26),#10);
ENDSEC;
END-ISO-10303-21;
