ISO-10303-21;
HEADER;

/* File generated by Shapr3D Version 5.831.0.8630 */

FILE_DESCRIPTION(('HOOPS Exchange Step'),'2;1');

FILE_NAME('/Users/quimgraellsolive/Library/Containers/com.shapr3d.shapr/Data/tmp/export/temp_export',
'2025-04-22T23:22:57+02:00',
('quimgraellsolive'),
('Shapr3D Limited'),
'HOOPS Exchange 2024.8',
'Shapr3D',
'Authorized');

FILE_SCHEMA( ('AP242_MANAGED_MODEL_BASED_3D_ENGINEERING_MIM_LF {1 0 10303 442 1 1 4}') );

ENDSEC;

DATA;
#3=(NAMED_UNIT(*)PLANE_ANGLE_UNIT()SI_UNIT($,.RADIAN.));
#4=PLANE_ANGLE_MEASURE_WITH_UNIT(PLANE_ANGLE_MEASURE(0.0174532925),#3);
#5=(CONVERSION_BASED_UNIT('DEGREE',#4)NAMED_UNIT(#6)PLANE_ANGLE_UNIT());
#6=DIMENSIONAL_EXPONENTS(0.,0.,0.,0.,0.,0.,0.);
#7=(NAMED_UNIT(*)SI_UNIT($,.STERADIAN.)SOLID_ANGLE_UNIT());
#8=(LENGTH_UNIT()NAMED_UNIT(*)SI_UNIT(.MILLI.,.METRE.));
#9=UNCERTAINTY_MEASURE_WITH_UNIT(LENGTH_MEASURE(1.000000E-05),#8,'DISTANCE_ACCURACY_VALUE','Maximum Tolerance applied to model');
#10=(GEOMETRIC_REPRESENTATION_CONTEXT(3)GLOBAL_UNCERTAINTY_ASSIGNED_CONTEXT((#9))GLOBAL_UNIT_ASSIGNED_CONTEXT((#8,#5,#7))REPRESENTATION_CONTEXT('','Soport_sensor'));
#12=CARTESIAN_POINT('',(0.,0.,0.));
#13=DIRECTION('',(0.,0.,1.));
#14=DIRECTION('',(1.,0.,0.));
#15=AXIS2_PLACEMENT_3D('TS3D_PRODUCT_CSYS',#12,#13,#14);
#27=CARTESIAN_POINT('',(-130.99640844,95.997778833,126.623328332));
#28=DIRECTION('',(0.000047249,-0.,-0.999999999));
#29=DIRECTION('',(0.999999999,0.,0.000047249));
#30=AXIS2_PLACEMENT_3D('',#27,#28,#29);
#31=PLANE('',#30);
#32=CARTESIAN_POINT('',(-54.996408524,90.645140298,126.626919224));
#33=VERTEX_POINT('',#32);
#34=CARTESIAN_POINT('',(45.003591364,90.645140298,126.63164408));
#35=VERTEX_POINT('',#34);
#36=CARTESIAN_POINT('',(-54.996408524,90.645140298,126.626919224));
#37=CARTESIAN_POINT('',(-21.663075228,90.645140298,126.628494176));
#38=CARTESIAN_POINT('',(11.670258068,90.645140298,126.630069128));
#39=CARTESIAN_POINT('',(45.003591364,90.645140298,126.63164408));
#40=B_SPLINE_CURVE_WITH_KNOTS('',3,(#36,#37,#38,#39),.UNSPECIFIED.,.F.,.F.,(4,4),(28.208657926,28.308657926),.UNSPECIFIED.);
#41=EDGE_CURVE('',#33,#35,#40,.T.);
#42=ORIENTED_EDGE('',*,*,#41,.F.);
#43=CARTESIAN_POINT('',(-54.996408524,101.348934696,126.626919224));
#44=VERTEX_POINT('',#43);
#45=CARTESIAN_POINT('',(-54.996408524,101.348934696,126.626919224));
#46=DIRECTION('',(0.,-1.,0.));
#47=VECTOR('',#46,10.703794399);
#48=LINE('',#45,#47);
#49=EDGE_CURVE('',#44,#33,#48,.T.);
#50=ORIENTED_EDGE('',*,*,#49,.F.);
#51=CARTESIAN_POINT('',(45.003591364,101.348934696,126.63164408));
#52=VERTEX_POINT('',#51);
#53=CARTESIAN_POINT('',(45.003591364,101.348934696,126.63164408));
#54=CARTESIAN_POINT('',(11.670258068,101.348934696,126.630069128));
#55=CARTESIAN_POINT('',(-21.663075228,101.348934696,126.628494176));
#56=CARTESIAN_POINT('',(-54.996408524,101.348934696,126.626919224));
#57=B_SPLINE_CURVE_WITH_KNOTS('',3,(#53,#54,#55,#56),.UNSPECIFIED.,.F.,.F.,(4,4),(31.228679857,31.328679857),.UNSPECIFIED.);
#58=EDGE_CURVE('',#52,#44,#57,.T.);
#59=ORIENTED_EDGE('',*,*,#58,.F.);
#60=CARTESIAN_POINT('',(45.003591364,101.348934696,126.63164408));
#61=DIRECTION('',(0.,-1.,0.));
#62=VECTOR('',#61,10.703794399);
#63=LINE('',#60,#62);
#64=EDGE_CURVE('',#52,#35,#63,.T.);
#65=ORIENTED_EDGE('',*,*,#64,.T.);
#66=EDGE_LOOP('',(#42,#50,#59,#65));
#67=FACE_BOUND('',#66,.T.);
#68=ADVANCED_FACE('',(#67),#31,.T.);
#69=CARTESIAN_POINT('',(-60.397523602,114.466787772,150.227344442));
#70=DIRECTION('',(1.,-0.,-0.));
#71=DIRECTION('',(-0.,0.,-1.));
#72=AXIS2_PLACEMENT_3D('',#69,#70,#71);
#73=CYLINDRICAL_SURFACE('',#72,1.6);
#74=CARTESIAN_POINT('',(-45.997448003,114.466787772,148.627344442));
#75=VERTEX_POINT('',#74);
#76=CARTESIAN_POINT('',(-52.49744801,114.466787772,148.627344442));
#77=VERTEX_POINT('',#76);
#78=CARTESIAN_POINT('',(-45.997448003,114.466787772,148.627344442));
#79=DIRECTION('',(-1.,0.,0.));
#80=VECTOR('',#79,6.500000007);
#81=LINE('',#78,#80);
#82=EDGE_CURVE('',#75,#77,#81,.T.);
#83=ORIENTED_EDGE('',*,*,#82,.F.);
#84=CARTESIAN_POINT('',(-45.997523601,114.466787772,150.227344442));
#85=DIRECTION('',(0.999999999,0.,0.000047249));
#86=DIRECTION('',(0.000047249,-0.,-0.999999999));
#87=AXIS2_PLACEMENT_3D('',#84,#85,#86);
#88=ELLIPSE('',#87,1.600000002,1.6);
#89=EDGE_CURVE('',#75,#75,#88,.T.);
#90=ORIENTED_EDGE('',*,*,#89,.T.);
#91=ORIENTED_EDGE('',*,*,#82,.T.);
#92=CARTESIAN_POINT('',(-52.497523582,112.866787885,150.226803118));
#93=VERTEX_POINT('',#92);
#94=CARTESIAN_POINT('',(-52.497523608,114.466787772,150.227344442));
#95=DIRECTION('',(0.999999999,0.,0.000047249));
#96=DIRECTION('',(0.000047249,-0.,-0.999999999));
#97=AXIS2_PLACEMENT_3D('',#94,#95,#96);
#98=ELLIPSE('',#97,1.600000002,1.6);
#99=EDGE_CURVE('',#93,#77,#98,.T.);
#100=ORIENTED_EDGE('',*,*,#99,.F.);
#101=CARTESIAN_POINT('',(-52.49752361,112.866787772,150.227379311));
#102=VERTEX_POINT('',#101);
#103=CARTESIAN_POINT('',(-52.497523614,114.466787772,150.227462563));
#104=DIRECTION('',(0.999999999,0.,0.000047249));
#105=DIRECTION('',(-0.000047249,0.,0.999999999));
#106=AXIS2_PLACEMENT_3D('',#103,#104,#105);
#107=CIRCLE('',#106,1.600000002);
#108=EDGE_CURVE('',#102,#93,#107,.T.);
#109=ORIENTED_EDGE('',*,*,#108,.F.);
#110=CARTESIAN_POINT('',(-52.49752361,116.066787772,150.227379311));
#111=VERTEX_POINT('',#110);
#112=CARTESIAN_POINT('',(-52.497523608,114.466787772,150.227344442));
#113=DIRECTION('',(0.999999999,0.,0.000047249));
#114=DIRECTION('',(0.000047249,-0.,-0.999999999));
#115=AXIS2_PLACEMENT_3D('',#112,#113,#114);
#116=ELLIPSE('',#115,1.600000002,1.6);
#117=EDGE_CURVE('',#111,#102,#116,.T.);
#118=ORIENTED_EDGE('',*,*,#117,.F.);
#119=CARTESIAN_POINT('',(-52.497523582,116.066787659,150.226803118));
#120=VERTEX_POINT('',#119);
#121=CARTESIAN_POINT('',(-52.497523614,114.466787772,150.227462563));
#122=DIRECTION('',(0.999999999,0.,0.000047249));
#123=DIRECTION('',(-0.000047249,0.,0.999999999));
#124=AXIS2_PLACEMENT_3D('',#121,#122,#123);
#125=CIRCLE('',#124,1.600000002);
#126=EDGE_CURVE('',#120,#111,#125,.T.);
#127=ORIENTED_EDGE('',*,*,#126,.F.);
#128=CARTESIAN_POINT('',(-52.497523608,114.466787772,150.227344442));
#129=DIRECTION('',(0.999999999,0.,0.000047249));
#130=DIRECTION('',(0.000047249,-0.,-0.999999999));
#131=AXIS2_PLACEMENT_3D('',#128,#129,#130);
#132=ELLIPSE('',#131,1.600000002,1.6);
#133=EDGE_CURVE('',#77,#120,#132,.T.);
#134=ORIENTED_EDGE('',*,*,#133,.F.);
#135=EDGE_LOOP('',(#83,#90,#91,#100,#109,#118,#127,#134));
#136=FACE_BOUND('',#135,.T.);
#137=ADVANCED_FACE('',(#136),#73,.F.);
#138=CARTESIAN_POINT('',(-45.996517206,101.269023256,128.927344458));
#139=DIRECTION('',(0.999999999,0.,0.000047249));
#140=DIRECTION('',(-0.000047249,-0.,0.999999999));
#141=AXIS2_PLACEMENT_3D('',#138,#139,#140);
#142=PLANE('',#141);
#143=CARTESIAN_POINT('',(-45.997599219,77.466787772,151.827769679));
#144=VERTEX_POINT('',#143);
#145=CARTESIAN_POINT('',(-45.997523621,75.86678777,150.227769679));
#146=VERTEX_POINT('',#145);
#147=CARTESIAN_POINT('',(-45.997523621,77.466787772,150.227769679));
#148=DIRECTION('',(0.999999999,0.,0.000047249));
#149=DIRECTION('',(0.000047249,0.,-0.999999999));
#150=AXIS2_PLACEMENT_3D('',#147,#148,#149);
#151=CIRCLE('',#150,1.600000002);
#152=EDGE_CURVE('',#144,#146,#151,.T.);
#153=ORIENTED_EDGE('',*,*,#152,.F.);
#154=CARTESIAN_POINT('',(-45.997523621,79.066787774,150.227769679));
#155=VERTEX_POINT('',#154);
#156=CARTESIAN_POINT('',(-45.997523621,77.466787772,150.227769679));
#157=DIRECTION('',(0.999999999,0.,0.000047249));
#158=DIRECTION('',(0.000047249,0.,-0.999999999));
#159=AXIS2_PLACEMENT_3D('',#156,#157,#158);
#160=CIRCLE('',#159,1.600000002);
#161=EDGE_CURVE('',#155,#144,#160,.T.);
#162=ORIENTED_EDGE('',*,*,#161,.F.);
#163=CARTESIAN_POINT('',(-45.997523621,77.466787772,150.227769679));
#164=DIRECTION('',(-0.999999999,-0.,-0.000047249));
#165=DIRECTION('',(0.000047249,0.,-0.999999999));
#166=AXIS2_PLACEMENT_3D('',#163,#164,#165);
#167=CIRCLE('',#166,1.600000002);
#168=EDGE_CURVE('',#155,#146,#167,.T.);
#169=ORIENTED_EDGE('',*,*,#168,.T.);
#170=EDGE_LOOP('',(#153,#162,#169));
#171=FACE_BOUND('',#170,.T.);
#172=ORIENTED_EDGE('',*,*,#89,.F.);
#173=EDGE_LOOP('',(#172));
#174=FACE_BOUND('',#173,.T.);
#175=CARTESIAN_POINT('',(-45.997925214,79.797037497,158.727344425));
#176=VERTEX_POINT('',#175);
#177=CARTESIAN_POINT('',(-45.997563796,71.998493653,151.078055766));
#178=VERTEX_POINT('',#177);
#179=CARTESIAN_POINT('',(-45.997556675,79.797037497,150.927344434));
#180=DIRECTION('',(0.999999999,0.,0.000047249));
#181=DIRECTION('',(0.000047249,0.,-0.999999999));
#182=AXIS2_PLACEMENT_3D('',#179,#180,#181);
#183=CIRCLE('',#182,7.8);
#184=EDGE_CURVE('',#176,#178,#183,.T.);
#185=ORIENTED_EDGE('',*,*,#184,.T.);
#186=CARTESIAN_POINT('',(-45.997206219,78.673791295,143.510067867));
#187=VERTEX_POINT('',#186);
#188=CARTESIAN_POINT('',(-45.997570917,79.797037497,151.228767099));
#189=DIRECTION('',(0.999999999,0.,0.000047249));
#190=DIRECTION('',(0.000047249,0.,-0.999999999));
#191=AXIS2_PLACEMENT_3D('',#188,#189,#190);
#192=CIRCLE('',#191,7.8);
#193=EDGE_CURVE('',#178,#187,#192,.T.);
#194=ORIENTED_EDGE('',*,*,#193,.T.);
#195=CARTESIAN_POINT('',(-45.996885745,88.722944203,136.727344449));
#196=VERTEX_POINT('',#195);
#197=CARTESIAN_POINT('',(-45.997206219,78.673791295,143.510067867));
#198=CARTESIAN_POINT('',(-45.997199078,79.712383443,143.358931537));
#199=CARTESIAN_POINT('',(-45.997187467,80.726214749,143.11318581));
#200=CARTESIAN_POINT('',(-45.997170497,81.710360635,142.754014223));
#201=CARTESIAN_POINT('',(-45.997166254,81.956397106,142.664221326));
#202=CARTESIAN_POINT('',(-45.997161674,82.200565177,142.567289406));
#203=CARTESIAN_POINT('',(-45.997156738,82.442760703,142.462820534));
#204=CARTESIAN_POINT('',(-45.997151802,82.684956229,142.358351661));
#205=CARTESIAN_POINT('',(-45.997146511,82.924999851,142.246366951));
#206=CARTESIAN_POINT('',(-45.997140904,83.160614927,142.127690963));
#207=CARTESIAN_POINT('',(-45.997129689,83.63184508,141.890338989));
#208=CARTESIAN_POINT('',(-45.997117162,84.087829533,141.625213063));
#209=CARTESIAN_POINT('',(-45.997103279,84.5276654,141.331368427));
#210=CARTESIAN_POINT('',(-45.997075511,85.407337133,140.743679156));
#211=CARTESIAN_POINT('',(-45.997043205,86.195511496,140.059933722));
#212=CARTESIAN_POINT('',(-45.997006628,86.89758726,139.285799887));
#213=CARTESIAN_POINT('',(-45.996997484,87.073106201,139.092266428));
#214=CARTESIAN_POINT('',(-45.996988071,87.243209497,138.893047493));
#215=CARTESIAN_POINT('',(-45.996978391,87.407910645,138.688157253));
#216=CARTESIAN_POINT('',(-45.99696871,87.572611793,138.483267012));
#217=CARTESIAN_POINT('',(-45.996958729,87.73237279,138.272021102));
#218=CARTESIAN_POINT('',(-45.996948584,87.885174605,138.057316182));
#219=CARTESIAN_POINT('',(-45.996928295,88.190778235,137.627906341));
#220=CARTESIAN_POINT('',(-45.996907331,88.469307962,137.184198599));
#221=CARTESIAN_POINT('',(-45.996885745,88.722944203,136.727344449));
#222=B_SPLINE_CURVE_WITH_KNOTS('',3,(#197,#198,#199,#200,#201,#202,#203,#204,#205,#206,#207,#208,#209,#210,#211,#212,#213,#214,#215,#216,#217,#218,#219,#220,#221),.UNSPECIFIED.,.F.,.F.,(4,3,3,3,3,3,3,3,4),(0.081267531,0.084420205,0.085208373,0.085996542,0.087572879,0.090725553,0.091513722,0.09230189,0.093878227),.UNSPECIFIED.);
#223=EDGE_CURVE('',#187,#196,#222,.T.);
#224=ORIENTED_EDGE('',*,*,#223,.T.);
#225=CARTESIAN_POINT('',(-45.996885745,103.271130791,136.727344449));
#226=VERTEX_POINT('',#225);
#227=CARTESIAN_POINT('',(-45.996885745,88.722944203,136.727344449));
#228=DIRECTION('',(-0.,1.,-0.));
#229=VECTOR('',#228,14.548186588);
#230=LINE('',#227,#229);
#231=EDGE_CURVE('',#196,#226,#230,.T.);
#232=ORIENTED_EDGE('',*,*,#231,.T.);
#233=CARTESIAN_POINT('',(-45.997206219,113.320283699,143.510067867));
#234=VERTEX_POINT('',#233);
#235=CARTESIAN_POINT('',(-45.996885745,103.271130791,136.727344449));
#236=CARTESIAN_POINT('',(-45.996907413,103.525729385,137.185932009));
#237=CARTESIAN_POINT('',(-45.996928628,103.80785309,137.634950764));
#238=CARTESIAN_POINT('',(-45.996948959,104.114546626,138.065243854));
#239=CARTESIAN_POINT('',(-45.996959124,104.267893395,138.2803904));
#240=CARTESIAN_POINT('',(-45.9969691,104.42783378,138.491527662));
#241=CARTESIAN_POINT('',(-45.996978791,104.592983377,138.696633132));
#242=CARTESIAN_POINT('',(-45.996988482,104.758132975,138.901738602));
#243=CARTESIAN_POINT('',(-45.996997902,104.928663133,139.101100975));
#244=CARTESIAN_POINT('',(-45.99700705,105.104579645,139.294714068));
#245=CARTESIAN_POINT('',(-45.997043641,105.808245693,140.06916644));
#246=CARTESIAN_POINT('',(-45.997075914,106.597553616,140.752206485));
#247=CARTESIAN_POINT('',(-45.997103623,107.477345236,141.338666145));
#248=CARTESIAN_POINT('',(-45.997117478,107.917241045,141.631895975));
#249=CARTESIAN_POINT('',(-45.997129941,108.372235962,141.895659624));
#250=CARTESIAN_POINT('',(-45.997141038,108.83909396,142.130526987));
#251=CARTESIAN_POINT('',(-45.997152135,109.305951959,142.365394349));
#252=CARTESIAN_POINT('',(-45.99716189,109.785423707,142.571863171));
#253=CARTESIAN_POINT('',(-45.997170378,110.276815853,142.751494463));
#254=CARTESIAN_POINT('',(-45.997174621,110.522511926,142.841310109));
#255=CARTESIAN_POINT('',(-45.997178548,110.77119015,142.924411755));
#256=CARTESIAN_POINT('',(-45.997182164,111.022781117,143.000955662));
#257=CARTESIAN_POINT('',(-45.997185781,111.274372084,143.077499569));
#258=CARTESIAN_POINT('',(-45.997189097,111.529729984,143.147678288));
#259=CARTESIAN_POINT('',(-45.997192078,111.785119036,143.210780794));
#260=CARTESIAN_POINT('',(-45.997198041,112.29589714,143.336985806));
#261=CARTESIAN_POINT('',(-45.997202694,112.807664295,143.435470092));
#262=CARTESIAN_POINT('',(-45.997206219,113.320283699,143.510067867));
#263=B_SPLINE_CURVE_WITH_KNOTS('',3,(#235,#236,#237,#238,#239,#240,#241,#242,#243,#244,#245,#246,#247,#248,#249,#250,#251,#252,#253,#254,#255,#256,#257,#258,#259,#260,
#261,#262),.UNSPECIFIED.,.F.,.F.,(4,3,3,3,3,3,3,3,3,4),(0.066036119,0.067610652,0.068397919,0.069185186,0.072334252,0.073908785,0.075483318,0.076270585,0.077057851,0.078632384),.UNSPECIFIED.);
#264=EDGE_CURVE('',#226,#234,#263,.T.);
#265=ORIENTED_EDGE('',*,*,#264,.T.);
#266=CARTESIAN_POINT('',(-45.997563796,119.995581341,151.078055766));
#267=VERTEX_POINT('',#266);
#268=CARTESIAN_POINT('',(-45.997570917,112.197037497,151.228767099));
#269=DIRECTION('',(0.999999999,0.,0.000047249));
#270=DIRECTION('',(0.000047249,0.,-0.999999999));
#271=AXIS2_PLACEMENT_3D('',#268,#269,#270);
#272=CIRCLE('',#271,7.8);
#273=EDGE_CURVE('',#234,#267,#272,.T.);
#274=ORIENTED_EDGE('',*,*,#273,.T.);
#275=CARTESIAN_POINT('',(-45.997925214,112.197037497,158.727344425));
#276=VERTEX_POINT('',#275);
#277=CARTESIAN_POINT('',(-45.997556675,112.197037497,150.927344434));
#278=DIRECTION('',(0.999999999,0.,0.000047249));
#279=DIRECTION('',(0.000047249,0.,-0.999999999));
#280=AXIS2_PLACEMENT_3D('',#277,#278,#279);
#281=CIRCLE('',#280,7.8);
#282=EDGE_CURVE('',#267,#276,#281,.T.);
#283=ORIENTED_EDGE('',*,*,#282,.T.);
#284=CARTESIAN_POINT('',(-45.997925214,112.197037497,158.727344425));
#285=DIRECTION('',(0.,-1.,0.));
#286=VECTOR('',#285,32.4);
#287=LINE('',#284,#286);
#288=EDGE_CURVE('',#276,#176,#287,.T.);
#289=ORIENTED_EDGE('',*,*,#288,.T.);
#290=EDGE_LOOP('',(#185,#194,#224,#232,#265,#274,#283,#289));
#291=FACE_BOUND('',#290,.T.);
#292=ADVANCED_FACE('',(#171,#174,#291),#142,.T.);
#293=CARTESIAN_POINT('',(-130.996507662,95.997778833,128.72332833));
#294=DIRECTION('',(-0.000047249,0.,0.999999999));
#295=DIRECTION('',(-0.999999999,-0.,-0.000047249));
#296=AXIS2_PLACEMENT_3D('',#293,#294,#295);
#297=PLANE('',#296);
#298=CARTESIAN_POINT('',(45.003492142,101.27026768,128.731644078));
#299=VERTEX_POINT('',#298);
#300=CARTESIAN_POINT('',(-37.996507765,101.27026768,128.727722447));
#301=VERTEX_POINT('',#300);
#302=CARTESIAN_POINT('',(45.003492142,101.27026768,128.731644078));
#303=CARTESIAN_POINT('',(17.336825506,101.27026768,128.730336868));
#304=CARTESIAN_POINT('',(-10.32984113,101.27026768,128.729029657));
#305=CARTESIAN_POINT('',(-37.996507765,101.27026768,128.727722447));
#306=B_SPLINE_CURVE_WITH_KNOTS('',3,(#302,#303,#304,#305),.UNSPECIFIED.,.F.,.F.,(4,4),(1.072193744,1.155193744),.UNSPECIFIED.);
#307=EDGE_CURVE('',#299,#301,#306,.T.);
#308=ORIENTED_EDGE('',*,*,#307,.T.);
#309=CARTESIAN_POINT('',(-37.996507765,90.723807314,128.727722447));
#310=VERTEX_POINT('',#309);
#311=CARTESIAN_POINT('',(-37.996507765,101.27026768,128.727722447));
#312=DIRECTION('',(0.,-1.,0.));
#313=VECTOR('',#312,10.546460367);
#314=LINE('',#311,#313);
#315=EDGE_CURVE('',#301,#310,#314,.T.);
#316=ORIENTED_EDGE('',*,*,#315,.T.);
#317=CARTESIAN_POINT('',(45.003492142,90.723807314,128.731644078));
#318=VERTEX_POINT('',#317);
#319=CARTESIAN_POINT('',(-37.996507765,90.723807314,128.727722447));
#320=CARTESIAN_POINT('',(-10.32984113,90.723807314,128.729029657));
#321=CARTESIAN_POINT('',(17.336825506,90.723807314,128.730336868));
#322=CARTESIAN_POINT('',(45.003492142,90.723807314,128.731644078));
#323=B_SPLINE_CURVE_WITH_KNOTS('',3,(#319,#320,#321,#322),.UNSPECIFIED.,.F.,.F.,(4,4),(1.052205873,1.135205873),.UNSPECIFIED.);
#324=EDGE_CURVE('',#310,#318,#323,.T.);
#325=ORIENTED_EDGE('',*,*,#324,.T.);
#326=CARTESIAN_POINT('',(45.003492142,90.723807314,128.731644078));
#327=DIRECTION('',(-0.,1.,-0.));
#328=VECTOR('',#327,10.546460367);
#329=LINE('',#326,#328);
#330=EDGE_CURVE('',#318,#299,#329,.T.);
#331=ORIENTED_EDGE('',*,*,#330,.T.);
#332=EDGE_LOOP('',(#308,#316,#325,#331));
#333=FACE_BOUND('',#332,.T.);
#334=ADVANCED_FACE('',(#333),#297,.T.);
#335=CARTESIAN_POINT('',(-54.996408525,101.348934696,126.626919223));
#336=CARTESIAN_POINT('',(-45.986834057,101.348934696,126.627344913));
#337=CARTESIAN_POINT('',(-37.894408544,101.348934696,126.627727269));
#338=CARTESIAN_POINT('',(-28.348195793,101.348934696,126.628178313));
#339=CARTESIAN_POINT('',(0.290442458,101.348934696,126.629531448));
#340=CARTESIAN_POINT('',(45.003591364,101.348934696,126.63164408));
#341=CARTESIAN_POINT('',(-54.996413489,101.343427691,126.731999152));
#342=CARTESIAN_POINT('',(-45.986839022,101.343427691,126.732424841));
#343=CARTESIAN_POINT('',(-37.894413508,101.343427691,126.732807197));
#344=CARTESIAN_POINT('',(-28.348200758,101.343427691,126.733258242));
#345=CARTESIAN_POINT('',(0.290437494,101.343427691,126.734611376));
#346=CARTESIAN_POINT('',(45.003586399,101.343427691,126.736724009));
#347=CARTESIAN_POINT('',(-54.996418454,101.337920685,126.83707908));
#348=CARTESIAN_POINT('',(-45.986843987,101.337920685,126.837504769));
#349=CARTESIAN_POINT('',(-37.894418473,101.337920685,126.837887125));
#350=CARTESIAN_POINT('',(-28.348205723,101.337920685,126.83833817));
#351=CARTESIAN_POINT('',(0.290432529,101.337920685,126.839691304));
#352=CARTESIAN_POINT('',(45.003581434,101.337920685,126.841803937));
#353=CARTESIAN_POINT('',(-54.996423419,101.332413679,126.942159008));
#354=CARTESIAN_POINT('',(-45.986848951,101.332413679,126.942584698));
#355=CARTESIAN_POINT('',(-37.894423438,101.332413679,126.942967053));
#356=CARTESIAN_POINT('',(-28.348210688,101.332413679,126.943418098));
#357=CARTESIAN_POINT('',(0.290427564,101.332413679,126.944771233));
#358=CARTESIAN_POINT('',(45.003576469,101.332413679,126.946883865));
#359=CARTESIAN_POINT('',(-54.996451443,101.301328816,127.535283681));
#360=CARTESIAN_POINT('',(-45.986876976,101.301328816,127.53570937));
#361=CARTESIAN_POINT('',(-37.894451462,101.301328816,127.536091726));
#362=CARTESIAN_POINT('',(-28.348238712,101.301328816,127.536542771));
#363=CARTESIAN_POINT('',(0.290399539,101.301328816,127.537895905));
#364=CARTESIAN_POINT('',(45.003548445,101.301328816,127.540008538));
#365=CARTESIAN_POINT('',(-54.996479451,101.270255094,128.128058641));
#366=CARTESIAN_POINT('',(-45.986904984,101.270255094,128.12848433));
#367=CARTESIAN_POINT('',(-37.89447947,101.270255094,128.128866686));
#368=CARTESIAN_POINT('',(-28.34826672,101.270255094,128.129317731));
#369=CARTESIAN_POINT('',(0.290371532,101.270255094,128.130670865));
#370=CARTESIAN_POINT('',(45.003520437,101.270255094,128.132783498));
#371=CARTESIAN_POINT('',(-54.996507747,101.27026768,128.726919221));
#372=CARTESIAN_POINT('',(-45.986933279,101.27026768,128.727344911));
#373=CARTESIAN_POINT('',(-37.894507766,101.27026768,128.727727266));
#374=CARTESIAN_POINT('',(-28.348295015,101.27026768,128.728178311));
#375=CARTESIAN_POINT('',(0.290343236,101.27026768,128.729531446));
#376=CARTESIAN_POINT('',(45.003492142,101.27026768,128.731644078));
#377=CARTESIAN_POINT('',(-54.996590939,101.270112192,130.487654514));
#378=CARTESIAN_POINT('',(-45.987016471,101.270112192,130.488080204));
#379=CARTESIAN_POINT('',(-37.894590958,101.270112192,130.488462559));
#380=CARTESIAN_POINT('',(-28.348378207,101.270112192,130.488913604));
#381=CARTESIAN_POINT('',(0.290260044,101.270112192,130.490266739));
#382=CARTESIAN_POINT('',(45.00340895,101.270112192,130.492379371));
#383=CARTESIAN_POINT('',(-54.996676757,101.538570233,132.303958675));
#384=CARTESIAN_POINT('',(-45.987102289,101.538570233,132.304384365));
#385=CARTESIAN_POINT('',(-37.894676776,101.538570233,132.30476672));
#386=CARTESIAN_POINT('',(-28.348464025,101.538570233,132.305217765));
#387=CARTESIAN_POINT('',(0.290174226,101.538570233,132.3065709));
#388=CARTESIAN_POINT('',(45.003323132,101.538570233,132.308683532));
#389=CARTESIAN_POINT('',(-54.996758676,102.104471622,134.037751875));
#390=CARTESIAN_POINT('',(-45.987184208,102.104471622,134.038177565));
#391=CARTESIAN_POINT('',(-37.894758695,102.104471622,134.03855992));
#392=CARTESIAN_POINT('',(-28.348545944,102.104471622,134.039010965));
#393=CARTESIAN_POINT('',(0.290092307,102.104471622,134.0403641));
#394=CARTESIAN_POINT('',(45.003241213,102.104471622,134.042476732));
#395=CARTESIAN_POINT('',(-54.996840591,102.669941072,135.771455647));
#396=CARTESIAN_POINT('',(-45.987266123,102.669941072,135.771881336));
#397=CARTESIAN_POINT('',(-37.89484061,102.669941072,135.772263692));
#398=CARTESIAN_POINT('',(-28.348627859,102.669941072,135.772714736));
#399=CARTESIAN_POINT('',(0.290010392,102.669941072,135.774067871));
#400=CARTESIAN_POINT('',(45.003159298,102.669941072,135.776180503));
#401=CARTESIAN_POINT('',(-54.996918608,103.532706749,137.422666542));
#402=CARTESIAN_POINT('',(-45.98734414,103.532706749,137.423092231));
#403=CARTESIAN_POINT('',(-37.894918627,103.532706749,137.423474587));
#404=CARTESIAN_POINT('',(-28.348705877,103.532706749,137.423925632));
#405=CARTESIAN_POINT('',(0.289932375,103.532706749,137.425278767));
#406=CARTESIAN_POINT('',(45.00308128,103.532706749,137.427391399));
#407=CARTESIAN_POINT('',(-54.99698621,104.721565183,138.85342847));
#408=CARTESIAN_POINT('',(-45.987411742,104.721565183,138.85385416));
#409=CARTESIAN_POINT('',(-37.894986229,104.721565183,138.854236515));
#410=CARTESIAN_POINT('',(-28.348773478,104.721565183,138.85468756));
#411=CARTESIAN_POINT('',(0.289864773,104.721565183,138.856040695));
#412=CARTESIAN_POINT('',(45.003013679,104.721565183,138.858153327));
#413=CARTESIAN_POINT('',(-54.997053819,105.909799236,140.284358247));
#414=CARTESIAN_POINT('',(-45.987479351,105.909799236,140.284783937));
#415=CARTESIAN_POINT('',(-37.895053838,105.909799236,140.285166292));
#416=CARTESIAN_POINT('',(-28.348841088,105.909799236,140.285617337));
#417=CARTESIAN_POINT('',(0.289797164,105.909799236,140.286970472));
#418=CARTESIAN_POINT('',(45.00294607,105.909799236,140.289083104));
#419=CARTESIAN_POINT('',(-54.997111028,107.424128622,141.495169396));
#420=CARTESIAN_POINT('',(-45.98753656,107.424128622,141.495595086));
#421=CARTESIAN_POINT('',(-37.895111047,107.424128622,141.495977441));
#422=CARTESIAN_POINT('',(-28.348898297,107.424128622,141.496428486));
#423=CARTESIAN_POINT('',(0.289739955,107.424128622,141.497781621));
#424=CARTESIAN_POINT('',(45.00288886,107.424128622,141.499894253));
#425=CARTESIAN_POINT('',(-54.997151323,109.293563749,142.348006873));
#426=CARTESIAN_POINT('',(-45.987576856,109.293563749,142.348432563));
#427=CARTESIAN_POINT('',(-37.895151342,109.293563749,142.348814918));
#428=CARTESIAN_POINT('',(-28.348938592,109.293563749,142.349265963));
#429=CARTESIAN_POINT('',(0.289699659,109.293563749,142.350619098));
#430=CARTESIAN_POINT('',(45.002848565,109.293563749,142.35273173));
#431=CARTESIAN_POINT('',(-54.997177094,110.488055973,142.893424168));
#432=CARTESIAN_POINT('',(-45.987602626,110.488055973,142.893849857));
#433=CARTESIAN_POINT('',(-37.895177113,110.488055973,142.894232213));
#434=CARTESIAN_POINT('',(-28.348964362,110.488055973,142.894683257));
#435=CARTESIAN_POINT('',(0.289673889,110.488055973,142.896036392));
#436=CARTESIAN_POINT('',(45.002822795,110.488055973,142.898149025));
#437=CARTESIAN_POINT('',(-54.99719596,111.82775589,143.292717632));
#438=CARTESIAN_POINT('',(-45.987621492,111.82775589,143.293143322));
#439=CARTESIAN_POINT('',(-37.895195979,111.82775589,143.293525677));
#440=CARTESIAN_POINT('',(-28.348983228,111.82775589,143.293976722));
#441=CARTESIAN_POINT('',(0.289655023,111.82775589,143.295329857));
#442=CARTESIAN_POINT('',(45.002803929,111.82775589,143.297442489));
#443=CARTESIAN_POINT('',(-54.997206219,113.320254266,143.50984495));
#444=CARTESIAN_POINT('',(-45.987631751,113.320254266,143.51027064));
#445=CARTESIAN_POINT('',(-37.895206238,113.320254266,143.510652995));
#446=CARTESIAN_POINT('',(-28.348993487,113.320254266,143.51110404));
#447=CARTESIAN_POINT('',(0.289644764,113.320254266,143.512457175));
#448=CARTESIAN_POINT('',(45.00279367,113.320254266,143.514569807));
#449=B_SPLINE_SURFACE_WITH_KNOTS('',3,1,((#335,#336,#337,#338,#339,#340),(#341,#342,#343,#344,#345,#346),(#347,#348,#349,#350,#351,#352),(#353,#354,#355,#356,#357,#358),(#359,#360,#361,#362,#363,#364),(#365,#366,#367,#368,#369,#370),(#371,#372,#373,#374,#375,#376),(#377,#378,#379,#380,#381,#382),(#383,#384,#385,#386,#387,#388),(#389,#390,#391,#392,#393,#394),(#395,#396,#397,#398,#399,#400),(#401,#402,#403,#404,#405,#406),(#407,#408,#409,#410,#411,#412),(#413,#414,#415,#416,#417,#418),(#419,#420,#421,#422,#423,#424),(#425,#426,#427,#428,#429,#430),(#431,#432,#433,#434,#435,#436),(#437,#438,#439,#440,#441,#442),(#443,#444,#445,#446,#447,#448)),.UNSPECIFIED.,.F.,.F.,.U.,(4,3,3,3,3,3,4),(2,1,1,1,1,2),(-0.100061486,-0.085006002,0.,0.25,0.5,0.75,0.909758731),(0.180947775,1.,1.735675047,2.603512571,5.207025142,9.271856866),.UNSPECIFIED.);
#450=CARTESIAN_POINT('',(-54.997206209,113.320283699,143.50964263));
#451=VERTEX_POINT('',#450);
#452=CARTESIAN_POINT('',(-54.997206209,113.320283699,143.50964263));
#453=CARTESIAN_POINT('',(-54.997199712,112.375318604,143.372128728));
#454=CARTESIAN_POINT('',(-54.997189464,111.442776354,143.155237587));
#455=CARTESIAN_POINT('',(-54.997174553,110.526424115,142.839658857));
#456=CARTESIAN_POINT('',(-54.997159643,109.610071875,142.524080126));
#457=CARTESIAN_POINT('',(-54.997140561,108.741471007,142.120217179));
#458=CARTESIAN_POINT('',(-54.997117047,107.923601976,141.622559641));
#459=CARTESIAN_POINT('',(-54.99710529,107.51466746,141.373730872));
#460=CARTESIAN_POINT('',(-54.997092423,107.118449347,141.101391623));
#461=CARTESIAN_POINT('',(-54.997078389,106.735578034,140.804376398));
#462=CARTESIAN_POINT('',(-54.997064356,106.35270672,140.507361173));
#463=CARTESIAN_POINT('',(-54.997049363,105.989039931,140.190060469));
#464=CARTESIAN_POINT('',(-54.997033556,105.646110374,139.855489877));
#465=CARTESIAN_POINT('',(-54.99700194,104.960251262,139.186348693));
#466=CARTESIAN_POINT('',(-54.996966953,104.353556796,138.44586811));
#467=CARTESIAN_POINT('',(-54.996928766,103.822034972,137.637645532));
#468=CARTESIAN_POINT('',(-54.996919219,103.689154517,137.435589888));
#469=CARTESIAN_POINT('',(-54.996909486,103.561266431,137.229595382));
#470=CARTESIAN_POINT('',(-54.996899673,103.439475844,137.021915669));
#471=CARTESIAN_POINT('',(-54.996889861,103.317685257,136.814235955));
#472=CARTESIAN_POINT('',(-54.996879941,103.201596865,136.604282529));
#473=CARTESIAN_POINT('',(-54.996869918,103.090949892,136.392159373));
#474=CARTESIAN_POINT('',(-54.996849873,102.869655946,135.96791306));
#475=CARTESIAN_POINT('',(-54.996829419,102.670082522,135.535005833));
#476=CARTESIAN_POINT('',(-54.996808583,102.490745916,135.094029308));
#477=CARTESIAN_POINT('',(-54.996766912,102.132072703,134.212076258));
#478=CARTESIAN_POINT('',(-54.996723728,101.853709996,133.298099923));
#479=CARTESIAN_POINT('',(-54.9966791,101.65197978,132.353566887));
#480=CARTESIAN_POINT('',(-54.996656786,101.551114673,131.881300368));
#481=CARTESIAN_POINT('',(-54.996634316,101.470595957,131.405717518));
#482=CARTESIAN_POINT('',(-54.996611849,101.410063923,130.93022115));
#483=CARTESIAN_POINT('',(-54.996589383,101.34953189,130.454724782));
#484=CARTESIAN_POINT('',(-54.99656687,101.308758507,129.978254712));
#485=CARTESIAN_POINT('',(-54.996544312,101.287506851,129.500822616));
#486=CARTESIAN_POINT('',(-54.996521754,101.266255196,129.023390519));
#487=CARTESIAN_POINT('',(-54.996499147,101.266349554,128.544906496));
#488=CARTESIAN_POINT('',(-54.996476504,101.281410017,128.065684946));
#489=CARTESIAN_POINT('',(-54.996453862,101.29647048,127.586463396));
#490=CARTESIAN_POINT('',(-54.99643119,101.323793725,127.106637539));
#491=CARTESIAN_POINT('',(-54.996408524,101.348934696,126.626919224));
#492=B_SPLINE_CURVE_WITH_KNOTS('',3,(#452,#453,#454,#455,#456,#457,#458,#459,#460,#461,#462,#463,#464,#465,#466,#467,#468,#469,#470,#471,#472,#473,#474,#475,#476,#477,
#478,#479,#480,#481,#482,#483,#484,#485,#486,#487,#488,#489,#490,#491),.UNSPECIFIED.,.F.,.F.,(4,3,3,3,3,3,3,3,3,3,3,3,3,4),(765.504043483,765.506925743,765.509808003,765.511249133,765.512690263,765.515572523,765.516293088,765.517013653,765.518454783,765.521337042,765.522778172,765.524219302,765.525660432,765.527101562),.UNSPECIFIED.);
#493=EDGE_CURVE('',#451,#44,#492,.T.);
#494=ORIENTED_EDGE('',*,*,#493,.F.);
#495=CARTESIAN_POINT('',(-54.997206209,113.320283699,143.50964263));
#496=DIRECTION('',(0.999999999,0.,0.000047249));
#497=VECTOR('',#496,9.);
#498=LINE('',#495,#497);
#499=EDGE_CURVE('',#451,#234,#498,.T.);
#500=ORIENTED_EDGE('',*,*,#499,.T.);
#501=ORIENTED_EDGE('',*,*,#264,.F.);
#502=CARTESIAN_POINT('',(-45.996885745,103.271130791,136.727344449));
#503=CARTESIAN_POINT('',(-45.996863381,103.008348716,136.254016659));
#504=CARTESIAN_POINT('',(-45.955086224,102.776063256,135.773387776));
#505=CARTESIAN_POINT('',(-45.86622876,102.570887733,135.287777767));
#506=CARTESIAN_POINT('',(-45.821800028,102.468299972,135.044972762));
#507=CARTESIAN_POINT('',(-45.765555746,102.372510514,134.800920062));
#508=CARTESIAN_POINT('',(-45.696448749,102.283204207,134.555919112));
#509=CARTESIAN_POINT('',(-45.627341752,102.193897901,134.310918163));
#510=CARTESIAN_POINT('',(-45.545366303,102.111406951,134.065631595));
#511=CARTESIAN_POINT('',(-45.451969301,102.036746986,133.825700848));
#512=CARTESIAN_POINT('',(-45.265175297,101.887427057,133.345839355));
#513=CARTESIAN_POINT('',(-45.031454328,101.767116351,132.881424304));
#514=CARTESIAN_POINT('',(-44.747975055,101.669593911,132.43554429));
#515=CARTESIAN_POINT('',(-44.606235418,101.62083269,132.212604283));
#516=CARTESIAN_POINT('',(-44.451003928,101.57763596,131.993233342));
#517=CARTESIAN_POINT('',(-44.286297205,101.540275334,131.783705488));
#518=CARTESIAN_POINT('',(-44.121590482,101.502914709,131.574177633));
#519=CARTESIAN_POINT('',(-43.947007237,101.471145154,131.373588954));
#520=CARTESIAN_POINT('',(-43.762686099,101.443904074,131.181954107));
#521=CARTESIAN_POINT('',(-43.578364961,101.416662995,130.99031926));
#522=CARTESIAN_POINT('',(-43.384304786,101.393955309,130.807638673));
#523=CARTESIAN_POINT('',(-43.180376878,101.374884595,130.634166844));
#524=CARTESIAN_POINT('',(-42.976448969,101.35581388,130.460695016));
#525=CARTESIAN_POINT('',(-42.761361383,101.340322062,130.295591887));
#526=CARTESIAN_POINT('',(-42.539677456,101.327870595,130.142660285));
#527=CARTESIAN_POINT('',(-42.096309601,101.302967661,129.836797081));
#528=CARTESIAN_POINT('',(-41.627902044,101.289867219,129.579095023));
#529=CARTESIAN_POINT('',(-41.134979434,101.282109973,129.36889318));
#530=CARTESIAN_POINT('',(-40.88851813,101.27823135,129.263792258));
#531=CARTESIAN_POINT('',(-40.635148359,101.275731398,129.170428531));
#532=CARTESIAN_POINT('',(-40.376984482,101.274051982,129.089978658));
#533=CARTESIAN_POINT('',(-40.118820605,101.272372567,129.009528785));
#534=CARTESIAN_POINT('',(-39.858505128,101.271519278,128.942730742));
#535=CARTESIAN_POINT('',(-39.596100238,101.271020433,128.889194959));
#536=CARTESIAN_POINT('',(-39.071290459,101.270022744,128.782123395));
#537=CARTESIAN_POINT('',(-38.538186968,101.27026768,128.727696853));
#538=CARTESIAN_POINT('',(-37.996507765,101.27026768,128.727722447));
#539=B_SPLINE_CURVE_WITH_KNOTS('',3,(#502,#503,#504,#505,#506,#507,#508,#509,#510,#511,#512,#513,#514,#515,#516,#517,#518,#519,#520,#521,#522,#523,#524,#525,#526,#527,
#528,#529,#530,#531,#532,#533,#534,#535,#536,#537,#538),.UNSPECIFIED.,.F.,.F.,(4,3,3,3,3,3,3,3,3,3,3,3,4),(0.,0.001602808,0.002404212,0.003205616,0.004808423,0.005609827,0.006411231,0.007212635,0.008014039,0.009616847,0.010418251,0.011219655,0.012822463),.UNSPECIFIED.);
#540=EDGE_CURVE('',#226,#301,#539,.T.);
#541=ORIENTED_EDGE('',*,*,#540,.T.);
#542=ORIENTED_EDGE('',*,*,#307,.F.);
#543=CARTESIAN_POINT('',(45.003591364,101.348934696,126.63164408));
#544=CARTESIAN_POINT('',(45.003558316,101.3122779,127.33109743));
#545=CARTESIAN_POINT('',(45.003525281,101.27026768,128.030270319));
#546=CARTESIAN_POINT('',(45.003492142,101.27026768,128.731644078));
#547=B_SPLINE_CURVE_WITH_KNOTS('',3,(#543,#544,#545,#546),.UNSPECIFIED.,.F.,.F.,(4,4),(67.304464245,67.306565485),.UNSPECIFIED.);
#548=EDGE_CURVE('',#52,#299,#547,.T.);
#549=ORIENTED_EDGE('',*,*,#548,.F.);
#550=ORIENTED_EDGE('',*,*,#58,.T.);
#551=EDGE_LOOP('',(#494,#500,#501,#541,#542,#549,#550));
#552=FACE_BOUND('',#551,.T.);
#553=ADVANCED_FACE('',(#552),#449,.T.);
#554=CARTESIAN_POINT('',(-115.988350658,191.99481633,158.724037477));
#555=DIRECTION('',(-0.000047249,0.,0.999999999));
#556=DIRECTION('',(-0.999999999,-0.,-0.000047249));
#557=AXIS2_PLACEMENT_3D('',#554,#555,#556);
#558=PLANE('',#557);
#559=CARTESIAN_POINT('',(-54.997925204,79.797037497,158.726919188));
#560=VERTEX_POINT('',#559);
#561=CARTESIAN_POINT('',(-54.997925204,112.197037497,158.726919188));
#562=VERTEX_POINT('',#561);
#563=CARTESIAN_POINT('',(-54.997925204,79.797037497,158.726919188));
#564=DIRECTION('',(0.,1.,0.));
#565=VECTOR('',#564,32.4);
#566=LINE('',#563,#565);
#567=EDGE_CURVE('',#560,#562,#566,.T.);
#568=ORIENTED_EDGE('',*,*,#567,.F.);
#569=CARTESIAN_POINT('',(-54.997925204,79.797037497,158.726919188));
#570=DIRECTION('',(0.999999999,-0.,0.000047249));
#571=VECTOR('',#570,9.);
#572=LINE('',#569,#571);
#573=EDGE_CURVE('',#560,#176,#572,.T.);
#574=ORIENTED_EDGE('',*,*,#573,.T.);
#575=ORIENTED_EDGE('',*,*,#288,.F.);
#576=CARTESIAN_POINT('',(-45.997925214,112.197037497,158.727344425));
#577=DIRECTION('',(-0.999999999,-0.,-0.000047249));
#578=VECTOR('',#577,9.);
#579=LINE('',#576,#578);
#580=EDGE_CURVE('',#276,#562,#579,.T.);
#581=ORIENTED_EDGE('',*,*,#580,.T.);
#582=EDGE_LOOP('',(#568,#574,#575,#581));
#583=FACE_BOUND('',#582,.T.);
#584=ADVANCED_FACE('',(#583),#558,.T.);
#585=CARTESIAN_POINT('',(45.003591364,90.645140298,126.63164408));
#586=CARTESIAN_POINT('',(-3.392511111,90.645140298,126.629357434));
#587=CARTESIAN_POINT('',(-29.268934185,90.645140298,126.62813481));
#588=CARTESIAN_POINT('',(-37.894408544,90.645140298,126.627727269));
#589=CARTESIAN_POINT('',(-40.015557277,90.645140298,126.627627047));
#590=CARTESIAN_POINT('',(-51.015557265,90.645140298,126.627107313));
#591=CARTESIAN_POINT('',(-54.99555726,90.645140298,126.626919264));
#592=CARTESIAN_POINT('',(-54.996408525,90.645140298,126.626919223));
#593=CARTESIAN_POINT('',(45.003586399,90.650647303,126.736724009));
#594=CARTESIAN_POINT('',(-3.392516076,90.650647303,126.734437362));
#595=CARTESIAN_POINT('',(-29.26893915,90.650647303,126.733214738));
#596=CARTESIAN_POINT('',(-37.894413508,90.650647303,126.732807197));
#597=CARTESIAN_POINT('',(-40.015562242,90.650647303,126.732706975));
#598=CARTESIAN_POINT('',(-51.015562229,90.650647303,126.732187241));
#599=CARTESIAN_POINT('',(-54.995562225,90.650647303,126.731999192));
#600=CARTESIAN_POINT('',(-54.996413489,90.650647303,126.731999152));
#601=CARTESIAN_POINT('',(45.003581434,90.656154309,126.841803937));
#602=CARTESIAN_POINT('',(-3.392521041,90.656154309,126.83951729));
#603=CARTESIAN_POINT('',(-29.268944115,90.656154309,126.838294666));
#604=CARTESIAN_POINT('',(-37.894418473,90.656154309,126.837887125));
#605=CARTESIAN_POINT('',(-40.015567207,90.656154309,126.837786904));
#606=CARTESIAN_POINT('',(-51.015567194,90.656154309,126.837267169));
#607=CARTESIAN_POINT('',(-54.99556719,90.656154309,126.83707912));
#608=CARTESIAN_POINT('',(-54.996418454,90.656154309,126.83707908));
#609=CARTESIAN_POINT('',(45.003576469,90.661661315,126.946883865));
#610=CARTESIAN_POINT('',(-3.392526006,90.661661315,126.944597218));
#611=CARTESIAN_POINT('',(-29.26894908,90.661661315,126.943374594));
#612=CARTESIAN_POINT('',(-37.894423438,90.661661315,126.942967053));
#613=CARTESIAN_POINT('',(-40.015572171,90.661661315,126.942866832));
#614=CARTESIAN_POINT('',(-51.015572159,90.661661315,126.942347098));
#615=CARTESIAN_POINT('',(-54.995572155,90.661661315,126.942159048));
#616=CARTESIAN_POINT('',(-54.996423419,90.661661315,126.942159008));
#617=CARTESIAN_POINT('',(45.003548445,90.692746178,127.540008538));
#618=CARTESIAN_POINT('',(-3.39255403,90.692746178,127.537721891));
#619=CARTESIAN_POINT('',(-29.268977104,90.692746178,127.536499267));
#620=CARTESIAN_POINT('',(-37.894451462,90.692746178,127.536091726));
#621=CARTESIAN_POINT('',(-40.015600196,90.692746178,127.535991504));
#622=CARTESIAN_POINT('',(-51.015600183,90.692746178,127.53547177));
#623=CARTESIAN_POINT('',(-54.995600179,90.692746178,127.535283721));
#624=CARTESIAN_POINT('',(-54.996451443,90.692746178,127.535283681));
#625=CARTESIAN_POINT('',(45.003520437,90.7238199,128.132783498));
#626=CARTESIAN_POINT('',(-3.392582038,90.7238199,128.130496851));
#627=CARTESIAN_POINT('',(-29.269005112,90.7238199,128.129274227));
#628=CARTESIAN_POINT('',(-37.89447947,90.7238199,128.128866686));
#629=CARTESIAN_POINT('',(-40.015628203,90.7238199,128.128766464));
#630=CARTESIAN_POINT('',(-51.015628191,90.7238199,128.12824673));
#631=CARTESIAN_POINT('',(-54.995628187,90.7238199,128.128058681));
#632=CARTESIAN_POINT('',(-54.996479451,90.7238199,128.128058641));
#633=CARTESIAN_POINT('',(45.003492142,90.723807314,128.731644078));
#634=CARTESIAN_POINT('',(-3.392610333,90.723807314,128.729357432));
#635=CARTESIAN_POINT('',(-29.269033407,90.723807314,128.728134808));
#636=CARTESIAN_POINT('',(-37.894507766,90.723807314,128.727727266));
#637=CARTESIAN_POINT('',(-40.015656499,90.723807314,128.727627045));
#638=CARTESIAN_POINT('',(-51.015656487,90.723807314,128.727107311));
#639=CARTESIAN_POINT('',(-54.995656482,90.723807314,128.726919261));
#640=CARTESIAN_POINT('',(-54.996507747,90.723807314,128.726919221));
#641=CARTESIAN_POINT('',(45.003339088,90.724342199,131.970980497));
#642=CARTESIAN_POINT('',(-3.392763387,90.724342199,131.96869385));
#643=CARTESIAN_POINT('',(-29.269186461,90.724342199,131.967471226));
#644=CARTESIAN_POINT('',(-37.89466082,90.724342199,131.967063685));
#645=CARTESIAN_POINT('',(-40.015809553,90.724342199,131.966963464));
#646=CARTESIAN_POINT('',(-51.015809541,90.724342199,131.966443729));
#647=CARTESIAN_POINT('',(-54.995809536,90.724342199,131.96625568));
#648=CARTESIAN_POINT('',(-54.996660801,90.724342199,131.96625564));
#649=CARTESIAN_POINT('',(45.003177152,89.815807004,135.398305266));
#650=CARTESIAN_POINT('',(-3.392925323,89.815807004,135.39601862));
#651=CARTESIAN_POINT('',(-29.269348398,89.815807004,135.394795996));
#652=CARTESIAN_POINT('',(-37.894822756,89.815807004,135.394388454));
#653=CARTESIAN_POINT('',(-40.015971489,89.815807004,135.394288233));
#654=CARTESIAN_POINT('',(-51.015971477,89.815807004,135.393768499));
#655=CARTESIAN_POINT('',(-54.995971472,89.815807004,135.39358045));
#656=CARTESIAN_POINT('',(-54.996822737,89.815807004,135.393580409));
#657=CARTESIAN_POINT('',(45.003046948,87.818832941,138.154017482));
#658=CARTESIAN_POINT('',(-3.393055527,87.818832941,138.151730835));
#659=CARTESIAN_POINT('',(-29.269478601,87.818832941,138.150508211));
#660=CARTESIAN_POINT('',(-37.894952959,87.818832941,138.15010067));
#661=CARTESIAN_POINT('',(-40.016101692,87.818832941,138.150000449));
#662=CARTESIAN_POINT('',(-51.01610168,87.818832941,138.149480714));
#663=CARTESIAN_POINT('',(-54.996101676,87.818832941,138.149292665));
#664=CARTESIAN_POINT('',(-54.99695294,87.818832941,138.149292625));
#665=CARTESIAN_POINT('',(45.002981843,86.821103116,139.531943264));
#666=CARTESIAN_POINT('',(-3.393120632,86.821103116,139.529656618));
#667=CARTESIAN_POINT('',(-29.269543706,86.821103116,139.528433994));
#668=CARTESIAN_POINT('',(-37.895018064,86.821103116,139.528026453));
#669=CARTESIAN_POINT('',(-40.016166797,86.821103116,139.527926231));
#670=CARTESIAN_POINT('',(-51.016166785,86.821103116,139.527406497));
#671=CARTESIAN_POINT('',(-54.996166781,86.821103116,139.527218448));
#672=CARTESIAN_POINT('',(-54.997018045,86.821103116,139.527218407));
#673=CARTESIAN_POINT('',(45.002924659,85.551376135,140.742228903));
#674=CARTESIAN_POINT('',(-3.393177816,85.551376135,140.739942256));
#675=CARTESIAN_POINT('',(-29.26960089,85.551376135,140.738719632));
#676=CARTESIAN_POINT('',(-37.895075249,85.551376135,140.738312091));
#677=CARTESIAN_POINT('',(-40.016223982,85.551376135,140.73821187));
#678=CARTESIAN_POINT('',(-51.016223969,85.551376135,140.737692136));
#679=CARTESIAN_POINT('',(-54.996223965,85.551376135,140.737504086));
#680=CARTESIAN_POINT('',(-54.99707523,85.551376135,140.737504046));
#681=CARTESIAN_POINT('',(45.002880465,83.98711769,141.677573845));
#682=CARTESIAN_POINT('',(-3.39322201,83.98711769,141.675287198));
#683=CARTESIAN_POINT('',(-29.269645084,83.98711769,141.674064574));
#684=CARTESIAN_POINT('',(-37.895119442,83.98711769,141.673657033));
#685=CARTESIAN_POINT('',(-40.016268175,83.98711769,141.673556811));
#686=CARTESIAN_POINT('',(-51.016268163,83.98711769,141.673037077));
#687=CARTESIAN_POINT('',(-54.996268159,83.98711769,141.672849028));
#688=CARTESIAN_POINT('',(-54.997119423,83.98711769,141.672848988));
#689=CARTESIAN_POINT('',(45.002838196,82.492063897,142.572199683));
#690=CARTESIAN_POINT('',(-3.393264279,82.492063897,142.569913036));
#691=CARTESIAN_POINT('',(-29.269687354,82.492063897,142.568690413));
#692=CARTESIAN_POINT('',(-37.895161712,82.492063897,142.568282871));
#693=CARTESIAN_POINT('',(-40.016310445,82.492063897,142.56818265));
#694=CARTESIAN_POINT('',(-51.016310433,82.492063897,142.567662916));
#695=CARTESIAN_POINT('',(-54.996310429,82.492063897,142.567474866));
#696=CARTESIAN_POINT('',(-54.997161693,82.492063897,142.567474826));
#697=CARTESIAN_POINT('',(45.002807788,80.727558457,143.215764225));
#698=CARTESIAN_POINT('',(-3.393294687,80.727558457,143.213477578));
#699=CARTESIAN_POINT('',(-29.269717761,80.727558457,143.212254954));
#700=CARTESIAN_POINT('',(-37.89519212,80.727558457,143.211847413));
#701=CARTESIAN_POINT('',(-40.016340853,80.727558457,143.211747192));
#702=CARTESIAN_POINT('',(-51.01634084,80.727558457,143.211227457));
#703=CARTESIAN_POINT('',(-54.996340836,80.727558457,143.211039408));
#704=CARTESIAN_POINT('',(-54.997192101,80.727558457,143.211039368));
#705=CARTESIAN_POINT('',(45.002793678,78.673796061,143.51440026));
#706=CARTESIAN_POINT('',(-3.393308797,78.673796061,143.512113614));
#707=CARTESIAN_POINT('',(-29.269731871,78.673796061,143.51089099));
#708=CARTESIAN_POINT('',(-37.89520623,78.673796061,143.510483448));
#709=CARTESIAN_POINT('',(-40.016354963,78.673796061,143.510383227));
#710=CARTESIAN_POINT('',(-51.016354951,78.673796061,143.509863493));
#711=CARTESIAN_POINT('',(-54.996354946,78.673796061,143.509675444));
#712=CARTESIAN_POINT('',(-54.997206211,78.673796061,143.509675403));
#713=B_SPLINE_SURFACE_WITH_KNOTS('',3,1,((#585,#586,#587,#588,#589,#590,#591,#592),(#593,#594,#595,#596,#597,#598,#599,#600),(#601,#602,#603,#604,#605,#606,#607,#608),(#609,#610,#611,#612,#613,#614,#615,#616),(#617,#618,#619,#620,#621,#622,#623,#624),(#625,#626,#627,#628,#629,#630,#631,#632),(#633,#634,#635,#636,#637,#638,#639,#640),(#641,#642,#643,#644,#645,#646,#647,#648),(#649,#650,#651,#652,#653,#654,#655,#656),(#657,#658,#659,#660,#661,#662,#663,#664),(#665,#666,#667,#668,#669,#670,#671,#672),(#673,#674,#675,#676,#677,#678,#679,#680),(#681,#682,#683,#684,#685,#686,#687,#688),(#689,#690,#691,#692,#693,#694,#695,#696),(#697,#698,#699,#700,#701,#702,#703,#704),(#705,#706,#707,#708,#709,#710,#711,#712)),.UNSPECIFIED.,.F.,.F.,.U.,(4,3,3,3,3,4),(2,1,1,1,1,1,1,2),(-0.100061486,-0.085006002,0.,0.459944785,0.689917178,0.909761866),(-7.729013521,-3.329367837,-0.976965737,-0.192831703,0.,1.,1.361818182,1.36189557),.UNSPECIFIED.);
#714=CARTESIAN_POINT('',(-54.997206209,78.673791295,143.50964263));
#715=VERTEX_POINT('',#714);
#716=CARTESIAN_POINT('',(-45.997206219,78.673791295,143.510067867));
#717=DIRECTION('',(-0.999999999,0.,-0.000047249));
#718=VECTOR('',#717,9.);
#719=LINE('',#716,#718);
#720=EDGE_CURVE('',#187,#715,#719,.T.);
#721=ORIENTED_EDGE('',*,*,#720,.T.);
#722=CARTESIAN_POINT('',(-54.997206209,78.673791295,143.50964263));
#723=CARTESIAN_POINT('',(-54.997202959,79.146463371,143.440858098));
#724=CARTESIAN_POINT('',(-54.997198762,79.616429631,143.352021902));
#725=CARTESIAN_POINT('',(-54.997193508,80.083377997,143.240821355));
#726=CARTESIAN_POINT('',(-54.997190881,80.31685218,143.185221082));
#727=CARTESIAN_POINT('',(-54.997187989,80.54957074,143.124021197));
#728=CARTESIAN_POINT('',(-54.997184816,80.781486976,143.056875634));
#729=CARTESIAN_POINT('',(-54.997181644,81.013403213,142.989730071));
#730=CARTESIAN_POINT('',(-54.997178181,81.244986002,142.916446824));
#731=CARTESIAN_POINT('',(-54.997174462,81.473251007,142.837728943));
#732=CARTESIAN_POINT('',(-54.997159585,82.386311028,142.52285742));
#733=CARTESIAN_POINT('',(-54.997140522,83.254613012,142.11940515));
#734=CARTESIAN_POINT('',(-54.997116932,84.074489814,141.620114475));
#735=CARTESIAN_POINT('',(-54.997111034,84.279459015,141.495291807));
#736=CARTESIAN_POINT('',(-54.997104852,84.481389209,141.364454632));
#737=CARTESIAN_POINT('',(-54.997098378,84.680197188,141.227438275));
#738=CARTESIAN_POINT('',(-54.997091904,84.879005168,141.090421918));
#739=CARTESIAN_POINT('',(-54.997085116,85.075260877,140.946752046));
#740=CARTESIAN_POINT('',(-54.997078108,85.266159839,140.798427176));
#741=CARTESIAN_POINT('',(-54.997064092,85.647957763,140.501777437));
#742=CARTESIAN_POINT('',(-54.997049165,86.009641505,140.185861854));
#743=CARTESIAN_POINT('',(-54.997033367,86.352059475,139.851493055));
#744=CARTESIAN_POINT('',(-54.997017568,86.694477446,139.517124257));
#745=CARTESIAN_POINT('',(-54.997000898,87.017629219,139.164301835));
#746=CARTESIAN_POINT('',(-54.996983378,87.322001679,138.793492139));
#747=CARTESIAN_POINT('',(-54.996974618,87.474187909,138.608087291));
#748=CARTESIAN_POINT('',(-54.996965645,87.621673554,138.418180111));
#749=CARTESIAN_POINT('',(-54.99695646,87.764484681,138.223795566));
#750=CARTESIAN_POINT('',(-54.996947276,87.907295809,138.029411022));
#751=CARTESIAN_POINT('',(-54.996937849,88.045848753,137.82989037));
#752=CARTESIAN_POINT('',(-54.996928303,88.17847038,137.627858689));
#753=CARTESIAN_POINT('',(-54.99689012,88.708956888,136.819731965));
#754=CARTESIAN_POINT('',(-54.99685008,89.14634412,135.972296243));
#755=CARTESIAN_POINT('',(-54.996808458,89.504410611,135.091369188));
#756=CARTESIAN_POINT('',(-54.996787646,89.683443857,134.65090566));
#757=CARTESIAN_POINT('',(-54.996766436,89.84245025,134.201986261));
#758=CARTESIAN_POINT('',(-54.996744839,89.982104718,133.744895963));
#759=CARTESIAN_POINT('',(-54.996723242,90.121759186,133.287805666));
#760=CARTESIAN_POINT('',(-54.996701228,90.242202541,132.821887859));
#761=CARTESIAN_POINT('',(-54.996678893,90.343031689,132.349179328));
#762=CARTESIAN_POINT('',(-54.996634223,90.544689983,131.403762266));
#763=CARTESIAN_POINT('',(-54.996589341,90.664208433,130.453843213));
#764=CARTESIAN_POINT('',(-54.996544259,90.706618169,129.49969792));
#765=CARTESIAN_POINT('',(-54.996521718,90.727823037,129.022625274));
#766=CARTESIAN_POINT('',(-54.996499122,90.72771544,128.544384516));
#767=CARTESIAN_POINT('',(-54.996476487,90.712653636,128.065324135));
#768=CARTESIAN_POINT('',(-54.996453852,90.697591832,127.586263754));
#769=CARTESIAN_POINT('',(-54.996431185,90.670275724,127.106531728));
#770=CARTESIAN_POINT('',(-54.996408524,90.645140298,126.626919224));
#771=B_SPLINE_CURVE_WITH_KNOTS('',3,(#722,#723,#724,#725,#726,#727,#728,#729,#730,#731,#732,#733,#734,#735,#736,#737,#738,#739,#740,#741,#742,#743,#744,#745,#746,#747,
#748,#749,#750,#751,#752,#753,#754,#755,#756,#757,#758,#759,#760,#761,#762,#763,#764,#765,#766,#767,#768,#769,#770),.UNSPECIFIED.,.F.,.F.,(4,3,3,3,3,3,3,3,3,3,3,3,3,3,3,3,4),(692.481551845,692.482992658,692.483713064,692.48443347,692.487315094,692.4880355,692.488755906,692.490196718,692.49163753,692.492357936,692.493078342,692.495959966,692.497400779,692.498841591,692.501723215,692.503164027,692.504604839),.UNSPECIFIED.);
#772=EDGE_CURVE('',#715,#33,#771,.T.);
#773=ORIENTED_EDGE('',*,*,#772,.T.);
#774=ORIENTED_EDGE('',*,*,#41,.T.);
#775=CARTESIAN_POINT('',(45.003591364,90.645140298,126.63164408));
#776=CARTESIAN_POINT('',(45.003558316,90.681797087,127.331097282));
#777=CARTESIAN_POINT('',(45.003525281,90.723807314,128.030269948));
#778=CARTESIAN_POINT('',(45.003492142,90.723807314,128.731644078));
#779=B_SPLINE_CURVE_WITH_KNOTS('',3,(#775,#776,#777,#778),.UNSPECIFIED.,.F.,.F.,(4,4),(66.100401813,66.102503053),.UNSPECIFIED.);
#780=EDGE_CURVE('',#35,#318,#779,.T.);
#781=ORIENTED_EDGE('',*,*,#780,.T.);
#782=ORIENTED_EDGE('',*,*,#324,.F.);
#783=CARTESIAN_POINT('',(-37.996507765,90.723807314,128.727722447));
#784=CARTESIAN_POINT('',(-38.538213557,90.723807314,128.727696852));
#785=CARTESIAN_POINT('',(-39.070666679,90.724049886,128.782125998));
#786=CARTESIAN_POINT('',(-39.594236845,90.723058097,128.888815021));
#787=CARTESIAN_POINT('',(-39.856021928,90.722562202,128.942159532));
#788=CARTESIAN_POINT('',(-40.115568918,90.721714363,129.008670574));
#789=CARTESIAN_POINT('',(-40.372820036,90.720050028,129.088682165));
#790=CARTESIAN_POINT('',(-40.630071154,90.718385692,129.168693757));
#791=CARTESIAN_POINT('',(-40.885084432,90.715885509,129.262447102));
#792=CARTESIAN_POINT('',(-41.131993658,90.712011935,129.367620643));
#793=CARTESIAN_POINT('',(-41.625812112,90.704264786,129.577967726));
#794=CARTESIAN_POINT('',(-42.09346413,90.691170294,129.835309749));
#795=CARTESIAN_POINT('',(-42.534889774,90.666472788,130.139360008));
#796=CARTESIAN_POINT('',(-42.755602596,90.654124035,130.291385137));
#797=CARTESIAN_POINT('',(-42.970925146,90.638709126,130.456260874));
#798=CARTESIAN_POINT('',(-43.175859232,90.619612127,130.630326787));
#799=CARTESIAN_POINT('',(-43.380793317,90.600515127,130.804392701));
#800=CARTESIAN_POINT('',(-43.575246177,90.577803627,130.987298128));
#801=CARTESIAN_POINT('',(-43.759506752,90.550640204,131.178650512));
#802=CARTESIAN_POINT('',(-44.128027901,90.496313358,131.561355281));
#803=CARTESIAN_POINT('',(-44.45604834,90.424389986,131.977640338));
#804=CARTESIAN_POINT('',(-44.742566692,90.326336801,132.427049388));
#805=CARTESIAN_POINT('',(-45.029085045,90.228283616,132.876458439));
#806=CARTESIAN_POINT('',(-45.263525708,90.107517212,133.342521177));
#807=CARTESIAN_POINT('',(-45.450090903,89.95882731,133.820879993));
#808=CARTESIAN_POINT('',(-45.543373501,89.884482359,134.0600594));
#809=CARTESIAN_POINT('',(-45.624648151,89.80312353,134.302402426));
#810=CARTESIAN_POINT('',(-45.694092496,89.713906815,134.547582908));
#811=CARTESIAN_POINT('',(-45.763536841,89.6246901,134.79276339));
#812=CARTESIAN_POINT('',(-45.820689781,89.527952563,135.039623046));
#813=CARTESIAN_POINT('',(-45.865484567,89.424902445,135.283716649));
#814=CARTESIAN_POINT('',(-45.955074139,89.21880221,135.771903854));
#815=CARTESIAN_POINT('',(-45.996863373,88.985825864,136.253837282));
#816=CARTESIAN_POINT('',(-45.996885745,88.722944203,136.727344449));
#817=B_SPLINE_CURVE_WITH_KNOTS('',3,(#783,#784,#785,#786,#787,#788,#789,#790,#791,#792,#793,#794,#795,#796,#797,#798,#799,#800,#801,#802,#803,#804,#805,#806,#807,#808,
#809,#810,#811,#812,#813,#814,#815,#816),.UNSPECIFIED.,.F.,.F.,(4,3,3,3,3,3,3,3,3,3,3,4),(-0.,0.001602135,0.002403202,0.00320427,0.004806404,0.005607472,0.006408539,0.008010674,0.009612809,0.010413876,0.011214943,0.012817078),.UNSPECIFIED.);
#818=EDGE_CURVE('',#310,#196,#817,.T.);
#819=ORIENTED_EDGE('',*,*,#818,.T.);
#820=ORIENTED_EDGE('',*,*,#223,.F.);
#821=EDGE_LOOP('',(#721,#773,#774,#781,#782,#819,#820));
#822=FACE_BOUND('',#821,.T.);
#823=ADVANCED_FACE('',(#822),#713,.T.);
#824=CARTESIAN_POINT('',(45.009581384,-0.000741336,-0.145114631));
#825=DIRECTION('',(-0.999999999,-0.,-0.000047249));
#826=DIRECTION('',(0.,-1.,0.));
#827=AXIS2_PLACEMENT_3D('',#824,#825,#826);
#828=PLANE('',#827);
#829=ORIENTED_EDGE('',*,*,#64,.F.);
#830=ORIENTED_EDGE('',*,*,#548,.T.);
#831=ORIENTED_EDGE('',*,*,#330,.F.);
#832=ORIENTED_EDGE('',*,*,#780,.F.);
#833=EDGE_LOOP('',(#829,#830,#831,#832));
#834=FACE_BOUND('',#833,.T.);
#835=ADVANCED_FACE('',(#834),#828,.F.);
#836=CARTESIAN_POINT('',(-54.996372616,95.997037497,125.866919224));
#837=DIRECTION('',(0.999999999,0.,0.000047249));
#838=DIRECTION('',(0.000047249,0.,-0.999999999));
#839=AXIS2_PLACEMENT_3D('',#836,#837,#838);
#840=PLANE('',#839);
#841=CARTESIAN_POINT('',(-54.997563786,71.998493653,151.077630529));
#842=VERTEX_POINT('',#841);
#843=CARTESIAN_POINT('',(-54.997556665,79.797037497,150.926919196));
#844=DIRECTION('',(-0.999999999,-0.,-0.000047249));
#845=DIRECTION('',(0.000047249,0.,-0.999999999));
#846=AXIS2_PLACEMENT_3D('',#843,#844,#845);
#847=CIRCLE('',#846,7.8);
#848=EDGE_CURVE('',#842,#560,#847,.T.);
#849=ORIENTED_EDGE('',*,*,#848,.T.);
#850=ORIENTED_EDGE('',*,*,#567,.T.);
#851=CARTESIAN_POINT('',(-54.997563786,119.995581341,151.077630529));
#852=VERTEX_POINT('',#851);
#853=CARTESIAN_POINT('',(-54.997556665,112.197037497,150.926919196));
#854=DIRECTION('',(-0.999999999,-0.,-0.000047249));
#855=DIRECTION('',(0.000047249,0.,-0.999999999));
#856=AXIS2_PLACEMENT_3D('',#853,#854,#855);
#857=CIRCLE('',#856,7.8);
#858=EDGE_CURVE('',#562,#852,#857,.T.);
#859=ORIENTED_EDGE('',*,*,#858,.T.);
#860=CARTESIAN_POINT('',(-54.997570907,112.197037497,151.228341862));
#861=DIRECTION('',(-0.999999999,-0.,-0.000047249));
#862=DIRECTION('',(0.000047249,0.,-0.999999999));
#863=AXIS2_PLACEMENT_3D('',#860,#861,#862);
#864=CIRCLE('',#863,7.8);
#865=EDGE_CURVE('',#852,#451,#864,.T.);
#866=ORIENTED_EDGE('',*,*,#865,.T.);
#867=ORIENTED_EDGE('',*,*,#493,.T.);
#868=ORIENTED_EDGE('',*,*,#49,.T.);
#869=ORIENTED_EDGE('',*,*,#772,.F.);
#870=CARTESIAN_POINT('',(-54.997570907,79.797037497,151.228341862));
#871=DIRECTION('',(-0.999999999,-0.,-0.000047249));
#872=DIRECTION('',(0.000047249,0.,-0.999999999));
#873=AXIS2_PLACEMENT_3D('',#870,#871,#872);
#874=CIRCLE('',#873,7.8);
#875=EDGE_CURVE('',#715,#842,#874,.T.);
#876=ORIENTED_EDGE('',*,*,#875,.T.);
#877=EDGE_LOOP('',(#849,#850,#859,#866,#867,#868,#869,#876));
#878=FACE_BOUND('',#877,.T.);
#879=CARTESIAN_POINT('',(-54.997523611,74.194707557,150.227344442));
#880=VERTEX_POINT('',#879);
#881=CARTESIAN_POINT('',(-54.997657499,75.830747664,153.061049028));
#882=VERTEX_POINT('',#881);
#883=CARTESIAN_POINT('',(-54.997523611,74.194707557,150.227344442));
#884=DIRECTION('',(-0.000040918,0.5,0.866025403));
#885=VECTOR('',#884,3.272080215);
#886=LINE('',#883,#885);
#887=EDGE_CURVE('',#880,#882,#886,.T.);
#888=ORIENTED_EDGE('',*,*,#887,.F.);
#889=CARTESIAN_POINT('',(-54.997389722,75.830747664,147.393639855));
#890=VERTEX_POINT('',#889);
#891=CARTESIAN_POINT('',(-54.997389722,75.830747664,147.393639855));
#892=DIRECTION('',(-0.000040918,-0.5,0.866025403));
#893=VECTOR('',#892,3.272080215);
#894=LINE('',#891,#893);
#895=EDGE_CURVE('',#890,#880,#894,.T.);
#896=ORIENTED_EDGE('',*,*,#895,.F.);
#897=CARTESIAN_POINT('',(-54.997389722,79.10282788,147.393639855));
#898=VERTEX_POINT('',#897);
#899=CARTESIAN_POINT('',(-54.997389722,79.10282788,147.393639855));
#900=DIRECTION('',(0.,-1.,-0.));
#901=VECTOR('',#900,3.272080215);
#902=LINE('',#899,#901);
#903=EDGE_CURVE('',#898,#890,#902,.T.);
#904=ORIENTED_EDGE('',*,*,#903,.F.);
#905=CARTESIAN_POINT('',(-54.997523611,80.738867987,150.227344442));
#906=VERTEX_POINT('',#905);
#907=CARTESIAN_POINT('',(-54.997523611,80.738867987,150.227344442));
#908=DIRECTION('',(0.000040918,-0.5,-0.866025403));
#909=VECTOR('',#908,3.272080215);
#910=LINE('',#907,#909);
#911=EDGE_CURVE('',#906,#898,#910,.T.);
#912=ORIENTED_EDGE('',*,*,#911,.F.);
#913=CARTESIAN_POINT('',(-54.997657499,79.10282788,153.061049028));
#914=VERTEX_POINT('',#913);
#915=CARTESIAN_POINT('',(-54.997657499,79.10282788,153.061049028));
#916=DIRECTION('',(0.000040918,0.5,-0.866025403));
#917=VECTOR('',#916,3.272080215);
#918=LINE('',#915,#917);
#919=EDGE_CURVE('',#914,#906,#918,.T.);
#920=ORIENTED_EDGE('',*,*,#919,.F.);
#921=CARTESIAN_POINT('',(-54.997657499,75.830747664,153.061049028));
#922=DIRECTION('',(-0.,1.,0.));
#923=VECTOR('',#922,3.272080215);
#924=LINE('',#921,#923);
#925=EDGE_CURVE('',#882,#914,#924,.T.);
#926=ORIENTED_EDGE('',*,*,#925,.F.);
#927=EDGE_LOOP('',(#888,#896,#904,#912,#920,#926));
#928=FACE_BOUND('',#927,.T.);
#929=CARTESIAN_POINT('',(-54.997523611,111.194707557,150.227344442));
#930=VERTEX_POINT('',#929);
#931=CARTESIAN_POINT('',(-54.997657499,112.830747664,153.061049028));
#932=VERTEX_POINT('',#931);
#933=CARTESIAN_POINT('',(-54.997523611,111.194707557,150.227344442));
#934=DIRECTION('',(-0.000040918,0.5,0.866025403));
#935=VECTOR('',#934,3.272080215);
#936=LINE('',#933,#935);
#937=EDGE_CURVE('',#930,#932,#936,.T.);
#938=ORIENTED_EDGE('',*,*,#937,.F.);
#939=CARTESIAN_POINT('',(-54.997389722,112.830747664,147.393639855));
#940=VERTEX_POINT('',#939);
#941=CARTESIAN_POINT('',(-54.997389722,112.830747664,147.393639855));
#942=DIRECTION('',(-0.000040918,-0.5,0.866025403));
#943=VECTOR('',#942,3.272080215);
#944=LINE('',#941,#943);
#945=EDGE_CURVE('',#940,#930,#944,.T.);
#946=ORIENTED_EDGE('',*,*,#945,.F.);
#947=CARTESIAN_POINT('',(-54.997389722,116.10282788,147.393639855));
#948=VERTEX_POINT('',#947);
#949=CARTESIAN_POINT('',(-54.997389722,116.10282788,147.393639855));
#950=DIRECTION('',(0.,-1.,0.));
#951=VECTOR('',#950,3.272080215);
#952=LINE('',#949,#951);
#953=EDGE_CURVE('',#948,#940,#952,.T.);
#954=ORIENTED_EDGE('',*,*,#953,.F.);
#955=CARTESIAN_POINT('',(-54.997523611,117.738867987,150.227344442));
#956=VERTEX_POINT('',#955);
#957=CARTESIAN_POINT('',(-54.997523611,117.738867987,150.227344442));
#958=DIRECTION('',(0.000040918,-0.5,-0.866025403));
#959=VECTOR('',#958,3.272080215);
#960=LINE('',#957,#959);
#961=EDGE_CURVE('',#956,#948,#960,.T.);
#962=ORIENTED_EDGE('',*,*,#961,.F.);
#963=CARTESIAN_POINT('',(-54.997657499,116.10282788,153.061049028));
#964=VERTEX_POINT('',#963);
#965=CARTESIAN_POINT('',(-54.997657499,116.10282788,153.061049028));
#966=DIRECTION('',(0.000040918,0.5,-0.866025403));
#967=VECTOR('',#966,3.272080215);
#968=LINE('',#965,#967);
#969=EDGE_CURVE('',#964,#956,#968,.T.);
#970=ORIENTED_EDGE('',*,*,#969,.F.);
#971=CARTESIAN_POINT('',(-54.997657499,112.830747664,153.061049028));
#972=DIRECTION('',(0.,1.,0.));
#973=VECTOR('',#972,3.272080215);
#974=LINE('',#971,#973);
#975=EDGE_CURVE('',#932,#964,#974,.T.);
#976=ORIENTED_EDGE('',*,*,#975,.F.);
#977=EDGE_LOOP('',(#938,#946,#954,#962,#970,#976));
#978=FACE_BOUND('',#977,.T.);
#979=ADVANCED_FACE('',(#878,#928,#978),#840,.F.);
#980=CARTESIAN_POINT('',(-52.490418507,-0.000741336,-0.149721366));
#981=DIRECTION('',(-0.999999999,0.,-0.000047249));
#982=DIRECTION('',(0.,-1.,0.));
#983=AXIS2_PLACEMENT_3D('',#980,#981,#982);
#984=PLANE('',#983);
#985=CARTESIAN_POINT('',(-52.497389725,112.830747664,147.393757976));
#986=VERTEX_POINT('',#985);
#987=CARTESIAN_POINT('',(-52.497523614,111.194707557,150.227462563));
#988=VERTEX_POINT('',#987);
#989=CARTESIAN_POINT('',(-52.497389725,112.830747664,147.393757976));
#990=DIRECTION('',(-0.000040918,-0.5,0.866025403));
#991=VECTOR('',#990,3.272080215);
#992=LINE('',#989,#991);
#993=EDGE_CURVE('',#986,#988,#992,.T.);
#994=ORIENTED_EDGE('',*,*,#993,.T.);
#995=CARTESIAN_POINT('',(-52.497657502,112.830747664,153.06116715));
#996=VERTEX_POINT('',#995);
#997=CARTESIAN_POINT('',(-52.497523614,111.194707557,150.227462563));
#998=DIRECTION('',(-0.000040918,0.5,0.866025403));
#999=VECTOR('',#998,3.272080215);
#1000=LINE('',#997,#999);
#1001=EDGE_CURVE('',#988,#996,#1000,.T.);
#1002=ORIENTED_EDGE('',*,*,#1001,.T.);
#1003=CARTESIAN_POINT('',(-52.497657502,116.10282788,153.06116715));
#1004=VERTEX_POINT('',#1003);
#1005=CARTESIAN_POINT('',(-52.497657502,112.830747664,153.06116715));
#1006=DIRECTION('',(0.,1.,0.));
#1007=VECTOR('',#1006,3.272080215);
#1008=LINE('',#1005,#1007);
#1009=EDGE_CURVE('',#996,#1004,#1008,.T.);
#1010=ORIENTED_EDGE('',*,*,#1009,.T.);
#1011=CARTESIAN_POINT('',(-52.497523614,117.738867987,150.227462563));
#1012=VERTEX_POINT('',#1011);
#1013=CARTESIAN_POINT('',(-52.497657502,116.10282788,153.06116715));
#1014=DIRECTION('',(0.000040918,0.5,-0.866025403));
#1015=VECTOR('',#1014,3.272080215);
#1016=LINE('',#1013,#1015);
#1017=EDGE_CURVE('',#1004,#1012,#1016,.T.);
#1018=ORIENTED_EDGE('',*,*,#1017,.T.);
#1019=CARTESIAN_POINT('',(-52.497389725,116.10282788,147.393757976));
#1020=VERTEX_POINT('',#1019);
#1021=CARTESIAN_POINT('',(-52.497523614,117.738867987,150.227462563));
#1022=DIRECTION('',(0.000040918,-0.5,-0.866025403));
#1023=VECTOR('',#1022,3.272080215);
#1024=LINE('',#1021,#1023);
#1025=EDGE_CURVE('',#1012,#1020,#1024,.T.);
#1026=ORIENTED_EDGE('',*,*,#1025,.T.);
#1027=CARTESIAN_POINT('',(-52.497389725,116.10282788,147.393757976));
#1028=DIRECTION('',(0.,-1.,0.));
#1029=VECTOR('',#1028,3.272080215);
#1030=LINE('',#1027,#1029);
#1031=EDGE_CURVE('',#1020,#986,#1030,.T.);
#1032=ORIENTED_EDGE('',*,*,#1031,.T.);
#1033=EDGE_LOOP('',(#994,#1002,#1010,#1018,#1026,#1032));
#1034=FACE_BOUND('',#1033,.T.);
#1035=ORIENTED_EDGE('',*,*,#99,.T.);
#1036=ORIENTED_EDGE('',*,*,#133,.T.);
#1037=ORIENTED_EDGE('',*,*,#126,.T.);
#1038=ORIENTED_EDGE('',*,*,#117,.T.);
#1039=ORIENTED_EDGE('',*,*,#108,.T.);
#1040=EDGE_LOOP('',(#1035,#1036,#1037,#1038,#1039));
#1041=FACE_BOUND('',#1040,.T.);
#1042=ADVANCED_FACE('',(#1034,#1041),#984,.T.);
#1043=CARTESIAN_POINT('',(-52.497456669,112.012727611,148.81061027));
#1044=DIRECTION('',(0.000023624,-0.866025404,-0.499999999));
#1045=DIRECTION('',(0.,0.5,-0.866025404));
#1046=AXIS2_PLACEMENT_3D('',#1043,#1044,#1045);
#1047=PLANE('',#1046);
#1048=ORIENTED_EDGE('',*,*,#945,.T.);
#1049=CARTESIAN_POINT('',(-52.497523614,111.194707557,150.227462563));
#1050=DIRECTION('',(-0.999999999,-0.,-0.000047249));
#1051=VECTOR('',#1050,2.5);
#1052=LINE('',#1049,#1051);
#1053=EDGE_CURVE('',#988,#930,#1052,.T.);
#1054=ORIENTED_EDGE('',*,*,#1053,.F.);
#1055=ORIENTED_EDGE('',*,*,#993,.F.);
#1056=CARTESIAN_POINT('',(-52.497389725,112.830747664,147.393757976));
#1057=DIRECTION('',(-0.999999999,0.,-0.000047249));
#1058=VECTOR('',#1057,2.5);
#1059=LINE('',#1056,#1058);
#1060=EDGE_CURVE('',#986,#940,#1059,.T.);
#1061=ORIENTED_EDGE('',*,*,#1060,.T.);
#1062=EDGE_LOOP('',(#1048,#1054,#1055,#1061));
#1063=FACE_BOUND('',#1062,.T.);
#1064=ADVANCED_FACE('',(#1063),#1047,.F.);
#1065=CARTESIAN_POINT('',(-52.497590558,112.012727611,151.644314856));
#1066=DIRECTION('',(-0.000023624,-0.866025404,0.499999999));
#1067=DIRECTION('',(0.,-0.5,-0.866025404));
#1068=AXIS2_PLACEMENT_3D('',#1065,#1066,#1067);
#1069=PLANE('',#1068);
#1070=ORIENTED_EDGE('',*,*,#937,.T.);
#1071=CARTESIAN_POINT('',(-52.497657502,112.830747664,153.06116715));
#1072=DIRECTION('',(-0.999999999,-0.,-0.000047249));
#1073=VECTOR('',#1072,2.5);
#1074=LINE('',#1071,#1073);
#1075=EDGE_CURVE('',#996,#932,#1074,.T.);
#1076=ORIENTED_EDGE('',*,*,#1075,.F.);
#1077=ORIENTED_EDGE('',*,*,#1001,.F.);
#1078=ORIENTED_EDGE('',*,*,#1053,.T.);
#1079=EDGE_LOOP('',(#1070,#1076,#1077,#1078));
#1080=FACE_BOUND('',#1079,.T.);
#1081=ADVANCED_FACE('',(#1080),#1069,.F.);
#1082=CARTESIAN_POINT('',(-52.497657502,114.466787772,153.06116715));
#1083=DIRECTION('',(-0.000047249,0.,0.999999999));
#1084=DIRECTION('',(0.999999999,0.,0.000047249));
#1085=AXIS2_PLACEMENT_3D('',#1082,#1083,#1084);
#1086=PLANE('',#1085);
#1087=ORIENTED_EDGE('',*,*,#975,.T.);
#1088=CARTESIAN_POINT('',(-52.497657502,116.10282788,153.06116715));
#1089=DIRECTION('',(-0.999999999,0.,-0.000047249));
#1090=VECTOR('',#1089,2.5);
#1091=LINE('',#1088,#1090);
#1092=EDGE_CURVE('',#1004,#964,#1091,.T.);
#1093=ORIENTED_EDGE('',*,*,#1092,.F.);
#1094=ORIENTED_EDGE('',*,*,#1009,.F.);
#1095=ORIENTED_EDGE('',*,*,#1075,.T.);
#1096=EDGE_LOOP('',(#1087,#1093,#1094,#1095));
#1097=FACE_BOUND('',#1096,.T.);
#1098=ADVANCED_FACE('',(#1097),#1086,.F.);
#1099=CARTESIAN_POINT('',(-52.497590558,116.920847934,151.644314856));
#1100=DIRECTION('',(-0.000023624,0.866025404,0.499999999));
#1101=DIRECTION('',(0.,-0.5,0.866025404));
#1102=AXIS2_PLACEMENT_3D('',#1099,#1100,#1101);
#1103=PLANE('',#1102);
#1104=ORIENTED_EDGE('',*,*,#969,.T.);
#1105=CARTESIAN_POINT('',(-52.497523614,117.738867987,150.227462563));
#1106=DIRECTION('',(-0.999999999,-0.,-0.000047249));
#1107=VECTOR('',#1106,2.5);
#1108=LINE('',#1105,#1107);
#1109=EDGE_CURVE('',#1012,#956,#1108,.T.);
#1110=ORIENTED_EDGE('',*,*,#1109,.F.);
#1111=ORIENTED_EDGE('',*,*,#1017,.F.);
#1112=ORIENTED_EDGE('',*,*,#1092,.T.);
#1113=EDGE_LOOP('',(#1104,#1110,#1111,#1112));
#1114=FACE_BOUND('',#1113,.T.);
#1115=ADVANCED_FACE('',(#1114),#1103,.F.);
#1116=CARTESIAN_POINT('',(-52.497456669,116.920847934,148.81061027));
#1117=DIRECTION('',(0.000023624,0.866025404,-0.499999999));
#1118=DIRECTION('',(-0.,0.5,0.866025404));
#1119=AXIS2_PLACEMENT_3D('',#1116,#1117,#1118);
#1120=PLANE('',#1119);
#1121=ORIENTED_EDGE('',*,*,#961,.T.);
#1122=CARTESIAN_POINT('',(-52.497389725,116.10282788,147.393757976));
#1123=DIRECTION('',(-0.999999999,-0.,-0.000047249));
#1124=VECTOR('',#1123,2.5);
#1125=LINE('',#1122,#1124);
#1126=EDGE_CURVE('',#1020,#948,#1125,.T.);
#1127=ORIENTED_EDGE('',*,*,#1126,.F.);
#1128=ORIENTED_EDGE('',*,*,#1025,.F.);
#1129=ORIENTED_EDGE('',*,*,#1109,.T.);
#1130=EDGE_LOOP('',(#1121,#1127,#1128,#1129));
#1131=FACE_BOUND('',#1130,.T.);
#1132=ADVANCED_FACE('',(#1131),#1120,.F.);
#1133=CARTESIAN_POINT('',(-52.497389725,114.466787772,147.393757976));
#1134=DIRECTION('',(0.000047249,0.,-0.999999999));
#1135=DIRECTION('',(-0.999999999,0.,-0.000047249));
#1136=AXIS2_PLACEMENT_3D('',#1133,#1134,#1135);
#1137=PLANE('',#1136);
#1138=ORIENTED_EDGE('',*,*,#953,.T.);
#1139=ORIENTED_EDGE('',*,*,#1060,.F.);
#1140=ORIENTED_EDGE('',*,*,#1031,.F.);
#1141=ORIENTED_EDGE('',*,*,#1126,.T.);
#1142=EDGE_LOOP('',(#1138,#1139,#1140,#1141));
#1143=FACE_BOUND('',#1142,.T.);
#1144=ADVANCED_FACE('',(#1143),#1137,.F.);
#1145=CARTESIAN_POINT('',(-52.497523614,77.466787772,150.227462563));
#1146=DIRECTION('',(-0.999999999,0.,-0.000047249));
#1147=DIRECTION('',(-0.000047249,0.,0.999999999));
#1148=AXIS2_PLACEMENT_3D('',#1145,#1146,#1147);
#1149=CYLINDRICAL_SURFACE('',#1148,1.600000002);
#1150=CARTESIAN_POINT('',(-52.497599211,77.466787772,151.827462563));
#1151=VERTEX_POINT('',#1150);
#1152=CARTESIAN_POINT('',(-52.497599211,77.466787772,151.827462563));
#1153=DIRECTION('',(0.999999999,-0.,0.000047249));
#1154=VECTOR('',#1153,6.5);
#1155=LINE('',#1152,#1154);
#1156=EDGE_CURVE('',#1151,#144,#1155,.T.);
#1157=ORIENTED_EDGE('',*,*,#1156,.F.);
#1158=CARTESIAN_POINT('',(-52.497523614,77.466787772,150.227462563));
#1159=DIRECTION('',(0.999999999,0.,0.000047249));
#1160=DIRECTION('',(-0.000047249,0.,0.999999999));
#1161=AXIS2_PLACEMENT_3D('',#1158,#1159,#1160);
#1162=CIRCLE('',#1161,1.600000002);
#1163=EDGE_CURVE('',#1151,#1151,#1162,.T.);
#1164=ORIENTED_EDGE('',*,*,#1163,.F.);
#1165=ORIENTED_EDGE('',*,*,#1156,.T.);
#1166=ORIENTED_EDGE('',*,*,#152,.T.);
#1167=ORIENTED_EDGE('',*,*,#168,.F.);
#1168=ORIENTED_EDGE('',*,*,#161,.T.);
#1169=EDGE_LOOP('',(#1157,#1164,#1165,#1166,#1167,#1168));
#1170=FACE_BOUND('',#1169,.T.);
#1171=ADVANCED_FACE('',(#1170),#1149,.F.);
#1172=CARTESIAN_POINT('',(-52.490418507,-0.000741336,-0.149721366));
#1173=DIRECTION('',(-0.999999999,0.,-0.000047249));
#1174=DIRECTION('',(0.,-1.,0.));
#1175=AXIS2_PLACEMENT_3D('',#1172,#1173,#1174);
#1176=PLANE('',#1175);
#1177=CARTESIAN_POINT('',(-52.497389725,75.830747664,147.393757976));
#1178=VERTEX_POINT('',#1177);
#1179=CARTESIAN_POINT('',(-52.497523614,74.194707557,150.227462563));
#1180=VERTEX_POINT('',#1179);
#1181=CARTESIAN_POINT('',(-52.497389725,75.830747664,147.393757976));
#1182=DIRECTION('',(-0.000040918,-0.5,0.866025403));
#1183=VECTOR('',#1182,3.272080215);
#1184=LINE('',#1181,#1183);
#1185=EDGE_CURVE('',#1178,#1180,#1184,.T.);
#1186=ORIENTED_EDGE('',*,*,#1185,.T.);
#1187=CARTESIAN_POINT('',(-52.497657502,75.830747664,153.06116715));
#1188=VERTEX_POINT('',#1187);
#1189=CARTESIAN_POINT('',(-52.497523614,74.194707557,150.227462563));
#1190=DIRECTION('',(-0.000040918,0.5,0.866025403));
#1191=VECTOR('',#1190,3.272080215);
#1192=LINE('',#1189,#1191);
#1193=EDGE_CURVE('',#1180,#1188,#1192,.T.);
#1194=ORIENTED_EDGE('',*,*,#1193,.T.);
#1195=CARTESIAN_POINT('',(-52.497657502,79.10282788,153.06116715));
#1196=VERTEX_POINT('',#1195);
#1197=CARTESIAN_POINT('',(-52.497657502,75.830747664,153.06116715));
#1198=DIRECTION('',(-0.,1.,0.));
#1199=VECTOR('',#1198,3.272080215);
#1200=LINE('',#1197,#1199);
#1201=EDGE_CURVE('',#1188,#1196,#1200,.T.);
#1202=ORIENTED_EDGE('',*,*,#1201,.T.);
#1203=CARTESIAN_POINT('',(-52.497523614,80.738867987,150.227462563));
#1204=VERTEX_POINT('',#1203);
#1205=CARTESIAN_POINT('',(-52.497657502,79.10282788,153.06116715));
#1206=DIRECTION('',(0.000040918,0.5,-0.866025403));
#1207=VECTOR('',#1206,3.272080215);
#1208=LINE('',#1205,#1207);
#1209=EDGE_CURVE('',#1196,#1204,#1208,.T.);
#1210=ORIENTED_EDGE('',*,*,#1209,.T.);
#1211=CARTESIAN_POINT('',(-52.497389725,79.10282788,147.393757976));
#1212=VERTEX_POINT('',#1211);
#1213=CARTESIAN_POINT('',(-52.497523614,80.738867987,150.227462563));
#1214=DIRECTION('',(0.000040918,-0.5,-0.866025403));
#1215=VECTOR('',#1214,3.272080215);
#1216=LINE('',#1213,#1215);
#1217=EDGE_CURVE('',#1204,#1212,#1216,.T.);
#1218=ORIENTED_EDGE('',*,*,#1217,.T.);
#1219=CARTESIAN_POINT('',(-52.497389725,79.10282788,147.393757976));
#1220=DIRECTION('',(0.,-1.,-0.));
#1221=VECTOR('',#1220,3.272080215);
#1222=LINE('',#1219,#1221);
#1223=EDGE_CURVE('',#1212,#1178,#1222,.T.);
#1224=ORIENTED_EDGE('',*,*,#1223,.T.);
#1225=EDGE_LOOP('',(#1186,#1194,#1202,#1210,#1218,#1224));
#1226=FACE_BOUND('',#1225,.T.);
#1227=ORIENTED_EDGE('',*,*,#1163,.T.);
#1228=EDGE_LOOP('',(#1227));
#1229=FACE_BOUND('',#1228,.T.);
#1230=ADVANCED_FACE('',(#1226,#1229),#1176,.T.);
#1231=CARTESIAN_POINT('',(-52.497456669,75.01272761,148.81061027));
#1232=DIRECTION('',(0.000023624,-0.866025404,-0.499999999));
#1233=DIRECTION('',(-0.,0.5,-0.866025404));
#1234=AXIS2_PLACEMENT_3D('',#1231,#1232,#1233);
#1235=PLANE('',#1234);
#1236=ORIENTED_EDGE('',*,*,#895,.T.);
#1237=CARTESIAN_POINT('',(-52.497523614,74.194707557,150.227462563));
#1238=DIRECTION('',(-0.999999999,-0.,-0.000047249));
#1239=VECTOR('',#1238,2.5);
#1240=LINE('',#1237,#1239);
#1241=EDGE_CURVE('',#1180,#880,#1240,.T.);
#1242=ORIENTED_EDGE('',*,*,#1241,.F.);
#1243=ORIENTED_EDGE('',*,*,#1185,.F.);
#1244=CARTESIAN_POINT('',(-52.497389725,75.830747664,147.393757976));
#1245=DIRECTION('',(-0.999999999,-0.,-0.000047249));
#1246=VECTOR('',#1245,2.5);
#1247=LINE('',#1244,#1246);
#1248=EDGE_CURVE('',#1178,#890,#1247,.T.);
#1249=ORIENTED_EDGE('',*,*,#1248,.T.);
#1250=EDGE_LOOP('',(#1236,#1242,#1243,#1249));
#1251=FACE_BOUND('',#1250,.T.);
#1252=ADVANCED_FACE('',(#1251),#1235,.F.);
#1253=CARTESIAN_POINT('',(-52.497590558,75.01272761,151.644314856));
#1254=DIRECTION('',(-0.000023624,-0.866025404,0.499999999));
#1255=DIRECTION('',(0.,-0.5,-0.866025404));
#1256=AXIS2_PLACEMENT_3D('',#1253,#1254,#1255);
#1257=PLANE('',#1256);
#1258=ORIENTED_EDGE('',*,*,#887,.T.);
#1259=CARTESIAN_POINT('',(-52.497657502,75.830747664,153.06116715));
#1260=DIRECTION('',(-0.999999999,-0.,-0.000047249));
#1261=VECTOR('',#1260,2.5);
#1262=LINE('',#1259,#1261);
#1263=EDGE_CURVE('',#1188,#882,#1262,.T.);
#1264=ORIENTED_EDGE('',*,*,#1263,.F.);
#1265=ORIENTED_EDGE('',*,*,#1193,.F.);
#1266=ORIENTED_EDGE('',*,*,#1241,.T.);
#1267=EDGE_LOOP('',(#1258,#1264,#1265,#1266));
#1268=FACE_BOUND('',#1267,.T.);
#1269=ADVANCED_FACE('',(#1268),#1257,.F.);
#1270=CARTESIAN_POINT('',(-52.497657502,77.466787772,153.06116715));
#1271=DIRECTION('',(-0.000047249,-0.,0.999999999));
#1272=DIRECTION('',(0.999999999,0.,0.000047249));
#1273=AXIS2_PLACEMENT_3D('',#1270,#1271,#1272);
#1274=PLANE('',#1273);
#1275=ORIENTED_EDGE('',*,*,#925,.T.);
#1276=CARTESIAN_POINT('',(-52.497657502,79.10282788,153.06116715));
#1277=DIRECTION('',(-0.999999999,0.,-0.000047249));
#1278=VECTOR('',#1277,2.5);
#1279=LINE('',#1276,#1278);
#1280=EDGE_CURVE('',#1196,#914,#1279,.T.);
#1281=ORIENTED_EDGE('',*,*,#1280,.F.);
#1282=ORIENTED_EDGE('',*,*,#1201,.F.);
#1283=ORIENTED_EDGE('',*,*,#1263,.T.);
#1284=EDGE_LOOP('',(#1275,#1281,#1282,#1283));
#1285=FACE_BOUND('',#1284,.T.);
#1286=ADVANCED_FACE('',(#1285),#1274,.F.);
#1287=CARTESIAN_POINT('',(-52.497590558,79.920847933,151.644314856));
#1288=DIRECTION('',(-0.000023624,0.866025404,0.499999999));
#1289=DIRECTION('',(0.,-0.5,0.866025404));
#1290=AXIS2_PLACEMENT_3D('',#1287,#1288,#1289);
#1291=PLANE('',#1290);
#1292=ORIENTED_EDGE('',*,*,#919,.T.);
#1293=CARTESIAN_POINT('',(-52.497523614,80.738867987,150.227462563));
#1294=DIRECTION('',(-0.999999999,-0.,-0.000047249));
#1295=VECTOR('',#1294,2.5);
#1296=LINE('',#1293,#1295);
#1297=EDGE_CURVE('',#1204,#906,#1296,.T.);
#1298=ORIENTED_EDGE('',*,*,#1297,.F.);
#1299=ORIENTED_EDGE('',*,*,#1209,.F.);
#1300=ORIENTED_EDGE('',*,*,#1280,.T.);
#1301=EDGE_LOOP('',(#1292,#1298,#1299,#1300));
#1302=FACE_BOUND('',#1301,.T.);
#1303=ADVANCED_FACE('',(#1302),#1291,.F.);
#1304=CARTESIAN_POINT('',(-52.497456669,79.920847933,148.81061027));
#1305=DIRECTION('',(0.000023624,0.866025404,-0.499999999));
#1306=DIRECTION('',(-0.,0.5,0.866025404));
#1307=AXIS2_PLACEMENT_3D('',#1304,#1305,#1306);
#1308=PLANE('',#1307);
#1309=ORIENTED_EDGE('',*,*,#911,.T.);
#1310=CARTESIAN_POINT('',(-52.497389725,79.10282788,147.393757976));
#1311=DIRECTION('',(-0.999999999,-0.,-0.000047249));
#1312=VECTOR('',#1311,2.5);
#1313=LINE('',#1310,#1312);
#1314=EDGE_CURVE('',#1212,#898,#1313,.T.);
#1315=ORIENTED_EDGE('',*,*,#1314,.F.);
#1316=ORIENTED_EDGE('',*,*,#1217,.F.);
#1317=ORIENTED_EDGE('',*,*,#1297,.T.);
#1318=EDGE_LOOP('',(#1309,#1315,#1316,#1317));
#1319=FACE_BOUND('',#1318,.T.);
#1320=ADVANCED_FACE('',(#1319),#1308,.F.);
#1321=CARTESIAN_POINT('',(-52.497389725,77.466787772,147.393757976));
#1322=DIRECTION('',(0.000047249,0.,-0.999999999));
#1323=DIRECTION('',(-0.999999999,0.,-0.000047249));
#1324=AXIS2_PLACEMENT_3D('',#1321,#1322,#1323);
#1325=PLANE('',#1324);
#1326=ORIENTED_EDGE('',*,*,#903,.T.);
#1327=ORIENTED_EDGE('',*,*,#1248,.F.);
#1328=ORIENTED_EDGE('',*,*,#1223,.F.);
#1329=ORIENTED_EDGE('',*,*,#1314,.T.);
#1330=EDGE_LOOP('',(#1326,#1327,#1328,#1329));
#1331=FACE_BOUND('',#1330,.T.);
#1332=ADVANCED_FACE('',(#1331),#1325,.F.);
#1333=CARTESIAN_POINT('',(-37.996885754,95.997778833,136.727722438));
#1334=DIRECTION('',(-0.,1.,-0.));
#1335=DIRECTION('',(-1.,-0.,0.));
#1336=AXIS2_PLACEMENT_3D('',#1333,#1334,#1335);
#1337=CYLINDRICAL_SURFACE('',#1336,8.);
#1338=ORIENTED_EDGE('',*,*,#818,.F.);
#1339=ORIENTED_EDGE('',*,*,#315,.F.);
#1340=ORIENTED_EDGE('',*,*,#540,.F.);
#1341=ORIENTED_EDGE('',*,*,#231,.F.);
#1342=EDGE_LOOP('',(#1338,#1339,#1340,#1341));
#1343=FACE_BOUND('',#1342,.T.);
#1344=ADVANCED_FACE('',(#1343),#1337,.F.);
#1345=CARTESIAN_POINT('',(-48.50713104,79.797037497,150.92722586));
#1346=DIRECTION('',(-0.999999999,0.,-0.000047249));
#1347=DIRECTION('',(-0.000047249,0.,0.999999999));
#1348=AXIS2_PLACEMENT_3D('',#1345,#1346,#1347);
#1349=CYLINDRICAL_SURFACE('',#1348,7.8);
#1350=CARTESIAN_POINT('',(-45.997563796,71.998493653,151.078055766));
#1351=DIRECTION('',(-0.999999999,0.,-0.000047249));
#1352=VECTOR('',#1351,9.);
#1353=LINE('',#1350,#1352);
#1354=EDGE_CURVE('',#178,#842,#1353,.T.);
#1355=ORIENTED_EDGE('',*,*,#1354,.F.);
#1356=ORIENTED_EDGE('',*,*,#184,.F.);
#1357=ORIENTED_EDGE('',*,*,#573,.F.);
#1358=ORIENTED_EDGE('',*,*,#848,.F.);
#1359=EDGE_LOOP('',(#1355,#1356,#1357,#1358));
#1360=FACE_BOUND('',#1359,.T.);
#1361=ADVANCED_FACE('',(#1360),#1349,.T.);
#1362=CARTESIAN_POINT('',(-50.497570912,79.797037497,151.228554481));
#1363=DIRECTION('',(-0.999999999,0.,-0.000047249));
#1364=DIRECTION('',(-0.000047249,0.,0.999999999));
#1365=AXIS2_PLACEMENT_3D('',#1362,#1363,#1364);
#1366=CYLINDRICAL_SURFACE('',#1365,7.8);
#1367=ORIENTED_EDGE('',*,*,#193,.F.);
#1368=ORIENTED_EDGE('',*,*,#1354,.T.);
#1369=ORIENTED_EDGE('',*,*,#875,.F.);
#1370=ORIENTED_EDGE('',*,*,#720,.F.);
#1371=EDGE_LOOP('',(#1367,#1368,#1369,#1370));
#1372=FACE_BOUND('',#1371,.T.);
#1373=ADVANCED_FACE('',(#1372),#1366,.T.);
#1374=CARTESIAN_POINT('',(-50.497145279,112.197037497,151.228554501));
#1375=DIRECTION('',(0.999999999,0.,0.000047249));
#1376=DIRECTION('',(0.000047249,0.,-0.999999999));
#1377=AXIS2_PLACEMENT_3D('',#1374,#1375,#1376);
#1378=CYLINDRICAL_SURFACE('',#1377,7.8);
#1379=ORIENTED_EDGE('',*,*,#499,.F.);
#1380=ORIENTED_EDGE('',*,*,#865,.F.);
#1381=CARTESIAN_POINT('',(-45.997563796,119.995581341,151.078055766));
#1382=DIRECTION('',(-0.999999999,-0.,-0.000047249));
#1383=VECTOR('',#1382,9.);
#1384=LINE('',#1381,#1383);
#1385=EDGE_CURVE('',#267,#852,#1384,.T.);
#1386=ORIENTED_EDGE('',*,*,#1385,.F.);
#1387=ORIENTED_EDGE('',*,*,#273,.F.);
#1388=EDGE_LOOP('',(#1379,#1380,#1386,#1387));
#1389=FACE_BOUND('',#1388,.T.);
#1390=ADVANCED_FACE('',(#1389),#1378,.T.);
#1391=CARTESIAN_POINT('',(-48.497556562,112.197037497,150.927226312));
#1392=DIRECTION('',(0.999999999,0.,0.000047249));
#1393=DIRECTION('',(0.000047249,-0.,-0.999999999));
#1394=AXIS2_PLACEMENT_3D('',#1391,#1392,#1393);
#1395=CYLINDRICAL_SURFACE('',#1394,7.8);
#1396=ORIENTED_EDGE('',*,*,#858,.F.);
#1397=ORIENTED_EDGE('',*,*,#580,.F.);
#1398=ORIENTED_EDGE('',*,*,#282,.F.);
#1399=ORIENTED_EDGE('',*,*,#1385,.T.);
#1400=EDGE_LOOP('',(#1396,#1397,#1398,#1399));
#1401=FACE_BOUND('',#1400,.T.);
#1402=ADVANCED_FACE('',(#1401),#1395,.T.);
#1403=CLOSED_SHELL('',(#68,#137,#292,#334,#553,#584,#823,#835,#979,#1042,#1064,#1081,#1098,#1115,#1132,#1144,#1171,#1230,#1252,#1269,#1286,#1303,#1320,#1332,#1344,#1361,
#1373,#1390,#1402));
#1404=MANIFOLD_SOLID_BREP('Soport_sensor',#1403);
#1405=COLOUR_RGB('',0.529411793,0.87843138,0.152941182);
#1406=FILL_AREA_STYLE_COLOUR('',#1405);
#1407=FILL_AREA_STYLE('',(#1406));
#1408=SURFACE_STYLE_FILL_AREA(#1407);
#1409=SURFACE_SIDE_STYLE('',(#1408));
#1410=SURFACE_STYLE_USAGE(.BOTH.,#1409);
#1411=PRESENTATION_STYLE_ASSIGNMENT((#1410));
#26=STYLED_ITEM('',(#1411),#1404);
#16=SHAPE_REPRESENTATION('Soport_sensor',(#15),#10);
#17=ADVANCED_BREP_SHAPE_REPRESENTATION('Soport_sensor',(#1404),#10);
#1419=SHAPE_REPRESENTATION_RELATIONSHIP('','',#16,#17);
#1420=CARTESIAN_POINT('',(0.,0.,0.));
#1421=DIRECTION('',(0.,0.,1.));
#1422=DIRECTION('',(1.,0.,0.));
#1423=AXIS2_PLACEMENT_3D('',#1420,#1421,#1422);
#1425=MAPPED_ITEM('',#1424,#1423);
#1424=REPRESENTATION_MAP(#1423,#16);
#1426=APPLICATION_CONTEXT('Managed model based 3d engineering');
#1427=APPLICATION_PROTOCOL_DEFINITION('international standard','ap242_managed_model_based_3d_engineering',2014,#1426);
#1428=PRODUCT_CONTEXT('',#1426,'mechanical');
#1429=PRODUCT_DEFINITION_CONTEXT('part definition',#1426,'design');
#24=PRODUCT('Soport_sensor','Soport_sensor','',(#1428));
#1430=PRODUCT_RELATED_PRODUCT_CATEGORY('part','',(#24));
#1431=PRODUCT_DEFINITION_FORMATION_WITH_SPECIFIED_SOURCE('','',#24,.NOT_KNOWN.);
#25=PRODUCT_DEFINITION('design','',#1431,#1429);
#23=PRODUCT_DEFINITION_SHAPE('','',#25);
#1432=SHAPE_DEFINITION_REPRESENTATION(#23,#16);
#11=DRAUGHTING_MODEL('',(#1425),#10);
#1433=DESCRIPTIVE_REPRESENTATION_ITEM('KEY','/Users/quimgraellsolive/Library/Containers/com.shapr3d.shapr/Data/tmp/460371D5-DE82-4FE7-A3C0-1819DB03DB61.tmp');
#1434=PROPERTY_DEFINITION('KEY','',#25);
#1435=REPRESENTATION('',(#1433),#10);
#1436=PROPERTY_DEFINITION_REPRESENTATION(#1434,#1435);
#1437=GENERAL_PROPERTY('','KEY','');
#1438=GENERAL_PROPERTY_ASSOCIATION('','',#1437,#1434);
#1=MECHANICAL_DESIGN_GEOMETRIC_PRESENTATION_REPRESENTATION('',(#26),#10);
ENDSEC;
END-ISO-10303-21;
