ISO-10303-21;
HEADER;

/* File generated by Shapr3D Version 5.831.0.8630 */

FILE_DESCRIPTION(('HOOPS Exchange Step'),'2;1');

FILE_NAME('/Users/quimgraellsolive/Library/Containers/com.shapr3d.shapr/Data/tmp/export/temp_export',
'2025-04-22T23:22:57+02:00',
('quimgraellsolive'),
('Shapr3D Limited'),
'HOOPS Exchange 2024.8',
'Shapr3D',
'Authorized');

FILE_SCHEMA( ('AP242_MANAGED_MODEL_BASED_3D_ENGINEERING_MIM_LF {1 0 10303 442 1 1 4}') );

ENDSEC;

DATA;
#3=(NAMED_UNIT(*)PLANE_ANGLE_UNIT()SI_UNIT($,.RADIAN.));
#4=PLANE_ANGLE_MEASURE_WITH_UNIT(PLANE_ANGLE_MEASURE(0.0174532925),#3);
#5=(CONVERSION_BASED_UNIT('DEGREE',#4)NAMED_UNIT(#6)PLANE_ANGLE_UNIT());
#6=DIMENSIONAL_EXPONENTS(0.,0.,0.,0.,0.,0.,0.);
#7=(NAMED_UNIT(*)SI_UNIT($,.STERADIAN.)SOLID_ANGLE_UNIT());
#8=(LENGTH_UNIT()NAMED_UNIT(*)SI_UNIT(.MILLI.,.METRE.));
#9=UNCERTAINTY_MEASURE_WITH_UNIT(LENGTH_MEASURE(1.000000E-05),#8,'DISTANCE_ACCURACY_VALUE','Maximum Tolerance applied to model');
#10=(GEOMETRIC_REPRESENTATION_CONTEXT(3)GLOBAL_UNCERTAINTY_ASSIGNED_CONTEXT((#9))GLOBAL_UNIT_ASSIGNED_CONTEXT((#8,#5,#7))REPRESENTATION_CONTEXT('','Varilla_LL'));
#12=CARTESIAN_POINT('',(0.,0.,0.));
#13=DIRECTION('',(0.,0.,1.));
#14=DIRECTION('',(1.,0.,0.));
#15=AXIS2_PLACEMENT_3D('TS3D_PRODUCT_CSYS',#12,#13,#14);
#27=CARTESIAN_POINT('',(292.504109789,96.132968307,24.017693924));
#28=DIRECTION('',(0.,0.,1.));
#29=DIRECTION('',(1.,0.,0.));
#30=AXIS2_PLACEMENT_3D('',#27,#28,#29);
#31=PLANE('',#30);
#32=CARTESIAN_POINT('',(295.504109789,96.132968307,24.017693924));
#33=VERTEX_POINT('',#32);
#34=CARTESIAN_POINT('',(292.504109789,93.132968307,24.017693924));
#35=VERTEX_POINT('',#34);
#36=CARTESIAN_POINT('',(292.504109789,96.132968307,24.017693924));
#37=DIRECTION('',(0.,0.,1.));
#38=DIRECTION('',(0.,-1.,0.));
#39=AXIS2_PLACEMENT_3D('',#36,#37,#38);
#40=CIRCLE('',#39,3.);
#41=EDGE_CURVE('',#33,#35,#40,.T.);
#42=ORIENTED_EDGE('',*,*,#41,.F.);
#43=CARTESIAN_POINT('',(292.504109789,96.132968307,24.017693924));
#44=DIRECTION('',(0.,0.,1.));
#45=DIRECTION('',(0.,-1.,0.));
#46=AXIS2_PLACEMENT_3D('',#43,#44,#45);
#47=CIRCLE('',#46,3.);
#48=EDGE_CURVE('',#35,#33,#47,.T.);
#49=ORIENTED_EDGE('',*,*,#48,.F.);
#50=EDGE_LOOP('',(#42,#49));
#51=FACE_BOUND('',#50,.T.);
#52=ADVANCED_FACE('',(#51),#31,.F.);
#53=CARTESIAN_POINT('',(292.504109789,96.132968307,24.017693924));
#54=DIRECTION('',(-0.,0.,1.));
#55=DIRECTION('',(1.,0.,0.));
#56=AXIS2_PLACEMENT_3D('',#53,#54,#55);
#57=CYLINDRICAL_SURFACE('',#56,3.);
#58=CARTESIAN_POINT('',(295.504109789,96.132968307,103.477693924));
#59=VERTEX_POINT('',#58);
#60=CARTESIAN_POINT('',(295.504109789,96.132968307,103.477693924));
#61=DIRECTION('',(-0.,-0.,-1.));
#62=VECTOR('',#61,79.46);
#63=LINE('',#60,#62);
#64=EDGE_CURVE('',#59,#33,#63,.T.);
#65=ORIENTED_EDGE('',*,*,#64,.T.);
#66=ORIENTED_EDGE('',*,*,#41,.T.);
#67=ORIENTED_EDGE('',*,*,#48,.T.);
#68=ORIENTED_EDGE('',*,*,#64,.F.);
#69=CARTESIAN_POINT('',(292.504109789,93.132968307,103.477693924));
#70=VERTEX_POINT('',#69);
#71=CARTESIAN_POINT('',(292.504109789,96.132968307,103.477693924));
#72=DIRECTION('',(0.,0.,1.));
#73=DIRECTION('',(0.,-1.,0.));
#74=AXIS2_PLACEMENT_3D('',#71,#72,#73);
#75=CIRCLE('',#74,3.);
#76=EDGE_CURVE('',#70,#59,#75,.T.);
#77=ORIENTED_EDGE('',*,*,#76,.F.);
#78=CARTESIAN_POINT('',(292.504109789,96.132968307,103.477693924));
#79=DIRECTION('',(0.,0.,1.));
#80=DIRECTION('',(0.,-1.,0.));
#81=AXIS2_PLACEMENT_3D('',#78,#79,#80);
#82=CIRCLE('',#81,3.);
#83=EDGE_CURVE('',#59,#70,#82,.T.);
#84=ORIENTED_EDGE('',*,*,#83,.F.);
#85=EDGE_LOOP('',(#65,#66,#67,#68,#77,#84));
#86=FACE_BOUND('',#85,.T.);
#87=ADVANCED_FACE('',(#86),#57,.T.);
#88=COLOUR_RGB('',0.619607866,0.619607866,0.639215708);
#89=FILL_AREA_STYLE_COLOUR('',#88);
#90=FILL_AREA_STYLE('',(#89));
#91=SURFACE_STYLE_FILL_AREA(#90);
#92=SURFACE_SIDE_STYLE('',(#91));
#93=SURFACE_STYLE_USAGE(.BOTH.,#92);
#94=PRESENTATION_STYLE_ASSIGNMENT((#93));
#95=OVER_RIDING_STYLED_ITEM('',(#94),#87,#26);
#96=CARTESIAN_POINT('',(292.504109789,96.132968307,103.477693924));
#97=DIRECTION('',(0.,0.,1.));
#98=DIRECTION('',(1.,0.,0.));
#99=AXIS2_PLACEMENT_3D('',#96,#97,#98);
#100=PLANE('',#99);
#101=ORIENTED_EDGE('',*,*,#76,.T.);
#102=ORIENTED_EDGE('',*,*,#83,.T.);
#103=EDGE_LOOP('',(#101,#102));
#104=FACE_BOUND('',#103,.T.);
#105=ADVANCED_FACE('',(#104),#100,.T.);
#106=CLOSED_SHELL('',(#52,#87,#105));
#107=MANIFOLD_SOLID_BREP('Varilla_LL',#106);
#108=COLOUR_RGB('',0.627451003,0.627451003,0.643137276);
#109=FILL_AREA_STYLE_COLOUR('',#108);
#110=FILL_AREA_STYLE('',(#109));
#111=SURFACE_STYLE_FILL_AREA(#110);
#112=SURFACE_SIDE_STYLE('',(#111));
#113=SURFACE_STYLE_USAGE(.BOTH.,#112);
#114=PRESENTATION_STYLE_ASSIGNMENT((#113));
#26=STYLED_ITEM('',(#114),#107);
#16=SHAPE_REPRESENTATION('Varilla_LL',(#15),#10);
#17=ADVANCED_BREP_SHAPE_REPRESENTATION('Varilla_LL',(#107),#10);
#122=SHAPE_REPRESENTATION_RELATIONSHIP('','',#16,#17);
#123=CARTESIAN_POINT('',(0.,0.,0.));
#124=DIRECTION('',(0.,0.,1.));
#125=DIRECTION('',(1.,0.,0.));
#126=AXIS2_PLACEMENT_3D('',#123,#124,#125);
#128=MAPPED_ITEM('',#127,#126);
#127=REPRESENTATION_MAP(#126,#16);
#129=APPLICATION_CONTEXT('Managed model based 3d engineering');
#130=APPLICATION_PROTOCOL_DEFINITION('international standard','ap242_managed_model_based_3d_engineering',2014,#129);
#131=PRODUCT_CONTEXT('',#129,'mechanical');
#132=PRODUCT_DEFINITION_CONTEXT('part definition',#129,'design');
#24=PRODUCT('Varilla_LL','Varilla_LL','',(#131));
#133=PRODUCT_RELATED_PRODUCT_CATEGORY('part','',(#24));
#134=PRODUCT_DEFINITION_FORMATION_WITH_SPECIFIED_SOURCE('','',#24,.NOT_KNOWN.);
#25=PRODUCT_DEFINITION('design','',#134,#132);
#23=PRODUCT_DEFINITION_SHAPE('','',#25);
#135=SHAPE_DEFINITION_REPRESENTATION(#23,#16);
#11=DRAUGHTING_MODEL('',(#128),#10);
#136=DESCRIPTIVE_REPRESENTATION_ITEM('KEY','/Users/quimgraellsolive/Library/Containers/com.shapr3d.shapr/Data/tmp/F8BBBBD3-3E3C-4F55-B2A7-63AE4097331E.tmp');
#137=PROPERTY_DEFINITION('KEY','',#25);
#138=REPRESENTATION('',(#136),#10);
#139=PROPERTY_DEFINITION_REPRESENTATION(#137,#138);
#140=GENERAL_PROPERTY('','KEY','');
#141=GENERAL_PROPERTY_ASSOCIATION('','',#140,#137);
#1=MECHANICAL_DESIGN_GEOMETRIC_PRESENTATION_REPRESENTATION('',(#95,#26),#10);
ENDSEC;
END-ISO-10303-21;
