ISO-10303-21;
HEADER;

/* File generated by Shapr3D Version 5.831.0.8630 */

FILE_DESCRIPTION(('HOOPS Exchange Step'),'2;1');

FILE_NAME('/Users/quimgraellsolive/Library/Containers/com.shapr3d.shapr/Data/tmp/export/temp_export',
'2025-04-22T23:22:57+02:00',
('quimgraellsolive'),
('Shapr3D Limited'),
'HOOPS Exchange 2024.8',
'Shapr3D',
'Authorized');

FILE_SCHEMA( ('AP242_MANAGED_MODEL_BASED_3D_ENGINEERING_MIM_LF {1 0 10303 442 1 1 4}') );

ENDSEC;

DATA;
#3=(NAMED_UNIT(*)PLANE_ANGLE_UNIT()SI_UNIT($,.RADIAN.));
#4=PLANE_ANGLE_MEASURE_WITH_UNIT(PLANE_ANGLE_MEASURE(0.0174532925),#3);
#5=(CONVERSION_BASED_UNIT('DEGREE',#4)NAMED_UNIT(#6)PLANE_ANGLE_UNIT());
#6=DIMENSIONAL_EXPONENTS(0.,0.,0.,0.,0.,0.,0.);
#7=(NAMED_UNIT(*)SI_UNIT($,.STERADIAN.)SOLID_ANGLE_UNIT());
#8=(LENGTH_UNIT()NAMED_UNIT(*)SI_UNIT(.MILLI.,.METRE.));
#9=UNCERTAINTY_MEASURE_WITH_UNIT(LENGTH_MEASURE(1.000000E-05),#8,'DISTANCE_ACCURACY_VALUE','Maximum Tolerance applied to model');
#10=(GEOMETRIC_REPRESENTATION_CONTEXT(3)GLOBAL_UNCERTAINTY_ASSIGNED_CONTEXT((#9))GLOBAL_UNIT_ASSIGNED_CONTEXT((#8,#5,#7))REPRESENTATION_CONTEXT('','X1 (1)'));
#12=CARTESIAN_POINT('',(0.,0.,0.));
#13=DIRECTION('',(0.,0.,1.));
#14=DIRECTION('',(1.,0.,0.));
#15=AXIS2_PLACEMENT_3D('TS3D_PRODUCT_CSYS',#12,#13,#14);
#27=CARTESIAN_POINT('',(158.15,46.5,0.017693924));
#28=DIRECTION('',(0.,0.,1.));
#29=DIRECTION('',(1.,0.,-0.));
#30=AXIS2_PLACEMENT_3D('',#27,#28,#29);
#31=CYLINDRICAL_SURFACE('',#30,4.68842589);
#32=CARTESIAN_POINT('',(154.703289671,49.678289671,5.017693924));
#33=VERTEX_POINT('',#32);
#34=CARTESIAN_POINT('',(161.32828967,49.94671033,5.017693924));
#35=VERTEX_POINT('',#34);
#36=CARTESIAN_POINT('',(158.15,46.5,5.017693924));
#37=DIRECTION('',(0.,0.,-1.));
#38=DIRECTION('',(-1.,0.,0.));
#39=AXIS2_PLACEMENT_3D('',#36,#37,#38);
#40=CIRCLE('',#39,4.68842589);
#41=EDGE_CURVE('',#33,#35,#40,.T.);
#42=ORIENTED_EDGE('',*,*,#41,.F.);
#43=CARTESIAN_POINT('',(154.703289671,49.678289671,0.017693924));
#44=VERTEX_POINT('',#43);
#45=CARTESIAN_POINT('',(154.703289671,49.678289671,0.017693924));
#46=DIRECTION('',(0.,0.,1.));
#47=VECTOR('',#46,5.);
#48=LINE('',#45,#47);
#49=EDGE_CURVE('',#44,#33,#48,.T.);
#50=ORIENTED_EDGE('',*,*,#49,.F.);
#51=CARTESIAN_POINT('',(161.32828967,49.94671033,0.017693924));
#52=VERTEX_POINT('',#51);
#53=CARTESIAN_POINT('',(158.15,46.5,0.017693924));
#54=DIRECTION('',(0.,0.,-1.));
#55=DIRECTION('',(-1.,0.,0.));
#56=AXIS2_PLACEMENT_3D('',#53,#54,#55);
#57=CIRCLE('',#56,4.68842589);
#58=EDGE_CURVE('',#44,#52,#57,.T.);
#59=ORIENTED_EDGE('',*,*,#58,.T.);
#60=CARTESIAN_POINT('',(161.32828967,49.94671033,0.017693924));
#61=DIRECTION('',(0.,0.,1.));
#62=VECTOR('',#61,5.);
#63=LINE('',#60,#62);
#64=EDGE_CURVE('',#52,#35,#63,.T.);
#65=ORIENTED_EDGE('',*,*,#64,.T.);
#66=EDGE_LOOP('',(#42,#50,#59,#65));
#67=FACE_BOUND('',#66,.T.);
#68=ADVANCED_FACE('',(#67),#31,.F.);
#69=CARTESIAN_POINT('',(153.145394835,48.120394835,0.017693924));
#70=DIRECTION('',(0.707106781,-0.707106781,0.));
#71=DIRECTION('',(0.707106781,0.707106781,0.));
#72=AXIS2_PLACEMENT_3D('',#69,#70,#71);
#73=PLANE('',#72);
#74=CARTESIAN_POINT('',(142.8375,37.8125,5.017693924));
#75=VERTEX_POINT('',#74);
#76=CARTESIAN_POINT('',(142.8375,37.8125,5.017693924));
#77=DIRECTION('',(0.707106781,0.707106781,0.));
#78=VECTOR('',#77,16.780760681);
#79=LINE('',#76,#78);
#80=EDGE_CURVE('',#75,#33,#79,.T.);
#81=ORIENTED_EDGE('',*,*,#80,.F.);
#82=CARTESIAN_POINT('',(142.8375,37.8125,0.017693924));
#83=VERTEX_POINT('',#82);
#84=CARTESIAN_POINT('',(142.8375,37.8125,0.017693924));
#85=DIRECTION('',(0.,0.,1.));
#86=VECTOR('',#85,5.);
#87=LINE('',#84,#86);
#88=EDGE_CURVE('',#83,#75,#87,.T.);
#89=ORIENTED_EDGE('',*,*,#88,.F.);
#90=CARTESIAN_POINT('',(142.8375,37.8125,0.017693924));
#91=DIRECTION('',(0.707106781,0.707106781,0.));
#92=VECTOR('',#91,16.780760681);
#93=LINE('',#90,#92);
#94=EDGE_CURVE('',#83,#44,#93,.T.);
#95=ORIENTED_EDGE('',*,*,#94,.T.);
#96=ORIENTED_EDGE('',*,*,#49,.T.);
#97=EDGE_LOOP('',(#81,#89,#95,#96));
#98=FACE_BOUND('',#97,.T.);
#99=ADVANCED_FACE('',(#98),#73,.T.);
#100=CARTESIAN_POINT('',(140.65,40.,0.017693924));
#101=DIRECTION('',(0.,0.,1.));
#102=DIRECTION('',(1.,0.,-0.));
#103=AXIS2_PLACEMENT_3D('',#100,#101,#102);
#104=CYLINDRICAL_SURFACE('',#103,3.093592168);
#105=CARTESIAN_POINT('',(138.4625,42.1875,5.017693924));
#106=VERTEX_POINT('',#105);
#107=CARTESIAN_POINT('',(140.65,40.,5.017693924));
#108=DIRECTION('',(0.,0.,-1.));
#109=DIRECTION('',(-1.,0.,0.));
#110=AXIS2_PLACEMENT_3D('',#107,#108,#109);
#111=CIRCLE('',#110,3.093592168);
#112=EDGE_CURVE('',#75,#106,#111,.T.);
#113=ORIENTED_EDGE('',*,*,#112,.T.);
#114=CARTESIAN_POINT('',(138.4625,42.1875,0.017693924));
#115=VERTEX_POINT('',#114);
#116=CARTESIAN_POINT('',(138.4625,42.1875,0.017693924));
#117=DIRECTION('',(0.,0.,1.));
#118=VECTOR('',#117,5.);
#119=LINE('',#116,#118);
#120=EDGE_CURVE('',#115,#106,#119,.T.);
#121=ORIENTED_EDGE('',*,*,#120,.F.);
#122=CARTESIAN_POINT('',(140.65,40.,0.017693924));
#123=DIRECTION('',(0.,0.,-1.));
#124=DIRECTION('',(-1.,0.,0.));
#125=AXIS2_PLACEMENT_3D('',#122,#123,#124);
#126=CIRCLE('',#125,3.093592168);
#127=EDGE_CURVE('',#83,#115,#126,.T.);
#128=ORIENTED_EDGE('',*,*,#127,.F.);
#129=ORIENTED_EDGE('',*,*,#88,.T.);
#130=EDGE_LOOP('',(#113,#121,#128,#129));
#131=FACE_BOUND('',#130,.T.);
#132=ADVANCED_FACE('',(#131),#104,.T.);
#133=CARTESIAN_POINT('',(142.8375,46.5625,0.017693924));
#134=DIRECTION('',(-0.707106781,0.707106781,0.));
#135=DIRECTION('',(-0.707106781,-0.707106781,0.));
#136=AXIS2_PLACEMENT_3D('',#133,#134,#135);
#137=PLANE('',#136);
#138=CARTESIAN_POINT('',(150.665422541,54.390422541,5.017693924));
#139=VERTEX_POINT('',#138);
#140=CARTESIAN_POINT('',(150.665422541,54.390422541,5.017693924));
#141=DIRECTION('',(-0.707106781,-0.707106781,0.));
#142=VECTOR('',#141,17.257538558);
#143=LINE('',#140,#142);
#144=EDGE_CURVE('',#139,#106,#143,.T.);
#145=ORIENTED_EDGE('',*,*,#144,.F.);
#146=CARTESIAN_POINT('',(150.665422541,54.390422541,0.017693924));
#147=VERTEX_POINT('',#146);
#148=CARTESIAN_POINT('',(150.665422541,54.390422541,0.017693924));
#149=DIRECTION('',(0.,0.,1.));
#150=VECTOR('',#149,5.);
#151=LINE('',#148,#150);
#152=EDGE_CURVE('',#147,#139,#151,.T.);
#153=ORIENTED_EDGE('',*,*,#152,.F.);
#154=CARTESIAN_POINT('',(150.665422541,54.390422541,0.017693924));
#155=DIRECTION('',(-0.707106781,-0.707106781,0.));
#156=VECTOR('',#155,17.257538558);
#157=LINE('',#154,#156);
#158=EDGE_CURVE('',#147,#115,#157,.T.);
#159=ORIENTED_EDGE('',*,*,#158,.T.);
#160=ORIENTED_EDGE('',*,*,#120,.T.);
#161=EDGE_LOOP('',(#145,#153,#159,#160));
#162=FACE_BOUND('',#161,.T.);
#163=ADVANCED_FACE('',(#162),#137,.T.);
#164=CARTESIAN_POINT('',(147.15,57.5,0.017693924));
#165=DIRECTION('',(0.,0.,1.));
#166=DIRECTION('',(1.,0.,-0.));
#167=AXIS2_PLACEMENT_3D('',#164,#165,#166);
#168=CYLINDRICAL_SURFACE('',#167,4.693364211);
#169=CARTESIAN_POINT('',(151.843364211,57.5,5.017693924));
#170=VERTEX_POINT('',#169);
#171=CARTESIAN_POINT('',(151.843364211,57.5,0.017693924));
#172=VERTEX_POINT('',#171);
#173=CARTESIAN_POINT('',(151.843364211,57.5,5.017693924));
#174=DIRECTION('',(-0.,-0.,-1.));
#175=VECTOR('',#174,5.);
#176=LINE('',#173,#175);
#177=EDGE_CURVE('',#170,#172,#176,.T.);
#178=ORIENTED_EDGE('',*,*,#177,.F.);
#179=CARTESIAN_POINT('',(150.665422542,60.609577458,5.017693924));
#180=VERTEX_POINT('',#179);
#181=CARTESIAN_POINT('',(147.15,57.5,5.017693924));
#182=DIRECTION('',(0.,0.,-1.));
#183=DIRECTION('',(-1.,0.,0.));
#184=AXIS2_PLACEMENT_3D('',#181,#182,#183);
#185=CIRCLE('',#184,4.693364211);
#186=EDGE_CURVE('',#180,#170,#185,.T.);
#187=ORIENTED_EDGE('',*,*,#186,.F.);
#188=CARTESIAN_POINT('',(150.665422542,60.609577458,0.017693924));
#189=VERTEX_POINT('',#188);
#190=CARTESIAN_POINT('',(150.665422542,60.609577458,0.017693924));
#191=DIRECTION('',(0.,0.,1.));
#192=VECTOR('',#191,5.);
#193=LINE('',#190,#192);
#194=EDGE_CURVE('',#189,#180,#193,.T.);
#195=ORIENTED_EDGE('',*,*,#194,.F.);
#196=CARTESIAN_POINT('',(147.15,57.5,0.017693924));
#197=DIRECTION('',(0.,0.,-1.));
#198=DIRECTION('',(-1.,0.,0.));
#199=AXIS2_PLACEMENT_3D('',#196,#197,#198);
#200=CIRCLE('',#199,4.693364211);
#201=EDGE_CURVE('',#189,#172,#200,.T.);
#202=ORIENTED_EDGE('',*,*,#201,.T.);
#203=EDGE_LOOP('',(#178,#187,#195,#202));
#204=FACE_BOUND('',#203,.T.);
#205=ADVANCED_FACE('',(#204),#168,.F.);
#206=CARTESIAN_POINT('',(148.938961271,62.336038729,0.017693924));
#207=DIRECTION('',(-0.707106781,-0.707106781,0.));
#208=DIRECTION('',(0.707106781,-0.707106781,0.));
#209=AXIS2_PLACEMENT_3D('',#206,#207,#208);
#210=PLANE('',#209);
#211=CARTESIAN_POINT('',(138.4625,72.8125,5.017693924));
#212=VERTEX_POINT('',#211);
#213=CARTESIAN_POINT('',(138.4625,72.8125,5.017693924));
#214=DIRECTION('',(0.707106781,-0.707106781,0.));
#215=VECTOR('',#214,17.257538559);
#216=LINE('',#213,#215);
#217=EDGE_CURVE('',#212,#180,#216,.T.);
#218=ORIENTED_EDGE('',*,*,#217,.F.);
#219=CARTESIAN_POINT('',(138.4625,72.8125,0.017693924));
#220=VERTEX_POINT('',#219);
#221=CARTESIAN_POINT('',(138.4625,72.8125,0.017693924));
#222=DIRECTION('',(0.,0.,1.));
#223=VECTOR('',#222,5.);
#224=LINE('',#221,#223);
#225=EDGE_CURVE('',#220,#212,#224,.T.);
#226=ORIENTED_EDGE('',*,*,#225,.F.);
#227=CARTESIAN_POINT('',(138.4625,72.8125,0.017693924));
#228=DIRECTION('',(0.707106781,-0.707106781,0.));
#229=VECTOR('',#228,17.257538559);
#230=LINE('',#227,#229);
#231=EDGE_CURVE('',#220,#189,#230,.T.);
#232=ORIENTED_EDGE('',*,*,#231,.T.);
#233=ORIENTED_EDGE('',*,*,#194,.T.);
#234=EDGE_LOOP('',(#218,#226,#232,#233));
#235=FACE_BOUND('',#234,.T.);
#236=ADVANCED_FACE('',(#235),#210,.T.);
#237=CARTESIAN_POINT('',(140.65,75.,0.017693924));
#238=DIRECTION('',(0.,0.,1.));
#239=DIRECTION('',(1.,0.,-0.));
#240=AXIS2_PLACEMENT_3D('',#237,#238,#239);
#241=CYLINDRICAL_SURFACE('',#240,3.093592168);
#242=CARTESIAN_POINT('',(142.8375,77.1875,5.017693924));
#243=VERTEX_POINT('',#242);
#244=CARTESIAN_POINT('',(140.65,75.,5.017693924));
#245=DIRECTION('',(0.,0.,-1.));
#246=DIRECTION('',(-1.,0.,0.));
#247=AXIS2_PLACEMENT_3D('',#244,#245,#246);
#248=CIRCLE('',#247,3.093592168);
#249=EDGE_CURVE('',#212,#243,#248,.T.);
#250=ORIENTED_EDGE('',*,*,#249,.T.);
#251=CARTESIAN_POINT('',(142.8375,77.1875,0.017693924));
#252=VERTEX_POINT('',#251);
#253=CARTESIAN_POINT('',(142.8375,77.1875,0.017693924));
#254=DIRECTION('',(0.,0.,1.));
#255=VECTOR('',#254,5.);
#256=LINE('',#253,#255);
#257=EDGE_CURVE('',#252,#243,#256,.T.);
#258=ORIENTED_EDGE('',*,*,#257,.F.);
#259=CARTESIAN_POINT('',(140.65,75.,0.017693924));
#260=DIRECTION('',(0.,0.,-1.));
#261=DIRECTION('',(-1.,0.,0.));
#262=AXIS2_PLACEMENT_3D('',#259,#260,#261);
#263=CIRCLE('',#262,3.093592168);
#264=EDGE_CURVE('',#220,#252,#263,.T.);
#265=ORIENTED_EDGE('',*,*,#264,.F.);
#266=ORIENTED_EDGE('',*,*,#225,.T.);
#267=EDGE_LOOP('',(#250,#258,#265,#266));
#268=FACE_BOUND('',#267,.T.);
#269=ADVANCED_FACE('',(#268),#241,.T.);
#270=CARTESIAN_POINT('',(147.2125,72.8125,0.017693924));
#271=DIRECTION('',(0.707106781,0.707106781,0.));
#272=DIRECTION('',(-0.707106781,0.707106781,0.));
#273=AXIS2_PLACEMENT_3D('',#270,#271,#272);
#274=PLANE('',#273);
#275=CARTESIAN_POINT('',(155.016715935,65.008284065,5.017693924));
#276=VERTEX_POINT('',#275);
#277=CARTESIAN_POINT('',(155.016715935,65.008284065,5.017693924));
#278=DIRECTION('',(-0.707106781,0.707106781,0.));
#279=VECTOR('',#278,17.224012354);
#280=LINE('',#277,#279);
#281=EDGE_CURVE('',#276,#243,#280,.T.);
#282=ORIENTED_EDGE('',*,*,#281,.F.);
#283=CARTESIAN_POINT('',(155.016715935,65.008284065,0.017693924));
#284=VERTEX_POINT('',#283);
#285=CARTESIAN_POINT('',(155.016715935,65.008284065,0.017693924));
#286=DIRECTION('',(0.,0.,1.));
#287=VECTOR('',#286,5.);
#288=LINE('',#285,#287);
#289=EDGE_CURVE('',#284,#276,#288,.T.);
#290=ORIENTED_EDGE('',*,*,#289,.F.);
#291=CARTESIAN_POINT('',(155.016715935,65.008284065,0.017693924));
#292=DIRECTION('',(-0.707106781,0.707106781,0.));
#293=VECTOR('',#292,17.224012354);
#294=LINE('',#291,#293);
#295=EDGE_CURVE('',#284,#252,#294,.T.);
#296=ORIENTED_EDGE('',*,*,#295,.T.);
#297=ORIENTED_EDGE('',*,*,#257,.T.);
#298=EDGE_LOOP('',(#282,#290,#296,#297));
#299=FACE_BOUND('',#298,.T.);
#300=ADVANCED_FACE('',(#299),#274,.T.);
#301=CARTESIAN_POINT('',(158.15,68.5,0.017693924));
#302=DIRECTION('',(0.,0.,1.));
#303=DIRECTION('',(1.,0.,-0.));
#304=AXIS2_PLACEMENT_3D('',#301,#302,#303);
#305=CYLINDRICAL_SURFACE('',#304,4.691433598);
#306=CARTESIAN_POINT('',(161.283284065,65.008284065,5.017693924));
#307=VERTEX_POINT('',#306);
#308=CARTESIAN_POINT('',(158.15,68.5,5.017693924));
#309=DIRECTION('',(0.,0.,-1.));
#310=DIRECTION('',(-1.,0.,0.));
#311=AXIS2_PLACEMENT_3D('',#308,#309,#310);
#312=CIRCLE('',#311,4.691433598);
#313=EDGE_CURVE('',#307,#276,#312,.T.);
#314=ORIENTED_EDGE('',*,*,#313,.F.);
#315=CARTESIAN_POINT('',(161.283284065,65.008284065,0.017693924));
#316=VERTEX_POINT('',#315);
#317=CARTESIAN_POINT('',(161.283284065,65.008284065,0.017693924));
#318=DIRECTION('',(0.,0.,1.));
#319=VECTOR('',#318,5.);
#320=LINE('',#317,#319);
#321=EDGE_CURVE('',#316,#307,#320,.T.);
#322=ORIENTED_EDGE('',*,*,#321,.F.);
#323=CARTESIAN_POINT('',(158.15,68.5,0.017693924));
#324=DIRECTION('',(0.,0.,-1.));
#325=DIRECTION('',(-1.,0.,0.));
#326=AXIS2_PLACEMENT_3D('',#323,#324,#325);
#327=CIRCLE('',#326,4.691433598);
#328=EDGE_CURVE('',#316,#284,#327,.T.);
#329=ORIENTED_EDGE('',*,*,#328,.T.);
#330=ORIENTED_EDGE('',*,*,#289,.T.);
#331=EDGE_LOOP('',(#314,#322,#329,#330));
#332=FACE_BOUND('',#331,.T.);
#333=ADVANCED_FACE('',(#332),#305,.F.);
#334=CARTESIAN_POINT('',(167.372892033,71.097892032,0.017693924));
#335=DIRECTION('',(0.707106781,-0.707106781,0.));
#336=DIRECTION('',(0.707106781,0.707106781,0.));
#337=AXIS2_PLACEMENT_3D('',#334,#335,#336);
#338=PLANE('',#337);
#339=CARTESIAN_POINT('',(173.4625,77.1875,5.017693924));
#340=VERTEX_POINT('',#339);
#341=CARTESIAN_POINT('',(161.283284065,65.008284065,5.017693924));
#342=DIRECTION('',(0.707106781,0.707106781,0.));
#343=VECTOR('',#342,17.224012354);
#344=LINE('',#341,#343);
#345=EDGE_CURVE('',#307,#340,#344,.T.);
#346=ORIENTED_EDGE('',*,*,#345,.T.);
#347=CARTESIAN_POINT('',(173.4625,77.1875,0.017693924));
#348=VERTEX_POINT('',#347);
#349=CARTESIAN_POINT('',(173.4625,77.1875,0.017693924));
#350=DIRECTION('',(0.,0.,1.));
#351=VECTOR('',#350,5.);
#352=LINE('',#349,#351);
#353=EDGE_CURVE('',#348,#340,#352,.T.);
#354=ORIENTED_EDGE('',*,*,#353,.F.);
#355=CARTESIAN_POINT('',(161.283284065,65.008284065,0.017693924));
#356=DIRECTION('',(0.707106781,0.707106781,0.));
#357=VECTOR('',#356,17.224012354);
#358=LINE('',#355,#357);
#359=EDGE_CURVE('',#316,#348,#358,.T.);
#360=ORIENTED_EDGE('',*,*,#359,.F.);
#361=ORIENTED_EDGE('',*,*,#321,.T.);
#362=EDGE_LOOP('',(#346,#354,#360,#361));
#363=FACE_BOUND('',#362,.T.);
#364=ADVANCED_FACE('',(#363),#338,.F.);
#365=CARTESIAN_POINT('',(175.65,75.,0.017693924));
#366=DIRECTION('',(0.,0.,1.));
#367=DIRECTION('',(1.,0.,-0.));
#368=AXIS2_PLACEMENT_3D('',#365,#366,#367);
#369=CYLINDRICAL_SURFACE('',#368,3.093592168);
#370=CARTESIAN_POINT('',(178.743592168,75.,5.017693924));
#371=VERTEX_POINT('',#370);
#372=CARTESIAN_POINT('',(178.743592168,75.,0.017693924));
#373=VERTEX_POINT('',#372);
#374=CARTESIAN_POINT('',(178.743592168,75.,5.017693924));
#375=DIRECTION('',(-0.,-0.,-1.));
#376=VECTOR('',#375,5.);
#377=LINE('',#374,#376);
#378=EDGE_CURVE('',#371,#373,#377,.T.);
#379=ORIENTED_EDGE('',*,*,#378,.T.);
#380=CARTESIAN_POINT('',(175.65,75.,0.017693924));
#381=DIRECTION('',(0.,0.,-1.));
#382=DIRECTION('',(-1.,0.,0.));
#383=AXIS2_PLACEMENT_3D('',#380,#381,#382);
#384=CIRCLE('',#383,3.093592168);
#385=EDGE_CURVE('',#348,#373,#384,.T.);
#386=ORIENTED_EDGE('',*,*,#385,.F.);
#387=ORIENTED_EDGE('',*,*,#353,.T.);
#388=CARTESIAN_POINT('',(175.65,75.,5.017693924));
#389=DIRECTION('',(0.,0.,-1.));
#390=DIRECTION('',(-1.,0.,0.));
#391=AXIS2_PLACEMENT_3D('',#388,#389,#390);
#392=CIRCLE('',#391,3.093592168);
#393=EDGE_CURVE('',#340,#371,#392,.T.);
#394=ORIENTED_EDGE('',*,*,#393,.T.);
#395=EDGE_LOOP('',(#379,#386,#387,#394));
#396=FACE_BOUND('',#395,.T.);
#397=ADVANCED_FACE('',(#396),#369,.T.);
#398=CARTESIAN_POINT('',(171.676839054,66.651839054,0.017693924));
#399=DIRECTION('',(0.707106781,-0.707106781,0.));
#400=DIRECTION('',(0.707106781,0.707106781,0.));
#401=AXIS2_PLACEMENT_3D('',#398,#399,#400);
#402=PLANE('',#401);
#403=CARTESIAN_POINT('',(165.516178107,60.491178107,5.017693924));
#404=VERTEX_POINT('',#403);
#405=CARTESIAN_POINT('',(177.8375,72.8125,5.017693924));
#406=VERTEX_POINT('',#405);
#407=CARTESIAN_POINT('',(165.516178107,60.491178107,5.017693924));
#408=DIRECTION('',(0.707106781,0.707106781,0.));
#409=VECTOR('',#408,17.424980527);
#410=LINE('',#407,#409);
#411=EDGE_CURVE('',#404,#406,#410,.T.);
#412=ORIENTED_EDGE('',*,*,#411,.F.);
#413=CARTESIAN_POINT('',(165.516178107,60.491178107,0.017693924));
#414=VERTEX_POINT('',#413);
#415=CARTESIAN_POINT('',(165.516178107,60.491178107,0.017693924));
#416=DIRECTION('',(0.,0.,1.));
#417=VECTOR('',#416,5.);
#418=LINE('',#415,#417);
#419=EDGE_CURVE('',#414,#404,#418,.T.);
#420=ORIENTED_EDGE('',*,*,#419,.F.);
#421=CARTESIAN_POINT('',(177.8375,72.8125,0.017693924));
#422=VERTEX_POINT('',#421);
#423=CARTESIAN_POINT('',(165.516178107,60.491178107,0.017693924));
#424=DIRECTION('',(0.707106781,0.707106781,0.));
#425=VECTOR('',#424,17.424980527);
#426=LINE('',#423,#425);
#427=EDGE_CURVE('',#414,#422,#426,.T.);
#428=ORIENTED_EDGE('',*,*,#427,.T.);
#429=CARTESIAN_POINT('',(177.8375,72.8125,0.017693924));
#430=DIRECTION('',(0.,0.,1.));
#431=VECTOR('',#430,5.);
#432=LINE('',#429,#431);
#433=EDGE_CURVE('',#422,#406,#432,.T.);
#434=ORIENTED_EDGE('',*,*,#433,.T.);
#435=EDGE_LOOP('',(#412,#420,#428,#434));
#436=FACE_BOUND('',#435,.T.);
#437=ADVANCED_FACE('',(#436),#402,.T.);
#438=CARTESIAN_POINT('',(169.15,57.5,0.017693924));
#439=DIRECTION('',(0.,0.,1.));
#440=DIRECTION('',(1.,0.,-0.));
#441=AXIS2_PLACEMENT_3D('',#438,#439,#440);
#442=CYLINDRICAL_SURFACE('',#441,4.706570728);
#443=CARTESIAN_POINT('',(165.516178107,54.508821893,5.017693924));
#444=VERTEX_POINT('',#443);
#445=CARTESIAN_POINT('',(169.15,57.5,5.017693924));
#446=DIRECTION('',(0.,0.,-1.));
#447=DIRECTION('',(-1.,0.,0.));
#448=AXIS2_PLACEMENT_3D('',#445,#446,#447);
#449=CIRCLE('',#448,4.706570728);
#450=EDGE_CURVE('',#444,#404,#449,.T.);
#451=ORIENTED_EDGE('',*,*,#450,.F.);
#452=CARTESIAN_POINT('',(165.516178107,54.508821893,0.017693924));
#453=VERTEX_POINT('',#452);
#454=CARTESIAN_POINT('',(165.516178107,54.508821893,0.017693924));
#455=DIRECTION('',(0.,0.,1.));
#456=VECTOR('',#455,5.);
#457=LINE('',#454,#456);
#458=EDGE_CURVE('',#453,#444,#457,.T.);
#459=ORIENTED_EDGE('',*,*,#458,.F.);
#460=CARTESIAN_POINT('',(169.15,57.5,0.017693924));
#461=DIRECTION('',(0.,0.,-1.));
#462=DIRECTION('',(-1.,0.,0.));
#463=AXIS2_PLACEMENT_3D('',#460,#461,#462);
#464=CIRCLE('',#463,4.706570728);
#465=EDGE_CURVE('',#453,#414,#464,.T.);
#466=ORIENTED_EDGE('',*,*,#465,.T.);
#467=ORIENTED_EDGE('',*,*,#419,.T.);
#468=EDGE_LOOP('',(#451,#459,#466,#467));
#469=FACE_BOUND('',#468,.T.);
#470=ADVANCED_FACE('',(#469),#442,.F.);
#471=CARTESIAN_POINT('',(171.676839054,48.348160946,0.017693924));
#472=DIRECTION('',(-0.707106781,-0.707106781,0.));
#473=DIRECTION('',(0.707106781,-0.707106781,0.));
#474=AXIS2_PLACEMENT_3D('',#471,#472,#473);
#475=PLANE('',#474);
#476=CARTESIAN_POINT('',(177.8375,42.1875,5.017693924));
#477=VERTEX_POINT('',#476);
#478=CARTESIAN_POINT('',(165.516178107,54.508821893,5.017693924));
#479=DIRECTION('',(0.707106781,-0.707106781,0.));
#480=VECTOR('',#479,17.424980527);
#481=LINE('',#478,#480);
#482=EDGE_CURVE('',#444,#477,#481,.T.);
#483=ORIENTED_EDGE('',*,*,#482,.T.);
#484=CARTESIAN_POINT('',(177.8375,42.1875,0.017693924));
#485=VERTEX_POINT('',#484);
#486=CARTESIAN_POINT('',(177.8375,42.1875,0.017693924));
#487=DIRECTION('',(0.,0.,1.));
#488=VECTOR('',#487,5.);
#489=LINE('',#486,#488);
#490=EDGE_CURVE('',#485,#477,#489,.T.);
#491=ORIENTED_EDGE('',*,*,#490,.F.);
#492=CARTESIAN_POINT('',(165.516178107,54.508821893,0.017693924));
#493=DIRECTION('',(0.707106781,-0.707106781,0.));
#494=VECTOR('',#493,17.424980527);
#495=LINE('',#492,#494);
#496=EDGE_CURVE('',#453,#485,#495,.T.);
#497=ORIENTED_EDGE('',*,*,#496,.F.);
#498=ORIENTED_EDGE('',*,*,#458,.T.);
#499=EDGE_LOOP('',(#483,#491,#497,#498));
#500=FACE_BOUND('',#499,.T.);
#501=ADVANCED_FACE('',(#500),#475,.F.);
#502=CARTESIAN_POINT('',(175.65,40.,0.017693924));
#503=DIRECTION('',(0.,0.,1.));
#504=DIRECTION('',(1.,0.,-0.));
#505=AXIS2_PLACEMENT_3D('',#502,#503,#504);
#506=CYLINDRICAL_SURFACE('',#505,3.093592168);
#507=CARTESIAN_POINT('',(178.743592168,40.,5.017693924));
#508=VERTEX_POINT('',#507);
#509=CARTESIAN_POINT('',(178.743592168,40.,0.017693924));
#510=VERTEX_POINT('',#509);
#511=CARTESIAN_POINT('',(178.743592168,40.,5.017693924));
#512=DIRECTION('',(-0.,-0.,-1.));
#513=VECTOR('',#512,5.);
#514=LINE('',#511,#513);
#515=EDGE_CURVE('',#508,#510,#514,.T.);
#516=ORIENTED_EDGE('',*,*,#515,.T.);
#517=CARTESIAN_POINT('',(175.65,40.,0.017693924));
#518=DIRECTION('',(0.,0.,-1.));
#519=DIRECTION('',(-1.,0.,0.));
#520=AXIS2_PLACEMENT_3D('',#517,#518,#519);
#521=CIRCLE('',#520,3.093592168);
#522=EDGE_CURVE('',#485,#510,#521,.T.);
#523=ORIENTED_EDGE('',*,*,#522,.F.);
#524=ORIENTED_EDGE('',*,*,#490,.T.);
#525=CARTESIAN_POINT('',(175.65,40.,5.017693924));
#526=DIRECTION('',(0.,0.,-1.));
#527=DIRECTION('',(-1.,0.,0.));
#528=AXIS2_PLACEMENT_3D('',#525,#526,#527);
#529=CIRCLE('',#528,3.093592168);
#530=EDGE_CURVE('',#477,#508,#529,.T.);
#531=ORIENTED_EDGE('',*,*,#530,.T.);
#532=EDGE_LOOP('',(#516,#523,#524,#531));
#533=FACE_BOUND('',#532,.T.);
#534=ADVANCED_FACE('',(#533),#506,.T.);
#535=CARTESIAN_POINT('',(167.395394835,43.879605165,0.017693924));
#536=DIRECTION('',(-0.707106781,-0.707106781,0.));
#537=DIRECTION('',(0.707106781,-0.707106781,0.));
#538=AXIS2_PLACEMENT_3D('',#535,#536,#537);
#539=PLANE('',#538);
#540=CARTESIAN_POINT('',(173.4625,37.8125,5.017693924));
#541=VERTEX_POINT('',#540);
#542=CARTESIAN_POINT('',(161.32828967,49.94671033,5.017693924));
#543=DIRECTION('',(0.707106781,-0.707106781,0.));
#544=VECTOR('',#543,17.160364818);
#545=LINE('',#542,#544);
#546=EDGE_CURVE('',#35,#541,#545,.T.);
#547=ORIENTED_EDGE('',*,*,#546,.F.);
#548=ORIENTED_EDGE('',*,*,#64,.F.);
#549=CARTESIAN_POINT('',(173.4625,37.8125,0.017693924));
#550=VERTEX_POINT('',#549);
#551=CARTESIAN_POINT('',(161.32828967,49.94671033,0.017693924));
#552=DIRECTION('',(0.707106781,-0.707106781,0.));
#553=VECTOR('',#552,17.160364818);
#554=LINE('',#551,#553);
#555=EDGE_CURVE('',#52,#550,#554,.T.);
#556=ORIENTED_EDGE('',*,*,#555,.T.);
#557=CARTESIAN_POINT('',(173.4625,37.8125,0.017693924));
#558=DIRECTION('',(0.,0.,1.));
#559=VECTOR('',#558,5.);
#560=LINE('',#557,#559);
#561=EDGE_CURVE('',#550,#541,#560,.T.);
#562=ORIENTED_EDGE('',*,*,#561,.T.);
#563=EDGE_LOOP('',(#547,#548,#556,#562));
#564=FACE_BOUND('',#563,.T.);
#565=ADVANCED_FACE('',(#564),#539,.T.);
#566=CARTESIAN_POINT('',(47.5,20.,0.017693924));
#567=DIRECTION('',(0.,0.,-1.));
#568=DIRECTION('',(-1.,0.,0.));
#569=AXIS2_PLACEMENT_3D('',#566,#567,#568);
#570=PLANE('',#569);
#571=ORIENTED_EDGE('',*,*,#58,.F.);
#572=ORIENTED_EDGE('',*,*,#94,.F.);
#573=ORIENTED_EDGE('',*,*,#127,.T.);
#574=ORIENTED_EDGE('',*,*,#158,.F.);
#575=CARTESIAN_POINT('',(147.15,57.5,0.017693924));
#576=DIRECTION('',(0.,0.,-1.));
#577=DIRECTION('',(-1.,0.,0.));
#578=AXIS2_PLACEMENT_3D('',#575,#576,#577);
#579=CIRCLE('',#578,4.693364211);
#580=EDGE_CURVE('',#172,#147,#579,.T.);
#581=ORIENTED_EDGE('',*,*,#580,.F.);
#582=ORIENTED_EDGE('',*,*,#201,.F.);
#583=ORIENTED_EDGE('',*,*,#231,.F.);
#584=ORIENTED_EDGE('',*,*,#264,.T.);
#585=ORIENTED_EDGE('',*,*,#295,.F.);
#586=ORIENTED_EDGE('',*,*,#328,.F.);
#587=ORIENTED_EDGE('',*,*,#359,.T.);
#588=ORIENTED_EDGE('',*,*,#385,.T.);
#589=CARTESIAN_POINT('',(175.65,75.,0.017693924));
#590=DIRECTION('',(0.,0.,-1.));
#591=DIRECTION('',(-1.,0.,0.));
#592=AXIS2_PLACEMENT_3D('',#589,#590,#591);
#593=CIRCLE('',#592,3.093592168);
#594=EDGE_CURVE('',#373,#422,#593,.T.);
#595=ORIENTED_EDGE('',*,*,#594,.T.);
#596=ORIENTED_EDGE('',*,*,#427,.F.);
#597=ORIENTED_EDGE('',*,*,#465,.F.);
#598=ORIENTED_EDGE('',*,*,#496,.T.);
#599=ORIENTED_EDGE('',*,*,#522,.T.);
#600=CARTESIAN_POINT('',(175.65,40.,0.017693924));
#601=DIRECTION('',(0.,0.,-1.));
#602=DIRECTION('',(-1.,0.,0.));
#603=AXIS2_PLACEMENT_3D('',#600,#601,#602);
#604=CIRCLE('',#603,3.093592168);
#605=EDGE_CURVE('',#510,#550,#604,.T.);
#606=ORIENTED_EDGE('',*,*,#605,.T.);
#607=ORIENTED_EDGE('',*,*,#555,.F.);
#608=EDGE_LOOP('',(#571,#572,#573,#574,#581,#582,#583,#584,#585,#586,#587,#588,#595,#596,#597,#598,#599,#606,#607));
#609=FACE_BOUND('',#608,.T.);
#610=ADVANCED_FACE('',(#609),#570,.T.);
#611=CARTESIAN_POINT('',(47.5,20.,5.017693924));
#612=DIRECTION('',(0.,0.,-1.));
#613=DIRECTION('',(-1.,0.,0.));
#614=AXIS2_PLACEMENT_3D('',#611,#612,#613);
#615=PLANE('',#614);
#616=ORIENTED_EDGE('',*,*,#41,.T.);
#617=ORIENTED_EDGE('',*,*,#546,.T.);
#618=CARTESIAN_POINT('',(175.65,40.,5.017693924));
#619=DIRECTION('',(0.,0.,-1.));
#620=DIRECTION('',(-1.,0.,0.));
#621=AXIS2_PLACEMENT_3D('',#618,#619,#620);
#622=CIRCLE('',#621,3.093592168);
#623=EDGE_CURVE('',#508,#541,#622,.T.);
#624=ORIENTED_EDGE('',*,*,#623,.F.);
#625=ORIENTED_EDGE('',*,*,#530,.F.);
#626=ORIENTED_EDGE('',*,*,#482,.F.);
#627=ORIENTED_EDGE('',*,*,#450,.T.);
#628=ORIENTED_EDGE('',*,*,#411,.T.);
#629=CARTESIAN_POINT('',(175.65,75.,5.017693924));
#630=DIRECTION('',(0.,0.,-1.));
#631=DIRECTION('',(-1.,0.,0.));
#632=AXIS2_PLACEMENT_3D('',#629,#630,#631);
#633=CIRCLE('',#632,3.093592168);
#634=EDGE_CURVE('',#371,#406,#633,.T.);
#635=ORIENTED_EDGE('',*,*,#634,.F.);
#636=ORIENTED_EDGE('',*,*,#393,.F.);
#637=ORIENTED_EDGE('',*,*,#345,.F.);
#638=ORIENTED_EDGE('',*,*,#313,.T.);
#639=ORIENTED_EDGE('',*,*,#281,.T.);
#640=ORIENTED_EDGE('',*,*,#249,.F.);
#641=ORIENTED_EDGE('',*,*,#217,.T.);
#642=ORIENTED_EDGE('',*,*,#186,.T.);
#643=CARTESIAN_POINT('',(147.15,57.5,5.017693924));
#644=DIRECTION('',(0.,0.,-1.));
#645=DIRECTION('',(-1.,0.,0.));
#646=AXIS2_PLACEMENT_3D('',#643,#644,#645);
#647=CIRCLE('',#646,4.693364211);
#648=EDGE_CURVE('',#170,#139,#647,.T.);
#649=ORIENTED_EDGE('',*,*,#648,.T.);
#650=ORIENTED_EDGE('',*,*,#144,.T.);
#651=ORIENTED_EDGE('',*,*,#112,.F.);
#652=ORIENTED_EDGE('',*,*,#80,.T.);
#653=EDGE_LOOP('',(#616,#617,#624,#625,#626,#627,#628,#635,#636,#637,#638,#639,#640,#641,#642,#649,#650,#651,#652));
#654=FACE_BOUND('',#653,.T.);
#655=ADVANCED_FACE('',(#654),#615,.F.);
#656=CARTESIAN_POINT('',(147.15,57.5,0.017693924));
#657=DIRECTION('',(0.,0.,1.));
#658=DIRECTION('',(1.,0.,-0.));
#659=AXIS2_PLACEMENT_3D('',#656,#657,#658);
#660=CYLINDRICAL_SURFACE('',#659,4.693364211);
#661=ORIENTED_EDGE('',*,*,#177,.T.);
#662=ORIENTED_EDGE('',*,*,#580,.T.);
#663=ORIENTED_EDGE('',*,*,#152,.T.);
#664=ORIENTED_EDGE('',*,*,#648,.F.);
#665=EDGE_LOOP('',(#661,#662,#663,#664));
#666=FACE_BOUND('',#665,.T.);
#667=ADVANCED_FACE('',(#666),#660,.F.);
#668=CARTESIAN_POINT('',(175.65,75.,0.017693924));
#669=DIRECTION('',(0.,0.,1.));
#670=DIRECTION('',(1.,0.,-0.));
#671=AXIS2_PLACEMENT_3D('',#668,#669,#670);
#672=CYLINDRICAL_SURFACE('',#671,3.093592168);
#673=ORIENTED_EDGE('',*,*,#378,.F.);
#674=ORIENTED_EDGE('',*,*,#634,.T.);
#675=ORIENTED_EDGE('',*,*,#433,.F.);
#676=ORIENTED_EDGE('',*,*,#594,.F.);
#677=EDGE_LOOP('',(#673,#674,#675,#676));
#678=FACE_BOUND('',#677,.T.);
#679=ADVANCED_FACE('',(#678),#672,.T.);
#680=CARTESIAN_POINT('',(175.65,40.,0.017693924));
#681=DIRECTION('',(0.,0.,1.));
#682=DIRECTION('',(1.,0.,-0.));
#683=AXIS2_PLACEMENT_3D('',#680,#681,#682);
#684=CYLINDRICAL_SURFACE('',#683,3.093592168);
#685=ORIENTED_EDGE('',*,*,#515,.F.);
#686=ORIENTED_EDGE('',*,*,#623,.T.);
#687=ORIENTED_EDGE('',*,*,#561,.F.);
#688=ORIENTED_EDGE('',*,*,#605,.F.);
#689=EDGE_LOOP('',(#685,#686,#687,#688));
#690=FACE_BOUND('',#689,.T.);
#691=ADVANCED_FACE('',(#690),#684,.T.);
#692=CLOSED_SHELL('',(#68,#99,#132,#163,#205,#236,#269,#300,#333,#364,#397,#437,#470,#501,#534,#565,#610,#655,#667,#679,#691));
#693=MANIFOLD_SOLID_BREP('X1 (1)',#692);
#694=DRAUGHTING_PRE_DEFINED_COLOUR('white');
#695=FILL_AREA_STYLE_COLOUR('',#694);
#696=FILL_AREA_STYLE('',(#695));
#697=SURFACE_STYLE_FILL_AREA(#696);
#698=SURFACE_SIDE_STYLE('',(#697));
#699=SURFACE_STYLE_USAGE(.BOTH.,#698);
#700=PRESENTATION_STYLE_ASSIGNMENT((#699));
#26=STYLED_ITEM('',(#700),#693);
#16=SHAPE_REPRESENTATION('X1 (1)',(#15),#10);
#17=ADVANCED_BREP_SHAPE_REPRESENTATION('X1 (1)',(#693),#10);
#708=SHAPE_REPRESENTATION_RELATIONSHIP('','',#16,#17);
#709=CARTESIAN_POINT('',(0.,0.,0.));
#710=DIRECTION('',(0.,0.,1.));
#711=DIRECTION('',(1.,0.,0.));
#712=AXIS2_PLACEMENT_3D('',#709,#710,#711);
#714=MAPPED_ITEM('',#713,#712);
#713=REPRESENTATION_MAP(#712,#16);
#715=APPLICATION_CONTEXT('Managed model based 3d engineering');
#716=APPLICATION_PROTOCOL_DEFINITION('international standard','ap242_managed_model_based_3d_engineering',2014,#715);
#717=PRODUCT_CONTEXT('',#715,'mechanical');
#718=PRODUCT_DEFINITION_CONTEXT('part definition',#715,'design');
#24=PRODUCT('X1 (1)','X1 (1)','',(#717));
#719=PRODUCT_RELATED_PRODUCT_CATEGORY('part','',(#24));
#720=PRODUCT_DEFINITION_FORMATION_WITH_SPECIFIED_SOURCE('','',#24,.NOT_KNOWN.);
#25=PRODUCT_DEFINITION('design','',#720,#718);
#23=PRODUCT_DEFINITION_SHAPE('','',#25);
#721=SHAPE_DEFINITION_REPRESENTATION(#23,#16);
#11=DRAUGHTING_MODEL('',(#714),#10);
#722=DESCRIPTIVE_REPRESENTATION_ITEM('KEY','/Users/quimgraellsolive/Library/Containers/com.shapr3d.shapr/Data/tmp/60D2F360-007C-4A69-996B-2BEB4C639830.tmp');
#723=PROPERTY_DEFINITION('KEY','',#25);
#724=REPRESENTATION('',(#722),#10);
#725=PROPERTY_DEFINITION_REPRESENTATION(#723,#724);
#726=GENERAL_PROPERTY('','KEY','');
#727=GENERAL_PROPERTY_ASSOCIATION('','',#726,#723);
#1=MECHANICAL_DESIGN_GEOMETRIC_PRESENTATION_REPRESENTATION('',(#26),#10);
ENDSEC;
END-ISO-10303-21;
